<svg width="1150" height="803" viewBox="0 0 1150 803" fill="none" xmlns="http://www.w3.org/2000/svg">
<rect x="0.433013" y="0.75" width="199" height="199" rx="3.5" transform="matrix(0.866025 0.5 -4.48205e-08 1 976.058 -0.216506)" fill="url(#paint0_linear_294_403)" fill-opacity="0.7"/>
<rect x="0.433013" y="0.75" width="199" height="199" rx="3.5" transform="matrix(0.866025 0.5 -4.48205e-08 1 976.058 -0.216506)" stroke="#19486A"/>
<g style="mix-blend-mode:overlay">
<path d="M989.233 48.64L989.233 43.88L994.741 47.06L994.741 28.34L990.099 25.66L990.099 22.02C992.662 22.94 994.429 23.2 996.057 22.94L999.833 25.12L999.833 50L1004.65 52.78L1004.65 57.54L989.233 48.64ZM1013.23 62.4973C1013.68 52.4773 1015.17 46.7773 1020.06 41.7573L1008.52 35.0973L1008.52 30.1373L1025.57 39.9773L1025.57 43.5773C1019.61 48.5373 1018.81 54.1173 1018.4 65.4773L1013.23 62.4973Z" fill="white"/>
</g>
<rect x="0.433013" y="0.75" width="49" height="53" rx="3.5" transform="matrix(0.866025 0.5 -4.48205e-08 1 957.058 157.783)" fill="url(#paint1_linear_294_403)" fill-opacity="0.7"/>
<rect x="0.433013" y="0.75" width="49" height="53" rx="3.5" transform="matrix(0.866025 0.5 -4.48205e-08 1 957.058 157.783)" stroke="#00689D" stroke-dasharray="4 4"/>
<g style="mix-blend-mode:overlay">
<path d="M968.387 186.574L968.387 184.908L970.314 186.021L970.314 179.469L968.69 178.531L968.69 177.257C969.587 177.579 970.205 177.67 970.775 177.579L972.097 178.342L972.097 187.05L973.782 188.023L973.782 189.689L968.387 186.574ZM978.266 187.21C977.781 186.93 977.211 186.909 976.799 187.455C976.969 189.443 977.575 190.521 978.327 190.955C978.994 191.34 979.551 191.018 979.551 189.744C979.551 188.526 979.042 187.658 978.266 187.21ZM978.363 192.53C976.654 191.543 975.138 189.086 975.138 185.432C975.138 181.568 976.799 180.875 978.606 181.918C979.709 182.555 980.497 183.542 981.043 184.501L980.097 185.187C979.782 184.585 979.236 183.934 978.715 183.633C977.684 183.038 976.836 183.444 976.763 186.006C977.248 185.586 978.024 185.614 978.606 185.95C980.109 186.818 981.176 188.47 981.176 190.682C981.176 192.81 979.891 193.412 978.363 192.53Z" fill="white"/>
</g>
<rect x="0.433013" y="0.75" width="149" height="149" rx="3.5" transform="matrix(0.866025 0.5 -4.48205e-08 1 853.058 119.783)" fill="url(#paint2_linear_294_403)" fill-opacity="0.7"/>
<rect x="0.433013" y="0.75" width="149" height="149" rx="3.5" transform="matrix(0.866025 0.5 -4.48205e-08 1 853.058 119.783)" stroke="#56C02B"/>
<g style="mix-blend-mode:overlay">
<path d="M865.665 162.312L865.665 158.504L870.071 161.048L870.071 146.072L866.358 143.928L866.358 141.016C868.408 141.752 869.822 141.96 871.124 141.752L874.145 143.496L874.145 163.4L877.997 165.624L877.997 169.432L865.665 162.312ZM887.36 175.286C884.118 173.414 881.956 170.694 880.432 168.054L882.317 166.134C883.48 168.118 884.922 170.038 886.834 171.142C888.968 172.374 890.464 171.67 890.464 168.886C890.464 166.134 889.078 163.798 887 162.598C885.781 161.894 885.115 161.862 883.924 162.07L882.067 159.59L882.621 148.39L893.596 154.726L893.596 158.694L886.141 154.39L885.753 159.19C886.584 159.222 887.277 159.398 888.219 159.942C891.656 161.926 894.538 165.958 894.538 171.11C894.538 176.39 891.157 177.478 887.36 175.286Z" fill="white"/>
</g>
<rect x="0.433013" y="0.75" width="49" height="49" rx="3.5" transform="matrix(0.866025 0.5 -4.48205e-08 1 835.058 230.783)" fill="url(#paint3_linear_294_403)" fill-opacity="0.7"/>
<rect x="0.433013" y="0.75" width="49" height="49" rx="3.5" transform="matrix(0.866025 0.5 -4.48205e-08 1 835.058 230.783)" stroke="#0A97D9"/>
<g style="mix-blend-mode:overlay">
<path d="M846.387 259.574L846.387 257.908L848.314 259.021L848.314 252.469L846.69 251.531L846.69 250.257C847.587 250.579 848.205 250.67 848.775 250.579L850.097 251.342L850.097 260.05L851.782 261.023L851.782 262.689L846.387 259.574ZM854.52 260.014L856.618 261.225L856.618 259.111C856.618 258.509 856.654 257.592 856.678 256.99L856.63 256.962C856.412 257.396 856.169 257.83 855.915 258.243L854.52 260.014ZM856.618 265.481L856.618 262.793L852.787 260.581L852.787 259.181L856.133 254.827L858.279 256.066L858.279 262.184L859.334 262.793L859.334 264.361L858.279 263.752L858.279 266.44L856.618 265.481Z" fill="white"/>
</g>
<rect x="0.433013" y="0.75" width="49" height="53" rx="3.5" transform="matrix(0.866025 0.5 -4.48205e-08 1 817.058 238.783)" fill="url(#paint4_linear_294_403)" fill-opacity="0.7"/>
<rect x="0.433013" y="0.75" width="49" height="53" rx="3.5" transform="matrix(0.866025 0.5 -4.48205e-08 1 817.058 238.783)" stroke="#3F7E44" stroke-dasharray="4 4"/>
<g style="mix-blend-mode:overlay">
<path d="M828.387 267.574L828.387 265.908L830.314 267.021L830.314 260.469L828.69 259.531L828.69 258.257C829.587 258.579 830.205 258.67 830.775 258.579L832.097 259.342L832.097 268.05L833.782 269.023L833.782 270.689L828.387 267.574ZM837.854 273.236C836.435 272.417 835.478 271.248 834.847 270.058L835.684 269.239C836.217 270.149 836.872 270.989 837.684 271.458C838.594 271.983 839.212 271.822 839.212 270.884C839.212 269.876 838.691 268.931 836.739 267.804L836.739 266.334C838.388 267.286 838.921 266.936 838.921 266.012C838.921 265.2 838.485 264.472 837.721 264.031C837.078 263.66 836.557 263.695 836.023 263.961L835.114 262.176C835.89 261.84 836.751 261.847 837.806 262.456C839.539 263.457 840.715 265.13 840.715 266.894C840.715 268.014 840.17 268.511 839.224 268.399L839.224 268.469C840.23 269.372 841.006 270.688 841.006 272.046C841.006 273.95 839.564 274.223 837.854 273.236Z" fill="white"/>
</g>
<rect x="0.433013" y="0.75" width="199" height="199" rx="3.5" transform="matrix(0.866025 0.5 -4.48205e-08 1 669.058 176.783)" fill="url(#paint5_linear_294_403)" fill-opacity="0.7"/>
<rect x="0.433013" y="0.75" width="199" height="199" rx="3.5" transform="matrix(0.866025 0.5 -4.48205e-08 1 669.058 176.783)" stroke="#BF8B2E"/>
<g style="mix-blend-mode:overlay">
<path d="M682.233 225.64L682.233 220.88L687.741 224.06L687.741 205.34L683.099 202.66L683.099 199.02C685.662 199.94 687.429 200.2 689.057 199.94L692.833 202.12L692.833 227L697.648 229.78L697.648 234.54L682.233 225.64ZM701.281 236.637L701.281 233.237C708.244 230.057 712.366 226.877 712.366 222.317C712.366 219.317 710.98 216.717 708.521 215.297C706.65 214.217 705.126 214.737 703.81 215.617L701.038 210.817C703.394 209.257 705.68 209.017 709.179 211.037C714.029 213.837 717.25 219.297 717.25 224.817C717.25 230.177 713.405 233.717 708.729 236.297C710.01 236.877 711.708 237.697 712.92 238.397L718.463 241.597L718.463 246.557L701.281 236.637Z" fill="white"/>
</g>
<rect x="0.433013" y="0.75" width="149" height="149" rx="3.5" transform="matrix(0.866025 0.5 -4.48205e-08 1 566.058 283.783)" fill="url(#paint6_linear_294_403)" fill-opacity="0.7"/>
<rect x="0.433013" y="0.75" width="149" height="149" rx="3.5" transform="matrix(0.866025 0.5 -4.48205e-08 1 566.058 283.783)" stroke="#FD9D24"/>
<g style="mix-blend-mode:overlay">
<path d="M578.665 326.312L578.665 322.504L583.071 325.048L583.071 310.072L579.358 307.928L579.358 305.016C581.408 305.752 582.822 305.96 584.124 305.752L587.145 307.496L587.145 327.4L590.997 329.624L590.997 333.432L578.665 326.312ZM594.984 335.734L594.984 331.926L599.39 334.47L599.39 319.494L595.677 317.35L595.677 314.438C597.728 315.174 599.141 315.382 600.443 315.174L603.464 316.918L603.464 336.822L607.316 339.046L607.316 342.854L594.984 335.734Z" fill="white"/>
</g>
<rect x="0.433013" y="0.75" width="49" height="49" rx="3.5" transform="matrix(0.866025 0.5 -4.48205e-08 1 548.058 396.783)" fill="url(#paint7_linear_294_403)" fill-opacity="0.7"/>
<rect x="0.433013" y="0.75" width="49" height="49" rx="3.5" transform="matrix(0.866025 0.5 -4.48205e-08 1 548.058 396.783)" stroke="#DD1367"/>
<g style="mix-blend-mode:overlay">
<path d="M559.387 425.574L559.387 423.908L561.314 425.021L561.314 418.469L559.69 417.531L559.69 416.257C560.587 416.579 561.205 416.67 561.775 416.579L563.097 417.342L563.097 426.05L564.782 427.023L564.782 428.689L559.387 425.574ZM569.109 431.383C567.278 430.326 566.065 427.778 566.065 424.208C566.065 420.624 567.278 419.574 569.109 420.631C570.939 421.688 572.14 424.145 572.14 427.715C572.14 431.285 570.939 432.44 569.109 431.383ZM569.109 429.773C569.885 430.221 570.454 429.654 570.454 426.742C570.454 423.844 569.885 422.675 569.109 422.227C568.333 421.779 567.751 422.283 567.751 425.181C567.751 428.093 568.333 429.325 569.109 429.773Z" fill="white"/>
</g>
<rect x="0.433013" y="0.75" width="149" height="149" rx="3.5" transform="matrix(0.866025 0.5 -4.48205e-08 1 444.058 355.783)" fill="url(#paint8_linear_294_403)" fill-opacity="0.7"/>
<rect x="0.433013" y="0.75" width="149" height="149" rx="3.5" transform="matrix(0.866025 0.5 -4.48205e-08 1 444.058 355.783)" stroke="#FD6925"/>
<g style="mix-blend-mode:overlay">
<path d="M459.242 383.576C459.242 386.36 460.378 388.328 462.152 389.352C463.288 390.008 464.591 390.024 465.533 388.744C465.173 384.248 463.759 381.832 462.013 380.824C460.489 379.944 459.242 380.664 459.242 383.576ZM461.459 401.528C458.91 400.056 457.053 397.736 455.833 395.592L457.995 393.992C458.743 395.384 459.99 396.84 461.21 397.544C463.51 398.872 465.394 397.944 465.588 392.136C464.508 393.112 462.762 393.064 461.376 392.264C457.967 390.296 455.501 386.44 455.501 381.416C455.501 376.552 458.438 375.208 461.958 377.24C465.838 379.48 469.33 385.016 469.33 393.24C469.33 402.2 465.533 403.88 461.459 401.528Z" fill="white"/>
</g>
<rect x="0.433013" y="0.75" width="99" height="99" rx="3.5" transform="matrix(0.866025 0.5 -4.48205e-08 1 383.058 441.783)" fill="url(#paint9_linear_294_403)" fill-opacity="0.7"/>
<rect x="0.433013" y="0.75" width="99" height="99" rx="3.5" transform="matrix(0.866025 0.5 -4.48205e-08 1 383.058 441.783)" stroke="#A21942"/>
<g style="mix-blend-mode:overlay">
<path d="M398.485 478.22C396.042 476.81 394.206 474.11 394.206 471.79C394.206 469.89 395.211 469.23 396.406 469.2L396.406 469.1C395.419 467.71 394.709 466.18 394.709 464.6C394.709 462.22 396.354 461.65 398.571 462.93C400.84 464.24 402.295 466.66 402.295 469.02C402.295 470.48 401.498 471.24 400.65 471.45L400.65 471.55C401.827 472.97 402.797 474.73 402.797 476.75C402.797 478.99 401.083 479.72 398.485 478.22ZM399.299 469.95C399.922 469.55 400.217 468.88 400.217 468C400.217 466.8 399.593 465.58 398.519 464.96C397.653 464.46 396.96 464.72 396.96 465.9C396.96 467.3 397.948 468.55 399.299 469.95ZM398.554 476.18C399.645 476.81 400.424 476.56 400.424 475.28C400.424 473.74 399.247 472.42 397.584 470.68C396.891 470.92 396.406 471.64 396.406 472.74C396.406 474.08 397.359 475.49 398.554 476.18Z" fill="white"/>
</g>
<rect x="0.433013" y="0.75" width="199" height="199" rx="3.5" transform="matrix(0.866025 0.5 -4.48205e-08 1 236.058 426.783)" fill="url(#paint10_linear_294_403)" fill-opacity="0.7"/>
<rect x="0.433013" y="0.75" width="199" height="199" rx="3.5" transform="matrix(0.866025 0.5 -4.48205e-08 1 236.058 426.783)" stroke="#FCC30B"/>
<g style="mix-blend-mode:overlay">
<path d="M252.836 477.72C253.286 467.7 254.775 462 259.66 456.98L248.124 450.32L248.124 445.36L265.168 455.2L265.168 458.8C259.21 463.76 258.413 469.34 257.997 480.7L252.836 477.72Z" fill="white"/>
</g>
<rect x="0.433013" y="0.75" width="49" height="53" rx="3.5" transform="matrix(0.866025 0.5 -4.48205e-08 1 218.058 584.783)" fill="url(#paint11_linear_294_403)" fill-opacity="0.7"/>
<rect x="0.433013" y="0.75" width="49" height="53" rx="3.5" transform="matrix(0.866025 0.5 -4.48205e-08 1 218.058 584.783)" stroke="#26BDE2" stroke-dasharray="4 4"/>
<g style="mix-blend-mode:overlay">
<path d="M232.127 610.088C231.642 609.808 231.072 609.787 230.66 610.333C230.829 612.321 231.436 613.399 232.187 613.833C232.854 614.218 233.412 613.896 233.412 612.622C233.412 611.404 232.903 610.536 232.127 610.088ZM232.224 615.408C230.514 614.421 228.999 611.964 228.999 608.31C228.999 604.446 230.66 603.753 232.466 604.796C233.569 605.433 234.358 606.42 234.903 607.379L233.957 608.065C233.642 607.463 233.097 606.812 232.575 606.511C231.545 605.916 230.696 606.322 230.623 608.884C231.108 608.464 231.884 608.492 232.466 608.828C233.97 609.696 235.036 611.348 235.036 613.56C235.036 615.688 233.751 616.29 232.224 615.408Z" fill="white"/>
</g>
<rect x="0.433013" y="0.75" width="99" height="99" rx="3.5" transform="matrix(0.866025 0.5 -4.48205e-08 1 157.058 572.783)" fill="url(#paint12_linear_294_403)" fill-opacity="0.7"/>
<rect x="0.433013" y="0.75" width="99" height="99" rx="3.5" transform="matrix(0.866025 0.5 -4.48205e-08 1 157.058 572.783)" stroke="#FF3A21"/>
<g style="mix-blend-mode:overlay">
<path d="M174.085 616.256C171.248 614.618 169.356 612.238 168.023 609.928L169.672 608.248C170.69 609.984 171.951 611.664 173.624 612.63C175.491 613.708 176.801 613.092 176.801 610.656C176.801 608.248 175.588 606.204 173.77 605.154C172.703 604.538 172.121 604.51 171.078 604.692L169.453 602.522L169.938 592.722L179.541 598.266L179.541 601.738L173.018 597.972L172.679 602.172C173.406 602.2 174.012 602.354 174.837 602.83C177.844 604.566 180.365 608.094 180.365 612.602C180.365 617.222 177.407 618.174 174.085 616.256Z" fill="white"/>
</g>
<rect x="0.433013" y="0.75" width="99" height="99" rx="3.5" transform="matrix(0.866025 0.5 -4.48205e-08 1 96.058 607.783)" fill="url(#paint13_linear_294_403)" fill-opacity="0.7"/>
<rect x="0.433013" y="0.75" width="99" height="99" rx="3.5" transform="matrix(0.866025 0.5 -4.48205e-08 1 96.058 607.783)" stroke="#C5192D"/>
<g style="mix-blend-mode:overlay">
<path d="M109.233 636.56L112.229 638.29L112.229 635.27C112.229 634.41 112.281 633.1 112.316 632.24L112.247 632.2C111.935 632.82 111.588 633.44 111.225 634.03L109.233 636.56ZM112.229 644.37L112.229 640.53L106.756 637.37L106.756 635.37L111.537 629.15L114.602 630.92L114.602 639.66L116.109 640.53L116.109 642.77L114.602 641.9L114.602 645.74L112.229 644.37Z" fill="white"/>
</g>
<rect x="0.433013" y="0.75" width="49" height="49" rx="3.5" transform="matrix(0.866025 0.5 -4.48205e-08 1 78.058 667.783)" fill="url(#paint14_linear_294_403)" fill-opacity="0.7"/>
<rect x="0.433013" y="0.75" width="49" height="49" rx="3.5" transform="matrix(0.866025 0.5 -4.48205e-08 1 78.058 667.783)" stroke="#4C9F38"/>
<g style="mix-blend-mode:overlay">
<path d="M91.7144 698.114C90.2959 697.295 89.338 696.126 88.7076 694.936L89.5441 694.117C90.0776 695.027 90.7323 695.867 91.5447 696.336C92.454 696.861 93.0723 696.7 93.0723 695.762C93.0723 694.754 92.551 693.809 90.599 692.682L90.599 691.212C92.2479 692.164 92.7814 691.814 92.7814 690.89C92.7814 690.078 92.3449 689.35 91.581 688.909C90.9384 688.538 90.4171 688.573 89.8836 688.839L88.9743 687.054C89.7503 686.718 90.6111 686.725 91.6659 687.334C93.3997 688.335 94.5758 690.008 94.5758 691.772C94.5758 692.892 94.0302 693.389 93.0845 693.277L93.0845 693.347C94.0908 694.25 94.8667 695.566 94.8667 696.924C94.8667 698.828 93.4239 699.101 91.7144 698.114Z" fill="white"/>
</g>
<rect x="0.433013" y="0.75" width="99" height="99" rx="3.5" transform="matrix(0.866025 0.5 -4.48205e-08 1 18.058 652.783)" fill="url(#paint15_linear_294_403)" fill-opacity="0.7"/>
<rect x="0.433013" y="0.75" width="99" height="99" rx="3.5" transform="matrix(0.866025 0.5 -4.48205e-08 1 18.058 652.783)" stroke="#D09F29"/>
<g style="mix-blend-mode:overlay">
<path d="M29.1371 686.43L29.1371 684.73C32.6185 683.14 34.6797 681.55 34.6797 679.27C34.6797 677.77 33.9869 676.47 32.7571 675.76C31.8218 675.22 31.0597 675.48 30.4015 675.92L29.0159 673.52C30.1937 672.74 31.3368 672.62 33.0862 673.63C35.5111 675.03 37.1219 677.76 37.1219 680.52C37.1219 683.2 35.1993 684.97 32.861 686.26C33.5019 686.55 34.3506 686.96 34.9568 687.31L37.7281 688.91L37.7281 691.39L29.1371 686.43Z" fill="white"/>
</g>
<rect x="0.433013" y="0.75" width="49" height="53" rx="3.5" transform="matrix(0.866025 0.5 -4.48205e-08 1 0.0580127 710.783)" fill="url(#paint16_linear_294_403)" fill-opacity="0.7"/>
<rect x="0.433013" y="0.75" width="49" height="53" rx="3.5" transform="matrix(0.866025 0.5 -4.48205e-08 1 0.0580127 710.783)" stroke="#C5192D" stroke-dasharray="4 4"/>
<g style="mix-blend-mode:overlay">
<path d="M11.3865 739.574L11.3865 737.908L13.3143 739.021L13.3143 732.469L11.6896 731.531L11.6896 730.257C12.5868 730.579 13.2052 730.67 13.775 730.579L15.0966 731.342L15.0966 740.05L16.7819 741.023L16.7819 742.689L11.3865 739.574Z" fill="white"/>
</g>
<defs>
<linearGradient id="paint0_linear_294_403" x1="273.118" y1="-73.2367" x2="342.373" y2="65.138" gradientUnits="userSpaceOnUse">
<stop stop-color="#19486A"/>
<stop offset="1"/>
</linearGradient>
<linearGradient id="paint1_linear_294_403" x1="68.2796" y1="-19.7739" x2="87.8229" y2="16.382" gradientUnits="userSpaceOnUse">
<stop stop-color="#00689D"/>
<stop offset="1"/>
</linearGradient>
<linearGradient id="paint2_linear_294_403" x1="204.839" y1="-54.9275" x2="256.78" y2="48.8532" gradientUnits="userSpaceOnUse">
<stop stop-color="#56C02B"/>
<stop offset="1"/>
</linearGradient>
<linearGradient id="paint3_linear_294_403" x1="68.2796" y1="-18.3092" x2="85.5933" y2="16.2845" gradientUnits="userSpaceOnUse">
<stop stop-color="#0A97D9"/>
<stop offset="1"/>
</linearGradient>
<linearGradient id="paint4_linear_294_403" x1="68.2796" y1="-19.7739" x2="87.8229" y2="16.382" gradientUnits="userSpaceOnUse">
<stop stop-color="#3F7E44"/>
<stop offset="1"/>
</linearGradient>
<linearGradient id="paint5_linear_294_403" x1="273.118" y1="-73.2367" x2="342.373" y2="65.1376" gradientUnits="userSpaceOnUse">
<stop stop-color="#BF8B2E"/>
<stop offset="1"/>
</linearGradient>
<linearGradient id="paint6_linear_294_403" x1="204.839" y1="-54.9275" x2="256.78" y2="48.8532" gradientUnits="userSpaceOnUse">
<stop stop-color="#FD9D24"/>
<stop offset="1"/>
</linearGradient>
<linearGradient id="paint7_linear_294_403" x1="68.2795" y1="-18.3092" x2="85.5933" y2="16.2844" gradientUnits="userSpaceOnUse">
<stop stop-color="#DD1367"/>
<stop offset="1"/>
</linearGradient>
<linearGradient id="paint8_linear_294_403" x1="204.839" y1="-54.9275" x2="256.78" y2="48.8532" gradientUnits="userSpaceOnUse">
<stop stop-color="#FD6925"/>
<stop offset="1"/>
</linearGradient>
<linearGradient id="paint9_linear_294_403" x1="136.559" y1="-36.6184" x2="171.187" y2="32.5688" gradientUnits="userSpaceOnUse">
<stop stop-color="#A21942"/>
<stop offset="1"/>
</linearGradient>
<linearGradient id="paint10_linear_294_403" x1="273.118" y1="-73.2367" x2="342.373" y2="65.138" gradientUnits="userSpaceOnUse">
<stop stop-color="#FCC30B"/>
<stop offset="1"/>
</linearGradient>
<linearGradient id="paint11_linear_294_403" x1="68.2796" y1="-19.7739" x2="87.8229" y2="16.382" gradientUnits="userSpaceOnUse">
<stop stop-color="#26BDE2"/>
<stop offset="1"/>
</linearGradient>
<linearGradient id="paint12_linear_294_403" x1="136.559" y1="-36.6184" x2="171.187" y2="32.569" gradientUnits="userSpaceOnUse">
<stop stop-color="#FF3A21"/>
<stop offset="1"/>
</linearGradient>
<linearGradient id="paint13_linear_294_403" x1="136.559" y1="-36.6184" x2="171.187" y2="32.569" gradientUnits="userSpaceOnUse">
<stop stop-color="#C5192D"/>
<stop offset="1"/>
</linearGradient>
<linearGradient id="paint14_linear_294_403" x1="68.2795" y1="-18.3092" x2="85.5933" y2="16.2844" gradientUnits="userSpaceOnUse">
<stop stop-color="#4C9F38"/>
<stop offset="1"/>
</linearGradient>
<linearGradient id="paint15_linear_294_403" x1="136.559" y1="-36.6184" x2="171.187" y2="32.569" gradientUnits="userSpaceOnUse">
<stop stop-color="#D09F29"/>
<stop offset="1"/>
</linearGradient>
<linearGradient id="paint16_linear_294_403" x1="68.2796" y1="-19.7739" x2="87.8229" y2="16.382" gradientUnits="userSpaceOnUse">
<stop stop-color="#E5243B"/>
<stop offset="1"/>
</linearGradient>
</defs>
</svg>
