<svg width="1281" height="803" viewBox="0 0 1281 803" fill="none" xmlns="http://www.w3.org/2000/svg">
<rect x="0.433013" y="0.75" width="199" height="199" rx="3.5" transform="matrix(0.866025 0.5 -4.48205e-08 1 1107.06 -0.216506)" fill="url(#paint0_linear_309_7604)" fill-opacity="0.7"/>
<rect x="0.433013" y="0.75" width="199" height="199" rx="3.5" transform="matrix(0.866025 0.5 -4.48205e-08 1 1107.06 -0.216506)" stroke="#6D6D6D"/>
<g style="mix-blend-mode:overlay">
<path d="M1120.23 48.64L1120.23 43.88L1125.74 47.06L1125.74 28.34L1121.1 25.66L1121.1 22.02C1123.66 22.94 1125.43 23.2 1127.06 22.94L1130.83 25.12L1130.83 50L1135.65 52.78L1135.65 57.54L1120.23 48.64ZM1144.23 62.4973C1144.69 52.4773 1146.17 46.7773 1151.06 41.7573L1139.52 35.0973L1139.52 30.1373L1156.57 39.9773L1156.57 43.5773C1150.61 48.5373 1149.81 54.1173 1149.4 65.4773L1144.23 62.4973Z" fill="white"/>
</g>
<rect x="0.433013" y="0.75" width="49" height="53" rx="3.5" transform="matrix(0.866025 0.5 -4.48205e-08 1 1080.06 157.783)" fill="url(#paint1_linear_309_7604)" fill-opacity="0.7"/>
<rect x="0.433013" y="0.75" width="49" height="53" rx="3.5" transform="matrix(0.866025 0.5 -4.48205e-08 1 1080.06 157.783)" stroke="#6D6D6D" stroke-dasharray="4 4"/>
<g style="mix-blend-mode:overlay">
<path d="M1091.39 186.574L1091.39 184.908L1093.31 186.021L1093.31 179.469L1091.69 178.531L1091.69 177.257C1092.59 177.579 1093.21 177.67 1093.78 177.579L1095.1 178.342L1095.1 187.05L1096.78 188.023L1096.78 189.689L1091.39 186.574ZM1101.27 187.21C1100.78 186.93 1100.21 186.909 1099.8 187.455C1099.97 189.443 1100.58 190.521 1101.33 190.955C1101.99 191.34 1102.55 191.018 1102.55 189.744C1102.55 188.526 1102.04 187.658 1101.27 187.21ZM1101.36 192.53C1099.65 191.543 1098.14 189.086 1098.14 185.432C1098.14 181.568 1099.8 180.875 1101.61 181.918C1102.71 182.555 1103.5 183.542 1104.04 184.501L1103.1 185.187C1102.78 184.585 1102.24 183.934 1101.72 183.633C1100.68 183.038 1099.84 183.444 1099.76 186.006C1100.25 185.586 1101.02 185.614 1101.61 185.95C1103.11 186.818 1104.18 188.47 1104.18 190.682C1104.18 192.81 1102.89 193.412 1101.36 192.53Z" fill="white"/>
</g>
<rect x="0.433013" y="0.75" width="149" height="149" rx="3.5" transform="matrix(0.866025 0.5 -4.48205e-08 1 968.058 119.783)" fill="url(#paint2_linear_309_7604)" fill-opacity="0.7"/>
<rect x="0.433013" y="0.75" width="149" height="149" rx="3.5" transform="matrix(0.866025 0.5 -4.48205e-08 1 968.058 119.783)" stroke="#6D6D6D"/>
<g style="mix-blend-mode:overlay">
<path d="M980.665 162.312L980.665 158.504L985.071 161.048L985.071 146.072L981.358 143.928L981.358 141.016C983.409 141.752 984.822 141.96 986.124 141.752L989.145 143.496L989.145 163.4L992.997 165.624L992.997 169.432L980.665 162.312ZM1002.36 175.286C999.118 173.414 996.956 170.694 995.432 168.054L997.317 166.134C998.481 168.118 999.922 170.038 1001.83 171.142C1003.97 172.374 1005.46 171.67 1005.46 168.886C1005.46 166.134 1004.08 163.798 1002 162.598C1000.78 161.894 1000.12 161.862 998.924 162.07L997.067 159.59L997.622 148.39L1008.6 154.726L1008.6 158.694L1001.14 154.39L1000.75 159.19C1001.58 159.222 1002.28 159.398 1003.22 159.942C1006.66 161.926 1009.54 165.958 1009.54 171.11C1009.54 176.39 1006.16 177.478 1002.36 175.286Z" fill="white"/>
</g>
<rect x="0.433013" y="0.75" width="49" height="49" rx="3.5" transform="matrix(0.866025 0.5 -4.48205e-08 1 942.058 230.783)" fill="url(#paint3_linear_309_7604)" fill-opacity="0.7"/>
<rect x="0.433013" y="0.75" width="49" height="49" rx="3.5" transform="matrix(0.866025 0.5 -4.48205e-08 1 942.058 230.783)" stroke="#6D6D6D"/>
<g style="mix-blend-mode:overlay">
<path d="M953.387 259.574L953.387 257.908L955.315 259.021L955.315 252.469L953.69 251.531L953.69 250.257C954.587 250.579 955.205 250.67 955.775 250.579L957.097 251.342L957.097 260.05L958.782 261.023L958.782 262.689L953.387 259.574ZM961.521 260.014L963.618 261.225L963.618 259.111C963.618 258.509 963.654 257.592 963.679 256.99L963.63 256.962C963.412 257.396 963.17 257.83 962.915 258.243L961.521 260.014ZM963.618 265.481L963.618 262.793L959.787 260.581L959.787 259.181L963.133 254.827L965.279 256.066L965.279 262.184L966.334 262.793L966.334 264.361L965.279 263.752L965.279 266.44L963.618 265.481Z" fill="white"/>
</g>
<rect x="0.433013" y="0.75" width="49" height="53" rx="3.5" transform="matrix(0.866025 0.5 -4.48205e-08 1 916.058 238.783)" fill="url(#paint4_linear_309_7604)" fill-opacity="0.7"/>
<rect x="0.433013" y="0.75" width="49" height="53" rx="3.5" transform="matrix(0.866025 0.5 -4.48205e-08 1 916.058 238.783)" stroke="#6D6D6D" stroke-dasharray="4 4"/>
<g style="mix-blend-mode:overlay">
<path d="M927.387 267.574L927.387 265.908L929.315 267.021L929.315 260.469L927.69 259.531L927.69 258.257C928.587 258.579 929.205 258.67 929.775 258.579L931.097 259.342L931.097 268.05L932.782 269.023L932.782 270.689L927.387 267.574ZM936.854 273.236C935.436 272.417 934.478 271.248 933.847 270.058L934.684 269.239C935.217 270.149 935.872 270.989 936.685 271.458C937.594 271.983 938.212 271.822 938.212 270.884C938.212 269.876 937.691 268.931 935.739 267.804L935.739 266.334C937.388 267.286 937.921 266.936 937.921 266.012C937.921 265.2 937.485 264.472 936.721 264.031C936.078 263.66 935.557 263.695 935.024 263.961L934.114 262.176C934.89 261.84 935.751 261.847 936.806 262.456C938.54 263.457 939.716 265.13 939.716 266.894C939.716 268.014 939.17 268.511 938.224 268.399L938.224 268.469C939.231 269.372 940.007 270.688 940.007 272.046C940.007 273.95 938.564 274.223 936.854 273.236Z" fill="white"/>
</g>
<rect x="0.433013" y="0.75" width="199" height="199" rx="3.5" transform="matrix(0.866025 0.5 -4.48205e-08 1 760.058 176.783)" fill="url(#paint5_linear_309_7604)" fill-opacity="0.7"/>
<rect x="0.433013" y="0.75" width="199" height="199" rx="3.5" transform="matrix(0.866025 0.5 -4.48205e-08 1 760.058 176.783)" stroke="#6D6D6D"/>
<g style="mix-blend-mode:overlay">
<path d="M773.233 225.64L773.233 220.88L778.741 224.06L778.741 205.34L774.099 202.66L774.099 199.02C776.663 199.94 778.429 200.2 780.057 199.94L783.833 202.12L783.833 227L788.648 229.78L788.648 234.54L773.233 225.64ZM792.281 236.637L792.281 233.237C799.244 230.057 803.366 226.877 803.366 222.317C803.366 219.317 801.981 216.717 799.521 215.297C797.65 214.217 796.126 214.737 794.81 215.617L792.039 210.817C794.394 209.257 796.681 209.017 800.179 211.037C805.029 213.837 808.251 219.297 808.251 224.817C808.251 230.177 804.405 233.717 799.729 236.297C801.011 236.877 802.708 237.697 803.92 238.397L809.463 241.597L809.463 246.557L792.281 236.637Z" fill="white"/>
</g>
<rect x="0.433013" y="0.75" width="149" height="149" rx="3.5" transform="matrix(0.866025 0.5 -4.48205e-08 1 648.058 283.783)" fill="url(#paint6_linear_309_7604)" fill-opacity="0.7"/>
<rect x="0.433013" y="0.75" width="149" height="149" rx="3.5" transform="matrix(0.866025 0.5 -4.48205e-08 1 648.058 283.783)" stroke="#6D6D6D"/>
<g style="mix-blend-mode:overlay">
<path d="M660.665 326.312L660.665 322.504L665.071 325.048L665.071 310.072L661.358 307.928L661.358 305.016C663.409 305.752 664.822 305.96 666.124 305.752L669.145 307.496L669.145 327.4L672.997 329.624L672.997 333.432L660.665 326.312ZM676.984 335.734L676.984 331.926L681.391 334.47L681.391 319.494L677.677 317.35L677.677 314.438C679.728 315.174 681.141 315.382 682.444 315.174L685.464 316.918L685.464 336.822L689.316 339.046L689.316 342.854L676.984 335.734Z" fill="white"/>
</g>
<rect x="0.433013" y="0.75" width="49" height="49" rx="3.5" transform="matrix(0.866025 0.5 -4.48205e-08 1 622.058 396.783)" fill="url(#paint7_linear_309_7604)" fill-opacity="0.7"/>
<rect x="0.433013" y="0.75" width="49" height="49" rx="3.5" transform="matrix(0.866025 0.5 -4.48205e-08 1 622.058 396.783)" stroke="#6D6D6D"/>
<g style="mix-blend-mode:overlay">
<path d="M633.387 425.574L633.387 423.908L635.315 425.021L635.315 418.469L633.69 417.531L633.69 416.257C634.587 416.579 635.205 416.67 635.775 416.579L637.097 417.342L637.097 426.05L638.782 427.023L638.782 428.689L633.387 425.574ZM643.109 431.383C641.278 430.326 640.066 427.778 640.066 424.208C640.066 420.624 641.278 419.574 643.109 420.631C644.94 421.688 646.14 424.145 646.14 427.715C646.14 431.285 644.94 432.44 643.109 431.383ZM643.109 429.773C643.885 430.221 644.455 429.654 644.455 426.742C644.455 423.844 643.885 422.675 643.109 422.227C642.333 421.779 641.751 422.283 641.751 425.181C641.751 428.093 642.333 429.325 643.109 429.773Z" fill="white"/>
</g>
<rect x="0.433013" y="0.75" width="149" height="149" rx="3.5" transform="matrix(0.866025 0.5 -4.48205e-08 1 510.058 355.783)" fill="url(#paint8_linear_309_7604)" fill-opacity="0.7"/>
<rect x="0.433013" y="0.75" width="149" height="149" rx="3.5" transform="matrix(0.866025 0.5 -4.48205e-08 1 510.058 355.783)" stroke="#6D6D6D"/>
<g style="mix-blend-mode:overlay">
<path d="M525.242 383.576C525.242 386.36 526.379 388.328 528.152 389.352C529.288 390.008 530.591 390.024 531.533 388.744C531.173 384.248 529.76 381.832 528.014 380.824C526.489 379.944 525.242 380.664 525.242 383.576ZM527.459 401.528C524.91 400.056 523.053 397.736 521.834 395.592L523.995 393.992C524.743 395.384 525.991 396.84 527.21 397.544C529.51 398.872 531.395 397.944 531.589 392.136C530.508 393.112 528.762 393.064 527.376 392.264C523.968 390.296 521.501 386.44 521.501 381.416C521.501 376.552 524.439 375.208 527.958 377.24C531.838 379.48 535.33 385.016 535.33 393.24C535.33 402.2 531.533 403.88 527.459 401.528Z" fill="white"/>
</g>
<rect x="0.433013" y="0.75" width="99" height="99" rx="3.5" transform="matrix(0.866025 0.5 -4.48205e-08 1 441.058 441.783)" fill="url(#paint9_linear_309_7604)" fill-opacity="0.7"/>
<rect x="0.433013" y="0.75" width="99" height="99" rx="3.5" transform="matrix(0.866025 0.5 -4.48205e-08 1 441.058 441.783)" stroke="#6D6D6D"/>
<g style="mix-blend-mode:overlay">
<path d="M456.485 478.22C454.043 476.81 452.207 474.11 452.207 471.79C452.207 469.89 453.211 469.23 454.406 469.2L454.406 469.1C453.419 467.71 452.709 466.18 452.709 464.6C452.709 462.22 454.354 461.65 456.571 462.93C458.84 464.24 460.295 466.66 460.295 469.02C460.295 470.48 459.499 471.24 458.65 471.45L458.65 471.55C459.828 472.97 460.798 474.73 460.798 476.75C460.798 478.99 459.083 479.72 456.485 478.22ZM457.299 469.95C457.922 469.55 458.217 468.88 458.217 468C458.217 466.8 457.593 465.58 456.519 464.96C455.653 464.46 454.961 464.72 454.961 465.9C454.961 467.3 455.948 468.55 457.299 469.95ZM456.554 476.18C457.645 476.81 458.425 476.56 458.425 475.28C458.425 473.74 457.247 472.42 455.584 470.68C454.891 470.92 454.406 471.64 454.406 472.74C454.406 474.08 455.359 475.49 456.554 476.18Z" fill="white"/>
</g>
<rect x="0.433013" y="0.75" width="199" height="199" rx="3.5" transform="matrix(0.866025 0.5 -4.48205e-08 1 285.058 426.783)" fill="url(#paint10_linear_309_7604)" fill-opacity="0.7"/>
<rect x="0.433013" y="0.75" width="199" height="199" rx="3.5" transform="matrix(0.866025 0.5 -4.48205e-08 1 285.058 426.783)" stroke="#6D6D6D"/>
<g style="mix-blend-mode:overlay">
<path d="M301.836 477.72C302.286 467.7 303.776 462 308.66 456.98L297.125 450.32L297.125 445.36L314.168 455.2L314.168 458.8C308.21 463.76 307.413 469.34 306.997 480.7L301.836 477.72Z" fill="white"/>
</g>
<rect x="0.433013" y="0.75" width="49" height="53" rx="3.5" transform="matrix(0.866025 0.5 -4.48205e-08 1 259.058 584.783)" fill="url(#paint11_linear_309_7604)" fill-opacity="0.7"/>
<rect x="0.433013" y="0.75" width="49" height="53" rx="3.5" transform="matrix(0.866025 0.5 -4.48205e-08 1 259.058 584.783)" stroke="#6D6D6D" stroke-dasharray="4 4"/>
<g style="mix-blend-mode:overlay">
<path d="M273.127 610.088C272.642 609.808 272.072 609.787 271.66 610.333C271.83 612.321 272.436 613.399 273.188 613.833C273.854 614.218 274.412 613.896 274.412 612.622C274.412 611.404 273.903 610.536 273.127 610.088ZM273.224 615.408C271.514 614.421 269.999 611.964 269.999 608.31C269.999 604.446 271.66 603.753 273.466 604.796C274.57 605.433 275.358 606.42 275.903 607.379L274.958 608.065C274.642 607.463 274.097 606.812 273.575 606.511C272.545 605.916 271.696 606.322 271.623 608.884C272.108 608.464 272.884 608.492 273.466 608.828C274.97 609.696 276.037 611.348 276.037 613.56C276.037 615.688 274.752 616.29 273.224 615.408Z" fill="white"/>
</g>
<rect x="0.433013" y="0.75" width="99" height="99" rx="3.5" transform="matrix(0.866025 0.5 -4.48205e-08 1 190.058 572.783)" fill="url(#paint12_linear_309_7604)" fill-opacity="0.7"/>
<rect x="0.433013" y="0.75" width="99" height="99" rx="3.5" transform="matrix(0.866025 0.5 -4.48205e-08 1 190.058 572.783)" stroke="#6D6D6D"/>
<g style="mix-blend-mode:overlay">
<path d="M207.085 616.256C204.248 614.618 202.357 612.238 201.023 609.928L202.672 608.248C203.69 609.984 204.951 611.664 206.624 612.63C208.492 613.708 209.801 613.092 209.801 610.656C209.801 608.248 208.589 606.204 206.77 605.154C205.703 604.538 205.121 604.51 204.078 604.692L202.454 602.522L202.939 592.722L212.541 598.266L212.541 601.738L206.018 597.972L205.679 602.172C206.406 602.2 207.012 602.354 207.837 602.83C210.844 604.566 213.366 608.094 213.366 612.602C213.366 617.222 210.407 618.174 207.085 616.256Z" fill="white"/>
</g>
<rect x="0.433013" y="0.75" width="99" height="99" rx="3.5" transform="matrix(0.866025 0.5 -4.48205e-08 1 121.058 607.783)" fill="url(#paint13_linear_309_7604)" fill-opacity="0.7"/>
<rect x="0.433013" y="0.75" width="99" height="99" rx="3.5" transform="matrix(0.866025 0.5 -4.48205e-08 1 121.058 607.783)" stroke="#6D6D6D"/>
<g style="mix-blend-mode:overlay">
<path d="M134.233 636.56L137.23 638.29L137.23 635.27C137.23 634.41 137.282 633.1 137.316 632.24L137.247 632.2C136.935 632.82 136.589 633.44 136.225 634.03L134.233 636.56ZM137.23 644.37L137.23 640.53L131.756 637.37L131.756 635.37L136.537 629.15L139.602 630.92L139.602 639.66L141.109 640.53L141.109 642.77L139.602 641.9L139.602 645.74L137.23 644.37Z" fill="white"/>
</g>
<rect x="0.433013" y="0.75" width="49" height="49" rx="3.5" transform="matrix(0.866025 0.5 -4.48205e-08 1 95.058 667.783)" fill="url(#paint14_linear_309_7604)" fill-opacity="0.7"/>
<rect x="0.433013" y="0.75" width="49" height="49" rx="3.5" transform="matrix(0.866025 0.5 -4.48205e-08 1 95.058 667.783)" stroke="#6D6D6D"/>
<g style="mix-blend-mode:overlay">
<path d="M108.715 698.114C107.296 697.295 106.338 696.126 105.708 694.936L106.544 694.117C107.078 695.027 107.733 695.867 108.545 696.336C109.454 696.861 110.073 696.7 110.073 695.762C110.073 694.754 109.551 693.809 107.599 692.682L107.599 691.212C109.248 692.164 109.782 691.814 109.782 690.89C109.782 690.078 109.345 689.35 108.581 688.909C107.939 688.538 107.417 688.573 106.884 688.839L105.975 687.054C106.751 686.718 107.611 686.725 108.666 687.334C110.4 688.335 111.576 690.008 111.576 691.772C111.576 692.892 111.03 693.389 110.085 693.277L110.085 693.347C111.091 694.25 111.867 695.566 111.867 696.924C111.867 698.828 110.424 699.101 108.715 698.114Z" fill="white"/>
</g>
<rect x="0.433013" y="0.75" width="99" height="99" rx="3.5" transform="matrix(0.866025 0.5 -4.48205e-08 1 26.058 652.783)" fill="url(#paint15_linear_309_7604)" fill-opacity="0.7"/>
<rect x="0.433013" y="0.75" width="99" height="99" rx="3.5" transform="matrix(0.866025 0.5 -4.48205e-08 1 26.058 652.783)" stroke="#6D6D6D"/>
<g style="mix-blend-mode:overlay">
<path d="M37.1374 686.43L37.1374 684.73C40.6188 683.14 42.6799 681.55 42.6799 679.27C42.6799 677.77 41.9871 676.47 40.7573 675.76C39.822 675.22 39.0599 675.48 38.4018 675.92L37.0161 673.52C38.1939 672.74 39.3371 672.62 41.0864 673.63C43.5113 675.03 45.1221 677.76 45.1221 680.52C45.1221 683.2 43.1995 684.97 40.8613 686.26C41.5021 686.55 42.3508 686.96 42.9571 687.31L45.7283 688.91L45.7283 691.39L37.1374 686.43Z" fill="white"/>
</g>
<rect x="0.433013" y="0.75" width="49" height="53" rx="3.5" transform="matrix(0.866025 0.5 -4.48205e-08 1 0.0580127 710.783)" fill="url(#paint16_linear_309_7604)" fill-opacity="0.7"/>
<rect x="0.433013" y="0.75" width="49" height="53" rx="3.5" transform="matrix(0.866025 0.5 -4.48205e-08 1 0.0580127 710.783)" stroke="#6D6D6D" stroke-dasharray="4 4"/>
<g style="mix-blend-mode:overlay">
<path d="M11.3868 739.574L11.3868 737.908L13.3145 739.021L13.3145 732.469L11.6899 731.531L11.6899 730.257C12.5871 730.579 13.2054 730.67 13.7753 730.579L15.0968 731.342L15.0968 740.05L16.7821 741.023L16.7821 742.689L11.3868 739.574Z" fill="white"/>
</g>
<defs>
<linearGradient id="paint0_linear_309_7604" x1="273.118" y1="-73.2367" x2="342.373" y2="65.138" gradientUnits="userSpaceOnUse">
<stop stop-color="#6D6D6D"/>
<stop offset="1"/>
</linearGradient>
<linearGradient id="paint1_linear_309_7604" x1="68.2796" y1="-19.7739" x2="87.8229" y2="16.382" gradientUnits="userSpaceOnUse">
<stop stop-color="#6D6D6D"/>
<stop offset="1"/>
</linearGradient>
<linearGradient id="paint2_linear_309_7604" x1="204.839" y1="-54.9275" x2="256.78" y2="48.8532" gradientUnits="userSpaceOnUse">
<stop stop-color="#6D6D6D"/>
<stop offset="1"/>
</linearGradient>
<linearGradient id="paint3_linear_309_7604" x1="68.2796" y1="-18.3092" x2="85.5933" y2="16.2845" gradientUnits="userSpaceOnUse">
<stop stop-color="#6D6D6D"/>
<stop offset="1"/>
</linearGradient>
<linearGradient id="paint4_linear_309_7604" x1="68.2796" y1="-19.7739" x2="87.8229" y2="16.382" gradientUnits="userSpaceOnUse">
<stop stop-color="#6D6D6D"/>
<stop offset="1"/>
</linearGradient>
<linearGradient id="paint5_linear_309_7604" x1="273.118" y1="-73.2367" x2="342.373" y2="65.1376" gradientUnits="userSpaceOnUse">
<stop stop-color="#6D6D6D"/>
<stop offset="1"/>
</linearGradient>
<linearGradient id="paint6_linear_309_7604" x1="204.839" y1="-54.9275" x2="256.78" y2="48.8532" gradientUnits="userSpaceOnUse">
<stop stop-color="#6D6D6D"/>
<stop offset="1"/>
</linearGradient>
<linearGradient id="paint7_linear_309_7604" x1="68.2795" y1="-18.3092" x2="85.5933" y2="16.2844" gradientUnits="userSpaceOnUse">
<stop stop-color="#6D6D6D"/>
<stop offset="1"/>
</linearGradient>
<linearGradient id="paint8_linear_309_7604" x1="204.839" y1="-54.9275" x2="256.78" y2="48.8532" gradientUnits="userSpaceOnUse">
<stop stop-color="#6D6D6D"/>
<stop offset="1"/>
</linearGradient>
<linearGradient id="paint9_linear_309_7604" x1="136.559" y1="-36.6184" x2="171.187" y2="32.5688" gradientUnits="userSpaceOnUse">
<stop stop-color="#6D6D6D"/>
<stop offset="1"/>
</linearGradient>
<linearGradient id="paint10_linear_309_7604" x1="273.118" y1="-73.2367" x2="342.373" y2="65.138" gradientUnits="userSpaceOnUse">
<stop stop-color="#6D6D6D"/>
<stop offset="1"/>
</linearGradient>
<linearGradient id="paint11_linear_309_7604" x1="68.2796" y1="-19.7739" x2="87.8229" y2="16.382" gradientUnits="userSpaceOnUse">
<stop stop-color="#6D6D6D"/>
<stop offset="1"/>
</linearGradient>
<linearGradient id="paint12_linear_309_7604" x1="136.559" y1="-36.6184" x2="171.187" y2="32.569" gradientUnits="userSpaceOnUse">
<stop stop-color="#6D6D6D"/>
<stop offset="1"/>
</linearGradient>
<linearGradient id="paint13_linear_309_7604" x1="136.559" y1="-36.6184" x2="171.187" y2="32.569" gradientUnits="userSpaceOnUse">
<stop stop-color="#6D6D6D"/>
<stop offset="1"/>
</linearGradient>
<linearGradient id="paint14_linear_309_7604" x1="68.2795" y1="-18.3092" x2="85.5933" y2="16.2844" gradientUnits="userSpaceOnUse">
<stop stop-color="#6D6D6D"/>
<stop offset="1"/>
</linearGradient>
<linearGradient id="paint15_linear_309_7604" x1="136.559" y1="-36.6184" x2="171.187" y2="32.569" gradientUnits="userSpaceOnUse">
<stop stop-color="#6D6D6D"/>
<stop offset="1"/>
</linearGradient>
<linearGradient id="paint16_linear_309_7604" x1="68.2796" y1="-19.7739" x2="87.8229" y2="16.382" gradientUnits="userSpaceOnUse">
<stop stop-color="#6D6D6D"/>
<stop offset="1"/>
</linearGradient>
</defs>
</svg>
