<svg xmlns="http://www.w3.org/2000/svg" width="362" height="98" fill="none"><path fill="#E5243B" stroke="#E5243B" d="M51.707 23.534c0-.703.572-1.274 1.274-1.274.701 0 1.27.567 1.27 1.273a1.27 1.27 0 0 1-1.27 1.274 1.275 1.275 0 0 1-1.274-1.273Z"/><mask id="a" fill="#fff"><path d="M55.05 25.988a2.36 2.36 0 0 1 2.143 2.354v4.911a.687.687 0 0 1-.684.688.69.69 0 0 1-.688-.688v-4.22c0-.158-.048-.373-.334-.373-.199 0-.243.21-.25.346v12.642a.986.986 0 0 1-.987.987.99.99 0 0 1-.99-.986v-7.286c0-.08-.028-.29-.279-.29-.25 0-.282.21-.286.29v7.285a.986.986 0 1 1-1.973 0V29.007c-.008-.135-.051-.346-.246-.346-.29 0-.334.215-.334.374v4.22a.685.685 0 1 1-1.372 0v-4.912c0-1.233.942-2.243 2.147-2.354.04-.005.084-.012.131-.012h3.874c.052 0 .092.004.135.012"/></mask><path fill="#E5243B" d="M55.05 25.988a2.36 2.36 0 0 1 2.143 2.354v4.911a.687.687 0 0 1-.684.688.69.69 0 0 1-.688-.688v-4.22c0-.158-.048-.373-.334-.373-.199 0-.243.21-.25.346v12.642a.986.986 0 0 1-.987.987.99.99 0 0 1-.99-.986v-7.286c0-.08-.028-.29-.279-.29-.25 0-.282.21-.286.29v7.285a.986.986 0 1 1-1.973 0V29.007c-.008-.135-.051-.346-.246-.346-.29 0-.334.215-.334.374v4.22a.685.685 0 1 1-1.372 0v-4.912c0-1.233.942-2.243 2.147-2.354.04-.005.084-.012.131-.012h3.874c.052 0 .092.004.135.012"/><path fill="#E5243B" d="m55.236 29.006-.998-.059-.002.03v.029zm-2.541 5.357-.999-.05-.001.025v.025zm-1.973-5.357h1v-.03l-.001-.029zm.195-3.018.092.995h.008zm4.043.995a1.36 1.36 0 0 1 1.233 1.359h2a3.36 3.36 0 0 0-3.054-3.35zm1.233 1.359v4.911h2v-4.911zm0 4.911c0-.167.134-.312.316-.312v2c.938 0 1.684-.765 1.684-1.688zm.316-.312a.31.31 0 0 1 .312.312h-2c0 .93.758 1.688 1.688 1.688zm.312.312v-4.22h-2v4.22zm0-4.22c0-.145-.015-.474-.22-.79-.257-.394-.678-.583-1.114-.583v2a.6.6 0 0 1-.278-.072.74.74 0 0 1-.287-.257.7.7 0 0 1-.091-.217.4.4 0 0 1-.01-.08zm-1.334-1.373a1.21 1.21 0 0 0-1.081.655c-.137.26-.161.516-.168.632l1.997.118q0 .003-.006.04a.6.6 0 0 1-.055.145.79.79 0 0 1-.687.41zm-1.25 1.346v12.642h2V29.007zm0 12.642v-.005l.003-.004.005-.003.004-.001h.001v2c1.097 0 1.986-.89 1.986-1.986zm.013-.013h.004l.002.002.002.004.002.008h-2a1.99 1.99 0 0 0 1.99 1.986zm.01.014v-7.286h-2v7.285zm0-7.286c0-.121-.016-.408-.192-.697a1.25 1.25 0 0 0-1.087-.593v2a.7.7 0 0 1-.336-.092.8.8 0 0 1-.284-.272.66.66 0 0 1-.101-.346zm-1.279-1.29c-.466 0-.856.226-1.08.579-.178.28-.2.56-.205.66l1.998.1c-.001.022-.006.157-.104.312a.77.77 0 0 1-.278.26c-.129.07-.25.088-.33.088zm-1.286 1.29v7.285h2v-7.285zm0 7.285v-.001l.001-.004.003-.004.004-.003.004-.001h.002v2c1.097 0 1.986-.89 1.986-1.986zm.014-.013h.001l.004.001a.01.01 0 0 1 .007.007l.001.004v.002h-2c0 1.097.89 1.986 1.987 1.986zm.013.014V29.005h-2v12.642zm-.001-12.702a1.6 1.6 0 0 0-.165-.627 1.21 1.21 0 0 0-1.08-.66v2a.8.8 0 0 1-.694-.415.6.6 0 0 1-.052-.142q-.007-.035-.006-.038zm-1.245-1.287c-.433 0-.86.185-1.118.587-.205.32-.216.65-.216.787h2c0 .002 0 .03-.009.073a.7.7 0 0 1-.092.22.75.75 0 0 1-.29.262.6.6 0 0 1-.275.071zm-1.334 1.374v4.22h2v-4.22zm0 4.22c0-.171.137-.313.312-.313v2c.937 0 1.688-.761 1.688-1.688zm.312-.313c.181 0 .316.15.316.312h-2c0 .92.738 1.688 1.684 1.688zm.316.312v-4.911h-2v4.911zm0-4.911c0-.71.542-1.294 1.24-1.359l-.185-1.991a3.365 3.365 0 0 0-3.056 3.35zm1.247-1.36q.018 0 .032-.003l.023-.003.014-.002h.007-.01l-.035.002v-2c-.078 0-.142.006-.181.01l-.043.006h-.006zm.031-.006h3.874v-2h-3.874zm3.874 0h-.006l-.037-.005.357-1.967a1.7 1.7 0 0 0-.314-.028z" mask="url(#a)"/><path fill="#E5243B" stroke="#E5243B" d="M38.998 23.286c.649 0 1.174.526 1.174 1.178a1.175 1.175 0 1 1-2.353 0c0-.65.528-1.178 1.179-1.178Z"/><mask id="b" fill="#fff"><path d="m35.613 28.263-1.396 4.541s-.25.831.457 1.042c.704.207.915-.604.915-.604l1.126-3.79s.06-.29.278-.227c.219.064.135.374.135.374l-1.957 7.103h1.822v5.086a.874.874 0 0 0 1.746 0v-5.086h.497v5.086c0 .481.39.87.875.87s.875-.389.875-.87v-5.086h1.822l-1.957-7.103s-.084-.31.135-.374.282.227.282.227l1.126 3.79s.215.81.915.604c.708-.207.457-1.042.457-1.042l-1.396-4.541s-.497-1.313-1.603-1.313h-3.555c-1.102 0-1.603 1.313-1.603 1.313"/></mask><path fill="#E5243B" d="m35.613 28.263-1.396 4.541s-.25.831.457 1.042c.704.207.915-.604.915-.604l1.126-3.79s.06-.29.278-.227c.219.064.135.374.135.374l-1.957 7.103h1.822v5.086a.874.874 0 0 0 1.746 0v-5.086h.497v5.086c0 .481.39.87.875.87s.875-.389.875-.87v-5.086h1.822l-1.957-7.103s-.084-.31.135-.374.282.227.282.227l1.126 3.79s.215.81.915.604c.708-.207.457-1.042.457-1.042l-1.396-4.541s-.497-1.313-1.603-1.313h-3.555c-1.102 0-1.603 1.313-1.603 1.313"/><path fill="#E5243B" d="m34.217 32.804-.956-.294-.002.006zm.457 1.042-.285.959h.003zm.915-.604-.959-.285-.005.017-.004.016zm1.126-3.79.958.284.012-.04.009-.043zm.413.147.964.265.002-.005zm-1.957 7.103-.964-.266-.348 1.266h1.312zm1.822 0h1v-1h-1zm1.746 0v-1h-1v1zm.497 0h1v-1h-1zm1.75 0v-1h-1v1zm1.822 0v1h1.312l-.348-1.266zm-1.957-7.103-.966.26.002.005zm.417-.147-.977.214.008.035.01.035zm1.126 3.79.967-.256-.004-.015-.005-.014zm.915.604-.28-.96-.004.001zm.457-1.042.958-.287-.002-.007zm-1.396-4.541.956-.294-.01-.03-.01-.03zm-7.713-.294-1.396 4.541 1.912.588 1.396-4.542zm-.44 4.835-.958-.288v.003l-.002.004-.002.008a1 1 0 0 0-.02.08 2.2 2.2 0 0 0-.049.745c.026.23.1.53.302.816.212.3.521.52.9.633l.572-1.917c.026.007.1.044.16.129a.3.3 0 0 1 .054.12v-.016l.005-.046q0 .003-.002.007v.005l-.002.003v.002zm.175 2.002c.373.109.748.098 1.09-.037.327-.13.552-.343.696-.525a2.1 2.1 0 0 0 .375-.735l.002-.009v-.003l.001-.002v-.001l-.967-.252a109 109 0 0 1-.968-.253l.001-.002v-.003l.002-.005.002-.008.002-.006-.004.011q-.015.03-.011.023a.3.3 0 0 1 .133-.09.36.36 0 0 1 .21-.022zm2.156-1.28 1.125-3.79-1.917-.569-1.126 3.79zm.166-4.074a120 120 0 0 1 .98.204l-.001.003-.001.005-.019.068a.6.6 0 0 1-.064.13.821.821 0 0 1-.895.323l.558-1.92a1.18 1.18 0 0 0-1.337.502 1.4 1.4 0 0 0-.197.47l-.002.007v.005c0 .001-.001.001.979.203m0 .733a.8.8 0 0 1-.464-.358.7.7 0 0 1-.105-.316.5.5 0 0 1 .012-.153l.003-.009.001-.005v-.003h.001v-.002l.966.26.966.26v-.003l.001-.003.002-.006.003-.015a1 1 0 0 0 .027-.137c.011-.076.023-.195.013-.335-.02-.254-.164-.89-.868-1.095zm-.55-.852-1.957 7.103 1.928.531 1.957-7.103zm-.993 8.369h1.822v-2H35.17zm.822-1v5.086h2v-5.086zm0 5.086c0 1.04.847 1.87 1.875 1.87v-2c.065 0 .125.053.125.13zm1.875 1.87a1.87 1.87 0 0 0 1.87-1.87h-2a.13.13 0 0 1 .13-.13zm1.87-1.87v-5.086h-2v5.086zm-1-4.086h.498v-2h-.497zm-.502-1v5.086h2v-5.086zm0 5.086c0 1.037.84 1.87 1.875 1.87v-2c.064 0 .125.056.125.13zm1.875 1.87a1.87 1.87 0 0 0 1.875-1.87h-2c0-.074.06-.13.125-.13zm1.875-1.87v-5.086h-2v5.086zm-1-4.086h1.822v-2h-1.822zm2.786-1.266-1.957-7.103-1.928.531 1.956 7.103zm-2.921-6.837.965-.26v.001l.001.002v.002l.002.005.002.01.01.045a.5.5 0 0 1 .002.107.7.7 0 0 1-.104.316.8.8 0 0 1-.464.358l-.558-1.92c-.704.204-.849.84-.868 1.095a1.5 1.5 0 0 0 .043.487l.002.006v.005zm.414.586a.82.82 0 0 1-.887-.314.6.6 0 0 1-.081-.184l-.003-.01-.001-.005v-.003l-.001-.002.976-.215a120 120 0 0 0 .977-.216v-.001l-.001-.004-.002-.006-.013-.053a1.5 1.5 0 0 0-.189-.414 1.181 1.181 0 0 0-1.334-.493zm-.955-.449 1.125 3.79 1.917-.57-1.125-3.789zm2.084 3.506a109 109 0 0 0-.966.257v.002l.001.004.009.03a2 2 0 0 0 .08.223c.054.125.145.306.289.487.145.181.37.395.695.524.342.135.717.146 1.09.036l-.567-1.918a.36.36 0 0 1 .214.022.3.3 0 0 1 .131.089c.004.004-.003-.005-.012-.025l-.003-.006.003.008v.005l.002.003v.001c0 .001 0 .002-.966.258m1.195 1.564a1.66 1.66 0 0 0 .906-.632c.202-.285.276-.587.302-.817a2.2 2.2 0 0 0-.073-.839l-.958.286-.958.287v-.003l-.002-.002-.001-.005-.002-.007-.001-.005a.3.3 0 0 1 .007.053v.016q-.001-.001.008-.032a.4.4 0 0 1 .046-.088.35.35 0 0 1 .165-.132zm1.133-2.296-1.396-4.541-1.912.587 1.396 4.542zm-2.352-4.247.935-.355v-.001l-.001-.002-.001-.003-.004-.009-.037-.089a3.78 3.78 0 0 0-.498-.823c-.352-.439-1.01-1.03-1.997-1.03v2c.118 0 .262.064.435.28a1.8 1.8 0 0 1 .236.393l-.001-.003-.001-.002v-.002zm-1.603-2.313h-3.555v2h3.555zm-3.555 0c-.987 0-1.644.593-1.995 1.03a3.8 3.8 0 0 0-.527.889l-.01.022-.003.009-.001.003v.001l-.001.001.934.358.934.358-.002.003v.003q-.001 0 0 0l.006-.017q.013-.028.044-.09c.043-.082.106-.188.186-.288.175-.218.32-.282.435-.282z" mask="url(#b)"/><path fill="#E5243B" stroke="#E5243B" d="M28.944 23.286a1.179 1.179 0 1 1 0 2.357 1.179 1.179 0 0 1 0-2.357Z"/><mask id="c" fill="#fff"><path d="m25.563 28.263-1.392 4.541s-.25.831.457 1.042c.704.207.915-.604.915-.604l1.126-3.79s.06-.29.278-.227c.219.064.135.374.135.374l-1.957 7.103h1.822v5.086a.874.874 0 0 0 1.75 0v-5.086h.497v5.086c0 .481.39.87.875.87s.875-.389.875-.87v-5.086h1.822l-1.957-7.103s-.084-.31.135-.374.282.227.282.227l1.126 3.79s.215.81.915.604c.708-.207.457-1.042.457-1.042l-1.396-4.541s-.497-1.313-1.603-1.313H27.17c-1.102 0-1.603 1.313-1.603 1.313"/></mask><path fill="#E5243B" d="m25.563 28.263-1.392 4.541s-.25.831.457 1.042c.704.207.915-.604.915-.604l1.126-3.79s.06-.29.278-.227c.219.064.135.374.135.374l-1.957 7.103h1.822v5.086a.874.874 0 0 0 1.75 0v-5.086h.497v5.086c0 .481.39.87.875.87s.875-.389.875-.87v-5.086h1.822l-1.957-7.103s-.084-.31.135-.374.282.227.282.227l1.126 3.79s.215.81.915.604c.708-.207.457-1.042.457-1.042l-1.396-4.541s-.497-1.313-1.603-1.313H27.17c-1.102 0-1.603 1.313-1.603 1.313"/><path fill="#E5243B" d="m24.171 32.804-.956-.293-.002.005zm.457 1.042-.285.959h.003zm.915-.604-.959-.285-.004.017-.005.016zm1.126-3.79.958.284.013-.04.008-.043zm.413.147.964.265.002-.005zm-1.957 7.103-.964-.266-.348 1.266h1.313zm1.822 0h1v-1h-1zm1.75 0v-1h-1v1zm.497 0h1v-1h-1zm1.75 0v-1h-1v1zm1.822 0v1h1.312l-.348-1.266zm-1.957-7.103-.966.26.002.005zm.417-.147-.976.214.007.035.01.035zm1.126 3.79.967-.256-.004-.015-.004-.014zm.915.604-.28-.96-.004.001zm.457-1.042.958-.287-.002-.007zm-1.396-4.541.956-.294-.01-.03-.01-.03zm-7.721-.294-1.392 4.542 1.912.586 1.392-4.541zm-.436 4.835-.958-.288v.003l-.002.004-.002.008a1 1 0 0 0-.02.08 2.2 2.2 0 0 0-.049.745c.026.23.1.53.302.816.212.3.521.52.901.633l.57-1.917c.027.007.102.044.162.129a.3.3 0 0 1 .053.12v-.016l.006-.046-.002.007-.002.005v.003l-.001.001v.001zm.175 2.002c.373.109.748.098 1.09-.037.327-.13.552-.343.697-.525a2.1 2.1 0 0 0 .374-.735l.002-.009.001-.003v-.003l-.967-.252a109 109 0 0 1-.967-.253v-.005l.002-.005.002-.008.002-.006-.004.011c-.008.02-.015.028-.011.023a.3.3 0 0 1 .133-.09.36.36 0 0 1 .21-.022zm2.156-1.28 1.125-3.79-1.917-.569-1.126 3.79zm.167-4.074a120 120 0 0 1 .979.204l-.001.003-.001.005-.019.068a.6.6 0 0 1-.064.13.821.821 0 0 1-.895.323l.558-1.92a1.18 1.18 0 0 0-1.337.502 1.4 1.4 0 0 0-.197.47l-.002.007v.005zm-.001.733a.8.8 0 0 1-.464-.358.7.7 0 0 1-.105-.316.5.5 0 0 1 .013-.153l.002-.009.001-.005v-.003h.001v-.002l.966.26.966.26v-.003l.001-.003.002-.006.004-.015a1 1 0 0 0 .026-.137c.011-.076.023-.195.013-.335-.02-.254-.164-.89-.868-1.095zm-.55-.852-1.957 7.103 1.929.531 1.956-7.103zm-.992 8.369h1.821v-2h-1.822zm.821-1v5.086h2v-5.086zm0 5.086c0 1.04.848 1.87 1.875 1.87v-2c.065 0 .125.053.125.13zm1.875 1.87a1.874 1.874 0 0 0 1.875-1.87h-2c0-.077.06-.13.125-.13zm1.875-1.87v-5.086h-2v5.086zm-1-4.086h.497v-2h-.497zm-.503-1v5.086h2v-5.086zm0 5.086c0 1.037.84 1.87 1.875 1.87v-2c.064 0 .125.056.125.13zm1.875 1.87a1.87 1.87 0 0 0 1.875-1.87h-2c0-.074.061-.13.125-.13zm1.875-1.87v-5.086h-2v5.086zm-1-4.086h1.822v-2h-1.822zm2.786-1.266-1.957-7.103-1.928.531 1.957 7.103zm-2.921-6.837.966-.259v.004l.002.005.002.01.01.045a.5.5 0 0 1 .002.107.7.7 0 0 1-.104.316.8.8 0 0 1-.464.358l-.558-1.92c-.704.204-.848.84-.868 1.095a1.5 1.5 0 0 0 .04.472q0 .008.003.015l.002.006v.004l.001.001zm.414.586a.82.82 0 0 1-.887-.314.6.6 0 0 1-.081-.184l-.003-.01-.001-.005v-.003l-.001-.002.976-.215.977-.215v-.002l-.001-.004-.002-.006-.013-.053a1.5 1.5 0 0 0-.189-.414 1.181 1.181 0 0 0-1.334-.493zm-.955-.449 1.125 3.79 1.918-.57-1.126-3.789zm2.084 3.506a105 105 0 0 0-.966.257v.002l.001.004.009.03a2 2 0 0 0 .08.223c.054.125.145.306.29.487.144.181.368.395.694.524.342.135.717.146 1.09.036l-.567-1.918a.36.36 0 0 1 .214.022.3.3 0 0 1 .131.089l-.012-.025-.005-.012.002.006.003.008.001.005v.003l.001.001c0 .001 0 .002-.966.258m1.195 1.564a1.66 1.66 0 0 0 .906-.632c.202-.285.276-.587.302-.817a2.2 2.2 0 0 0-.063-.804l-.006-.02-.004-.015-.958.286a118 118 0 0 1-.958.286v-.002l-.002-.002v-.005l-.003-.007-.001-.005a.3.3 0 0 1 .007.07q-.001-.002.008-.033a.4.4 0 0 1 .046-.088.35.35 0 0 1 .165-.132zm1.133-2.296-1.396-4.541-1.912.587 1.396 4.542zm-2.352-4.247.935-.355v-.003l-.002-.003-.004-.009-.008-.022a3 3 0 0 0-.128-.274 3.8 3.8 0 0 0-.399-.615c-.352-.44-1.01-1.032-1.997-1.032v2c.118 0 .262.065.435.281a1.8 1.8 0 0 1 .236.393l-.001-.003-.001-.002v-.002zm-1.603-2.313H27.17v2h3.555zm-3.555 0c-.987 0-1.644.593-1.995 1.03a3.8 3.8 0 0 0-.54.92l-.001.003v.001l-.001.001.934.358.934.357v.002l-.002.002v.003q-.002 0 0 0a1 1 0 0 1 .05-.107c.043-.082.106-.188.186-.288.175-.218.32-.282.435-.282z" mask="url(#c)"/><path fill="#E5243B" stroke="#E5243B" d="M47.204 32.457a.895.895 0 1 1-1.79.002.895.895 0 0 1 1.79-.002ZM48.33 35.974l-.296.217zm-1.32 5.964v-2.23a1 1 0 0 0-.03-.313.698.698 0 0 0-.685-.527.7.7 0 0 0-.684.527 1 1 0 0 0-.03.312v2.231a.213.213 0 0 1-.216.216.213.213 0 0 1-.216-.216v-5.699a.7.7 0 0 0-.028-.197.527.527 0 0 0-.635-.363c.107-.228.198-.394.285-.516.093-.133.159-.182.203-.205a.6.6 0 0 1 .256-.048 21 21 0 0 1 .987-.01h.045l.01.001h.001l.02.001h.033l.042-.002.167-.003c.146-.001.361-.001.631.005.306.008.474.015.614.08.099.044.241.146.365.507.015.045.044.123.083.224l-.049-.023a.53.53 0 0 0-.635.194.64.64 0 0 0-.098.355v5.699a.22.22 0 0 1-.22.216.215.215 0 0 1-.215-.216Zm-2.492-5.703-.205-.165zM13.867 22.26c.702 0 1.273.571 1.273 1.273 0 .703-.571 1.274-1.274 1.274a1.27 1.27 0 0 1-1.27-1.273 1.27 1.27 0 0 1 1.27-1.274Z"/><mask id="d" fill="#fff"><path d="M11.798 25.988a2.36 2.36 0 0 0-2.144 2.354v4.911a.688.688 0 0 0 1.376 0v-4.22c0-.158.048-.373.335-.373.198 0 .242.21.25.346v12.642c0 .545.438.987.986.987a.984.984 0 0 0 .987-.986v-7.286c.004-.08.032-.29.282-.29s.282.21.286.29v7.285a.986.986 0 1 0 1.973 0V29.007c.004-.135.052-.346.25-.346.291 0 .335.215.335.374v4.22a.688.688 0 0 0 1.376 0v-4.912a2.365 2.365 0 0 0-2.148-2.354c-.04-.005-.083-.012-.131-.012h-3.874a1 1 0 0 0-.135.012"/></mask><path fill="#E5243B" d="M11.798 25.988a2.36 2.36 0 0 0-2.144 2.354v4.911a.688.688 0 0 0 1.376 0v-4.22c0-.158.048-.373.335-.373.198 0 .242.21.25.346v12.642c0 .545.438.987.986.987a.984.984 0 0 0 .987-.986v-7.286c.004-.08.032-.29.282-.29s.282.21.286.29v7.285a.986.986 0 1 0 1.973 0V29.007c.004-.135.052-.346.25-.346.291 0 .335.215.335.374v4.22a.688.688 0 0 0 1.376 0v-4.912a2.365 2.365 0 0 0-2.148-2.354c-.04-.005-.083-.012-.131-.012h-3.874a1 1 0 0 0-.135.012"/><path fill="#E5243B" d="M11.615 29.006h1v-.03l-.002-.029zm1.973 5.357-1-.05v.05zm.568 0h1v-.05zm1.973-5.357-1-.03v.03zm-.187-3.018-.1.995h.008zm-4.233-.997a3.36 3.36 0 0 0-3.055 3.35h2c0-.713.546-1.296 1.233-1.358zm-3.055 3.35v4.912h2v-4.911zm0 4.912c0 .927.75 1.688 1.688 1.688v-2c.175 0 .312.142.312.312zm1.688 1.688c.938 0 1.688-.761 1.688-1.688h-2c0-.17.138-.312.312-.312zm1.688-1.688v-4.22h-2v4.22zm0-4.22c0 .008 0 .037-.01.081a.7.7 0 0 1-.091.217.74.74 0 0 1-.286.258.6.6 0 0 1-.279.071v-2c-.435 0-.857.189-1.113.583a1.45 1.45 0 0 0-.22.79zm-.665.627a.79.79 0 0 1-.688-.41.6.6 0 0 1-.054-.145q-.007-.037-.006-.04l1.996-.118a1.6 1.6 0 0 0-.168-.632 1.21 1.21 0 0 0-1.08-.655zm-.75-.654v12.642h2V29.007zm0 12.642c0 1.095.883 1.987 1.986 1.987v-2q-.001 0 0 0l.01.005.004.008q0 .002 0 0zm1.986 1.987a1.984 1.984 0 0 0 1.987-1.986h-2v-.004a.02.02 0 0 1 .01-.009l.004-.001zm1.987-1.986v-7.286h-2v7.285zm-.002-7.236c0 .007-.002.144-.1.301a.8.8 0 0 1-.28.267.7.7 0 0 1-.336.091v-2c-.468 0-.861.23-1.084.59a1.4 1.4 0 0 0-.197.65zm-.716.66a.7.7 0 0 1-.331-.09.77.77 0 0 1-.277-.26c-.099-.154-.103-.289-.104-.31l1.997-.1c-.005-.101-.027-.38-.205-.661a1.26 1.26 0 0 0-1.08-.58zm-.714-.71v7.285h2v-7.285zm0 7.285c0 1.098.89 1.987 1.987 1.987v-2h.001l.004.001a.01.01 0 0 1 .007.007l.001.004v.002zm1.987 1.987c1.097 0 1.986-.89 1.986-1.986h-2v-.002l.002-.004.002-.004.004-.003.004-.001h.002zm1.986-1.986V29.005h-2v12.642zm0-12.614c0 .006 0 .095-.066.22a.787.787 0 0 1-.683.406v-2.001c-.547 0-.91.331-1.08.65a1.5 1.5 0 0 0-.17.667zm-.75.625a.6.6 0 0 1-.274-.07.75.75 0 0 1-.291-.263.7.7 0 0 1-.092-.22q-.01-.066-.008-.073h2c0-.136-.012-.467-.217-.787-.258-.402-.684-.587-1.117-.587zm-.665-.626v4.22h2v-4.22zm0 4.22c0 .926.75 1.687 1.688 1.687v-2c.174 0 .312.142.312.312zm1.688 1.687c.938 0 1.688-.761 1.688-1.688h-2c0-.17.138-.312.312-.312zm1.688-1.688v-4.911h-2v4.911zm0-4.911a3.365 3.365 0 0 0-3.056-3.35l-.184 1.991c.697.065 1.24.65 1.24 1.359zm-3.048-3.35h-.006l-.044-.006a2 2 0 0 0-.181-.01v2l-.036-.002h-.008.006l.014.002.023.003.033.004zm-.231-.016h-3.874v2h3.874zm-3.874 0c-.112 0-.212.01-.314.028l.358 1.967-.038.004h-.006z" mask="url(#d)"/><path stroke="#E5243B" stroke-linecap="round" stroke-miterlimit="10" stroke-width="1.31" d="m10.25 33.965-1.57 8.34"/><path fill="#E5243B" stroke="#E5243B" d="m18.5 33.39.147.231h.003l.03.051.207.347c.099.163.205.336.303.483.087.132.196.29.294.386.176.176.36.269.519.313a1 1 0 0 0 .281.035h1.733a1 1 0 0 0 .206-.033c.162-.045.346-.14.521-.318.096-.096.203-.251.29-.383.096-.147.203-.32.302-.482l.19-.316.047-.079h.007l.128-.21-.01.025-.05.113-.015.034-1.292 2.335-.007.013-.006.013.45.216-.45-.215h-.001v.002l-.003.005-.005.011a1 1 0 0 0-.057.148 1.3 1.3 0 0 0-.067.383v5.472a.188.188 0 0 1-.376 0v-2.138a1 1 0 0 0-.028-.306.69.69 0 0 0-.678-.522.69.69 0 0 0-.679.522.9.9 0 0 0-.028.306v2.138a.186.186 0 0 1-.188.188.186.186 0 0 1-.189-.188v-5.472c0-.16-.041-.304-.07-.39a2 2 0 0 0-.06-.149l-.006-.012-.002-.004-.001-.002-.448.223.447-.224-.004-.009-.005-.009-1.386-2.508-.005-.017q0-.007-.003-.013l.005-.001h.001z"/><path fill="#E5243B" stroke="#E5243B" d="M22.009 32.457a.895.895 0 1 1-1.79.002.895.895 0 0 1 1.79-.002ZM19.97 37.264l1.143-.832 1.142.832.534 1.963h-3.3529999999999998z"/><path fill="#E5243B" d="M88.488 42.336c-2.376 0-4.752-.936-6.48-2.592l2.04-2.448c1.272 1.176 2.952 1.968 4.512 1.968 1.848 0 2.832-.792 2.832-2.04 0-1.32-1.08-1.728-2.664-2.4l-2.376-1.008c-1.8-.744-3.6-2.184-3.6-4.776 0-2.904 2.544-5.136 6.144-5.136 2.064 0 4.128.816 5.568 2.28l-1.8 2.232c-1.128-.936-2.304-1.464-3.768-1.464-1.56 0-2.544.696-2.544 1.872 0 1.272 1.248 1.728 2.76 2.328l2.328.984c2.16.888 3.576 2.256 3.576 4.824 0 2.904-2.424 5.376-6.528 5.376M98.161 42V24.216h4.872c5.424 0 8.784 2.832 8.784 8.832 0 5.976-3.36 8.952-8.592 8.952zm3.552-2.856h1.104c3.312 0 5.376-1.776 5.376-6.096 0-4.344-2.064-5.976-5.376-5.976h-1.104zm21.212 3.192c-4.824 0-8.52-3.216-8.52-9.144 0-5.856 3.792-9.288 8.52-9.288 2.568 0 4.344 1.104 5.496 2.28l-1.872 2.256c-.888-.84-1.896-1.488-3.504-1.488-2.952 0-5.016 2.304-5.016 6.12 0 3.864 1.776 6.192 5.28 6.192.84 0 1.704-.24 2.208-.672v-3.504h-3.144v-2.904h6.312V40.2c-1.2 1.176-3.288 2.136-5.76 2.136m13.124 0c-1.8 0-3.768-.792-5.112-1.896l1.608-2.208c1.2.936 2.352 1.464 3.6 1.464 1.344 0 1.944-.576 1.944-1.416 0-1.008-1.392-1.464-2.808-2.016-1.704-.648-3.6-1.68-3.6-3.936 0-2.4 1.944-4.104 5.016-4.104 1.944 0 3.456.816 4.56 1.656l-1.584 2.136c-.96-.696-1.896-1.152-2.88-1.152-1.224 0-1.8.528-1.8 1.296 0 .984 1.248 1.344 2.664 1.872 1.776.672 3.744 1.56 3.744 4.056 0 2.352-1.848 4.248-5.352 4.248M149.601 42v-2.856h3.816V28.368h-3.216v-2.184c1.776-.336 3-.792 4.128-1.488h2.616v14.448h3.336V42zM190.136 22.224l2.784.984c-.768 1.68-1.68 3.384-2.4 4.512l-2.472-.912c.696-1.224 1.608-3.144 2.088-4.584m-7.128 4.488-2.592 1.176c-.288-1.176-1.224-3.048-2.16-4.44l2.4-1.056c.96 1.32 1.992 3.072 2.352 4.32m-4.944-2.136-1.728 2.28c-.936-.768-2.928-1.992-4.296-2.808l1.68-2.016c1.32.72 3.336 1.848 4.344 2.544m-1.368 6.288-1.584 2.376c-.984-.696-3.048-1.824-4.488-2.592l1.56-2.112c1.32.648 3.456 1.68 4.512 2.328M176 34.32l2.112 1.92c-1.272 2.496-2.784 5.232-4.224 7.56l-2.424-1.92c1.296-1.8 3.12-4.776 4.536-7.56m16.032-5.952v12.624c0 1.392-.24 2.112-1.152 2.568-.888.432-2.184.48-3.984.48-.096-.768-.48-1.944-.864-2.688 1.104.072 2.352.072 2.736.048.36-.024.48-.12.48-.432V37.68c-2.4.648-4.896 1.272-6.888 1.776l-.84-2.352c1.992-.384 4.896-1.032 7.728-1.704v-4.44h-7.728v4.8c0 2.688-.192 6.288-1.512 8.496-.48-.456-1.656-1.272-2.28-1.56 1.104-1.944 1.176-4.68 1.176-6.936v-7.392h5.184v-6.696h2.88v6.696zm-10.176 5.16 1.152-1.728c1.8.408 4.152 1.224 5.376 1.92l-1.224 1.944c-1.176-.72-3.504-1.656-5.304-2.136m19.392-11.016 1.848 1.032c-.6 2.04-1.344 4.464-1.992 6.336 1.344 1.872 1.632 3.552 1.656 4.944 0 1.584-.312 2.592-1.056 3.168-.36.288-.816.456-1.32.528-.432.072-1.008.072-1.536.072 0-.72-.192-1.752-.6-2.472.408.048.744.048 1.008.024.216 0 .456-.048.6-.192.288-.216.408-.744.408-1.44-.024-1.152-.264-2.688-1.512-4.344.432-1.464.888-3.432 1.248-5.016h-1.896v18.864h-2.496V22.608h5.232zm3.624 14.208 2.496.696c-.864 1.92-2.28 3.984-3.48 5.304-.48-.432-1.512-1.2-2.112-1.56 1.224-1.128 2.4-2.832 3.096-4.44m1.176-7.776h7.776a28.3 28.3 0 0 1-3.936-3.696c-1.128 1.392-2.472 2.64-3.84 3.696m10.896 7.008h-5.4v5.16c0 1.296-.24 1.992-1.104 2.448-.84.408-1.992.48-3.6.48-.12-.768-.528-1.872-.936-2.592 1.056.048 2.112.048 2.448.024.336 0 .432-.096.432-.408v-5.112h-5.712V33.36h5.712v-1.968h-3.864v-1.656c-.336.216-.648.432-.984.624-.408-.672-1.176-1.56-1.848-2.112 2.904-1.44 5.832-4.008 7.416-6.864l2.376.912c-.168.336-.36.648-.576.96 2.28 2.448 4.464 3.792 6.312 4.68-.672.576-1.512 1.536-1.872 2.328-.36-.24-.744-.48-1.128-.744v1.872h-3.072v1.968h5.4zm-4.728 1.68 2.112-1.056c1.248 1.44 2.592 3.384 3.192 4.656l-2.232 1.272c-.576-1.344-1.92-3.408-3.072-4.872m12.744.144v1.008h10.32v-1.008zm0-2.544v.984h10.32v-.984zm0-2.52v.936h10.32v-.936zm13.224 7.728h-3.576c2.28.768 4.776 1.632 6.264 2.304l-3.048 1.392c-1.392-.696-3.936-1.776-6.48-2.568l1.704-1.128h-6.336l1.968.888c-1.992 1.176-5.088 2.304-7.512 2.88-.48-.528-1.464-1.608-2.064-2.088 2.208-.36 4.68-.96 6.384-1.68h-3.312v-8.832c-.504.12-1.056.192-1.608.264-.192-.624-.792-1.728-1.272-2.256 4.296-.48 6.432-1.224 7.608-2.352h-3.336v-1.488c-1.104.504-2.28.912-3.336 1.224-.288-.552-1.008-1.536-1.56-2.064 2.424-.576 5.208-1.752 6.744-3.312l2.208 1.488c-.72.744-1.608 1.368-2.64 1.944h10.032c-.816-.384-1.512-.792-2.088-1.248h-3.936V21.72h5.16c1.104 1.344 4.08 2.208 7.2 2.52-.408.552-.984 1.728-1.2 2.448a27 27 0 0 1-3.168-.84l-.024.144c-.216 2.256-.528 3.384-1.08 3.912-.504.432-1.08.6-1.8.648-.624.048-1.848.048-3.072 0a5 5 0 0 0-.672-2.04c1.08.096 2.088.096 2.52.096.384 0 .624-.024.816-.168.192-.168.312-.528.432-1.176h-4.032c-.936 1.656-2.52 2.856-5.4 3.744h13.512zm9-3.984v.96c1.272-.096 2.688-.168 4.08-.264v-.696zm4.08-4.488h-4.08v.912h4.08zm0 3.144V34.2h-4.08v.912zm6.192 1.512h7.128s-.048.672-.096 1.032c-.408 3.312-.864 4.872-1.536 5.52-.576.528-1.2.696-2.04.768a40 40 0 0 1-3.336-.024c-.024-.672-.312-1.584-.72-2.208 1.2.096 2.424.12 2.928.12.456 0 .696-.024.912-.24.36-.288.672-1.176.912-2.904h-6.072v-.024h-1.128c.144-.576.288-1.248.432-1.968a14 14 0 0 1-1.08.984v3.84c0 1.056-.24 1.632-.96 1.992-.696.336-1.656.408-3 .408-.144-.624-.576-1.536-.912-2.064.84.024 1.728.024 1.992.024.288 0 .384-.096.384-.36v-1.896a43 43 0 0 1-7.2 3.888c-.168-.456-.672-1.536-.984-1.992 1.752-.648 3.672-1.488 5.448-2.496-1.824.144-3.552.264-4.968.36l-.216-1.752 1.44-.072v-7.128h3.12c.144-.36.288-.768.36-1.104-.816.168-1.824.312-3 .432-.144-.6-.696-1.56-1.152-2.064 4.872-.264 6.072-.84 6.432-2.4h-4.08v1.896h-2.88v-3.96h8.928a7 7 0 0 0-.384-1.08l2.976-.48c.24.432.504 1.008.696 1.56h8.64v3.792h-3.024v-1.728h-3.936v1.44c0 .528.072.72.672.72h3.024c.6 0 1.608-.048 2.064-.168.024.624.072 1.248.168 1.776-.432.12-1.32.168-2.088.168h-3.552c-2.112 0-2.568-.792-2.568-2.52v-1.416h-2.208c-.312 1.824-1.104 3-3.504 3.72l1.632.288c-.24.408-.456.768-.672 1.128h3.312v5.352l1.152.576c.216-1.056.384-2.208.528-3.216h5.496v-1.44h-6.072v-1.92h8.712v5.28h-5.856c-.096.528-.168 1.056-.264 1.56"/><path fill="#E5243B" fill-opacity=".3" stroke="#000" d="M1 64h18v18H1zM19 64h18v18H19zM37 64h18v18H37zM55 64h18v18H55zM73 64h18v18H73zM91 64h18v18H91zM109 64h18v18h-18zM127 64h18v18h-18zM145 64h18v18h-18zM163 64h18v18h-18zM181 64h18v18h-18zM199 64h18v18h-18zM217 64h18v18h-18zM235 64h18v18h-18zM253 64h18v18h-18zM271 64h18v18h-18zM289 64h18v18h-18zM307 64h18v18h-18zM325 64h18v18h-18zM343 64h18v18h-18z"/><path fill="#E5243B" d="M4.54 95.168q-.9 0-1.584-.516-.672-.528-1.056-1.56-.372-1.044-.372-2.58 0-1.524.372-2.532.384-1.02 1.056-1.524a2.6 2.6 0 0 1 1.584-.504q.912 0 1.584.516.672.504 1.044 1.512.384 1.008.384 2.532 0 1.536-.384 2.58-.372 1.032-1.044 1.56-.672.516-1.584.516m0-1.38q.396 0 .696-.3t.468-1.008q.168-.72.168-1.968 0-1.236-.168-1.932-.168-.708-.468-.984a.97.97 0 0 0-.696-.288q-.372 0-.684.288-.3.276-.48.984-.18.696-.18 1.932 0 1.248.18 1.968.18.708.48 1.008.312.3.684.3M82.984 95v-1.44h1.92v-5.604h-1.62v-1.104a7.5 7.5 0 0 0 1.152-.288q.492-.18.912-.456h1.308v7.452h1.668V95zm9.634.168q-.9 0-1.584-.516-.672-.528-1.056-1.56-.372-1.044-.372-2.58 0-1.524.372-2.532.384-1.02 1.056-1.524a2.6 2.6 0 0 1 1.584-.504q.912 0 1.584.516.672.504 1.044 1.512.384 1.008.384 2.532 0 1.536-.384 2.58-.372 1.032-1.044 1.56-.672.516-1.584.516m0-1.38q.396 0 .696-.3t.468-1.008q.168-.72.168-1.968 0-1.236-.168-1.932-.168-.708-.468-.984a.97.97 0 0 0-.696-.288q-.372 0-.684.288-.3.276-.48.984-.18.696-.18 1.932 0 1.248.18 1.968.18.708.48 1.008.312.3.684.3M170.516 95v-1.02a30 30 0 0 0 2.064-2.004q.864-.924 1.32-1.716.456-.804.456-1.488 0-.432-.156-.756a1.1 1.1 0 0 0-.456-.492q-.288-.18-.72-.18-.48 0-.888.276a4 4 0 0 0-.732.636l-.984-.948q.624-.672 1.272-1.008.66-.348 1.56-.348.84 0 1.464.348.636.336.984.948t.348 1.44q0 .804-.408 1.644a8.4 8.4 0 0 1-1.068 1.656 20 20 0 0 1-1.488 1.632q.348-.048.744-.072.408-.036.72-.036h1.92V95zm10.102.168q-.9 0-1.584-.516-.672-.528-1.056-1.56-.372-1.044-.372-2.58 0-1.524.372-2.532.384-1.02 1.056-1.524a2.6 2.6 0 0 1 1.584-.504q.912 0 1.584.516.672.504 1.044 1.512.384 1.008.384 2.532 0 1.536-.384 2.58-.372 1.032-1.044 1.56-.672.516-1.584.516m0-1.38q.396 0 .696-.3t.468-1.008q.168-.72.168-1.968 0-1.236-.168-1.932-.168-.708-.468-.984a.97.97 0 0 0-.696-.288q-.372 0-.684.288-.3.276-.48.984-.18.696-.18 1.932 0 1.248.18 1.968.18.708.48 1.008.312.3.684.3M261.276 95.168q-.696 0-1.248-.168a3.7 3.7 0 0 1-.984-.432 4 4 0 0 1-.732-.636l.828-1.116q.408.372.888.648.492.264 1.092.264a2 2 0 0 0 .792-.144 1.12 1.12 0 0 0 .72-1.092q0-.444-.216-.756-.204-.324-.732-.492t-1.488-.168v-1.272q.816 0 1.284-.168.468-.18.66-.48.204-.312.204-.708 0-.516-.312-.804-.312-.3-.876-.3-.468 0-.876.216a3.7 3.7 0 0 0-.792.564l-.912-1.092a5.3 5.3 0 0 1 1.236-.78q.648-.3 1.428-.3.852 0 1.5.276.66.276 1.02.804t.36 1.284q0 .72-.384 1.236t-1.092.792v.06q.492.132.888.432.408.288.636.732.24.444.24 1.032 0 .804-.432 1.38-.42.576-1.14.888-.708.3-1.56.3m7.342 0q-.9 0-1.584-.516-.672-.528-1.056-1.56-.372-1.044-.372-2.58 0-1.524.372-2.532.384-1.02 1.056-1.524a2.6 2.6 0 0 1 1.584-.504q.912 0 1.584.516.672.504 1.044 1.512.384 1.008.384 2.532 0 1.536-.384 2.58-.372 1.032-1.044 1.56-.672.516-1.584.516m0-1.38q.396 0 .696-.3t.468-1.008q.168-.72.168-1.968 0-1.236-.168-1.932-.168-.708-.468-.984a.97.97 0 0 0-.696-.288q-.372 0-.684.288-.3.276-.48.984-.18.696-.18 1.932 0 1.248.18 1.968.18.708.48 1.008.312.3.684.3M350.044 95v-5.46q0-.384.024-.912.024-.54.048-.936h-.06q-.156.36-.336.72t-.372.732l-1.38 2.208h4.776v1.344h-6.492v-1.2l3.312-5.388h2.124V95zm6.574.168q-.9 0-1.584-.516-.672-.528-1.056-1.56-.372-1.044-.372-2.58 0-1.524.372-2.532.384-1.02 1.056-1.524a2.6 2.6 0 0 1 1.584-.504q.912 0 1.584.516.672.504 1.044 1.512.384 1.008.384 2.532 0 1.536-.384 2.58-.372 1.032-1.044 1.56-.672.516-1.584.516m0-1.38q.396 0 .696-.3t.468-1.008q.168-.72.168-1.968 0-1.236-.168-1.932-.168-.708-.468-.984a.97.97 0 0 0-.696-.288q-.372 0-.684.288-.3.276-.48.984-.18.696-.18 1.932 0 1.248.18 1.968.18.708.48 1.008.312.3.684.3"/></svg>