<svg width="362" height="98" viewBox="0 0 362 98" fill="none" xmlns="http://www.w3.org/2000/svg">
<path d="M50.3012 38.5688C49.4939 37.4791 44.2918 30.8457 36.9977 30.8457C30.6622 30.8457 23.8891 36.5923 23.8891 36.5923C23.8891 36.5923 21.3438 31.3826 16.1377 30.8815C16.1059 30.8815 16.0741 30.8735 16.0383 30.8735H16.0064C15.8991 30.8815 15.7957 30.9849 15.8076 31.0803C15.8235 31.1718 15.8911 31.2712 15.8911 31.2712C16.5632 32.3848 18.2734 35.5543 18.2734 38.7239C18.2734 41.8935 16.5513 45.079 15.8871 46.1885L15.8434 46.2601C15.8235 46.2919 15.8116 46.3277 15.8116 46.3715C15.8116 46.4828 15.8951 46.5663 16.0025 46.5783H16.0581C16.0581 46.5783 16.0939 46.5743 16.1138 46.5703C21.3358 46.0851 23.8931 40.8595 23.8931 40.8595C23.8931 40.8595 30.6701 46.6061 37.0017 46.6061C44.2958 46.6061 49.4979 39.9727 50.3052 38.887C50.3291 38.8591 50.345 38.8313 50.3609 38.8114C50.3689 38.7875 50.3768 38.7637 50.3768 38.7319C50.3768 38.704 50.3689 38.6762 50.3609 38.6523C50.345 38.6285 50.3291 38.6046 50.3052 38.5768M41.0544 39.5591C39.8772 39.5591 38.9266 38.6046 38.9266 37.4274C38.9266 36.2503 39.8812 35.2998 41.0544 35.2998C42.2277 35.2998 43.1862 36.2503 43.1862 37.4274C43.1862 38.6046 42.2316 39.5591 41.0544 39.5591Z" fill="#0A97D9"/>
<path d="M15.9742 18.3779C15.9742 18.3779 15.9464 18.3699 15.9344 18.3699C15.8191 18.3699 15.7236 18.4654 15.7236 18.5807V20.0323C15.7236 20.0919 15.7475 20.1476 15.7833 20.1834C19.3031 23.2416 22.6399 20.3743 23.4114 19.6187C23.4273 19.5948 23.4432 19.5749 23.4671 19.559C23.5029 19.5352 23.5387 19.5193 23.5824 19.5193C23.6381 19.5193 23.6898 19.5391 23.7256 19.5749C23.7256 19.5749 23.7336 19.5829 23.7376 19.5829C27.7147 23.3768 31.8867 20.3027 32.7537 19.5829L32.8372 19.5034C32.8611 19.4914 32.8889 19.4874 32.9168 19.4874C32.9446 19.4874 32.9764 19.4914 33.0003 19.5034L33.0878 19.5829C33.9548 20.3027 38.1268 23.3768 42.1039 19.5829C42.1039 19.5829 42.1079 19.5789 42.1119 19.5749C42.1477 19.5391 42.1994 19.5193 42.2551 19.5193C42.2988 19.5193 42.3386 19.5352 42.3704 19.559C42.3943 19.5749 42.4102 19.5948 42.4301 19.6187C43.2016 20.3743 46.5305 23.2416 50.0542 20.1834C50.09 20.1476 50.1139 20.0919 50.1139 20.0323V18.5807C50.1139 18.4614 50.0224 18.3699 49.9071 18.3699C49.8912 18.3699 49.8792 18.3739 49.8633 18.3779C49.8315 18.3978 49.7957 18.4137 49.756 18.4336C48.6742 18.9744 45.3135 20.2669 42.267 17.3837C42.2392 17.3558 42.2074 17.332 42.1795 17.3002C42.1517 17.2882 42.1238 17.2803 42.092 17.2803C42.0721 17.2803 42.0483 17.2882 42.0284 17.2882C41.9846 17.3081 41.9449 17.336 41.921 17.3717C41.0102 18.0637 36.8422 20.8873 33.1276 17.4234L33.0719 17.3717C33.0321 17.336 32.9804 17.3081 32.9207 17.3081C32.8651 17.3081 32.8134 17.336 32.7736 17.3717L32.7139 17.4234C29.0033 20.8873 24.8273 18.0637 23.9205 17.3717C23.8966 17.336 23.8608 17.3081 23.8171 17.2882C23.7972 17.2882 23.7733 17.2803 23.7495 17.2803C23.7216 17.2803 23.6898 17.2882 23.662 17.3002C23.6341 17.332 23.6023 17.3598 23.5745 17.3837C20.524 20.2669 17.1673 18.9784 16.0856 18.4336C16.0458 18.4137 16.01 18.3978 15.9782 18.3779" fill="#0A97D9"/>
<path d="M23.4115 24.8999C23.4274 24.8761 23.4433 24.8602 23.4672 24.8403C23.503 24.8204 23.5388 24.8005 23.5825 24.8005C23.6382 24.8005 23.6899 24.8244 23.7257 24.8602L23.7336 24.8681C27.7108 28.6581 31.8828 25.5879 32.7498 24.8681L32.8333 24.7886C32.8572 24.7806 32.885 24.7766 32.9129 24.7766C32.9447 24.7766 32.9725 24.7766 32.9964 24.7886L33.0799 24.8681C33.9469 25.5879 38.1189 28.6581 42.0961 24.8681C42.0961 24.8681 42.1 24.8641 42.104 24.8602C42.1398 24.8244 42.1915 24.8005 42.2432 24.8005C42.287 24.8005 42.3267 24.8164 42.3586 24.8403C42.3824 24.8562 42.3983 24.8761 42.4182 24.8999C43.1898 25.6595 46.5186 28.5268 50.0424 25.4646C50.0782 25.4289 50.106 25.3772 50.106 25.3175V23.862C50.106 23.7466 50.0145 23.6552 49.8992 23.6552C49.8833 23.6552 49.8714 23.6591 49.8554 23.6631C49.8236 23.679 49.7878 23.6989 49.7481 23.7148C48.6663 24.2597 45.3056 25.5442 42.2591 22.6649C42.2313 22.6371 42.1995 22.6092 42.1716 22.5814C42.1438 22.5655 42.1159 22.5615 42.0841 22.5615C42.0642 22.5615 42.0404 22.5655 42.0205 22.5774C41.9728 22.5894 41.937 22.6172 41.9131 22.657C41.0063 23.3489 36.8343 26.1725 33.1197 22.7087L33.064 22.653C33.0242 22.6172 32.9725 22.5933 32.9129 22.5933C32.8572 22.5933 32.8055 22.6132 32.7657 22.653L32.71 22.7087C28.9994 26.1725 24.8234 23.3489 23.9166 22.657C23.8927 22.6212 23.8569 22.5894 23.8132 22.5774C23.7933 22.5655 23.7694 22.5615 23.7456 22.5615C23.7138 22.5615 23.6859 22.5655 23.6581 22.5814C23.6302 22.6092 23.5984 22.6371 23.5666 22.6649C20.5161 25.5442 17.1594 24.2597 16.0777 23.7148C16.0379 23.6949 16.0021 23.679 15.9703 23.6631C15.9544 23.6631 15.9424 23.6552 15.9305 23.6552C15.8152 23.6552 15.7197 23.7466 15.7197 23.862V25.3175C15.7197 25.3772 15.7436 25.4289 15.7794 25.4646C19.2991 28.5268 22.636 25.6595 23.4075 24.8999" fill="#0A97D9"/>
<path d="M88.488 42.336C86.112 42.336 83.736 41.4 82.008 39.744L84.048 37.296C85.32 38.472 87 39.264 88.56 39.264C90.408 39.264 91.392 38.472 91.392 37.224C91.392 35.904 90.312 35.496 88.728 34.824L86.352 33.816C84.552 33.072 82.752 31.632 82.752 29.04C82.752 26.136 85.296 23.904 88.896 23.904C90.96 23.904 93.024 24.72 94.464 26.184L92.664 28.416C91.536 27.48 90.36 26.952 88.896 26.952C87.336 26.952 86.352 27.648 86.352 28.824C86.352 30.096 87.6 30.552 89.112 31.152L91.44 32.136C93.6 33.024 95.016 34.392 95.016 36.96C95.016 39.864 92.592 42.336 88.488 42.336ZM98.1606 42V24.216H103.033C108.457 24.216 111.817 27.048 111.817 33.048C111.817 39.024 108.457 42 103.225 42H98.1606ZM101.713 39.144H102.817C106.129 39.144 108.193 37.368 108.193 33.048C108.193 28.704 106.129 27.072 102.817 27.072H101.713V39.144ZM122.925 42.336C118.101 42.336 114.405 39.12 114.405 33.192C114.405 27.336 118.197 23.904 122.925 23.904C125.493 23.904 127.269 25.008 128.421 26.184L126.549 28.44C125.661 27.6 124.653 26.952 123.045 26.952C120.093 26.952 118.029 29.256 118.029 33.072C118.029 36.936 119.805 39.264 123.309 39.264C124.149 39.264 125.013 39.024 125.517 38.592V35.088H122.373V32.184H128.685V40.2C127.485 41.376 125.397 42.336 122.925 42.336ZM136.049 42.336C134.249 42.336 132.281 41.544 130.937 40.44L132.545 38.232C133.745 39.168 134.897 39.696 136.145 39.696C137.489 39.696 138.089 39.12 138.089 38.28C138.089 37.272 136.697 36.816 135.281 36.264C133.577 35.616 131.681 34.584 131.681 32.328C131.681 29.928 133.625 28.224 136.697 28.224C138.641 28.224 140.153 29.04 141.257 29.88L139.673 32.016C138.713 31.32 137.777 30.864 136.793 30.864C135.569 30.864 134.993 31.392 134.993 32.16C134.993 33.144 136.241 33.504 137.657 34.032C139.433 34.704 141.401 35.592 141.401 38.088C141.401 40.44 139.553 42.336 136.049 42.336ZM149.601 42V39.144H153.417V28.368H150.201V26.184C151.977 25.848 153.201 25.392 154.329 24.696H156.945V39.144H160.281V42H149.601ZM165.702 34.992H169.854V31.536C169.854 30.504 169.926 28.872 169.974 27.84H169.878C169.446 28.776 168.966 29.664 168.462 30.624L165.702 34.992ZM169.854 42V37.704H162.27V35.28L168.894 24.696H173.142V34.992H175.23V37.704H173.142V42H169.854Z" fill="#0A97D9"/>
<path d="M191.632 31.152L193.552 31.968C192.4 36.936 189.904 40.656 186.976 42.624C186.496 42.024 185.368 40.92 184.672 40.488C186.928 39.144 188.824 36.792 189.928 33.96H185.272V31.272H191.128L191.632 31.152ZM203.944 28.392L206.56 30.336C204.76 31.968 202.552 33.768 200.728 34.992C202.408 37.296 204.592 39.072 207.4 40.176C206.728 40.728 205.84 41.904 205.408 42.672C201.928 41.112 199.456 38.544 197.656 35.256V40.752C197.656 42.312 197.344 43.08 196.312 43.56C195.328 44.016 193.864 44.04 191.848 44.04C191.728 43.224 191.272 41.952 190.888 41.184C192.088 41.256 193.576 41.256 194.008 41.232C194.44 41.208 194.584 41.088 194.584 40.704V29.256H188.584V26.52H197.488C195.448 25.608 192.664 24.672 190.456 24.096L191.872 21.768C194.656 22.368 198.664 23.64 200.704 24.696L199.168 27.36C198.76 27.12 198.232 26.856 197.656 26.592V28.584C198.112 30.096 198.688 31.512 199.36 32.808C200.992 31.512 202.792 29.832 203.944 28.392ZM222.544 25.344V24.528H216.832V22.704H222.544V21.672H225.328V22.704H230.752V24.528H225.328V25.344H230.008V27.048H217.72V25.344H222.544ZM219.256 29.448V30.888H220.984V29.448H219.256ZM228.28 30.888V29.448H226.744V30.888H228.28ZM223.096 30.888H224.656V29.448H223.096V30.888ZM216.928 32.616V27.72H230.728V32.616H216.928ZM217.384 36.12L215.368 36.768C215.32 36.432 215.272 36.048 215.2 35.616C210.952 36.24 210.16 36.456 209.656 36.696C209.512 36.216 209.128 35.016 208.84 34.368C209.416 34.248 209.896 33.672 210.616 32.76C210.904 32.4 211.432 31.656 212.08 30.648C210.328 30.864 209.824 30.984 209.464 31.152C209.344 30.672 208.936 29.52 208.672 28.92C209.104 28.8 209.488 28.32 209.944 27.576C210.4 26.928 211.792 24.168 212.56 21.648L214.888 22.56C214.096 24.528 213.04 26.664 211.936 28.392L213.472 28.272C214.024 27.264 214.576 26.136 215.032 25.032L217.192 26.352C215.92 28.872 214.264 31.536 212.536 33.72L214.744 33.456C214.576 32.808 214.408 32.16 214.216 31.608L216.112 31.104C216.664 32.736 217.216 34.848 217.384 36.12ZM209.704 37.44L211.864 37.776C211.672 40.032 211.288 42.432 210.784 43.968C210.304 43.704 209.272 43.392 208.696 43.248C209.248 41.736 209.56 39.528 209.704 37.44ZM212.224 37.728L214.096 37.392C214.384 39.168 214.6 41.4 214.648 42.912L212.632 43.272C212.632 41.76 212.44 39.504 212.224 37.728ZM214.456 37.272L216.208 36.768C216.664 38.112 217.192 39.888 217.384 41.064L215.56 41.688C215.368 40.488 214.888 38.664 214.456 37.272ZM220.312 38.328V39.096H227.272V38.328H220.312ZM220.312 36.576V37.296H227.272V36.576H220.312ZM220.312 34.8V35.52H227.272V34.8H220.312ZM229.936 40.536H226.816C228.424 41.064 230.056 41.688 231.136 42.12L230.008 44.112C228.736 43.512 226.648 42.648 224.824 41.976L225.616 40.536H222.064L223.504 41.952C221.608 42.768 219.208 43.656 217.456 44.232C217.24 43.704 216.808 42.84 216.472 42.264C217.792 41.832 219.64 41.184 221.008 40.536H217.792V33.336H229.936V40.536ZM240.088 24.528L238.384 26.688C237.52 25.872 235.648 24.72 234.256 23.976L235.84 22.056C237.232 22.704 239.128 23.76 240.088 24.528ZM238.432 31.272L236.8 33.432C235.984 32.616 234.256 31.512 232.912 30.792L234.448 28.848C235.792 29.448 237.568 30.504 238.432 31.272ZM236.032 43.704L233.536 42.144C234.52 40.296 235.84 37.248 236.872 34.44L239.056 36.024C238.168 38.568 237.088 41.352 236.032 43.704ZM248.32 38.064H250.576C250.672 37.344 250.744 36.528 250.816 35.52H246.952C247.744 36.168 248.608 36.936 249.088 37.536L248.32 38.064ZM245.8 35.52H243.712C243.592 36.408 243.472 37.248 243.352 38.064H246.976C246.4 37.416 245.584 36.672 244.888 36.096L245.8 35.52ZM246.352 30.648H244.336C244.24 31.416 244.144 32.16 244.048 32.928H247.288C246.808 32.352 246.136 31.704 245.536 31.176L246.352 30.648ZM251.056 30.648H247.504C248.176 31.248 248.92 31.944 249.328 32.472L248.656 32.928H250.96C250.984 32.208 251.032 31.464 251.056 30.648ZM255.28 35.52H253.432C253.36 36.48 253.288 37.32 253.216 38.064H254.68V40.488H252.904C252.712 41.64 252.472 42.312 252.16 42.72C251.632 43.464 251.032 43.68 250.24 43.8C249.52 43.92 248.368 43.92 247.24 43.848C247.192 43.176 246.904 42.168 246.496 41.52C247.552 41.616 248.488 41.616 248.968 41.616C249.376 41.616 249.592 41.544 249.832 41.232C249.952 41.088 250.072 40.872 250.168 40.488H240.232C240.52 39.12 240.808 37.368 241.072 35.52H238.936V32.928H241.408C241.576 31.632 241.72 30.336 241.84 29.112C241.552 29.568 241.24 29.976 240.952 30.336C240.4 29.928 239.176 29.136 238.504 28.776C240.112 27.072 241.528 24.312 242.344 21.672L245.104 22.368C244.912 22.92 244.696 23.52 244.456 24.096H254.656V26.64H243.28C242.992 27.192 242.728 27.72 242.416 28.224H253.768C253.768 28.224 253.768 29.064 253.744 29.424C253.696 30.696 253.624 31.848 253.576 32.928H255.28V35.52ZM264.064 25.056L262.264 27.288C261.352 26.376 259.312 24.984 257.8 24.144L259.48 22.152C260.992 22.92 263.056 24.168 264.064 25.056ZM263.008 30.912L261.304 33.192C260.344 32.328 258.256 31.032 256.72 30.192L258.328 28.152C259.816 28.896 261.952 30.048 263.008 30.912ZM259.768 43.488L257.2 41.784C258.328 39.888 259.888 36.816 261.088 33.984L263.344 35.688C262.288 38.28 261.016 41.088 259.768 43.488ZM279.184 36.312V39.048H272.968V44.088H269.992V39.048H263.776V36.312H269.992V33.84H265.336V31.176H269.992V28.728H264.52V26.04H267.4C267.016 24.984 266.32 23.64 265.6 22.608L268.144 21.624C269.008 22.8 269.944 24.408 270.304 25.512L269.032 26.04H272.632C273.328 24.768 274.12 22.992 274.552 21.648L277.36 22.464C276.76 23.688 276.112 24.96 275.488 26.04H278.728V28.728H272.968V31.176H277.84V33.84H272.968V36.312H279.184ZM292.744 33.744V29.856H289.12V21.888H291.544V23.52H295.312V25.872H291.544V27.624H294.208V27.648H295.12V33.744C295.12 34.728 294.928 35.136 294.28 35.448C293.656 35.736 292.72 35.736 291.544 35.736C291.448 35.184 291.16 34.488 290.92 33.984C291.544 34.032 292.24 34.032 292.456 34.008C292.672 34.008 292.744 33.96 292.744 33.744ZM289.48 30.432L291.592 30.792C291.424 32.376 291.04 33.936 290.392 34.944C290.008 34.632 289.072 34.08 288.568 33.816C289.168 32.928 289.36 31.704 289.48 30.432ZM303.04 35.952V38.592H296.272C298.528 39.648 300.928 40.896 302.392 41.808L300.496 43.992C298.96 42.936 296.32 41.4 293.944 40.248L295.216 38.592H288.088L290.104 40.248C288.04 41.616 285.064 43.104 282.712 44.064C282.328 43.464 281.632 42.528 281.104 41.928C283.216 41.136 285.976 39.768 287.584 38.592H281.032V35.952H283.192L282.784 23.568C284.296 23.088 286.144 22.368 287.368 21.792L288.592 24.12C287.584 24.48 286.456 24.768 285.376 25.056L285.448 27.216H288.184V29.544H285.52L285.592 31.608H288.256V33.936H285.664L285.736 35.952H298.264C298.312 35.328 298.336 34.704 298.384 34.008H295.96V31.656H298.48C298.504 30.984 298.528 30.288 298.552 29.592H296.128V27.24H298.624C298.624 26.544 298.624 25.872 298.648 25.176H295.888V22.728H301.264C301.264 27 301.144 32.352 300.952 35.952H303.04ZM310.144 21.72L312.784 22.584C312.136 24.24 311.344 25.944 310.408 27.552V44.016H307.696V31.68C307.144 32.376 306.568 33.024 306.016 33.624C305.752 32.928 304.96 31.392 304.48 30.696C306.712 28.536 308.896 25.128 310.144 21.72ZM314.416 36.408L316.984 37.176C316 39.24 314.536 41.568 313.312 43.032C312.808 42.6 311.752 41.832 311.104 41.496C312.304 40.176 313.6 38.184 314.416 36.408ZM315.976 25.224V28.44H323.008V25.224H315.976ZM327.064 35.664H320.848V44.088H317.968V35.664H311.704V33.072H317.968V30.96H313.264V22.704H325.864V30.96H320.848V33.072H327.064V35.664ZM321.664 37.56L323.776 36.384C325.144 37.968 326.608 40.032 327.304 41.448L325.048 42.816C324.4 41.4 322.936 39.192 321.664 37.56ZM335.632 28.104L343.624 27.888C343.12 27.504 342.64 27.12 342.184 26.784L343.168 26.208H338.032C337.216 26.904 336.424 27.528 335.632 28.104ZM350.608 23.712V26.208H345.64C347.2 27.384 348.904 28.848 349.84 29.928L347.656 31.296H348.664V41.04C348.664 42.576 348.256 43.2 347.104 43.56C345.976 43.896 344.224 43.872 341.92 43.872C341.824 43.128 341.536 42.168 341.224 41.448C342.544 41.544 344.512 41.544 344.92 41.52C345.4 41.496 345.544 41.376 345.544 40.992V39.264C342.016 40.032 338.488 40.752 335.68 41.328L334.84 38.808C336.832 38.544 339.808 38.112 342.928 37.632C341.032 36.864 337.864 36.048 335.392 35.688L336.232 33.984C338.92 34.296 342.496 35.136 344.416 35.928L343.672 37.512L345.544 37.224V33.648H334.816V35.136C334.816 37.944 334.384 41.856 332.2 44.352C331.72 43.848 330.496 42.936 329.848 42.672C331.816 40.464 332.008 37.368 332.008 35.088V31.296H347.152C346.84 30.912 346.432 30.48 345.976 30.024C334.264 30.48 332.848 30.504 331.816 30.864C331.672 30.312 331.24 28.992 330.952 28.248C331.624 28.128 332.2 27.72 333.112 27.072C333.376 26.904 333.736 26.592 334.192 26.208H329.344V23.712H336.88C337.6 22.968 338.32 22.2 338.92 21.384L341.824 22.488C341.464 22.896 341.08 23.304 340.672 23.712H350.608Z" fill="#0A97D9"/>
<rect x="1" y="64" width="18" height="18" fill="#0A97D9" stroke="black"/>
<rect x="19" y="64" width="18" height="18" fill="#0A97D9" stroke="black"/>
<rect x="37" y="64" width="18" height="18" fill="#0A97D9" stroke="black"/>
<rect x="55" y="64" width="18" height="18" fill="#0A97D9" stroke="black"/>
<rect x="73" y="64" width="18" height="18" fill="#0A97D9" stroke="black"/>
<rect x="91" y="64" width="18" height="18" fill="#0A97D9" fill-opacity="0.3" stroke="black"/>
<rect x="109" y="64" width="18" height="18" fill="#0A97D9" fill-opacity="0.3" stroke="black"/>
<rect x="127" y="64" width="18" height="18" fill="#0A97D9" fill-opacity="0.3" stroke="black"/>
<rect x="145" y="64" width="18" height="18" fill="#0A97D9" fill-opacity="0.3" stroke="black"/>
<rect x="163" y="64" width="18" height="18" fill="#0A97D9" fill-opacity="0.3" stroke="black"/>
<rect x="181" y="64" width="18" height="18" fill="#0A97D9" fill-opacity="0.3" stroke="black"/>
<rect x="199" y="64" width="18" height="18" fill="#0A97D9" fill-opacity="0.3" stroke="black"/>
<rect x="217" y="64" width="18" height="18" fill="#0A97D9" fill-opacity="0.3" stroke="black"/>
<rect x="235" y="64" width="18" height="18" fill="#0A97D9" fill-opacity="0.3" stroke="black"/>
<rect x="253" y="64" width="18" height="18" fill="#0A97D9" fill-opacity="0.3" stroke="black"/>
<rect x="271" y="64" width="18" height="18" fill="#0A97D9" fill-opacity="0.3" stroke="black"/>
<rect x="289" y="64" width="18" height="18" fill="#0A97D9" fill-opacity="0.3" stroke="black"/>
<rect x="307" y="64" width="18" height="18" fill="#0A97D9" fill-opacity="0.3" stroke="black"/>
<rect x="325" y="64" width="18" height="18" fill="#0A97D9" fill-opacity="0.3" stroke="black"/>
<rect x="343" y="64" width="18" height="18" fill="#0A97D9" fill-opacity="0.3" stroke="black"/>
<path d="M4.54 95.168C3.94 95.168 3.412 94.996 2.956 94.652C2.508 94.3 2.156 93.78 1.9 93.092C1.652 92.396 1.528 91.536 1.528 90.512C1.528 89.496 1.652 88.652 1.9 87.98C2.156 87.3 2.508 86.792 2.956 86.456C3.412 86.12 3.94 85.952 4.54 85.952C5.148 85.952 5.676 86.124 6.124 86.468C6.572 86.804 6.92 87.308 7.168 87.98C7.424 88.652 7.552 89.496 7.552 90.512C7.552 91.536 7.424 92.396 7.168 93.092C6.92 93.78 6.572 94.3 6.124 94.652C5.676 94.996 5.148 95.168 4.54 95.168ZM4.54 93.788C4.804 93.788 5.036 93.688 5.236 93.488C5.436 93.288 5.592 92.952 5.704 92.48C5.816 92 5.872 91.344 5.872 90.512C5.872 89.688 5.816 89.044 5.704 88.58C5.592 88.108 5.436 87.78 5.236 87.596C5.036 87.404 4.804 87.308 4.54 87.308C4.292 87.308 4.064 87.404 3.856 87.596C3.656 87.78 3.496 88.108 3.376 88.58C3.256 89.044 3.196 89.688 3.196 90.512C3.196 91.344 3.256 92 3.376 92.48C3.496 92.952 3.656 93.288 3.856 93.488C4.064 93.688 4.292 93.788 4.54 93.788Z" fill="#0A97D9"/>
<path d="M82.984 95V93.56H84.904V87.956H83.284V86.852C83.732 86.772 84.116 86.676 84.436 86.564C84.764 86.444 85.068 86.292 85.348 86.108H86.656V93.56H88.324V95H82.984ZM92.6181 95.168C92.0181 95.168 91.4901 94.996 91.0341 94.652C90.5861 94.3 90.2341 93.78 89.9781 93.092C89.7301 92.396 89.6061 91.536 89.6061 90.512C89.6061 89.496 89.7301 88.652 89.9781 87.98C90.2341 87.3 90.5861 86.792 91.0341 86.456C91.4901 86.12 92.0181 85.952 92.6181 85.952C93.2261 85.952 93.7541 86.124 94.2021 86.468C94.6501 86.804 94.9981 87.308 95.2461 87.98C95.5021 88.652 95.6301 89.496 95.6301 90.512C95.6301 91.536 95.5021 92.396 95.2461 93.092C94.9981 93.78 94.6501 94.3 94.2021 94.652C93.7541 94.996 93.2261 95.168 92.6181 95.168ZM92.6181 93.788C92.8821 93.788 93.1141 93.688 93.3141 93.488C93.5141 93.288 93.6701 92.952 93.7821 92.48C93.8941 92 93.9501 91.344 93.9501 90.512C93.9501 89.688 93.8941 89.044 93.7821 88.58C93.6701 88.108 93.5141 87.78 93.3141 87.596C93.1141 87.404 92.8821 87.308 92.6181 87.308C92.3701 87.308 92.1421 87.404 91.9341 87.596C91.7341 87.78 91.5741 88.108 91.4541 88.58C91.3341 89.044 91.2741 89.688 91.2741 90.512C91.2741 91.344 91.3341 92 91.4541 92.48C91.5741 92.952 91.7341 93.288 91.9341 93.488C92.1421 93.688 92.3701 93.788 92.6181 93.788Z" fill="#0A97D9"/>
<path d="M170.516 95V93.98C171.324 93.26 172.012 92.592 172.58 91.976C173.156 91.36 173.596 90.788 173.9 90.26C174.204 89.724 174.356 89.228 174.356 88.772C174.356 88.484 174.304 88.232 174.2 88.016C174.096 87.8 173.944 87.636 173.744 87.524C173.552 87.404 173.312 87.344 173.024 87.344C172.704 87.344 172.408 87.436 172.136 87.62C171.872 87.796 171.628 88.008 171.404 88.256L170.42 87.308C170.836 86.86 171.26 86.524 171.692 86.3C172.132 86.068 172.652 85.952 173.252 85.952C173.812 85.952 174.3 86.068 174.716 86.3C175.14 86.524 175.468 86.84 175.7 87.248C175.932 87.656 176.048 88.136 176.048 88.688C176.048 89.224 175.912 89.772 175.64 90.332C175.376 90.884 175.02 91.436 174.572 91.988C174.124 92.54 173.628 93.084 173.084 93.62C173.316 93.588 173.564 93.564 173.828 93.548C174.1 93.524 174.34 93.512 174.548 93.512H176.468V95H170.516ZM180.618 95.168C180.018 95.168 179.49 94.996 179.034 94.652C178.586 94.3 178.234 93.78 177.978 93.092C177.73 92.396 177.606 91.536 177.606 90.512C177.606 89.496 177.73 88.652 177.978 87.98C178.234 87.3 178.586 86.792 179.034 86.456C179.49 86.12 180.018 85.952 180.618 85.952C181.226 85.952 181.754 86.124 182.202 86.468C182.65 86.804 182.998 87.308 183.246 87.98C183.502 88.652 183.63 89.496 183.63 90.512C183.63 91.536 183.502 92.396 183.246 93.092C182.998 93.78 182.65 94.3 182.202 94.652C181.754 94.996 181.226 95.168 180.618 95.168ZM180.618 93.788C180.882 93.788 181.114 93.688 181.314 93.488C181.514 93.288 181.67 92.952 181.782 92.48C181.894 92 181.95 91.344 181.95 90.512C181.95 89.688 181.894 89.044 181.782 88.58C181.67 88.108 181.514 87.78 181.314 87.596C181.114 87.404 180.882 87.308 180.618 87.308C180.37 87.308 180.142 87.404 179.934 87.596C179.734 87.78 179.574 88.108 179.454 88.58C179.334 89.044 179.274 89.688 179.274 90.512C179.274 91.344 179.334 92 179.454 92.48C179.574 92.952 179.734 93.288 179.934 93.488C180.142 93.688 180.37 93.788 180.618 93.788Z" fill="#0A97D9"/>
<path d="M261.276 95.168C260.812 95.168 260.396 95.112 260.028 95C259.66 94.896 259.332 94.752 259.044 94.568C258.764 94.376 258.52 94.164 258.312 93.932L259.14 92.816C259.412 93.064 259.708 93.28 260.028 93.464C260.356 93.64 260.72 93.728 261.12 93.728C261.424 93.728 261.688 93.68 261.912 93.584C262.144 93.488 262.32 93.348 262.44 93.164C262.568 92.98 262.632 92.756 262.632 92.492C262.632 92.196 262.56 91.944 262.416 91.736C262.28 91.52 262.036 91.356 261.684 91.244C261.332 91.132 260.836 91.076 260.196 91.076V89.804C260.74 89.804 261.168 89.748 261.48 89.636C261.792 89.516 262.012 89.356 262.14 89.156C262.276 88.948 262.344 88.712 262.344 88.448C262.344 88.104 262.24 87.836 262.032 87.644C261.824 87.444 261.532 87.344 261.156 87.344C260.844 87.344 260.552 87.416 260.28 87.56C260.016 87.696 259.752 87.884 259.488 88.124L258.576 87.032C258.968 86.704 259.38 86.444 259.812 86.252C260.244 86.052 260.72 85.952 261.24 85.952C261.808 85.952 262.308 86.044 262.74 86.228C263.18 86.412 263.52 86.68 263.76 87.032C264 87.384 264.12 87.812 264.12 88.316C264.12 88.796 263.992 89.208 263.736 89.552C263.48 89.896 263.116 90.16 262.644 90.344V90.404C262.972 90.492 263.268 90.636 263.532 90.836C263.804 91.028 264.016 91.272 264.168 91.568C264.328 91.864 264.408 92.208 264.408 92.6C264.408 93.136 264.264 93.596 263.976 93.98C263.696 94.364 263.316 94.66 262.836 94.868C262.364 95.068 261.844 95.168 261.276 95.168ZM268.618 95.168C268.018 95.168 267.49 94.996 267.034 94.652C266.586 94.3 266.234 93.78 265.978 93.092C265.73 92.396 265.606 91.536 265.606 90.512C265.606 89.496 265.73 88.652 265.978 87.98C266.234 87.3 266.586 86.792 267.034 86.456C267.49 86.12 268.018 85.952 268.618 85.952C269.226 85.952 269.754 86.124 270.202 86.468C270.65 86.804 270.998 87.308 271.246 87.98C271.502 88.652 271.63 89.496 271.63 90.512C271.63 91.536 271.502 92.396 271.246 93.092C270.998 93.78 270.65 94.3 270.202 94.652C269.754 94.996 269.226 95.168 268.618 95.168ZM268.618 93.788C268.882 93.788 269.114 93.688 269.314 93.488C269.514 93.288 269.67 92.952 269.782 92.48C269.894 92 269.95 91.344 269.95 90.512C269.95 89.688 269.894 89.044 269.782 88.58C269.67 88.108 269.514 87.78 269.314 87.596C269.114 87.404 268.882 87.308 268.618 87.308C268.37 87.308 268.142 87.404 267.934 87.596C267.734 87.78 267.574 88.108 267.454 88.58C267.334 89.044 267.274 89.688 267.274 90.512C267.274 91.344 267.334 92 267.454 92.48C267.574 92.952 267.734 93.288 267.934 93.488C268.142 93.688 268.37 93.788 268.618 93.788Z" fill="#0A97D9"/>
<path d="M350.044 95V89.54C350.044 89.284 350.052 88.98 350.068 88.628C350.084 88.268 350.1 87.956 350.116 87.692H350.056C349.952 87.932 349.84 88.172 349.72 88.412C349.6 88.652 349.476 88.896 349.348 89.144L347.968 91.352H352.744V92.696H346.252V91.496L349.564 86.108H351.688V95H350.044ZM356.618 95.168C356.018 95.168 355.49 94.996 355.034 94.652C354.586 94.3 354.234 93.78 353.978 93.092C353.73 92.396 353.606 91.536 353.606 90.512C353.606 89.496 353.73 88.652 353.978 87.98C354.234 87.3 354.586 86.792 355.034 86.456C355.49 86.12 356.018 85.952 356.618 85.952C357.226 85.952 357.754 86.124 358.202 86.468C358.65 86.804 358.998 87.308 359.246 87.98C359.502 88.652 359.63 89.496 359.63 90.512C359.63 91.536 359.502 92.396 359.246 93.092C358.998 93.78 358.65 94.3 358.202 94.652C357.754 94.996 357.226 95.168 356.618 95.168ZM356.618 93.788C356.882 93.788 357.114 93.688 357.314 93.488C357.514 93.288 357.67 92.952 357.782 92.48C357.894 92 357.95 91.344 357.95 90.512C357.95 89.688 357.894 89.044 357.782 88.58C357.67 88.108 357.514 87.78 357.314 87.596C357.114 87.404 356.882 87.308 356.618 87.308C356.37 87.308 356.142 87.404 355.934 87.596C355.734 87.78 355.574 88.108 355.454 88.58C355.334 89.044 355.274 89.688 355.274 90.512C355.274 91.344 355.334 92 355.454 92.48C355.574 92.952 355.734 93.288 355.934 93.488C356.142 93.688 356.37 93.788 356.618 93.788Z" fill="#0A97D9"/>
</svg>
