<svg width="362" height="98" viewBox="0 0 362 98" fill="none" xmlns="http://www.w3.org/2000/svg">
<path d="M32.6828 22.3877C27.5045 22.3877 23.3047 26.5875 23.3047 31.7658C23.3047 36.944 27.5045 41.1478 32.6828 41.1478C37.861 41.1478 42.0608 36.948 42.0608 31.7658C42.0608 26.5836 37.861 22.3877 32.6828 22.3877ZM31.9868 26.0904C31.9868 25.7762 32.301 25.4342 32.6867 25.4342C33.0725 25.4342 33.3827 25.7762 33.3827 26.0904V29.3119C33.3827 29.6221 33.0725 29.9641 32.6867 29.9641C32.301 29.9641 31.9868 29.6221 31.9868 29.3119V26.0904ZM32.6828 36.5741C29.9902 36.5741 27.8028 34.3907 27.8028 31.6942C27.8028 29.5028 29.2465 27.6534 31.2311 27.033V28.8505C30.1971 29.3795 29.4891 30.4533 29.4891 31.6942C29.4891 33.46 30.9169 34.8878 32.6828 34.8878C34.4486 34.8878 35.8764 33.46 35.8764 31.6942C35.8764 30.4493 35.1645 29.3755 34.1225 28.8466V27.033C36.115 27.6494 37.5587 29.5028 37.5587 31.6942C37.5587 34.3907 35.3753 36.5741 32.6788 36.5741" fill="#FCC30B"/>
<path d="M21.9164 31.6827C21.9164 31.2571 21.5386 30.9111 21.1965 30.9111H17.0882C16.7422 30.9111 16.3604 31.2571 16.3604 31.6827C16.3604 32.1082 16.7422 32.4543 17.0882 32.4543H21.1965C21.5426 32.4543 21.9164 32.1082 21.9164 31.6827Z" fill="#FCC30B"/>
<path d="M49.0082 31.6827C49.0082 31.2571 48.6304 30.9111 48.2883 30.9111H44.18C43.834 30.9111 43.4521 31.2571 43.4521 31.6827C43.4521 32.1082 43.834 32.4543 44.18 32.4543H48.2883C48.6344 32.4543 49.0082 32.1082 49.0082 31.6827Z" fill="#FCC30B"/>
<path d="M32.6866 20.9164C33.1122 20.9164 33.4542 20.5386 33.4542 20.1965V16.0882C33.4542 15.7422 33.1082 15.3604 32.6866 15.3604C32.265 15.3604 31.915 15.7422 31.915 16.0882V20.1965C31.915 20.5386 32.261 20.9164 32.6866 20.9164Z" fill="#FCC30B"/>
<path d="M32.6866 48.0082C33.1122 48.0082 33.4542 47.6304 33.4542 47.2883V43.18C33.4542 42.834 33.1082 42.4521 32.6866 42.4521C32.265 42.4521 31.915 42.834 31.915 43.18V47.2883C31.915 47.6344 32.261 48.0082 32.6866 48.0082Z" fill="#FCC30B"/>
<path d="M23.3365 26.3331C23.5473 25.9633 23.3922 25.478 23.0939 25.307L19.5304 23.2668C19.2281 23.0957 18.727 23.2031 18.5162 23.573C18.3054 23.9429 18.4645 24.4321 18.7628 24.6031L22.3263 26.6433C22.6246 26.8144 23.1217 26.699 23.3365 26.3291" fill="#FCC30B"/>
<path d="M46.853 39.7921C47.0637 39.4222 46.9086 38.937 46.6103 38.766L43.0468 36.7257C42.7446 36.5547 42.2435 36.6621 42.0327 37.032C41.8219 37.4019 41.977 37.891 42.2793 38.0621L45.8428 40.1023C46.141 40.2733 46.6382 40.158 46.853 39.7881" fill="#FCC30B"/>
<path d="M38.0361 22.3404C38.406 22.5512 38.8912 22.3961 39.0622 22.0978L41.1025 18.5343C41.2735 18.232 41.1661 17.7309 40.7963 17.5201C40.4264 17.3093 39.9372 17.4684 39.7662 17.7667L37.7259 21.3302C37.5549 21.6285 37.6702 22.1296 38.0401 22.3404" fill="#FCC30B"/>
<path d="M24.5771 45.8531C24.947 46.0639 25.4322 45.9088 25.6032 45.6105L27.6435 42.047C27.8145 41.7447 27.7071 41.2436 27.3373 41.0328C26.9674 40.822 26.4782 40.9811 26.3072 41.2794L24.2669 44.8429C24.0959 45.1412 24.2112 45.6423 24.5811 45.8531" fill="#FCC30B"/>
<path d="M27.3175 22.3482C27.6874 22.1374 27.7988 21.6362 27.6238 21.338L25.5755 17.7784C25.4005 17.4801 24.9153 17.3211 24.5455 17.5319C24.1756 17.7426 24.0642 18.2477 24.2392 18.546L26.2874 22.1056C26.4585 22.4038 26.9476 22.5589 27.3175 22.3442" fill="#FCC30B"/>
<path d="M40.8233 45.8374C41.1932 45.6266 41.3045 45.1255 41.1335 44.8272L39.0853 41.2677C38.9103 40.9694 38.4251 40.8103 38.0552 41.0211C37.6854 41.2319 37.574 41.737 37.749 42.0353L39.7972 45.5948C39.9682 45.8931 40.4574 46.0482 40.8273 45.8334" fill="#FCC30B"/>
<path d="M42.0208 26.3175C42.2316 26.6874 42.7327 26.7988 43.031 26.6238L46.5905 24.5755C46.8928 24.4045 47.0479 23.9153 46.8371 23.5455C46.6224 23.1756 46.1212 23.0642 45.8229 23.2392L42.2634 25.2874C41.9651 25.4585 41.81 25.9476 42.0248 26.3175" fill="#FCC30B"/>
<path d="M18.5355 39.8234C18.7462 40.1933 19.2474 40.3046 19.5457 40.1296L23.1052 38.0814C23.4074 37.9104 23.5626 37.4212 23.3518 37.0513C23.141 36.6814 22.6359 36.5701 22.3376 36.7451L18.7781 38.7933C18.4798 38.9643 18.3247 39.4535 18.5394 39.8234" fill="#FCC30B"/>
<path d="M88.488 42.336C86.112 42.336 83.736 41.4 82.008 39.744L84.048 37.296C85.32 38.472 87 39.264 88.56 39.264C90.408 39.264 91.392 38.472 91.392 37.224C91.392 35.904 90.312 35.496 88.728 34.824L86.352 33.816C84.552 33.072 82.752 31.632 82.752 29.04C82.752 26.136 85.296 23.904 88.896 23.904C90.96 23.904 93.024 24.72 94.464 26.184L92.664 28.416C91.536 27.48 90.36 26.952 88.896 26.952C87.336 26.952 86.352 27.648 86.352 28.824C86.352 30.096 87.6 30.552 89.112 31.152L91.44 32.136C93.6 33.024 95.016 34.392 95.016 36.96C95.016 39.864 92.592 42.336 88.488 42.336ZM98.1606 42V24.216H103.033C108.457 24.216 111.817 27.048 111.817 33.048C111.817 39.024 108.457 42 103.225 42H98.1606ZM101.713 39.144H102.817C106.129 39.144 108.193 37.368 108.193 33.048C108.193 28.704 106.129 27.072 102.817 27.072H101.713V39.144ZM122.925 42.336C118.101 42.336 114.405 39.12 114.405 33.192C114.405 27.336 118.197 23.904 122.925 23.904C125.493 23.904 127.269 25.008 128.421 26.184L126.549 28.44C125.661 27.6 124.653 26.952 123.045 26.952C120.093 26.952 118.029 29.256 118.029 33.072C118.029 36.936 119.805 39.264 123.309 39.264C124.149 39.264 125.013 39.024 125.517 38.592V35.088H122.373V32.184H128.685V40.2C127.485 41.376 125.397 42.336 122.925 42.336ZM136.049 42.336C134.249 42.336 132.281 41.544 130.937 40.44L132.545 38.232C133.745 39.168 134.897 39.696 136.145 39.696C137.489 39.696 138.089 39.12 138.089 38.28C138.089 37.272 136.697 36.816 135.281 36.264C133.577 35.616 131.681 34.584 131.681 32.328C131.681 29.928 133.625 28.224 136.697 28.224C138.641 28.224 140.153 29.04 141.257 29.88L139.673 32.016C138.713 31.32 137.777 30.864 136.793 30.864C135.569 30.864 134.993 31.392 134.993 32.16C134.993 33.144 136.241 33.504 137.657 34.032C139.433 34.704 141.401 35.592 141.401 38.088C141.401 40.44 139.553 42.336 136.049 42.336ZM152.097 42C152.409 36.024 153.513 32.256 156.825 27.648H148.833V24.696H160.641V26.856C156.609 31.776 155.961 35.256 155.673 42H152.097Z" fill="#FCC30B"/>
<path d="M180.776 31.56H176.216V35.4H180.776V31.56ZM183.608 38.136H176.216V39.96H173.432V28.848H183.608V38.136ZM192.848 23.28V26.16H190.088V40.464C190.088 42.192 189.68 43.032 188.552 43.512C187.352 43.992 185.576 44.04 183.128 44.04C182.96 43.2 182.384 41.784 181.952 41.016C183.656 41.112 185.744 41.088 186.32 41.088C186.872 41.088 187.088 40.92 187.088 40.416V26.16H171.224V23.28H192.848ZM200.912 36.216V37.608H211.376V36.216H200.912ZM206.6 25.44H202.088C201.608 26.04 201.08 26.616 200.504 27.168H205.256C205.736 26.64 206.192 26.016 206.6 25.44ZM211.376 30.744V29.376H200.912V30.744H211.376ZM211.376 34.152V32.808H200.912V34.152H211.376ZM214.352 39.84H210.344C212.672 40.728 215.312 41.856 216.872 42.648L213.656 44.088C212.336 43.296 209.936 42.12 207.632 41.208L209.744 39.84H202.256L204.704 40.944C202.736 42.24 199.688 43.464 197.288 44.184C196.784 43.608 195.704 42.504 195.056 41.976C197.408 41.496 200.024 40.704 201.68 39.84H198.08V29.28C197.744 29.544 197.384 29.784 197 30.048C196.52 29.376 195.536 28.416 194.888 28.008C197.936 26.232 200.072 23.808 201.248 21.696L204.344 22.272C204.152 22.608 203.936 22.92 203.72 23.256H208.184L208.64 23.136L210.608 24.408C210.104 25.272 209.408 26.256 208.664 27.168H214.352V39.84ZM237.608 40.752H232.52V41.76H237.608V40.752ZM230.024 44.064V39.312H240.224V44.064H237.608V43.248H232.52V44.064H230.024ZM230.264 38.544V37.08H240.032V38.544H230.264ZM240.032 34.848V36.336H230.264V34.848H240.032ZM233.96 25.056H230.672C230.456 25.44 230.192 25.8 229.952 26.16H233.456C233.648 25.824 233.792 25.44 233.96 25.056ZM229.4 28.128V30.072C231.248 29.76 231.848 29.184 232.064 28.128H229.4ZM236.288 32.472H241.016V34.128H229.328V33.912C229.136 37.272 228.56 41.232 226.952 44.064C226.496 43.656 225.416 42.984 224.816 42.768C226.76 39.336 226.952 34.488 226.952 31.176V29.448L226.712 29.64C226.544 29.4 226.304 29.112 226.04 28.848H224.096V32.256L226.016 31.752L226.352 34.296C225.608 34.536 224.84 34.776 224.096 34.992V41.064C224.096 42.384 223.856 43.104 223.136 43.56C222.416 44.016 221.384 44.112 219.824 44.088C219.752 43.392 219.44 42.216 219.104 41.448C219.968 41.496 220.784 41.496 221.072 41.472C221.36 41.472 221.48 41.376 221.48 41.064V35.76L219.2 36.408L218.576 33.696C219.416 33.504 220.376 33.264 221.48 32.976V28.848H218.96V26.208H221.48V21.696H224.096V26.208H226.232V26.784C227.888 25.152 229.016 23.28 229.664 21.648L232.232 22.056C232.064 22.416 231.896 22.8 231.728 23.16H235.088L235.472 23.064L237.248 24.216C236.96 24.816 236.576 25.512 236.168 26.16H240.752V28.128H238.16V29.088C238.16 29.544 238.184 29.76 238.568 29.76H239.456C239.768 29.76 240.464 29.712 240.752 29.616C240.8 30.192 240.824 30.696 240.92 31.272C240.608 31.392 240.008 31.416 239.504 31.416H237.848C236.12 31.416 235.832 30.576 235.832 29.064V28.128H234.44C234.2 30.168 233.288 31.344 230.096 31.872C229.976 31.536 229.712 31.032 229.4 30.624V31.152C229.4 31.56 229.4 32.016 229.376 32.472H233.768C233.624 32.04 233.432 31.584 233.288 31.2L235.496 30.576C235.76 31.128 236.072 31.872 236.288 32.472ZM246.416 39.096H250.232V34.392H246.416V39.096ZM250.232 31.92V28.032H246.416V31.92H250.232ZM257.864 25.368H264.608C264.608 25.368 264.608 26.328 264.584 26.664C264.272 37.392 264.008 41.208 263.024 42.48C262.352 43.368 261.68 43.632 260.72 43.8C259.808 43.92 258.368 43.896 256.952 43.848C256.904 43.056 256.52 41.856 256.016 41.064C257.552 41.208 258.968 41.208 259.592 41.208C260.072 41.208 260.336 41.112 260.648 40.8C261.344 40.032 261.656 36.432 261.92 27.96H256.784C256.16 29.4 255.416 30.72 254.672 31.752C254.288 31.392 253.472 30.84 252.824 30.408V41.616H246.416V43.368H243.824V25.536H246.536C246.848 24.336 247.136 22.8 247.232 21.672L250.352 22.104C249.944 23.304 249.512 24.504 249.104 25.536H252.824V29.424C254.216 27.408 255.368 24.504 256.064 21.696L258.8 22.32C258.536 23.352 258.224 24.36 257.864 25.368ZM260.624 36.312L258.2 37.8C257.528 36.36 256.04 34.008 254.864 32.256L257.096 30.984C258.296 32.64 259.88 34.92 260.624 36.312ZM272.264 28.752L274.928 28.584V27.72H272.696V25.944H274.928V25.08H272.336V23.28H274.928V22.344H277.256V23.28H279.824V25.08H277.256V25.944H279.56V27.72H277.256V28.416L279.848 28.248L279.872 29.928C281.432 28.776 282.008 26.976 282.272 25.104H280.376V23.112H288.512C288.512 23.112 288.512 23.712 288.488 24C288.368 28.152 288.2 29.928 287.672 30.504C287.312 30.984 286.88 31.152 286.328 31.248C285.848 31.32 285.08 31.344 284.288 31.32C284.24 30.648 284.024 29.736 283.688 29.16C284.264 29.232 284.672 29.232 284.912 29.232C285.152 29.232 285.344 29.184 285.488 28.968C285.704 28.68 285.824 27.696 285.92 25.104H284.528C284.216 27.768 283.376 30.168 281.048 31.752C280.736 31.272 280.04 30.504 279.512 30.168L279.656 30.072L277.256 30.312V31.56H274.928V30.528L272.48 30.744L272.264 28.752ZM272.168 24.72L270.416 26.616C269.744 25.728 268.352 24.384 267.248 23.496L268.904 21.816C269.984 22.632 271.472 23.856 272.168 24.72ZM271.928 31.2L270.224 33.24C269.504 32.376 267.968 31.08 266.792 30.216L268.472 28.368C269.576 29.184 271.184 30.36 271.928 31.2ZM269.792 34.704L271.88 36.192C271.16 38.784 270.224 41.52 269.312 43.872L266.96 42.432C267.776 40.56 268.952 37.512 269.792 34.704ZM275.6 38.808L277.616 40.176C276.44 41.352 274.52 42.552 272.912 43.224C272.576 42.768 271.952 42 271.448 41.52C272.984 40.92 274.736 39.744 275.6 38.808ZM285.992 37.896L281.696 38.136V41.688C281.696 42.696 281.528 43.224 280.712 43.56C279.896 43.872 278.864 43.896 277.424 43.896C277.328 43.296 276.968 42.48 276.632 41.904C277.496 41.928 278.384 41.928 278.672 41.904C278.96 41.904 279.008 41.856 279.008 41.64V38.28C275.312 38.496 274.304 38.592 273.608 38.76C273.44 38.448 272.936 37.632 272.6 37.176C273.416 37.128 274.16 36.864 275.264 36.408C275.792 36.216 276.728 35.784 277.856 35.208C275.096 35.4 274.328 35.544 273.776 35.688C273.656 35.352 273.152 34.536 272.792 34.128C273.392 34.056 273.896 33.864 274.568 33.528C275.264 33.24 277.328 32.064 278.744 30.816L281 32.112C280.28 32.592 279.392 33.144 278.432 33.648L280.832 33.576C281.528 33.168 282.2 32.736 282.8 32.28L285.344 33.312C283.616 34.416 281.648 35.472 279.608 36.384L284.648 36.144C284.312 35.784 283.976 35.4 283.664 35.064L285.608 34.152C286.928 35.4 288.368 37.032 288.92 38.04L286.76 39.12C286.592 38.784 286.328 38.352 285.992 37.896ZM282.656 40.152L284.312 38.736C285.776 39.648 287.816 41.016 288.824 41.856L287.072 43.512C286.136 42.6 284.144 41.16 282.656 40.152ZM309.632 21.696L311.528 23.736C307.832 24.768 302.6 25.368 298.136 25.632C298.064 25.008 297.752 24.024 297.464 23.448C301.808 23.16 306.728 22.536 309.632 21.696ZM309.512 28.968L307.184 28.296C307.808 27.336 308.648 25.8 309.056 24.696L311.696 25.392C310.952 26.76 310.16 28.056 309.512 28.968ZM306.152 28.272L303.992 29.064C303.824 28.152 303.272 26.808 302.72 25.776L304.808 25.104C305.408 26.088 305.936 27.384 306.152 28.272ZM297.176 24.456L295.64 26.76C294.824 25.896 293.048 24.72 291.656 24.048L293.048 21.96C294.44 22.536 296.264 23.568 297.176 24.456ZM295.88 30.864L294.464 33.24C293.6 32.4 291.8 31.296 290.36 30.648L291.704 28.488C293.096 29.064 294.944 30.072 295.88 30.864ZM293.216 43.8L291.032 41.88C292.208 40.104 293.864 37.176 295.136 34.416L297.032 36.336C295.88 38.832 294.512 41.496 293.216 43.8ZM308.96 36.432V35.064H305.84V36.432H308.96ZM305.84 31.368V32.64H308.96V31.368H305.84ZM313.064 32.64V35.064H311.432V38.688H305.84V41.112C305.84 42.504 305.576 43.176 304.664 43.584C303.776 43.968 302.456 44.016 300.68 44.016C300.584 43.272 300.248 42.192 299.888 41.472C301.04 41.52 302.312 41.52 302.696 41.496C303.08 41.496 303.176 41.4 303.176 41.064V38.688H298.064V36.432H303.176V35.064H296.864V32.64H303.176V31.368H298.28V29.112H299.336C299.048 28.296 298.52 27.288 297.992 26.496L299.96 25.632C300.632 26.472 301.28 27.624 301.496 28.464L300.176 29.112H311.432V32.64H313.064ZM334.424 32.256H330.776C327.896 32.256 327.128 31.2 327.128 28.536V21.72H329.96V24.552H335.864V27H329.96V28.584C329.96 29.472 330.104 29.808 330.872 29.808H334.376C335.048 29.808 336.056 29.736 336.584 29.616C336.632 30.36 336.752 31.392 336.848 32.04C336.344 32.208 335.336 32.256 334.424 32.256ZM318.92 34.824V35.688C318.92 36.6 318.872 37.68 318.752 38.76C319.832 38.28 321.248 37.56 322.688 36.792V36L321.536 37.128C320.936 36.504 319.832 35.568 318.92 34.824ZM322.688 32.664H318.92V34.368L320.12 33.336C320.936 33.912 321.968 34.752 322.688 35.376V32.664ZM325.376 30.264V41.448C325.376 42.624 325.16 43.224 324.368 43.608C323.6 43.968 322.52 44.016 321.056 44.016C320.936 43.344 320.552 42.408 320.192 41.784C321.056 41.832 321.992 41.832 322.28 41.832C322.592 41.832 322.688 41.736 322.688 41.424V38.976C321.488 39.84 320.288 40.656 319.208 41.352L318.608 39.672C318.344 41.304 317.816 42.936 316.904 44.184C316.496 43.632 315.416 42.6 314.912 42.264C316.184 40.392 316.28 37.752 316.28 35.664V30.264H325.376ZM321.728 24.288L324.032 23.448C325.04 25.176 326.312 27.528 326.888 28.968L324.392 29.976C324.248 29.544 324.032 29.04 323.792 28.464C317.72 29.064 316.736 29.208 316.04 29.496C315.896 28.944 315.44 27.648 315.152 26.928C315.584 26.832 315.992 26.496 316.472 25.968C316.952 25.44 318.416 23.592 319.304 21.696L322.184 22.512C321.368 23.904 320.288 25.296 319.232 26.496L322.736 26.232C322.376 25.536 322.04 24.864 321.728 24.288ZM331.088 41.424H333.8C334.616 41.424 334.784 41.016 334.904 38.808C335.48 39.24 336.632 39.672 337.376 39.84C337.088 42.984 336.344 43.92 334.064 43.92H330.656C327.824 43.92 327.128 43.08 327.128 40.464V32.928H329.96V35.328H336.032V37.848H329.96V40.464C329.96 41.304 330.128 41.424 331.088 41.424ZM345.512 24.168L343.76 26.448C342.92 25.776 341.12 24.648 339.872 23.88L341.504 21.84C342.728 22.512 344.576 23.544 345.512 24.168ZM344.336 30.504L342.632 32.808C341.768 32.136 339.968 31.08 338.744 30.336L340.352 28.296C341.552 28.896 343.4 29.88 344.336 30.504ZM342.392 34.536L344.72 36.096C343.808 38.664 342.704 41.424 341.624 43.8L339.008 42.24C340.016 40.368 341.36 37.344 342.392 34.536ZM349.976 37.152L352.496 37.872C351.752 39.6 350.624 41.592 349.736 42.816C349.208 42.384 348.128 41.76 347.504 41.448C348.416 40.296 349.376 38.64 349.976 37.152ZM352.088 32.808V34.152H357.632V32.808H352.088ZM352.088 29.568V30.888H357.632V29.568H352.088ZM360.272 36.192H356.072V41.376C356.072 42.6 355.88 43.272 355.04 43.656C354.224 44.04 353.096 44.088 351.632 44.064C351.512 43.32 351.2 42.312 350.888 41.616C351.728 41.64 352.688 41.64 352.976 41.64C353.264 41.64 353.36 41.568 353.36 41.304V36.192H349.568V27.528H352.76C353 26.832 353.216 26.112 353.36 25.488H348.728V29.544C348.728 33.792 348.296 40.128 345.44 44.112C344.936 43.656 343.736 42.888 343.04 42.576C345.728 38.88 345.968 33.432 345.968 29.544V22.92H360.944V25.488H353.936L356.6 25.968C356.288 26.496 355.976 27.024 355.688 27.528H360.272V36.192ZM356.744 37.824L359.216 36.888C359.984 38.328 361.04 40.272 361.544 41.448L358.904 42.6C358.472 41.352 357.512 39.336 356.744 37.824Z" fill="#FCC30B"/>
<rect x="1" y="64" width="18" height="18" fill="#FCC30B" stroke="black"/>
<rect x="19" y="64" width="18" height="18" fill="#FCC30B" stroke="black"/>
<rect x="37" y="64" width="18" height="18" fill="#FCC30B" stroke="black"/>
<rect x="55" y="64" width="18" height="18" fill="#FCC30B" stroke="black"/>
<rect x="73" y="64" width="18" height="18" fill="#FCC30B" stroke="black"/>
<rect x="91" y="64" width="18" height="18" fill="#FCC30B" stroke="black"/>
<rect x="109" y="64" width="18" height="18" fill="#FCC30B" stroke="black"/>
<rect x="127" y="64" width="18" height="18" fill="#FCC30B" stroke="black"/>
<rect x="145" y="64" width="18" height="18" fill="#FCC30B" stroke="black"/>
<rect x="163" y="64" width="18" height="18" fill="#FCC30B" stroke="black"/>
<rect x="181" y="64" width="18" height="18" fill="#FCC30B" stroke="black"/>
<rect x="199" y="64" width="18" height="18" fill="#FCC30B" stroke="black"/>
<rect x="217" y="64" width="18" height="18" fill="#FCC30B" stroke="black"/>
<rect x="235" y="64" width="18" height="18" fill="#FCC30B" stroke="black"/>
<rect x="253" y="64" width="18" height="18" fill="#FCC30B" stroke="black"/>
<rect x="271" y="64" width="18" height="18" fill="#FCC30B" stroke="black"/>
<rect x="289" y="64" width="18" height="18" fill="#FCC30B" stroke="black"/>
<rect x="307" y="64" width="18" height="18" fill="#FCC30B" stroke="black"/>
<rect x="325" y="64" width="18" height="18" fill="#FCC30B" stroke="black"/>
<rect x="343" y="64" width="18" height="18" fill="#FCC30B" stroke="black"/>
<path d="M4.54 95.168C3.94 95.168 3.412 94.996 2.956 94.652C2.508 94.3 2.156 93.78 1.9 93.092C1.652 92.396 1.528 91.536 1.528 90.512C1.528 89.496 1.652 88.652 1.9 87.98C2.156 87.3 2.508 86.792 2.956 86.456C3.412 86.12 3.94 85.952 4.54 85.952C5.148 85.952 5.676 86.124 6.124 86.468C6.572 86.804 6.92 87.308 7.168 87.98C7.424 88.652 7.552 89.496 7.552 90.512C7.552 91.536 7.424 92.396 7.168 93.092C6.92 93.78 6.572 94.3 6.124 94.652C5.676 94.996 5.148 95.168 4.54 95.168ZM4.54 93.788C4.804 93.788 5.036 93.688 5.236 93.488C5.436 93.288 5.592 92.952 5.704 92.48C5.816 92 5.872 91.344 5.872 90.512C5.872 89.688 5.816 89.044 5.704 88.58C5.592 88.108 5.436 87.78 5.236 87.596C5.036 87.404 4.804 87.308 4.54 87.308C4.292 87.308 4.064 87.404 3.856 87.596C3.656 87.78 3.496 88.108 3.376 88.58C3.256 89.044 3.196 89.688 3.196 90.512C3.196 91.344 3.256 92 3.376 92.48C3.496 92.952 3.656 93.288 3.856 93.488C4.064 93.688 4.292 93.788 4.54 93.788Z" fill="#FCC30B"/>
<path d="M82.984 95V93.56H84.904V87.956H83.284V86.852C83.732 86.772 84.116 86.676 84.436 86.564C84.764 86.444 85.068 86.292 85.348 86.108H86.656V93.56H88.324V95H82.984ZM92.6181 95.168C92.0181 95.168 91.4901 94.996 91.0341 94.652C90.5861 94.3 90.2341 93.78 89.9781 93.092C89.7301 92.396 89.6061 91.536 89.6061 90.512C89.6061 89.496 89.7301 88.652 89.9781 87.98C90.2341 87.3 90.5861 86.792 91.0341 86.456C91.4901 86.12 92.0181 85.952 92.6181 85.952C93.2261 85.952 93.7541 86.124 94.2021 86.468C94.6501 86.804 94.9981 87.308 95.2461 87.98C95.5021 88.652 95.6301 89.496 95.6301 90.512C95.6301 91.536 95.5021 92.396 95.2461 93.092C94.9981 93.78 94.6501 94.3 94.2021 94.652C93.7541 94.996 93.2261 95.168 92.6181 95.168ZM92.6181 93.788C92.8821 93.788 93.1141 93.688 93.3141 93.488C93.5141 93.288 93.6701 92.952 93.7821 92.48C93.8941 92 93.9501 91.344 93.9501 90.512C93.9501 89.688 93.8941 89.044 93.7821 88.58C93.6701 88.108 93.5141 87.78 93.3141 87.596C93.1141 87.404 92.8821 87.308 92.6181 87.308C92.3701 87.308 92.1421 87.404 91.9341 87.596C91.7341 87.78 91.5741 88.108 91.4541 88.58C91.3341 89.044 91.2741 89.688 91.2741 90.512C91.2741 91.344 91.3341 92 91.4541 92.48C91.5741 92.952 91.7341 93.288 91.9341 93.488C92.1421 93.688 92.3701 93.788 92.6181 93.788Z" fill="#FCC30B"/>
<path d="M170.516 95V93.98C171.324 93.26 172.012 92.592 172.58 91.976C173.156 91.36 173.596 90.788 173.9 90.26C174.204 89.724 174.356 89.228 174.356 88.772C174.356 88.484 174.304 88.232 174.2 88.016C174.096 87.8 173.944 87.636 173.744 87.524C173.552 87.404 173.312 87.344 173.024 87.344C172.704 87.344 172.408 87.436 172.136 87.62C171.872 87.796 171.628 88.008 171.404 88.256L170.42 87.308C170.836 86.86 171.26 86.524 171.692 86.3C172.132 86.068 172.652 85.952 173.252 85.952C173.812 85.952 174.3 86.068 174.716 86.3C175.14 86.524 175.468 86.84 175.7 87.248C175.932 87.656 176.048 88.136 176.048 88.688C176.048 89.224 175.912 89.772 175.64 90.332C175.376 90.884 175.02 91.436 174.572 91.988C174.124 92.54 173.628 93.084 173.084 93.62C173.316 93.588 173.564 93.564 173.828 93.548C174.1 93.524 174.34 93.512 174.548 93.512H176.468V95H170.516ZM180.618 95.168C180.018 95.168 179.49 94.996 179.034 94.652C178.586 94.3 178.234 93.78 177.978 93.092C177.73 92.396 177.606 91.536 177.606 90.512C177.606 89.496 177.73 88.652 177.978 87.98C178.234 87.3 178.586 86.792 179.034 86.456C179.49 86.12 180.018 85.952 180.618 85.952C181.226 85.952 181.754 86.124 182.202 86.468C182.65 86.804 182.998 87.308 183.246 87.98C183.502 88.652 183.63 89.496 183.63 90.512C183.63 91.536 183.502 92.396 183.246 93.092C182.998 93.78 182.65 94.3 182.202 94.652C181.754 94.996 181.226 95.168 180.618 95.168ZM180.618 93.788C180.882 93.788 181.114 93.688 181.314 93.488C181.514 93.288 181.67 92.952 181.782 92.48C181.894 92 181.95 91.344 181.95 90.512C181.95 89.688 181.894 89.044 181.782 88.58C181.67 88.108 181.514 87.78 181.314 87.596C181.114 87.404 180.882 87.308 180.618 87.308C180.37 87.308 180.142 87.404 179.934 87.596C179.734 87.78 179.574 88.108 179.454 88.58C179.334 89.044 179.274 89.688 179.274 90.512C179.274 91.344 179.334 92 179.454 92.48C179.574 92.952 179.734 93.288 179.934 93.488C180.142 93.688 180.37 93.788 180.618 93.788Z" fill="#FCC30B"/>
<path d="M261.276 95.168C260.812 95.168 260.396 95.112 260.028 95C259.66 94.896 259.332 94.752 259.044 94.568C258.764 94.376 258.52 94.164 258.312 93.932L259.14 92.816C259.412 93.064 259.708 93.28 260.028 93.464C260.356 93.64 260.72 93.728 261.12 93.728C261.424 93.728 261.688 93.68 261.912 93.584C262.144 93.488 262.32 93.348 262.44 93.164C262.568 92.98 262.632 92.756 262.632 92.492C262.632 92.196 262.56 91.944 262.416 91.736C262.28 91.52 262.036 91.356 261.684 91.244C261.332 91.132 260.836 91.076 260.196 91.076V89.804C260.74 89.804 261.168 89.748 261.48 89.636C261.792 89.516 262.012 89.356 262.14 89.156C262.276 88.948 262.344 88.712 262.344 88.448C262.344 88.104 262.24 87.836 262.032 87.644C261.824 87.444 261.532 87.344 261.156 87.344C260.844 87.344 260.552 87.416 260.28 87.56C260.016 87.696 259.752 87.884 259.488 88.124L258.576 87.032C258.968 86.704 259.38 86.444 259.812 86.252C260.244 86.052 260.72 85.952 261.24 85.952C261.808 85.952 262.308 86.044 262.74 86.228C263.18 86.412 263.52 86.68 263.76 87.032C264 87.384 264.12 87.812 264.12 88.316C264.12 88.796 263.992 89.208 263.736 89.552C263.48 89.896 263.116 90.16 262.644 90.344V90.404C262.972 90.492 263.268 90.636 263.532 90.836C263.804 91.028 264.016 91.272 264.168 91.568C264.328 91.864 264.408 92.208 264.408 92.6C264.408 93.136 264.264 93.596 263.976 93.98C263.696 94.364 263.316 94.66 262.836 94.868C262.364 95.068 261.844 95.168 261.276 95.168ZM268.618 95.168C268.018 95.168 267.49 94.996 267.034 94.652C266.586 94.3 266.234 93.78 265.978 93.092C265.73 92.396 265.606 91.536 265.606 90.512C265.606 89.496 265.73 88.652 265.978 87.98C266.234 87.3 266.586 86.792 267.034 86.456C267.49 86.12 268.018 85.952 268.618 85.952C269.226 85.952 269.754 86.124 270.202 86.468C270.65 86.804 270.998 87.308 271.246 87.98C271.502 88.652 271.63 89.496 271.63 90.512C271.63 91.536 271.502 92.396 271.246 93.092C270.998 93.78 270.65 94.3 270.202 94.652C269.754 94.996 269.226 95.168 268.618 95.168ZM268.618 93.788C268.882 93.788 269.114 93.688 269.314 93.488C269.514 93.288 269.67 92.952 269.782 92.48C269.894 92 269.95 91.344 269.95 90.512C269.95 89.688 269.894 89.044 269.782 88.58C269.67 88.108 269.514 87.78 269.314 87.596C269.114 87.404 268.882 87.308 268.618 87.308C268.37 87.308 268.142 87.404 267.934 87.596C267.734 87.78 267.574 88.108 267.454 88.58C267.334 89.044 267.274 89.688 267.274 90.512C267.274 91.344 267.334 92 267.454 92.48C267.574 92.952 267.734 93.288 267.934 93.488C268.142 93.688 268.37 93.788 268.618 93.788Z" fill="#FCC30B"/>
<path d="M350.044 95V89.54C350.044 89.284 350.052 88.98 350.068 88.628C350.084 88.268 350.1 87.956 350.116 87.692H350.056C349.952 87.932 349.84 88.172 349.72 88.412C349.6 88.652 349.476 88.896 349.348 89.144L347.968 91.352H352.744V92.696H346.252V91.496L349.564 86.108H351.688V95H350.044ZM356.618 95.168C356.018 95.168 355.49 94.996 355.034 94.652C354.586 94.3 354.234 93.78 353.978 93.092C353.73 92.396 353.606 91.536 353.606 90.512C353.606 89.496 353.73 88.652 353.978 87.98C354.234 87.3 354.586 86.792 355.034 86.456C355.49 86.12 356.018 85.952 356.618 85.952C357.226 85.952 357.754 86.124 358.202 86.468C358.65 86.804 358.998 87.308 359.246 87.98C359.502 88.652 359.63 89.496 359.63 90.512C359.63 91.536 359.502 92.396 359.246 93.092C358.998 93.78 358.65 94.3 358.202 94.652C357.754 94.996 357.226 95.168 356.618 95.168ZM356.618 93.788C356.882 93.788 357.114 93.688 357.314 93.488C357.514 93.288 357.67 92.952 357.782 92.48C357.894 92 357.95 91.344 357.95 90.512C357.95 89.688 357.894 89.044 357.782 88.58C357.67 88.108 357.514 87.78 357.314 87.596C357.114 87.404 356.882 87.308 356.618 87.308C356.37 87.308 356.142 87.404 355.934 87.596C355.734 87.78 355.574 88.108 355.454 88.58C355.334 89.044 355.274 89.688 355.274 90.512C355.274 91.344 355.334 92 355.454 92.48C355.574 92.952 355.734 93.288 355.934 93.488C356.142 93.688 356.37 93.788 356.618 93.788Z" fill="#FCC30B"/>
</svg>
