<svg width="362" height="98" viewBox="0 0 362 98" fill="none" xmlns="http://www.w3.org/2000/svg">
<path d="M39.1475 34.0771H27.2718C27.2002 34.0771 27.1445 34.1408 27.1445 34.2203V37.7876C27.1445 37.8671 27.2042 37.9308 27.2718 37.9308H39.1475C39.2191 37.9308 39.2788 37.8671 39.2788 37.7876V34.2203C39.2788 34.1408 39.2191 34.0771 39.1475 34.0771Z" fill="#DD1367"/>
<path d="M39.1475 26.4814H27.2718C27.2002 26.4814 27.1445 26.5451 27.1445 26.6246V30.1919C27.1445 30.2714 27.2042 30.335 27.2718 30.335H39.1475C39.2191 30.335 39.2788 30.2714 39.2788 30.1919V26.6246C39.2788 26.5451 39.2191 26.4814 39.1475 26.4814Z" fill="#DD1367"/>
<path d="M38.9798 21.0891L33.2806 15.3902C33.2408 15.3504 33.1812 15.3504 33.1414 15.3902L27.4422 21.0891C27.3785 21.1527 27.4223 21.2561 27.5138 21.2561H38.9162C39.0037 21.2561 39.0474 21.1487 38.9878 21.0891H38.9798Z" fill="#DD1367"/>
<path d="M44.3291 37.9791L50.0284 32.2802C50.0681 32.2405 50.0681 32.1808 50.0284 32.141L44.3291 26.4422C44.2655 26.3785 44.1621 26.4223 44.1621 26.5138V37.9155C44.1621 38.003 44.2695 38.0467 44.3291 37.9871V37.9791Z" fill="#DD1367"/>
<path d="M27.4387 43.3282L33.138 49.027C33.1777 49.0668 33.2374 49.0668 33.2772 49.027L38.9764 43.3282C39.04 43.2645 38.9963 43.1611 38.9048 43.1611H27.5024C27.4149 43.1611 27.3711 43.2685 27.4308 43.3282H27.4387Z" fill="#DD1367"/>
<path d="M22.0894 26.4378L16.3902 32.1366C16.3504 32.1764 16.3504 32.2361 16.3902 32.2758L22.0894 37.9747C22.153 38.0383 22.2564 37.9946 22.2564 37.9031V26.5014C22.2564 26.4139 22.1491 26.3701 22.0894 26.4298V26.4378Z" fill="#DD1367"/>
<path d="M88.488 42.336C86.112 42.336 83.736 41.4 82.008 39.744L84.048 37.296C85.32 38.472 87 39.264 88.56 39.264C90.408 39.264 91.392 38.472 91.392 37.224C91.392 35.904 90.312 35.496 88.728 34.824L86.352 33.816C84.552 33.072 82.752 31.632 82.752 29.04C82.752 26.136 85.296 23.904 88.896 23.904C90.96 23.904 93.024 24.72 94.464 26.184L92.664 28.416C91.536 27.48 90.36 26.952 88.896 26.952C87.336 26.952 86.352 27.648 86.352 28.824C86.352 30.096 87.6 30.552 89.112 31.152L91.44 32.136C93.6 33.024 95.016 34.392 95.016 36.96C95.016 39.864 92.592 42.336 88.488 42.336ZM98.1606 42V24.216H103.033C108.457 24.216 111.817 27.048 111.817 33.048C111.817 39.024 108.457 42 103.225 42H98.1606ZM101.713 39.144H102.817C106.129 39.144 108.193 37.368 108.193 33.048C108.193 28.704 106.129 27.072 102.817 27.072H101.713V39.144ZM122.925 42.336C118.101 42.336 114.405 39.12 114.405 33.192C114.405 27.336 118.197 23.904 122.925 23.904C125.493 23.904 127.269 25.008 128.421 26.184L126.549 28.44C125.661 27.6 124.653 26.952 123.045 26.952C120.093 26.952 118.029 29.256 118.029 33.072C118.029 36.936 119.805 39.264 123.309 39.264C124.149 39.264 125.013 39.024 125.517 38.592V35.088H122.373V32.184H128.685V40.2C127.485 41.376 125.397 42.336 122.925 42.336ZM136.049 42.336C134.249 42.336 132.281 41.544 130.937 40.44L132.545 38.232C133.745 39.168 134.897 39.696 136.145 39.696C137.489 39.696 138.089 39.12 138.089 38.28C138.089 37.272 136.697 36.816 135.281 36.264C133.577 35.616 131.681 34.584 131.681 32.328C131.681 29.928 133.625 28.224 136.697 28.224C138.641 28.224 140.153 29.04 141.257 29.88L139.673 32.016C138.713 31.32 137.777 30.864 136.793 30.864C135.569 30.864 134.993 31.392 134.993 32.16C134.993 33.144 136.241 33.504 137.657 34.032C139.433 34.704 141.401 35.592 141.401 38.088C141.401 40.44 139.553 42.336 136.049 42.336ZM149.601 42V39.144H153.417V28.368H150.201V26.184C151.977 25.848 153.201 25.392 154.329 24.696H156.945V39.144H160.281V42H149.601ZM168.846 42.336C165.198 42.336 162.822 39.144 162.822 33.264C162.822 27.408 165.198 24.36 168.846 24.36C172.494 24.36 174.846 27.432 174.846 33.264C174.846 39.144 172.494 42.336 168.846 42.336ZM168.846 39.576C170.382 39.576 171.51 38.088 171.51 33.264C171.51 28.464 170.382 27.12 168.846 27.12C167.31 27.12 166.158 28.464 166.158 33.264C166.158 38.088 167.31 39.576 168.846 39.576Z" fill="#DD1367"/>
<path d="M204.136 22.224L206.92 23.208C206.152 24.888 205.24 26.592 204.52 27.72L202.048 26.808C202.744 25.584 203.656 23.664 204.136 22.224ZM197.008 26.712L194.416 27.888C194.128 26.712 193.192 24.84 192.256 23.448L194.656 22.392C195.616 23.712 196.648 25.464 197.008 26.712ZM192.064 24.576L190.336 26.856C189.4 26.088 187.408 24.864 186.04 24.048L187.72 22.032C189.04 22.752 191.056 23.88 192.064 24.576ZM190.696 30.864L189.112 33.24C188.128 32.544 186.064 31.416 184.624 30.648L186.184 28.536C187.504 29.184 189.64 30.216 190.696 30.864ZM190 34.32L192.112 36.24C190.84 38.736 189.328 41.472 187.888 43.8L185.464 41.88C186.76 40.08 188.584 37.104 190 34.32ZM206.032 28.368V40.992C206.032 42.384 205.792 43.104 204.88 43.56C203.992 43.992 202.696 44.04 200.896 44.04C200.8 43.272 200.416 42.096 200.032 41.352C201.136 41.424 202.384 41.424 202.768 41.4C203.128 41.376 203.248 41.28 203.248 40.968V37.68C200.848 38.328 198.352 38.952 196.36 39.456L195.52 37.104C197.512 36.72 200.416 36.072 203.248 35.4V30.96H195.52V35.76C195.52 38.448 195.328 42.048 194.008 44.256C193.528 43.8 192.352 42.984 191.728 42.696C192.832 40.752 192.904 38.016 192.904 35.76V28.368H198.088V21.672H200.968V28.368H206.032ZM195.856 33.528L197.008 31.8C198.808 32.208 201.16 33.024 202.384 33.72L201.16 35.664C199.984 34.944 197.656 34.008 195.856 33.528ZM212.008 33.168H216.664C216.664 33.168 216.664 33.912 216.616 34.272C216.328 39.864 216.04 42.168 215.344 42.96C214.84 43.608 214.288 43.824 213.52 43.92C212.896 44.016 211.744 44.016 210.592 43.968C210.544 43.176 210.232 42.096 209.8 41.376C210.832 41.472 211.792 41.496 212.248 41.496C212.608 41.496 212.848 41.448 213.064 41.208C213.448 40.776 213.688 39.264 213.88 35.616H209.392C209.608 33.504 209.728 30.216 209.704 27.6H213.88V24.744H209.416V22.2H216.592V30.144H212.104C212.08 31.176 212.056 32.208 212.008 33.168ZM221.704 37.2H226.552V34.896H221.704V37.2ZM226.552 25.392H221.704V27.576H226.552V25.392ZM221.704 30.024V32.448H226.552V30.024H221.704ZM231.184 37.2V39.936H229.312V44.136H226.552V39.936H217.168V37.2H218.968V25.392H217.48V22.656H230.848V25.392H229.312V37.2H231.184ZM245.56 30.912L247.336 29.424C249.904 31.272 253.6 34.032 255.328 35.928L252.904 38.112C251.416 36.336 248.152 33.6 245.56 31.608V44.04H242.44V32.328C240.256 34.656 237.688 36.744 234.808 38.232C234.352 37.464 233.464 36.288 232.84 35.64C237.208 33.6 240.952 29.88 243.184 26.208H233.608V23.28H254.416V26.208H246.952C246.544 26.952 246.064 27.696 245.56 28.416V30.912ZM278.92 33.264V36.144H269.488V44.088H266.512V36.144H257.176V33.264H266.512V25.992H258.424V23.16H277.528V25.992H269.488V33.264H278.92ZM259.888 27.528L262.504 26.76C263.296 28.296 264.16 30.312 264.424 31.656L261.64 32.52C261.4 31.224 260.656 29.136 259.888 27.528ZM273.904 32.472L271.408 31.752C272.176 30.36 273.04 28.248 273.496 26.688L276.544 27.456C275.68 29.304 274.72 31.248 273.904 32.472ZM298.168 35.04V36.216H302.704V38.544H298.168V41.496C298.168 42.864 297.856 43.44 296.824 43.752C295.816 44.064 294.352 44.064 292.36 44.064C292.264 43.344 291.976 42.456 291.664 41.76C292.84 41.832 294.352 41.832 294.712 41.808C295.072 41.808 295.216 41.712 295.216 41.376V38.544H287.752C288.88 39.48 290.2 40.656 290.92 41.448L288.808 43.104C288.04 42.168 286.408 40.632 285.16 39.528L286.552 38.544H281.32V36.216H295.216V35.04H298.168ZM293.464 28.608H298.144C297.64 27.936 296.824 27.072 296.2 26.424L297.184 25.608H295.36C294.784 26.688 294.136 27.624 293.464 28.368V28.608ZM296.512 23.184H303.088V25.608H298.744C299.368 26.184 299.968 26.832 300.304 27.288L298.792 28.608H301.984V31.032H293.464V32.424H300.496V34.584H283.384V32.424H290.488V31.032H282.064V28.608H288.016C287.488 27.96 286.552 27.024 285.76 26.352L286.6 25.608H284.896C284.176 26.616 283.408 27.504 282.64 28.2C282.232 27.696 281.296 26.712 280.744 26.256C282.184 25.08 283.576 23.256 284.344 21.456L286.864 22.2C286.72 22.536 286.552 22.848 286.408 23.184H291.712V25.608H288.376C288.976 26.112 289.552 26.664 289.888 27.096L288.232 28.608H290.488V27.432H292.24C291.904 27.168 291.544 26.928 291.28 26.76C292.576 25.488 293.68 23.472 294.28 21.456L296.872 22.08C296.752 22.44 296.656 22.824 296.512 23.184Z" fill="#DD1367"/>
<rect x="1" y="64" width="18" height="18" fill="#DD1367" stroke="black"/>
<rect x="19" y="64" width="18" height="18" fill="#DD1367" stroke="black"/>
<rect x="37" y="64" width="18" height="18" fill="#DD1367" stroke="black"/>
<rect x="55" y="64" width="18" height="18" fill="#DD1367" stroke="black"/>
<rect x="73" y="64" width="18" height="18" fill="#DD1367" stroke="black"/>
<rect x="91" y="64" width="18" height="18" fill="#DD1367" stroke="black"/>
<rect x="109" y="64" width="18" height="18" fill="#DD1367" fill-opacity="0.3" stroke="black"/>
<rect x="127" y="64" width="18" height="18" fill="#DD1367" fill-opacity="0.3" stroke="black"/>
<rect x="145" y="64" width="18" height="18" fill="#DD1367" fill-opacity="0.3" stroke="black"/>
<rect x="163" y="64" width="18" height="18" fill="#DD1367" fill-opacity="0.3" stroke="black"/>
<rect x="181" y="64" width="18" height="18" fill="#DD1367" fill-opacity="0.3" stroke="black"/>
<rect x="199" y="64" width="18" height="18" fill="#DD1367" fill-opacity="0.3" stroke="black"/>
<rect x="217" y="64" width="18" height="18" fill="#DD1367" fill-opacity="0.3" stroke="black"/>
<rect x="235" y="64" width="18" height="18" fill="#DD1367" fill-opacity="0.3" stroke="black"/>
<rect x="253" y="64" width="18" height="18" fill="#DD1367" fill-opacity="0.3" stroke="black"/>
<rect x="271" y="64" width="18" height="18" fill="#DD1367" fill-opacity="0.3" stroke="black"/>
<rect x="289" y="64" width="18" height="18" fill="#DD1367" fill-opacity="0.3" stroke="black"/>
<rect x="307" y="64" width="18" height="18" fill="#DD1367" fill-opacity="0.3" stroke="black"/>
<rect x="325" y="64" width="18" height="18" fill="#DD1367" fill-opacity="0.3" stroke="black"/>
<rect x="343" y="64" width="18" height="18" fill="#DD1367" fill-opacity="0.3" stroke="black"/>
<path d="M4.54 95.168C3.94 95.168 3.412 94.996 2.956 94.652C2.508 94.3 2.156 93.78 1.9 93.092C1.652 92.396 1.528 91.536 1.528 90.512C1.528 89.496 1.652 88.652 1.9 87.98C2.156 87.3 2.508 86.792 2.956 86.456C3.412 86.12 3.94 85.952 4.54 85.952C5.148 85.952 5.676 86.124 6.124 86.468C6.572 86.804 6.92 87.308 7.168 87.98C7.424 88.652 7.552 89.496 7.552 90.512C7.552 91.536 7.424 92.396 7.168 93.092C6.92 93.78 6.572 94.3 6.124 94.652C5.676 94.996 5.148 95.168 4.54 95.168ZM4.54 93.788C4.804 93.788 5.036 93.688 5.236 93.488C5.436 93.288 5.592 92.952 5.704 92.48C5.816 92 5.872 91.344 5.872 90.512C5.872 89.688 5.816 89.044 5.704 88.58C5.592 88.108 5.436 87.78 5.236 87.596C5.036 87.404 4.804 87.308 4.54 87.308C4.292 87.308 4.064 87.404 3.856 87.596C3.656 87.78 3.496 88.108 3.376 88.58C3.256 89.044 3.196 89.688 3.196 90.512C3.196 91.344 3.256 92 3.376 92.48C3.496 92.952 3.656 93.288 3.856 93.488C4.064 93.688 4.292 93.788 4.54 93.788Z" fill="#DD1367"/>
<path d="M82.984 95V93.56H84.904V87.956H83.284V86.852C83.732 86.772 84.116 86.676 84.436 86.564C84.764 86.444 85.068 86.292 85.348 86.108H86.656V93.56H88.324V95H82.984ZM92.6181 95.168C92.0181 95.168 91.4901 94.996 91.0341 94.652C90.5861 94.3 90.2341 93.78 89.9781 93.092C89.7301 92.396 89.6061 91.536 89.6061 90.512C89.6061 89.496 89.7301 88.652 89.9781 87.98C90.2341 87.3 90.5861 86.792 91.0341 86.456C91.4901 86.12 92.0181 85.952 92.6181 85.952C93.2261 85.952 93.7541 86.124 94.2021 86.468C94.6501 86.804 94.9981 87.308 95.2461 87.98C95.5021 88.652 95.6301 89.496 95.6301 90.512C95.6301 91.536 95.5021 92.396 95.2461 93.092C94.9981 93.78 94.6501 94.3 94.2021 94.652C93.7541 94.996 93.2261 95.168 92.6181 95.168ZM92.6181 93.788C92.8821 93.788 93.1141 93.688 93.3141 93.488C93.5141 93.288 93.6701 92.952 93.7821 92.48C93.8941 92 93.9501 91.344 93.9501 90.512C93.9501 89.688 93.8941 89.044 93.7821 88.58C93.6701 88.108 93.5141 87.78 93.3141 87.596C93.1141 87.404 92.8821 87.308 92.6181 87.308C92.3701 87.308 92.1421 87.404 91.9341 87.596C91.7341 87.78 91.5741 88.108 91.4541 88.58C91.3341 89.044 91.2741 89.688 91.2741 90.512C91.2741 91.344 91.3341 92 91.4541 92.48C91.5741 92.952 91.7341 93.288 91.9341 93.488C92.1421 93.688 92.3701 93.788 92.6181 93.788Z" fill="#DD1367"/>
<path d="M170.516 95V93.98C171.324 93.26 172.012 92.592 172.58 91.976C173.156 91.36 173.596 90.788 173.9 90.26C174.204 89.724 174.356 89.228 174.356 88.772C174.356 88.484 174.304 88.232 174.2 88.016C174.096 87.8 173.944 87.636 173.744 87.524C173.552 87.404 173.312 87.344 173.024 87.344C172.704 87.344 172.408 87.436 172.136 87.62C171.872 87.796 171.628 88.008 171.404 88.256L170.42 87.308C170.836 86.86 171.26 86.524 171.692 86.3C172.132 86.068 172.652 85.952 173.252 85.952C173.812 85.952 174.3 86.068 174.716 86.3C175.14 86.524 175.468 86.84 175.7 87.248C175.932 87.656 176.048 88.136 176.048 88.688C176.048 89.224 175.912 89.772 175.64 90.332C175.376 90.884 175.02 91.436 174.572 91.988C174.124 92.54 173.628 93.084 173.084 93.62C173.316 93.588 173.564 93.564 173.828 93.548C174.1 93.524 174.34 93.512 174.548 93.512H176.468V95H170.516ZM180.618 95.168C180.018 95.168 179.49 94.996 179.034 94.652C178.586 94.3 178.234 93.78 177.978 93.092C177.73 92.396 177.606 91.536 177.606 90.512C177.606 89.496 177.73 88.652 177.978 87.98C178.234 87.3 178.586 86.792 179.034 86.456C179.49 86.12 180.018 85.952 180.618 85.952C181.226 85.952 181.754 86.124 182.202 86.468C182.65 86.804 182.998 87.308 183.246 87.98C183.502 88.652 183.63 89.496 183.63 90.512C183.63 91.536 183.502 92.396 183.246 93.092C182.998 93.78 182.65 94.3 182.202 94.652C181.754 94.996 181.226 95.168 180.618 95.168ZM180.618 93.788C180.882 93.788 181.114 93.688 181.314 93.488C181.514 93.288 181.67 92.952 181.782 92.48C181.894 92 181.95 91.344 181.95 90.512C181.95 89.688 181.894 89.044 181.782 88.58C181.67 88.108 181.514 87.78 181.314 87.596C181.114 87.404 180.882 87.308 180.618 87.308C180.37 87.308 180.142 87.404 179.934 87.596C179.734 87.78 179.574 88.108 179.454 88.58C179.334 89.044 179.274 89.688 179.274 90.512C179.274 91.344 179.334 92 179.454 92.48C179.574 92.952 179.734 93.288 179.934 93.488C180.142 93.688 180.37 93.788 180.618 93.788Z" fill="#DD1367"/>
<path d="M261.276 95.168C260.812 95.168 260.396 95.112 260.028 95C259.66 94.896 259.332 94.752 259.044 94.568C258.764 94.376 258.52 94.164 258.312 93.932L259.14 92.816C259.412 93.064 259.708 93.28 260.028 93.464C260.356 93.64 260.72 93.728 261.12 93.728C261.424 93.728 261.688 93.68 261.912 93.584C262.144 93.488 262.32 93.348 262.44 93.164C262.568 92.98 262.632 92.756 262.632 92.492C262.632 92.196 262.56 91.944 262.416 91.736C262.28 91.52 262.036 91.356 261.684 91.244C261.332 91.132 260.836 91.076 260.196 91.076V89.804C260.74 89.804 261.168 89.748 261.48 89.636C261.792 89.516 262.012 89.356 262.14 89.156C262.276 88.948 262.344 88.712 262.344 88.448C262.344 88.104 262.24 87.836 262.032 87.644C261.824 87.444 261.532 87.344 261.156 87.344C260.844 87.344 260.552 87.416 260.28 87.56C260.016 87.696 259.752 87.884 259.488 88.124L258.576 87.032C258.968 86.704 259.38 86.444 259.812 86.252C260.244 86.052 260.72 85.952 261.24 85.952C261.808 85.952 262.308 86.044 262.74 86.228C263.18 86.412 263.52 86.68 263.76 87.032C264 87.384 264.12 87.812 264.12 88.316C264.12 88.796 263.992 89.208 263.736 89.552C263.48 89.896 263.116 90.16 262.644 90.344V90.404C262.972 90.492 263.268 90.636 263.532 90.836C263.804 91.028 264.016 91.272 264.168 91.568C264.328 91.864 264.408 92.208 264.408 92.6C264.408 93.136 264.264 93.596 263.976 93.98C263.696 94.364 263.316 94.66 262.836 94.868C262.364 95.068 261.844 95.168 261.276 95.168ZM268.618 95.168C268.018 95.168 267.49 94.996 267.034 94.652C266.586 94.3 266.234 93.78 265.978 93.092C265.73 92.396 265.606 91.536 265.606 90.512C265.606 89.496 265.73 88.652 265.978 87.98C266.234 87.3 266.586 86.792 267.034 86.456C267.49 86.12 268.018 85.952 268.618 85.952C269.226 85.952 269.754 86.124 270.202 86.468C270.65 86.804 270.998 87.308 271.246 87.98C271.502 88.652 271.63 89.496 271.63 90.512C271.63 91.536 271.502 92.396 271.246 93.092C270.998 93.78 270.65 94.3 270.202 94.652C269.754 94.996 269.226 95.168 268.618 95.168ZM268.618 93.788C268.882 93.788 269.114 93.688 269.314 93.488C269.514 93.288 269.67 92.952 269.782 92.48C269.894 92 269.95 91.344 269.95 90.512C269.95 89.688 269.894 89.044 269.782 88.58C269.67 88.108 269.514 87.78 269.314 87.596C269.114 87.404 268.882 87.308 268.618 87.308C268.37 87.308 268.142 87.404 267.934 87.596C267.734 87.78 267.574 88.108 267.454 88.58C267.334 89.044 267.274 89.688 267.274 90.512C267.274 91.344 267.334 92 267.454 92.48C267.574 92.952 267.734 93.288 267.934 93.488C268.142 93.688 268.37 93.788 268.618 93.788Z" fill="#DD1367"/>
<path d="M350.044 95V89.54C350.044 89.284 350.052 88.98 350.068 88.628C350.084 88.268 350.1 87.956 350.116 87.692H350.056C349.952 87.932 349.84 88.172 349.72 88.412C349.6 88.652 349.476 88.896 349.348 89.144L347.968 91.352H352.744V92.696H346.252V91.496L349.564 86.108H351.688V95H350.044ZM356.618 95.168C356.018 95.168 355.49 94.996 355.034 94.652C354.586 94.3 354.234 93.78 353.978 93.092C353.73 92.396 353.606 91.536 353.606 90.512C353.606 89.496 353.73 88.652 353.978 87.98C354.234 87.3 354.586 86.792 355.034 86.456C355.49 86.12 356.018 85.952 356.618 85.952C357.226 85.952 357.754 86.124 358.202 86.468C358.65 86.804 358.998 87.308 359.246 87.98C359.502 88.652 359.63 89.496 359.63 90.512C359.63 91.536 359.502 92.396 359.246 93.092C358.998 93.78 358.65 94.3 358.202 94.652C357.754 94.996 357.226 95.168 356.618 95.168ZM356.618 93.788C356.882 93.788 357.114 93.688 357.314 93.488C357.514 93.288 357.67 92.952 357.782 92.48C357.894 92 357.95 91.344 357.95 90.512C357.95 89.688 357.894 89.044 357.782 88.58C357.67 88.108 357.514 87.78 357.314 87.596C357.114 87.404 356.882 87.308 356.618 87.308C356.37 87.308 356.142 87.404 355.934 87.596C355.734 87.78 355.574 88.108 355.454 88.58C355.334 89.044 355.274 89.688 355.274 90.512C355.274 91.344 355.334 92 355.454 92.48C355.574 92.952 355.734 93.288 355.934 93.488C356.142 93.688 356.37 93.788 356.618 93.788Z" fill="#DD1367"/>
</svg>
