<svg xmlns="http://www.w3.org/2000/svg" width="362" height="98" fill="none"><path fill="#A21942" d="m45.449 23.695-6.507 6.188c-.246.243-.37.426-.37.93v17.344c0 .203.167.37.37.37h6.721c.203 0 .37-.167.37-.37V23.854c0-.203-.159-.576-.584-.155M26.705 31.756l-6.507 6.188c-.247.247-.37.426-.37.927v9.282c0 .203.167.37.37.37h6.721a.37.37 0 0 0 .37-.37V31.912c0-.207-.163-.581-.584-.156"/><path fill="#A21942" d="M48.404 16.19a.2.2 0 0 0-.056-.138.2.2 0 0 0-.12-.052h-.035l-.052.004-4.98 1.125-.09.008a.2.2 0 0 0-.096.052.19.19 0 0 0 0 .267l.056.055 1.137 1.138-11.287 11.286-5.214-5.214a.147.147 0 0 0-.21 0l-1.417 1.416-8.356 8.356a.146.146 0 0 0 0 .21L19.1 36.12c.06.06.151.06.211 0l8.253-8.252 3.782 3.782s.004.012.012.016l1.416 1.412c.06.06.15.06.21 0l12.81-12.81 1.194 1.193a.185.185 0 0 0 .266 0 .2.2 0 0 0 .056-.123v-.016l1.094-5.086v-.056z"/><path fill="#A21942" d="m36.114 32.843-3.146 3.173a.15.15 0 0 1-.203-.008l-2.851-2.907c-.521-.521-.637-.1-.637.107v14.946c0 .202.163.37.37.37h6.722c.202 0 .37-.168.37-.37V32.958c0-.203-.164-.58-.625-.115M88.488 42.336c-2.376 0-4.752-.936-6.48-2.592l2.04-2.448c1.272 1.176 2.952 1.968 4.512 1.968 1.848 0 2.832-.792 2.832-2.04 0-1.32-1.08-1.728-2.664-2.4l-2.376-1.008c-1.8-.744-3.6-2.184-3.6-4.776 0-2.904 2.544-5.136 6.144-5.136 2.064 0 4.128.816 5.568 2.28l-1.8 2.232c-1.128-.936-2.304-1.464-3.768-1.464-1.56 0-2.544.696-2.544 1.872 0 1.272 1.248 1.728 2.76 2.328l2.328.984c2.16.888 3.576 2.256 3.576 4.824 0 2.904-2.424 5.376-6.528 5.376M98.161 42V24.216h4.872c5.424 0 8.784 2.832 8.784 8.832 0 5.976-3.36 8.952-8.592 8.952zm3.552-2.856h1.104c3.312 0 5.376-1.776 5.376-6.096 0-4.344-2.064-5.976-5.376-5.976h-1.104zm21.212 3.192c-4.824 0-8.52-3.216-8.52-9.144 0-5.856 3.792-9.288 8.52-9.288 2.568 0 4.344 1.104 5.496 2.28l-1.872 2.256c-.888-.84-1.896-1.488-3.504-1.488-2.952 0-5.016 2.304-5.016 6.12 0 3.864 1.776 6.192 5.28 6.192.84 0 1.704-.24 2.208-.672v-3.504h-3.144v-2.904h6.312V40.2c-1.2 1.176-3.288 2.136-5.76 2.136m13.124 0c-1.8 0-3.768-.792-5.112-1.896l1.608-2.208c1.2.936 2.352 1.464 3.6 1.464 1.344 0 1.944-.576 1.944-1.416 0-1.008-1.392-1.464-2.808-2.016-1.704-.648-3.6-1.68-3.6-3.936 0-2.4 1.944-4.104 5.016-4.104 1.944 0 3.456.816 4.56 1.656l-1.584 2.136c-.96-.696-1.896-1.152-2.88-1.152-1.224 0-1.8.528-1.8 1.296 0 .984 1.248 1.344 2.664 1.872 1.776.672 3.744 1.56 3.744 4.056 0 2.352-1.848 4.248-5.352 4.248m18.64 0c-3.384 0-5.928-1.968-5.928-4.752 0-2.136 1.416-3.504 3.048-4.368v-.096c-1.344-.984-2.352-2.256-2.352-4.08 0-2.856 2.28-4.68 5.352-4.68 3.144 0 5.16 1.872 5.16 4.704 0 1.704-1.152 3.096-2.28 3.888v.12c1.608.912 2.976 2.184 2.976 4.512 0 2.688-2.376 4.752-5.976 4.752m1.128-10.248c.816-.864 1.272-1.8 1.272-2.784 0-1.44-.864-2.448-2.352-2.448-1.2 0-2.16.768-2.16 2.184 0 1.584 1.392 2.328 3.24 3.048m-1.032 7.752c1.512 0 2.592-.84 2.592-2.376 0-1.728-1.656-2.352-3.936-3.288-.936.744-1.632 1.8-1.632 3.024 0 1.608 1.32 2.64 2.976 2.64M192.704 26.184l-1.968 1.224c-.432-1.032-1.512-2.64-2.424-3.816l1.848-1.08c.936 1.08 2.064 2.64 2.544 3.672m-10.584-1.776v2.496h-10.968v-2.496h4.488a22 22 0 0 0-.816-2.208l2.616-.552c.432.864.864 1.92 1.128 2.76zm-9.336 10.824 2.304.48c-.528 2.352-1.416 4.848-2.4 6.432-.456-.384-1.416-1.08-1.944-1.368.936-1.392 1.632-3.504 2.04-5.544m1.872-4.896v2.016h4.032v-2.016zm6.624 4.224h-3.096v6.768c0 1.152-.192 1.776-.936 2.184-.696.384-1.632.432-2.928.408-.096-.696-.456-1.68-.792-2.352.744.024 1.536.024 1.776.024.264 0 .336-.072.336-.312v-6.72h-3.432v-6.432h9.072zm-2.736 1.272 1.968-.888c.768 1.32 1.512 3.096 1.776 4.248l-2.088.984c-.24-1.176-.912-3-1.656-4.344m11.472 5.664h.6c.168 0 .336-.024.408-.096.12-.048.192-.24.24-.696.072-.384.096-1.392.096-2.64.504.48 1.464.96 2.184 1.2-.024 1.128-.144 2.424-.312 2.952-.192.552-.48.912-.912 1.128-.384.216-.984.288-1.44.288h-1.488c-.576 0-1.248-.192-1.656-.552-.432-.408-.624-.912-.624-2.592v-5.52c-.792 3.528-2.184 6.768-4.704 9.192-.432-.624-1.248-1.344-1.968-1.776 3.24-2.976 4.368-7.392 4.8-12.072h-2.832v-2.544h3c.096-2.04.072-4.08.096-6.024h2.664c-.024 1.944-.048 3.984-.144 6.024h5.064v2.544h-5.256c-.048.408-.096.816-.144 1.2h1.872v9.096c0 .432 0 .672.096.768s.192.12.36.12m11.952-2.064 2.016.912c-1.632 1.368-4.512 2.616-6.984 3.192-.36-.6-1.104-1.536-1.68-2.064 2.4-.336 5.184-1.152 6.648-2.04m6.456 1.2 1.92-1.344c1.944.72 4.776 1.92 6.312 2.688l-2.016 1.56c-1.392-.792-4.2-2.064-6.216-2.904m1.008-12.816h-6.576c.384.6.768 1.296.96 1.8l-1.296.312h6.552l-.864-.264c.384-.552.888-1.272 1.224-1.848m-2.04 8.472h9.312v2.352h-9.312v5.472h-2.832V38.64h-9.144v-2.352h9.144v-1.056h-6.912v-2.064h6.912v-1.08h-8.112v-2.16h4.416c-.216-.552-.576-1.224-.888-1.752l1.608-.36h-6.12v-2.232h3.264c-.36-.912-.984-2.064-1.536-2.976l2.448-.816c.72 1.008 1.512 2.448 1.824 3.36l-1.152.432h2.208v-3.912h2.64v3.912h1.8v-3.912h2.688v3.912h2.136l-.864-.264a21 21 0 0 0 1.536-3.456l3 .696c-.672 1.104-1.32 2.184-1.92 3.024h3.096v2.232h-6.336l2.256.576a50 50 0 0 1-1.464 1.536h4.632v2.16h-8.328v1.08h7.2v2.064h-7.2zm23.352-2.544v-3.888h-3.624v-7.968h2.424v1.632h3.768v2.352h-3.768v1.752h2.664v.024h.912v6.096c0 .984-.192 1.392-.84 1.704-.624.288-1.56.288-2.736.288-.096-.552-.384-1.248-.624-1.752.624.048 1.32.048 1.536.024.216 0 .288-.048.288-.264m-3.264-3.312 2.112.36c-.168 1.584-.552 3.144-1.2 4.152-.384-.312-1.32-.864-1.824-1.128.6-.888.792-2.112.912-3.384m13.56 5.52v2.64h-6.768c2.256 1.056 4.656 2.304 6.12 3.216l-1.896 2.184c-1.536-1.056-4.176-2.592-6.552-3.744l1.272-1.656h-7.128l2.016 1.656c-2.064 1.368-5.04 2.856-7.392 3.816a21 21 0 0 0-1.608-2.136c2.112-.792 4.872-2.16 6.48-3.336h-6.552v-2.64h2.16l-.408-12.384c1.512-.48 3.36-1.2 4.584-1.776l1.224 2.328c-1.008.36-2.136.648-3.216.936l.072 2.16h2.736v2.328h-2.664l.072 2.064h2.664v2.328h-2.592l.072 2.016h12.528c.048-.624.072-1.248.12-1.944h-2.424v-2.352h2.52l.072-2.064h-2.424V27.24h2.496c0-.696 0-1.368.024-2.064h-2.76v-2.448h5.376c0 4.272-.12 9.624-.312 13.224zm19.728-2.352-2.28.936c-.504-1.224-1.608-3.024-2.88-4.632.984-1.392 1.968-3.12 2.544-4.248l2.424.552a98 98 0 0 1-2.328 3.672c.984 1.272 2.016 2.736 2.52 3.72m-6.648-7.992 2.424.576a51 51 0 0 1-2.304 3.72c1.008 1.32 1.992 2.808 2.472 3.84l-2.28.888c-.528-1.248-1.584-3.048-2.832-4.68a36.6 36.6 0 0 0 2.52-4.344m10.872 8.04-2.256.984c-.576-1.248-1.8-3.072-3.168-4.68 1.008-1.416 2.064-3.192 2.64-4.344l2.448.576a84 84 0 0 1-2.376 3.72c1.056 1.272 2.16 2.736 2.712 3.744m-.072-10.968v2.544h-12.936V22.68zm-12.696 13.128-2.184.768c-.048-.312-.12-.672-.192-1.056-4.8.72-5.664.912-6.192 1.176-.144-.528-.576-1.8-.888-2.52.6-.144 1.128-.672 1.872-1.56.288-.336.84-1.032 1.512-1.992-1.8.216-2.328.36-2.688.528-.144-.504-.552-1.704-.84-2.352.48-.144.888-.6 1.368-1.32.504-.672 2.016-3.336 2.856-5.88l2.472 1.008a33.3 33.3 0 0 1-3.216 5.736l1.584-.12c.576-1.008 1.152-2.064 1.608-3.12l2.352 1.44c-1.344 2.472-3.096 5.04-4.896 7.152l2.52-.312c-.168-.648-.384-1.296-.576-1.872l2.04-.648c.6 1.584 1.248 3.672 1.488 4.944m-8.52 1.632 2.328.36c-.168 2.232-.6 4.608-1.104 6.144-.504-.288-1.632-.624-2.232-.816.576-1.44.864-3.648 1.008-5.688m2.736.36 2.04-.408c.288 1.608.576 3.6.648 4.944l-2.184.432c-.024-1.32-.264-3.384-.504-4.968m2.472-.528 1.944-.6c.432 1.152.888 2.664 1.104 3.624l-2.016.72c-.168-1.008-.624-2.544-1.032-3.744m10.848 3.648h5.448v2.616h-13.752V40.92h5.424v-3.312h-4.32v-2.544h11.664v2.544h-4.464zm18.192-14.28 1.104-.456h-6.312v-2.28h6.36a19 19 0 0 0-.408-2.04l2.592-.336c.264.744.528 1.656.624 2.376h6.96v2.28h-6.456l1.44.48c-.792.744-1.656 1.56-2.424 2.208h.12v4.92h-2.04v-4.896h-.024l.024-.024c.816-.768 1.704-1.872 2.28-2.688h-2.28c.384.552.744 1.272.888 1.752l-1.56.696c-.144-.552-.504-1.392-.888-1.992m-1.512 2.736h-.768c-.36 2.016-1.176 3.552-2.736 4.536-.168-.36-.72-1.128-1.08-1.44 1.08-.696 1.704-1.752 1.968-3.096h-1.032V27.6h5.496s-.024.456-.024.696c-.048 2.856-.12 4.152-.48 4.584-.288.36-.576.528-1.056.576-.312.072-.864.072-1.392.072-.048-.552-.216-1.272-.432-1.752.408.072.696.072.888.072s.312-.024.432-.192c.12-.192.168-.792.216-2.28m-4.056-4.296-1.608 1.752c-.696-.96-2.304-2.376-3.504-3.336l1.464-1.56c1.248.864 2.832 2.208 3.648 3.144m-.792 6.216-1.464 1.824c-.744-.84-2.304-2.064-3.504-2.904l1.416-1.632c1.152.744 2.76 1.896 3.552 2.712m-1.728 3.648 1.848 1.344a122 122 0 0 1-2.664 7.464l-2.064-1.32c.84-1.824 2.016-4.8 2.88-7.488m6.936 3.744h7.296v-1.32h-7.2c-.024.408-.048.864-.096 1.32m7.296-3.504v-1.272h2.664v10.224h-2.664v-3.24h-7.848c-.456 1.224-1.224 2.424-2.496 3.312-.456-.432-1.464-1.176-2.088-1.512 2.28-1.536 2.592-4.104 2.592-5.76v-3h2.616v1.248zm2.616-8.472 1.584 1.32c-.408.24-.888.456-1.392.648.48 1.488 1.248 2.904 2.304 3.6-.384.312-.936.912-1.176 1.344-1.176-.936-1.992-2.64-2.448-4.44-.312.096-.624.168-.912.264v2.184l1.176-.312c.024.432.168 1.032.288 1.392-2.136.72-2.64.96-2.928 1.2v-.072c-.144-.432-.504-1.248-.792-1.656.312-.168.624-.6.624-1.536v-2.376c1.344-.408 2.832-.984 3.672-1.56m22.128 2.616 2.856.696c-.984 3.12-2.4 5.904-4.128 8.232.696 1.728 1.464 2.736 2.232 2.736.576 0 .864-1.2.984-4.2.648.672 1.656 1.296 2.424 1.608-.456 4.44-1.416 5.496-3.648 5.496-1.68 0-3-1.2-4.056-3.168a20.3 20.3 0 0 1-4.056 3.264c-.432-.624-1.464-1.8-2.064-2.352a18.3 18.3 0 0 0 4.896-3.888c-.816-2.712-1.344-6.072-1.656-9.672h-6.96v2.568h5.928s-.024.744-.024 1.08c-.072 5.04-.216 7.176-.768 7.872-.456.624-.936.84-1.656.96-.624.096-1.656.096-2.76.072-.048-.84-.36-1.944-.792-2.664.864.072 1.68.096 2.064.096.336 0 .528-.048.72-.288.24-.336.336-1.488.408-4.512h-3.12c-.096 3.504-.6 8.184-2.568 11.112-.504-.552-1.776-1.608-2.424-1.944 1.824-2.88 1.992-7.056 1.992-10.176v-7.008h9.792c-.048-1.176-.096-2.352-.096-3.552h3c-.024 1.2 0 2.376.048 3.552h3.672c-.888-.72-2.088-1.488-3.072-2.088l1.728-1.704c1.32.672 3.072 1.776 3.912 2.568l-1.152 1.224h2.496v2.832h-7.416c.216 2.4.552 4.656.96 6.576a24.3 24.3 0 0 0 2.304-5.328m24.576 6.288h-5.472a10.5 10.5 0 0 0 1.944 2.424c1.224-.744 2.568-1.632 3.528-2.424m.84 0 1.848 1.272a37 37 0 0 1-4.224 2.64c1.512.912 3.312 1.56 5.472 1.968-.624.576-1.416 1.776-1.8 2.544-5.352-1.224-8.568-4.008-10.608-8.424h-3.432v5.088l5.256-1.056c-.144.768-.24 1.944-.24 2.544-5.736 1.272-7.056 1.584-7.704 1.872l-.144.12c-.192-.672-.744-2.16-1.2-2.832.528-.288 1.224-.864 1.224-1.848v-3.888H315.2v-2.52h3.984V22.488h15.144v2.328h-12.216v1.32h11.544v2.208h-11.544v1.248h11.544V31.8h-11.544v1.296h14.736v2.52z"/><path fill="#A21942" stroke="#000" d="M1 64h18v18H1zM19 64h18v18H19zM37 64h18v18H37zM55 64h18v18H55z"/><path fill="#A21942" fill-opacity=".3" stroke="#000" d="M73 64h18v18H73zM91 64h18v18H91zM109 64h18v18h-18zM127 64h18v18h-18zM145 64h18v18h-18zM163 64h18v18h-18zM181 64h18v18h-18zM199 64h18v18h-18zM217 64h18v18h-18zM235 64h18v18h-18zM253 64h18v18h-18zM271 64h18v18h-18zM289 64h18v18h-18zM307 64h18v18h-18zM325 64h18v18h-18zM343 64h18v18h-18z"/><path fill="#A21942" d="M4.54 95.168q-.9 0-1.584-.516-.672-.528-1.056-1.56-.372-1.044-.372-2.58 0-1.524.372-2.532.384-1.02 1.056-1.524a2.6 2.6 0 0 1 1.584-.504q.912 0 1.584.516.672.504 1.044 1.512.384 1.008.384 2.532 0 1.536-.384 2.58-.372 1.032-1.044 1.56-.672.516-1.584.516m0-1.38q.396 0 .696-.3t.468-1.008q.168-.72.168-1.968 0-1.236-.168-1.932-.168-.708-.468-.984a.97.97 0 0 0-.696-.288q-.372 0-.684.288-.3.276-.48.984-.18.696-.18 1.932 0 1.248.18 1.968.18.708.48 1.008.312.3.684.3M82.984 95v-1.44h1.92v-5.604h-1.62v-1.104a7.5 7.5 0 0 0 1.152-.288q.492-.18.912-.456h1.308v7.452h1.668V95zm9.634.168q-.9 0-1.584-.516-.672-.528-1.056-1.56-.372-1.044-.372-2.58 0-1.524.372-2.532.384-1.02 1.056-1.524a2.6 2.6 0 0 1 1.584-.504q.912 0 1.584.516.672.504 1.044 1.512.384 1.008.384 2.532 0 1.536-.384 2.58-.372 1.032-1.044 1.56-.672.516-1.584.516m0-1.38q.396 0 .696-.3t.468-1.008q.168-.72.168-1.968 0-1.236-.168-1.932-.168-.708-.468-.984a.97.97 0 0 0-.696-.288q-.372 0-.684.288-.3.276-.48.984-.18.696-.18 1.932 0 1.248.18 1.968.18.708.48 1.008.312.3.684.3M170.516 95v-1.02a30 30 0 0 0 2.064-2.004q.864-.924 1.32-1.716.456-.804.456-1.488 0-.432-.156-.756a1.1 1.1 0 0 0-.456-.492q-.288-.18-.72-.18-.48 0-.888.276a4 4 0 0 0-.732.636l-.984-.948q.624-.672 1.272-1.008.66-.348 1.56-.348.84 0 1.464.348.636.336.984.948t.348 1.44q0 .804-.408 1.644a8.4 8.4 0 0 1-1.068 1.656 20 20 0 0 1-1.488 1.632q.348-.048.744-.072.408-.036.72-.036h1.92V95zm10.102.168q-.9 0-1.584-.516-.672-.528-1.056-1.56-.372-1.044-.372-2.58 0-1.524.372-2.532.384-1.02 1.056-1.524a2.6 2.6 0 0 1 1.584-.504q.912 0 1.584.516.672.504 1.044 1.512.384 1.008.384 2.532 0 1.536-.384 2.58-.372 1.032-1.044 1.56-.672.516-1.584.516m0-1.38q.396 0 .696-.3t.468-1.008q.168-.72.168-1.968 0-1.236-.168-1.932-.168-.708-.468-.984a.97.97 0 0 0-.696-.288q-.372 0-.684.288-.3.276-.48.984-.18.696-.18 1.932 0 1.248.18 1.968.18.708.48 1.008.312.3.684.3M261.276 95.168q-.696 0-1.248-.168a3.7 3.7 0 0 1-.984-.432 4 4 0 0 1-.732-.636l.828-1.116q.408.372.888.648.492.264 1.092.264a2 2 0 0 0 .792-.144 1.12 1.12 0 0 0 .72-1.092q0-.444-.216-.756-.204-.324-.732-.492t-1.488-.168v-1.272q.816 0 1.284-.168.468-.18.66-.48.204-.312.204-.708 0-.516-.312-.804-.312-.3-.876-.3-.468 0-.876.216a3.7 3.7 0 0 0-.792.564l-.912-1.092a5.3 5.3 0 0 1 1.236-.78q.648-.3 1.428-.3.852 0 1.5.276.66.276 1.02.804t.36 1.284q0 .72-.384 1.236t-1.092.792v.06q.492.132.888.432.408.288.636.732.24.444.24 1.032 0 .804-.432 1.38-.42.576-1.14.888-.708.3-1.56.3m7.342 0q-.9 0-1.584-.516-.672-.528-1.056-1.56-.372-1.044-.372-2.58 0-1.524.372-2.532.384-1.02 1.056-1.524a2.6 2.6 0 0 1 1.584-.504q.912 0 1.584.516.672.504 1.044 1.512.384 1.008.384 2.532 0 1.536-.384 2.58-.372 1.032-1.044 1.56-.672.516-1.584.516m0-1.38q.396 0 .696-.3t.468-1.008q.168-.72.168-1.968 0-1.236-.168-1.932-.168-.708-.468-.984a.97.97 0 0 0-.696-.288q-.372 0-.684.288-.3.276-.48.984-.18.696-.18 1.932 0 1.248.18 1.968.18.708.48 1.008.312.3.684.3M350.044 95v-5.46q0-.384.024-.912.024-.54.048-.936h-.06q-.156.36-.336.72t-.372.732l-1.38 2.208h4.776v1.344h-6.492v-1.2l3.312-5.388h2.124V95zm6.574.168q-.9 0-1.584-.516-.672-.528-1.056-1.56-.372-1.044-.372-2.58 0-1.524.372-2.532.384-1.02 1.056-1.524a2.6 2.6 0 0 1 1.584-.504q.912 0 1.584.516.672.504 1.044 1.512.384 1.008.384 2.532 0 1.536-.384 2.58-.372 1.032-1.044 1.56-.672.516-1.584.516m0-1.38q.396 0 .696-.3t.468-1.008q.168-.72.168-1.968 0-1.236-.168-1.932-.168-.708-.468-.984a.97.97 0 0 0-.696-.288q-.372 0-.684.288-.3.276-.48.984-.18.696-.18 1.932 0 1.248.18 1.968.18.708.48 1.008.312.3.684.3"/></svg>