<svg width="362" height="98" viewBox="0 0 362 98" fill="none" xmlns="http://www.w3.org/2000/svg">
<path d="M51.707 23.5335C51.707 22.8313 52.2786 22.2598 52.9808 22.2598C53.6824 22.2598 54.2507 22.8266 54.2507 23.5335C54.2507 24.2403 53.6824 24.8071 52.9808 24.8071C52.2786 24.8071 51.707 24.2356 51.707 23.5335Z" fill="#E5243B" stroke="#E5243B"/>
<mask id="path-2-inside-1_305_2448" fill="white">
<path d="M55.0494 25.9875C56.2505 26.0949 57.1931 27.109 57.1931 28.3418V33.2533C57.1931 33.6311 56.8869 33.9413 56.509 33.9413C56.1312 33.9413 55.821 33.6311 55.821 33.2533V29.0338C55.821 28.8747 55.7733 28.66 55.4869 28.66C55.2881 28.66 55.2443 28.8708 55.2363 29.006V41.6485C55.2363 42.1933 54.7949 42.6348 54.25 42.6348C53.7052 42.6348 53.2597 42.1933 53.2597 41.6485V34.3628C53.2597 34.2833 53.2319 34.0725 52.9813 34.0725C52.7308 34.0725 52.6989 34.2833 52.695 34.3628V41.6485C52.695 42.1933 52.2535 42.6348 51.7086 42.6348C51.1638 42.6348 50.7223 42.1933 50.7223 41.6485V29.006C50.7143 28.8708 50.6706 28.66 50.4757 28.66C50.1854 28.66 50.1416 28.8747 50.1416 29.0338V33.2533C50.1416 33.6311 49.8354 33.9413 49.4536 33.9413C49.0718 33.9413 48.7695 33.6311 48.7695 33.2533V28.3418C48.7695 27.109 49.7121 26.0989 50.9172 25.9875C50.957 25.9835 51.0007 25.9756 51.0484 25.9756H54.9222C54.9739 25.9756 55.0136 25.9796 55.0574 25.9875"/>
</mask>
<path d="M55.0494 25.9875C56.2505 26.0949 57.1931 27.109 57.1931 28.3418V33.2533C57.1931 33.6311 56.8869 33.9413 56.509 33.9413C56.1312 33.9413 55.821 33.6311 55.821 33.2533V29.0338C55.821 28.8747 55.7733 28.66 55.4869 28.66C55.2881 28.66 55.2443 28.8708 55.2363 29.006V41.6485C55.2363 42.1933 54.7949 42.6348 54.25 42.6348C53.7052 42.6348 53.2597 42.1933 53.2597 41.6485V34.3628C53.2597 34.2833 53.2319 34.0725 52.9813 34.0725C52.7308 34.0725 52.6989 34.2833 52.695 34.3628V41.6485C52.695 42.1933 52.2535 42.6348 51.7086 42.6348C51.1638 42.6348 50.7223 42.1933 50.7223 41.6485V29.006C50.7143 28.8708 50.6706 28.66 50.4757 28.66C50.1854 28.66 50.1416 28.8747 50.1416 29.0338V33.2533C50.1416 33.6311 49.8354 33.9413 49.4536 33.9413C49.0718 33.9413 48.7695 33.6311 48.7695 33.2533V28.3418C48.7695 27.109 49.7121 26.0989 50.9172 25.9875C50.957 25.9835 51.0007 25.9756 51.0484 25.9756H54.9222C54.9739 25.9756 55.0136 25.9796 55.0574 25.9875" fill="#E5243B"/>
<path d="M55.2363 29.006L54.2381 28.9472L54.2363 28.9766V29.006H55.2363ZM52.695 34.3628L51.6962 34.3129L51.695 34.3379V34.3628H52.695ZM50.7223 29.006H51.7223V28.9766L51.7206 28.9472L50.7223 29.006ZM50.9172 25.9875L51.0092 26.9833L51.0167 26.9826L50.9172 25.9875ZM54.9604 26.9835C55.6474 27.045 56.1931 27.6284 56.1931 28.3418H58.1931C58.1931 26.5896 56.8537 25.1448 55.1385 24.9915L54.9604 26.9835ZM56.1931 28.3418V33.2533H58.1931V28.3418H56.1931ZM56.1931 33.2533C56.1931 33.0863 56.3271 32.9413 56.509 32.9413V34.9413C57.4466 34.9413 58.1931 34.1759 58.1931 33.2533H56.1931ZM56.509 32.9413C56.6834 32.9413 56.821 33.0787 56.821 33.2533H54.821C54.821 34.1834 55.579 34.9413 56.509 34.9413V32.9413ZM56.821 33.2533V29.0338H54.821V33.2533H56.821ZM56.821 29.0338C56.821 28.8877 56.8055 28.5595 56.6003 28.243C56.3444 27.8486 55.9227 27.66 55.4869 27.66V29.66C55.4332 29.66 55.3295 29.6495 55.2088 29.5885C55.0834 29.5251 54.9869 29.4309 54.9224 29.3315C54.8626 29.2393 54.8397 29.158 54.8305 29.1143C54.8212 29.0701 54.821 29.0408 54.821 29.0338H56.821ZM55.4869 27.66C54.9358 27.66 54.5745 27.9961 54.406 28.3149C54.2689 28.5742 54.2449 28.8315 54.2381 28.9472L56.2346 29.0647C56.2345 29.067 56.2337 29.0811 56.2286 29.1048C56.2241 29.126 56.2108 29.1802 56.1741 29.2496C56.1364 29.3209 56.0618 29.4306 55.927 29.5222C55.7832 29.6199 55.6249 29.66 55.4869 29.66V27.66ZM54.2363 29.006V41.6485H56.2363V29.006H54.2363ZM54.2363 41.6485C54.2363 41.6489 54.2363 41.6483 54.2366 41.6469C54.2369 41.6456 54.2373 41.6442 54.2378 41.643C54.2388 41.6406 54.2399 41.6394 54.2404 41.6388C54.241 41.6382 54.2422 41.6372 54.2446 41.6362C54.2458 41.6357 54.2471 41.6353 54.2485 41.635C54.2498 41.6347 54.2504 41.6348 54.25 41.6348V43.6348C55.3471 43.6348 56.2363 42.7457 56.2363 41.6485H54.2363ZM54.25 41.6348C54.2496 41.6348 54.25 41.6347 54.2511 41.6349C54.2521 41.6351 54.253 41.6354 54.2538 41.6358C54.2552 41.6364 54.2556 41.6368 54.2557 41.6368C54.2557 41.6369 54.2567 41.6378 54.2578 41.6405C54.2584 41.6419 54.2589 41.6435 54.2593 41.6453C54.2597 41.6471 54.2597 41.6483 54.2597 41.6485H52.2597C52.2597 42.7509 53.1582 43.6348 54.25 43.6348V41.6348ZM54.2597 41.6485V34.3628H52.2597V41.6485H54.2597ZM54.2597 34.3628C54.2597 34.2419 54.2443 33.9553 54.0677 33.6664C53.8443 33.3007 53.4481 33.0725 52.9813 33.0725V35.0725C52.9006 35.0725 52.7774 35.0544 52.6453 34.9811C52.5125 34.9074 52.4198 34.8052 52.3612 34.7093C52.2612 34.5457 52.2597 34.4042 52.2597 34.3628H54.2597ZM52.9813 33.0725C52.5149 33.0725 52.1253 33.2993 51.9015 33.6518C51.7235 33.9322 51.7013 34.212 51.6962 34.3129L53.6937 34.4128C53.6926 34.4342 53.6883 34.5688 53.5899 34.7239C53.5322 34.8146 53.4417 34.9125 53.3124 34.9834C53.1833 35.0543 53.0624 35.0725 52.9813 35.0725V33.0725ZM51.695 34.3628V41.6485H53.695V34.3628H51.695ZM51.695 41.6485C51.695 41.6489 51.6949 41.6483 51.6952 41.6469C51.6955 41.6456 51.6959 41.6442 51.6964 41.643C51.6974 41.6406 51.6985 41.6394 51.699 41.6388C51.6996 41.6382 51.7008 41.6372 51.7032 41.6362C51.7044 41.6357 51.7058 41.6353 51.7071 41.635C51.7084 41.6347 51.7091 41.6348 51.7086 41.6348V43.6348C52.8057 43.6348 53.695 42.7457 53.695 41.6485H51.695ZM51.7086 41.6348C51.7082 41.6348 51.7088 41.6347 51.7102 41.635C51.7115 41.6353 51.7129 41.6357 51.7141 41.6362C51.7165 41.6372 51.7177 41.6382 51.7182 41.6388C51.7188 41.6394 51.7198 41.6406 51.7208 41.643C51.7214 41.6442 51.7218 41.6456 51.722 41.6469C51.7223 41.6483 51.7223 41.6489 51.7223 41.6485H49.7223C49.7223 42.7457 50.6115 43.6348 51.7086 43.6348V41.6348ZM51.7223 41.6485V29.006H49.7223V41.6485H51.7223ZM51.7206 28.9472C51.7138 28.8313 51.6897 28.5767 51.5558 28.3199C51.3925 28.0068 51.0346 27.66 50.4757 27.66V29.66C50.3324 29.66 50.171 29.6174 50.0266 29.5175C49.8921 29.4245 49.8188 29.3143 49.7824 29.2446C49.7469 29.1765 49.7341 29.1236 49.7298 29.1033C49.7249 29.0805 49.7242 29.067 49.724 29.0647L51.7206 28.9472ZM50.4757 27.66C50.0428 27.66 49.6162 27.8452 49.3583 28.247C49.1532 28.5665 49.1416 28.8975 49.1416 29.0338H51.1416C51.1416 29.0364 51.1418 29.0641 51.133 29.1074C51.1243 29.1503 51.1019 29.2332 51.0413 29.3274C50.9757 29.4296 50.8775 29.5254 50.7507 29.5892C50.6293 29.6503 50.5263 29.66 50.4757 29.66V27.66ZM49.1416 29.0338V33.2533H51.1416V29.0338H49.1416ZM49.1416 33.2533C49.1416 33.0825 49.2794 32.9413 49.4536 32.9413V34.9413C50.3914 34.9413 51.1416 34.1797 51.1416 33.2533H49.1416ZM49.4536 32.9413C49.6353 32.9413 49.7695 33.0901 49.7695 33.2533H47.7695C47.7695 34.1721 48.5083 34.9413 49.4536 34.9413V32.9413ZM49.7695 33.2533V28.3418H47.7695V33.2533H49.7695ZM49.7695 28.3418C49.7695 27.6321 50.3121 27.0477 51.0092 26.9833L50.8252 24.9918C49.1122 25.15 47.7695 26.5859 47.7695 28.3418H49.7695ZM51.0167 26.9826C51.0289 26.9813 51.0399 26.9801 51.0488 26.979C51.0577 26.978 51.0658 26.977 51.0718 26.9763C51.079 26.9753 51.0817 26.975 51.0862 26.9744C51.0898 26.974 51.0917 26.9738 51.0927 26.9737C51.0949 26.9734 51.0911 26.9739 51.0838 26.9744C51.0764 26.9749 51.0642 26.9756 51.0484 26.9756V24.9756C50.9705 24.9756 50.9055 24.9821 50.8669 24.9865C50.8488 24.9885 50.8303 24.9909 50.8237 24.9917C50.8138 24.9929 50.8143 24.9928 50.8177 24.9925L51.0167 26.9826ZM51.0484 26.9756H54.9222V24.9756H51.0484V26.9756ZM54.9222 26.9756C54.9222 26.9756 54.9202 26.9756 54.9164 26.9754C54.9126 26.9753 54.9078 26.975 54.9022 26.9745C54.8902 26.9734 54.8813 26.9719 54.8785 26.9714L55.2363 25.0036C55.1344 24.9851 55.0348 24.9756 54.9222 24.9756V26.9756Z" fill="#E5243B" mask="url(#path-2-inside-1_305_2448)"/>
<path d="M38.9977 23.2861C39.6467 23.2861 40.1721 23.8124 40.1721 24.4644C40.1721 25.1164 39.6467 25.6426 38.9977 25.6426C38.3471 25.6426 37.8193 25.1148 37.8193 24.4644C37.8193 23.8139 38.3471 23.2861 38.9977 23.2861Z" fill="#E5243B" stroke="#E5243B"/>
<mask id="path-5-inside-2_305_2448" fill="white">
<path d="M35.6128 28.2626L34.2169 32.8042C34.2169 32.8042 33.9663 33.6353 34.6742 33.8461C35.3782 34.0529 35.589 33.2416 35.589 33.2416L36.7145 29.4517C36.7145 29.4517 36.7742 29.1613 36.9929 29.225C37.2117 29.2886 37.1281 29.5988 37.1281 29.5988L35.1714 36.7015H36.9929V41.788C36.9929 42.2692 37.3866 42.6589 37.8679 42.6589C38.3491 42.6589 38.7389 42.2692 38.7389 41.788V36.7015H39.236V41.788C39.236 42.2692 39.6258 42.6589 40.111 42.6589C40.5962 42.6589 40.986 42.2692 40.986 41.788V36.7015H42.8075L40.8507 29.5988C40.8507 29.5988 40.7672 29.2886 40.986 29.225C41.2047 29.1613 41.2683 29.4517 41.2683 29.4517L42.3939 33.2416C42.3939 33.2416 42.6086 34.0529 43.3086 33.8461C44.0165 33.6393 43.766 32.8042 43.766 32.8042L42.37 28.2626C42.37 28.2626 41.8729 26.9502 40.7672 26.9502H37.2117C36.11 26.9502 35.6089 28.2626 35.6089 28.2626"/>
</mask>
<path d="M35.6128 28.2626L34.2169 32.8042C34.2169 32.8042 33.9663 33.6353 34.6742 33.8461C35.3782 34.0529 35.589 33.2416 35.589 33.2416L36.7145 29.4517C36.7145 29.4517 36.7742 29.1613 36.9929 29.225C37.2117 29.2886 37.1281 29.5988 37.1281 29.5988L35.1714 36.7015H36.9929V41.788C36.9929 42.2692 37.3866 42.6589 37.8679 42.6589C38.3491 42.6589 38.7389 42.2692 38.7389 41.788V36.7015H39.236V41.788C39.236 42.2692 39.6258 42.6589 40.111 42.6589C40.5962 42.6589 40.986 42.2692 40.986 41.788V36.7015H42.8075L40.8507 29.5988C40.8507 29.5988 40.7672 29.2886 40.986 29.225C41.2047 29.1613 41.2683 29.4517 41.2683 29.4517L42.3939 33.2416C42.3939 33.2416 42.6086 34.0529 43.3086 33.8461C44.0165 33.6393 43.766 32.8042 43.766 32.8042L42.37 28.2626C42.37 28.2626 41.8729 26.9502 40.7672 26.9502H37.2117C36.11 26.9502 35.6089 28.2626 35.6089 28.2626" fill="#E5243B"/>
<path d="M34.2169 32.8042L33.261 32.5104L33.2594 32.5155L34.2169 32.8042ZM34.6742 33.8461L34.3889 34.8045L34.3924 34.8056L34.6742 33.8461ZM35.589 33.2416L34.6304 32.9569L34.6255 32.9735L34.6211 32.9902L35.589 33.2416ZM36.7145 29.4517L37.6731 29.7363L37.6854 29.6951L37.694 29.6529L36.7145 29.4517ZM37.1281 29.5988L38.0922 29.8644L38.0937 29.8588L37.1281 29.5988ZM35.1714 36.7015L34.2073 36.4359L33.8586 37.7015H35.1714V36.7015ZM36.9929 36.7015H37.9929V35.7015H36.9929V36.7015ZM38.7389 36.7015V35.7015H37.7389V36.7015H38.7389ZM39.236 36.7015H40.236V35.7015H39.236V36.7015ZM40.986 36.7015V35.7015H39.986V36.7015H40.986ZM42.8075 36.7015V37.7015H44.1202L43.7716 36.4359L42.8075 36.7015ZM40.8507 29.5988L39.8851 29.8588L39.8866 29.8644L40.8507 29.5988ZM41.2683 29.4517L40.2915 29.6658L40.2993 29.7014L40.3097 29.7363L41.2683 29.4517ZM42.3939 33.2416L43.3606 32.9857L43.3567 32.9713L43.3525 32.9569L42.3939 33.2416ZM43.3086 33.8461L43.0282 32.8862L43.0253 32.8871L43.3086 33.8461ZM43.766 32.8042L44.7238 32.5168L44.7218 32.5104L43.766 32.8042ZM42.37 28.2626L43.3259 27.9688L43.3165 27.9382L43.3051 27.9083L42.37 28.2626ZM34.657 27.9688L33.261 32.5104L35.1727 33.098L36.5687 28.5564L34.657 27.9688ZM34.2169 32.8042C33.2594 32.5155 33.2593 32.5159 33.2592 32.5163C33.2591 32.5165 33.259 32.5169 33.2589 32.5172C33.2588 32.5177 33.2586 32.5183 33.2584 32.5189C33.2581 32.5201 33.2577 32.5213 33.2573 32.5226C33.2566 32.5252 33.2557 32.528 33.2549 32.5311C33.2531 32.5372 33.2511 32.5443 33.249 32.5522C33.2447 32.568 33.2397 32.5875 33.2343 32.6103C33.2236 32.6555 33.2111 32.7153 33.2003 32.7861C33.1794 32.9224 33.1607 33.1253 33.1861 33.3558C33.2115 33.5861 33.286 33.8867 33.4876 34.1718C33.7 34.4721 34.009 34.6914 34.3889 34.8045L34.9596 32.8877C34.9855 32.8954 35.0604 32.9318 35.1206 33.017C35.1455 33.0522 35.159 33.0836 35.166 33.1044C35.1728 33.1244 35.174 33.1361 35.174 33.1364C35.1741 33.1368 35.1736 33.1316 35.174 33.1209C35.1745 33.1105 35.1756 33.0993 35.1773 33.0886C35.1789 33.0782 35.1804 33.0713 35.1807 33.0703C35.1808 33.0699 35.1804 33.0714 35.1795 33.0749C35.179 33.0767 35.1783 33.0791 35.1775 33.082C35.1771 33.0835 35.1766 33.0851 35.1761 33.0869C35.1758 33.0878 35.1755 33.0888 35.1752 33.0897C35.1751 33.0902 35.1749 33.0907 35.1748 33.0912C35.1747 33.0915 35.1746 33.0919 35.1746 33.092C35.1744 33.0924 35.1743 33.0928 34.2169 32.8042ZM34.3924 34.8056C34.7646 34.9149 35.1396 34.9042 35.482 34.7688C35.8085 34.6396 36.0336 34.4258 36.1784 34.2437C36.3227 34.0622 36.413 33.8802 36.4662 33.7543C36.4939 33.6887 36.5144 33.6316 36.5288 33.5875C36.5361 33.5654 36.542 33.5461 36.5466 33.5303C36.5489 33.5224 36.5509 33.5153 36.5526 33.5091C36.5534 33.506 36.5542 33.5031 36.5549 33.5004C36.5553 33.4991 36.5556 33.4978 36.5559 33.4966C36.5561 33.496 36.5563 33.4954 36.5564 33.4948C36.5565 33.4945 36.5566 33.4941 36.5566 33.4939C36.5567 33.4935 36.5568 33.4931 35.589 33.2416C34.6211 32.9902 34.6212 32.9897 34.6213 32.9893C34.6214 32.9892 34.6215 32.9888 34.6215 32.9885C34.6217 32.988 34.6218 32.9875 34.622 32.987C34.6222 32.9859 34.6225 32.985 34.6227 32.984C34.6232 32.9821 34.6237 32.9804 34.6241 32.9788C34.625 32.9757 34.6257 32.9731 34.6263 32.9711C34.6275 32.967 34.6282 32.965 34.6283 32.9646C34.6284 32.9642 34.6269 32.9687 34.6239 32.9761C34.6155 32.9958 34.6092 33.0037 34.6128 32.9991C34.6169 32.994 34.6573 32.9442 34.7463 32.909C34.8512 32.8675 34.9359 32.8807 34.9561 32.8867L34.3924 34.8056ZM36.5476 33.5263L37.6731 29.7363L35.7559 29.167L34.6304 32.9569L36.5476 33.5263ZM36.7145 29.4517C37.694 29.6529 37.694 29.6533 37.6939 29.6537C37.6939 29.6538 37.6938 29.6542 37.6937 29.6544C37.6936 29.6549 37.6935 29.6554 37.6934 29.6558C37.6932 29.6568 37.693 29.6578 37.6928 29.6587C37.6924 29.6606 37.692 29.6624 37.6917 29.6642C37.6909 29.6678 37.6901 29.6713 37.6893 29.6747C37.6877 29.6814 37.6861 29.6879 37.6845 29.6941C37.6813 29.7061 37.6776 29.7188 37.673 29.7323C37.6657 29.7534 37.6478 29.8019 37.6086 29.8617C37.5719 29.918 37.4803 30.0396 37.3062 30.1271C37.1048 30.2283 36.8881 30.2359 36.7136 30.1852L37.2722 28.2648C36.9884 28.1822 36.6822 28.2023 36.4081 28.34C36.1613 28.4641 36.0138 28.6463 35.9347 28.7672C35.8533 28.8917 35.8068 29.0087 35.7815 29.0823C35.7679 29.122 35.7578 29.1568 35.7505 29.1846C35.7468 29.1986 35.7437 29.2112 35.7412 29.2221C35.7399 29.2276 35.7387 29.2327 35.7377 29.2374C35.7372 29.2398 35.7367 29.242 35.7363 29.2442C35.736 29.2453 35.7358 29.2463 35.7356 29.2474C35.7355 29.2479 35.7354 29.2484 35.7353 29.2489C35.7352 29.2491 35.7352 29.2495 35.7351 29.2496C35.7351 29.25 35.735 29.2504 36.7145 29.4517ZM36.7136 30.1852C36.5167 30.1279 36.3511 29.9944 36.25 29.8266C36.1641 29.6843 36.149 29.5594 36.1454 29.5111C36.1413 29.4569 36.1461 29.4194 36.1484 29.4042C36.1498 29.3941 36.1517 29.3843 36.1538 29.3745C36.1549 29.3694 36.1561 29.364 36.1575 29.3582C36.1583 29.3553 36.159 29.3522 36.1598 29.349C36.1603 29.3474 36.1607 29.3457 36.1611 29.344C36.1614 29.3432 36.1616 29.3423 36.1618 29.3414C36.1619 29.341 36.162 29.3406 36.1622 29.3401C36.1622 29.3399 36.1623 29.3396 36.1623 29.3395C36.1624 29.3391 36.1625 29.3388 37.1281 29.5988C38.0937 29.8588 38.0938 29.8585 38.0939 29.8581C38.094 29.858 38.094 29.8577 38.0941 29.8574C38.0942 29.857 38.0944 29.8565 38.0945 29.856C38.0947 29.8551 38.095 29.8541 38.0952 29.8531C38.0958 29.8511 38.0963 29.849 38.0969 29.8468C38.098 29.8424 38.0992 29.8376 38.1005 29.8324C38.103 29.822 38.1059 29.8099 38.1088 29.7962C38.1146 29.7692 38.1213 29.7347 38.1272 29.6945C38.1382 29.6191 38.1503 29.5001 38.1397 29.3604C38.1205 29.1057 37.9761 28.4695 37.2722 28.2648L36.7136 30.1852ZM36.164 29.3332L34.2073 36.4359L36.1355 36.9671L38.0922 29.8644L36.164 29.3332ZM35.1714 37.7015H36.9929V35.7015H35.1714V37.7015ZM35.9929 36.7015V41.788H37.9929V36.7015H35.9929ZM35.9929 41.788C35.9929 42.8274 36.8404 43.6589 37.8679 43.6589V41.6589C37.9329 41.6589 37.9929 41.7109 37.9929 41.788H35.9929ZM37.8679 43.6589C38.9013 43.6589 39.7389 42.8215 39.7389 41.788H37.7389C37.7389 41.7168 37.7969 41.6589 37.8679 41.6589V43.6589ZM39.7389 41.788V36.7015H37.7389V41.788H39.7389ZM38.7389 37.7015H39.236V35.7015H38.7389V37.7015ZM38.236 36.7015V41.788H40.236V36.7015H38.236ZM38.236 41.788C38.236 42.8245 39.0765 43.6589 40.111 43.6589V41.6589C40.175 41.6589 40.236 41.7138 40.236 41.788H38.236ZM40.111 43.6589C41.1454 43.6589 41.986 42.8245 41.986 41.788H39.986C39.986 41.7138 40.0469 41.6589 40.111 41.6589V43.6589ZM41.986 41.788V36.7015H39.986V41.788H41.986ZM40.986 37.7015H42.8075V35.7015H40.986V37.7015ZM43.7716 36.4359L41.8148 29.3332L39.8866 29.8644L41.8434 36.9671L43.7716 36.4359ZM40.8507 29.5988C41.8163 29.3388 41.8164 29.3391 41.8165 29.3395C41.8166 29.3396 41.8166 29.3399 41.8167 29.3401C41.8168 29.3406 41.8169 29.341 41.817 29.3415C41.8173 29.3423 41.8175 29.3432 41.8177 29.344C41.8182 29.3457 41.8186 29.3474 41.819 29.349C41.8198 29.3522 41.8206 29.3553 41.8213 29.3582C41.8228 29.364 41.824 29.3694 41.8251 29.3745C41.8272 29.3843 41.829 29.3941 41.8305 29.4042C41.8327 29.4194 41.8376 29.4569 41.8335 29.5111C41.8298 29.5594 41.8147 29.6843 41.7289 29.8266C41.6278 29.9944 41.4622 30.1279 41.2653 30.1852L40.7066 28.2648C40.0028 28.4695 39.8584 29.1057 39.8392 29.3604C39.8286 29.5001 39.8406 29.6191 39.8517 29.6945C39.8576 29.7347 39.8642 29.7692 39.8701 29.7962C39.873 29.8099 39.8758 29.822 39.8784 29.8324C39.8796 29.8376 39.8808 29.8424 39.882 29.8468C39.8825 29.849 39.8831 29.8511 39.8836 29.8531C39.8839 29.8541 39.8841 29.8551 39.8844 29.856C39.8845 29.8565 39.8846 29.857 39.8848 29.8574C39.8848 29.8577 39.8849 29.858 39.8849 29.8581C39.885 29.8584 39.8851 29.8588 40.8507 29.5988ZM41.2653 30.1852C41.0898 30.2362 40.8751 30.2275 40.677 30.1289C40.5057 30.0437 40.4148 29.9254 40.3781 29.8706C40.3391 29.8123 40.3209 29.765 40.3134 29.7442C40.3087 29.731 40.3049 29.7185 40.3015 29.7066C40.2998 29.7004 40.2982 29.6941 40.2965 29.6874C40.2957 29.684 40.2949 29.6806 40.294 29.677C40.2936 29.6752 40.2932 29.6733 40.2928 29.6715C40.2926 29.6705 40.2924 29.6696 40.2922 29.6686C40.292 29.6682 40.2919 29.6677 40.2918 29.6672C40.2918 29.667 40.2917 29.6666 40.2917 29.6665C40.2916 29.6661 40.2915 29.6658 41.2683 29.4517C42.2451 29.2376 42.2451 29.2372 42.245 29.2368C42.245 29.2367 42.2449 29.2363 42.2448 29.2361C42.2447 29.2356 42.2446 29.2351 42.2445 29.2346C42.2443 29.2335 42.244 29.2325 42.2438 29.2314C42.2433 29.2293 42.2428 29.227 42.2422 29.2247C42.2411 29.22 42.2399 29.2149 42.2386 29.2094C42.2359 29.1985 42.2327 29.186 42.2288 29.172C42.2211 29.1445 42.2106 29.1098 42.1965 29.0704C42.1703 28.9971 42.1225 28.8812 42.0402 28.7583C41.9603 28.6389 41.8125 28.46 41.5677 28.3382C41.2961 28.2031 40.9915 28.1819 40.7066 28.2648L41.2653 30.1852ZM40.3097 29.7363L41.4352 33.5263L43.3525 32.9569L42.2269 29.167L40.3097 29.7363ZM42.3939 33.2416C41.4272 33.4975 41.4273 33.498 41.4274 33.4984C41.4274 33.4985 41.4275 33.4989 41.4276 33.4992C41.4278 33.4998 41.4279 33.5004 41.4281 33.501C41.4284 33.5022 41.4287 33.5035 41.4291 33.5048C41.4298 33.5074 41.4306 33.5103 41.4315 33.5134C41.4332 33.5196 41.4352 33.5266 41.4376 33.5345C41.4422 33.5503 41.4482 33.5694 41.4555 33.5915C41.4701 33.6354 41.4907 33.6923 41.5186 33.7576C41.5721 33.8831 41.6628 34.0643 41.807 34.2451C41.9515 34.4262 42.1763 34.6395 42.502 34.7686C42.8441 34.9041 43.2193 34.9152 43.5919 34.8051L43.0253 32.8871C43.0479 32.8804 43.1338 32.8676 43.2387 32.9092C43.3273 32.9443 43.3671 32.9936 43.3704 32.9978C43.3735 33.0016 43.3667 32.9929 43.3581 32.9727C43.3549 32.9652 43.3533 32.9604 43.3534 32.9606C43.3535 32.9609 43.3541 32.9629 43.3553 32.9669C43.3559 32.9689 43.3566 32.9714 43.3575 32.9745C43.3579 32.9761 43.3584 32.9778 43.3589 32.9796C43.3592 32.9806 43.3594 32.9815 43.3597 32.9826C43.3598 32.9831 43.36 32.9836 43.3601 32.9841C43.3602 32.9844 43.3603 32.9848 43.3603 32.9849C43.3604 32.9853 43.3606 32.9857 42.3939 33.2416ZM43.589 34.806C43.9706 34.6945 44.2813 34.4754 44.4947 34.1741C44.697 33.8885 44.7714 33.5872 44.7967 33.3571C44.8221 33.1265 44.8034 32.9235 44.7826 32.7872C44.7718 32.7164 44.7594 32.6566 44.7488 32.6114C44.7434 32.5886 44.7384 32.5692 44.7341 32.5533C44.732 32.5454 44.7301 32.5384 44.7283 32.5323C44.7274 32.5292 44.7266 32.5264 44.7259 32.5238C44.7255 32.5226 44.7251 32.5213 44.7248 32.5201C44.7246 32.5196 44.7244 32.519 44.7243 32.5184C44.7242 32.5182 44.7241 32.5177 44.724 32.5176C44.7239 32.5172 44.7238 32.5168 43.766 32.8042C42.8081 33.0915 42.808 33.0911 42.8079 33.0907C42.8079 33.0906 42.8078 33.0902 42.8077 33.09C42.8075 33.0895 42.8074 33.089 42.8072 33.0885C42.807 33.0875 42.8067 33.0866 42.8064 33.0857C42.8059 33.0839 42.8054 33.0823 42.805 33.0808C42.8042 33.0779 42.8035 33.0756 42.8031 33.0738C42.8021 33.0704 42.8018 33.069 42.8019 33.0695C42.8022 33.0708 42.8038 33.0779 42.8055 33.0886C42.8071 33.0995 42.8084 33.1111 42.8088 33.1218C42.8093 33.1328 42.8088 33.1383 42.8088 33.1381C42.8088 33.138 42.81 33.1264 42.8167 33.1063C42.8238 33.0855 42.8374 33.0537 42.8627 33.018C42.924 32.9315 43.0006 32.8943 43.0282 32.8862L43.589 34.806ZM44.7218 32.5104L43.3259 27.9688L41.4141 28.5564L42.8101 33.098L44.7218 32.5104ZM42.37 28.2626C43.3051 27.9083 43.305 27.908 43.3049 27.9076C43.3048 27.9075 43.3047 27.9072 43.3046 27.9069C43.3044 27.9064 43.3042 27.9059 43.304 27.9054C43.3036 27.9043 43.3032 27.9032 43.3027 27.9019C43.3017 27.8994 43.3007 27.8966 43.2994 27.8935C43.297 27.8873 43.294 27.8797 43.2904 27.8709C43.2833 27.8534 43.2739 27.8309 43.2621 27.8042C43.2387 27.7509 43.2057 27.6798 43.1625 27.5967C43.0775 27.4329 42.9467 27.2099 42.7641 26.9817C42.4124 26.5421 41.7548 25.9502 40.7672 25.9502V27.9502C40.8853 27.9502 41.029 28.0145 41.2024 28.2311C41.2822 28.3309 41.3448 28.4361 41.3875 28.5183C41.4083 28.5582 41.4227 28.5896 41.4308 28.6081C41.4348 28.6173 41.4372 28.623 41.4379 28.6247C41.4382 28.6256 41.4381 28.6254 41.4376 28.6241C41.4374 28.6234 41.437 28.6225 41.4366 28.6213C41.4363 28.6207 41.4361 28.62 41.4358 28.6193C41.4356 28.6189 41.4355 28.6185 41.4353 28.6181C41.4353 28.6179 41.4351 28.6176 41.4351 28.6175C41.435 28.6171 41.4348 28.6168 42.37 28.2626ZM40.7672 25.9502H37.2117V27.9502H40.7672V25.9502ZM37.2117 25.9502C36.2254 25.9502 35.568 26.5429 35.2169 26.9809C35.0342 27.2088 34.9031 27.4314 34.8178 27.5949C34.7745 27.6779 34.7413 27.7489 34.7178 27.8021C34.7061 27.8287 34.6966 27.8511 34.6895 27.8686C34.6859 27.8774 34.6829 27.8849 34.6804 27.8911C34.6792 27.8942 34.6781 27.897 34.6771 27.8995C34.6766 27.9007 34.6762 27.9019 34.6758 27.9029C34.6756 27.9034 34.6754 27.904 34.6752 27.9044C34.6751 27.9047 34.675 27.905 34.6749 27.9052C34.6748 27.9055 34.6747 27.9058 35.6089 28.2626C36.5431 28.6193 36.543 28.6196 36.5428 28.6199C36.5428 28.62 36.5427 28.6204 36.5426 28.6206C36.5424 28.621 36.5423 28.6214 36.5421 28.6217C36.5419 28.6225 36.5416 28.6232 36.5414 28.6237C36.5409 28.6249 36.5405 28.6259 36.5403 28.6265C36.5398 28.6277 36.5397 28.6279 36.5401 28.627C36.5408 28.6253 36.5432 28.6195 36.5473 28.6103C36.5555 28.5917 36.5701 28.5601 36.591 28.5201C36.634 28.4375 36.6971 28.332 36.7774 28.2318C36.9523 28.0136 37.0962 27.9502 37.2117 27.9502V25.9502Z" fill="#E5243B" mask="url(#path-5-inside-2_305_2448)"/>
<path d="M28.944 23.2861C29.5945 23.2861 30.1223 23.8139 30.1223 24.4644C30.1223 25.1148 29.5945 25.6426 28.944 25.6426C28.2934 25.6426 27.7656 25.1148 27.7656 24.4644C27.7656 23.8139 28.2934 23.2861 28.944 23.2861Z" fill="#E5243B" stroke="#E5243B"/>
<mask id="path-8-inside-3_305_2448" fill="white">
<path d="M25.563 28.2626L24.171 32.8042C24.171 32.8042 23.9204 33.6353 24.6283 33.8461C25.3323 34.0529 25.5431 33.2416 25.5431 33.2416L26.6686 29.4517C26.6686 29.4517 26.7283 29.1613 26.947 29.225C27.1658 29.2886 27.0822 29.5988 27.0822 29.5988L25.1255 36.7015H26.947V41.788C26.947 42.2692 27.3407 42.6589 27.822 42.6589C28.3032 42.6589 28.6969 42.2692 28.6969 41.788V36.7015H29.1941V41.788C29.1941 42.2692 29.5838 42.6589 30.0691 42.6589C30.5543 42.6589 30.944 42.2692 30.944 41.788V36.7015H32.7656L30.8088 29.5988C30.8088 29.5988 30.7253 29.2886 30.944 29.225C31.1628 29.1613 31.2264 29.4517 31.2264 29.4517L32.3519 33.2416C32.3519 33.2416 32.5667 34.0529 33.2667 33.8461C33.9746 33.6393 33.724 32.8042 33.724 32.8042L32.3281 28.2626C32.3281 28.2626 31.8309 26.9502 30.7253 26.9502H27.1697C26.0681 26.9502 25.5669 28.2626 25.5669 28.2626"/>
</mask>
<path d="M25.563 28.2626L24.171 32.8042C24.171 32.8042 23.9204 33.6353 24.6283 33.8461C25.3323 34.0529 25.5431 33.2416 25.5431 33.2416L26.6686 29.4517C26.6686 29.4517 26.7283 29.1613 26.947 29.225C27.1658 29.2886 27.0822 29.5988 27.0822 29.5988L25.1255 36.7015H26.947V41.788C26.947 42.2692 27.3407 42.6589 27.822 42.6589C28.3032 42.6589 28.6969 42.2692 28.6969 41.788V36.7015H29.1941V41.788C29.1941 42.2692 29.5838 42.6589 30.0691 42.6589C30.5543 42.6589 30.944 42.2692 30.944 41.788V36.7015H32.7656L30.8088 29.5988C30.8088 29.5988 30.7253 29.2886 30.944 29.225C31.1628 29.1613 31.2264 29.4517 31.2264 29.4517L32.3519 33.2416C32.3519 33.2416 32.5667 34.0529 33.2667 33.8461C33.9746 33.6393 33.724 32.8042 33.724 32.8042L32.3281 28.2626C32.3281 28.2626 31.8309 26.9502 30.7253 26.9502H27.1697C26.0681 26.9502 25.5669 28.2626 25.5669 28.2626" fill="#E5243B"/>
<path d="M24.171 32.8042L23.2149 32.5111L23.2135 32.5155L24.171 32.8042ZM24.6283 33.8461L24.343 34.8045L24.3465 34.8056L24.6283 33.8461ZM25.5431 33.2416L24.5845 32.9569L24.5796 32.9735L24.5752 32.9902L25.5431 33.2416ZM26.6686 29.4517L27.6272 29.7363L27.6395 29.6951L27.6481 29.6529L26.6686 29.4517ZM27.0822 29.5988L28.0463 29.8644L28.0478 29.8588L27.0822 29.5988ZM25.1255 36.7015L24.1614 36.4359L23.8127 37.7015H25.1255V36.7015ZM26.947 36.7015H27.947V35.7015H26.947V36.7015ZM28.6969 36.7015V35.7015H27.6969V36.7015H28.6969ZM29.1941 36.7015H30.1941V35.7015H29.1941V36.7015ZM30.944 36.7015V35.7015H29.944V36.7015H30.944ZM32.7656 36.7015V37.7015H34.0783L33.7296 36.4359L32.7656 36.7015ZM30.8088 29.5988L29.8432 29.8588L29.8447 29.8644L30.8088 29.5988ZM31.2264 29.4517L30.2496 29.6658L30.2574 29.7014L30.2678 29.7363L31.2264 29.4517ZM32.3519 33.2416L33.3186 32.9857L33.3148 32.9713L33.3106 32.9569L32.3519 33.2416ZM33.2667 33.8461L32.9863 32.8862L32.9833 32.8871L33.2667 33.8461ZM33.724 32.8042L34.6819 32.5168L34.6799 32.5104L33.724 32.8042ZM32.3281 28.2626L33.2839 27.9688L33.2745 27.9382L33.2632 27.9083L32.3281 28.2626ZM24.6069 27.9695L23.2149 32.5111L25.1271 33.0972L26.5191 28.5556L24.6069 27.9695ZM24.171 32.8042C23.2135 32.5155 23.2134 32.5159 23.2133 32.5163C23.2132 32.5165 23.2131 32.5169 23.213 32.5172C23.2129 32.5177 23.2127 32.5183 23.2125 32.5189C23.2122 32.5201 23.2118 32.5213 23.2114 32.5226C23.2107 32.5252 23.2098 32.528 23.209 32.5311C23.2072 32.5372 23.2052 32.5443 23.2031 32.5522C23.1988 32.568 23.1938 32.5875 23.1884 32.6103C23.1777 32.6555 23.1652 32.7153 23.1544 32.7861C23.1335 32.9224 23.1148 33.1253 23.1402 33.3558C23.1656 33.5861 23.2401 33.8867 23.4417 34.1718C23.6541 34.4721 23.9631 34.6914 24.343 34.8045L24.9137 32.8877C24.9396 32.8954 25.0145 32.9318 25.0747 33.017C25.0996 33.0522 25.1131 33.0836 25.1201 33.1044C25.1269 33.1244 25.1281 33.1361 25.1281 33.1364C25.1282 33.1368 25.1277 33.1316 25.1281 33.1209C25.1286 33.1105 25.1297 33.0993 25.1314 33.0886C25.133 33.0782 25.1345 33.0713 25.1348 33.0703C25.1349 33.0699 25.1345 33.0714 25.1336 33.0749C25.1331 33.0767 25.1324 33.0791 25.1316 33.082C25.1312 33.0835 25.1307 33.0851 25.1302 33.0869C25.1299 33.0878 25.1296 33.0888 25.1293 33.0897C25.1292 33.0902 25.129 33.0907 25.1289 33.0912C25.1288 33.0915 25.1287 33.0919 25.1287 33.092C25.1285 33.0924 25.1284 33.0928 24.171 32.8042ZM24.3465 34.8056C24.7187 34.9149 25.0937 34.9042 25.4361 34.7688C25.7626 34.6396 25.9877 34.4258 26.1325 34.2437C26.2768 34.0622 26.3671 33.8802 26.4203 33.7543C26.448 33.6887 26.4685 33.6316 26.4829 33.5875C26.4902 33.5654 26.4961 33.5461 26.5007 33.5303C26.503 33.5224 26.505 33.5153 26.5067 33.5091C26.5075 33.506 26.5083 33.5031 26.509 33.5004C26.5094 33.4991 26.5097 33.4978 26.51 33.4966C26.5102 33.496 26.5104 33.4954 26.5105 33.4948C26.5106 33.4945 26.5107 33.4941 26.5107 33.4939C26.5108 33.4935 26.5109 33.4931 25.5431 33.2416C24.5752 32.9902 24.5753 32.9897 24.5754 32.9893C24.5755 32.9892 24.5756 32.9888 24.5756 32.9885C24.5758 32.988 24.5759 32.9875 24.5761 32.987C24.5763 32.9859 24.5766 32.985 24.5768 32.984C24.5773 32.9821 24.5778 32.9804 24.5782 32.9788C24.5791 32.9757 24.5798 32.9731 24.5804 32.9711C24.5816 32.967 24.5823 32.965 24.5824 32.9646C24.5825 32.9642 24.581 32.9687 24.578 32.9761C24.5696 32.9958 24.5633 33.0037 24.5669 32.9991C24.571 32.994 24.6114 32.9442 24.7004 32.909C24.8053 32.8675 24.89 32.8807 24.9102 32.8867L24.3465 34.8056ZM26.5017 33.5263L27.6272 29.7363L25.71 29.167L24.5845 32.9569L26.5017 33.5263ZM26.6686 29.4517C27.6481 29.6529 27.6481 29.6533 27.648 29.6537C27.648 29.6538 27.6479 29.6542 27.6478 29.6544C27.6477 29.6549 27.6476 29.6554 27.6475 29.6558C27.6473 29.6568 27.6471 29.6577 27.6469 29.6587C27.6465 29.6606 27.6462 29.6624 27.6458 29.6642C27.645 29.6678 27.6442 29.6713 27.6434 29.6747C27.6418 29.6814 27.6402 29.6879 27.6386 29.694C27.6354 29.7061 27.6317 29.7188 27.6271 29.7323C27.6198 29.7534 27.6019 29.8019 27.5627 29.8617C27.526 29.918 27.4344 30.0396 27.2603 30.1271C27.0589 30.2283 26.8422 30.2359 26.6677 30.1852L27.2263 28.2648C26.9425 28.1822 26.6363 28.2023 26.3622 28.34C26.1154 28.4641 25.9679 28.6463 25.8888 28.7672C25.8074 28.8917 25.7609 29.0087 25.7356 29.0823C25.722 29.122 25.7119 29.1569 25.7046 29.1846C25.7009 29.1986 25.6978 29.2112 25.6953 29.2221C25.694 29.2276 25.6928 29.2327 25.6918 29.2374C25.6913 29.2398 25.6908 29.2421 25.6904 29.2442C25.6901 29.2453 25.6899 29.2463 25.6897 29.2474C25.6896 29.2479 25.6895 29.2484 25.6894 29.2489C25.6893 29.2491 25.6893 29.2495 25.6892 29.2496C25.6892 29.25 25.6891 29.2504 26.6686 29.4517ZM26.6677 30.1852C26.4708 30.1279 26.3052 29.9944 26.2041 29.8266C26.1182 29.6843 26.1031 29.5594 26.0995 29.5111C26.0954 29.4569 26.1002 29.4194 26.1025 29.4042C26.1039 29.3941 26.1058 29.3843 26.1079 29.3745C26.109 29.3694 26.1102 29.364 26.1116 29.3582C26.1124 29.3553 26.1131 29.3522 26.1139 29.349C26.1144 29.3474 26.1148 29.3457 26.1152 29.344C26.1155 29.3432 26.1157 29.3423 26.1159 29.3415C26.116 29.341 26.1161 29.3406 26.1163 29.3401C26.1163 29.3399 26.1164 29.3396 26.1164 29.3395C26.1165 29.3391 26.1166 29.3388 27.0822 29.5988C28.0478 29.8588 28.0479 29.8585 28.048 29.8581C28.0481 29.858 28.0481 29.8577 28.0482 29.8574C28.0483 29.857 28.0485 29.8565 28.0486 29.856C28.0488 29.8551 28.0491 29.8541 28.0494 29.8531C28.0499 29.8511 28.0504 29.849 28.051 29.8468C28.0521 29.8424 28.0533 29.8376 28.0546 29.8324C28.0571 29.822 28.06 29.8099 28.0629 29.7962C28.0687 29.7692 28.0754 29.7347 28.0813 29.6945C28.0923 29.6191 28.1044 29.5001 28.0938 29.3604C28.0746 29.1057 27.9302 28.4695 27.2263 28.2648L26.6677 30.1852ZM26.1181 29.3332L24.1614 36.4359L26.0896 36.9671L28.0463 29.8644L26.1181 29.3332ZM25.1255 37.7015H26.947V35.7015H25.1255V37.7015ZM25.947 36.7015V41.788H27.947V36.7015H25.947ZM25.947 41.788C25.947 42.8274 26.7945 43.6589 27.822 43.6589V41.6589C27.887 41.6589 27.947 41.7109 27.947 41.788H25.947ZM27.822 43.6589C28.8495 43.6589 29.6969 42.8274 29.6969 41.788H27.6969C27.6969 41.7109 27.7569 41.6589 27.822 41.6589V43.6589ZM29.6969 41.788V36.7015H27.6969V41.788H29.6969ZM28.6969 37.7015H29.1941V35.7015H28.6969V37.7015ZM28.1941 36.7015V41.788H30.1941V36.7015H28.1941ZM28.1941 41.788C28.1941 42.8245 29.0346 43.6589 30.0691 43.6589V41.6589C30.1331 41.6589 30.1941 41.7138 30.1941 41.788H28.1941ZM30.0691 43.6589C31.1035 43.6589 31.944 42.8245 31.944 41.788H29.944C29.944 41.7138 30.005 41.6589 30.0691 41.6589V43.6589ZM31.944 41.788V36.7015H29.944V41.788H31.944ZM30.944 37.7015H32.7656V35.7015H30.944V37.7015ZM33.7296 36.4359L31.7729 29.3332L29.8447 29.8644L31.8015 36.9671L33.7296 36.4359ZM30.8088 29.5988C31.7744 29.3388 31.7745 29.3391 31.7746 29.3395C31.7746 29.3396 31.7747 29.3399 31.7748 29.3401C31.7749 29.3406 31.775 29.341 31.7751 29.3415C31.7754 29.3423 31.7756 29.3432 31.7758 29.344C31.7763 29.3457 31.7767 29.3474 31.7771 29.349C31.7779 29.3522 31.7787 29.3553 31.7794 29.3582C31.7808 29.364 31.7821 29.3694 31.7832 29.3745C31.7853 29.3843 31.7871 29.3941 31.7886 29.4042C31.7908 29.4194 31.7956 29.4569 31.7915 29.5111C31.7879 29.5594 31.7728 29.6843 31.687 29.8266C31.5858 29.9944 31.4203 30.1279 31.2233 30.1852L30.6647 28.2648C29.9609 28.4695 29.8165 29.1057 29.7972 29.3604C29.7867 29.5001 29.7987 29.6191 29.8098 29.6945C29.8157 29.7347 29.8223 29.7692 29.8281 29.7962C29.8311 29.8099 29.8339 29.822 29.8364 29.8324C29.8377 29.8376 29.8389 29.8424 29.84 29.8468C29.8406 29.849 29.8412 29.8511 29.8417 29.8531C29.8419 29.8541 29.8422 29.8551 29.8425 29.856C29.8426 29.8565 29.8427 29.857 29.8428 29.8574C29.8429 29.8577 29.843 29.858 29.843 29.8581C29.8431 29.8584 29.8432 29.8588 30.8088 29.5988ZM31.2233 30.1852C31.0479 30.2362 30.8332 30.2275 30.6351 30.1289C30.4638 30.0437 30.3728 29.9254 30.3362 29.8706C30.2971 29.8123 30.279 29.765 30.2715 29.7442C30.2668 29.731 30.2629 29.7185 30.2596 29.7066C30.2579 29.7004 30.2563 29.6941 30.2546 29.6874C30.2538 29.684 30.253 29.6806 30.2521 29.677C30.2517 29.6752 30.2513 29.6733 30.2509 29.6715C30.2507 29.6705 30.2504 29.6696 30.2502 29.6686C30.2501 29.6682 30.25 29.6677 30.2499 29.6672C30.2499 29.667 30.2498 29.6666 30.2498 29.6665C30.2497 29.6661 30.2496 29.6658 31.2264 29.4517C32.2032 29.2376 32.2031 29.2372 32.2031 29.2368C32.203 29.2367 32.2029 29.2363 32.2029 29.2361C32.2028 29.2356 32.2027 29.2351 32.2026 29.2346C32.2023 29.2335 32.2021 29.2325 32.2019 29.2314C32.2014 29.2293 32.2009 29.227 32.2003 29.2247C32.1992 29.22 32.198 29.2149 32.1967 29.2094C32.194 29.1985 32.1907 29.186 32.1869 29.172C32.1792 29.1445 32.1687 29.1098 32.1546 29.0704C32.1284 28.9971 32.0806 28.8812 31.9983 28.7583C31.9184 28.6389 31.7706 28.46 31.5258 28.3382C31.2542 28.2031 30.9496 28.1819 30.6647 28.2648L31.2233 30.1852ZM30.2678 29.7363L31.3933 33.5263L33.3106 32.9569L32.185 29.167L30.2678 29.7363ZM32.3519 33.2416C31.3852 33.4975 31.3853 33.498 31.3855 33.4984C31.3855 33.4985 31.3856 33.4989 31.3857 33.4992C31.3858 33.4998 31.386 33.5004 31.3862 33.501C31.3865 33.5022 31.3868 33.5035 31.3872 33.5048C31.3879 33.5074 31.3887 33.5103 31.3896 33.5134C31.3913 33.5196 31.3933 33.5266 31.3956 33.5345C31.4003 33.5503 31.4062 33.5694 31.4136 33.5915C31.4282 33.6354 31.4488 33.6923 31.4766 33.7576C31.5302 33.8831 31.6209 34.0643 31.7651 34.2451C31.9096 34.4262 32.1344 34.6395 32.4601 34.7686C32.8022 34.9041 33.1773 34.9152 33.55 34.8051L32.9833 32.8871C33.006 32.8804 33.0919 32.8676 33.1968 32.9092C33.2854 32.9443 33.3252 32.9936 33.3285 32.9978C33.3315 33.0016 33.3248 32.9929 33.3162 32.9727C33.313 32.9652 33.3114 32.9604 33.3115 32.9606C33.3116 32.9609 33.3122 32.9629 33.3134 32.9669C33.314 32.9689 33.3147 32.9714 33.3156 32.9745C33.316 32.9761 33.3165 32.9778 33.317 32.9796C33.3173 32.9806 33.3175 32.9815 33.3178 32.9826C33.3179 32.9831 33.3181 32.9836 33.3182 32.9841C33.3183 32.9844 33.3184 32.9848 33.3184 32.9849C33.3185 32.9853 33.3186 32.9857 32.3519 33.2416ZM33.5471 34.806C33.9287 34.6945 34.2394 34.4754 34.4528 34.1741C34.6551 33.8885 34.7295 33.5872 34.7548 33.3571C34.7802 33.1265 34.7615 32.9235 34.7407 32.7872C34.7299 32.7164 34.7175 32.6566 34.7068 32.6114C34.7015 32.5886 34.6965 32.5692 34.6922 32.5533C34.6901 32.5454 34.6881 32.5384 34.6864 32.5323C34.6855 32.5292 34.6847 32.5264 34.684 32.5238C34.6836 32.5226 34.6832 32.5213 34.6829 32.5201C34.6827 32.5196 34.6825 32.519 34.6824 32.5184C34.6823 32.5182 34.6821 32.5177 34.6821 32.5176C34.682 32.5172 34.6819 32.5168 33.724 32.8042C32.7662 33.0915 32.7661 33.0911 32.766 33.0907C32.7659 33.0906 32.7658 33.0902 32.7658 33.09C32.7656 33.0895 32.7655 33.089 32.7653 33.0885C32.765 33.0875 32.7648 33.0866 32.7645 33.0857C32.764 33.0839 32.7635 33.0823 32.7631 33.0808C32.7623 33.0779 32.7616 33.0756 32.7611 33.0738C32.7602 33.0704 32.7599 33.069 32.76 33.0695C32.7603 33.0708 32.7619 33.0779 32.7636 33.0886C32.7652 33.0995 32.7664 33.1111 32.7669 33.1218C32.7674 33.1328 32.7668 33.1383 32.7668 33.1381C32.7669 33.138 32.768 33.1264 32.7748 33.1063C32.7818 33.0855 32.7955 33.0537 32.8208 33.018C32.8821 32.9315 32.9586 32.8943 32.9863 32.8862L33.5471 34.806ZM34.6799 32.5104L33.2839 27.9688L31.3722 28.5564L32.7682 33.098L34.6799 32.5104ZM32.3281 28.2626C33.2632 27.9083 33.2631 27.908 33.263 27.9076C33.2629 27.9075 33.2628 27.9072 33.2627 27.9069C33.2625 27.9064 33.2623 27.9059 33.2621 27.9054C33.2617 27.9043 33.2613 27.9032 33.2608 27.9019C33.2598 27.8994 33.2587 27.8966 33.2575 27.8935C33.2551 27.8873 33.252 27.8797 33.2485 27.8709C33.2413 27.8534 33.2319 27.8309 33.2202 27.8042C33.1968 27.7509 33.1638 27.6798 33.1206 27.5967C33.0356 27.4329 32.9048 27.2099 32.7221 26.9817C32.3705 26.5421 31.7129 25.9502 30.7253 25.9502V27.9502C30.8433 27.9502 30.9871 28.0145 31.1604 28.2311C31.2403 28.3309 31.3029 28.4361 31.3456 28.5183C31.3663 28.5582 31.3808 28.5896 31.3889 28.6081C31.3929 28.6173 31.3953 28.623 31.396 28.6247C31.3963 28.6256 31.3962 28.6254 31.3957 28.6241C31.3955 28.6234 31.3951 28.6225 31.3946 28.6213C31.3944 28.6207 31.3941 28.62 31.3939 28.6193C31.3937 28.6189 31.3936 28.6185 31.3934 28.6181C31.3933 28.6179 31.3932 28.6176 31.3932 28.6175C31.393 28.6171 31.3929 28.6168 32.3281 28.2626ZM30.7253 25.9502H27.1697V27.9502H30.7253V25.9502ZM27.1697 25.9502C26.1835 25.9502 25.526 26.5429 25.1749 26.9809C24.9923 27.2088 24.8612 27.4314 24.7759 27.5949C24.7326 27.6779 24.6994 27.7489 24.6759 27.8021C24.6641 27.8287 24.6547 27.8511 24.6475 27.8686C24.6439 27.8774 24.6409 27.8849 24.6385 27.8911C24.6372 27.8942 24.6361 27.897 24.6352 27.8995C24.6347 27.9007 24.6343 27.9019 24.6339 27.9029C24.6337 27.9034 24.6335 27.904 24.6333 27.9044C24.6332 27.9047 24.633 27.905 24.633 27.9052C24.6329 27.9055 24.6327 27.9058 25.5669 28.2626C26.5012 28.6193 26.501 28.6196 26.5009 28.6199C26.5009 28.62 26.5007 28.6204 26.5007 28.6206C26.5005 28.621 26.5004 28.6214 26.5002 28.6217C26.4999 28.6225 26.4997 28.6232 26.4994 28.6238C26.499 28.6249 26.4986 28.6259 26.4984 28.6265C26.4979 28.6277 26.4978 28.6279 26.4982 28.627C26.4989 28.6253 26.5013 28.6195 26.5053 28.6103C26.5136 28.5917 26.5281 28.5601 26.549 28.5201C26.5921 28.4375 26.6552 28.332 26.7355 28.2318C26.9104 28.0136 27.0543 27.9502 27.1697 27.9502V25.9502Z" fill="#E5243B" mask="url(#path-8-inside-3_305_2448)"/>
<path d="M47.2041 32.4574C47.2041 32.9528 46.8035 33.3533 46.3081 33.3533C45.8126 33.3533 45.4121 32.9528 45.4121 32.4574C45.4121 31.9621 45.8126 31.5615 46.3081 31.5615C46.8035 31.5615 47.2041 31.9621 47.2041 32.4574Z" fill="#E5243B" stroke="#E5243B"/>
<path d="M48.3298 35.9742C48.3299 35.9742 48.3299 35.9742 48.3299 35.9742L48.0338 36.1914C48.1778 36.0858 48.2704 36.0179 48.3298 35.9742ZM47.0105 41.938V39.7082C47.0106 39.7079 47.0106 39.7076 47.0106 39.7072C47.0119 39.688 47.013 39.6627 47.0128 39.6332C47.0123 39.5775 47.007 39.4911 46.9807 39.3954C46.9548 39.3013 46.8998 39.1665 46.7773 39.0525C46.644 38.9286 46.4734 38.8689 46.2958 38.8689C46.1182 38.8689 45.9476 38.9286 45.8143 39.0525C45.6918 39.1665 45.6367 39.3014 45.6108 39.3954C45.5845 39.4911 45.5793 39.5775 45.5788 39.6332C45.5785 39.6627 45.5796 39.688 45.581 39.7072C45.581 39.7076 45.581 39.7079 45.581 39.7082V41.938C45.581 42.0595 45.4867 42.1538 45.3651 42.1538C45.2435 42.1538 45.1492 42.0595 45.1492 41.938V36.2391C45.1492 36.1909 45.1452 36.1199 45.121 36.0423C45.0968 35.9645 45.0394 35.8408 44.9061 35.752C44.7652 35.6581 44.6177 35.6544 44.5183 35.6725C44.5073 35.6745 44.4967 35.6768 44.4864 35.6793C44.5932 35.4514 44.6844 35.2855 44.7705 35.163C44.8641 35.0298 44.9299 34.9813 44.9744 34.9583C45.0203 34.9345 45.089 34.9141 45.2304 34.9095C45.588 34.8977 45.8521 34.8958 46.0251 34.8968C46.1115 34.8973 46.1753 34.8985 46.2166 34.8995L46.2617 34.9008L46.2717 34.9012L46.2733 34.9013L46.2734 34.9013L46.2735 34.9013L46.2735 34.9013L46.2736 34.9013L46.2737 34.9013L46.2936 34.9022L46.3137 34.9015L46.3137 34.9015L46.3138 34.9015L46.3138 34.9015L46.3138 34.9015L46.314 34.9015L46.3162 34.9014L46.326 34.9011L46.3678 34.9C46.4052 34.8991 46.4614 34.898 46.5349 34.8973C46.6814 34.8958 46.8963 34.8958 47.1661 34.9016C47.4725 34.9105 47.6401 34.9174 47.7804 34.9814C47.8789 35.0264 48.0213 35.1283 48.1448 35.4887C48.1601 35.5342 48.1891 35.6121 48.2277 35.7125C48.2126 35.7045 48.1964 35.6968 48.1793 35.6898C48.116 35.6639 48.0016 35.6316 47.8632 35.663C47.7119 35.6974 47.606 35.7907 47.5439 35.8838C47.4467 36.0296 47.4463 36.1873 47.4463 36.2391V41.938C47.4463 42.0541 47.3495 42.1538 47.2264 42.1538C47.107 42.1538 47.0105 42.0577 47.0105 41.938ZM44.518 36.2351L44.3132 36.0703C44.3132 36.0703 44.3132 36.0703 44.3132 36.0702C44.3653 36.1122 44.4322 36.1661 44.518 36.2351Z" fill="#E5243B" stroke="#E5243B"/>
<path d="M13.8665 22.2598C14.5688 22.2598 15.1403 22.8313 15.1403 23.5335C15.1403 24.2356 14.5688 24.8071 13.8665 24.8071C13.165 24.8071 12.5967 24.2403 12.5967 23.5335C12.5967 22.8266 13.165 22.2598 13.8665 22.2598Z" fill="#E5243B" stroke="#E5243B"/>
<mask id="path-13-inside-4_305_2448" fill="white">
<path d="M11.798 25.9875C10.5969 26.0949 9.6543 27.109 9.6543 28.3418V33.2533C9.6543 33.6311 9.96054 33.9413 10.3423 33.9413C10.7241 33.9413 11.0304 33.6311 11.0304 33.2533V29.0338C11.0304 28.8747 11.0781 28.66 11.3645 28.66C11.5633 28.66 11.6071 28.8708 11.615 29.006V41.6485C11.615 42.1933 12.0525 42.6348 12.6014 42.6348C13.1502 42.6348 13.5877 42.1933 13.5877 41.6485V34.3628C13.5917 34.2833 13.6195 34.0725 13.8701 34.0725C14.1206 34.0725 14.1524 34.2833 14.1564 34.3628V41.6485C14.1564 42.1933 14.5979 42.6348 15.1427 42.6348C15.6876 42.6348 16.1291 42.1933 16.1291 41.6485V29.006C16.133 28.8708 16.1808 28.66 16.3796 28.66C16.67 28.66 16.7137 28.8747 16.7137 29.0338V33.2533C16.7137 33.6311 17.0199 33.9413 17.4017 33.9413C17.7836 33.9413 18.0898 33.6311 18.0898 33.2533V28.3418C18.0898 27.109 17.1472 26.0989 15.9421 25.9875C15.9024 25.9835 15.8586 25.9756 15.8109 25.9756H11.9372C11.8855 25.9756 11.8457 25.9796 11.8019 25.9875"/>
</mask>
<path d="M11.798 25.9875C10.5969 26.0949 9.6543 27.109 9.6543 28.3418V33.2533C9.6543 33.6311 9.96054 33.9413 10.3423 33.9413C10.7241 33.9413 11.0304 33.6311 11.0304 33.2533V29.0338C11.0304 28.8747 11.0781 28.66 11.3645 28.66C11.5633 28.66 11.6071 28.8708 11.615 29.006V41.6485C11.615 42.1933 12.0525 42.6348 12.6014 42.6348C13.1502 42.6348 13.5877 42.1933 13.5877 41.6485V34.3628C13.5917 34.2833 13.6195 34.0725 13.8701 34.0725C14.1206 34.0725 14.1524 34.2833 14.1564 34.3628V41.6485C14.1564 42.1933 14.5979 42.6348 15.1427 42.6348C15.6876 42.6348 16.1291 42.1933 16.1291 41.6485V29.006C16.133 28.8708 16.1808 28.66 16.3796 28.66C16.67 28.66 16.7137 28.8747 16.7137 29.0338V33.2533C16.7137 33.6311 17.0199 33.9413 17.4017 33.9413C17.7836 33.9413 18.0898 33.6311 18.0898 33.2533V28.3418C18.0898 27.109 17.1472 26.0989 15.9421 25.9875C15.9024 25.9835 15.8586 25.9756 15.8109 25.9756H11.9372C11.8855 25.9756 11.8457 25.9796 11.8019 25.9875" fill="#E5243B"/>
<path d="M11.615 29.006H12.615V28.9766L12.6133 28.9472L11.615 29.006ZM13.5877 34.3628L12.5889 34.3129L12.5877 34.3379V34.3628H13.5877ZM14.1564 34.3628H15.1564V34.3379L15.1552 34.3129L14.1564 34.3628ZM16.1291 29.006L15.1295 28.9766L15.1291 28.9913V29.006H16.1291ZM15.9421 25.9875L15.8426 26.9826L15.8501 26.9833L15.9421 25.9875ZM11.7089 24.9915C9.99372 25.1448 8.6543 26.5896 8.6543 28.3418H10.6543C10.6543 27.6284 11.2 27.045 11.887 26.9835L11.7089 24.9915ZM8.6543 28.3418V33.2533H10.6543V28.3418H8.6543ZM8.6543 33.2533C8.6543 34.1797 9.40455 34.9413 10.3423 34.9413V32.9413C10.5165 32.9413 10.6543 33.0825 10.6543 33.2533H8.6543ZM10.3423 34.9413C11.2801 34.9413 12.0304 34.1797 12.0304 33.2533H10.0304C10.0304 33.0825 10.1682 32.9413 10.3423 32.9413V34.9413ZM12.0304 33.2533V29.0338H10.0304V33.2533H12.0304ZM12.0304 29.0338C12.0304 29.0408 12.0302 29.0701 12.0209 29.1143C12.0117 29.158 11.9887 29.2393 11.929 29.3315C11.8645 29.4309 11.768 29.5251 11.6426 29.5885C11.5219 29.6495 11.4182 29.66 11.3645 29.66V27.66C10.9286 27.66 10.507 27.8486 10.2511 28.243C10.0458 28.5594 10.0304 28.8877 10.0304 29.0338H12.0304ZM11.3645 29.66C11.2265 29.66 11.0682 29.6199 10.9244 29.5221C10.7896 29.4306 10.7149 29.3209 10.6772 29.2496C10.6406 29.1802 10.6273 29.126 10.6228 29.1048C10.6177 29.0811 10.6169 29.067 10.6167 29.0647L12.6133 28.9472C12.6065 28.8315 12.5824 28.5742 12.4454 28.3149C12.2769 27.9961 11.9156 27.66 11.3645 27.66V29.66ZM10.615 29.006V41.6485H12.615V29.006H10.615ZM10.615 41.6485C10.615 42.743 11.4977 43.6348 12.6014 43.6348V41.6348C12.5999 41.6348 12.5999 41.6346 12.601 41.6348C12.6019 41.635 12.6032 41.6354 12.6046 41.636C12.6073 41.6371 12.6092 41.6386 12.6104 41.6398C12.6116 41.641 12.6129 41.6427 12.6139 41.645C12.6144 41.6462 12.6147 41.6474 12.6149 41.6484C12.6151 41.6494 12.615 41.6495 12.615 41.6485H10.615ZM12.6014 43.6348C13.705 43.6348 14.5877 42.743 14.5877 41.6485H12.5877C12.5877 41.6495 12.5876 41.6494 12.5878 41.6484C12.588 41.6474 12.5883 41.6462 12.5888 41.645C12.5898 41.6427 12.5911 41.641 12.5923 41.6398C12.5935 41.6386 12.5954 41.6371 12.5981 41.636C12.5995 41.6354 12.6008 41.635 12.6017 41.6348C12.6028 41.6346 12.6028 41.6348 12.6014 41.6348V43.6348ZM14.5877 41.6485V34.3628H12.5877V41.6485H14.5877ZM14.5864 34.4128C14.5861 34.42 14.5843 34.5565 14.4867 34.7142C14.429 34.8073 14.3375 34.9082 14.2054 34.9814C14.0738 35.0543 13.951 35.0725 13.8701 35.0725V33.0725C13.4019 33.0725 13.009 33.3015 12.7861 33.6615C12.6109 33.9445 12.5933 34.2261 12.5889 34.3129L14.5864 34.4128ZM13.8701 35.0725C13.7889 35.0725 13.6681 35.0543 13.5389 34.9834C13.4096 34.9125 13.3191 34.8146 13.2615 34.7239C13.163 34.5688 13.1587 34.4342 13.1577 34.4128L15.1552 34.3129C15.1501 34.212 15.1279 33.9322 14.9499 33.6518C14.7261 33.2993 14.3365 33.0725 13.8701 33.0725V35.0725ZM13.1564 34.3628V41.6485H15.1564V34.3628H13.1564ZM13.1564 41.6485C13.1564 42.7457 14.0456 43.6348 15.1427 43.6348V41.6348C15.1423 41.6348 15.1429 41.6347 15.1443 41.635C15.1456 41.6353 15.147 41.6357 15.1482 41.6362C15.1506 41.6372 15.1518 41.6382 15.1523 41.6388C15.1529 41.6394 15.1539 41.6406 15.1549 41.643C15.1555 41.6442 15.1559 41.6456 15.1562 41.6469C15.1564 41.6483 15.1564 41.6489 15.1564 41.6485H13.1564ZM15.1427 43.6348C16.2398 43.6348 17.1291 42.7457 17.1291 41.6485H15.1291C15.1291 41.6489 15.129 41.6483 15.1293 41.6469C15.1296 41.6456 15.13 41.6442 15.1305 41.643C15.1316 41.6406 15.1326 41.6394 15.1331 41.6388C15.1337 41.6382 15.1349 41.6372 15.1373 41.6362C15.1385 41.6357 15.1399 41.6353 15.1412 41.635C15.1425 41.6347 15.1432 41.6348 15.1427 41.6348V43.6348ZM17.1291 41.6485V29.006H15.1291V41.6485H17.1291ZM17.1286 29.0354C17.1285 29.0407 17.1293 29.1302 17.0627 29.2545C17.0238 29.3271 16.9487 29.435 16.8155 29.5246C16.6737 29.6201 16.5173 29.66 16.3796 29.66V27.66C15.833 27.66 15.4707 27.9911 15.2998 28.31C15.1586 28.5735 15.1336 28.836 15.1295 28.9766L17.1286 29.0354ZM16.3796 29.66C16.3291 29.66 16.226 29.6503 16.1046 29.5892C15.9778 29.5254 15.8796 29.4296 15.814 29.3274C15.7535 29.2332 15.7311 29.1503 15.7224 29.1074C15.7136 29.0641 15.7137 29.0364 15.7137 29.0338H17.7137C17.7137 28.8975 17.7022 28.5665 17.4971 28.247C17.2391 27.8452 16.8126 27.66 16.3796 27.66V29.66ZM15.7137 29.0338V33.2533H17.7137V29.0338H15.7137ZM15.7137 33.2533C15.7137 34.1797 16.464 34.9413 17.4017 34.9413V32.9413C17.5759 32.9413 17.7137 33.0825 17.7137 33.2533H15.7137ZM17.4017 34.9413C18.3395 34.9413 19.0898 34.1797 19.0898 33.2533H17.0898C17.0898 33.0825 17.2276 32.9413 17.4017 32.9413V34.9413ZM19.0898 33.2533V28.3418H17.0898V33.2533H19.0898ZM19.0898 28.3418C19.0898 26.5859 17.7472 25.15 16.0342 24.9918L15.8501 26.9833C16.5473 27.0477 17.0898 27.6321 17.0898 28.3418H19.0898ZM16.0416 24.9925C16.045 24.9928 16.0455 24.9929 16.0356 24.9917C16.029 24.9909 16.0105 24.9885 15.9924 24.9865C15.9538 24.9821 15.8888 24.9756 15.8109 24.9756V26.9756C15.7951 26.9756 15.7829 26.9749 15.7755 26.9744C15.7682 26.9739 15.7645 26.9734 15.7666 26.9737C15.7676 26.9738 15.7695 26.974 15.7731 26.9744C15.7776 26.975 15.7803 26.9753 15.7875 26.9763C15.7935 26.977 15.8016 26.978 15.8105 26.979C15.8195 26.9801 15.8304 26.9813 15.8426 26.9826L16.0416 24.9925ZM15.8109 24.9756H11.9372V26.9756H15.8109V24.9756ZM11.9372 24.9756C11.8245 24.9756 11.7249 24.9851 11.6231 25.0036L11.9808 26.9714C11.978 26.9719 11.9692 26.9734 11.9571 26.9745C11.9515 26.975 11.9467 26.9753 11.9429 26.9754C11.9392 26.9756 11.9371 26.9756 11.9372 26.9756V24.9756Z" fill="#E5243B" mask="url(#path-13-inside-4_305_2448)"/>
<path d="M10.2507 33.9648L8.67969 42.3044" stroke="#E5243B" stroke-width="1.31" stroke-miterlimit="10" stroke-linecap="round"/>
<path d="M18.4997 33.3906L18.6471 33.6214H18.6501C18.6598 33.6378 18.6699 33.6548 18.6804 33.6724C18.7407 33.774 18.8126 33.8951 18.8873 34.0188C18.9856 34.1815 19.0924 34.3545 19.1901 34.5025C19.2772 34.6344 19.3856 34.7914 19.4838 34.8884C19.6598 35.0638 19.8438 35.1567 20.0029 35.2012C20.081 35.223 20.1499 35.2323 20.205 35.2354C20.2326 35.237 20.2568 35.237 20.2771 35.2363C20.2796 35.2362 20.282 35.2361 20.2844 35.236H21.9414C21.9419 35.2361 21.9423 35.2361 21.9428 35.2361C21.9638 35.2372 21.9886 35.2375 22.0168 35.2363C22.0733 35.2338 22.1434 35.225 22.2226 35.203C22.3847 35.1582 22.5689 35.0631 22.7444 34.885C22.8395 34.7893 22.9465 34.634 23.0333 34.5023C23.1304 34.3548 23.2372 34.1822 23.3355 34.0201C23.403 33.9089 23.4687 33.799 23.5254 33.7043C23.542 33.6766 23.5578 33.6502 23.5726 33.6254H23.5803L23.7083 33.4159C23.705 33.4238 23.7016 33.432 23.6981 33.4404C23.6805 33.4823 23.6625 33.5227 23.6487 33.5531L23.6334 33.5867L22.3414 35.9217L22.3341 35.9348L22.3276 35.9484L22.7788 36.1637C22.3276 35.9484 22.3276 35.9484 22.3275 35.9485L22.3275 35.9487L22.3273 35.949L22.3269 35.9498L22.3262 35.9514L22.3242 35.9556L22.319 35.9671C22.3149 35.9761 22.3098 35.9879 22.3039 36.0021C22.2922 36.0302 22.2771 36.0691 22.262 36.1152C22.2343 36.1997 22.1953 36.3413 22.1953 36.4978V41.97C22.1953 42.0737 22.1109 42.158 22.0073 42.158C21.9037 42.158 21.8192 42.0737 21.8192 41.97V39.8324C21.8206 39.8135 21.8217 39.789 21.8216 39.7605C21.8214 39.7058 21.8165 39.6205 21.7907 39.5259C21.7653 39.4327 21.7108 39.2988 21.5888 39.1856C21.4562 39.0626 21.2871 39.0043 21.1124 39.0043C20.9377 39.0043 20.7686 39.0626 20.636 39.1856C20.5141 39.2988 20.4596 39.4327 20.4342 39.5259C20.4084 39.6205 20.4035 39.7058 20.4033 39.7605C20.4031 39.789 20.4043 39.8135 20.4056 39.8324V41.97C20.4056 42.0756 20.3233 42.158 20.2176 42.158C20.1119 42.158 20.0295 42.0756 20.0295 41.97V36.4978C20.0295 36.3377 19.9878 36.1936 19.9586 36.1086C19.9426 36.062 19.9266 36.0228 19.9143 35.9944C19.9081 35.9801 19.9027 35.9682 19.8984 35.9591L19.8928 35.9474L19.8908 35.9432L19.8899 35.9415L19.8896 35.9408L19.8894 35.9405L19.8893 35.9403C19.8893 35.9402 19.8892 35.9401 19.442 36.1637L19.8892 35.9401L19.8847 35.931L19.8797 35.922L18.4943 33.4135C18.4927 33.4083 18.491 33.4027 18.4894 33.397C18.4881 33.3923 18.4869 33.388 18.4859 33.384C18.4862 33.3838 18.4865 33.3836 18.4868 33.3835L18.4868 33.3835C18.4872 33.3833 18.4884 33.3828 18.4913 33.3828C18.4915 33.3829 18.4918 33.383 18.4923 33.3833C18.4944 33.3845 18.4974 33.387 18.4997 33.3906Z" fill="#E5243B" stroke="#E5243B"/>
<path d="M22.0087 32.4574C22.0087 32.9528 21.6082 33.3533 21.1128 33.3533C20.6173 33.3533 20.2168 32.9528 20.2168 32.4574C20.2168 31.9621 20.6173 31.5615 21.1128 31.5615C21.6082 31.5615 22.0087 31.9621 22.0087 32.4574Z" fill="#E5243B" stroke="#E5243B"/>
<path d="M19.9703 37.2636L21.1128 36.4319L22.2554 37.2636L22.7893 39.2267H21.1128H19.4364L19.9703 37.2636Z" fill="#E5243B" stroke="#E5243B"/>
<path d="M88.488 42.336C86.112 42.336 83.736 41.4 82.008 39.744L84.048 37.296C85.32 38.472 87 39.264 88.56 39.264C90.408 39.264 91.392 38.472 91.392 37.224C91.392 35.904 90.312 35.496 88.728 34.824L86.352 33.816C84.552 33.072 82.752 31.632 82.752 29.04C82.752 26.136 85.296 23.904 88.896 23.904C90.96 23.904 93.024 24.72 94.464 26.184L92.664 28.416C91.536 27.48 90.36 26.952 88.896 26.952C87.336 26.952 86.352 27.648 86.352 28.824C86.352 30.096 87.6 30.552 89.112 31.152L91.44 32.136C93.6 33.024 95.016 34.392 95.016 36.96C95.016 39.864 92.592 42.336 88.488 42.336ZM98.1606 42V24.216H103.033C108.457 24.216 111.817 27.048 111.817 33.048C111.817 39.024 108.457 42 103.225 42H98.1606ZM101.713 39.144H102.817C106.129 39.144 108.193 37.368 108.193 33.048C108.193 28.704 106.129 27.072 102.817 27.072H101.713V39.144ZM122.925 42.336C118.101 42.336 114.405 39.12 114.405 33.192C114.405 27.336 118.197 23.904 122.925 23.904C125.493 23.904 127.269 25.008 128.421 26.184L126.549 28.44C125.661 27.6 124.653 26.952 123.045 26.952C120.093 26.952 118.029 29.256 118.029 33.072C118.029 36.936 119.805 39.264 123.309 39.264C124.149 39.264 125.013 39.024 125.517 38.592V35.088H122.373V32.184H128.685V40.2C127.485 41.376 125.397 42.336 122.925 42.336ZM136.049 42.336C134.249 42.336 132.281 41.544 130.937 40.44L132.545 38.232C133.745 39.168 134.897 39.696 136.145 39.696C137.489 39.696 138.089 39.12 138.089 38.28C138.089 37.272 136.697 36.816 135.281 36.264C133.577 35.616 131.681 34.584 131.681 32.328C131.681 29.928 133.625 28.224 136.697 28.224C138.641 28.224 140.153 29.04 141.257 29.88L139.673 32.016C138.713 31.32 137.777 30.864 136.793 30.864C135.569 30.864 134.993 31.392 134.993 32.16C134.993 33.144 136.241 33.504 137.657 34.032C139.433 34.704 141.401 35.592 141.401 38.088C141.401 40.44 139.553 42.336 136.049 42.336ZM149.601 42V39.144H153.417V28.368H150.201V26.184C151.977 25.848 153.201 25.392 154.329 24.696H156.945V39.144H160.281V42H149.601Z" fill="#E5243B"/>
<path d="M190.136 22.224L192.92 23.208C192.152 24.888 191.24 26.592 190.52 27.72L188.048 26.808C188.744 25.584 189.656 23.664 190.136 22.224ZM183.008 26.712L180.416 27.888C180.128 26.712 179.192 24.84 178.256 23.448L180.656 22.392C181.616 23.712 182.648 25.464 183.008 26.712ZM178.064 24.576L176.336 26.856C175.4 26.088 173.408 24.864 172.04 24.048L173.72 22.032C175.04 22.752 177.056 23.88 178.064 24.576ZM176.696 30.864L175.112 33.24C174.128 32.544 172.064 31.416 170.624 30.648L172.184 28.536C173.504 29.184 175.64 30.216 176.696 30.864ZM176 34.32L178.112 36.24C176.84 38.736 175.328 41.472 173.888 43.8L171.464 41.88C172.76 40.08 174.584 37.104 176 34.32ZM192.032 28.368V40.992C192.032 42.384 191.792 43.104 190.88 43.56C189.992 43.992 188.696 44.04 186.896 44.04C186.8 43.272 186.416 42.096 186.032 41.352C187.136 41.424 188.384 41.424 188.768 41.4C189.128 41.376 189.248 41.28 189.248 40.968V37.68C186.848 38.328 184.352 38.952 182.36 39.456L181.52 37.104C183.512 36.72 186.416 36.072 189.248 35.4V30.96H181.52V35.76C181.52 38.448 181.328 42.048 180.008 44.256C179.528 43.8 178.352 42.984 177.728 42.696C178.832 40.752 178.904 38.016 178.904 35.76V28.368H184.088V21.672H186.968V28.368H192.032ZM181.856 33.528L183.008 31.8C184.808 32.208 187.16 33.024 188.384 33.72L187.16 35.664C185.984 34.944 183.656 34.008 181.856 33.528ZM201.248 22.512L203.096 23.544C202.496 25.584 201.752 28.008 201.104 29.88C202.448 31.752 202.736 33.432 202.76 34.824C202.76 36.408 202.448 37.416 201.704 37.992C201.344 38.28 200.888 38.448 200.384 38.52C199.952 38.592 199.376 38.592 198.848 38.592C198.848 37.872 198.656 36.84 198.248 36.12C198.656 36.168 198.992 36.168 199.256 36.144C199.472 36.144 199.712 36.096 199.856 35.952C200.144 35.736 200.264 35.208 200.264 34.512C200.24 33.36 200 31.824 198.752 30.168C199.184 28.704 199.64 26.736 200 25.152H198.104V44.016H195.608V22.608H200.84L201.248 22.512ZM204.872 36.72L207.368 37.416C206.504 39.336 205.088 41.4 203.888 42.72C203.408 42.288 202.376 41.52 201.776 41.16C203 40.032 204.176 38.328 204.872 36.72ZM206.048 28.944H213.824C212.624 28.008 211.304 26.856 209.888 25.248C208.76 26.64 207.416 27.888 206.048 28.944ZM216.944 35.952H211.544V41.112C211.544 42.408 211.304 43.104 210.44 43.56C209.6 43.968 208.448 44.04 206.84 44.04C206.72 43.272 206.312 42.168 205.904 41.448C206.96 41.496 208.016 41.496 208.352 41.472C208.688 41.472 208.784 41.376 208.784 41.064V35.952H203.072V33.36H208.784V31.392H204.92V29.736C204.584 29.952 204.272 30.168 203.936 30.36C203.528 29.688 202.76 28.8 202.088 28.248C204.992 26.808 207.92 24.24 209.504 21.384L211.88 22.296C211.712 22.632 211.52 22.944 211.304 23.256C213.584 25.704 215.768 27.048 217.616 27.936C216.944 28.512 216.104 29.472 215.744 30.264C215.384 30.024 215 29.784 214.616 29.52V31.392H211.544V33.36H216.944V35.952ZM212.216 37.632L214.328 36.576C215.576 38.016 216.92 39.96 217.52 41.232L215.288 42.504C214.712 41.16 213.368 39.096 212.216 37.632ZM224.96 37.776V38.784H235.28V37.776H224.96ZM224.96 35.232V36.216H235.28V35.232H224.96ZM224.96 32.712V33.648H235.28V32.712H224.96ZM238.184 40.44H234.608C236.888 41.208 239.384 42.072 240.872 42.744L237.824 44.136C236.432 43.44 233.888 42.36 231.344 41.568L233.048 40.44H226.712L228.68 41.328C226.688 42.504 223.592 43.632 221.168 44.208C220.688 43.68 219.704 42.6 219.104 42.12C221.312 41.76 223.784 41.16 225.488 40.44H222.176V31.608C221.672 31.728 221.12 31.8 220.568 31.872C220.376 31.248 219.776 30.144 219.296 29.616C223.592 29.136 225.728 28.392 226.904 27.264H223.568V25.776C222.464 26.28 221.288 26.688 220.232 27C219.944 26.448 219.224 25.464 218.672 24.936C221.096 24.36 223.88 23.184 225.416 21.624L227.624 23.112C226.904 23.856 226.016 24.48 224.984 25.056H235.016C234.2 24.672 233.504 24.264 232.928 23.808H228.992V21.72H234.152C235.256 23.064 238.232 23.928 241.352 24.24C240.944 24.792 240.368 25.968 240.152 26.688C239.072 26.472 237.992 26.184 236.984 25.848L236.96 25.992C236.744 28.248 236.432 29.376 235.88 29.904C235.376 30.336 234.8 30.504 234.08 30.552C233.456 30.6 232.232 30.6 231.008 30.552C230.96 29.928 230.696 29.088 230.336 28.512C231.416 28.608 232.424 28.608 232.856 28.608C233.24 28.608 233.48 28.584 233.672 28.44C233.864 28.272 233.984 27.912 234.104 27.264H230.072C229.136 28.92 227.552 30.12 224.672 31.008H238.184V40.44ZM247.184 36.456V37.416C248.456 37.32 249.872 37.248 251.264 37.152V36.456H247.184ZM251.264 31.968H247.184V32.88H251.264V31.968ZM251.264 35.112V34.2H247.184V35.112H251.264ZM257.456 36.624H264.584C264.584 36.624 264.536 37.296 264.488 37.656C264.08 40.968 263.624 42.528 262.952 43.176C262.376 43.704 261.752 43.872 260.912 43.944C260.192 43.968 258.92 43.992 257.576 43.92C257.552 43.248 257.264 42.336 256.856 41.712C258.056 41.808 259.28 41.832 259.784 41.832C260.24 41.832 260.48 41.808 260.696 41.592C261.056 41.304 261.368 40.416 261.608 38.688H255.536V38.664H254.408C254.552 38.088 254.696 37.416 254.84 36.696C254.504 37.032 254.144 37.368 253.76 37.68V41.52C253.76 42.576 253.52 43.152 252.8 43.512C252.104 43.848 251.144 43.92 249.8 43.92C249.656 43.296 249.224 42.384 248.888 41.856C249.728 41.88 250.616 41.88 250.88 41.88C251.168 41.88 251.264 41.784 251.264 41.52V39.624C248.984 41.16 246.416 42.528 244.064 43.512C243.896 43.056 243.392 41.976 243.08 41.52C244.832 40.872 246.752 40.032 248.528 39.024C246.704 39.168 244.976 39.288 243.56 39.384L243.344 37.632L244.784 37.56V30.432H247.904C248.048 30.072 248.192 29.664 248.264 29.328C247.448 29.496 246.44 29.64 245.264 29.76C245.12 29.16 244.568 28.2 244.112 27.696C248.984 27.432 250.184 26.856 250.544 25.296H246.464V27.192H243.584V23.232H252.512C252.416 22.848 252.272 22.488 252.128 22.152L255.104 21.672C255.344 22.104 255.608 22.68 255.8 23.232H264.44V27.024H261.416V25.296H257.48V26.736C257.48 27.264 257.552 27.456 258.152 27.456H261.176C261.776 27.456 262.784 27.408 263.24 27.288C263.264 27.912 263.312 28.536 263.408 29.064C262.976 29.184 262.088 29.232 261.32 29.232H257.768C255.656 29.232 255.2 28.44 255.2 26.712V25.296H252.992C252.68 27.12 251.888 28.296 249.488 29.016L251.12 29.304C250.88 29.712 250.664 30.072 250.448 30.432H253.76V35.784L254.912 36.36C255.128 35.304 255.296 34.152 255.44 33.144H260.936V31.704H254.864V29.784H263.576V35.064H257.72C257.624 35.592 257.552 36.12 257.456 36.624Z" fill="#E5243B"/>
<rect x="1" y="64" width="18" height="18" fill="#E5243B" fill-opacity="0.3" stroke="black"/>
<rect x="19" y="64" width="18" height="18" fill="#E5243B" fill-opacity="0.3" stroke="black"/>
<rect x="37" y="64" width="18" height="18" fill="#E5243B" fill-opacity="0.3" stroke="black"/>
<rect x="55" y="64" width="18" height="18" fill="#E5243B" fill-opacity="0.3" stroke="black"/>
<rect x="73" y="64" width="18" height="18" fill="#E5243B" fill-opacity="0.3" stroke="black"/>
<rect x="91" y="64" width="18" height="18" fill="#E5243B" fill-opacity="0.3" stroke="black"/>
<rect x="109" y="64" width="18" height="18" fill="#E5243B" fill-opacity="0.3" stroke="black"/>
<rect x="127" y="64" width="18" height="18" fill="#E5243B" fill-opacity="0.3" stroke="black"/>
<rect x="145" y="64" width="18" height="18" fill="#E5243B" fill-opacity="0.3" stroke="black"/>
<rect x="163" y="64" width="18" height="18" fill="#E5243B" fill-opacity="0.3" stroke="black"/>
<rect x="181" y="64" width="18" height="18" fill="#E5243B" fill-opacity="0.3" stroke="black"/>
<rect x="199" y="64" width="18" height="18" fill="#E5243B" fill-opacity="0.3" stroke="black"/>
<rect x="217" y="64" width="18" height="18" fill="#E5243B" fill-opacity="0.3" stroke="black"/>
<rect x="235" y="64" width="18" height="18" fill="#E5243B" fill-opacity="0.3" stroke="black"/>
<rect x="253" y="64" width="18" height="18" fill="#E5243B" fill-opacity="0.3" stroke="black"/>
<rect x="271" y="64" width="18" height="18" fill="#E5243B" fill-opacity="0.3" stroke="black"/>
<rect x="289" y="64" width="18" height="18" fill="#E5243B" fill-opacity="0.3" stroke="black"/>
<rect x="307" y="64" width="18" height="18" fill="#E5243B" fill-opacity="0.3" stroke="black"/>
<rect x="325" y="64" width="18" height="18" fill="#E5243B" fill-opacity="0.3" stroke="black"/>
<rect x="343" y="64" width="18" height="18" fill="#E5243B" fill-opacity="0.3" stroke="black"/>
<path d="M4.54 95.168C3.94 95.168 3.412 94.996 2.956 94.652C2.508 94.3 2.156 93.78 1.9 93.092C1.652 92.396 1.528 91.536 1.528 90.512C1.528 89.496 1.652 88.652 1.9 87.98C2.156 87.3 2.508 86.792 2.956 86.456C3.412 86.12 3.94 85.952 4.54 85.952C5.148 85.952 5.676 86.124 6.124 86.468C6.572 86.804 6.92 87.308 7.168 87.98C7.424 88.652 7.552 89.496 7.552 90.512C7.552 91.536 7.424 92.396 7.168 93.092C6.92 93.78 6.572 94.3 6.124 94.652C5.676 94.996 5.148 95.168 4.54 95.168ZM4.54 93.788C4.804 93.788 5.036 93.688 5.236 93.488C5.436 93.288 5.592 92.952 5.704 92.48C5.816 92 5.872 91.344 5.872 90.512C5.872 89.688 5.816 89.044 5.704 88.58C5.592 88.108 5.436 87.78 5.236 87.596C5.036 87.404 4.804 87.308 4.54 87.308C4.292 87.308 4.064 87.404 3.856 87.596C3.656 87.78 3.496 88.108 3.376 88.58C3.256 89.044 3.196 89.688 3.196 90.512C3.196 91.344 3.256 92 3.376 92.48C3.496 92.952 3.656 93.288 3.856 93.488C4.064 93.688 4.292 93.788 4.54 93.788Z" fill="#E5243B"/>
<path d="M82.984 95V93.56H84.904V87.956H83.284V86.852C83.732 86.772 84.116 86.676 84.436 86.564C84.764 86.444 85.068 86.292 85.348 86.108H86.656V93.56H88.324V95H82.984ZM92.6181 95.168C92.0181 95.168 91.4901 94.996 91.0341 94.652C90.5861 94.3 90.2341 93.78 89.9781 93.092C89.7301 92.396 89.6061 91.536 89.6061 90.512C89.6061 89.496 89.7301 88.652 89.9781 87.98C90.2341 87.3 90.5861 86.792 91.0341 86.456C91.4901 86.12 92.0181 85.952 92.6181 85.952C93.2261 85.952 93.7541 86.124 94.2021 86.468C94.6501 86.804 94.9981 87.308 95.2461 87.98C95.5021 88.652 95.6301 89.496 95.6301 90.512C95.6301 91.536 95.5021 92.396 95.2461 93.092C94.9981 93.78 94.6501 94.3 94.2021 94.652C93.7541 94.996 93.2261 95.168 92.6181 95.168ZM92.6181 93.788C92.8821 93.788 93.1141 93.688 93.3141 93.488C93.5141 93.288 93.6701 92.952 93.7821 92.48C93.8941 92 93.9501 91.344 93.9501 90.512C93.9501 89.688 93.8941 89.044 93.7821 88.58C93.6701 88.108 93.5141 87.78 93.3141 87.596C93.1141 87.404 92.8821 87.308 92.6181 87.308C92.3701 87.308 92.1421 87.404 91.9341 87.596C91.7341 87.78 91.5741 88.108 91.4541 88.58C91.3341 89.044 91.2741 89.688 91.2741 90.512C91.2741 91.344 91.3341 92 91.4541 92.48C91.5741 92.952 91.7341 93.288 91.9341 93.488C92.1421 93.688 92.3701 93.788 92.6181 93.788Z" fill="#E5243B"/>
<path d="M170.516 95V93.98C171.324 93.26 172.012 92.592 172.58 91.976C173.156 91.36 173.596 90.788 173.9 90.26C174.204 89.724 174.356 89.228 174.356 88.772C174.356 88.484 174.304 88.232 174.2 88.016C174.096 87.8 173.944 87.636 173.744 87.524C173.552 87.404 173.312 87.344 173.024 87.344C172.704 87.344 172.408 87.436 172.136 87.62C171.872 87.796 171.628 88.008 171.404 88.256L170.42 87.308C170.836 86.86 171.26 86.524 171.692 86.3C172.132 86.068 172.652 85.952 173.252 85.952C173.812 85.952 174.3 86.068 174.716 86.3C175.14 86.524 175.468 86.84 175.7 87.248C175.932 87.656 176.048 88.136 176.048 88.688C176.048 89.224 175.912 89.772 175.64 90.332C175.376 90.884 175.02 91.436 174.572 91.988C174.124 92.54 173.628 93.084 173.084 93.62C173.316 93.588 173.564 93.564 173.828 93.548C174.1 93.524 174.34 93.512 174.548 93.512H176.468V95H170.516ZM180.618 95.168C180.018 95.168 179.49 94.996 179.034 94.652C178.586 94.3 178.234 93.78 177.978 93.092C177.73 92.396 177.606 91.536 177.606 90.512C177.606 89.496 177.73 88.652 177.978 87.98C178.234 87.3 178.586 86.792 179.034 86.456C179.49 86.12 180.018 85.952 180.618 85.952C181.226 85.952 181.754 86.124 182.202 86.468C182.65 86.804 182.998 87.308 183.246 87.98C183.502 88.652 183.63 89.496 183.63 90.512C183.63 91.536 183.502 92.396 183.246 93.092C182.998 93.78 182.65 94.3 182.202 94.652C181.754 94.996 181.226 95.168 180.618 95.168ZM180.618 93.788C180.882 93.788 181.114 93.688 181.314 93.488C181.514 93.288 181.67 92.952 181.782 92.48C181.894 92 181.95 91.344 181.95 90.512C181.95 89.688 181.894 89.044 181.782 88.58C181.67 88.108 181.514 87.78 181.314 87.596C181.114 87.404 180.882 87.308 180.618 87.308C180.37 87.308 180.142 87.404 179.934 87.596C179.734 87.78 179.574 88.108 179.454 88.58C179.334 89.044 179.274 89.688 179.274 90.512C179.274 91.344 179.334 92 179.454 92.48C179.574 92.952 179.734 93.288 179.934 93.488C180.142 93.688 180.37 93.788 180.618 93.788Z" fill="#E5243B"/>
<path d="M261.276 95.168C260.812 95.168 260.396 95.112 260.028 95C259.66 94.896 259.332 94.752 259.044 94.568C258.764 94.376 258.52 94.164 258.312 93.932L259.14 92.816C259.412 93.064 259.708 93.28 260.028 93.464C260.356 93.64 260.72 93.728 261.12 93.728C261.424 93.728 261.688 93.68 261.912 93.584C262.144 93.488 262.32 93.348 262.44 93.164C262.568 92.98 262.632 92.756 262.632 92.492C262.632 92.196 262.56 91.944 262.416 91.736C262.28 91.52 262.036 91.356 261.684 91.244C261.332 91.132 260.836 91.076 260.196 91.076V89.804C260.74 89.804 261.168 89.748 261.48 89.636C261.792 89.516 262.012 89.356 262.14 89.156C262.276 88.948 262.344 88.712 262.344 88.448C262.344 88.104 262.24 87.836 262.032 87.644C261.824 87.444 261.532 87.344 261.156 87.344C260.844 87.344 260.552 87.416 260.28 87.56C260.016 87.696 259.752 87.884 259.488 88.124L258.576 87.032C258.968 86.704 259.38 86.444 259.812 86.252C260.244 86.052 260.72 85.952 261.24 85.952C261.808 85.952 262.308 86.044 262.74 86.228C263.18 86.412 263.52 86.68 263.76 87.032C264 87.384 264.12 87.812 264.12 88.316C264.12 88.796 263.992 89.208 263.736 89.552C263.48 89.896 263.116 90.16 262.644 90.344V90.404C262.972 90.492 263.268 90.636 263.532 90.836C263.804 91.028 264.016 91.272 264.168 91.568C264.328 91.864 264.408 92.208 264.408 92.6C264.408 93.136 264.264 93.596 263.976 93.98C263.696 94.364 263.316 94.66 262.836 94.868C262.364 95.068 261.844 95.168 261.276 95.168ZM268.618 95.168C268.018 95.168 267.49 94.996 267.034 94.652C266.586 94.3 266.234 93.78 265.978 93.092C265.73 92.396 265.606 91.536 265.606 90.512C265.606 89.496 265.73 88.652 265.978 87.98C266.234 87.3 266.586 86.792 267.034 86.456C267.49 86.12 268.018 85.952 268.618 85.952C269.226 85.952 269.754 86.124 270.202 86.468C270.65 86.804 270.998 87.308 271.246 87.98C271.502 88.652 271.63 89.496 271.63 90.512C271.63 91.536 271.502 92.396 271.246 93.092C270.998 93.78 270.65 94.3 270.202 94.652C269.754 94.996 269.226 95.168 268.618 95.168ZM268.618 93.788C268.882 93.788 269.114 93.688 269.314 93.488C269.514 93.288 269.67 92.952 269.782 92.48C269.894 92 269.95 91.344 269.95 90.512C269.95 89.688 269.894 89.044 269.782 88.58C269.67 88.108 269.514 87.78 269.314 87.596C269.114 87.404 268.882 87.308 268.618 87.308C268.37 87.308 268.142 87.404 267.934 87.596C267.734 87.78 267.574 88.108 267.454 88.58C267.334 89.044 267.274 89.688 267.274 90.512C267.274 91.344 267.334 92 267.454 92.48C267.574 92.952 267.734 93.288 267.934 93.488C268.142 93.688 268.37 93.788 268.618 93.788Z" fill="#E5243B"/>
<path d="M350.044 95V89.54C350.044 89.284 350.052 88.98 350.068 88.628C350.084 88.268 350.1 87.956 350.116 87.692H350.056C349.952 87.932 349.84 88.172 349.72 88.412C349.6 88.652 349.476 88.896 349.348 89.144L347.968 91.352H352.744V92.696H346.252V91.496L349.564 86.108H351.688V95H350.044ZM356.618 95.168C356.018 95.168 355.49 94.996 355.034 94.652C354.586 94.3 354.234 93.78 353.978 93.092C353.73 92.396 353.606 91.536 353.606 90.512C353.606 89.496 353.73 88.652 353.978 87.98C354.234 87.3 354.586 86.792 355.034 86.456C355.49 86.12 356.018 85.952 356.618 85.952C357.226 85.952 357.754 86.124 358.202 86.468C358.65 86.804 358.998 87.308 359.246 87.98C359.502 88.652 359.63 89.496 359.63 90.512C359.63 91.536 359.502 92.396 359.246 93.092C358.998 93.78 358.65 94.3 358.202 94.652C357.754 94.996 357.226 95.168 356.618 95.168ZM356.618 93.788C356.882 93.788 357.114 93.688 357.314 93.488C357.514 93.288 357.67 92.952 357.782 92.48C357.894 92 357.95 91.344 357.95 90.512C357.95 89.688 357.894 89.044 357.782 88.58C357.67 88.108 357.514 87.78 357.314 87.596C357.114 87.404 356.882 87.308 356.618 87.308C356.37 87.308 356.142 87.404 355.934 87.596C355.734 87.78 355.574 88.108 355.454 88.58C355.334 89.044 355.274 89.688 355.274 90.512C355.274 91.344 355.334 92 355.454 92.48C355.574 92.952 355.734 93.288 355.934 93.488C356.142 93.688 356.37 93.788 356.618 93.788Z" fill="#E5243B"/>
</svg>
