<svg xmlns="http://www.w3.org/2000/svg" width="362" height="98" fill="none"><path fill="#FD9D24" d="M11.519 39.48h9.629a.236.236 0 0 0 .234-.239.22.22 0 0 0-.064-.155l-.011-.016-4.789-6.196-.048-.051a.23.23 0 0 0-.175-.076.24.24 0 0 0-.155.06l-.028.032-.043.051-4.673 6.133-.072.087a.238.238 0 0 0 .195.37M21.12 40.35h-9.645a.235.235 0 0 0-.235.235v7.548c0 .132.108.239.235.239h3.106v-4.748c0-.132.103-.235.235-.235h2.883c.131 0 .235.103.235.235v4.748h3.185a.236.236 0 0 0 .235-.239v-7.548a.235.235 0 0 0-.235-.234M54.456 38.374h-9.55a.23.23 0 0 0-.234.227v9.64a.23.23 0 0 0 .235.226h9.549a.23.23 0 0 0 .234-.226V38.6a.23.23 0 0 0-.234-.227m-5.222 6.295a.23.23 0 0 1-.235.227h-2.852a.23.23 0 0 1-.234-.227v-1.733c0-.128.103-.227.234-.227H49c.127 0 .235.1.235.226zm0-3.205a.23.23 0 0 1-.235.227h-2.852a.23.23 0 0 1-.234-.227V39.73a.23.23 0 0 1 .234-.226H49c.127 0 .235.103.235.226zm4.359 3.205a.23.23 0 0 1-.235.227h-2.852a.23.23 0 0 1-.234-.227v-1.733c0-.128.103-.227.234-.227h2.852c.131 0 .235.1.235.226zm0-3.205a.23.23 0 0 1-.235.227h-2.852a.23.23 0 0 1-.234-.227V39.73a.23.23 0 0 1 .234-.226h2.852a.23.23 0 0 1 .235.226zM32.263 16h-9.342a.23.23 0 0 0-.227.23v31.931c0 .127.104.227.227.227h9.342c.124 0 .231-.104.231-.227v-31.93a.23.23 0 0 0-.23-.231m-5.556 28.749a.124.124 0 0 1-.123.123h-2.14a.124.124 0 0 1-.123-.123v-2.382c0-.068.056-.123.123-.123h2.14c.068 0 .123.055.123.123zm0-5.476a.124.124 0 0 1-.123.123h-2.14a.12.12 0 0 1-.123-.123V36.89c0-.068.056-.124.123-.124h2.14c.068 0 .123.052.123.124zm0-5.473a.124.124 0 0 1-.123.124h-2.14a.124.124 0 0 1-.123-.123v-2.387c0-.067.056-.123.123-.123h2.14c.068 0 .123.056.123.123zm0-5.476a.124.124 0 0 1-.123.124h-2.14a.124.124 0 0 1-.123-.124v-2.386a.12.12 0 0 1 .123-.12h2.14a.12.12 0 0 1 .123.12zm0-5.476a.124.124 0 0 1-.123.123h-2.14a.124.124 0 0 1-.123-.123v-2.386c0-.067.056-.123.123-.123h2.14c.068 0 .123.056.123.123zm4.192 21.9a.124.124 0 0 1-.123.124h-2.14a.124.124 0 0 1-.123-.123v-2.382c0-.068.056-.123.123-.123h2.14c.067 0 .123.055.123.123zm0-5.475a.124.124 0 0 1-.123.123h-2.14a.12.12 0 0 1-.123-.123V36.89c0-.068.056-.124.123-.124h2.14c.067 0 .123.052.123.124zm0-5.473a.124.124 0 0 1-.123.124h-2.14a.124.124 0 0 1-.123-.123v-2.387c0-.067.056-.123.123-.123h2.14c.067 0 .123.056.123.123zm0-5.476a.124.124 0 0 1-.123.124h-2.14a.124.124 0 0 1-.123-.124v-2.386a.12.12 0 0 1 .123-.12h2.14a.12.12 0 0 1 .123.12zm0-5.476a.124.124 0 0 1-.123.123h-2.14a.124.124 0 0 1-.123-.123v-2.386c0-.067.056-.123.123-.123h2.14c.067 0 .123.056.123.123zM44.878 35.292h9.61c.106 0 .19.087.19.19v1.922a.19.19 0 0 1-.19.19h-9.61a.19.19 0 0 1-.19-.19v-1.921a.19.19 0 0 1 .19-.191M43.55 22.029a.25.25 0 0 0-.234-.18.26.26 0 0 0-.152.056l-.08.1-9.182 11.648-.044.056a.26.26 0 0 0-.08.183v14.312c0 .128.104.227.231.227h9.334a.227.227 0 0 0 .227-.227v-26.08a.2.2 0 0 0-.024-.095zm-3.866 6.323.068-.084c.628-.807 1.686-2.107 2.203-2.744l.068-.08a.263.263 0 0 1 .461.12v2.947a.263.263 0 0 1-.254.262h-2.343a.266.266 0 0 1-.203-.421M38.23 44.665a.227.227 0 0 1-.227.227h-2.784a.227.227 0 0 1-.227-.227v-1.742c0-.127.104-.227.227-.227h2.784c.127 0 .227.104.227.227zm0-3.217a.227.227 0 0 1-.227.226h-2.784a.227.227 0 0 1-.227-.226v-1.742c0-.127.104-.227.227-.227h2.784c.127 0 .227.1.227.227zm0-3.222a.23.23 0 0 1-.227.227h-2.784a.227.227 0 0 1-.227-.227v-1.742c0-.127.104-.226.227-.226h2.784c.127 0 .227.103.227.226zm.008-7.059v3.838a.227.227 0 0 1-.227.227h-2.784a.23.23 0 0 1-.23-.227v-.481q.002-.048.015-.084c.004-.008.004-.011.016-.027q.007-.016.02-.032.011-.018.028-.036c.354-.51 1.96-2.49 2.637-3.317l.067-.083a.263.263 0 0 1 .462.119v.103zm4.251 13.498a.227.227 0 0 1-.227.227h-2.783a.23.23 0 0 1-.231-.227v-1.742c0-.127.103-.227.23-.227h2.785a.23.23 0 0 1 .226.227zm0-3.217a.227.227 0 0 1-.227.226h-2.783a.23.23 0 0 1-.231-.226v-1.742c0-.127.103-.227.23-.227h2.785c.123 0 .226.1.226.227zm0-3.222a.23.23 0 0 1-.227.227h-2.783a.23.23 0 0 1-.231-.227v-1.742c0-.127.103-.226.23-.226h2.785a.23.23 0 0 1 .226.226zm0-3.22a.227.227 0 0 1-.227.226h-2.783a.23.23 0 0 1-.231-.227v-1.742c0-.127.103-.226.23-.226h2.785a.23.23 0 0 1 .226.226zm0-3.222a.227.227 0 0 1-.227.227h-2.783a.23.23 0 0 1-.231-.227v-1.742a.23.23 0 0 1 .23-.23h2.785a.23.23 0 0 1 .226.23zM88.488 42.336a9.4 9.4 0 0 1-3.48-.672 9.1 9.1 0 0 1-3-1.92l2.04-2.448a7.8 7.8 0 0 0 2.136 1.44q1.224.528 2.376.528 1.392 0 2.112-.552t.72-1.488q0-.672-.36-1.056-.336-.408-.936-.72t-1.392-.624l-2.352-1.032a8.4 8.4 0 0 1-1.728-.96q-.816-.624-1.368-1.56-.528-.936-.528-2.232 0-1.464.792-2.616t2.184-1.824q1.392-.696 3.168-.696 1.584 0 3.048.6a7.5 7.5 0 0 1 2.544 1.704l-1.8 2.208a7 7 0 0 0-1.752-1.08q-.912-.384-2.04-.384-1.152 0-1.848.504-.672.48-.672 1.368 0 .624.384 1.032t1.008.72q.624.288 1.368.6l2.328.936a7.1 7.1 0 0 1 1.872 1.08q.816.648 1.248 1.56.456.912.456 2.208 0 1.44-.792 2.664-.768 1.224-2.232 1.968-1.44.744-3.504.744M98.161 42V24.216h4.872q2.736 0 4.68.96a6.72 6.72 0 0 1 3.024 2.904q1.08 1.944 1.08 4.944t-1.056 4.992-2.976 3q-1.92.984-4.56.984zm3.552-2.88h1.08q1.68 0 2.88-.6 1.224-.624 1.872-1.968.648-1.368.648-3.528t-.648-3.456q-.648-1.32-1.872-1.896-1.2-.6-2.88-.6h-1.08zm21.212 3.216q-2.4 0-4.344-1.056-1.92-1.056-3.048-3.096t-1.128-4.992q0-2.208.648-3.912.672-1.728 1.848-2.928a7.95 7.95 0 0 1 2.712-1.824 8.7 8.7 0 0 1 3.312-.624q1.92 0 3.264.72 1.368.696 2.232 1.56l-1.896 2.256a7 7 0 0 0-1.488-1.056q-.792-.432-1.992-.432-1.488 0-2.616.744-1.128.72-1.752 2.088t-.624 3.288q0 1.944.576 3.336.6 1.368 1.776 2.112t2.904.744q.648 0 1.248-.168.6-.192.96-.504v-3.504h-3.144v-2.904h6.336V40.2q-.912.888-2.424 1.512t-3.36.624M137.718 42v-2.88h3.84V28.392h-3.24v-2.208q1.344-.264 2.304-.624a10.6 10.6 0 0 0 1.824-.864h2.616V39.12h3.336V42zm14.156 0v-2.88h3.84V28.392h-3.24v-2.208q1.344-.264 2.304-.624a10.6 10.6 0 0 0 1.824-.864h2.616V39.12h3.336V42zM180.632 31.152l1.92.816c-1.152 4.968-3.648 8.688-6.576 10.656-.48-.6-1.608-1.704-2.304-2.136 2.256-1.344 4.152-3.696 5.256-6.528h-4.656v-2.688h5.856zm12.312-2.76 2.616 1.944c-1.8 1.632-4.008 3.432-5.832 4.656 1.68 2.304 3.864 4.08 6.672 5.184-.672.552-1.56 1.728-1.992 2.496-3.48-1.56-5.952-4.128-7.752-7.416v5.496c0 1.56-.312 2.328-1.344 2.808-.984.456-2.448.48-4.464.48-.12-.816-.576-2.088-.96-2.856 1.2.072 2.688.072 3.12.048s.576-.144.576-.528V29.256h-6V26.52h8.904c-2.04-.912-4.824-1.848-7.032-2.424l1.416-2.328c2.784.6 6.792 1.872 8.832 2.928l-1.536 2.664c-.408-.24-.936-.504-1.512-.768v1.992a24.6 24.6 0 0 0 1.704 4.224c1.632-1.296 3.432-2.976 4.584-4.416m18.6-3.048v-.816h-5.712v-1.824h5.712v-1.032h2.784v1.032h5.424v1.824h-5.424v.816h4.68v1.704H206.72v-1.704zm-3.288 4.104v1.44h1.728v-1.44zm9.024 1.44v-1.44h-1.536v1.44zm-5.184 0h1.56v-1.44h-1.56zm-6.168 1.728V27.72h13.8v4.896zm.456 3.504-2.016.648c-.048-.336-.096-.72-.168-1.152-4.248.624-5.04.84-5.544 1.08-.144-.48-.528-1.68-.816-2.328.576-.12 1.056-.696 1.776-1.608.288-.36.816-1.104 1.464-2.112-1.752.216-2.256.336-2.616.504-.12-.48-.528-1.632-.792-2.232.432-.12.816-.6 1.272-1.344.456-.648 1.848-3.408 2.616-5.928l2.328.912c-.792 1.968-1.848 4.104-2.952 5.832l1.536-.12a34 34 0 0 0 1.56-3.24l2.16 1.32c-1.272 2.52-2.928 5.184-4.656 7.368l2.208-.264c-.168-.648-.336-1.296-.528-1.848l1.896-.504c.552 1.632 1.104 3.744 1.272 5.016m-7.68 1.32 2.16.336c-.192 2.256-.576 4.656-1.08 6.192-.48-.264-1.512-.576-2.088-.72.552-1.512.864-3.72 1.008-5.808m2.52.288 1.872-.336c.288 1.776.504 4.008.552 5.52l-2.016.36c0-1.512-.192-3.768-.408-5.544m2.232-.456 1.752-.504c.456 1.344.984 3.12 1.176 4.296l-1.824.624c-.192-1.2-.672-3.024-1.104-4.416m5.856 1.056v.768h6.96v-.768zm0-1.752v.72h6.96v-.72zm0-1.776v.72h6.96v-.72zm9.624 5.736h-3.12a77 77 0 0 1 4.32 1.584l-1.128 1.992c-1.272-.6-3.36-1.464-5.184-2.136l.792-1.44h-3.552l1.44 1.416a80 80 0 0 1-6.048 2.28 19 19 0 0 0-.984-1.968c1.32-.432 3.168-1.08 4.536-1.728h-3.216v-7.2h12.144zm15.024-8.064h-1.896v.48c0 1.488-.072 3.216-.36 4.92.6.072 1.056.072 1.32.072s.432-.072.6-.288c.216-.36.288-1.632.336-5.184m7.368-2.52 2.568.48c-.768 3.144-1.824 5.928-3.288 8.232.384 1.584.816 2.496 1.272 2.496.36 0 .552-1.128.624-3.576.528.6 1.344 1.224 1.992 1.488-.36 3.696-1.104 4.728-2.952 4.728-1.176 0-2.088-1.008-2.784-2.664a16.5 16.5 0 0 1-3.36 2.976c-.384-.48-1.392-1.488-1.992-1.896a15.2 15.2 0 0 0 4.488-4.08c-.648-2.88-.984-6.624-1.128-10.56h-4.704v2.592h4.272s0 .648-.024.96c-.072 5.352-.168 7.488-.648 8.136-.384.528-.744.744-1.32.84-.48.096-1.248.12-2.064.096-.072-.72-.264-1.656-.6-2.256-.384 2.304-1.152 4.56-2.688 6.216-.384-.48-1.464-1.392-2.064-1.752.96-1.08 1.584-2.4 1.92-3.744-2.112.864-4.368 1.8-6.192 2.544l-.912-2.856c.72-.192 1.56-.48 2.496-.792V30h-2.088v-2.64h2.088v-5.376h2.64v5.376h1.872V30h-1.872v6.624l1.848-.648.336 1.752c.336-1.608.384-3.312.384-4.776v-7.968h7.224c-.024-1.128-.048-2.232-.048-3.336h2.688a77 77 0 0 0 0 3.336h1.872a16 16 0 0 0-1.824-2.28l1.944-1.152c.888.84 1.896 2.016 2.328 2.808l-1.008.624h1.32v2.592h-4.584c.12 2.52.288 4.896.552 6.936.6-1.392 1.056-2.928 1.416-4.56m9.936 1.968 2.208.264v-5.136a45 45 0 0 1-4.152 6.96l1.632-.192c.12-.6.216-1.224.312-1.896m6.672-5.424h-2.016v2.112h2.016zm-2.016 6.36h2.016v-1.992h-2.016zm.696 3.792 2.256-.72c.744 1.992 1.632 4.608 1.92 6.192l-2.328.888a17 17 0 0 0-.336-1.536c-3.672 1.224-4.392 1.488-4.848 1.824-.12-.552-.552-1.488-.888-1.944.456-.216 1.08-.672 1.08-1.656v-7.2c-.816 5.232-2.688 8.976-6.288 11.304-.24-.48-.96-1.488-1.416-1.92 2.208-1.296 3.672-3.24 4.56-5.784-2.736.384-3.336.552-3.744.72-.12-.456-.504-1.608-.792-2.208.528-.12 1.008-.672 1.608-1.512.312-.408.984-1.416 1.704-2.712-1.584.192-2.088.336-2.424.504-.144-.528-.528-1.68-.816-2.328.384-.12.744-.576 1.104-1.2s1.464-3.072 1.992-5.376l2.64.6c-.648 1.944-1.656 3.984-2.592 5.616l1.272-.096c.312-.672.624-1.368.888-2.016l2.304.912v-2.904h2.304a11.3 11.3 0 0 0-.912-1.608l2.28-.816a14.6 14.6 0 0 1 1.392 2.424h1.68v11.16h-4.296v4.488l1.584-.48c-.288-.888-.576-1.8-.888-2.616m9.792-13.896 1.8 1.128A226 226 0 0 1 266 31.104c1.488 2.136 1.824 4.032 1.824 5.616 0 1.68-.36 2.832-1.08 3.408-.36.312-.84.504-1.392.576-.408.072-.96.072-1.488.048-.024-.696-.216-1.8-.576-2.52.408.024.744.024 1.056.024.216 0 .456-.072.648-.216.288-.24.432-.864.432-1.68-.024-1.32-.336-3.048-1.752-4.992.528-1.752 1.104-4.224 1.536-6.048h-1.92v18.744h-2.352V22.848h5.088z"/><path fill="#FD9D24" stroke="#000" d="M1 64h18v18H1zM19 64h18v18H19zM37 64h18v18H37zM55 64h18v18H55zM73 64h18v18H73zM91 64h18v18H91zM109 64h18v18h-18zM127 64h18v18h-18zM145 64h18v18h-18zM163 64h18v18h-18zM181 64h18v18h-18zM199 64h18v18h-18zM217 64h18v18h-18z"/><path fill="#FD9D24" fill-opacity=".3" stroke="#000" d="M235 64h18v18h-18zM253 64h18v18h-18zM271 64h18v18h-18zM289 64h18v18h-18zM307 64h18v18h-18zM325 64h18v18h-18zM343 64h18v18h-18z"/><path fill="#FD9D24" d="M4.54 95.168q-.9 0-1.584-.516-.672-.528-1.056-1.56-.372-1.044-.372-2.58 0-1.524.372-2.532.384-1.02 1.056-1.524a2.6 2.6 0 0 1 1.584-.504q.912 0 1.584.516.672.504 1.044 1.512.384 1.008.384 2.532 0 1.536-.384 2.58-.372 1.032-1.044 1.56-.672.516-1.584.516m0-1.38q.396 0 .696-.3t.468-1.008q.168-.72.168-1.968 0-1.236-.168-1.932-.168-.708-.468-.984a.97.97 0 0 0-.696-.288q-.372 0-.684.288-.3.276-.48.984-.18.696-.18 1.932 0 1.248.18 1.968.18.708.48 1.008.312.3.684.3M82.984 95v-1.44h1.92v-5.604h-1.62v-1.104a7.5 7.5 0 0 0 1.152-.288q.492-.18.912-.456h1.308v7.452h1.668V95zm9.634.168q-.9 0-1.584-.516-.672-.528-1.056-1.56-.372-1.044-.372-2.58 0-1.524.372-2.532.384-1.02 1.056-1.524a2.6 2.6 0 0 1 1.584-.504q.912 0 1.584.516.672.504 1.044 1.512.384 1.008.384 2.532 0 1.536-.384 2.58-.372 1.032-1.044 1.56-.672.516-1.584.516m0-1.38q.396 0 .696-.3t.468-1.008q.168-.72.168-1.968 0-1.236-.168-1.932-.168-.708-.468-.984a.97.97 0 0 0-.696-.288q-.372 0-.684.288-.3.276-.48.984-.18.696-.18 1.932 0 1.248.18 1.968.18.708.48 1.008.312.3.684.3M170.516 95v-1.02a30 30 0 0 0 2.064-2.004q.864-.924 1.32-1.716.456-.804.456-1.488 0-.432-.156-.756a1.1 1.1 0 0 0-.456-.492q-.288-.18-.72-.18-.48 0-.888.276a4 4 0 0 0-.732.636l-.984-.948q.624-.672 1.272-1.008.66-.348 1.56-.348.84 0 1.464.348.636.336.984.948t.348 1.44q0 .804-.408 1.644a8.4 8.4 0 0 1-1.068 1.656 20 20 0 0 1-1.488 1.632q.348-.048.744-.072.408-.036.72-.036h1.92V95zm10.102.168q-.9 0-1.584-.516-.672-.528-1.056-1.56-.372-1.044-.372-2.58 0-1.524.372-2.532.384-1.02 1.056-1.524a2.6 2.6 0 0 1 1.584-.504q.912 0 1.584.516.672.504 1.044 1.512.384 1.008.384 2.532 0 1.536-.384 2.58-.372 1.032-1.044 1.56-.672.516-1.584.516m0-1.38q.396 0 .696-.3t.468-1.008q.168-.72.168-1.968 0-1.236-.168-1.932-.168-.708-.468-.984a.97.97 0 0 0-.696-.288q-.372 0-.684.288-.3.276-.48.984-.18.696-.18 1.932 0 1.248.18 1.968.18.708.48 1.008.312.3.684.3M261.276 95.168q-.696 0-1.248-.168a3.7 3.7 0 0 1-.984-.432 4 4 0 0 1-.732-.636l.828-1.116q.408.372.888.648.492.264 1.092.264a2 2 0 0 0 .792-.144 1.12 1.12 0 0 0 .72-1.092q0-.444-.216-.756-.204-.324-.732-.492t-1.488-.168v-1.272q.816 0 1.284-.168.468-.18.66-.48.204-.312.204-.708 0-.516-.312-.804-.312-.3-.876-.3-.468 0-.876.216a3.7 3.7 0 0 0-.792.564l-.912-1.092a5.3 5.3 0 0 1 1.236-.78q.648-.3 1.428-.3.852 0 1.5.276.66.276 1.02.804t.36 1.284q0 .72-.384 1.236t-1.092.792v.06q.492.132.888.432.408.288.636.732.24.444.24 1.032 0 .804-.432 1.38-.42.576-1.14.888-.708.3-1.56.3m7.342 0q-.9 0-1.584-.516-.672-.528-1.056-1.56-.372-1.044-.372-2.58 0-1.524.372-2.532.384-1.02 1.056-1.524a2.6 2.6 0 0 1 1.584-.504q.912 0 1.584.516.672.504 1.044 1.512.384 1.008.384 2.532 0 1.536-.384 2.58-.372 1.032-1.044 1.56-.672.516-1.584.516m0-1.38q.396 0 .696-.3t.468-1.008q.168-.72.168-1.968 0-1.236-.168-1.932-.168-.708-.468-.984a.97.97 0 0 0-.696-.288q-.372 0-.684.288-.3.276-.48.984-.18.696-.18 1.932 0 1.248.18 1.968.18.708.48 1.008.312.3.684.3M350.044 95v-5.46q0-.384.024-.912.024-.54.048-.936h-.06q-.156.36-.336.72t-.372.732l-1.38 2.208h4.776v1.344h-6.492v-1.2l3.312-5.388h2.124V95zm6.574.168q-.9 0-1.584-.516-.672-.528-1.056-1.56-.372-1.044-.372-2.58 0-1.524.372-2.532.384-1.02 1.056-1.524a2.6 2.6 0 0 1 1.584-.504q.912 0 1.584.516.672.504 1.044 1.512.384 1.008.384 2.532 0 1.536-.384 2.58-.372 1.032-1.044 1.56-.672.516-1.584.516m0-1.38q.396 0 .696-.3t.468-1.008q.168-.72.168-1.968 0-1.236-.168-1.932-.168-.708-.468-.984a.97.97 0 0 0-.696-.288q-.372 0-.684.288-.3.276-.48.984-.18.696-.18 1.932 0 1.248.18 1.968.18.708.48 1.008.312.3.684.3"/></svg>