<svg xmlns="http://www.w3.org/2000/svg" width="362" height="98" fill="none"><mask id="a" fill="#fff"><path d="M49.682 23.86c-2.828-2.232-6.57-2.28-7.942-1.953l-.16.035c-1.582.374-4.1.995-7.043 4.65l-.047.063-.036.044a.25.25 0 0 0-.016.266l.067.111c.37.617.836 1.416 1.23 2.148 0 .008.007.012.011.024a.26.26 0 0 0 .223.14.25.25 0 0 0 .175-.073.5.5 0 0 0 .052-.075c2.613-3.615 4.669-4.112 6.06-4.442l.168-.04c.72-.175 3.464-.163 5.445 1.4 1.547 1.22 2.33 3.162 2.33 5.77 0 4.375-2.128 6.089-3.913 6.753-2.768 1.034-5.421-.35-5.441-.358l-.12-.06c-1.519-.66-3.79-2.032-5.925-6.327-4.307-8.653-7.915-9.469-10.297-10.01l-.127-.027c-1.086-.247-4.856-.422-7.823 1.944-1.548 1.237-3.393 3.64-3.393 8.061 0 2.697.553 4.478 1.977 6.352.314.425 3.504 4.525 9.672 3.344.986-.19 2.327-.66 3.798-1.762l1.357 1.225a.22.22 0 0 0 .31-.016.2.2 0 0 0 .055-.147v-.02l.979-6.025v-.067c0-.06-.024-.12-.072-.16a.2.2 0 0 0-.143-.055h-.044l-.063.012-5.771 1.614-.104.016a.2.2 0 0 0-.11.064.22.22 0 0 0 .015.314l.068.064 1.292 1.17c-.835.54-1.563.787-2.12.894-4.462.85-6.665-2.072-6.753-2.187l-.032-.044c-1.038-1.36-1.388-2.518-1.388-4.586 0-2.616.772-4.557 2.291-5.774 1.93-1.539 4.594-1.55 5.345-1.376l.132.028c1.953.441 4.633 1.046 8.32 8.455 1.917 3.845 4.315 6.359 7.334 7.687.386.195 2.219 1.066 4.597 1.066.995 0 2.084-.151 3.202-.569 1.75-.652 5.822-2.883 5.822-9.5 0-4.423-1.873-6.829-3.444-8.07"/></mask><path fill="#BF8B2E" d="M49.682 23.86c-2.828-2.232-6.57-2.28-7.942-1.953l-.16.035c-1.582.374-4.1.995-7.043 4.65l-.047.063-.036.044a.25.25 0 0 0-.016.266l.067.111c.37.617.836 1.416 1.23 2.148 0 .008.007.012.011.024a.26.26 0 0 0 .223.14.25.25 0 0 0 .175-.073.5.5 0 0 0 .052-.075c2.613-3.615 4.669-4.112 6.06-4.442l.168-.04c.72-.175 3.464-.163 5.445 1.4 1.547 1.22 2.33 3.162 2.33 5.77 0 4.375-2.128 6.089-3.913 6.753-2.768 1.034-5.421-.35-5.441-.358l-.12-.06c-1.519-.66-3.79-2.032-5.925-6.327-4.307-8.653-7.915-9.469-10.297-10.01l-.127-.027c-1.086-.247-4.856-.422-7.823 1.944-1.548 1.237-3.393 3.64-3.393 8.061 0 2.697.553 4.478 1.977 6.352.314.425 3.504 4.525 9.672 3.344.986-.19 2.327-.66 3.798-1.762l1.357 1.225a.22.22 0 0 0 .31-.016.2.2 0 0 0 .055-.147v-.02l.979-6.025v-.067c0-.06-.024-.12-.072-.16a.2.2 0 0 0-.143-.055h-.044l-.063.012-5.771 1.614-.104.016a.2.2 0 0 0-.11.064.22.22 0 0 0 .015.314l.068.064 1.292 1.17c-.835.54-1.563.787-2.12.894-4.462.85-6.665-2.072-6.753-2.187l-.032-.044c-1.038-1.36-1.388-2.518-1.388-4.586 0-2.616.772-4.557 2.291-5.774 1.93-1.539 4.594-1.55 5.345-1.376l.132.028c1.953.441 4.633 1.046 8.32 8.455 1.917 3.845 4.315 6.359 7.334 7.687.386.195 2.219 1.066 4.597 1.066.995 0 2.084-.151 3.202-.569 1.75-.652 5.822-2.883 5.822-9.5 0-4.423-1.873-6.829-3.444-8.07"/><path fill="#BF8B2E" d="m41.74 21.907.22.975.011-.003zm-.16.035-.219-.975-.01.002zm-7.043 4.65-.779-.628-.002.003zm-.047.063.773.633.031-.038.028-.04zm-.036.044-.774-.634-.024.03-.021.03zm-.016.266-.895.447.019.037.021.035zm.067.111.858-.514-.003-.005zm1.23 2.148h1v-.252l-.12-.222zm.011.024-.948.316.028.086.044.08zm.398.067.707.708.032-.032.03-.035zm.052-.075-.81-.586-.032.043-.026.047zm6.06-4.442.232.973zm.168-.04.232.973.004-.001zm5.445 1.4.62-.785h-.001zM46.286 38.68l-.349-.937h-.001zm-5.441-.358-.447.895.037.018.039.016zm-.12-.06.448-.894-.024-.012-.025-.01zM34.8 31.937l.895-.445zm-10.297-10.01.221-.975-.007-.001zm-.127-.027-.222.975.008.002zm-7.823 1.944-.624-.782v.001zm-1.416 14.413.804-.595-.008-.01zm9.672 3.344.188.982H25zm3.798-1.762.67-.742-.61-.551-.659.493zm1.357 1.225.672-.74-.002-.002zm.31-.016-.707-.707-.025.025-.023.026zm.055-.167-.987-.16-.013.08v.08zm.979-6.025.987.16.013-.079v-.08zm-.072-.226-.707.707.032.032.035.029zm-.187-.056v-1h-.093l-.091.017zm-.063.012-.185-.983-.043.008-.042.012zm-5.771 1.614.152.989.06-.01.057-.015zm-.104.016-.152-.988-.013.002-.013.002zm-.11.064-.708-.707-.016.016-.015.017zm.015.314.685-.728-.005-.005-.006-.005zm.068.064-.686.728.007.007.008.006zm1.292 1.17.544.838 1.092-.707-.965-.873zm-2.12.894.188.982h.002zm-6.753-2.187-.808.588.005.008.006.008zm-.032-.044.81-.588-.008-.01-.007-.009zm.903-10.36-.623-.782-.002.002zm5.345-1.376-.226.974.01.002.009.002zm.132.028.22-.976-.013-.002zm8.32 8.455-.895.445zm7.334 7.687.45-.892-.023-.012-.025-.011zm7.799.497-.35-.937zm2.998-18.347c-1.578-1.245-3.39-1.866-4.968-2.136-1.564-.267-2.982-.205-3.825-.004l.462 1.945c.529-.125 1.668-.202 3.025.03 1.343.23 2.817.75 4.067 1.735zm-8.782-2.143-.159.036.44 1.951.158-.036zm-.17.038c-.807.191-1.943.464-3.264 1.192s-2.783 1.885-4.328 3.803l1.558 1.255c1.399-1.737 2.666-2.717 3.736-3.307s1.984-.813 2.759-.996zm-7.594 4.998c-.013.017-.055.068-.099.133l1.665 1.11-.013.018v-.002l.01-.01zm-.04.055-.036.044 1.548 1.266.035-.044zm-.081.103c-.116.166-.229.41-.229.717h2a.75.75 0 0 1-.133.43zm-.229.717c0 .238.068.431.137.57l1.79-.894c.029.06.073.174.073.324zm.177.642.068.111 1.71-1.037-.068-.112zm.065.107a55 55 0 0 1 1.206 2.107l1.761-.948a57 57 0 0 0-1.252-2.188zm1.086 1.633a1 1 0 0 0 .191.592c.012.016-.075-.095-.127-.252l1.897-.632c-.056-.17-.149-.288-.142-.279l.025.037a.98.98 0 0 1 .156.534zm.136.506c.187.34.576.657 1.099.657v-2a.74.74 0 0 1 .654.379zm1.099.657c.336 0 .653-.135.882-.364l-1.414-1.415a.75.75 0 0 1 .532-.22zm.943-.431a1.5 1.5 0 0 0 .152-.22l-1.736-.992a.4.4 0 0 1 .048-.069zm.094-.13c1.246-1.724 2.32-2.65 3.198-3.185.873-.53 1.605-.71 2.284-.87l-.462-1.946c-.714.169-1.705.404-2.862 1.108-1.15.7-2.411 1.83-3.779 3.721zm5.482-4.055.168-.04-.464-1.946-.167.04zm.172-.041c.183-.045.902-.1 1.844.062.917.158 1.925.504 2.745 1.15l1.239-1.57c-1.16-.915-2.515-1.357-3.645-1.551-1.105-.19-2.119-.165-2.655-.035zm4.59 1.213c1.233.973 1.95 2.576 1.95 4.985h2c0-2.808-.852-5.087-2.712-6.555zm1.95 4.985c0 2.02-.49 3.33-1.102 4.187-.614.861-1.41 1.35-2.16 1.629l.696 1.874c1.036-.385 2.196-1.085 3.092-2.341.898-1.259 1.473-2.995 1.473-5.349zm-3.264 5.816c-2.338.874-4.598-.3-4.72-.35l-.742 1.858c-.083-.033 2.963 1.56 6.162.366zm-4.644-.315-.12-.06-.893 1.789.119.06zm-.168-.083c-1.31-.57-3.402-1.778-5.429-5.855l-1.79.89c2.243 4.514 4.694 6.049 6.422 6.8zm-5.429-5.855c-2.194-4.408-4.256-6.915-6.151-8.391-1.919-1.494-3.596-1.871-4.82-2.149l-.442 1.95c1.159.264 2.476.565 4.033 1.777 1.58 1.23 3.476 3.458 5.59 7.704zM24.717 20.95l-.128-.028-.427 1.953.127.028zm-.12-.026c-.678-.155-2.02-.26-3.578-.021-1.572.24-3.435.838-5.09 2.159l1.247 1.563c1.312-1.046 2.818-1.543 4.145-1.745 1.34-.205 2.426-.099 2.833-.006zm-8.669 2.138c-1.766 1.412-3.768 4.093-3.768 8.842h2c0-4.095 1.689-6.218 3.017-7.28zm-3.768 8.842c0 2.881.605 4.884 2.18 6.957l1.593-1.21c-1.272-1.674-1.773-3.235-1.773-5.747zm2.172 6.946c.384.52 3.913 5.025 10.665 3.732l-.376-1.964c-5.585 1.07-8.435-2.626-8.68-2.956zM25 42.582c1.125-.218 2.607-.745 4.208-1.943l-1.199-1.601c-1.343 1.005-2.541 1.416-3.389 1.58zm2.938-2.001 1.356 1.224 1.34-1.484-1.355-1.225zm1.354 1.222a1.22 1.22 0 0 0 1.737-.1l-1.509-1.312a.78.78 0 0 1 1.117-.068zm1.69-.048c.278-.279.348-.62.348-.855h-2c0-.131.039-.361.238-.56zm.348-.855v-.02h-2v.02zm-.012.14.978-6.024-1.974-.321-.979 6.025zm.99-6.185v-.067h-2v.067zm0-.067c0-.316-.126-.673-.43-.928l-1.28 1.537a.8.8 0 0 1-.29-.61zm-.364-.866a1.2 1.2 0 0 0-.85-.349v2a.8.8 0 0 1-.564-.237zm-.85-.349h-.044v2h.044zm-.228.017-.064.012.369 1.966.064-.012zm-.149.032-5.77 1.614.538 1.927 5.771-1.615zm-5.653 1.59-.104.015.305 1.977.103-.016zm-.13.02a1.2 1.2 0 0 0-.64.34l1.414 1.414a.8.8 0 0 1-.417.213zm-.671.373c-.465.509-.41 1.28.08 1.727l1.348-1.477c.307.28.346.772.048 1.098zm.069 1.716.067.064 1.37-1.456-.067-.064zm.082.078 1.292 1.169 1.342-1.483-1.293-1.17zm1.42-.412c-.726.47-1.333.669-1.766.752l.379 1.964c.68-.132 1.53-.426 2.474-1.038zm-1.764.752c-3.885.74-5.75-1.785-5.77-1.81l-1.593 1.209c.157.206 2.698 3.526 7.738 2.565zm-5.757-1.794-.032-.043-1.617 1.176.032.044zm-.046-.062c-.464-.609-.746-1.132-.92-1.71-.179-.588-.263-1.287-.263-2.269h-2c0 1.087.091 2 .348 2.848.26.858.672 1.593 1.245 2.344zm-1.183-3.979c0-2.424.709-4.026 1.916-4.994l-1.25-1.56c-1.83 1.466-2.666 3.745-2.666 6.554zm1.915-4.992c.794-.634 1.768-.973 2.661-1.127.913-.159 1.625-.106 1.834-.057l.453-1.948c-.543-.126-1.539-.155-2.629.034-1.11.192-2.432.629-3.567 1.534zm4.514-1.18.131.028.415-1.956-.131-.028zm.118.025c.938.212 1.906.432 3.095 1.411 1.224 1.009 2.74 2.875 4.55 6.514l1.791-.89c-1.876-3.77-3.544-5.91-5.07-7.167-1.561-1.286-2.91-1.589-3.925-1.819zm7.646 7.926c1.99 3.99 4.536 6.709 7.826 8.156l.805-1.83c-2.747-1.21-4.996-3.518-6.841-7.218zm7.778 8.134c.445.224 2.443 1.173 5.048 1.173v-2c-2.151 0-3.82-.794-4.146-.959zm5.048 1.173c1.096 0 2.307-.167 3.552-.632l-.7-1.874c-.99.37-1.96.506-2.852.506zm3.551-.632a9.7 9.7 0 0 0 3.983-2.805c1.396-1.656 2.49-4.1 2.49-7.633h-2c0 3.085-.942 5.066-2.02 6.343a7.7 7.7 0 0 1-3.151 2.221zm6.473-10.438c0-4.755-2.035-7.44-3.824-8.853l-1.24 1.569c1.353 1.069 3.064 3.195 3.064 7.284z" mask="url(#a)"/><path fill="#BF8B2E" d="M49.682 23.86c-2.828-2.232-6.57-2.28-7.942-1.953l-.16.035c-1.582.374-4.1.995-7.043 4.65l-.047.063-.036.044a.25.25 0 0 0-.016.266l.067.111c.37.617.836 1.416 1.23 2.148 0 .008.007.012.011.024a.26.26 0 0 0 .223.14.25.25 0 0 0 .175-.073.5.5 0 0 0 .052-.075c2.613-3.615 4.669-4.112 6.06-4.442l.168-.04c.72-.175 3.464-.163 5.445 1.4 1.547 1.22 2.33 3.162 2.33 5.77 0 4.375-2.128 6.089-3.913 6.753-2.768 1.034-5.421-.35-5.441-.358l-.12-.06c-1.519-.66-3.79-2.032-5.925-6.327-4.307-8.653-7.915-9.469-10.297-10.01l-.127-.027c-1.086-.247-4.856-.422-7.823 1.944-1.548 1.237-3.393 3.64-3.393 8.061 0 2.697.553 4.478 1.977 6.352.314.425 3.504 4.525 9.672 3.344.986-.19 2.327-.66 3.798-1.762l1.357 1.225a.22.22 0 0 0 .31-.016.2.2 0 0 0 .055-.147v-.02l.979-6.025v-.067c0-.06-.024-.12-.072-.16a.2.2 0 0 0-.143-.055h-.044l-.063.012-5.771 1.614-.104.016a.2.2 0 0 0-.11.064.22.22 0 0 0 .015.314l.068.064 1.292 1.17c-.835.54-1.563.787-2.12.894-4.462.85-6.665-2.072-6.753-2.187l-.032-.044c-1.038-1.36-1.388-2.518-1.388-4.586 0-2.616.772-4.557 2.291-5.774 1.93-1.539 4.594-1.55 5.345-1.376l.132.028c1.953.441 4.633 1.046 8.32 8.455 1.917 3.845 4.315 6.359 7.334 7.687.386.195 2.219 1.066 4.597 1.066.995 0 2.084-.151 3.202-.569 1.75-.652 5.822-2.883 5.822-9.5 0-4.423-1.873-6.829-3.444-8.07"/><path stroke="#BF8B2E" stroke-miterlimit="10" stroke-width=".73" d="M49.682 23.86c-2.828-2.232-6.57-2.28-7.942-1.953l-.16.035c-1.582.374-4.1.995-7.043 4.65l-.047.063-.036.044a.25.25 0 0 0-.016.266l.067.111c.37.617.836 1.416 1.23 2.148 0 .008.007.012.011.024a.26.26 0 0 0 .223.14.25.25 0 0 0 .175-.073.5.5 0 0 0 .052-.075c2.613-3.615 4.669-4.112 6.06-4.442l.168-.04c.72-.175 3.464-.163 5.445 1.4 1.547 1.22 2.33 3.162 2.33 5.77 0 4.375-2.128 6.089-3.913 6.753-2.768 1.034-5.421-.35-5.441-.358l-.12-.06c-1.519-.66-3.79-2.032-5.925-6.327-4.307-8.653-7.915-9.469-10.297-10.01l-.127-.027c-1.086-.247-4.856-.422-7.823 1.944-1.548 1.237-3.393 3.64-3.393 8.061 0 2.697.553 4.478 1.977 6.352.314.425 3.504 4.525 9.672 3.344.986-.19 2.327-.66 3.798-1.762l1.357 1.225a.22.22 0 0 0 .31-.016.2.2 0 0 0 .055-.147v-.02l.979-6.025v-.067c0-.06-.024-.12-.072-.16a.2.2 0 0 0-.143-.055h-.044l-.063.012-5.771 1.614-.104.016a.2.2 0 0 0-.11.064.22.22 0 0 0 .015.314l.068.064 1.292 1.17c-.835.54-1.563.787-2.12.894-4.462.85-6.665-2.072-6.753-2.187l-.032-.044c-1.038-1.36-1.388-2.518-1.388-4.586 0-2.616.772-4.557 2.291-5.774 1.93-1.539 4.594-1.55 5.345-1.376l.132.028c1.953.441 4.633 1.046 8.32 8.455 1.917 3.845 4.315 6.359 7.334 7.687.386.195 2.219 1.066 4.597 1.066.995 0 2.084-.151 3.202-.569 1.75-.652 5.822-2.883 5.822-9.5 0-4.423-1.873-6.829-3.444-8.07"/><path fill="#BF8B2E" d="M88.488 42.336c-2.376 0-4.752-.936-6.48-2.592l2.04-2.448c1.272 1.176 2.952 1.968 4.512 1.968 1.848 0 2.832-.792 2.832-2.04 0-1.32-1.08-1.728-2.664-2.4l-2.376-1.008c-1.8-.744-3.6-2.184-3.6-4.776 0-2.904 2.544-5.136 6.144-5.136 2.064 0 4.128.816 5.568 2.28l-1.8 2.232c-1.128-.936-2.304-1.464-3.768-1.464-1.56 0-2.544.696-2.544 1.872 0 1.272 1.248 1.728 2.76 2.328l2.328.984c2.16.888 3.576 2.256 3.576 4.824 0 2.904-2.424 5.376-6.528 5.376M98.161 42V24.216h4.872c5.424 0 8.784 2.832 8.784 8.832 0 5.976-3.36 8.952-8.592 8.952zm3.552-2.856h1.104c3.312 0 5.376-1.776 5.376-6.096 0-4.344-2.064-5.976-5.376-5.976h-1.104zm21.212 3.192c-4.824 0-8.52-3.216-8.52-9.144 0-5.856 3.792-9.288 8.52-9.288 2.568 0 4.344 1.104 5.496 2.28l-1.872 2.256c-.888-.84-1.896-1.488-3.504-1.488-2.952 0-5.016 2.304-5.016 6.12 0 3.864 1.776 6.192 5.28 6.192.84 0 1.704-.24 2.208-.672v-3.504h-3.144v-2.904h6.312V40.2c-1.2 1.176-3.288 2.136-5.76 2.136m13.124 0c-1.8 0-3.768-.792-5.112-1.896l1.608-2.208c1.2.936 2.352 1.464 3.6 1.464 1.344 0 1.944-.576 1.944-1.416 0-1.008-1.392-1.464-2.808-2.016-1.704-.648-3.6-1.68-3.6-3.936 0-2.4 1.944-4.104 5.016-4.104 1.944 0 3.456.816 4.56 1.656l-1.584 2.136c-.96-.696-1.896-1.152-2.88-1.152-1.224 0-1.8.528-1.8 1.296 0 .984 1.248 1.344 2.664 1.872 1.776.672 3.744 1.56 3.744 4.056 0 2.352-1.848 4.248-5.352 4.248M149.601 42v-2.856h3.816V28.368h-3.216v-2.184c1.776-.336 3-.792 4.128-1.488h2.616v14.448h3.336V42zm13.197 0v-2.04c4.632-4.416 7.68-7.44 7.68-10.008 0-1.752-.96-2.808-2.664-2.808-1.296 0-2.352.864-3.264 1.848l-1.92-1.92c1.632-1.752 3.216-2.712 5.64-2.712 3.36 0 5.592 2.136 5.592 5.4 0 3.024-2.784 6.144-5.952 9.456.888-.096 2.064-.192 2.904-.192h3.888V42zM206.752 28.32v1.968h-21.504V28.32h9.312v-.888h-6.84v-1.728h6.84v-.864h-7.944v-1.872h7.944v-1.296h2.928v1.296h8.28v1.872h-8.28v.864h7.2v1.728h-7.2v.888zm-15.864 9.528v1.008h10.416v-1.008zm0-2.544v.96h10.416v-.96zm0-2.544v.96h10.416v-.96zm13.32 7.752h-3.528c2.256.744 4.704 1.656 6.216 2.304l-3.432 1.272c-1.344-.72-3.744-1.728-6.144-2.52l1.92-1.056h-6.36l1.752.792c-1.992 1.176-5.04 2.256-7.488 2.856-.456-.552-1.464-1.56-2.064-2.04 2.16-.36 4.512-.936 6.192-1.608h-3.144v-9.384h16.08zm10.2-18.696 2.832.888a34 34 0 0 1-2.376 4.896v16.464h-2.832V31.776c-.672.84-1.344 1.608-2.04 2.28-.288-.72-1.152-2.304-1.656-3.024 2.424-2.184 4.728-5.664 6.072-9.216m16.92 12.744h-6.192v5.976h5.664v2.736h-14.112v-2.736h5.544V34.56h-6.192V31.8h6.192v-5.232h-4.896V23.88h13.08v2.688h-5.28V31.8h6.192zm20.808-12.336 2.784.984c-.768 1.68-1.68 3.384-2.4 4.512l-2.472-.912c.696-1.224 1.608-3.144 2.088-4.584m-7.128 4.488-2.592 1.176c-.288-1.176-1.224-3.048-2.16-4.44l2.4-1.056c.96 1.32 1.992 3.072 2.352 4.32m-4.944-2.136-1.728 2.28c-.936-.768-2.928-1.992-4.296-2.808l1.68-2.016c1.32.72 3.336 1.848 4.344 2.544m-1.368 6.288-1.584 2.376c-.984-.696-3.048-1.824-4.488-2.592l1.56-2.112c1.32.648 3.456 1.68 4.512 2.328M238 34.32l2.112 1.92c-1.272 2.496-2.784 5.232-4.224 7.56l-2.424-1.92c1.296-1.8 3.12-4.776 4.536-7.56m16.032-5.952v12.624c0 1.392-.24 2.112-1.152 2.568-.888.432-2.184.48-3.984.48-.096-.768-.48-1.944-.864-2.688 1.104.072 2.352.072 2.736.048.36-.024.48-.12.48-.432V37.68c-2.4.648-4.896 1.272-6.888 1.776l-.84-2.352c1.992-.384 4.896-1.032 7.728-1.704v-4.44h-7.728v4.8c0 2.688-.192 6.288-1.512 8.496-.48-.456-1.656-1.272-2.28-1.56 1.104-1.944 1.176-4.68 1.176-6.936v-7.392h5.184v-6.696h2.88v6.696zm-10.176 5.16 1.152-1.728c1.8.408 4.152 1.224 5.376 1.92l-1.224 1.944c-1.176-.72-3.504-1.656-5.304-2.136m19.104 4.296v1.008h10.32v-1.008zm6.336-8.088h-3.24a5.2 5.2 0 0 1-1.128 1.512h4.368zm-7.56-2.712-.168 1.056h2.28c.096-.336.144-.696.168-1.056zm4.896-2.616v.96h2.664v-.96zm7.872 0h-2.496v.96h2.496zm-5.208 3.672v-1.056h-2.664c-.024.36-.048.72-.096 1.056zm6.528 1.656h-3.816v1.512h2.136c-.096-.288-.192-.576-.336-.792.576.072 1.08.096 1.344.072.216 0 .36 0 .504-.144.072-.12.144-.312.168-.648m-2.544 5.592h-10.32v.984h10.32zm0-2.472h-10.32v.96h10.32zm2.904 7.584h-2.64c1.968.672 3.912 1.392 5.184 1.968l-2.088 1.704c-1.536-.768-4.224-1.92-6.816-2.76l.912-.912h-5.856l1.752.816c-1.968 1.176-5.064 2.28-7.512 2.88-.432-.552-1.44-1.584-2.064-2.064 2.184-.36 4.56-.912 6.264-1.632h-3.144v-7.128c-.552.12-1.152.24-1.776.336-.24-.624-.912-1.704-1.368-2.232 2.856-.36 4.56-.936 5.592-1.68h-3.864c.264-1.2.552-2.952.696-4.368h4.584v-.96h-5.448v-1.68h5.448v-1.056h2.592v1.056h2.664v-1.056h2.712v1.056h5.088v4.296h-5.088v1.056h6.624s-.024.456-.024.744c-.12 1.488-.264 2.328-.672 2.76-.336.384-.84.552-1.368.576-.096 0-.24.024-.384.024zm16.56-6.696v-3.888h-3.624v-7.968h2.424v1.632h3.768v2.352h-3.768v1.752h2.664v.024h.912v6.096c0 .984-.192 1.392-.84 1.704-.624.288-1.56.288-2.736.288-.096-.552-.384-1.248-.624-1.752.624.048 1.32.048 1.536.024.216 0 .288-.048.288-.264m-3.264-3.312 2.112.36c-.168 1.584-.552 3.144-1.2 4.152-.384-.312-1.32-.864-1.824-1.128.6-.888.792-2.112.912-3.384m13.56 5.52v2.64h-6.768c2.256 1.056 4.656 2.304 6.12 3.216l-1.896 2.184c-1.536-1.056-4.176-2.592-6.552-3.744l1.272-1.656h-7.128l2.016 1.656c-2.064 1.368-5.04 2.856-7.392 3.816a21 21 0 0 0-1.608-2.136c2.112-.792 4.872-2.16 6.48-3.336h-6.552v-2.64h2.16l-.408-12.384c1.512-.48 3.36-1.2 4.584-1.776l1.224 2.328c-1.008.36-2.136.648-3.216.936l.072 2.16h2.736v2.328h-2.664l.072 2.064h2.664v2.328h-2.592l.072 2.016h12.528c.048-.624.072-1.248.12-1.944h-2.424v-2.352h2.52l.072-2.064h-2.424V27.24h2.496c0-.696 0-1.368.024-2.064h-2.76v-2.448h5.376c0 4.272-.12 9.624-.312 13.224zm14.496 4.656h9.312v2.808h-21.576v-2.808h9.264v-4.824h-6.504v-2.76h6.504V28.8h-4.968c-.696 1.32-1.44 2.544-2.232 3.48-.576-.456-1.848-1.32-2.568-1.704 1.872-2.016 3.432-5.328 4.248-8.592l2.952.648a51 51 0 0 1-1.128 3.384h3.696v-4.32h3v4.32h8.088V28.8h-8.088v4.224h7.176v2.76h-7.176zm18.6-2.976h4.728v-1.248h-3.912c-.264.432-.528.84-.816 1.248m.336-7.656h9.288c-1.176-.408-2.616-.816-4.128-1.224-1.728.456-3.48.864-5.16 1.224m8.472-4.152h-7.824c1.512.336 3.096.696 4.68 1.08a24 24 0 0 0 3.144-1.08m-1.272 15.384h7.56v2.304h-17.64v-2.304h7.272v-1.392h-5.088v-1.728a14 14 0 0 1-1.368 1.488c-.168-.504-.72-1.728-1.128-2.4-.288 2.496-.984 5.256-2.568 7.2-.432-.528-1.608-1.536-2.208-1.848 1.944-2.4 2.136-5.808 2.136-8.28v-4.272h3.24c-.384-.408-.864-.84-1.2-1.104 1.728-.264 3.624-.6 5.472-1.032a73 73 0 0 0-4.488-.984l1.344-1.032h-4.128v-2.232h8.352a14 14 0 0 0-.912-1.248l1.92-.936c.552.624 1.2 1.464 1.608 2.184h8.304v2.232h-3.48l1.152.72c-.864.408-1.872.816-2.952 1.2 1.416.384 2.712.768 3.792 1.128l-1.344 1.104h3.528v2.28h-17.424v2.016c0 .768-.024 1.608-.12 2.52 1.152-1.128 2.136-2.664 2.736-4.32l2.424.72c-.12.312-.24.624-.384.96h2.784v-1.464h2.808v1.464h5.928v2.232h-5.928v1.248h5.232v2.184h-5.232z"/><path fill="#BF8B2E" stroke="#000" d="M1 64h18v18H1zM19 64h18v18H19zM37 64h18v18H37zM55 64h18v18H55zM73 64h18v18H73zM91 64h18v18H91zM109 64h18v18h-18zM127 64h18v18h-18zM145 64h18v18h-18zM163 64h18v18h-18zM181 64h18v18h-18zM199 64h18v18h-18zM217 64h18v18h-18zM235 64h18v18h-18zM253 64h18v18h-18zM271 64h18v18h-18zM289 64h18v18h-18zM307 64h18v18h-18zM325 64h18v18h-18zM343 64h18v18h-18z"/><path fill="#BF8B2E" d="M4.54 95.168q-.9 0-1.584-.516-.672-.528-1.056-1.56-.372-1.044-.372-2.58 0-1.524.372-2.532.384-1.02 1.056-1.524a2.6 2.6 0 0 1 1.584-.504q.912 0 1.584.516.672.504 1.044 1.512.384 1.008.384 2.532 0 1.536-.384 2.58-.372 1.032-1.044 1.56-.672.516-1.584.516m0-1.38q.396 0 .696-.3t.468-1.008q.168-.72.168-1.968 0-1.236-.168-1.932-.168-.708-.468-.984a.97.97 0 0 0-.696-.288q-.372 0-.684.288-.3.276-.48.984-.18.696-.18 1.932 0 1.248.18 1.968.18.708.48 1.008.312.3.684.3M82.984 95v-1.44h1.92v-5.604h-1.62v-1.104a7.5 7.5 0 0 0 1.152-.288q.492-.18.912-.456h1.308v7.452h1.668V95zm9.634.168q-.9 0-1.584-.516-.672-.528-1.056-1.56-.372-1.044-.372-2.58 0-1.524.372-2.532.384-1.02 1.056-1.524a2.6 2.6 0 0 1 1.584-.504q.912 0 1.584.516.672.504 1.044 1.512.384 1.008.384 2.532 0 1.536-.384 2.58-.372 1.032-1.044 1.56-.672.516-1.584.516m0-1.38q.396 0 .696-.3t.468-1.008q.168-.72.168-1.968 0-1.236-.168-1.932-.168-.708-.468-.984a.97.97 0 0 0-.696-.288q-.372 0-.684.288-.3.276-.48.984-.18.696-.18 1.932 0 1.248.18 1.968.18.708.48 1.008.312.3.684.3M170.516 95v-1.02a30 30 0 0 0 2.064-2.004q.864-.924 1.32-1.716.456-.804.456-1.488 0-.432-.156-.756a1.1 1.1 0 0 0-.456-.492q-.288-.18-.72-.18-.48 0-.888.276a4 4 0 0 0-.732.636l-.984-.948q.624-.672 1.272-1.008.66-.348 1.56-.348.84 0 1.464.348.636.336.984.948t.348 1.44q0 .804-.408 1.644a8.4 8.4 0 0 1-1.068 1.656 20 20 0 0 1-1.488 1.632q.348-.048.744-.072.408-.036.72-.036h1.92V95zm10.102.168q-.9 0-1.584-.516-.672-.528-1.056-1.56-.372-1.044-.372-2.58 0-1.524.372-2.532.384-1.02 1.056-1.524a2.6 2.6 0 0 1 1.584-.504q.912 0 1.584.516.672.504 1.044 1.512.384 1.008.384 2.532 0 1.536-.384 2.58-.372 1.032-1.044 1.56-.672.516-1.584.516m0-1.38q.396 0 .696-.3t.468-1.008q.168-.72.168-1.968 0-1.236-.168-1.932-.168-.708-.468-.984a.97.97 0 0 0-.696-.288q-.372 0-.684.288-.3.276-.48.984-.18.696-.18 1.932 0 1.248.18 1.968.18.708.48 1.008.312.3.684.3M261.276 95.168q-.696 0-1.248-.168a3.7 3.7 0 0 1-.984-.432 4 4 0 0 1-.732-.636l.828-1.116q.408.372.888.648.492.264 1.092.264a2 2 0 0 0 .792-.144 1.12 1.12 0 0 0 .72-1.092q0-.444-.216-.756-.204-.324-.732-.492t-1.488-.168v-1.272q.816 0 1.284-.168.468-.18.66-.48.204-.312.204-.708 0-.516-.312-.804-.312-.3-.876-.3-.468 0-.876.216a3.7 3.7 0 0 0-.792.564l-.912-1.092a5.3 5.3 0 0 1 1.236-.78q.648-.3 1.428-.3.852 0 1.5.276.66.276 1.02.804t.36 1.284q0 .72-.384 1.236t-1.092.792v.06q.492.132.888.432.408.288.636.732.24.444.24 1.032 0 .804-.432 1.38-.42.576-1.14.888-.708.3-1.56.3m7.342 0q-.9 0-1.584-.516-.672-.528-1.056-1.56-.372-1.044-.372-2.58 0-1.524.372-2.532.384-1.02 1.056-1.524a2.6 2.6 0 0 1 1.584-.504q.912 0 1.584.516.672.504 1.044 1.512.384 1.008.384 2.532 0 1.536-.384 2.58-.372 1.032-1.044 1.56-.672.516-1.584.516m0-1.38q.396 0 .696-.3t.468-1.008q.168-.72.168-1.968 0-1.236-.168-1.932-.168-.708-.468-.984a.97.97 0 0 0-.696-.288q-.372 0-.684.288-.3.276-.48.984-.18.696-.18 1.932 0 1.248.18 1.968.18.708.48 1.008.312.3.684.3M350.044 95v-5.46q0-.384.024-.912.024-.54.048-.936h-.06q-.156.36-.336.72t-.372.732l-1.38 2.208h4.776v1.344h-6.492v-1.2l3.312-5.388h2.124V95zm6.574.168q-.9 0-1.584-.516-.672-.528-1.056-1.56-.372-1.044-.372-2.58 0-1.524.372-2.532.384-1.02 1.056-1.524a2.6 2.6 0 0 1 1.584-.504q.912 0 1.584.516.672.504 1.044 1.512.384 1.008.384 2.532 0 1.536-.384 2.58-.372 1.032-1.044 1.56-.672.516-1.584.516m0-1.38q.396 0 .696-.3t.468-1.008q.168-.72.168-1.968 0-1.236-.168-1.932-.168-.708-.468-.984a.97.97 0 0 0-.696-.288q-.372 0-.684.288-.3.276-.48.984-.18.696-.18 1.932 0 1.248.18 1.968.18.708.48 1.008.312.3.684.3"/></svg>