<svg width="362" height="98" viewBox="0 0 362 98" fill="none" xmlns="http://www.w3.org/2000/svg">
<path d="M54.1499 33.1625C54.1499 31.361 52.9926 29.9014 51.2426 29.9014C50.3676 29.9014 49.3137 30.8599 48.737 31.4484C48.1643 30.8599 47.178 29.8975 46.303 29.8975C44.5531 29.8975 43.3281 31.357 43.3281 33.1585C43.3281 34.0573 43.6821 34.8725 44.2588 35.4651L48.745 39.959L53.2272 35.4691C53.7999 34.8765 54.1579 34.0613 54.1579 33.1585L54.1499 33.1625Z" fill="#4C9F38"/>
<path d="M35.0473 47.3001C35.0473 47.3001 35.0155 47.3001 34.9996 47.3001C34.6576 47.2802 34.3752 47.0257 34.3195 46.6877L32.0406 33.4168L28.5885 39.8156C28.4373 40.098 28.1232 40.2451 27.8129 40.1894C27.4987 40.1338 27.2561 39.8832 27.2124 39.569L25.7488 29.3246L23.0682 35.3456C22.9489 35.612 22.6864 35.783 22.3961 35.783H11.976C11.5703 35.783 11.2402 35.453 11.2402 35.0473C11.2402 34.6417 11.5703 34.3116 11.976 34.3116H21.9188L25.4465 26.3896C25.5818 26.0914 25.896 25.9164 26.2221 25.9601C26.5482 26.0039 26.8028 26.2584 26.8505 26.5845L28.3618 37.1471L31.7662 30.8358C31.9173 30.5574 32.2236 30.4063 32.5338 30.458C32.844 30.5097 33.0866 30.7523 33.1423 31.0585L35.2542 43.3511L42.9459 17.8036C43.0334 17.5132 43.2919 17.3064 43.5942 17.2826C43.8965 17.2587 44.1828 17.4218 44.3141 17.6962L48.3628 26.0874C48.5378 26.4533 48.3866 26.8947 48.0207 27.0697C47.6549 27.2447 47.2134 27.0936 47.0384 26.7277L43.8129 20.0425L35.7632 46.7752C35.6678 47.0893 35.3814 47.3001 35.0593 47.3001H35.0473Z" fill="#4C9F38"/>
<path d="M88.488 42.336C86.112 42.336 83.736 41.4 82.008 39.744L84.048 37.296C85.32 38.472 87 39.264 88.56 39.264C90.408 39.264 91.392 38.472 91.392 37.224C91.392 35.904 90.312 35.496 88.728 34.824L86.352 33.816C84.552 33.072 82.752 31.632 82.752 29.04C82.752 26.136 85.296 23.904 88.896 23.904C90.96 23.904 93.024 24.72 94.464 26.184L92.664 28.416C91.536 27.48 90.36 26.952 88.896 26.952C87.336 26.952 86.352 27.648 86.352 28.824C86.352 30.096 87.6 30.552 89.112 31.152L91.44 32.136C93.6 33.024 95.016 34.392 95.016 36.96C95.016 39.864 92.592 42.336 88.488 42.336ZM98.1606 42V24.216H103.033C108.457 24.216 111.817 27.048 111.817 33.048C111.817 39.024 108.457 42 103.225 42H98.1606ZM101.713 39.144H102.817C106.129 39.144 108.193 37.368 108.193 33.048C108.193 28.704 106.129 27.072 102.817 27.072H101.713V39.144ZM122.925 42.336C118.101 42.336 114.405 39.12 114.405 33.192C114.405 27.336 118.197 23.904 122.925 23.904C125.493 23.904 127.269 25.008 128.421 26.184L126.549 28.44C125.661 27.6 124.653 26.952 123.045 26.952C120.093 26.952 118.029 29.256 118.029 33.072C118.029 36.936 119.805 39.264 123.309 39.264C124.149 39.264 125.013 39.024 125.517 38.592V35.088H122.373V32.184H128.685V40.2C127.485 41.376 125.397 42.336 122.925 42.336ZM136.049 42.336C134.249 42.336 132.281 41.544 130.937 40.44L132.545 38.232C133.745 39.168 134.897 39.696 136.145 39.696C137.489 39.696 138.089 39.12 138.089 38.28C138.089 37.272 136.697 36.816 135.281 36.264C133.577 35.616 131.681 34.584 131.681 32.328C131.681 29.928 133.625 28.224 136.697 28.224C138.641 28.224 140.153 29.04 141.257 29.88L139.673 32.016C138.713 31.32 137.777 30.864 136.793 30.864C135.569 30.864 134.993 31.392 134.993 32.16C134.993 33.144 136.241 33.504 137.657 34.032C139.433 34.704 141.401 35.592 141.401 38.088C141.401 40.44 139.553 42.336 136.049 42.336ZM154.209 42.336C151.401 42.336 149.505 41.28 148.257 39.864L149.913 37.632C150.969 38.664 152.265 39.456 153.873 39.456C155.673 39.456 156.897 38.592 156.897 37.104C156.897 35.424 155.865 34.392 152.001 34.392V31.848C155.265 31.848 156.321 30.768 156.321 29.28C156.321 27.936 155.457 27.144 153.945 27.144C152.673 27.144 151.641 27.744 150.585 28.728L148.785 26.568C150.321 25.224 152.025 24.36 154.113 24.36C157.545 24.36 159.873 26.04 159.873 29.016C159.873 30.888 158.769 32.184 156.921 32.928V33.048C158.913 33.576 160.449 35.04 160.449 37.32C160.449 40.488 157.593 42.336 154.209 42.336Z" fill="#4C9F38"/>
<path d="M189.656 25.44H187.976V26.616H189.656V25.44ZM189.656 29.928V28.656H187.976V29.928H189.656ZM185.648 26.616V25.44H183.056V23.472H185.648V21.864H187.976V23.472H191.792V26.616H193.232V28.656H191.792V31.896H187.976V33.048H191.888V35.184H187.976V36.336H192.512V38.544H187.976V40.728H185.648V38.544H182.408V36.336H185.648V35.184H182.888V33.048H185.648V31.896H183.056V29.928H185.648V28.656H182.096V26.616H185.648ZM180.992 30.144L182.48 30.456C182.192 34.008 181.592 36.864 180.704 39.12C182.552 40.848 184.976 41.232 187.712 41.232C188.696 41.232 192.032 41.232 193.256 41.208C192.92 41.784 192.536 42.912 192.392 43.632H187.568C184.4 43.632 181.712 43.152 179.624 41.304C178.904 42.432 178.112 43.368 177.152 44.064C176.768 43.608 175.976 42.792 175.424 42.432V44.04H172.928V32.016C172.568 32.616 172.208 33.144 171.824 33.648C171.656 32.952 170.984 31.272 170.552 30.552C172.184 28.344 173.576 25.032 174.368 21.72L176.936 22.416C176.528 23.928 176.024 25.464 175.424 26.976V42.264C176.432 41.52 177.296 40.56 177.992 39.36C177.224 38.136 176.576 36.648 176.096 34.728L178.064 34.104C178.328 35.136 178.664 36.048 179.048 36.84C179.456 35.52 179.768 34.056 179.96 32.352H177.8C177.392 32.592 177.008 32.88 177.008 33.12C176.816 32.64 176.264 31.608 175.904 31.128C176.384 30.984 177.032 30.288 177.488 29.52C177.8 29.016 178.592 27.456 179.288 25.608H176.744V23.184H180.224L180.968 22.872L182.576 23.976C181.76 26.184 180.728 28.392 179.744 30.192H180.56L180.992 30.144ZM209.168 37.56L210.176 37.968C211.328 37.272 212.792 36.24 213.728 35.4H209.168V37.56ZM203.6 38.592L206.264 37.56V35.4H202.04C203.048 35.976 204.2 36.672 204.872 37.176L203.6 38.592ZM209.168 32.16V33.48H212.336V32.16H209.168ZM209.168 28.968V30.192H212.336V28.968H209.168ZM215.024 32.376V35.4H214.136L216.032 36.912C214.928 37.656 213.704 38.4 212.624 38.976C214.256 39.696 215.888 40.464 216.92 41.016L215.624 43.008C214.16 42.144 211.52 40.848 209.168 39.816V41.352C209.168 42.768 208.808 43.368 207.848 43.752C206.888 44.112 205.496 44.136 203.504 44.136C203.36 43.44 202.976 42.456 202.616 41.808C203.816 41.856 205.28 41.856 205.688 41.832C206.12 41.832 206.264 41.688 206.264 41.304V39.768C204.056 40.776 201.752 41.832 199.928 42.648L198.872 40.32C199.976 39.936 201.464 39.384 203.12 38.76C202.328 38.16 200.936 37.248 199.928 36.6L201.08 35.4H200.552V33.48H206.264V32.16H199.856V30.192H206.264V28.968H200.816V27.048H206.264V26.04H199.4V30.48C199.4 34.392 199.04 40.272 196.904 43.992C196.4 43.512 195.2 42.72 194.576 42.456C196.544 39 196.688 34.032 196.688 30.48V23.544H205.76C205.544 23.04 205.28 22.536 205.04 22.128L207.896 21.432C208.304 22.08 208.736 22.848 209.072 23.544H216.896V26.04H209.168V27.048H215.024V29.952H217.136V32.376H215.024ZM230.744 33.744V29.856H227.12V21.888H229.544V23.52H233.312V25.872H229.544V27.624H232.208V27.648H233.12V33.744C233.12 34.728 232.928 35.136 232.28 35.448C231.656 35.736 230.72 35.736 229.544 35.736C229.448 35.184 229.16 34.488 228.92 33.984C229.544 34.032 230.24 34.032 230.456 34.008C230.672 34.008 230.744 33.96 230.744 33.744ZM227.48 30.432L229.592 30.792C229.424 32.376 229.04 33.936 228.392 34.944C228.008 34.632 227.072 34.08 226.568 33.816C227.168 32.928 227.36 31.704 227.48 30.432ZM241.04 35.952V38.592H234.272C236.528 39.648 238.928 40.896 240.392 41.808L238.496 43.992C236.96 42.936 234.32 41.4 231.944 40.248L233.216 38.592H226.088L228.104 40.248C226.04 41.616 223.064 43.104 220.712 44.064C220.328 43.464 219.632 42.528 219.104 41.928C221.216 41.136 223.976 39.768 225.584 38.592H219.032V35.952H221.192L220.784 23.568C222.296 23.088 224.144 22.368 225.368 21.792L226.592 24.12C225.584 24.48 224.456 24.768 223.376 25.056L223.448 27.216H226.184V29.544H223.52L223.592 31.608H226.256V33.936H223.664L223.736 35.952H236.264C236.312 35.328 236.336 34.704 236.384 34.008H233.96V31.656H236.48C236.504 30.984 236.528 30.288 236.552 29.592H234.128V27.24H236.624C236.624 26.544 236.624 25.872 236.648 25.176H233.888V22.728H239.264C239.264 27 239.144 32.352 238.952 35.952H241.04ZM256.856 35.448H254.48V37.032H256.856V35.448ZM261.872 37.032V35.448H259.4V37.032H261.872ZM259.4 40.824H261.872V39.168H259.4V40.824ZM254.48 39.168V40.824H256.856V39.168H254.48ZM251.864 33.936V33.168H264.632V44.04H261.872V43.104H254.48V44.064H251.864V35.184L250.736 36.696C250.328 36.12 249.608 35.28 248.912 34.488V44.112H246.104V36.12C245.312 36.864 244.496 37.56 243.68 38.112C243.44 37.344 242.768 35.928 242.36 35.4C244.736 33.96 247.04 31.44 248.456 28.68H243.224V26.112H246.512C246.104 25.176 245.336 23.784 244.736 22.752L246.992 21.792C247.688 22.872 248.528 24.288 248.912 25.176L247.04 26.112H249.896L250.376 25.992L251.96 27.024C251.336 28.728 250.496 30.408 249.512 31.92C250.16 32.424 251.192 33.336 251.864 33.936ZM260.936 29.952V28.224H255.56V29.952H260.936ZM253.04 26.088H263.576V32.088H253.04V26.088ZM251.72 22.656H264.704V25.056H251.72V22.656ZM276.896 34.872L275.144 37.224C274.664 36.552 273.92 35.592 273.152 34.68V44.088H270.344V36.144C269.552 36.888 268.784 37.56 267.968 38.112C267.752 37.344 267.056 35.928 266.648 35.4C269 33.96 271.304 31.416 272.696 28.68H267.08V26.112H271.76C271.208 25.224 270.248 24.048 269.384 23.184L271.52 21.744C272.528 22.68 273.68 23.952 274.208 24.84L272.504 26.112H274.112L274.616 25.992L276.176 27.024C275.576 28.728 274.736 30.384 273.752 31.92C274.808 32.856 276.44 34.416 276.896 34.872ZM284.84 40.896H289.184V43.656H274.832V40.896H277.04V27.24H279.872V40.896H281.936V22.032H284.84V29.952H288.752V32.664H284.84V40.896Z" fill="#4C9F38"/>
<rect x="1" y="64" width="18" height="18" fill="#4C9F38" stroke="black"/>
<rect x="19" y="64" width="18" height="18" fill="#4C9F38" stroke="black"/>
<rect x="37" y="64" width="18" height="18" fill="#4C9F38" stroke="black"/>
<rect x="55" y="64" width="18" height="18" fill="#4C9F38" stroke="black"/>
<rect x="73" y="64" width="18" height="18" fill="#4C9F38" fill-opacity="0.3" stroke="black"/>
<rect x="91" y="64" width="18" height="18" fill="#4C9F38" fill-opacity="0.3" stroke="black"/>
<rect x="109" y="64" width="18" height="18" fill="#4C9F38" fill-opacity="0.3" stroke="black"/>
<rect x="127" y="64" width="18" height="18" fill="#4C9F38" fill-opacity="0.3" stroke="black"/>
<rect x="145" y="64" width="18" height="18" fill="#4C9F38" fill-opacity="0.3" stroke="black"/>
<rect x="163" y="64" width="18" height="18" fill="#4C9F38" fill-opacity="0.3" stroke="black"/>
<rect x="181" y="64" width="18" height="18" fill="#4C9F38" fill-opacity="0.3" stroke="black"/>
<rect x="199" y="64" width="18" height="18" fill="#4C9F38" fill-opacity="0.3" stroke="black"/>
<rect x="217" y="64" width="18" height="18" fill="#4C9F38" fill-opacity="0.3" stroke="black"/>
<rect x="235" y="64" width="18" height="18" fill="#4C9F38" fill-opacity="0.3" stroke="black"/>
<rect x="253" y="64" width="18" height="18" fill="#4C9F38" fill-opacity="0.3" stroke="black"/>
<rect x="271" y="64" width="18" height="18" fill="#4C9F38" fill-opacity="0.3" stroke="black"/>
<rect x="289" y="64" width="18" height="18" fill="#4C9F38" fill-opacity="0.3" stroke="black"/>
<rect x="307" y="64" width="18" height="18" fill="#4C9F38" fill-opacity="0.3" stroke="black"/>
<rect x="325" y="64" width="18" height="18" fill="#4C9F38" fill-opacity="0.3" stroke="black"/>
<rect x="343" y="64" width="18" height="18" fill="#4C9F38" fill-opacity="0.3" stroke="black"/>
<path d="M4.54 95.168C3.94 95.168 3.412 94.996 2.956 94.652C2.508 94.3 2.156 93.78 1.9 93.092C1.652 92.396 1.528 91.536 1.528 90.512C1.528 89.496 1.652 88.652 1.9 87.98C2.156 87.3 2.508 86.792 2.956 86.456C3.412 86.12 3.94 85.952 4.54 85.952C5.148 85.952 5.676 86.124 6.124 86.468C6.572 86.804 6.92 87.308 7.168 87.98C7.424 88.652 7.552 89.496 7.552 90.512C7.552 91.536 7.424 92.396 7.168 93.092C6.92 93.78 6.572 94.3 6.124 94.652C5.676 94.996 5.148 95.168 4.54 95.168ZM4.54 93.788C4.804 93.788 5.036 93.688 5.236 93.488C5.436 93.288 5.592 92.952 5.704 92.48C5.816 92 5.872 91.344 5.872 90.512C5.872 89.688 5.816 89.044 5.704 88.58C5.592 88.108 5.436 87.78 5.236 87.596C5.036 87.404 4.804 87.308 4.54 87.308C4.292 87.308 4.064 87.404 3.856 87.596C3.656 87.78 3.496 88.108 3.376 88.58C3.256 89.044 3.196 89.688 3.196 90.512C3.196 91.344 3.256 92 3.376 92.48C3.496 92.952 3.656 93.288 3.856 93.488C4.064 93.688 4.292 93.788 4.54 93.788Z" fill="#4C9F38"/>
<path d="M82.984 95V93.56H84.904V87.956H83.284V86.852C83.732 86.772 84.116 86.676 84.436 86.564C84.764 86.444 85.068 86.292 85.348 86.108H86.656V93.56H88.324V95H82.984ZM92.6181 95.168C92.0181 95.168 91.4901 94.996 91.0341 94.652C90.5861 94.3 90.2341 93.78 89.9781 93.092C89.7301 92.396 89.6061 91.536 89.6061 90.512C89.6061 89.496 89.7301 88.652 89.9781 87.98C90.2341 87.3 90.5861 86.792 91.0341 86.456C91.4901 86.12 92.0181 85.952 92.6181 85.952C93.2261 85.952 93.7541 86.124 94.2021 86.468C94.6501 86.804 94.9981 87.308 95.2461 87.98C95.5021 88.652 95.6301 89.496 95.6301 90.512C95.6301 91.536 95.5021 92.396 95.2461 93.092C94.9981 93.78 94.6501 94.3 94.2021 94.652C93.7541 94.996 93.2261 95.168 92.6181 95.168ZM92.6181 93.788C92.8821 93.788 93.1141 93.688 93.3141 93.488C93.5141 93.288 93.6701 92.952 93.7821 92.48C93.8941 92 93.9501 91.344 93.9501 90.512C93.9501 89.688 93.8941 89.044 93.7821 88.58C93.6701 88.108 93.5141 87.78 93.3141 87.596C93.1141 87.404 92.8821 87.308 92.6181 87.308C92.3701 87.308 92.1421 87.404 91.9341 87.596C91.7341 87.78 91.5741 88.108 91.4541 88.58C91.3341 89.044 91.2741 89.688 91.2741 90.512C91.2741 91.344 91.3341 92 91.4541 92.48C91.5741 92.952 91.7341 93.288 91.9341 93.488C92.1421 93.688 92.3701 93.788 92.6181 93.788Z" fill="#4C9F38"/>
<path d="M170.516 95V93.98C171.324 93.26 172.012 92.592 172.58 91.976C173.156 91.36 173.596 90.788 173.9 90.26C174.204 89.724 174.356 89.228 174.356 88.772C174.356 88.484 174.304 88.232 174.2 88.016C174.096 87.8 173.944 87.636 173.744 87.524C173.552 87.404 173.312 87.344 173.024 87.344C172.704 87.344 172.408 87.436 172.136 87.62C171.872 87.796 171.628 88.008 171.404 88.256L170.42 87.308C170.836 86.86 171.26 86.524 171.692 86.3C172.132 86.068 172.652 85.952 173.252 85.952C173.812 85.952 174.3 86.068 174.716 86.3C175.14 86.524 175.468 86.84 175.7 87.248C175.932 87.656 176.048 88.136 176.048 88.688C176.048 89.224 175.912 89.772 175.64 90.332C175.376 90.884 175.02 91.436 174.572 91.988C174.124 92.54 173.628 93.084 173.084 93.62C173.316 93.588 173.564 93.564 173.828 93.548C174.1 93.524 174.34 93.512 174.548 93.512H176.468V95H170.516ZM180.618 95.168C180.018 95.168 179.49 94.996 179.034 94.652C178.586 94.3 178.234 93.78 177.978 93.092C177.73 92.396 177.606 91.536 177.606 90.512C177.606 89.496 177.73 88.652 177.978 87.98C178.234 87.3 178.586 86.792 179.034 86.456C179.49 86.12 180.018 85.952 180.618 85.952C181.226 85.952 181.754 86.124 182.202 86.468C182.65 86.804 182.998 87.308 183.246 87.98C183.502 88.652 183.63 89.496 183.63 90.512C183.63 91.536 183.502 92.396 183.246 93.092C182.998 93.78 182.65 94.3 182.202 94.652C181.754 94.996 181.226 95.168 180.618 95.168ZM180.618 93.788C180.882 93.788 181.114 93.688 181.314 93.488C181.514 93.288 181.67 92.952 181.782 92.48C181.894 92 181.95 91.344 181.95 90.512C181.95 89.688 181.894 89.044 181.782 88.58C181.67 88.108 181.514 87.78 181.314 87.596C181.114 87.404 180.882 87.308 180.618 87.308C180.37 87.308 180.142 87.404 179.934 87.596C179.734 87.78 179.574 88.108 179.454 88.58C179.334 89.044 179.274 89.688 179.274 90.512C179.274 91.344 179.334 92 179.454 92.48C179.574 92.952 179.734 93.288 179.934 93.488C180.142 93.688 180.37 93.788 180.618 93.788Z" fill="#4C9F38"/>
<path d="M261.276 95.168C260.812 95.168 260.396 95.112 260.028 95C259.66 94.896 259.332 94.752 259.044 94.568C258.764 94.376 258.52 94.164 258.312 93.932L259.14 92.816C259.412 93.064 259.708 93.28 260.028 93.464C260.356 93.64 260.72 93.728 261.12 93.728C261.424 93.728 261.688 93.68 261.912 93.584C262.144 93.488 262.32 93.348 262.44 93.164C262.568 92.98 262.632 92.756 262.632 92.492C262.632 92.196 262.56 91.944 262.416 91.736C262.28 91.52 262.036 91.356 261.684 91.244C261.332 91.132 260.836 91.076 260.196 91.076V89.804C260.74 89.804 261.168 89.748 261.48 89.636C261.792 89.516 262.012 89.356 262.14 89.156C262.276 88.948 262.344 88.712 262.344 88.448C262.344 88.104 262.24 87.836 262.032 87.644C261.824 87.444 261.532 87.344 261.156 87.344C260.844 87.344 260.552 87.416 260.28 87.56C260.016 87.696 259.752 87.884 259.488 88.124L258.576 87.032C258.968 86.704 259.38 86.444 259.812 86.252C260.244 86.052 260.72 85.952 261.24 85.952C261.808 85.952 262.308 86.044 262.74 86.228C263.18 86.412 263.52 86.68 263.76 87.032C264 87.384 264.12 87.812 264.12 88.316C264.12 88.796 263.992 89.208 263.736 89.552C263.48 89.896 263.116 90.16 262.644 90.344V90.404C262.972 90.492 263.268 90.636 263.532 90.836C263.804 91.028 264.016 91.272 264.168 91.568C264.328 91.864 264.408 92.208 264.408 92.6C264.408 93.136 264.264 93.596 263.976 93.98C263.696 94.364 263.316 94.66 262.836 94.868C262.364 95.068 261.844 95.168 261.276 95.168ZM268.618 95.168C268.018 95.168 267.49 94.996 267.034 94.652C266.586 94.3 266.234 93.78 265.978 93.092C265.73 92.396 265.606 91.536 265.606 90.512C265.606 89.496 265.73 88.652 265.978 87.98C266.234 87.3 266.586 86.792 267.034 86.456C267.49 86.12 268.018 85.952 268.618 85.952C269.226 85.952 269.754 86.124 270.202 86.468C270.65 86.804 270.998 87.308 271.246 87.98C271.502 88.652 271.63 89.496 271.63 90.512C271.63 91.536 271.502 92.396 271.246 93.092C270.998 93.78 270.65 94.3 270.202 94.652C269.754 94.996 269.226 95.168 268.618 95.168ZM268.618 93.788C268.882 93.788 269.114 93.688 269.314 93.488C269.514 93.288 269.67 92.952 269.782 92.48C269.894 92 269.95 91.344 269.95 90.512C269.95 89.688 269.894 89.044 269.782 88.58C269.67 88.108 269.514 87.78 269.314 87.596C269.114 87.404 268.882 87.308 268.618 87.308C268.37 87.308 268.142 87.404 267.934 87.596C267.734 87.78 267.574 88.108 267.454 88.58C267.334 89.044 267.274 89.688 267.274 90.512C267.274 91.344 267.334 92 267.454 92.48C267.574 92.952 267.734 93.288 267.934 93.488C268.142 93.688 268.37 93.788 268.618 93.788Z" fill="#4C9F38"/>
<path d="M350.044 95V89.54C350.044 89.284 350.052 88.98 350.068 88.628C350.084 88.268 350.1 87.956 350.116 87.692H350.056C349.952 87.932 349.84 88.172 349.72 88.412C349.6 88.652 349.476 88.896 349.348 89.144L347.968 91.352H352.744V92.696H346.252V91.496L349.564 86.108H351.688V95H350.044ZM356.618 95.168C356.018 95.168 355.49 94.996 355.034 94.652C354.586 94.3 354.234 93.78 353.978 93.092C353.73 92.396 353.606 91.536 353.606 90.512C353.606 89.496 353.73 88.652 353.978 87.98C354.234 87.3 354.586 86.792 355.034 86.456C355.49 86.12 356.018 85.952 356.618 85.952C357.226 85.952 357.754 86.124 358.202 86.468C358.65 86.804 358.998 87.308 359.246 87.98C359.502 88.652 359.63 89.496 359.63 90.512C359.63 91.536 359.502 92.396 359.246 93.092C358.998 93.78 358.65 94.3 358.202 94.652C357.754 94.996 357.226 95.168 356.618 95.168ZM356.618 93.788C356.882 93.788 357.114 93.688 357.314 93.488C357.514 93.288 357.67 92.952 357.782 92.48C357.894 92 357.95 91.344 357.95 90.512C357.95 89.688 357.894 89.044 357.782 88.58C357.67 88.108 357.514 87.78 357.314 87.596C357.114 87.404 356.882 87.308 356.618 87.308C356.37 87.308 356.142 87.404 355.934 87.596C355.734 87.78 355.574 88.108 355.454 88.58C355.334 89.044 355.274 89.688 355.274 90.512C355.274 91.344 355.334 92 355.454 92.48C355.574 92.952 355.734 93.288 355.934 93.488C356.142 93.688 356.37 93.788 356.618 93.788Z" fill="#4C9F38"/>
</svg>
