<svg width="362" height="98" viewBox="0 0 362 98" fill="none" xmlns="http://www.w3.org/2000/svg">
<path d="M27.5078 34.4844H25.6266C25.5475 34.4844 25.4834 34.5485 25.4834 34.6275V39.2845C25.4834 39.3635 25.5475 39.4276 25.6266 39.4276H27.5078C27.5868 39.4276 27.6509 39.3635 27.6509 39.2845V34.6275C27.6509 34.5485 27.5868 34.4844 27.5078 34.4844Z" fill="#56C02B"/>
<path d="M48.2205 41.4277H17.1432C17.0636 41.4277 17 41.4953 17 41.5749V43.4758C17 43.5514 17.0636 43.615 17.1432 43.615H48.2205C48.2961 43.615 48.3637 43.5514 48.3637 43.4758V41.5749C48.3637 41.4953 48.2961 41.4277 48.2205 41.4277Z" fill="#56C02B"/>
<path d="M48.2205 45.2012H17.1432C17.0636 45.2012 17 45.2648 17 45.3404V47.2453C17 47.3209 17.0636 47.3845 17.1432 47.3845H48.2205C48.2961 47.3845 48.3637 47.3209 48.3637 47.2453V45.3404C48.3637 45.2648 48.2961 45.2012 48.2205 45.2012Z" fill="#56C02B"/>
<path d="M42.3068 29.3258C41.9171 29.0236 40.883 28.3117 39.6183 28.3117C38.7155 28.3117 37.8763 28.6697 37.1206 29.3736C37.0689 29.4253 37.0371 29.4929 37.0371 29.5684V29.7394C37.0371 29.823 37.0649 29.9025 37.1246 29.9502C37.1922 30.0019 37.2638 30.0218 37.3434 30.0019C37.3593 30.0019 37.3831 29.994 37.403 29.986C37.4587 29.9661 37.5144 29.9303 37.5581 29.8866C37.7212 29.7752 38.1666 29.6281 38.803 29.6281C39.4393 29.6281 40.7557 29.8031 42.0045 30.9683L42.0324 30.9922C42.104 31.0637 42.1994 31.1035 42.3028 31.1035C42.4062 31.1035 42.5017 31.0637 42.5653 30.9922L42.5892 30.9643C43.846 29.7951 45.1385 29.6201 45.7948 29.6201C46.451 29.6201 46.8805 29.7713 47.0436 29.8786C47.0873 29.9224 47.143 29.9582 47.2146 29.982C47.2424 29.99 47.322 30.0059 47.3975 29.986C47.5129 29.9542 47.5924 29.8508 47.5924 29.7315V29.5804C47.5924 29.5088 47.5606 29.4372 47.5089 29.3895C46.7493 28.6657 45.9021 28.2998 44.9834 28.2998C43.7306 28.2998 42.7005 28.9997 42.2989 29.3139" fill="#56C02B"/>
<path d="M40.3772 16.9379C40.3096 16.9697 40.2619 17.0294 40.242 17.101L40.2102 17.2044C40.1863 17.2879 40.2022 17.3714 40.25 17.439C40.2977 17.5026 40.3653 17.5384 40.4409 17.5424C40.4568 17.5424 40.4687 17.5464 40.4806 17.5424C40.5363 17.5424 40.584 17.5305 40.6318 17.5026C40.6596 17.4987 40.7153 17.4827 40.8187 17.4827C40.9579 17.4827 42.2107 17.5265 43.0379 18.9343L43.0499 18.9542C43.0936 19.0377 43.1652 19.0934 43.2487 19.1133C43.2726 19.1212 43.3203 19.1292 43.3481 19.1292C43.4038 19.1292 43.4635 19.1133 43.5032 19.0894L43.5231 19.0815C43.9765 18.8548 44.4458 18.7394 44.9111 18.7394C45.6946 18.7394 46.2077 19.0616 46.327 19.1928C46.3509 19.2366 46.3906 19.2763 46.4304 19.3081C46.4583 19.324 46.502 19.3479 46.5298 19.3559C46.5458 19.3559 46.5617 19.3598 46.5776 19.3638C46.5855 19.3638 46.5975 19.3638 46.6054 19.3638C46.6492 19.3638 46.6889 19.3519 46.7287 19.332C46.7923 19.3002 46.8401 19.2405 46.8599 19.1729L46.8878 19.0815C46.8957 19.0576 46.8997 19.0337 46.8997 19.0059C46.8997 18.9582 46.8878 18.9105 46.8639 18.8707C46.2594 17.8208 45.3844 17.6021 44.756 17.6021C44.2867 17.6021 43.8771 17.7253 43.6385 17.8128C43.3521 17.431 42.6323 16.6396 41.5425 16.6396C41.1607 16.6396 40.767 16.7391 40.3772 16.9339" fill="#56C02B"/>
<path d="M33.811 21.7179L33.819 21.8571C33.823 21.9446 33.8707 22.0201 33.9423 22.0679C34.0019 22.1076 34.0815 22.1196 34.1531 22.0997C34.169 22.0997 34.1849 22.0917 34.1968 22.0838C34.2485 22.0599 34.2963 22.0281 34.332 21.9843C34.4633 21.8889 34.8888 21.7139 35.5172 21.7139C36.1456 21.7139 37.0405 21.877 37.9751 22.6445L37.995 22.6684C38.0626 22.728 38.1461 22.7598 38.2336 22.7598H38.2575C38.3569 22.7519 38.4444 22.7081 38.5001 22.6445L38.52 22.6206C39.554 21.523 40.6716 21.36 41.2443 21.36C41.6539 21.36 41.9403 21.4435 42.0556 21.5071C42.0994 21.5429 42.1511 21.5747 42.2187 21.5906C42.2386 21.5946 42.2823 21.6026 42.334 21.5986C42.3539 21.5986 42.3778 21.5906 42.3977 21.5827C42.509 21.5429 42.5806 21.4355 42.5727 21.3162L42.5647 21.1929C42.5607 21.1214 42.5249 21.0538 42.4693 21.01C41.8528 20.489 41.1846 20.2266 40.4807 20.2266C39.387 20.2266 38.516 20.8708 38.1541 21.189C37.824 20.9623 37.0206 20.501 36.082 20.501C35.2547 20.501 34.515 20.843 33.8787 21.5191C33.827 21.5707 33.8031 21.6463 33.8071 21.7179" fill="#56C02B"/>
<path d="M18.086 24.2155C18.086 22.3543 19.5933 20.8471 21.4546 20.8471C21.5262 20.8471 21.5978 20.855 21.6694 20.859C21.8484 18.5047 23.8091 16.6475 26.2113 16.6475C28.6135 16.6475 30.7691 18.6876 30.7691 21.205C30.7691 21.9168 30.602 22.5889 30.3077 23.1934C32.5906 23.6985 34.2968 25.7307 34.2968 28.1645C34.2968 30.9762 32.0139 33.2589 29.2021 33.2589C28.9953 33.2589 22.4052 33.2191 22.4052 33.2191C20.4126 33.2191 18.7979 31.6045 18.7979 29.6121C18.7979 28.6537 19.1718 27.7867 19.7803 27.1425C18.7661 26.5618 18.082 25.4722 18.082 24.2194L18.086 24.2155Z" fill="#56C02B"/>
<path d="M88.488 42.336C86.112 42.336 83.736 41.4 82.008 39.744L84.048 37.296C85.32 38.472 87 39.264 88.56 39.264C90.408 39.264 91.392 38.472 91.392 37.224C91.392 35.904 90.312 35.496 88.728 34.824L86.352 33.816C84.552 33.072 82.752 31.632 82.752 29.04C82.752 26.136 85.296 23.904 88.896 23.904C90.96 23.904 93.024 24.72 94.464 26.184L92.664 28.416C91.536 27.48 90.36 26.952 88.896 26.952C87.336 26.952 86.352 27.648 86.352 28.824C86.352 30.096 87.6 30.552 89.112 31.152L91.44 32.136C93.6 33.024 95.016 34.392 95.016 36.96C95.016 39.864 92.592 42.336 88.488 42.336ZM98.1606 42V24.216H103.033C108.457 24.216 111.817 27.048 111.817 33.048C111.817 39.024 108.457 42 103.225 42H98.1606ZM101.713 39.144H102.817C106.129 39.144 108.193 37.368 108.193 33.048C108.193 28.704 106.129 27.072 102.817 27.072H101.713V39.144ZM122.925 42.336C118.101 42.336 114.405 39.12 114.405 33.192C114.405 27.336 118.197 23.904 122.925 23.904C125.493 23.904 127.269 25.008 128.421 26.184L126.549 28.44C125.661 27.6 124.653 26.952 123.045 26.952C120.093 26.952 118.029 29.256 118.029 33.072C118.029 36.936 119.805 39.264 123.309 39.264C124.149 39.264 125.013 39.024 125.517 38.592V35.088H122.373V32.184H128.685V40.2C127.485 41.376 125.397 42.336 122.925 42.336ZM136.049 42.336C134.249 42.336 132.281 41.544 130.937 40.44L132.545 38.232C133.745 39.168 134.897 39.696 136.145 39.696C137.489 39.696 138.089 39.12 138.089 38.28C138.089 37.272 136.697 36.816 135.281 36.264C133.577 35.616 131.681 34.584 131.681 32.328C131.681 29.928 133.625 28.224 136.697 28.224C138.641 28.224 140.153 29.04 141.257 29.88L139.673 32.016C138.713 31.32 137.777 30.864 136.793 30.864C135.569 30.864 134.993 31.392 134.993 32.16C134.993 33.144 136.241 33.504 137.657 34.032C139.433 34.704 141.401 35.592 141.401 38.088C141.401 40.44 139.553 42.336 136.049 42.336ZM149.601 42V39.144H153.417V28.368H150.201V26.184C151.977 25.848 153.201 25.392 154.329 24.696H156.945V39.144H160.281V42H149.601ZM168.39 42.336C165.582 42.336 163.71 41.232 162.39 39.912L164.022 37.656C165.03 38.64 166.278 39.456 167.934 39.456C169.782 39.456 171.078 38.376 171.078 36.432C171.078 34.512 169.878 33.432 168.078 33.432C167.022 33.432 166.446 33.696 165.414 34.368L163.806 33.336L164.286 24.696H173.79V27.648H167.334L166.998 31.416C167.718 31.104 168.318 30.936 169.134 30.936C172.11 30.936 174.606 32.616 174.606 36.312C174.606 40.128 171.678 42.336 168.39 42.336Z" fill="#56C02B"/>
<path d="M197.96 31.34H196.42C196.14 33.38 195.32 34.72 192.68 35.5C192.52 35.06 192.1 34.4 191.7 33.98C191.78 34.4 191.8 34.78 191.8 35.16C191.8 36.46 191.52 37.28 190.86 37.74C190.56 37.98 190.16 38.1 189.72 38.18C189.34 38.24 188.86 38.24 188.42 38.22C188.4 37.62 188.2 36.72 187.88 36.12C188.22 36.16 188.5 36.16 188.72 36.16C188.94 36.14 189.14 36.1 189.3 35.98C189.54 35.8 189.62 35.42 189.62 34.84C189.62 33.94 189.36 32.72 188.24 31.4C188.64 30.16 189.06 28.4 189.38 27.04H187.72V42.76H185.52V24.92H190.12L190.48 24.82L192.08 25.74C191.56 27.46 190.86 29.6 190.3 31.14C191.06 32.1 191.46 32.96 191.64 33.78C193.46 33.28 194.06 32.54 194.28 31.34H191.64V29.32H196.14V27.8H192.68V25.84H196.14V24.12H198.48V25.84H202.1V27.8H198.48V29.32H203.12V31.34H200V32.34C200 32.78 200.04 32.96 200.4 32.96H201.8C202.14 32.96 202.76 32.92 203.04 32.82C203.08 33.36 203.12 34 203.2 34.5C202.9 34.6 202.34 34.64 201.86 34.64H200.08C198.32 34.64 197.96 33.92 197.96 32.32V31.34ZM198.48 40.24H203.34V42.32H190.8V40.24H196.14V38.34H192.4V36.3H196.14V34.56H198.48V36.3H202.3V38.34H198.48V40.24ZM210.14 35.22L210.82 37.32C209.06 38.36 207.12 39.46 205.48 40.34L204.58 37.94C205.14 37.7 205.82 37.38 206.56 37.04V31.08H204.76V28.8H206.56V24.32H208.78V28.8H210.28V31.08H208.78V35.9L210.14 35.22ZM220.72 30.28L222.84 30.68C222.22 33.3 221.34 35.64 220.18 37.64C220.52 39.42 220.98 40.5 221.46 40.5C221.74 40.5 221.9 39.76 221.96 37.98C222.4 38.54 223.06 39.04 223.56 39.3C223.22 41.96 222.64 42.72 221.14 42.72C220.02 42.72 219.18 41.66 218.56 39.96C217.74 40.98 216.8 41.86 215.76 42.6C215.44 42.2 214.56 41.44 214.06 41.1C215.02 40.5 215.86 39.78 216.62 38.98C214.5 39.54 212.26 40.14 210.54 40.58L209.98 38.36C211.72 38.04 214.34 37.44 216.86 36.88L217.04 38.46C217.34 38.1 217.62 37.74 217.88 37.36C217.42 34.98 217.16 32.06 217.04 28.96H210.58V26.8H216.96C216.94 25.88 216.92 24.98 216.92 24.06H219.18C219.16 24.98 219.16 25.88 219.18 26.8H221.3C220.8 26.28 220.14 25.68 219.56 25.22L220.9 24.06C221.68 24.62 222.64 25.42 223.1 26L222.24 26.8H223.12V28.96H219.24C219.32 30.78 219.44 32.48 219.62 34C220.08 32.84 220.42 31.62 220.72 30.28ZM214.44 34.56V32.12H212.9V34.56H214.44ZM211.16 30.3H216.3V36.38H211.16V30.3ZM235.28 39.84H243.04V42.18H225.06V39.84H232.78V35.82H227.36V33.52H232.78V30H228.64C228.06 31.1 227.44 32.12 226.78 32.9C226.3 32.52 225.24 31.8 224.64 31.48C226.2 29.8 227.5 27.04 228.18 24.32L230.64 24.86C230.36 25.82 230.04 26.76 229.7 27.68H232.78V24.08H235.28V27.68H242.02V30H235.28V33.52H241.26V35.82H235.28V39.84ZM260.62 30.4H257.64C255.44 30.4 254.88 29.64 254.88 27.68V24.2L257.08 24.22V25.4H261.82V27.16H257.08V27.74C257.08 28.3 257.16 28.52 257.72 28.52H260.54C261.08 28.52 261.94 28.46 262.34 28.36C262.38 28.94 262.44 29.74 262.54 30.24C262.14 30.36 261.34 30.4 260.62 30.4ZM260.52 37.18H257.7C255.42 37.18 254.88 36.6 254.88 34.66V30.72H257.06V32H261.88V33.74H257.06V34.66C257.06 35.22 257.22 35.28 257.98 35.28H260.28C260.84 35.28 260.98 35.14 261.06 34.28C261.5 34.56 262.4 34.88 262.98 35C262.74 36.7 262.12 37.18 260.52 37.18ZM252.62 37.58L254.26 36.56C254.88 37.26 255.74 38.22 256.16 38.84L254.44 40.02C254.04 39.38 253.24 38.32 252.62 37.58ZM254.58 28.18L252.88 29.1C252.74 28.82 252.54 28.48 252.32 28.12C246.84 28.64 246.04 28.76 245.54 29C245.42 28.56 245.1 27.62 244.88 27.12C245.22 27.04 245.58 26.84 245.96 26.52C246.34 26.24 247.58 25.18 248.36 24.02L250.46 24.66C249.82 25.44 249.04 26.18 248.26 26.84L251.28 26.6C251.02 26.26 250.76 25.92 250.5 25.62L252.1 24.82C253 25.84 254.08 27.26 254.58 28.18ZM251.34 30.84H248.02V31.92L248.74 31.04C249.56 31.36 250.72 31.84 251.34 32.16V30.84ZM250.54 33.32L251.34 33.08V32.2L250.54 33.32ZM248.02 32.16V32.26C248.02 32.84 248 33.46 247.92 34.1C248.64 33.9 249.5 33.64 250.44 33.36C249.86 33.02 248.84 32.54 248.02 32.16ZM248.26 35.82L247.82 34.72C247.62 35.72 247.24 36.68 246.58 37.42C246.24 37.08 245.34 36.44 244.9 36.22C245.96 35.04 246.04 33.5 246.04 32.22V29.2H253.4V35.46C253.4 36.32 253.22 36.7 252.64 36.98C252.08 37.24 251.28 37.24 250.22 37.24C250.12 36.76 249.84 36.12 249.62 35.7C250.24 35.74 250.88 35.74 251.06 35.72C251.28 35.7 251.34 35.64 251.34 35.46V34.46C250.28 34.94 249.22 35.4 248.26 35.82ZM246.92 42.22L244.84 41.18C245.48 40.22 246.08 38.78 246.38 37.54L248.42 38.34C248.06 39.62 247.56 41.22 246.92 42.22ZM252.78 40.52H256.08C256.96 40.52 257.12 40.24 257.22 38.5C257.7 38.84 258.64 39.14 259.24 39.26C258.98 41.78 258.36 42.4 256.28 42.4H252.56C249.9 42.4 249.2 41.82 249.2 39.94V37.9H251.52V39.9C251.52 40.44 251.72 40.52 252.78 40.52ZM259.38 38.1L261.42 37.5C261.96 38.64 262.62 40.16 262.92 41.1L260.74 41.78C260.48 40.84 259.9 39.26 259.38 38.1Z" fill="#56C02B"/>
<rect x="1" y="64" width="18" height="18" fill="#56C02B" stroke="black"/>
<rect x="19" y="64" width="18" height="18" fill="#56C02B" stroke="black"/>
<rect x="37" y="64" width="18" height="18" fill="#56C02B" stroke="black"/>
<rect x="55" y="64" width="18" height="18" fill="#56C02B" stroke="black"/>
<rect x="73" y="64" width="18" height="18" fill="#56C02B" stroke="black"/>
<rect x="91" y="64" width="18" height="18" fill="#56C02B" stroke="black"/>
<rect x="109" y="64" width="18" height="18" fill="#56C02B" stroke="black"/>
<rect x="127" y="64" width="18" height="18" fill="#56C02B" stroke="black"/>
<rect x="145" y="64" width="18" height="18" fill="#56C02B" stroke="black"/>
<rect x="163" y="64" width="18" height="18" fill="#56C02B" stroke="black"/>
<rect x="181" y="64" width="18" height="18" fill="#4C9F38" fill-opacity="0.3" stroke="black"/>
<rect x="199" y="64" width="18" height="18" fill="#4C9F38" fill-opacity="0.3" stroke="black"/>
<rect x="217" y="64" width="18" height="18" fill="#4C9F38" fill-opacity="0.3" stroke="black"/>
<rect x="235" y="64" width="18" height="18" fill="#4C9F38" fill-opacity="0.3" stroke="black"/>
<rect x="253" y="64" width="18" height="18" fill="#4C9F38" fill-opacity="0.3" stroke="black"/>
<rect x="271" y="64" width="18" height="18" fill="#4C9F38" fill-opacity="0.3" stroke="black"/>
<rect x="289" y="64" width="18" height="18" fill="#4C9F38" fill-opacity="0.3" stroke="black"/>
<rect x="307" y="64" width="18" height="18" fill="#4C9F38" fill-opacity="0.3" stroke="black"/>
<rect x="325" y="64" width="18" height="18" fill="#4C9F38" fill-opacity="0.3" stroke="black"/>
<rect x="343" y="64" width="18" height="18" fill="#4C9F38" fill-opacity="0.3" stroke="black"/>
<path d="M4.54 95.168C3.94 95.168 3.412 94.996 2.956 94.652C2.508 94.3 2.156 93.78 1.9 93.092C1.652 92.396 1.528 91.536 1.528 90.512C1.528 89.496 1.652 88.652 1.9 87.98C2.156 87.3 2.508 86.792 2.956 86.456C3.412 86.12 3.94 85.952 4.54 85.952C5.148 85.952 5.676 86.124 6.124 86.468C6.572 86.804 6.92 87.308 7.168 87.98C7.424 88.652 7.552 89.496 7.552 90.512C7.552 91.536 7.424 92.396 7.168 93.092C6.92 93.78 6.572 94.3 6.124 94.652C5.676 94.996 5.148 95.168 4.54 95.168ZM4.54 93.788C4.804 93.788 5.036 93.688 5.236 93.488C5.436 93.288 5.592 92.952 5.704 92.48C5.816 92 5.872 91.344 5.872 90.512C5.872 89.688 5.816 89.044 5.704 88.58C5.592 88.108 5.436 87.78 5.236 87.596C5.036 87.404 4.804 87.308 4.54 87.308C4.292 87.308 4.064 87.404 3.856 87.596C3.656 87.78 3.496 88.108 3.376 88.58C3.256 89.044 3.196 89.688 3.196 90.512C3.196 91.344 3.256 92 3.376 92.48C3.496 92.952 3.656 93.288 3.856 93.488C4.064 93.688 4.292 93.788 4.54 93.788Z" fill="#56C02B"/>
<path d="M82.984 95V93.56H84.904V87.956H83.284V86.852C83.732 86.772 84.116 86.676 84.436 86.564C84.764 86.444 85.068 86.292 85.348 86.108H86.656V93.56H88.324V95H82.984ZM92.6181 95.168C92.0181 95.168 91.4901 94.996 91.0341 94.652C90.5861 94.3 90.2341 93.78 89.9781 93.092C89.7301 92.396 89.6061 91.536 89.6061 90.512C89.6061 89.496 89.7301 88.652 89.9781 87.98C90.2341 87.3 90.5861 86.792 91.0341 86.456C91.4901 86.12 92.0181 85.952 92.6181 85.952C93.2261 85.952 93.7541 86.124 94.2021 86.468C94.6501 86.804 94.9981 87.308 95.2461 87.98C95.5021 88.652 95.6301 89.496 95.6301 90.512C95.6301 91.536 95.5021 92.396 95.2461 93.092C94.9981 93.78 94.6501 94.3 94.2021 94.652C93.7541 94.996 93.2261 95.168 92.6181 95.168ZM92.6181 93.788C92.8821 93.788 93.1141 93.688 93.3141 93.488C93.5141 93.288 93.6701 92.952 93.7821 92.48C93.8941 92 93.9501 91.344 93.9501 90.512C93.9501 89.688 93.8941 89.044 93.7821 88.58C93.6701 88.108 93.5141 87.78 93.3141 87.596C93.1141 87.404 92.8821 87.308 92.6181 87.308C92.3701 87.308 92.1421 87.404 91.9341 87.596C91.7341 87.78 91.5741 88.108 91.4541 88.58C91.3341 89.044 91.2741 89.688 91.2741 90.512C91.2741 91.344 91.3341 92 91.4541 92.48C91.5741 92.952 91.7341 93.288 91.9341 93.488C92.1421 93.688 92.3701 93.788 92.6181 93.788Z" fill="#56C02B"/>
<path d="M170.516 95V93.98C171.324 93.26 172.012 92.592 172.58 91.976C173.156 91.36 173.596 90.788 173.9 90.26C174.204 89.724 174.356 89.228 174.356 88.772C174.356 88.484 174.304 88.232 174.2 88.016C174.096 87.8 173.944 87.636 173.744 87.524C173.552 87.404 173.312 87.344 173.024 87.344C172.704 87.344 172.408 87.436 172.136 87.62C171.872 87.796 171.628 88.008 171.404 88.256L170.42 87.308C170.836 86.86 171.26 86.524 171.692 86.3C172.132 86.068 172.652 85.952 173.252 85.952C173.812 85.952 174.3 86.068 174.716 86.3C175.14 86.524 175.468 86.84 175.7 87.248C175.932 87.656 176.048 88.136 176.048 88.688C176.048 89.224 175.912 89.772 175.64 90.332C175.376 90.884 175.02 91.436 174.572 91.988C174.124 92.54 173.628 93.084 173.084 93.62C173.316 93.588 173.564 93.564 173.828 93.548C174.1 93.524 174.34 93.512 174.548 93.512H176.468V95H170.516ZM180.618 95.168C180.018 95.168 179.49 94.996 179.034 94.652C178.586 94.3 178.234 93.78 177.978 93.092C177.73 92.396 177.606 91.536 177.606 90.512C177.606 89.496 177.73 88.652 177.978 87.98C178.234 87.3 178.586 86.792 179.034 86.456C179.49 86.12 180.018 85.952 180.618 85.952C181.226 85.952 181.754 86.124 182.202 86.468C182.65 86.804 182.998 87.308 183.246 87.98C183.502 88.652 183.63 89.496 183.63 90.512C183.63 91.536 183.502 92.396 183.246 93.092C182.998 93.78 182.65 94.3 182.202 94.652C181.754 94.996 181.226 95.168 180.618 95.168ZM180.618 93.788C180.882 93.788 181.114 93.688 181.314 93.488C181.514 93.288 181.67 92.952 181.782 92.48C181.894 92 181.95 91.344 181.95 90.512C181.95 89.688 181.894 89.044 181.782 88.58C181.67 88.108 181.514 87.78 181.314 87.596C181.114 87.404 180.882 87.308 180.618 87.308C180.37 87.308 180.142 87.404 179.934 87.596C179.734 87.78 179.574 88.108 179.454 88.58C179.334 89.044 179.274 89.688 179.274 90.512C179.274 91.344 179.334 92 179.454 92.48C179.574 92.952 179.734 93.288 179.934 93.488C180.142 93.688 180.37 93.788 180.618 93.788Z" fill="#56C02B"/>
<path d="M261.276 95.168C260.812 95.168 260.396 95.112 260.028 95C259.66 94.896 259.332 94.752 259.044 94.568C258.764 94.376 258.52 94.164 258.312 93.932L259.14 92.816C259.412 93.064 259.708 93.28 260.028 93.464C260.356 93.64 260.72 93.728 261.12 93.728C261.424 93.728 261.688 93.68 261.912 93.584C262.144 93.488 262.32 93.348 262.44 93.164C262.568 92.98 262.632 92.756 262.632 92.492C262.632 92.196 262.56 91.944 262.416 91.736C262.28 91.52 262.036 91.356 261.684 91.244C261.332 91.132 260.836 91.076 260.196 91.076V89.804C260.74 89.804 261.168 89.748 261.48 89.636C261.792 89.516 262.012 89.356 262.14 89.156C262.276 88.948 262.344 88.712 262.344 88.448C262.344 88.104 262.24 87.836 262.032 87.644C261.824 87.444 261.532 87.344 261.156 87.344C260.844 87.344 260.552 87.416 260.28 87.56C260.016 87.696 259.752 87.884 259.488 88.124L258.576 87.032C258.968 86.704 259.38 86.444 259.812 86.252C260.244 86.052 260.72 85.952 261.24 85.952C261.808 85.952 262.308 86.044 262.74 86.228C263.18 86.412 263.52 86.68 263.76 87.032C264 87.384 264.12 87.812 264.12 88.316C264.12 88.796 263.992 89.208 263.736 89.552C263.48 89.896 263.116 90.16 262.644 90.344V90.404C262.972 90.492 263.268 90.636 263.532 90.836C263.804 91.028 264.016 91.272 264.168 91.568C264.328 91.864 264.408 92.208 264.408 92.6C264.408 93.136 264.264 93.596 263.976 93.98C263.696 94.364 263.316 94.66 262.836 94.868C262.364 95.068 261.844 95.168 261.276 95.168ZM268.618 95.168C268.018 95.168 267.49 94.996 267.034 94.652C266.586 94.3 266.234 93.78 265.978 93.092C265.73 92.396 265.606 91.536 265.606 90.512C265.606 89.496 265.73 88.652 265.978 87.98C266.234 87.3 266.586 86.792 267.034 86.456C267.49 86.12 268.018 85.952 268.618 85.952C269.226 85.952 269.754 86.124 270.202 86.468C270.65 86.804 270.998 87.308 271.246 87.98C271.502 88.652 271.63 89.496 271.63 90.512C271.63 91.536 271.502 92.396 271.246 93.092C270.998 93.78 270.65 94.3 270.202 94.652C269.754 94.996 269.226 95.168 268.618 95.168ZM268.618 93.788C268.882 93.788 269.114 93.688 269.314 93.488C269.514 93.288 269.67 92.952 269.782 92.48C269.894 92 269.95 91.344 269.95 90.512C269.95 89.688 269.894 89.044 269.782 88.58C269.67 88.108 269.514 87.78 269.314 87.596C269.114 87.404 268.882 87.308 268.618 87.308C268.37 87.308 268.142 87.404 267.934 87.596C267.734 87.78 267.574 88.108 267.454 88.58C267.334 89.044 267.274 89.688 267.274 90.512C267.274 91.344 267.334 92 267.454 92.48C267.574 92.952 267.734 93.288 267.934 93.488C268.142 93.688 268.37 93.788 268.618 93.788Z" fill="#56C02B"/>
<path d="M350.044 95V89.54C350.044 89.284 350.052 88.98 350.068 88.628C350.084 88.268 350.1 87.956 350.116 87.692H350.056C349.952 87.932 349.84 88.172 349.72 88.412C349.6 88.652 349.476 88.896 349.348 89.144L347.968 91.352H352.744V92.696H346.252V91.496L349.564 86.108H351.688V95H350.044ZM356.618 95.168C356.018 95.168 355.49 94.996 355.034 94.652C354.586 94.3 354.234 93.78 353.978 93.092C353.73 92.396 353.606 91.536 353.606 90.512C353.606 89.496 353.73 88.652 353.978 87.98C354.234 87.3 354.586 86.792 355.034 86.456C355.49 86.12 356.018 85.952 356.618 85.952C357.226 85.952 357.754 86.124 358.202 86.468C358.65 86.804 358.998 87.308 359.246 87.98C359.502 88.652 359.63 89.496 359.63 90.512C359.63 91.536 359.502 92.396 359.246 93.092C358.998 93.78 358.65 94.3 358.202 94.652C357.754 94.996 357.226 95.168 356.618 95.168ZM356.618 93.788C356.882 93.788 357.114 93.688 357.314 93.488C357.514 93.288 357.67 92.952 357.782 92.48C357.894 92 357.95 91.344 357.95 90.512C357.95 89.688 357.894 89.044 357.782 88.58C357.67 88.108 357.514 87.78 357.314 87.596C357.114 87.404 356.882 87.308 356.618 87.308C356.37 87.308 356.142 87.404 355.934 87.596C355.734 87.78 355.574 88.108 355.454 88.58C355.334 89.044 355.274 89.688 355.274 90.512C355.274 91.344 355.334 92 355.454 92.48C355.574 92.952 355.734 93.288 355.934 93.488C356.142 93.688 356.37 93.788 356.618 93.788Z" fill="#56C02B"/>
</svg>
