<svg width="362" height="98" viewBox="0 0 362 98" fill="none" xmlns="http://www.w3.org/2000/svg">
<path d="M44.5389 15.4518C44.4833 15.3922 44.4117 15.3604 44.3282 15.3604H21.1097C21.0301 15.3604 20.9546 15.3922 20.9029 15.4518C20.8512 15.5155 20.8313 15.595 20.8432 15.6706L24.7448 39.2614C24.7647 39.3927 24.88 39.4881 25.0112 39.4881H29.7997L30.1258 43.3298H28.1094L32.7985 48.0185L37.4994 43.3218H35.487L35.8131 39.4881H40.6851C40.8203 39.4881 40.9317 39.3927 40.9516 39.2575L44.6026 15.6706C44.6145 15.591 44.5907 15.5115 44.5429 15.4518H44.5389ZM35.5665 34.342C35.5665 34.342 34.5126 35.4277 32.7945 35.3084C31.0764 35.4277 30.0224 34.342 30.0224 34.342C28.2844 32.6041 28.9048 30.4407 29.5094 29.3232C29.8832 28.6233 32.5559 24.6106 32.7865 24.2686V24.2407C32.7865 24.2407 32.7865 24.2447 32.7985 24.2527L32.8064 24.2407V24.2686C33.0291 24.6106 35.7057 28.6233 36.0796 29.3232C36.6841 30.4407 37.3045 32.6041 35.5665 34.342ZM42.9322 20.4189C42.3038 20.1406 41.5044 20.24 40.7408 20.5502C37.8613 21.7194 35.9006 22.137 32.87 21.1905C30.961 20.5939 29.1753 19.3412 27.0674 20.1048C25.6675 20.6098 24.363 21.091 22.7801 21.0751L21.8653 16.3864H43.5964L42.9401 20.4189H42.9322Z" fill="#26BDE2"/>
<path d="M88.488 42.336C86.112 42.336 83.736 41.4 82.008 39.744L84.048 37.296C85.32 38.472 87 39.264 88.56 39.264C90.408 39.264 91.392 38.472 91.392 37.224C91.392 35.904 90.312 35.496 88.728 34.824L86.352 33.816C84.552 33.072 82.752 31.632 82.752 29.04C82.752 26.136 85.296 23.904 88.896 23.904C90.96 23.904 93.024 24.72 94.464 26.184L92.664 28.416C91.536 27.48 90.36 26.952 88.896 26.952C87.336 26.952 86.352 27.648 86.352 28.824C86.352 30.096 87.6 30.552 89.112 31.152L91.44 32.136C93.6 33.024 95.016 34.392 95.016 36.96C95.016 39.864 92.592 42.336 88.488 42.336ZM98.1606 42V24.216H103.033C108.457 24.216 111.817 27.048 111.817 33.048C111.817 39.024 108.457 42 103.225 42H98.1606ZM101.713 39.144H102.817C106.129 39.144 108.193 37.368 108.193 33.048C108.193 28.704 106.129 27.072 102.817 27.072H101.713V39.144ZM122.925 42.336C118.101 42.336 114.405 39.12 114.405 33.192C114.405 27.336 118.197 23.904 122.925 23.904C125.493 23.904 127.269 25.008 128.421 26.184L126.549 28.44C125.661 27.6 124.653 26.952 123.045 26.952C120.093 26.952 118.029 29.256 118.029 33.072C118.029 36.936 119.805 39.264 123.309 39.264C124.149 39.264 125.013 39.024 125.517 38.592V35.088H122.373V32.184H128.685V40.2C127.485 41.376 125.397 42.336 122.925 42.336ZM136.049 42.336C134.249 42.336 132.281 41.544 130.937 40.44L132.545 38.232C133.745 39.168 134.897 39.696 136.145 39.696C137.489 39.696 138.089 39.12 138.089 38.28C138.089 37.272 136.697 36.816 135.281 36.264C133.577 35.616 131.681 34.584 131.681 32.328C131.681 29.928 133.625 28.224 136.697 28.224C138.641 28.224 140.153 29.04 141.257 29.88L139.673 32.016C138.713 31.32 137.777 30.864 136.793 30.864C135.569 30.864 134.993 31.392 134.993 32.16C134.993 33.144 136.241 33.504 137.657 34.032C139.433 34.704 141.401 35.592 141.401 38.088C141.401 40.44 139.553 42.336 136.049 42.336ZM155.001 33.744C154.089 33.744 153.009 34.248 152.121 35.64C152.457 38.568 153.657 39.672 155.121 39.672C156.465 39.672 157.545 38.64 157.545 36.576C157.545 34.632 156.537 33.744 155.001 33.744ZM155.193 42.336C151.833 42.336 148.809 39.744 148.809 33.816C148.809 27.216 152.097 24.36 155.697 24.36C157.857 24.36 159.441 25.272 160.497 26.376L158.625 28.488C158.001 27.792 156.921 27.216 155.889 27.216C153.849 27.216 152.169 28.728 152.025 33.192C153.009 31.968 154.521 31.248 155.673 31.248C158.649 31.248 160.785 32.952 160.785 36.576C160.785 40.128 158.241 42.336 155.193 42.336Z" fill="#26BDE2"/>
<path d="M189.632 21.696L191.528 23.736C187.832 24.768 182.6 25.368 178.136 25.632C178.064 25.008 177.752 24.024 177.464 23.448C181.808 23.16 186.728 22.536 189.632 21.696ZM189.512 28.968L187.184 28.296C187.808 27.336 188.648 25.8 189.056 24.696L191.696 25.392C190.952 26.76 190.16 28.056 189.512 28.968ZM186.152 28.272L183.992 29.064C183.824 28.152 183.272 26.808 182.72 25.776L184.808 25.104C185.408 26.088 185.936 27.384 186.152 28.272ZM177.176 24.456L175.64 26.76C174.824 25.896 173.048 24.72 171.656 24.048L173.048 21.96C174.44 22.536 176.264 23.568 177.176 24.456ZM175.88 30.864L174.464 33.24C173.6 32.4 171.8 31.296 170.36 30.648L171.704 28.488C173.096 29.064 174.944 30.072 175.88 30.864ZM173.216 43.8L171.032 41.88C172.208 40.104 173.864 37.176 175.136 34.416L177.032 36.336C175.88 38.832 174.512 41.496 173.216 43.8ZM188.96 36.432V35.064H185.84V36.432H188.96ZM185.84 31.368V32.64H188.96V31.368H185.84ZM193.064 32.64V35.064H191.432V38.688H185.84V41.112C185.84 42.504 185.576 43.176 184.664 43.584C183.776 43.968 182.456 44.016 180.68 44.016C180.584 43.272 180.248 42.192 179.888 41.472C181.04 41.52 182.312 41.52 182.696 41.496C183.08 41.496 183.176 41.4 183.176 41.064V38.688H178.064V36.432H183.176V35.064H176.864V32.64H183.176V31.368H178.28V29.112H179.336C179.048 28.296 178.52 27.288 177.992 26.496L179.96 25.632C180.632 26.472 181.28 27.624 181.496 28.464L180.176 29.112H191.432V32.64H193.064ZM202.016 27.432L203.888 28.128C202.832 34.608 200.24 39.456 196.88 41.976C196.4 41.304 195.272 40.176 194.576 39.768C197.336 37.896 199.4 34.608 200.456 30.408H195.44V27.528H201.488L202.016 27.432ZM213.176 25.872L215.816 27.72C214.04 29.496 211.952 31.488 210.248 32.856C212.072 35.616 214.52 37.872 217.544 39.192C216.848 39.816 215.888 41.016 215.408 41.856C212.024 40.056 209.48 37.128 207.608 33.552V40.44C207.608 42.096 207.296 42.936 206.336 43.464C205.4 43.968 203.96 44.112 202.016 44.112C201.896 43.224 201.392 41.784 200.96 40.92C202.28 40.968 203.552 40.968 204.008 40.968C204.416 40.968 204.56 40.824 204.56 40.416V21.672H207.608V27.528C207.992 28.608 208.424 29.616 208.928 30.624C210.44 29.184 212.096 27.36 213.176 25.872ZM236.24 32.112H229.736C230.528 33.984 231.632 35.664 233.048 37.056C234.416 35.688 235.496 34.032 236.24 32.112ZM226.88 25.44V27.288C226.88 27.96 226.856 28.656 226.832 29.4H230.696C231.032 28.2 231.368 26.808 231.68 25.44H226.88ZM238.04 29.28L240.128 30.168C239.192 33.888 237.584 36.768 235.424 39C237.104 40.104 239.048 40.92 241.304 41.448C240.632 42.096 239.768 43.344 239.312 44.16C236.864 43.44 234.8 42.432 233.048 41.04C231.008 42.552 228.584 43.608 225.92 44.4C225.584 43.584 224.864 42.384 224.264 41.736C226.688 41.16 228.92 40.224 230.816 38.904C229.184 37.032 227.936 34.752 226.928 32.112H226.568C226.016 36.024 224.552 40.392 220.712 43.728C220.304 42.984 219.272 41.808 218.648 41.256C223.4 37.2 223.88 31.152 223.88 27.264V25.44H220.088V22.656H235.256C234.872 24.864 234.368 27.408 233.888 29.4H237.512L238.04 29.28ZM264.872 23.04V25.584H259.208V23.04H264.872ZM246.464 21.672L249.032 22.608C247.736 24.696 245.768 26.952 243.92 28.416C243.632 27.816 242.96 26.76 242.504 26.232C243.992 25.056 245.672 23.16 246.464 21.672ZM255.488 25.32H253.904C253.832 25.776 253.76 26.232 253.688 26.64H255.488V25.32ZM249.008 28.824V28.224C248.648 28.944 248.264 29.664 247.832 30.384V44.112H245.24V34.128C244.784 34.704 244.304 35.208 243.872 35.688C243.608 35.088 242.792 33.696 242.336 33.096C244.04 31.512 245.792 29.064 246.848 26.712L249.008 27.48V26.64H251.264C251.336 26.232 251.408 25.776 251.504 25.32H249.632V23.328H251.816C251.912 22.752 251.984 22.176 252.056 21.672L254.456 21.864L254.24 23.328H257.792V26.64H259.064V28.824H249.008ZM251.696 39.408H253.688V37.824H251.912C251.84 38.352 251.768 38.88 251.696 39.408ZM251.768 31.464V32.832H256.04V31.464H251.768ZM265.232 29.4V31.992H263.6V40.992C263.6 42.264 263.432 43.032 262.616 43.464C261.848 43.92 260.768 43.968 259.328 43.968C259.232 43.272 258.968 42.24 258.68 41.472H256.232V44.088H253.688V41.472H249.056C249.296 40.464 249.536 39.048 249.68 37.824H248.816V35.784H253.688V34.656H249.704V29.64H258.296V34.656H256.232V35.784H258.872V37.824H256.232V39.408H259.304V41.304C259.88 41.304 260.384 41.304 260.576 41.304C260.864 41.28 260.936 41.208 260.936 40.944V31.992H258.8V29.4H265.232ZM279.536 40.608H288.848V43.416H267.272V40.608H276.536V35.784H270.032V33.024H276.536V28.8H271.568C270.872 30.12 270.128 31.344 269.336 32.28C268.76 31.824 267.488 30.96 266.768 30.576C268.64 28.56 270.2 25.248 271.016 21.984L273.968 22.632C273.632 23.784 273.248 24.912 272.84 26.016H276.536V21.696H279.536V26.016H287.624V28.8H279.536V33.024H286.712V35.784H279.536V40.608Z" fill="#26BDE2"/>
<rect x="1" y="64" width="18" height="18" fill="#26BDE2" fill-opacity="0.3" stroke="black"/>
<rect x="19" y="64" width="18" height="18" fill="#26BDE2" fill-opacity="0.3" stroke="black"/>
<rect x="37" y="64" width="18" height="18" fill="#26BDE2" fill-opacity="0.3" stroke="black"/>
<rect x="55" y="64" width="18" height="18" fill="#26BDE2" fill-opacity="0.3" stroke="black"/>
<rect x="73" y="64" width="18" height="18" fill="#26BDE2" fill-opacity="0.3" stroke="black"/>
<rect x="91" y="64" width="18" height="18" fill="#26BDE2" fill-opacity="0.3" stroke="black"/>
<rect x="109" y="64" width="18" height="18" fill="#26BDE2" fill-opacity="0.3" stroke="black"/>
<rect x="127" y="64" width="18" height="18" fill="#26BDE2" fill-opacity="0.3" stroke="black"/>
<rect x="145" y="64" width="18" height="18" fill="#26BDE2" fill-opacity="0.3" stroke="black"/>
<rect x="163" y="64" width="18" height="18" fill="#26BDE2" fill-opacity="0.3" stroke="black"/>
<rect x="181" y="64" width="18" height="18" fill="#26BDE2" fill-opacity="0.3" stroke="black"/>
<rect x="199" y="64" width="18" height="18" fill="#26BDE2" fill-opacity="0.3" stroke="black"/>
<rect x="217" y="64" width="18" height="18" fill="#26BDE2" fill-opacity="0.3" stroke="black"/>
<rect x="235" y="64" width="18" height="18" fill="#26BDE2" fill-opacity="0.3" stroke="black"/>
<rect x="253" y="64" width="18" height="18" fill="#26BDE2" fill-opacity="0.3" stroke="black"/>
<rect x="271" y="64" width="18" height="18" fill="#26BDE2" fill-opacity="0.3" stroke="black"/>
<rect x="289" y="64" width="18" height="18" fill="#26BDE2" fill-opacity="0.3" stroke="black"/>
<rect x="307" y="64" width="18" height="18" fill="#26BDE2" fill-opacity="0.3" stroke="black"/>
<rect x="325" y="64" width="18" height="18" fill="#26BDE2" fill-opacity="0.3" stroke="black"/>
<rect x="343" y="64" width="18" height="18" fill="#26BDE2" fill-opacity="0.3" stroke="black"/>
<path d="M4.54 95.168C3.94 95.168 3.412 94.996 2.956 94.652C2.508 94.3 2.156 93.78 1.9 93.092C1.652 92.396 1.528 91.536 1.528 90.512C1.528 89.496 1.652 88.652 1.9 87.98C2.156 87.3 2.508 86.792 2.956 86.456C3.412 86.12 3.94 85.952 4.54 85.952C5.148 85.952 5.676 86.124 6.124 86.468C6.572 86.804 6.92 87.308 7.168 87.98C7.424 88.652 7.552 89.496 7.552 90.512C7.552 91.536 7.424 92.396 7.168 93.092C6.92 93.78 6.572 94.3 6.124 94.652C5.676 94.996 5.148 95.168 4.54 95.168ZM4.54 93.788C4.804 93.788 5.036 93.688 5.236 93.488C5.436 93.288 5.592 92.952 5.704 92.48C5.816 92 5.872 91.344 5.872 90.512C5.872 89.688 5.816 89.044 5.704 88.58C5.592 88.108 5.436 87.78 5.236 87.596C5.036 87.404 4.804 87.308 4.54 87.308C4.292 87.308 4.064 87.404 3.856 87.596C3.656 87.78 3.496 88.108 3.376 88.58C3.256 89.044 3.196 89.688 3.196 90.512C3.196 91.344 3.256 92 3.376 92.48C3.496 92.952 3.656 93.288 3.856 93.488C4.064 93.688 4.292 93.788 4.54 93.788Z" fill="#26BDE2"/>
<path d="M82.984 95V93.56H84.904V87.956H83.284V86.852C83.732 86.772 84.116 86.676 84.436 86.564C84.764 86.444 85.068 86.292 85.348 86.108H86.656V93.56H88.324V95H82.984ZM92.6181 95.168C92.0181 95.168 91.4901 94.996 91.0341 94.652C90.5861 94.3 90.2341 93.78 89.9781 93.092C89.7301 92.396 89.6061 91.536 89.6061 90.512C89.6061 89.496 89.7301 88.652 89.9781 87.98C90.2341 87.3 90.5861 86.792 91.0341 86.456C91.4901 86.12 92.0181 85.952 92.6181 85.952C93.2261 85.952 93.7541 86.124 94.2021 86.468C94.6501 86.804 94.9981 87.308 95.2461 87.98C95.5021 88.652 95.6301 89.496 95.6301 90.512C95.6301 91.536 95.5021 92.396 95.2461 93.092C94.9981 93.78 94.6501 94.3 94.2021 94.652C93.7541 94.996 93.2261 95.168 92.6181 95.168ZM92.6181 93.788C92.8821 93.788 93.1141 93.688 93.3141 93.488C93.5141 93.288 93.6701 92.952 93.7821 92.48C93.8941 92 93.9501 91.344 93.9501 90.512C93.9501 89.688 93.8941 89.044 93.7821 88.58C93.6701 88.108 93.5141 87.78 93.3141 87.596C93.1141 87.404 92.8821 87.308 92.6181 87.308C92.3701 87.308 92.1421 87.404 91.9341 87.596C91.7341 87.78 91.5741 88.108 91.4541 88.58C91.3341 89.044 91.2741 89.688 91.2741 90.512C91.2741 91.344 91.3341 92 91.4541 92.48C91.5741 92.952 91.7341 93.288 91.9341 93.488C92.1421 93.688 92.3701 93.788 92.6181 93.788Z" fill="#26BDE2"/>
<path d="M170.516 95V93.98C171.324 93.26 172.012 92.592 172.58 91.976C173.156 91.36 173.596 90.788 173.9 90.26C174.204 89.724 174.356 89.228 174.356 88.772C174.356 88.484 174.304 88.232 174.2 88.016C174.096 87.8 173.944 87.636 173.744 87.524C173.552 87.404 173.312 87.344 173.024 87.344C172.704 87.344 172.408 87.436 172.136 87.62C171.872 87.796 171.628 88.008 171.404 88.256L170.42 87.308C170.836 86.86 171.26 86.524 171.692 86.3C172.132 86.068 172.652 85.952 173.252 85.952C173.812 85.952 174.3 86.068 174.716 86.3C175.14 86.524 175.468 86.84 175.7 87.248C175.932 87.656 176.048 88.136 176.048 88.688C176.048 89.224 175.912 89.772 175.64 90.332C175.376 90.884 175.02 91.436 174.572 91.988C174.124 92.54 173.628 93.084 173.084 93.62C173.316 93.588 173.564 93.564 173.828 93.548C174.1 93.524 174.34 93.512 174.548 93.512H176.468V95H170.516ZM180.618 95.168C180.018 95.168 179.49 94.996 179.034 94.652C178.586 94.3 178.234 93.78 177.978 93.092C177.73 92.396 177.606 91.536 177.606 90.512C177.606 89.496 177.73 88.652 177.978 87.98C178.234 87.3 178.586 86.792 179.034 86.456C179.49 86.12 180.018 85.952 180.618 85.952C181.226 85.952 181.754 86.124 182.202 86.468C182.65 86.804 182.998 87.308 183.246 87.98C183.502 88.652 183.63 89.496 183.63 90.512C183.63 91.536 183.502 92.396 183.246 93.092C182.998 93.78 182.65 94.3 182.202 94.652C181.754 94.996 181.226 95.168 180.618 95.168ZM180.618 93.788C180.882 93.788 181.114 93.688 181.314 93.488C181.514 93.288 181.67 92.952 181.782 92.48C181.894 92 181.95 91.344 181.95 90.512C181.95 89.688 181.894 89.044 181.782 88.58C181.67 88.108 181.514 87.78 181.314 87.596C181.114 87.404 180.882 87.308 180.618 87.308C180.37 87.308 180.142 87.404 179.934 87.596C179.734 87.78 179.574 88.108 179.454 88.58C179.334 89.044 179.274 89.688 179.274 90.512C179.274 91.344 179.334 92 179.454 92.48C179.574 92.952 179.734 93.288 179.934 93.488C180.142 93.688 180.37 93.788 180.618 93.788Z" fill="#26BDE2"/>
<path d="M261.276 95.168C260.812 95.168 260.396 95.112 260.028 95C259.66 94.896 259.332 94.752 259.044 94.568C258.764 94.376 258.52 94.164 258.312 93.932L259.14 92.816C259.412 93.064 259.708 93.28 260.028 93.464C260.356 93.64 260.72 93.728 261.12 93.728C261.424 93.728 261.688 93.68 261.912 93.584C262.144 93.488 262.32 93.348 262.44 93.164C262.568 92.98 262.632 92.756 262.632 92.492C262.632 92.196 262.56 91.944 262.416 91.736C262.28 91.52 262.036 91.356 261.684 91.244C261.332 91.132 260.836 91.076 260.196 91.076V89.804C260.74 89.804 261.168 89.748 261.48 89.636C261.792 89.516 262.012 89.356 262.14 89.156C262.276 88.948 262.344 88.712 262.344 88.448C262.344 88.104 262.24 87.836 262.032 87.644C261.824 87.444 261.532 87.344 261.156 87.344C260.844 87.344 260.552 87.416 260.28 87.56C260.016 87.696 259.752 87.884 259.488 88.124L258.576 87.032C258.968 86.704 259.38 86.444 259.812 86.252C260.244 86.052 260.72 85.952 261.24 85.952C261.808 85.952 262.308 86.044 262.74 86.228C263.18 86.412 263.52 86.68 263.76 87.032C264 87.384 264.12 87.812 264.12 88.316C264.12 88.796 263.992 89.208 263.736 89.552C263.48 89.896 263.116 90.16 262.644 90.344V90.404C262.972 90.492 263.268 90.636 263.532 90.836C263.804 91.028 264.016 91.272 264.168 91.568C264.328 91.864 264.408 92.208 264.408 92.6C264.408 93.136 264.264 93.596 263.976 93.98C263.696 94.364 263.316 94.66 262.836 94.868C262.364 95.068 261.844 95.168 261.276 95.168ZM268.618 95.168C268.018 95.168 267.49 94.996 267.034 94.652C266.586 94.3 266.234 93.78 265.978 93.092C265.73 92.396 265.606 91.536 265.606 90.512C265.606 89.496 265.73 88.652 265.978 87.98C266.234 87.3 266.586 86.792 267.034 86.456C267.49 86.12 268.018 85.952 268.618 85.952C269.226 85.952 269.754 86.124 270.202 86.468C270.65 86.804 270.998 87.308 271.246 87.98C271.502 88.652 271.63 89.496 271.63 90.512C271.63 91.536 271.502 92.396 271.246 93.092C270.998 93.78 270.65 94.3 270.202 94.652C269.754 94.996 269.226 95.168 268.618 95.168ZM268.618 93.788C268.882 93.788 269.114 93.688 269.314 93.488C269.514 93.288 269.67 92.952 269.782 92.48C269.894 92 269.95 91.344 269.95 90.512C269.95 89.688 269.894 89.044 269.782 88.58C269.67 88.108 269.514 87.78 269.314 87.596C269.114 87.404 268.882 87.308 268.618 87.308C268.37 87.308 268.142 87.404 267.934 87.596C267.734 87.78 267.574 88.108 267.454 88.58C267.334 89.044 267.274 89.688 267.274 90.512C267.274 91.344 267.334 92 267.454 92.48C267.574 92.952 267.734 93.288 267.934 93.488C268.142 93.688 268.37 93.788 268.618 93.788Z" fill="#26BDE2"/>
<path d="M350.044 95V89.54C350.044 89.284 350.052 88.98 350.068 88.628C350.084 88.268 350.1 87.956 350.116 87.692H350.056C349.952 87.932 349.84 88.172 349.72 88.412C349.6 88.652 349.476 88.896 349.348 89.144L347.968 91.352H352.744V92.696H346.252V91.496L349.564 86.108H351.688V95H350.044ZM356.618 95.168C356.018 95.168 355.49 94.996 355.034 94.652C354.586 94.3 354.234 93.78 353.978 93.092C353.73 92.396 353.606 91.536 353.606 90.512C353.606 89.496 353.73 88.652 353.978 87.98C354.234 87.3 354.586 86.792 355.034 86.456C355.49 86.12 356.018 85.952 356.618 85.952C357.226 85.952 357.754 86.124 358.202 86.468C358.65 86.804 358.998 87.308 359.246 87.98C359.502 88.652 359.63 89.496 359.63 90.512C359.63 91.536 359.502 92.396 359.246 93.092C358.998 93.78 358.65 94.3 358.202 94.652C357.754 94.996 357.226 95.168 356.618 95.168ZM356.618 93.788C356.882 93.788 357.114 93.688 357.314 93.488C357.514 93.288 357.67 92.952 357.782 92.48C357.894 92 357.95 91.344 357.95 90.512C357.95 89.688 357.894 89.044 357.782 88.58C357.67 88.108 357.514 87.78 357.314 87.596C357.114 87.404 356.882 87.308 356.618 87.308C356.37 87.308 356.142 87.404 355.934 87.596C355.734 87.78 355.574 88.108 355.454 88.58C355.334 89.044 355.274 89.688 355.274 90.512C355.274 91.344 355.334 92 355.454 92.48C355.574 92.952 355.734 93.288 355.934 93.488C356.142 93.688 356.37 93.788 356.618 93.788Z" fill="#26BDE2"/>
</svg>
