<svg width="386" height="98" viewBox="0 0 386 98" fill="none" xmlns="http://www.w3.org/2000/svg">
<path d="M49.2426 33.5954L41.6344 29.2049V20.4199C41.6344 20.233 41.5349 20.062 41.3758 19.9706L33.5091 15.429C33.35 15.3375 33.1511 15.3375 32.992 15.429L25.1253 19.9706C24.9662 20.062 24.8668 20.233 24.8668 20.4199V29.2049L17.2585 33.5954C17.0994 33.6868 17 33.8578 17 34.0447V43.128C17 43.3149 17.0994 43.4859 17.2585 43.5773L25.1253 48.1189C25.2048 48.1667 25.2963 48.1866 25.3838 48.1866C25.4713 48.1866 25.5628 48.1627 25.6423 48.1189L33.2506 43.7285L40.8588 48.1189C40.9384 48.1667 41.0298 48.1866 41.1173 48.1866C41.2048 48.1866 41.2963 48.1627 41.3758 48.1189L49.2426 43.5773C49.4017 43.4859 49.5011 43.3149 49.5011 43.128V34.0447C49.5011 33.8578 49.4017 33.6868 49.2426 33.5954ZM32.7296 42.2332L26.4178 38.5903L32.7296 34.9475V42.2332ZM40.0793 29.5071L33.7716 33.15V25.8643L40.0793 29.5071ZM32.7296 33.15L26.4218 29.5071L32.7296 25.8643V33.15ZM34.2886 34.0487L41.1173 30.1076L47.9461 34.0487L41.1173 37.9898L34.2886 34.0487ZM40.5963 28.6083L34.2886 24.9655L40.5963 21.3227V28.6083ZM32.2125 24.9655L25.9048 28.6083V21.3227L32.2125 24.9655ZM24.8628 46.7748L18.0341 42.8337V34.9475L24.8628 38.8926V46.7748ZM25.9008 46.7748V39.4891L32.2086 43.1319L25.9008 46.7748ZM48.4631 42.8297L41.6344 46.7708V38.8886L48.4631 34.9435V42.8297Z" fill="#FD6925"/>
<path d="M88.488 42.336C86.112 42.336 83.736 41.4 82.008 39.744L84.048 37.296C85.32 38.472 87 39.264 88.56 39.264C90.408 39.264 91.392 38.472 91.392 37.224C91.392 35.904 90.312 35.496 88.728 34.824L86.352 33.816C84.552 33.072 82.752 31.632 82.752 29.04C82.752 26.136 85.296 23.904 88.896 23.904C90.96 23.904 93.024 24.72 94.464 26.184L92.664 28.416C91.536 27.48 90.36 26.952 88.896 26.952C87.336 26.952 86.352 27.648 86.352 28.824C86.352 30.096 87.6 30.552 89.112 31.152L91.44 32.136C93.6 33.024 95.016 34.392 95.016 36.96C95.016 39.864 92.592 42.336 88.488 42.336ZM98.1606 42V24.216H103.033C108.457 24.216 111.817 27.048 111.817 33.048C111.817 39.024 108.457 42 103.225 42H98.1606ZM101.713 39.144H102.817C106.129 39.144 108.193 37.368 108.193 33.048C108.193 28.704 106.129 27.072 102.817 27.072H101.713V39.144ZM122.925 42.336C118.101 42.336 114.405 39.12 114.405 33.192C114.405 27.336 118.197 23.904 122.925 23.904C125.493 23.904 127.269 25.008 128.421 26.184L126.549 28.44C125.661 27.6 124.653 26.952 123.045 26.952C120.093 26.952 118.029 29.256 118.029 33.072C118.029 36.936 119.805 39.264 123.309 39.264C124.149 39.264 125.013 39.024 125.517 38.592V35.088H122.373V32.184H128.685V40.2C127.485 41.376 125.397 42.336 122.925 42.336ZM136.049 42.336C134.249 42.336 132.281 41.544 130.937 40.44L132.545 38.232C133.745 39.168 134.897 39.696 136.145 39.696C137.489 39.696 138.089 39.12 138.089 38.28C138.089 37.272 136.697 36.816 135.281 36.264C133.577 35.616 131.681 34.584 131.681 32.328C131.681 29.928 133.625 28.224 136.697 28.224C138.641 28.224 140.153 29.04 141.257 29.88L139.673 32.016C138.713 31.32 137.777 30.864 136.793 30.864C135.569 30.864 134.993 31.392 134.993 32.16C134.993 33.144 136.241 33.504 137.657 34.032C139.433 34.704 141.401 35.592 141.401 38.088C141.401 40.44 139.553 42.336 136.049 42.336ZM151.833 30.096C151.833 32.04 152.817 32.928 154.377 32.928C155.313 32.928 156.441 32.376 157.257 31.032C156.897 28.128 155.697 27.024 154.233 27.024C152.913 27.024 151.833 28.032 151.833 30.096ZM153.705 42.336C151.521 42.336 149.913 41.4 148.881 40.32L150.753 38.184C151.377 38.904 152.457 39.456 153.489 39.456C155.529 39.456 157.209 37.968 157.353 33.504C156.369 34.728 154.857 35.448 153.705 35.448C150.729 35.448 148.593 33.72 148.593 30.096C148.593 26.568 151.137 24.36 154.185 24.36C157.545 24.36 160.569 26.928 160.569 32.88C160.569 39.48 157.281 42.336 153.705 42.336Z" fill="#FD6925"/>
<path d="M177.632 31.152L179.552 31.968C178.4 36.936 175.904 40.656 172.976 42.624C172.496 42.024 171.368 40.92 170.672 40.488C172.928 39.144 174.824 36.792 175.928 33.96H171.272V31.272H177.128L177.632 31.152ZM189.944 28.392L192.56 30.336C190.76 31.968 188.552 33.768 186.728 34.992C188.408 37.296 190.592 39.072 193.4 40.176C192.728 40.728 191.84 41.904 191.408 42.672C187.928 41.112 185.456 38.544 183.656 35.256V40.752C183.656 42.312 183.344 43.08 182.312 43.56C181.328 44.016 179.864 44.04 177.848 44.04C177.728 43.224 177.272 41.952 176.888 41.184C178.088 41.256 179.576 41.256 180.008 41.232C180.44 41.208 180.584 41.088 180.584 40.704V29.256H174.584V26.52H183.488C181.448 25.608 178.664 24.672 176.456 24.096L177.872 21.768C180.656 22.368 184.664 23.64 186.704 24.696L185.168 27.36C184.76 27.12 184.232 26.856 183.656 26.592V28.584C184.112 30.096 184.688 31.512 185.36 32.808C186.992 31.512 188.792 29.832 189.944 28.392ZM208.544 25.344V24.528H202.832V22.704H208.544V21.672H211.328V22.704H216.752V24.528H211.328V25.344H216.008V27.048H203.72V25.344H208.544ZM205.256 29.448V30.888H206.984V29.448H205.256ZM214.28 30.888V29.448H212.744V30.888H214.28ZM209.096 30.888H210.656V29.448H209.096V30.888ZM202.928 32.616V27.72H216.728V32.616H202.928ZM203.384 36.12L201.368 36.768C201.32 36.432 201.272 36.048 201.2 35.616C196.952 36.24 196.16 36.456 195.656 36.696C195.512 36.216 195.128 35.016 194.84 34.368C195.416 34.248 195.896 33.672 196.616 32.76C196.904 32.4 197.432 31.656 198.08 30.648C196.328 30.864 195.824 30.984 195.464 31.152C195.344 30.672 194.936 29.52 194.672 28.92C195.104 28.8 195.488 28.32 195.944 27.576C196.4 26.928 197.792 24.168 198.56 21.648L200.888 22.56C200.096 24.528 199.04 26.664 197.936 28.392L199.472 28.272C200.024 27.264 200.576 26.136 201.032 25.032L203.192 26.352C201.92 28.872 200.264 31.536 198.536 33.72L200.744 33.456C200.576 32.808 200.408 32.16 200.216 31.608L202.112 31.104C202.664 32.736 203.216 34.848 203.384 36.12ZM195.704 37.44L197.864 37.776C197.672 40.032 197.288 42.432 196.784 43.968C196.304 43.704 195.272 43.392 194.696 43.248C195.248 41.736 195.56 39.528 195.704 37.44ZM198.224 37.728L200.096 37.392C200.384 39.168 200.6 41.4 200.648 42.912L198.632 43.272C198.632 41.76 198.44 39.504 198.224 37.728ZM200.456 37.272L202.208 36.768C202.664 38.112 203.192 39.888 203.384 41.064L201.56 41.688C201.368 40.488 200.888 38.664 200.456 37.272ZM206.312 38.328V39.096H213.272V38.328H206.312ZM206.312 36.576V37.296H213.272V36.576H206.312ZM206.312 34.8V35.52H213.272V34.8H206.312ZM215.936 40.536H212.816C214.424 41.064 216.056 41.688 217.136 42.12L216.008 44.112C214.736 43.512 212.648 42.648 210.824 41.976L211.616 40.536H208.064L209.504 41.952C207.608 42.768 205.208 43.656 203.456 44.232C203.24 43.704 202.808 42.84 202.472 42.264C203.792 41.832 205.64 41.184 207.008 40.536H203.792V33.336H215.936V40.536ZM231.56 39.552H240.968V42.432H219.152V39.552H228.296V27.144H220.448V24.168H239.624V27.144H231.56V39.552ZM249.968 39.432L251.984 40.344C250.352 41.712 247.472 42.96 245 43.536C244.64 42.936 243.896 42 243.32 41.472C245.72 41.136 248.504 40.32 249.968 39.432ZM256.424 40.632L258.344 39.288C260.288 40.008 263.12 41.208 264.656 41.976L262.64 43.536C261.248 42.744 258.44 41.472 256.424 40.632ZM257.432 27.816H250.856C251.24 28.416 251.624 29.112 251.816 29.616L250.52 29.928H257.072L256.208 29.664C256.592 29.112 257.096 28.392 257.432 27.816ZM255.392 36.288H264.704V38.64H255.392V44.112H252.56V38.64H243.416V36.288H252.56V35.232H245.648V33.168H252.56V32.088H244.448V29.928H248.864C248.648 29.376 248.288 28.704 247.976 28.176L249.584 27.816H243.464V25.584H246.728C246.368 24.672 245.744 23.52 245.192 22.608L247.64 21.792C248.36 22.8 249.152 24.24 249.464 25.152L248.312 25.584H250.52V21.672H253.16V25.584H254.96V21.672H257.648V25.584H259.784L258.92 25.32C259.472 24.36 260.12 22.896 260.456 21.864L263.456 22.56C262.784 23.664 262.136 24.744 261.536 25.584H264.632V27.816H258.296L260.552 28.392C260.024 28.968 259.52 29.496 259.088 29.928H263.72V32.088H255.392V33.168H262.592V35.232H255.392V36.288ZM278.744 33.744V29.856H275.12V21.888H277.544V23.52H281.312V25.872H277.544V27.624H280.208V27.648H281.12V33.744C281.12 34.728 280.928 35.136 280.28 35.448C279.656 35.736 278.72 35.736 277.544 35.736C277.448 35.184 277.16 34.488 276.92 33.984C277.544 34.032 278.24 34.032 278.456 34.008C278.672 34.008 278.744 33.96 278.744 33.744ZM275.48 30.432L277.592 30.792C277.424 32.376 277.04 33.936 276.392 34.944C276.008 34.632 275.072 34.08 274.568 33.816C275.168 32.928 275.36 31.704 275.48 30.432ZM289.04 35.952V38.592H282.272C284.528 39.648 286.928 40.896 288.392 41.808L286.496 43.992C284.96 42.936 282.32 41.4 279.944 40.248L281.216 38.592H274.088L276.104 40.248C274.04 41.616 271.064 43.104 268.712 44.064C268.328 43.464 267.632 42.528 267.104 41.928C269.216 41.136 271.976 39.768 273.584 38.592H267.032V35.952H269.192L268.784 23.568C270.296 23.088 272.144 22.368 273.368 21.792L274.592 24.12C273.584 24.48 272.456 24.768 271.376 25.056L271.448 27.216H274.184V29.544H271.52L271.592 31.608H274.256V33.936H271.664L271.736 35.952H284.264C284.312 35.328 284.336 34.704 284.384 34.008H281.96V31.656H284.48C284.504 30.984 284.528 30.288 284.552 29.592H282.128V27.24H284.624C284.624 26.544 284.624 25.872 284.648 25.176H281.888V22.728H287.264C287.264 27 287.144 32.352 286.952 35.952H289.04ZM303.416 37.272H307.256C306.608 36.648 306.032 35.976 305.528 35.28H298.76C298.28 35.976 297.68 36.648 297.056 37.272H300.512V35.784H303.416V37.272ZM298.28 31.872V32.952H305.792V31.872H298.28ZM305.792 25.8H298.28V26.856H305.792V25.8ZM298.28 28.824V29.88H305.792V28.824H298.28ZM313.16 35.28H308.768C310.04 36.432 311.72 37.464 313.448 38.064C312.824 38.592 311.96 39.576 311.552 40.272C310.256 39.672 308.96 38.808 307.784 37.752V39.528H303.416V41.088H311.264V43.44H292.976V41.088H300.512V39.528H296.264V38.04C295.088 39.048 293.792 39.888 292.448 40.488C292.04 39.816 291.224 38.832 290.624 38.304C292.376 37.656 294.152 36.552 295.472 35.28H290.864V32.952H295.424V25.8H292.112V23.496H295.424V21.696H298.28V23.496H305.792V21.696H308.72V23.496H312.008V25.8H308.72V32.952H313.16V35.28ZM332.12 31.968V29.472C331.544 30.408 330.872 31.224 330.176 31.824C329.936 31.296 329.456 30.456 329.048 30C330.128 29.184 331.184 27.72 331.832 26.16H329.936V24H332.12V21.72H334.352V24H336.992V26.16H334.76C335.576 27.024 337.112 28.752 337.472 29.232L335.912 31.152C335.6 30.48 334.976 29.376 334.352 28.416V31.968H332.12ZM325.256 31.968V28.848C324.608 29.904 323.888 30.912 323.144 31.608C322.904 31.056 322.376 30.168 321.968 29.712C322.928 28.944 323.912 27.552 324.536 26.16H322.784V24H325.256V21.72H327.464V24H329.456V26.16H327.488C328.088 26.688 329.528 28.152 329.864 28.56L328.52 30.24C328.28 29.832 327.896 29.208 327.464 28.632V31.968H325.256ZM320.264 38.688V32.664H318.44V38.688H320.264ZM322.16 41.184H318.44V42.96H316.4V35.016C316.04 35.592 315.68 36.12 315.272 36.6C315.2 35.88 314.696 34.176 314.336 33.408C315.8 31.416 316.784 28.488 317.408 25.32H315.128V22.728H322.376V25.32H319.904C319.568 26.952 319.136 28.608 318.608 30.168H322.16V41.184ZM330.944 39.096V41.136C331.424 41.184 331.928 41.208 332.456 41.208C333.224 41.208 336.416 41.208 337.472 41.184C337.136 41.736 336.8 42.888 336.68 43.584H332.288C329.288 43.584 327.032 43.032 325.472 40.776C324.992 42.12 324.248 43.296 323.12 44.208L321.2 42.408C323.12 40.968 323.816 38.424 324.08 35.424L326.456 35.832C326.384 36.504 326.312 37.176 326.192 37.824C326.72 39.096 327.416 39.936 328.328 40.416V34.824H322.616V32.52H334.88L335.288 32.4L337.136 32.976C336.728 34.248 336.152 35.76 335.696 36.72L333.536 36C333.656 35.688 333.8 35.256 333.944 34.824H330.944V36.816H336.296V39.096H330.944ZM356.864 25.608H354.056V26.76H356.864V25.608ZM356.864 30.072V28.872H354.056V30.072H356.864ZM351.368 26.76V25.608H347.336V23.448H351.368V21.696H354.056V23.448H359.36V26.76H360.68V28.872H359.36V32.208H354.056V33.384H359.648V35.4H354.056V36.576H360.416V38.76H354.056V40.392H351.368V38.76H346.112V36.576H351.368V35.4H347.072V33.384H351.368V32.208H347.216V30.072H351.368V28.872H346.016V26.76H351.368ZM344.792 29.736L346.376 30.096C346.064 33.6 345.44 36.48 344.528 38.76C346.712 40.656 349.712 41.064 353.216 41.088C354.608 41.088 359.576 41.088 361.208 41.016C360.8 41.616 360.368 42.864 360.2 43.632H353.144C349.112 43.632 345.848 43.128 343.376 41.088C342.632 42.36 341.72 43.344 340.688 44.112C340.304 43.56 339.248 42.576 338.648 42.24C339.824 41.448 340.76 40.392 341.528 39.048C340.664 37.8 339.968 36.288 339.392 34.392L341.48 33.672C341.816 34.752 342.2 35.688 342.656 36.48C343.064 35.256 343.376 33.864 343.592 32.28H341.504C340.952 32.568 340.232 33.024 340.232 33.336C340.04 32.808 339.488 31.704 339.128 31.152C339.608 31.032 340.28 30.36 340.784 29.544C341.144 29.016 342.08 27.384 342.92 25.464H339.392V22.992H343.832L344.792 22.608L346.496 23.784C345.584 25.92 344.528 28.008 343.472 29.784H344.312L344.792 29.736ZM371.336 28.968V29.544C373.688 28.248 373.976 26.568 373.976 25.008V22.44H382.064V27.672C382.064 28.368 382.112 28.656 382.4 28.656H383.36C383.672 28.656 384.224 28.584 384.536 28.488C384.584 29.208 384.632 30.192 384.728 30.84C384.392 31.008 383.864 31.032 383.384 31.032H382.136C379.88 31.032 379.448 30.024 379.448 27.648V25.08H376.568V25.104C376.568 27.432 375.92 30.144 372.896 31.752C372.608 31.272 371.864 30.432 371.336 29.928V31.128H363.992V28.968H371.336ZM372.344 25.632V27.888H362.96V25.632H366.944C366.56 24.72 365.912 23.52 365.384 22.608L367.616 21.576C368.264 22.56 368.984 23.88 369.368 24.768L367.784 25.632H372.344ZM371.384 32.184V34.344H363.992V32.184H371.384ZM380.6 34.704H375.2C375.896 36 376.856 37.128 378.032 38.112C379.088 37.152 379.952 36.024 380.6 34.704ZM368.888 40.464V37.776H366.44V40.464H368.888ZM382.424 31.92L384.224 32.688C383.432 35.64 382.112 37.92 380.384 39.672C381.848 40.44 383.504 41.04 385.352 41.4C384.728 41.976 383.984 43.2 383.6 43.968C381.488 43.464 379.64 42.672 378.056 41.616C376.4 42.672 374.528 43.488 372.464 44.04C372.224 43.44 371.792 42.576 371.36 41.904V42.768H366.44V43.776H364.016V35.496H371.36V41.424C372.968 41.04 374.456 40.488 375.776 39.72C374.528 38.472 373.472 36.96 372.608 35.256L374.168 34.704H371.96V32.04H381.968L382.424 31.92Z" fill="#FD6925"/>
<rect x="1" y="64" width="18" height="18" fill="#FD6925" stroke="black"/>
<rect x="19" y="64" width="18" height="18" fill="#FD6925" stroke="black"/>
<rect x="37" y="64" width="18" height="18" fill="#FD6925" stroke="black"/>
<rect x="55" y="64" width="18" height="18" fill="#FD6925" stroke="black"/>
<rect x="73" y="64" width="18" height="18" fill="#FD6925" stroke="black"/>
<rect x="91" y="64" width="18" height="18" fill="#FD6925" stroke="black"/>
<rect x="109" y="64" width="18" height="18" fill="#FD6925" stroke="black"/>
<rect x="127" y="64" width="18" height="18" fill="#FD6925" stroke="black"/>
<rect x="145" y="64" width="18" height="18" fill="#FD6925" stroke="black"/>
<rect x="163" y="64" width="18" height="18" fill="#FD6925" stroke="black"/>
<rect x="181" y="64" width="18" height="18" fill="#FD6925" stroke="black"/>
<rect x="199" y="64" width="18" height="18" fill="#FD6925" stroke="black"/>
<rect x="217" y="64" width="18" height="18" fill="#FD6925" stroke="black"/>
<rect x="235" y="64" width="18" height="18" fill="#FD6925" stroke="black"/>
<rect x="253" y="64" width="18" height="18" fill="#FD6925" fill-opacity="0.3" stroke="black"/>
<rect x="271" y="64" width="18" height="18" fill="#FD6925" fill-opacity="0.3" stroke="black"/>
<rect x="289" y="64" width="18" height="18" fill="#FD6925" fill-opacity="0.3" stroke="black"/>
<rect x="307" y="64" width="18" height="18" fill="#FD6925" fill-opacity="0.3" stroke="black"/>
<rect x="325" y="64" width="18" height="18" fill="#FD6925" fill-opacity="0.3" stroke="black"/>
<rect x="343" y="64" width="18" height="18" fill="#FD6925" fill-opacity="0.3" stroke="black"/>
<path d="M4.54 95.168C3.94 95.168 3.412 94.996 2.956 94.652C2.508 94.3 2.156 93.78 1.9 93.092C1.652 92.396 1.528 91.536 1.528 90.512C1.528 89.496 1.652 88.652 1.9 87.98C2.156 87.3 2.508 86.792 2.956 86.456C3.412 86.12 3.94 85.952 4.54 85.952C5.148 85.952 5.676 86.124 6.124 86.468C6.572 86.804 6.92 87.308 7.168 87.98C7.424 88.652 7.552 89.496 7.552 90.512C7.552 91.536 7.424 92.396 7.168 93.092C6.92 93.78 6.572 94.3 6.124 94.652C5.676 94.996 5.148 95.168 4.54 95.168ZM4.54 93.788C4.804 93.788 5.036 93.688 5.236 93.488C5.436 93.288 5.592 92.952 5.704 92.48C5.816 92 5.872 91.344 5.872 90.512C5.872 89.688 5.816 89.044 5.704 88.58C5.592 88.108 5.436 87.78 5.236 87.596C5.036 87.404 4.804 87.308 4.54 87.308C4.292 87.308 4.064 87.404 3.856 87.596C3.656 87.78 3.496 88.108 3.376 88.58C3.256 89.044 3.196 89.688 3.196 90.512C3.196 91.344 3.256 92 3.376 92.48C3.496 92.952 3.656 93.288 3.856 93.488C4.064 93.688 4.292 93.788 4.54 93.788Z" fill="#FD6925"/>
<path d="M82.984 95V93.56H84.904V87.956H83.284V86.852C83.732 86.772 84.116 86.676 84.436 86.564C84.764 86.444 85.068 86.292 85.348 86.108H86.656V93.56H88.324V95H82.984ZM92.6181 95.168C92.0181 95.168 91.4901 94.996 91.0341 94.652C90.5861 94.3 90.2341 93.78 89.9781 93.092C89.7301 92.396 89.6061 91.536 89.6061 90.512C89.6061 89.496 89.7301 88.652 89.9781 87.98C90.2341 87.3 90.5861 86.792 91.0341 86.456C91.4901 86.12 92.0181 85.952 92.6181 85.952C93.2261 85.952 93.7541 86.124 94.2021 86.468C94.6501 86.804 94.9981 87.308 95.2461 87.98C95.5021 88.652 95.6301 89.496 95.6301 90.512C95.6301 91.536 95.5021 92.396 95.2461 93.092C94.9981 93.78 94.6501 94.3 94.2021 94.652C93.7541 94.996 93.2261 95.168 92.6181 95.168ZM92.6181 93.788C92.8821 93.788 93.1141 93.688 93.3141 93.488C93.5141 93.288 93.6701 92.952 93.7821 92.48C93.8941 92 93.9501 91.344 93.9501 90.512C93.9501 89.688 93.8941 89.044 93.7821 88.58C93.6701 88.108 93.5141 87.78 93.3141 87.596C93.1141 87.404 92.8821 87.308 92.6181 87.308C92.3701 87.308 92.1421 87.404 91.9341 87.596C91.7341 87.78 91.5741 88.108 91.4541 88.58C91.3341 89.044 91.2741 89.688 91.2741 90.512C91.2741 91.344 91.3341 92 91.4541 92.48C91.5741 92.952 91.7341 93.288 91.9341 93.488C92.1421 93.688 92.3701 93.788 92.6181 93.788Z" fill="#FD6925"/>
<path d="M170.516 95V93.98C171.324 93.26 172.012 92.592 172.58 91.976C173.156 91.36 173.596 90.788 173.9 90.26C174.204 89.724 174.356 89.228 174.356 88.772C174.356 88.484 174.304 88.232 174.2 88.016C174.096 87.8 173.944 87.636 173.744 87.524C173.552 87.404 173.312 87.344 173.024 87.344C172.704 87.344 172.408 87.436 172.136 87.62C171.872 87.796 171.628 88.008 171.404 88.256L170.42 87.308C170.836 86.86 171.26 86.524 171.692 86.3C172.132 86.068 172.652 85.952 173.252 85.952C173.812 85.952 174.3 86.068 174.716 86.3C175.14 86.524 175.468 86.84 175.7 87.248C175.932 87.656 176.048 88.136 176.048 88.688C176.048 89.224 175.912 89.772 175.64 90.332C175.376 90.884 175.02 91.436 174.572 91.988C174.124 92.54 173.628 93.084 173.084 93.62C173.316 93.588 173.564 93.564 173.828 93.548C174.1 93.524 174.34 93.512 174.548 93.512H176.468V95H170.516ZM180.618 95.168C180.018 95.168 179.49 94.996 179.034 94.652C178.586 94.3 178.234 93.78 177.978 93.092C177.73 92.396 177.606 91.536 177.606 90.512C177.606 89.496 177.73 88.652 177.978 87.98C178.234 87.3 178.586 86.792 179.034 86.456C179.49 86.12 180.018 85.952 180.618 85.952C181.226 85.952 181.754 86.124 182.202 86.468C182.65 86.804 182.998 87.308 183.246 87.98C183.502 88.652 183.63 89.496 183.63 90.512C183.63 91.536 183.502 92.396 183.246 93.092C182.998 93.78 182.65 94.3 182.202 94.652C181.754 94.996 181.226 95.168 180.618 95.168ZM180.618 93.788C180.882 93.788 181.114 93.688 181.314 93.488C181.514 93.288 181.67 92.952 181.782 92.48C181.894 92 181.95 91.344 181.95 90.512C181.95 89.688 181.894 89.044 181.782 88.58C181.67 88.108 181.514 87.78 181.314 87.596C181.114 87.404 180.882 87.308 180.618 87.308C180.37 87.308 180.142 87.404 179.934 87.596C179.734 87.78 179.574 88.108 179.454 88.58C179.334 89.044 179.274 89.688 179.274 90.512C179.274 91.344 179.334 92 179.454 92.48C179.574 92.952 179.734 93.288 179.934 93.488C180.142 93.688 180.37 93.788 180.618 93.788Z" fill="#FD6925"/>
<path d="M261.276 95.168C260.812 95.168 260.396 95.112 260.028 95C259.66 94.896 259.332 94.752 259.044 94.568C258.764 94.376 258.52 94.164 258.312 93.932L259.14 92.816C259.412 93.064 259.708 93.28 260.028 93.464C260.356 93.64 260.72 93.728 261.12 93.728C261.424 93.728 261.688 93.68 261.912 93.584C262.144 93.488 262.32 93.348 262.44 93.164C262.568 92.98 262.632 92.756 262.632 92.492C262.632 92.196 262.56 91.944 262.416 91.736C262.28 91.52 262.036 91.356 261.684 91.244C261.332 91.132 260.836 91.076 260.196 91.076V89.804C260.74 89.804 261.168 89.748 261.48 89.636C261.792 89.516 262.012 89.356 262.14 89.156C262.276 88.948 262.344 88.712 262.344 88.448C262.344 88.104 262.24 87.836 262.032 87.644C261.824 87.444 261.532 87.344 261.156 87.344C260.844 87.344 260.552 87.416 260.28 87.56C260.016 87.696 259.752 87.884 259.488 88.124L258.576 87.032C258.968 86.704 259.38 86.444 259.812 86.252C260.244 86.052 260.72 85.952 261.24 85.952C261.808 85.952 262.308 86.044 262.74 86.228C263.18 86.412 263.52 86.68 263.76 87.032C264 87.384 264.12 87.812 264.12 88.316C264.12 88.796 263.992 89.208 263.736 89.552C263.48 89.896 263.116 90.16 262.644 90.344V90.404C262.972 90.492 263.268 90.636 263.532 90.836C263.804 91.028 264.016 91.272 264.168 91.568C264.328 91.864 264.408 92.208 264.408 92.6C264.408 93.136 264.264 93.596 263.976 93.98C263.696 94.364 263.316 94.66 262.836 94.868C262.364 95.068 261.844 95.168 261.276 95.168ZM268.618 95.168C268.018 95.168 267.49 94.996 267.034 94.652C266.586 94.3 266.234 93.78 265.978 93.092C265.73 92.396 265.606 91.536 265.606 90.512C265.606 89.496 265.73 88.652 265.978 87.98C266.234 87.3 266.586 86.792 267.034 86.456C267.49 86.12 268.018 85.952 268.618 85.952C269.226 85.952 269.754 86.124 270.202 86.468C270.65 86.804 270.998 87.308 271.246 87.98C271.502 88.652 271.63 89.496 271.63 90.512C271.63 91.536 271.502 92.396 271.246 93.092C270.998 93.78 270.65 94.3 270.202 94.652C269.754 94.996 269.226 95.168 268.618 95.168ZM268.618 93.788C268.882 93.788 269.114 93.688 269.314 93.488C269.514 93.288 269.67 92.952 269.782 92.48C269.894 92 269.95 91.344 269.95 90.512C269.95 89.688 269.894 89.044 269.782 88.58C269.67 88.108 269.514 87.78 269.314 87.596C269.114 87.404 268.882 87.308 268.618 87.308C268.37 87.308 268.142 87.404 267.934 87.596C267.734 87.78 267.574 88.108 267.454 88.58C267.334 89.044 267.274 89.688 267.274 90.512C267.274 91.344 267.334 92 267.454 92.48C267.574 92.952 267.734 93.288 267.934 93.488C268.142 93.688 268.37 93.788 268.618 93.788Z" fill="#FD6925"/>
<path d="M350.044 95V89.54C350.044 89.284 350.052 88.98 350.068 88.628C350.084 88.268 350.1 87.956 350.116 87.692H350.056C349.952 87.932 349.84 88.172 349.72 88.412C349.6 88.652 349.476 88.896 349.348 89.144L347.968 91.352H352.744V92.696H346.252V91.496L349.564 86.108H351.688V95H350.044ZM356.618 95.168C356.018 95.168 355.49 94.996 355.034 94.652C354.586 94.3 354.234 93.78 353.978 93.092C353.73 92.396 353.606 91.536 353.606 90.512C353.606 89.496 353.73 88.652 353.978 87.98C354.234 87.3 354.586 86.792 355.034 86.456C355.49 86.12 356.018 85.952 356.618 85.952C357.226 85.952 357.754 86.124 358.202 86.468C358.65 86.804 358.998 87.308 359.246 87.98C359.502 88.652 359.63 89.496 359.63 90.512C359.63 91.536 359.502 92.396 359.246 93.092C358.998 93.78 358.65 94.3 358.202 94.652C357.754 94.996 357.226 95.168 356.618 95.168ZM356.618 93.788C356.882 93.788 357.114 93.688 357.314 93.488C357.514 93.288 357.67 92.952 357.782 92.48C357.894 92 357.95 91.344 357.95 90.512C357.95 89.688 357.894 89.044 357.782 88.58C357.67 88.108 357.514 87.78 357.314 87.596C357.114 87.404 356.882 87.308 356.618 87.308C356.37 87.308 356.142 87.404 355.934 87.596C355.734 87.78 355.574 88.108 355.454 88.58C355.334 89.044 355.274 89.688 355.274 90.512C355.274 91.344 355.334 92 355.454 92.48C355.574 92.952 355.734 93.288 355.934 93.488C356.142 93.688 356.37 93.788 356.618 93.788Z" fill="#FD6925"/>
</svg>
