<svg width="362" height="98" viewBox="0 0 362 98" fill="none" xmlns="http://www.w3.org/2000/svg">
<path d="M45.4487 23.6951L38.9421 29.8831C38.6956 30.1257 38.5723 30.3086 38.5723 30.8137V48.1569C38.5723 48.3597 38.7393 48.5267 38.9421 48.5267H45.6635C45.8663 48.5267 46.0334 48.3597 46.0334 48.1569V23.8542C46.0334 23.6513 45.8743 23.2775 45.4487 23.6991" fill="#A21942"/>
<path d="M26.7046 31.7564L20.198 37.9444C19.9514 38.191 19.8281 38.3699 19.8281 38.871V48.1531C19.8281 48.3559 19.9952 48.5229 20.198 48.5229H26.9194C27.1262 48.5229 27.2892 48.3559 27.2892 48.1531V31.9115C27.2892 31.7047 27.1262 31.3309 26.7046 31.7564Z" fill="#A21942"/>
<path d="M48.4038 16.1909C48.4038 16.1432 48.3878 16.0875 48.3481 16.0517C48.3123 16.0199 48.2685 16.004 48.2288 16H48.193L48.1413 16.004L43.1619 17.1294L43.0704 17.1374C43.0346 17.1453 43.0028 17.1613 42.975 17.1891C42.9034 17.2646 42.9034 17.384 42.975 17.4555L43.0306 17.5112L44.1681 18.6486L32.881 29.935L27.667 24.7213C27.6073 24.6617 27.5159 24.6617 27.4562 24.7213L26.0403 26.1371L17.6844 34.4925C17.6247 34.5522 17.6247 34.6476 17.6844 34.7033L19.1003 36.1191C19.1599 36.1787 19.2514 36.1787 19.311 36.1191L27.5636 27.867L31.3458 31.649C31.3458 31.649 31.3498 31.661 31.3578 31.6649L32.7736 33.0767C32.8333 33.1364 32.9248 33.1364 32.9844 33.0767L45.7948 20.2672L46.9879 21.4603C47.0595 21.5358 47.1828 21.5358 47.2544 21.4603C47.2902 21.4245 47.3061 21.3807 47.31 21.337V21.3211L48.4038 16.2346V16.179V16.1909Z" fill="#A21942"/>
<path d="M36.114 32.8425L32.9681 36.016C32.9085 36.0638 32.821 36.0638 32.7653 36.0081L29.9137 33.101C29.3927 32.58 29.2773 33.0016 29.2773 33.2084V48.1535C29.2773 48.3563 29.4404 48.5233 29.6472 48.5233H36.3686C36.5714 48.5233 36.7384 48.3563 36.7384 48.1535V32.9578C36.7384 32.755 36.5754 32.3772 36.114 32.8425Z" fill="#A21942"/>
<path d="M88.488 42.336C86.112 42.336 83.736 41.4 82.008 39.744L84.048 37.296C85.32 38.472 87 39.264 88.56 39.264C90.408 39.264 91.392 38.472 91.392 37.224C91.392 35.904 90.312 35.496 88.728 34.824L86.352 33.816C84.552 33.072 82.752 31.632 82.752 29.04C82.752 26.136 85.296 23.904 88.896 23.904C90.96 23.904 93.024 24.72 94.464 26.184L92.664 28.416C91.536 27.48 90.36 26.952 88.896 26.952C87.336 26.952 86.352 27.648 86.352 28.824C86.352 30.096 87.6 30.552 89.112 31.152L91.44 32.136C93.6 33.024 95.016 34.392 95.016 36.96C95.016 39.864 92.592 42.336 88.488 42.336ZM98.1606 42V24.216H103.033C108.457 24.216 111.817 27.048 111.817 33.048C111.817 39.024 108.457 42 103.225 42H98.1606ZM101.713 39.144H102.817C106.129 39.144 108.193 37.368 108.193 33.048C108.193 28.704 106.129 27.072 102.817 27.072H101.713V39.144ZM122.925 42.336C118.101 42.336 114.405 39.12 114.405 33.192C114.405 27.336 118.197 23.904 122.925 23.904C125.493 23.904 127.269 25.008 128.421 26.184L126.549 28.44C125.661 27.6 124.653 26.952 123.045 26.952C120.093 26.952 118.029 29.256 118.029 33.072C118.029 36.936 119.805 39.264 123.309 39.264C124.149 39.264 125.013 39.024 125.517 38.592V35.088H122.373V32.184H128.685V40.2C127.485 41.376 125.397 42.336 122.925 42.336ZM136.049 42.336C134.249 42.336 132.281 41.544 130.937 40.44L132.545 38.232C133.745 39.168 134.897 39.696 136.145 39.696C137.489 39.696 138.089 39.12 138.089 38.28C138.089 37.272 136.697 36.816 135.281 36.264C133.577 35.616 131.681 34.584 131.681 32.328C131.681 29.928 133.625 28.224 136.697 28.224C138.641 28.224 140.153 29.04 141.257 29.88L139.673 32.016C138.713 31.32 137.777 30.864 136.793 30.864C135.569 30.864 134.993 31.392 134.993 32.16C134.993 33.144 136.241 33.504 137.657 34.032C139.433 34.704 141.401 35.592 141.401 38.088C141.401 40.44 139.553 42.336 136.049 42.336ZM154.689 42.336C151.305 42.336 148.761 40.368 148.761 37.584C148.761 35.448 150.177 34.08 151.809 33.216V33.12C150.465 32.136 149.457 30.864 149.457 29.04C149.457 26.184 151.737 24.36 154.809 24.36C157.953 24.36 159.969 26.232 159.969 29.064C159.969 30.768 158.817 32.16 157.689 32.952V33.072C159.297 33.984 160.665 35.256 160.665 37.584C160.665 40.272 158.289 42.336 154.689 42.336ZM155.817 32.088C156.633 31.224 157.089 30.288 157.089 29.304C157.089 27.864 156.225 26.856 154.737 26.856C153.537 26.856 152.577 27.624 152.577 29.04C152.577 30.624 153.969 31.368 155.817 32.088ZM154.785 39.84C156.297 39.84 157.377 39 157.377 37.464C157.377 35.736 155.721 35.112 153.441 34.176C152.505 34.92 151.809 35.976 151.809 37.2C151.809 38.808 153.129 39.84 154.785 39.84Z" fill="#A21942"/>
<path d="M192.704 26.184L190.736 27.408C190.304 26.376 189.224 24.768 188.312 23.592L190.16 22.512C191.096 23.592 192.224 25.152 192.704 26.184ZM182.12 24.408V26.904H171.152V24.408H175.64C175.424 23.688 175.112 22.872 174.824 22.2L177.44 21.648C177.872 22.512 178.304 23.568 178.568 24.408H182.12ZM172.784 35.232L175.088 35.712C174.56 38.064 173.672 40.56 172.688 42.144C172.232 41.76 171.272 41.064 170.744 40.776C171.68 39.384 172.376 37.272 172.784 35.232ZM174.656 30.336V32.352H178.688V30.336H174.656ZM181.28 34.56H178.184V41.328C178.184 42.48 177.992 43.104 177.248 43.512C176.552 43.896 175.616 43.944 174.32 43.92C174.224 43.224 173.864 42.24 173.528 41.568C174.272 41.592 175.064 41.592 175.304 41.592C175.568 41.592 175.64 41.52 175.64 41.28V34.56H172.208V28.128H181.28V34.56ZM178.544 35.832L180.512 34.944C181.28 36.264 182.024 38.04 182.288 39.192L180.2 40.176C179.96 39 179.288 37.176 178.544 35.832ZM190.016 41.496H190.616C190.784 41.496 190.952 41.472 191.024 41.4C191.144 41.352 191.216 41.16 191.264 40.704C191.336 40.32 191.36 39.312 191.36 38.064C191.864 38.544 192.824 39.024 193.544 39.264C193.52 40.392 193.4 41.688 193.232 42.216C193.04 42.768 192.752 43.128 192.32 43.344C191.936 43.56 191.336 43.632 190.88 43.632H189.392C188.816 43.632 188.144 43.44 187.736 43.08C187.304 42.672 187.112 42.168 187.112 40.488V34.968C186.32 38.496 184.928 41.736 182.408 44.16C181.976 43.536 181.16 42.816 180.44 42.384C183.68 39.408 184.808 34.992 185.24 30.312H182.408V27.768H185.408C185.504 25.728 185.48 23.688 185.504 21.744H188.168C188.144 23.688 188.12 25.728 188.024 27.768H193.088V30.312H187.832C187.784 30.72 187.736 31.128 187.688 31.512H189.56V40.608C189.56 41.04 189.56 41.28 189.656 41.376C189.752 41.472 189.848 41.496 190.016 41.496ZM201.968 39.432L203.984 40.344C202.352 41.712 199.472 42.96 197 43.536C196.64 42.936 195.896 42 195.32 41.472C197.72 41.136 200.504 40.32 201.968 39.432ZM208.424 40.632L210.344 39.288C212.288 40.008 215.12 41.208 216.656 41.976L214.64 43.536C213.248 42.744 210.44 41.472 208.424 40.632ZM209.432 27.816H202.856C203.24 28.416 203.624 29.112 203.816 29.616L202.52 29.928H209.072L208.208 29.664C208.592 29.112 209.096 28.392 209.432 27.816ZM207.392 36.288H216.704V38.64H207.392V44.112H204.56V38.64H195.416V36.288H204.56V35.232H197.648V33.168H204.56V32.088H196.448V29.928H200.864C200.648 29.376 200.288 28.704 199.976 28.176L201.584 27.816H195.464V25.584H198.728C198.368 24.672 197.744 23.52 197.192 22.608L199.64 21.792C200.36 22.8 201.152 24.24 201.464 25.152L200.312 25.584H202.52V21.672H205.16V25.584H206.96V21.672H209.648V25.584H211.784L210.92 25.32C211.472 24.36 212.12 22.896 212.456 21.864L215.456 22.56C214.784 23.664 214.136 24.744 213.536 25.584H216.632V27.816H210.296L212.552 28.392C212.024 28.968 211.52 29.496 211.088 29.928H215.72V32.088H207.392V33.168H214.592V35.232H207.392V36.288ZM230.744 33.744V29.856H227.12V21.888H229.544V23.52H233.312V25.872H229.544V27.624H232.208V27.648H233.12V33.744C233.12 34.728 232.928 35.136 232.28 35.448C231.656 35.736 230.72 35.736 229.544 35.736C229.448 35.184 229.16 34.488 228.92 33.984C229.544 34.032 230.24 34.032 230.456 34.008C230.672 34.008 230.744 33.96 230.744 33.744ZM227.48 30.432L229.592 30.792C229.424 32.376 229.04 33.936 228.392 34.944C228.008 34.632 227.072 34.08 226.568 33.816C227.168 32.928 227.36 31.704 227.48 30.432ZM241.04 35.952V38.592H234.272C236.528 39.648 238.928 40.896 240.392 41.808L238.496 43.992C236.96 42.936 234.32 41.4 231.944 40.248L233.216 38.592H226.088L228.104 40.248C226.04 41.616 223.064 43.104 220.712 44.064C220.328 43.464 219.632 42.528 219.104 41.928C221.216 41.136 223.976 39.768 225.584 38.592H219.032V35.952H221.192L220.784 23.568C222.296 23.088 224.144 22.368 225.368 21.792L226.592 24.12C225.584 24.48 224.456 24.768 223.376 25.056L223.448 27.216H226.184V29.544H223.52L223.592 31.608H226.256V33.936H223.664L223.736 35.952H236.264C236.312 35.328 236.336 34.704 236.384 34.008H233.96V31.656H236.48C236.504 30.984 236.528 30.288 236.552 29.592H234.128V27.24H236.624C236.624 26.544 236.624 25.872 236.648 25.176H233.888V22.728H239.264C239.264 27 239.144 32.352 238.952 35.952H241.04ZM260.768 33.6L258.488 34.536C257.984 33.312 256.88 31.512 255.608 29.904C256.592 28.512 257.576 26.784 258.152 25.656L260.576 26.208C259.832 27.432 258.992 28.776 258.248 29.88C259.232 31.152 260.264 32.616 260.768 33.6ZM254.12 25.608L256.544 26.184C255.848 27.432 255.008 28.776 254.24 29.904C255.248 31.224 256.232 32.712 256.712 33.744L254.432 34.632C253.904 33.384 252.848 31.584 251.6 29.952C252.584 28.512 253.568 26.76 254.12 25.608ZM264.992 33.648L262.736 34.632C262.16 33.384 260.936 31.56 259.568 29.952C260.576 28.536 261.632 26.76 262.208 25.608L264.656 26.184C263.888 27.456 263.048 28.776 262.28 29.904C263.336 31.176 264.44 32.64 264.992 33.648ZM264.92 22.68V25.224H251.984V22.68H264.92ZM252.224 35.808L250.04 36.576C249.992 36.264 249.92 35.904 249.848 35.52C245.048 36.24 244.184 36.432 243.656 36.696C243.512 36.168 243.08 34.896 242.768 34.176C243.368 34.032 243.896 33.504 244.64 32.616C244.928 32.28 245.48 31.584 246.152 30.624C244.352 30.84 243.824 30.984 243.464 31.152C243.32 30.648 242.912 29.448 242.624 28.8C243.104 28.656 243.512 28.2 243.992 27.48C244.496 26.808 246.008 24.144 246.848 21.6L249.32 22.608C248.456 24.6 247.304 26.64 246.104 28.344L247.688 28.224C248.264 27.216 248.84 26.16 249.296 25.104L251.648 26.544C250.304 29.016 248.552 31.584 246.752 33.696L249.272 33.384C249.104 32.736 248.888 32.088 248.696 31.512L250.736 30.864C251.336 32.448 251.984 34.536 252.224 35.808ZM243.704 37.44L246.032 37.8C245.864 40.032 245.432 42.408 244.928 43.944C244.424 43.656 243.296 43.32 242.696 43.128C243.272 41.688 243.56 39.48 243.704 37.44ZM246.44 37.8L248.48 37.392C248.768 39 249.056 40.992 249.128 42.336L246.944 42.768C246.92 41.448 246.68 39.384 246.44 37.8ZM248.912 37.272L250.856 36.672C251.288 37.824 251.744 39.336 251.96 40.296L249.944 41.016C249.776 40.008 249.32 38.472 248.912 37.272ZM259.76 40.92H265.208V43.536H251.456V40.92H256.88V37.608H252.56V35.064H264.224V37.608H259.76V40.92ZM277.952 26.64L279.056 26.184H272.744V23.904H279.104C279.008 23.256 278.864 22.488 278.696 21.864L281.288 21.528C281.552 22.272 281.816 23.184 281.912 23.904H288.872V26.184H282.416L283.856 26.664C283.064 27.408 282.2 28.224 281.432 28.872H281.552V33.792H279.512V28.896H279.488L279.512 28.872C280.328 28.104 281.216 27 281.792 26.184H279.512C279.896 26.736 280.256 27.456 280.4 27.936L278.84 28.632C278.696 28.08 278.336 27.24 277.952 26.64ZM276.44 29.376H275.672C275.312 31.392 274.496 32.928 272.936 33.912C272.768 33.552 272.216 32.784 271.856 32.472C272.936 31.776 273.56 30.72 273.824 29.376H272.792V27.6H278.288C278.288 27.6 278.264 28.056 278.264 28.296C278.216 31.152 278.144 32.448 277.784 32.88C277.496 33.24 277.208 33.408 276.728 33.456C276.416 33.528 275.864 33.528 275.336 33.528C275.288 32.976 275.12 32.256 274.904 31.776C275.312 31.848 275.6 31.848 275.792 31.848C275.984 31.848 276.104 31.824 276.224 31.656C276.344 31.464 276.392 30.864 276.44 29.376ZM272.384 25.08L270.776 26.832C270.08 25.872 268.472 24.456 267.272 23.496L268.736 21.936C269.984 22.8 271.568 24.144 272.384 25.08ZM271.592 31.296L270.128 33.12C269.384 32.28 267.824 31.056 266.624 30.216L268.04 28.584C269.192 29.328 270.8 30.48 271.592 31.296ZM269.864 34.944L271.712 36.288C270.92 38.76 269.936 41.52 269.048 43.752L266.984 42.432C267.824 40.608 269 37.632 269.864 34.944ZM276.8 38.688H284.096V37.368H276.896C276.872 37.776 276.848 38.232 276.8 38.688ZM284.096 35.184V33.912H286.76V44.136H284.096V40.896H276.248C275.792 42.12 275.024 43.32 273.752 44.208C273.296 43.776 272.288 43.032 271.664 42.696C273.944 41.16 274.256 38.592 274.256 36.936V33.936H276.872V35.184H284.096ZM286.712 26.712L288.296 28.032C287.888 28.272 287.408 28.488 286.904 28.68C287.384 30.168 288.152 31.584 289.208 32.28C288.824 32.592 288.272 33.192 288.032 33.624C286.856 32.688 286.04 30.984 285.584 29.184C285.272 29.28 284.96 29.352 284.672 29.448V31.632L285.848 31.32C285.872 31.752 286.016 32.352 286.136 32.712C284 33.432 283.496 33.672 283.208 33.912V33.84C283.064 33.408 282.704 32.592 282.416 32.184C282.728 32.016 283.04 31.584 283.04 30.648V28.272C284.384 27.864 285.872 27.288 286.712 26.712ZM308.84 29.328L311.696 30.024C310.712 33.144 309.296 35.928 307.568 38.256C308.264 39.984 309.032 40.992 309.8 40.992C310.376 40.992 310.664 39.792 310.784 36.792C311.432 37.464 312.44 38.088 313.208 38.4C312.752 42.84 311.792 43.896 309.56 43.896C307.88 43.896 306.56 42.696 305.504 40.728C304.28 42 302.936 43.08 301.448 43.992C301.016 43.368 299.984 42.192 299.384 41.64C301.232 40.632 302.888 39.312 304.28 37.752C303.464 35.04 302.936 31.68 302.624 28.08H295.664V30.648H301.592C301.592 30.648 301.568 31.392 301.568 31.728C301.496 36.768 301.352 38.904 300.8 39.6C300.344 40.224 299.864 40.44 299.144 40.56C298.52 40.656 297.488 40.656 296.384 40.632C296.336 39.792 296.024 38.688 295.592 37.968C296.456 38.04 297.272 38.064 297.656 38.064C297.992 38.064 298.184 38.016 298.376 37.776C298.616 37.44 298.712 36.288 298.784 33.264H295.664C295.568 36.768 295.064 41.448 293.096 44.376C292.592 43.824 291.32 42.768 290.672 42.432C292.496 39.552 292.664 35.376 292.664 32.256V25.248H302.456C302.408 24.072 302.36 22.896 302.36 21.696H305.36C305.336 22.896 305.36 24.072 305.408 25.248H309.08C308.192 24.528 306.992 23.76 306.008 23.16L307.736 21.456C309.056 22.128 310.808 23.232 311.648 24.024L310.496 25.248H312.992V28.08H305.576C305.792 30.48 306.128 32.736 306.536 34.656C307.472 33.048 308.264 31.272 308.84 29.328ZM333.416 35.616H327.944C328.472 36.528 329.12 37.32 329.888 38.04C331.112 37.296 332.456 36.408 333.416 35.616ZM334.256 35.616L336.104 36.888C334.784 37.848 333.272 38.784 331.88 39.528C333.392 40.44 335.192 41.088 337.352 41.496C336.728 42.072 335.936 43.272 335.552 44.04C330.2 42.816 326.984 40.032 324.944 35.616H321.512V40.704L326.768 39.648C326.624 40.416 326.528 41.592 326.528 42.192C320.792 43.464 319.472 43.776 318.824 44.064L318.68 44.184C318.488 43.512 317.936 42.024 317.48 41.352C318.008 41.064 318.704 40.488 318.704 39.504V35.616H315.2V33.096H319.184V22.488H334.328V24.816H322.112V26.136H333.656V28.344H322.112V29.592H333.656V31.8H322.112V33.096H336.848V35.616H334.256Z" fill="#A21942"/>
<rect x="1" y="64" width="18" height="18" fill="#A21942" stroke="black"/>
<rect x="19" y="64" width="18" height="18" fill="#A21942" stroke="black"/>
<rect x="37" y="64" width="18" height="18" fill="#A21942" stroke="black"/>
<rect x="55" y="64" width="18" height="18" fill="#A21942" stroke="black"/>
<rect x="73" y="64" width="18" height="18" fill="#A21942" fill-opacity="0.3" stroke="black"/>
<rect x="91" y="64" width="18" height="18" fill="#A21942" fill-opacity="0.3" stroke="black"/>
<rect x="109" y="64" width="18" height="18" fill="#A21942" fill-opacity="0.3" stroke="black"/>
<rect x="127" y="64" width="18" height="18" fill="#A21942" fill-opacity="0.3" stroke="black"/>
<rect x="145" y="64" width="18" height="18" fill="#A21942" fill-opacity="0.3" stroke="black"/>
<rect x="163" y="64" width="18" height="18" fill="#A21942" fill-opacity="0.3" stroke="black"/>
<rect x="181" y="64" width="18" height="18" fill="#A21942" fill-opacity="0.3" stroke="black"/>
<rect x="199" y="64" width="18" height="18" fill="#A21942" fill-opacity="0.3" stroke="black"/>
<rect x="217" y="64" width="18" height="18" fill="#A21942" fill-opacity="0.3" stroke="black"/>
<rect x="235" y="64" width="18" height="18" fill="#A21942" fill-opacity="0.3" stroke="black"/>
<rect x="253" y="64" width="18" height="18" fill="#A21942" fill-opacity="0.3" stroke="black"/>
<rect x="271" y="64" width="18" height="18" fill="#A21942" fill-opacity="0.3" stroke="black"/>
<rect x="289" y="64" width="18" height="18" fill="#A21942" fill-opacity="0.3" stroke="black"/>
<rect x="307" y="64" width="18" height="18" fill="#A21942" fill-opacity="0.3" stroke="black"/>
<rect x="325" y="64" width="18" height="18" fill="#A21942" fill-opacity="0.3" stroke="black"/>
<rect x="343" y="64" width="18" height="18" fill="#A21942" fill-opacity="0.3" stroke="black"/>
<path d="M4.54 95.168C3.94 95.168 3.412 94.996 2.956 94.652C2.508 94.3 2.156 93.78 1.9 93.092C1.652 92.396 1.528 91.536 1.528 90.512C1.528 89.496 1.652 88.652 1.9 87.98C2.156 87.3 2.508 86.792 2.956 86.456C3.412 86.12 3.94 85.952 4.54 85.952C5.148 85.952 5.676 86.124 6.124 86.468C6.572 86.804 6.92 87.308 7.168 87.98C7.424 88.652 7.552 89.496 7.552 90.512C7.552 91.536 7.424 92.396 7.168 93.092C6.92 93.78 6.572 94.3 6.124 94.652C5.676 94.996 5.148 95.168 4.54 95.168ZM4.54 93.788C4.804 93.788 5.036 93.688 5.236 93.488C5.436 93.288 5.592 92.952 5.704 92.48C5.816 92 5.872 91.344 5.872 90.512C5.872 89.688 5.816 89.044 5.704 88.58C5.592 88.108 5.436 87.78 5.236 87.596C5.036 87.404 4.804 87.308 4.54 87.308C4.292 87.308 4.064 87.404 3.856 87.596C3.656 87.78 3.496 88.108 3.376 88.58C3.256 89.044 3.196 89.688 3.196 90.512C3.196 91.344 3.256 92 3.376 92.48C3.496 92.952 3.656 93.288 3.856 93.488C4.064 93.688 4.292 93.788 4.54 93.788Z" fill="#A21942"/>
<path d="M82.984 95V93.56H84.904V87.956H83.284V86.852C83.732 86.772 84.116 86.676 84.436 86.564C84.764 86.444 85.068 86.292 85.348 86.108H86.656V93.56H88.324V95H82.984ZM92.6181 95.168C92.0181 95.168 91.4901 94.996 91.0341 94.652C90.5861 94.3 90.2341 93.78 89.9781 93.092C89.7301 92.396 89.6061 91.536 89.6061 90.512C89.6061 89.496 89.7301 88.652 89.9781 87.98C90.2341 87.3 90.5861 86.792 91.0341 86.456C91.4901 86.12 92.0181 85.952 92.6181 85.952C93.2261 85.952 93.7541 86.124 94.2021 86.468C94.6501 86.804 94.9981 87.308 95.2461 87.98C95.5021 88.652 95.6301 89.496 95.6301 90.512C95.6301 91.536 95.5021 92.396 95.2461 93.092C94.9981 93.78 94.6501 94.3 94.2021 94.652C93.7541 94.996 93.2261 95.168 92.6181 95.168ZM92.6181 93.788C92.8821 93.788 93.1141 93.688 93.3141 93.488C93.5141 93.288 93.6701 92.952 93.7821 92.48C93.8941 92 93.9501 91.344 93.9501 90.512C93.9501 89.688 93.8941 89.044 93.7821 88.58C93.6701 88.108 93.5141 87.78 93.3141 87.596C93.1141 87.404 92.8821 87.308 92.6181 87.308C92.3701 87.308 92.1421 87.404 91.9341 87.596C91.7341 87.78 91.5741 88.108 91.4541 88.58C91.3341 89.044 91.2741 89.688 91.2741 90.512C91.2741 91.344 91.3341 92 91.4541 92.48C91.5741 92.952 91.7341 93.288 91.9341 93.488C92.1421 93.688 92.3701 93.788 92.6181 93.788Z" fill="#A21942"/>
<path d="M170.516 95V93.98C171.324 93.26 172.012 92.592 172.58 91.976C173.156 91.36 173.596 90.788 173.9 90.26C174.204 89.724 174.356 89.228 174.356 88.772C174.356 88.484 174.304 88.232 174.2 88.016C174.096 87.8 173.944 87.636 173.744 87.524C173.552 87.404 173.312 87.344 173.024 87.344C172.704 87.344 172.408 87.436 172.136 87.62C171.872 87.796 171.628 88.008 171.404 88.256L170.42 87.308C170.836 86.86 171.26 86.524 171.692 86.3C172.132 86.068 172.652 85.952 173.252 85.952C173.812 85.952 174.3 86.068 174.716 86.3C175.14 86.524 175.468 86.84 175.7 87.248C175.932 87.656 176.048 88.136 176.048 88.688C176.048 89.224 175.912 89.772 175.64 90.332C175.376 90.884 175.02 91.436 174.572 91.988C174.124 92.54 173.628 93.084 173.084 93.62C173.316 93.588 173.564 93.564 173.828 93.548C174.1 93.524 174.34 93.512 174.548 93.512H176.468V95H170.516ZM180.618 95.168C180.018 95.168 179.49 94.996 179.034 94.652C178.586 94.3 178.234 93.78 177.978 93.092C177.73 92.396 177.606 91.536 177.606 90.512C177.606 89.496 177.73 88.652 177.978 87.98C178.234 87.3 178.586 86.792 179.034 86.456C179.49 86.12 180.018 85.952 180.618 85.952C181.226 85.952 181.754 86.124 182.202 86.468C182.65 86.804 182.998 87.308 183.246 87.98C183.502 88.652 183.63 89.496 183.63 90.512C183.63 91.536 183.502 92.396 183.246 93.092C182.998 93.78 182.65 94.3 182.202 94.652C181.754 94.996 181.226 95.168 180.618 95.168ZM180.618 93.788C180.882 93.788 181.114 93.688 181.314 93.488C181.514 93.288 181.67 92.952 181.782 92.48C181.894 92 181.95 91.344 181.95 90.512C181.95 89.688 181.894 89.044 181.782 88.58C181.67 88.108 181.514 87.78 181.314 87.596C181.114 87.404 180.882 87.308 180.618 87.308C180.37 87.308 180.142 87.404 179.934 87.596C179.734 87.78 179.574 88.108 179.454 88.58C179.334 89.044 179.274 89.688 179.274 90.512C179.274 91.344 179.334 92 179.454 92.48C179.574 92.952 179.734 93.288 179.934 93.488C180.142 93.688 180.37 93.788 180.618 93.788Z" fill="#A21942"/>
<path d="M261.276 95.168C260.812 95.168 260.396 95.112 260.028 95C259.66 94.896 259.332 94.752 259.044 94.568C258.764 94.376 258.52 94.164 258.312 93.932L259.14 92.816C259.412 93.064 259.708 93.28 260.028 93.464C260.356 93.64 260.72 93.728 261.12 93.728C261.424 93.728 261.688 93.68 261.912 93.584C262.144 93.488 262.32 93.348 262.44 93.164C262.568 92.98 262.632 92.756 262.632 92.492C262.632 92.196 262.56 91.944 262.416 91.736C262.28 91.52 262.036 91.356 261.684 91.244C261.332 91.132 260.836 91.076 260.196 91.076V89.804C260.74 89.804 261.168 89.748 261.48 89.636C261.792 89.516 262.012 89.356 262.14 89.156C262.276 88.948 262.344 88.712 262.344 88.448C262.344 88.104 262.24 87.836 262.032 87.644C261.824 87.444 261.532 87.344 261.156 87.344C260.844 87.344 260.552 87.416 260.28 87.56C260.016 87.696 259.752 87.884 259.488 88.124L258.576 87.032C258.968 86.704 259.38 86.444 259.812 86.252C260.244 86.052 260.72 85.952 261.24 85.952C261.808 85.952 262.308 86.044 262.74 86.228C263.18 86.412 263.52 86.68 263.76 87.032C264 87.384 264.12 87.812 264.12 88.316C264.12 88.796 263.992 89.208 263.736 89.552C263.48 89.896 263.116 90.16 262.644 90.344V90.404C262.972 90.492 263.268 90.636 263.532 90.836C263.804 91.028 264.016 91.272 264.168 91.568C264.328 91.864 264.408 92.208 264.408 92.6C264.408 93.136 264.264 93.596 263.976 93.98C263.696 94.364 263.316 94.66 262.836 94.868C262.364 95.068 261.844 95.168 261.276 95.168ZM268.618 95.168C268.018 95.168 267.49 94.996 267.034 94.652C266.586 94.3 266.234 93.78 265.978 93.092C265.73 92.396 265.606 91.536 265.606 90.512C265.606 89.496 265.73 88.652 265.978 87.98C266.234 87.3 266.586 86.792 267.034 86.456C267.49 86.12 268.018 85.952 268.618 85.952C269.226 85.952 269.754 86.124 270.202 86.468C270.65 86.804 270.998 87.308 271.246 87.98C271.502 88.652 271.63 89.496 271.63 90.512C271.63 91.536 271.502 92.396 271.246 93.092C270.998 93.78 270.65 94.3 270.202 94.652C269.754 94.996 269.226 95.168 268.618 95.168ZM268.618 93.788C268.882 93.788 269.114 93.688 269.314 93.488C269.514 93.288 269.67 92.952 269.782 92.48C269.894 92 269.95 91.344 269.95 90.512C269.95 89.688 269.894 89.044 269.782 88.58C269.67 88.108 269.514 87.78 269.314 87.596C269.114 87.404 268.882 87.308 268.618 87.308C268.37 87.308 268.142 87.404 267.934 87.596C267.734 87.78 267.574 88.108 267.454 88.58C267.334 89.044 267.274 89.688 267.274 90.512C267.274 91.344 267.334 92 267.454 92.48C267.574 92.952 267.734 93.288 267.934 93.488C268.142 93.688 268.37 93.788 268.618 93.788Z" fill="#A21942"/>
<path d="M350.044 95V89.54C350.044 89.284 350.052 88.98 350.068 88.628C350.084 88.268 350.1 87.956 350.116 87.692H350.056C349.952 87.932 349.84 88.172 349.72 88.412C349.6 88.652 349.476 88.896 349.348 89.144L347.968 91.352H352.744V92.696H346.252V91.496L349.564 86.108H351.688V95H350.044ZM356.618 95.168C356.018 95.168 355.49 94.996 355.034 94.652C354.586 94.3 354.234 93.78 353.978 93.092C353.73 92.396 353.606 91.536 353.606 90.512C353.606 89.496 353.73 88.652 353.978 87.98C354.234 87.3 354.586 86.792 355.034 86.456C355.49 86.12 356.018 85.952 356.618 85.952C357.226 85.952 357.754 86.124 358.202 86.468C358.65 86.804 358.998 87.308 359.246 87.98C359.502 88.652 359.63 89.496 359.63 90.512C359.63 91.536 359.502 92.396 359.246 93.092C358.998 93.78 358.65 94.3 358.202 94.652C357.754 94.996 357.226 95.168 356.618 95.168ZM356.618 93.788C356.882 93.788 357.114 93.688 357.314 93.488C357.514 93.288 357.67 92.952 357.782 92.48C357.894 92 357.95 91.344 357.95 90.512C357.95 89.688 357.894 89.044 357.782 88.58C357.67 88.108 357.514 87.78 357.314 87.596C357.114 87.404 356.882 87.308 356.618 87.308C356.37 87.308 356.142 87.404 355.934 87.596C355.734 87.78 355.574 88.108 355.454 88.58C355.334 89.044 355.274 89.688 355.274 90.512C355.274 91.344 355.334 92 355.454 92.48C355.574 92.952 355.734 93.288 355.934 93.488C356.142 93.688 356.37 93.788 356.618 93.788Z" fill="#A21942"/>
</svg>
