<svg width="362" height="98" viewBox="0 0 362 98" fill="none" xmlns="http://www.w3.org/2000/svg">
<mask id="path-1-inside-1_305_2953" fill="white">
<path d="M49.6822 23.8592C46.8544 21.6282 43.1119 21.5805 41.7398 21.9066L41.5807 21.9424C39.9978 22.3162 37.4803 22.9366 34.5372 26.5914C34.5213 26.6112 34.5054 26.6311 34.4895 26.655L34.4537 26.6987C34.4259 26.7385 34.406 26.7862 34.406 26.8419C34.406 26.8857 34.4179 26.9254 34.4378 26.9652L34.5054 27.0765C34.8753 27.693 35.3406 28.4923 35.7344 29.2241C35.7344 29.232 35.7423 29.236 35.7463 29.2479C35.79 29.3275 35.8736 29.3871 35.969 29.3871C36.0366 29.3871 36.1003 29.3593 36.144 29.3155C36.1639 29.2917 36.1798 29.2678 36.1957 29.24C38.8087 25.625 40.8649 25.1279 42.2568 24.7978L42.4239 24.758C43.1438 24.583 45.888 24.595 47.8686 26.1579C49.4157 27.3788 50.1992 29.3195 50.1992 31.9283C50.1992 36.3029 48.0714 38.0169 46.2857 38.6811C43.5176 39.7151 40.8649 38.3311 40.845 38.3232L40.7257 38.2635C39.2064 37.6034 36.9354 36.2313 34.7997 31.9363C30.4925 23.2826 26.8852 22.4673 24.5029 21.9265L24.3757 21.8986C23.2899 21.6521 19.5196 21.4771 16.5526 23.8433C15.0055 25.0801 13.1602 27.4822 13.1602 31.9045C13.1602 34.6008 13.713 36.3824 15.1368 38.2556C15.451 38.6811 18.6406 42.7813 24.8092 41.6001C25.7955 41.4092 27.1358 40.94 28.6073 39.8384L29.9635 41.0632C30.051 41.1428 30.1942 41.1388 30.2738 41.0473C30.3135 41.0076 30.3294 40.9519 30.3294 40.9002V40.8803L31.3078 34.8553V34.7877C31.3078 34.7281 31.2839 34.6684 31.2362 34.6286C31.1964 34.5889 31.1447 34.573 31.093 34.573H31.0493L30.9857 34.5849L25.2148 36.1995L25.1114 36.2154C25.0677 36.2234 25.0319 36.2472 25.0001 36.2791C24.9166 36.3705 24.9245 36.5097 25.016 36.5932L25.0836 36.6569L26.3762 37.8261C25.541 38.3669 24.8132 38.6135 24.2564 38.7209C19.794 39.5719 17.5907 36.6489 17.5032 36.5336L17.4714 36.4898C16.4333 35.1297 16.0833 33.9725 16.0833 31.9045C16.0833 29.2877 16.8549 27.347 18.3742 26.13C20.3031 24.591 22.9678 24.5791 23.7194 24.754L23.8507 24.7819C25.8035 25.2233 28.484 25.8278 32.1708 33.2367C34.0878 37.0824 36.486 39.5958 39.5047 40.9241C39.8905 41.1189 41.7239 41.9899 44.1022 41.9899C45.0965 41.9899 46.1863 41.8387 47.3038 41.4212C49.0538 40.769 53.1264 38.5379 53.1264 31.9204C53.1264 27.4981 51.2531 25.0921 49.6822 23.8513"/>
</mask>
<path d="M49.6822 23.8592C46.8544 21.6282 43.1119 21.5805 41.7398 21.9066L41.5807 21.9424C39.9978 22.3162 37.4803 22.9366 34.5372 26.5914C34.5213 26.6112 34.5054 26.6311 34.4895 26.655L34.4537 26.6987C34.4259 26.7385 34.406 26.7862 34.406 26.8419C34.406 26.8857 34.4179 26.9254 34.4378 26.9652L34.5054 27.0765C34.8753 27.693 35.3406 28.4923 35.7344 29.2241C35.7344 29.232 35.7423 29.236 35.7463 29.2479C35.79 29.3275 35.8736 29.3871 35.969 29.3871C36.0366 29.3871 36.1003 29.3593 36.144 29.3155C36.1639 29.2917 36.1798 29.2678 36.1957 29.24C38.8087 25.625 40.8649 25.1279 42.2568 24.7978L42.4239 24.758C43.1438 24.583 45.888 24.595 47.8686 26.1579C49.4157 27.3788 50.1992 29.3195 50.1992 31.9283C50.1992 36.3029 48.0714 38.0169 46.2857 38.6811C43.5176 39.7151 40.8649 38.3311 40.845 38.3232L40.7257 38.2635C39.2064 37.6034 36.9354 36.2313 34.7997 31.9363C30.4925 23.2826 26.8852 22.4673 24.5029 21.9265L24.3757 21.8986C23.2899 21.6521 19.5196 21.4771 16.5526 23.8433C15.0055 25.0801 13.1602 27.4822 13.1602 31.9045C13.1602 34.6008 13.713 36.3824 15.1368 38.2556C15.451 38.6811 18.6406 42.7813 24.8092 41.6001C25.7955 41.4092 27.1358 40.94 28.6073 39.8384L29.9635 41.0632C30.051 41.1428 30.1942 41.1388 30.2738 41.0473C30.3135 41.0076 30.3294 40.9519 30.3294 40.9002V40.8803L31.3078 34.8553V34.7877C31.3078 34.7281 31.2839 34.6684 31.2362 34.6286C31.1964 34.5889 31.1447 34.573 31.093 34.573H31.0493L30.9857 34.5849L25.2148 36.1995L25.1114 36.2154C25.0677 36.2234 25.0319 36.2472 25.0001 36.2791C24.9166 36.3705 24.9245 36.5097 25.016 36.5932L25.0836 36.6569L26.3762 37.8261C25.541 38.3669 24.8132 38.6135 24.2564 38.7209C19.794 39.5719 17.5907 36.6489 17.5032 36.5336L17.4714 36.4898C16.4333 35.1297 16.0833 33.9725 16.0833 31.9045C16.0833 29.2877 16.8549 27.347 18.3742 26.13C20.3031 24.591 22.9678 24.5791 23.7194 24.754L23.8507 24.7819C25.8035 25.2233 28.484 25.8278 32.1708 33.2367C34.0878 37.0824 36.486 39.5958 39.5047 40.9241C39.8905 41.1189 41.7239 41.9899 44.1022 41.9899C45.0965 41.9899 46.1863 41.8387 47.3038 41.4212C49.0538 40.769 53.1264 38.5379 53.1264 31.9204C53.1264 27.4981 51.2531 25.0921 49.6822 23.8513" fill="#BF8B2E"/>
<path d="M41.7398 21.9066L41.9593 22.8823L41.9711 22.8795L41.7398 21.9066ZM41.5807 21.9424L41.3612 20.9667L41.3509 20.9692L41.5807 21.9424ZM34.5372 26.5914L33.7584 25.9642L33.7564 25.9666L34.5372 26.5914ZM34.4895 26.655L35.2635 27.2882L35.2944 27.2504L35.3215 27.2097L34.4895 26.655ZM34.4537 26.6987L33.6798 26.0655L33.656 26.0945L33.6345 26.1253L34.4537 26.6987ZM34.4378 26.9652L33.5434 27.4124L33.5617 27.4491L33.583 27.4842L34.4378 26.9652ZM34.5054 27.0765L35.3629 26.562L35.3602 26.5575L34.5054 27.0765ZM35.7344 29.2241H36.7344V28.9721L36.615 28.7502L35.7344 29.2241ZM35.7463 29.2479L34.7976 29.5642L34.8263 29.6503L34.8701 29.7299L35.7463 29.2479ZM36.144 29.3155L36.8511 30.0227L36.8832 29.9906L36.9122 29.9557L36.144 29.3155ZM36.1957 29.24L35.3853 28.6542L35.354 28.6974L35.3275 28.7438L36.1957 29.24ZM42.2568 24.7978L42.4876 25.7708L42.4884 25.7706L42.2568 24.7978ZM42.4239 24.758L42.6555 25.7308L42.6601 25.7297L42.4239 24.758ZM47.8686 26.1579L48.4881 25.3729L48.488 25.3729L47.8686 26.1579ZM46.2857 38.6811L45.9371 37.7438L45.9358 37.7443L46.2857 38.6811ZM40.845 38.3232L40.3978 39.2176L40.435 39.2362L40.4736 39.2517L40.845 38.3232ZM40.7257 38.2635L41.1728 37.3691L41.1488 37.3571L41.1242 37.3464L40.7257 38.2635ZM34.7997 31.9363L35.6951 31.491L35.695 31.4907L34.7997 31.9363ZM24.5029 21.9265L24.7243 20.9513L24.7166 20.9496L24.5029 21.9265ZM24.3757 21.8986L24.1542 22.8738L24.162 22.8755L24.3757 21.8986ZM16.5526 23.8433L15.9291 23.0615L15.9282 23.0622L16.5526 23.8433ZM15.1368 38.2556L15.9413 37.6615L15.9329 37.6504L15.1368 38.2556ZM24.8092 41.6001L24.9972 42.5823L24.9992 42.5819L24.8092 41.6001ZM28.6073 39.8384L29.2776 39.0962L28.6669 38.5446L28.008 39.0378L28.6073 39.8384ZM29.9635 41.0632L30.6362 40.3233L30.6338 40.3211L29.9635 41.0632ZM30.2738 41.0473L29.5667 40.3402L29.542 40.3648L29.5192 40.3911L30.2738 41.0473ZM30.3294 40.8803L29.3424 40.72L29.3294 40.7996V40.8803H30.3294ZM31.3078 34.8553L32.2949 35.0156L32.3078 34.936V34.8553H31.3078ZM31.2362 34.6286L30.5291 35.3358L30.5612 35.3678L30.5961 35.3969L31.2362 34.6286ZM31.0493 34.573V33.573H30.9564L30.865 33.5901L31.0493 34.573ZM30.9857 34.5849L30.8014 33.602L30.7584 33.6101L30.7162 33.6219L30.9857 34.5849ZM25.2148 36.1995L25.3669 37.1879L25.4264 37.1787L25.4843 37.1625L25.2148 36.1995ZM25.1114 36.2154L24.9594 35.227L24.9459 35.2291L24.9326 35.2315L25.1114 36.2154ZM25.0001 36.2791L24.293 35.5719L24.2769 35.588L24.2616 35.6048L25.0001 36.2791ZM25.016 36.5932L25.7013 35.865L25.6958 35.8598L25.6902 35.8547L25.016 36.5932ZM25.0836 36.6569L24.3983 37.3851L24.4054 37.3918L24.4128 37.3985L25.0836 36.6569ZM26.3762 37.8261L26.9197 38.6654L28.0125 37.9578L27.047 37.0845L26.3762 37.8261ZM24.2564 38.7209L24.4437 39.7032L24.4457 39.7028L24.2564 38.7209ZM17.5032 36.5336L16.6945 37.1218L16.7004 37.1299L16.7065 37.138L17.5032 36.5336ZM17.4714 36.4898L18.2801 35.9016L18.2733 35.8923L18.2663 35.8831L17.4714 36.4898ZM18.3742 26.13L17.7505 25.3484L17.749 25.3496L18.3742 26.13ZM23.7194 24.754L23.4927 25.728L23.5023 25.7302L23.5119 25.7323L23.7194 24.754ZM23.8507 24.7819L24.0712 23.8064L24.0582 23.8036L23.8507 24.7819ZM32.1708 33.2367L31.2756 33.6822L31.2759 33.6829L32.1708 33.2367ZM39.5047 40.9241L39.9555 40.0315L39.9318 40.0195L39.9074 40.0087L39.5047 40.9241ZM47.3038 41.4212L46.9546 40.4841L46.9538 40.4844L47.3038 41.4212ZM50.3016 23.0742C48.7237 21.8293 46.9122 21.2085 45.3339 20.9383C43.7698 20.6706 42.3519 20.7333 41.5086 20.9337L41.9711 22.8795C42.4999 22.7538 43.6393 22.6773 44.9964 22.9096C46.3393 23.1395 47.8129 23.6582 49.0628 24.6443L50.3016 23.0742ZM41.5203 20.931L41.3612 20.9668L41.8002 22.918L41.9593 22.8822L41.5203 20.931ZM41.3509 20.9692C40.5427 21.16 39.4066 21.4331 38.0864 22.1607C36.7656 22.8887 35.3027 24.0464 33.7584 25.9642L35.3161 27.2186C36.7149 25.4816 37.9823 24.5017 39.0517 23.9123C40.1218 23.3226 41.0358 23.0986 41.8106 22.9156L41.3509 20.9692ZM33.7564 25.9666C33.7426 25.9839 33.7007 26.0354 33.6575 26.1003L35.3215 27.2097C35.3151 27.2193 35.3102 27.2259 35.3088 27.2278C35.3082 27.2286 35.3083 27.2283 35.3099 27.2263C35.3117 27.2241 35.3138 27.2214 35.3181 27.2161L33.7564 25.9666ZM33.7156 26.0217L33.6798 26.0655L35.2277 27.332L35.2635 27.2882L33.7156 26.0217ZM33.6345 26.1253C33.5186 26.2908 33.406 26.5348 33.406 26.8419H35.406C35.406 27.0377 35.3331 27.1862 35.2729 27.2722L33.6345 26.1253ZM33.406 26.8419C33.406 27.0798 33.4738 27.2733 33.5434 27.4124L35.3322 26.518C35.362 26.5775 35.406 26.6915 35.406 26.8419H33.406ZM33.583 27.4842L33.6506 27.5955L35.3602 26.5575L35.2926 26.4462L33.583 27.4842ZM33.6479 27.5911C34.0134 28.2001 34.4701 28.9849 34.8537 29.6979L36.615 28.7502C36.2111 27.9997 35.7372 27.1858 35.3629 26.562L33.6479 27.5911ZM34.7344 29.2241C34.7344 29.4057 34.7828 29.5556 34.8346 29.6632C34.8584 29.7126 34.8817 29.7506 34.8966 29.7739C34.9109 29.796 34.9233 29.8133 34.9251 29.8157C34.9365 29.8317 34.8499 29.721 34.7976 29.5642L36.695 28.9317C36.6387 28.7629 36.5461 28.6442 36.5526 28.6533C36.5531 28.654 36.5643 28.6695 36.5775 28.6901C36.5914 28.7116 36.6137 28.748 36.6367 28.7957C36.6869 28.9 36.7344 29.0464 36.7344 29.2241H34.7344ZM34.8701 29.7299C35.0572 30.07 35.4463 30.3871 35.969 30.3871V28.3871C36.3009 28.3871 36.5229 28.5849 36.6225 28.766L34.8701 29.7299ZM35.969 30.3871C36.3048 30.3871 36.6219 30.2518 36.8511 30.0227L35.4369 28.6084C35.5786 28.4668 35.7684 28.3871 35.969 28.3871V30.3871ZM36.9122 29.9557C36.9775 29.8774 37.0258 29.8028 37.0639 29.7361L35.3275 28.7438C35.3297 28.7398 35.3355 28.73 35.3444 28.7169C35.3536 28.7034 35.3642 28.6892 35.3758 28.6753L36.9122 29.9557ZM37.0062 29.8258C38.2518 28.1025 39.3257 27.1757 40.204 26.6413C41.077 26.1101 41.8094 25.9316 42.4876 25.7708L42.0261 23.8248C41.3123 23.994 40.3206 24.2292 39.1643 24.9328C38.0133 25.6332 36.7526 26.7624 35.3853 28.6542L37.0062 29.8258ZM42.4884 25.7706L42.6555 25.7308L42.1923 23.7852L42.0252 23.825L42.4884 25.7706ZM42.6601 25.7297C42.8433 25.6852 43.5619 25.6294 44.5036 25.7917C45.4213 25.9499 46.4293 26.296 47.2491 26.9429L48.488 25.3729C47.3272 24.4568 45.9728 24.0155 44.8434 23.8208C43.7378 23.6302 42.7244 23.6559 42.1877 23.7863L42.6601 25.7297ZM47.2491 26.9429C48.4829 27.9165 49.1992 29.5187 49.1992 31.9283H51.1992C51.1992 29.1204 50.3485 26.841 48.4881 25.3729L47.2491 26.9429ZM49.1992 31.9283C49.1992 33.9488 48.7102 35.2574 48.0981 36.1153C47.4838 36.9761 46.6873 37.4648 45.9371 37.7438L46.6343 39.6184C47.6698 39.2333 48.83 38.5328 49.7261 37.277C50.6243 36.0182 51.1992 34.2824 51.1992 31.9283H49.1992ZM45.9358 37.7443C43.5981 38.6175 41.3383 37.4435 41.2163 37.3947L40.4736 39.2517C40.3914 39.2188 43.4371 40.8126 46.6356 39.6179L45.9358 37.7443ZM41.2922 37.4287L41.1728 37.3691L40.2785 39.158L40.3978 39.2176L41.2922 37.4287ZM41.1242 37.3464C39.8137 36.7769 37.7225 35.5682 35.6951 31.491L33.9043 32.3815C36.1484 36.8945 38.5991 38.4298 40.3271 39.1807L41.1242 37.3464ZM35.695 31.4907C33.5009 27.0826 31.4391 24.5756 29.5438 23.1C27.6252 21.6063 25.9475 21.229 24.7243 20.9513L24.2815 22.9017C25.4406 23.1648 26.7578 23.4656 28.3152 24.6781C29.8959 25.9088 31.7913 28.1363 33.9045 32.3819L35.695 31.4907ZM24.7166 20.9496L24.5893 20.9217L24.162 22.8755L24.2893 22.9034L24.7166 20.9496ZM24.5971 20.9235C23.9187 20.7694 22.5774 20.6647 21.0187 20.9026C19.447 21.1426 17.5843 21.7415 15.9291 23.0615L17.1762 24.6251C18.4879 23.579 19.9939 23.0822 21.3205 22.8797C22.6601 22.6752 23.7469 22.7813 24.1542 22.8738L24.5971 20.9235ZM15.9282 23.0622C14.1625 24.4739 12.1602 27.1551 12.1602 31.9045H14.1602C14.1602 27.8093 15.8486 25.6864 17.1771 24.6244L15.9282 23.0622ZM12.1602 31.9045C12.1602 34.7853 12.7653 36.7882 14.3407 38.8607L15.9329 37.6504C14.6606 35.9767 14.1602 34.4164 14.1602 31.9045H12.1602ZM14.3323 38.8496C14.7164 39.3697 18.2449 43.8752 24.9972 42.5823L24.6211 40.618C19.0364 41.6873 16.1856 37.9925 15.9413 37.6616L14.3323 38.8496ZM24.9992 42.5819C26.124 42.3642 27.6063 41.8369 29.2066 40.6389L28.008 39.0378C26.6653 40.043 25.467 40.4542 24.6192 40.6183L24.9992 42.5819ZM27.9371 40.5805L29.2933 41.8054L30.6338 40.3211L29.2776 39.0962L27.9371 40.5805ZM29.2909 41.8032C29.7724 42.2409 30.5624 42.2394 31.0283 41.7035L29.5192 40.3911C29.8261 40.0382 30.3297 40.0446 30.6362 40.3233L29.2909 41.8032ZM30.9808 41.7545C31.2591 41.4762 31.3294 41.1351 31.3294 40.9002H29.3294C29.3294 40.7687 29.3679 40.5389 29.5667 40.3402L30.9808 41.7545ZM31.3294 40.9002V40.8803H29.3294V40.9002H31.3294ZM31.3165 41.0406L32.2949 35.0156L30.3207 34.695L29.3424 40.72L31.3165 41.0406ZM32.3078 34.8553V34.7877H30.3078V34.8553H32.3078ZM32.3078 34.7877C32.3078 34.4715 32.1813 34.1145 31.8764 33.8604L30.5961 35.3969C30.3866 35.2223 30.3078 34.9846 30.3078 34.7877H32.3078ZM31.9433 33.9215C31.6765 33.6548 31.3484 33.573 31.093 33.573V35.573C30.9411 35.573 30.7163 35.523 30.5291 35.3358L31.9433 33.9215ZM31.093 33.573H31.0493V35.573H31.093V33.573ZM30.865 33.5901L30.8014 33.602L31.1699 35.5678L31.2336 35.5558L30.865 33.5901ZM30.7162 33.6219L24.9454 35.2365L25.4843 37.1625L31.2551 35.5479L30.7162 33.6219ZM25.0628 35.2111L24.9594 35.227L25.2635 37.2038L25.3669 37.1879L25.0628 35.2111ZM24.9326 35.2315C24.6211 35.2882 24.4109 35.454 24.293 35.5719L25.7072 36.9862C25.6529 37.0405 25.5142 37.1586 25.2903 37.1993L24.9326 35.2315ZM24.2616 35.6048C23.7966 36.114 23.8524 36.885 24.3417 37.3317L25.6902 35.8547C25.9966 36.1345 26.0365 36.627 25.7385 36.9533L24.2616 35.6048ZM24.3306 37.3214L24.3983 37.3851L25.7689 35.9286L25.7013 35.865L24.3306 37.3214ZM24.4128 37.3985L25.7053 38.5677L27.047 37.0845L25.7544 35.9152L24.4128 37.3985ZM25.8326 36.9867C25.1068 37.4567 24.4995 37.6555 24.067 37.739L24.4457 39.7028C25.1268 39.5714 25.9751 39.2771 26.9197 38.6654L25.8326 36.9867ZM24.069 37.7386C20.1843 38.4794 18.3188 35.9541 18.2999 35.9292L16.7065 37.138C16.8626 37.3437 19.4037 40.6644 24.4437 39.7032L24.069 37.7386ZM18.3119 35.9454L18.2801 35.9016L16.6626 37.078L16.6945 37.1218L18.3119 35.9454ZM18.2663 35.8831C17.8016 35.2743 17.52 34.7506 17.3452 34.1729C17.1672 33.5847 17.0833 32.8863 17.0833 31.9045H15.0833C15.0833 32.9906 15.1745 33.9048 15.431 34.7523C15.6906 35.6103 16.1031 36.3453 16.6764 37.0965L18.2663 35.8831ZM17.0833 31.9045C17.0833 29.4805 17.7917 27.8778 18.9993 26.9105L17.749 25.3496C15.9181 26.8161 15.0833 29.0949 15.0833 31.9045H17.0833ZM18.9979 26.9117C19.7919 26.2782 20.7661 25.9393 21.659 25.7846C22.5716 25.6265 23.2841 25.6794 23.4927 25.728L23.9462 23.7801C23.4031 23.6537 22.4075 23.6251 21.3175 23.814C20.2079 24.0062 18.8854 24.4428 17.7505 25.3484L18.9979 26.9117ZM23.5119 25.7323L23.6432 25.7601L24.0582 23.8036L23.9269 23.7758L23.5119 25.7323ZM23.6302 25.7573C24.5675 25.9692 25.536 26.1894 26.7248 27.1684C27.9489 28.1765 29.4644 30.0426 31.2756 33.6822L33.0661 32.7912C31.1905 29.0219 29.5223 26.8813 27.9962 25.6246C26.4349 24.3388 25.0866 24.036 24.0712 23.8065L23.6302 25.7573ZM31.2759 33.6829C33.2651 37.6734 35.8119 40.3917 39.1019 41.8394L39.9074 40.0087C37.1602 38.7999 34.9105 36.4913 33.0658 32.7906L31.2759 33.6829ZM39.0538 41.8166C39.4989 42.0414 41.4968 42.9899 44.1022 42.9899V40.9899C41.951 40.9899 40.2821 40.1964 39.9555 40.0315L39.0538 41.8166ZM44.1022 42.9899C45.1984 42.9899 46.4089 42.8231 47.6538 42.3579L46.9538 40.4844C45.9636 40.8544 44.9947 40.9899 44.1022 40.9899V42.9899ZM47.6531 42.3582C48.6316 41.9935 50.254 41.1907 51.6357 39.5525C53.0325 37.8965 54.1264 35.4529 54.1264 31.9204H52.1264C52.1264 35.0054 51.184 36.9861 50.1069 38.263C49.0148 39.5578 47.726 40.1966 46.9546 40.4841L47.6531 42.3582ZM54.1264 31.9204C54.1264 27.1651 52.091 24.4796 50.302 23.0665L49.0623 24.636C50.4152 25.7046 52.1264 27.8311 52.1264 31.9204H54.1264Z" fill="#BF8B2E" mask="url(#path-1-inside-1_305_2953)"/>
<path d="M49.6822 23.8592C46.8544 21.6282 43.1119 21.5805 41.7398 21.9066L41.5807 21.9424C39.9978 22.3162 37.4803 22.9366 34.5372 26.5914C34.5213 26.6112 34.5054 26.6311 34.4895 26.655L34.4537 26.6987C34.4259 26.7385 34.406 26.7862 34.406 26.8419C34.406 26.8857 34.4179 26.9254 34.4378 26.9652L34.5054 27.0765C34.8753 27.693 35.3406 28.4923 35.7344 29.2241C35.7344 29.232 35.7423 29.236 35.7463 29.2479C35.79 29.3275 35.8736 29.3871 35.969 29.3871C36.0366 29.3871 36.1003 29.3593 36.144 29.3155C36.1639 29.2917 36.1798 29.2678 36.1957 29.24C38.8087 25.625 40.8649 25.1279 42.2568 24.7978L42.4239 24.758C43.1438 24.583 45.888 24.595 47.8686 26.1579C49.4157 27.3788 50.1992 29.3195 50.1992 31.9283C50.1992 36.3029 48.0714 38.0169 46.2857 38.6811C43.5176 39.7151 40.8649 38.3311 40.845 38.3232L40.7257 38.2635C39.2064 37.6034 36.9354 36.2313 34.7997 31.9363C30.4925 23.2826 26.8852 22.4673 24.5029 21.9265L24.3757 21.8986C23.2899 21.6521 19.5196 21.4771 16.5526 23.8433C15.0055 25.0801 13.1602 27.4822 13.1602 31.9045C13.1602 34.6008 13.713 36.3824 15.1368 38.2556C15.451 38.6811 18.6406 42.7813 24.8092 41.6001C25.7955 41.4092 27.1358 40.94 28.6073 39.8384L29.9635 41.0632C30.051 41.1428 30.1942 41.1388 30.2738 41.0473C30.3135 41.0076 30.3294 40.9519 30.3294 40.9002V40.8803L31.3078 34.8553V34.7877C31.3078 34.7281 31.2839 34.6684 31.2362 34.6286C31.1964 34.5889 31.1447 34.573 31.093 34.573H31.0493L30.9857 34.5849L25.2148 36.1995L25.1114 36.2154C25.0677 36.2234 25.0319 36.2472 25.0001 36.2791C24.9166 36.3705 24.9245 36.5097 25.016 36.5932L25.0836 36.6569L26.3762 37.8261C25.541 38.3669 24.8132 38.6135 24.2564 38.7209C19.794 39.5719 17.5907 36.6489 17.5032 36.5336L17.4714 36.4898C16.4333 35.1297 16.0833 33.9725 16.0833 31.9045C16.0833 29.2877 16.8549 27.347 18.3742 26.13C20.3031 24.591 22.9678 24.5791 23.7194 24.754L23.8507 24.7819C25.8035 25.2233 28.484 25.8278 32.1708 33.2367C34.0878 37.0824 36.486 39.5958 39.5047 40.9241C39.8905 41.1189 41.7239 41.9899 44.1022 41.9899C45.0965 41.9899 46.1863 41.8387 47.3038 41.4212C49.0538 40.769 53.1264 38.5379 53.1264 31.9204C53.1264 27.4981 51.2531 25.0921 49.6822 23.8513" fill="#BF8B2E"/>
<path d="M49.6822 23.8592C46.8544 21.6282 43.1119 21.5805 41.7398 21.9066L41.5807 21.9424C39.9978 22.3162 37.4803 22.9366 34.5372 26.5914C34.5213 26.6112 34.5054 26.6311 34.4895 26.655L34.4537 26.6987C34.4259 26.7385 34.406 26.7862 34.406 26.8419C34.406 26.8857 34.4179 26.9254 34.4378 26.9652L34.5054 27.0765C34.8753 27.693 35.3406 28.4923 35.7344 29.2241C35.7344 29.232 35.7423 29.236 35.7463 29.2479C35.79 29.3275 35.8736 29.3871 35.969 29.3871C36.0366 29.3871 36.1003 29.3593 36.144 29.3155C36.1639 29.2917 36.1798 29.2678 36.1957 29.24C38.8087 25.625 40.8649 25.1279 42.2568 24.7978L42.4239 24.758C43.1438 24.583 45.888 24.595 47.8686 26.1579C49.4157 27.3788 50.1992 29.3195 50.1992 31.9283C50.1992 36.3029 48.0714 38.0169 46.2857 38.6811C43.5176 39.7151 40.8649 38.3311 40.845 38.3232L40.7257 38.2635C39.2064 37.6034 36.9354 36.2313 34.7997 31.9363C30.4925 23.2826 26.8852 22.4673 24.5029 21.9265L24.3757 21.8986C23.2899 21.6521 19.5196 21.4771 16.5526 23.8433C15.0055 25.0801 13.1602 27.4822 13.1602 31.9045C13.1602 34.6008 13.713 36.3824 15.1368 38.2556C15.451 38.6811 18.6406 42.7813 24.8092 41.6001C25.7955 41.4092 27.1358 40.94 28.6073 39.8384L29.9635 41.0632C30.051 41.1428 30.1942 41.1388 30.2738 41.0473C30.3135 41.0076 30.3294 40.9519 30.3294 40.9002V40.8803L31.3078 34.8553V34.7877C31.3078 34.7281 31.2839 34.6684 31.2362 34.6286C31.1964 34.5889 31.1447 34.573 31.093 34.573H31.0493L30.9857 34.5849L25.2148 36.1995L25.1114 36.2154C25.0677 36.2234 25.0319 36.2472 25.0001 36.2791C24.9166 36.3705 24.9245 36.5097 25.016 36.5932L25.0836 36.6569L26.3762 37.8261C25.541 38.3669 24.8132 38.6135 24.2564 38.7209C19.794 39.5719 17.5907 36.6489 17.5032 36.5336L17.4714 36.4898C16.4333 35.1297 16.0833 33.9725 16.0833 31.9045C16.0833 29.2877 16.8549 27.347 18.3742 26.13C20.3031 24.591 22.9678 24.5791 23.7194 24.754L23.8507 24.7819C25.8035 25.2233 28.484 25.8278 32.1708 33.2367C34.0878 37.0824 36.486 39.5958 39.5047 40.9241C39.8905 41.1189 41.7239 41.9899 44.1022 41.9899C45.0965 41.9899 46.1863 41.8387 47.3038 41.4212C49.0538 40.769 53.1264 38.5379 53.1264 31.9204C53.1264 27.4981 51.2531 25.0921 49.6822 23.8513" stroke="#BF8B2E" stroke-width="0.73" stroke-miterlimit="10"/>
<path d="M88.488 42.336C86.112 42.336 83.736 41.4 82.008 39.744L84.048 37.296C85.32 38.472 87 39.264 88.56 39.264C90.408 39.264 91.392 38.472 91.392 37.224C91.392 35.904 90.312 35.496 88.728 34.824L86.352 33.816C84.552 33.072 82.752 31.632 82.752 29.04C82.752 26.136 85.296 23.904 88.896 23.904C90.96 23.904 93.024 24.72 94.464 26.184L92.664 28.416C91.536 27.48 90.36 26.952 88.896 26.952C87.336 26.952 86.352 27.648 86.352 28.824C86.352 30.096 87.6 30.552 89.112 31.152L91.44 32.136C93.6 33.024 95.016 34.392 95.016 36.96C95.016 39.864 92.592 42.336 88.488 42.336ZM98.1606 42V24.216H103.033C108.457 24.216 111.817 27.048 111.817 33.048C111.817 39.024 108.457 42 103.225 42H98.1606ZM101.713 39.144H102.817C106.129 39.144 108.193 37.368 108.193 33.048C108.193 28.704 106.129 27.072 102.817 27.072H101.713V39.144ZM122.925 42.336C118.101 42.336 114.405 39.12 114.405 33.192C114.405 27.336 118.197 23.904 122.925 23.904C125.493 23.904 127.269 25.008 128.421 26.184L126.549 28.44C125.661 27.6 124.653 26.952 123.045 26.952C120.093 26.952 118.029 29.256 118.029 33.072C118.029 36.936 119.805 39.264 123.309 39.264C124.149 39.264 125.013 39.024 125.517 38.592V35.088H122.373V32.184H128.685V40.2C127.485 41.376 125.397 42.336 122.925 42.336ZM136.049 42.336C134.249 42.336 132.281 41.544 130.937 40.44L132.545 38.232C133.745 39.168 134.897 39.696 136.145 39.696C137.489 39.696 138.089 39.12 138.089 38.28C138.089 37.272 136.697 36.816 135.281 36.264C133.577 35.616 131.681 34.584 131.681 32.328C131.681 29.928 133.625 28.224 136.697 28.224C138.641 28.224 140.153 29.04 141.257 29.88L139.673 32.016C138.713 31.32 137.777 30.864 136.793 30.864C135.569 30.864 134.993 31.392 134.993 32.16C134.993 33.144 136.241 33.504 137.657 34.032C139.433 34.704 141.401 35.592 141.401 38.088C141.401 40.44 139.553 42.336 136.049 42.336ZM149.601 42V39.144H153.417V28.368H150.201V26.184C151.977 25.848 153.201 25.392 154.329 24.696H156.945V39.144H160.281V42H149.601ZM162.798 42V39.96C167.43 35.544 170.478 32.52 170.478 29.952C170.478 28.2 169.518 27.144 167.814 27.144C166.518 27.144 165.462 28.008 164.55 28.992L162.63 27.072C164.262 25.32 165.846 24.36 168.27 24.36C171.63 24.36 173.862 26.496 173.862 29.76C173.862 32.784 171.078 35.904 167.91 39.216C168.798 39.12 169.974 39.024 170.814 39.024H174.702V42H162.798Z" fill="#BF8B2E"/>
<path d="M206.752 28.32V30.288H185.248V28.32H194.56V27.432H187.72V25.704H194.56V24.84H186.616V22.968H194.56V21.672H197.488V22.968H205.768V24.84H197.488V25.704H204.688V27.432H197.488V28.32H206.752ZM190.888 37.848V38.856H201.304V37.848H190.888ZM190.888 35.304V36.264H201.304V35.304H190.888ZM190.888 32.76V33.72H201.304V32.76H190.888ZM204.208 40.512H200.68C202.936 41.256 205.384 42.168 206.896 42.816L203.464 44.088C202.12 43.368 199.72 42.36 197.32 41.568L199.24 40.512H192.88L194.632 41.304C192.64 42.48 189.592 43.56 187.144 44.16C186.688 43.608 185.68 42.6 185.08 42.12C187.24 41.76 189.592 41.184 191.272 40.512H188.128V31.128H204.208V40.512ZM214.408 21.816L217.24 22.704C216.592 24.36 215.8 26.016 214.864 27.6V44.064H212.032V31.776C211.36 32.616 210.688 33.384 209.992 34.056C209.704 33.336 208.84 31.752 208.336 31.032C210.76 28.848 213.064 25.368 214.408 21.816ZM231.328 34.56H225.136V40.536H230.8V43.272H216.688V40.536H222.232V34.56H216.04V31.8H222.232V26.568H217.336V23.88H230.416V26.568H225.136V31.8H231.328V34.56ZM252.136 22.224L254.92 23.208C254.152 24.888 253.24 26.592 252.52 27.72L250.048 26.808C250.744 25.584 251.656 23.664 252.136 22.224ZM245.008 26.712L242.416 27.888C242.128 26.712 241.192 24.84 240.256 23.448L242.656 22.392C243.616 23.712 244.648 25.464 245.008 26.712ZM240.064 24.576L238.336 26.856C237.4 26.088 235.408 24.864 234.04 24.048L235.72 22.032C237.04 22.752 239.056 23.88 240.064 24.576ZM238.696 30.864L237.112 33.24C236.128 32.544 234.064 31.416 232.624 30.648L234.184 28.536C235.504 29.184 237.64 30.216 238.696 30.864ZM238 34.32L240.112 36.24C238.84 38.736 237.328 41.472 235.888 43.8L233.464 41.88C234.76 40.08 236.584 37.104 238 34.32ZM254.032 28.368V40.992C254.032 42.384 253.792 43.104 252.88 43.56C251.992 43.992 250.696 44.04 248.896 44.04C248.8 43.272 248.416 42.096 248.032 41.352C249.136 41.424 250.384 41.424 250.768 41.4C251.128 41.376 251.248 41.28 251.248 40.968V37.68C248.848 38.328 246.352 38.952 244.36 39.456L243.52 37.104C245.512 36.72 248.416 36.072 251.248 35.4V30.96H243.52V35.76C243.52 38.448 243.328 42.048 242.008 44.256C241.528 43.8 240.352 42.984 239.728 42.696C240.832 40.752 240.904 38.016 240.904 35.76V28.368H246.088V21.672H248.968V28.368H254.032ZM243.856 33.528L245.008 31.8C246.808 32.208 249.16 33.024 250.384 33.72L249.16 35.664C247.984 34.944 245.656 34.008 243.856 33.528ZM262.96 37.824V38.832H273.28V37.824H262.96ZM269.296 29.736H266.056C265.792 30.288 265.408 30.792 264.928 31.248H269.296V29.736ZM261.736 27.024L261.568 28.08H263.848C263.944 27.744 263.992 27.384 264.016 27.024H261.736ZM266.632 24.408V25.368H269.296V24.408H266.632ZM274.504 24.408H272.008V25.368H274.504V24.408ZM269.296 28.08V27.024H266.632C266.608 27.384 266.584 27.744 266.536 28.08H269.296ZM275.824 29.736H272.008V31.248H274.144C274.048 30.96 273.952 30.672 273.808 30.456C274.384 30.528 274.888 30.552 275.152 30.528C275.368 30.528 275.512 30.528 275.656 30.384C275.728 30.264 275.8 30.072 275.824 29.736ZM273.28 35.328H262.96V36.312H273.28V35.328ZM273.28 32.856H262.96V33.816H273.28V32.856ZM276.184 40.44H273.544C275.512 41.112 277.456 41.832 278.728 42.408L276.64 44.112C275.104 43.344 272.416 42.192 269.824 41.352L270.736 40.44H264.88L266.632 41.256C264.664 42.432 261.568 43.536 259.12 44.136C258.688 43.584 257.68 42.552 257.056 42.072C259.24 41.712 261.616 41.16 263.32 40.44H260.176V33.312C259.624 33.432 259.024 33.552 258.4 33.648C258.16 33.024 257.488 31.944 257.032 31.416C259.888 31.056 261.592 30.48 262.624 29.736H258.76C259.024 28.536 259.312 26.784 259.456 25.368H264.04V24.408H258.592V22.728H264.04V21.672H266.632V22.728H269.296V21.672H272.008V22.728H277.096V27.024H272.008V28.08H278.632C278.632 28.08 278.608 28.536 278.608 28.824C278.488 30.312 278.344 31.152 277.936 31.584C277.6 31.968 277.096 32.136 276.568 32.16C276.472 32.16 276.328 32.184 276.184 32.184V40.44ZM292.744 33.744V29.856H289.12V21.888H291.544V23.52H295.312V25.872H291.544V27.624H294.208V27.648H295.12V33.744C295.12 34.728 294.928 35.136 294.28 35.448C293.656 35.736 292.72 35.736 291.544 35.736C291.448 35.184 291.16 34.488 290.92 33.984C291.544 34.032 292.24 34.032 292.456 34.008C292.672 34.008 292.744 33.96 292.744 33.744ZM289.48 30.432L291.592 30.792C291.424 32.376 291.04 33.936 290.392 34.944C290.008 34.632 289.072 34.08 288.568 33.816C289.168 32.928 289.36 31.704 289.48 30.432ZM303.04 35.952V38.592H296.272C298.528 39.648 300.928 40.896 302.392 41.808L300.496 43.992C298.96 42.936 296.32 41.4 293.944 40.248L295.216 38.592H288.088L290.104 40.248C288.04 41.616 285.064 43.104 282.712 44.064C282.328 43.464 281.632 42.528 281.104 41.928C283.216 41.136 285.976 39.768 287.584 38.592H281.032V35.952H283.192L282.784 23.568C284.296 23.088 286.144 22.368 287.368 21.792L288.592 24.12C287.584 24.48 286.456 24.768 285.376 25.056L285.448 27.216H288.184V29.544H285.52L285.592 31.608H288.256V33.936H285.664L285.736 35.952H298.264C298.312 35.328 298.336 34.704 298.384 34.008H295.96V31.656H298.48C298.504 30.984 298.528 30.288 298.552 29.592H296.128V27.24H298.624C298.624 26.544 298.624 25.872 298.648 25.176H295.888V22.728H301.264C301.264 27 301.144 32.352 300.952 35.952H303.04ZM317.536 40.608H326.848V43.416H305.272V40.608H314.536V35.784H308.032V33.024H314.536V28.8H309.568C308.872 30.12 308.128 31.344 307.336 32.28C306.76 31.824 305.488 30.96 304.768 30.576C306.64 28.56 308.2 25.248 309.016 21.984L311.968 22.632C311.632 23.784 311.248 24.912 310.84 26.016H314.536V21.696H317.536V26.016H325.624V28.8H317.536V33.024H324.712V35.784H317.536V40.608ZM336.136 37.632H340.864V36.384H336.952C336.688 36.816 336.424 37.224 336.136 37.632ZM336.472 29.976H345.76C344.584 29.568 343.144 29.16 341.632 28.752C339.904 29.208 338.152 29.616 336.472 29.976ZM344.944 25.824H337.12C338.632 26.16 340.216 26.52 341.8 26.904C342.952 26.592 344.056 26.208 344.944 25.824ZM343.672 41.208H351.232V43.512H333.592V41.208H340.864V39.816H335.776V38.088C335.344 38.64 334.864 39.144 334.408 39.576C334.24 39.072 333.688 37.848 333.28 37.176C332.992 39.672 332.296 42.432 330.712 44.376C330.28 43.848 329.104 42.84 328.504 42.528C330.448 40.128 330.64 36.72 330.64 34.248V29.976H333.88C333.496 29.568 333.016 29.136 332.68 28.872C334.408 28.608 336.304 28.272 338.152 27.84C336.64 27.456 335.08 27.12 333.664 26.856L335.008 25.824H330.88V23.592H339.232C338.944 23.136 338.608 22.704 338.32 22.344L340.24 21.408C340.792 22.032 341.44 22.872 341.848 23.592H350.152V25.824H346.672L347.824 26.544C346.96 26.952 345.952 27.36 344.872 27.744C346.288 28.128 347.584 28.512 348.664 28.872L347.32 29.976H350.848V32.256H333.424V34.272C333.424 35.04 333.4 35.88 333.304 36.792C334.456 35.664 335.44 34.128 336.04 32.472L338.464 33.192C338.344 33.504 338.224 33.816 338.08 34.152H340.864V32.688H343.672V34.152H349.6V36.384H343.672V37.632H348.904V39.816H343.672V41.208Z" fill="#BF8B2E"/>
<rect x="1" y="64" width="18" height="18" fill="#BF8B2E" stroke="black"/>
<rect x="19" y="64" width="18" height="18" fill="#BF8B2E" stroke="black"/>
<rect x="37" y="64" width="18" height="18" fill="#BF8B2E" stroke="black"/>
<rect x="55" y="64" width="18" height="18" fill="#BF8B2E" stroke="black"/>
<rect x="73" y="64" width="18" height="18" fill="#BF8B2E" stroke="black"/>
<rect x="91" y="64" width="18" height="18" fill="#BF8B2E" stroke="black"/>
<rect x="109" y="64" width="18" height="18" fill="#BF8B2E" stroke="black"/>
<rect x="127" y="64" width="18" height="18" fill="#BF8B2E" stroke="black"/>
<rect x="145" y="64" width="18" height="18" fill="#BF8B2E" stroke="black"/>
<rect x="163" y="64" width="18" height="18" fill="#BF8B2E" stroke="black"/>
<rect x="181" y="64" width="18" height="18" fill="#BF8B2E" stroke="black"/>
<rect x="199" y="64" width="18" height="18" fill="#BF8B2E" stroke="black"/>
<rect x="217" y="64" width="18" height="18" fill="#BF8B2E" stroke="black"/>
<rect x="235" y="64" width="18" height="18" fill="#BF8B2E" stroke="black"/>
<rect x="253" y="64" width="18" height="18" fill="#BF8B2E" stroke="black"/>
<rect x="271" y="64" width="18" height="18" fill="#BF8B2E" stroke="black"/>
<rect x="289" y="64" width="18" height="18" fill="#BF8B2E" stroke="black"/>
<rect x="307" y="64" width="18" height="18" fill="#BF8B2E" stroke="black"/>
<rect x="325" y="64" width="18" height="18" fill="#BF8B2E" stroke="black"/>
<rect x="343" y="64" width="18" height="18" fill="#BF8B2E" stroke="black"/>
<path d="M4.54 95.168C3.94 95.168 3.412 94.996 2.956 94.652C2.508 94.3 2.156 93.78 1.9 93.092C1.652 92.396 1.528 91.536 1.528 90.512C1.528 89.496 1.652 88.652 1.9 87.98C2.156 87.3 2.508 86.792 2.956 86.456C3.412 86.12 3.94 85.952 4.54 85.952C5.148 85.952 5.676 86.124 6.124 86.468C6.572 86.804 6.92 87.308 7.168 87.98C7.424 88.652 7.552 89.496 7.552 90.512C7.552 91.536 7.424 92.396 7.168 93.092C6.92 93.78 6.572 94.3 6.124 94.652C5.676 94.996 5.148 95.168 4.54 95.168ZM4.54 93.788C4.804 93.788 5.036 93.688 5.236 93.488C5.436 93.288 5.592 92.952 5.704 92.48C5.816 92 5.872 91.344 5.872 90.512C5.872 89.688 5.816 89.044 5.704 88.58C5.592 88.108 5.436 87.78 5.236 87.596C5.036 87.404 4.804 87.308 4.54 87.308C4.292 87.308 4.064 87.404 3.856 87.596C3.656 87.78 3.496 88.108 3.376 88.58C3.256 89.044 3.196 89.688 3.196 90.512C3.196 91.344 3.256 92 3.376 92.48C3.496 92.952 3.656 93.288 3.856 93.488C4.064 93.688 4.292 93.788 4.54 93.788Z" fill="#BF8B2E"/>
<path d="M82.984 95V93.56H84.904V87.956H83.284V86.852C83.732 86.772 84.116 86.676 84.436 86.564C84.764 86.444 85.068 86.292 85.348 86.108H86.656V93.56H88.324V95H82.984ZM92.6181 95.168C92.0181 95.168 91.4901 94.996 91.0341 94.652C90.5861 94.3 90.2341 93.78 89.9781 93.092C89.7301 92.396 89.6061 91.536 89.6061 90.512C89.6061 89.496 89.7301 88.652 89.9781 87.98C90.2341 87.3 90.5861 86.792 91.0341 86.456C91.4901 86.12 92.0181 85.952 92.6181 85.952C93.2261 85.952 93.7541 86.124 94.2021 86.468C94.6501 86.804 94.9981 87.308 95.2461 87.98C95.5021 88.652 95.6301 89.496 95.6301 90.512C95.6301 91.536 95.5021 92.396 95.2461 93.092C94.9981 93.78 94.6501 94.3 94.2021 94.652C93.7541 94.996 93.2261 95.168 92.6181 95.168ZM92.6181 93.788C92.8821 93.788 93.1141 93.688 93.3141 93.488C93.5141 93.288 93.6701 92.952 93.7821 92.48C93.8941 92 93.9501 91.344 93.9501 90.512C93.9501 89.688 93.8941 89.044 93.7821 88.58C93.6701 88.108 93.5141 87.78 93.3141 87.596C93.1141 87.404 92.8821 87.308 92.6181 87.308C92.3701 87.308 92.1421 87.404 91.9341 87.596C91.7341 87.78 91.5741 88.108 91.4541 88.58C91.3341 89.044 91.2741 89.688 91.2741 90.512C91.2741 91.344 91.3341 92 91.4541 92.48C91.5741 92.952 91.7341 93.288 91.9341 93.488C92.1421 93.688 92.3701 93.788 92.6181 93.788Z" fill="#BF8B2E"/>
<path d="M170.516 95V93.98C171.324 93.26 172.012 92.592 172.58 91.976C173.156 91.36 173.596 90.788 173.9 90.26C174.204 89.724 174.356 89.228 174.356 88.772C174.356 88.484 174.304 88.232 174.2 88.016C174.096 87.8 173.944 87.636 173.744 87.524C173.552 87.404 173.312 87.344 173.024 87.344C172.704 87.344 172.408 87.436 172.136 87.62C171.872 87.796 171.628 88.008 171.404 88.256L170.42 87.308C170.836 86.86 171.26 86.524 171.692 86.3C172.132 86.068 172.652 85.952 173.252 85.952C173.812 85.952 174.3 86.068 174.716 86.3C175.14 86.524 175.468 86.84 175.7 87.248C175.932 87.656 176.048 88.136 176.048 88.688C176.048 89.224 175.912 89.772 175.64 90.332C175.376 90.884 175.02 91.436 174.572 91.988C174.124 92.54 173.628 93.084 173.084 93.62C173.316 93.588 173.564 93.564 173.828 93.548C174.1 93.524 174.34 93.512 174.548 93.512H176.468V95H170.516ZM180.618 95.168C180.018 95.168 179.49 94.996 179.034 94.652C178.586 94.3 178.234 93.78 177.978 93.092C177.73 92.396 177.606 91.536 177.606 90.512C177.606 89.496 177.73 88.652 177.978 87.98C178.234 87.3 178.586 86.792 179.034 86.456C179.49 86.12 180.018 85.952 180.618 85.952C181.226 85.952 181.754 86.124 182.202 86.468C182.65 86.804 182.998 87.308 183.246 87.98C183.502 88.652 183.63 89.496 183.63 90.512C183.63 91.536 183.502 92.396 183.246 93.092C182.998 93.78 182.65 94.3 182.202 94.652C181.754 94.996 181.226 95.168 180.618 95.168ZM180.618 93.788C180.882 93.788 181.114 93.688 181.314 93.488C181.514 93.288 181.67 92.952 181.782 92.48C181.894 92 181.95 91.344 181.95 90.512C181.95 89.688 181.894 89.044 181.782 88.58C181.67 88.108 181.514 87.78 181.314 87.596C181.114 87.404 180.882 87.308 180.618 87.308C180.37 87.308 180.142 87.404 179.934 87.596C179.734 87.78 179.574 88.108 179.454 88.58C179.334 89.044 179.274 89.688 179.274 90.512C179.274 91.344 179.334 92 179.454 92.48C179.574 92.952 179.734 93.288 179.934 93.488C180.142 93.688 180.37 93.788 180.618 93.788Z" fill="#BF8B2E"/>
<path d="M261.276 95.168C260.812 95.168 260.396 95.112 260.028 95C259.66 94.896 259.332 94.752 259.044 94.568C258.764 94.376 258.52 94.164 258.312 93.932L259.14 92.816C259.412 93.064 259.708 93.28 260.028 93.464C260.356 93.64 260.72 93.728 261.12 93.728C261.424 93.728 261.688 93.68 261.912 93.584C262.144 93.488 262.32 93.348 262.44 93.164C262.568 92.98 262.632 92.756 262.632 92.492C262.632 92.196 262.56 91.944 262.416 91.736C262.28 91.52 262.036 91.356 261.684 91.244C261.332 91.132 260.836 91.076 260.196 91.076V89.804C260.74 89.804 261.168 89.748 261.48 89.636C261.792 89.516 262.012 89.356 262.14 89.156C262.276 88.948 262.344 88.712 262.344 88.448C262.344 88.104 262.24 87.836 262.032 87.644C261.824 87.444 261.532 87.344 261.156 87.344C260.844 87.344 260.552 87.416 260.28 87.56C260.016 87.696 259.752 87.884 259.488 88.124L258.576 87.032C258.968 86.704 259.38 86.444 259.812 86.252C260.244 86.052 260.72 85.952 261.24 85.952C261.808 85.952 262.308 86.044 262.74 86.228C263.18 86.412 263.52 86.68 263.76 87.032C264 87.384 264.12 87.812 264.12 88.316C264.12 88.796 263.992 89.208 263.736 89.552C263.48 89.896 263.116 90.16 262.644 90.344V90.404C262.972 90.492 263.268 90.636 263.532 90.836C263.804 91.028 264.016 91.272 264.168 91.568C264.328 91.864 264.408 92.208 264.408 92.6C264.408 93.136 264.264 93.596 263.976 93.98C263.696 94.364 263.316 94.66 262.836 94.868C262.364 95.068 261.844 95.168 261.276 95.168ZM268.618 95.168C268.018 95.168 267.49 94.996 267.034 94.652C266.586 94.3 266.234 93.78 265.978 93.092C265.73 92.396 265.606 91.536 265.606 90.512C265.606 89.496 265.73 88.652 265.978 87.98C266.234 87.3 266.586 86.792 267.034 86.456C267.49 86.12 268.018 85.952 268.618 85.952C269.226 85.952 269.754 86.124 270.202 86.468C270.65 86.804 270.998 87.308 271.246 87.98C271.502 88.652 271.63 89.496 271.63 90.512C271.63 91.536 271.502 92.396 271.246 93.092C270.998 93.78 270.65 94.3 270.202 94.652C269.754 94.996 269.226 95.168 268.618 95.168ZM268.618 93.788C268.882 93.788 269.114 93.688 269.314 93.488C269.514 93.288 269.67 92.952 269.782 92.48C269.894 92 269.95 91.344 269.95 90.512C269.95 89.688 269.894 89.044 269.782 88.58C269.67 88.108 269.514 87.78 269.314 87.596C269.114 87.404 268.882 87.308 268.618 87.308C268.37 87.308 268.142 87.404 267.934 87.596C267.734 87.78 267.574 88.108 267.454 88.58C267.334 89.044 267.274 89.688 267.274 90.512C267.274 91.344 267.334 92 267.454 92.48C267.574 92.952 267.734 93.288 267.934 93.488C268.142 93.688 268.37 93.788 268.618 93.788Z" fill="#BF8B2E"/>
<path d="M350.044 95V89.54C350.044 89.284 350.052 88.98 350.068 88.628C350.084 88.268 350.1 87.956 350.116 87.692H350.056C349.952 87.932 349.84 88.172 349.72 88.412C349.6 88.652 349.476 88.896 349.348 89.144L347.968 91.352H352.744V92.696H346.252V91.496L349.564 86.108H351.688V95H350.044ZM356.618 95.168C356.018 95.168 355.49 94.996 355.034 94.652C354.586 94.3 354.234 93.78 353.978 93.092C353.73 92.396 353.606 91.536 353.606 90.512C353.606 89.496 353.73 88.652 353.978 87.98C354.234 87.3 354.586 86.792 355.034 86.456C355.49 86.12 356.018 85.952 356.618 85.952C357.226 85.952 357.754 86.124 358.202 86.468C358.65 86.804 358.998 87.308 359.246 87.98C359.502 88.652 359.63 89.496 359.63 90.512C359.63 91.536 359.502 92.396 359.246 93.092C358.998 93.78 358.65 94.3 358.202 94.652C357.754 94.996 357.226 95.168 356.618 95.168ZM356.618 93.788C356.882 93.788 357.114 93.688 357.314 93.488C357.514 93.288 357.67 92.952 357.782 92.48C357.894 92 357.95 91.344 357.95 90.512C357.95 89.688 357.894 89.044 357.782 88.58C357.67 88.108 357.514 87.78 357.314 87.596C357.114 87.404 356.882 87.308 356.618 87.308C356.37 87.308 356.142 87.404 355.934 87.596C355.734 87.78 355.574 88.108 355.454 88.58C355.334 89.044 355.274 89.688 355.274 90.512C355.274 91.344 355.334 92 355.454 92.48C355.574 92.952 355.734 93.288 355.934 93.488C356.142 93.688 356.37 93.788 356.618 93.788Z" fill="#BF8B2E"/>
</svg>
