<svg width="376" height="98" viewBox="0 0 376 98" fill="none" xmlns="http://www.w3.org/2000/svg">
<path d="M45.8149 14.3564C45.8149 14.3564 45.0791 15.3348 45.2899 16.2892C45.5047 17.2437 46.5944 17.8124 46.5944 17.8124C46.5944 17.8124 47.3342 16.834 47.1154 15.8796C46.9007 14.9251 45.8109 14.3564 45.8109 14.3564" fill="#00689D"/>
<path d="M44.6142 19.9521C44.6142 19.9521 45.3539 18.9738 45.1352 18.0153C44.9204 17.0609 43.8307 16.4922 43.8307 16.4922C43.8307 16.4922 43.0909 17.4705 43.3057 18.425C43.5205 19.3794 44.6102 19.9481 44.6102 19.9481" fill="#00689D"/>
<path d="M47.6445 18.9021C47.6445 18.9021 48.424 19.6896 49.3109 19.61C50.1978 19.5305 50.8541 18.6198 50.8541 18.6198C50.8541 18.6198 50.0746 17.8324 49.1877 17.9119C48.3008 17.9914 47.6445 18.9021 47.6445 18.9021Z" fill="#00689D"/>
<path d="M48.922 14.7065C48.2021 15.4383 48.3015 16.7347 48.3015 16.7347C48.3015 16.7347 49.5742 16.8461 50.2981 16.1144C51.0179 15.3826 50.9185 14.0861 50.9185 14.0861C50.9185 14.0861 49.6458 13.9748 48.922 14.7065Z" fill="#00689D"/>
<path d="M47.3311 21.8131C48.2141 21.9165 49.0453 21.1569 49.0453 21.1569C49.0453 21.1569 48.4447 20.2303 47.5618 20.123C46.6789 20.0196 45.8477 20.7791 45.8477 20.7791C45.8477 20.7791 46.4482 21.7058 47.3351 21.8092" fill="#00689D"/>
<path d="M48.1178 37.1719H41.5118C40.9947 37.1719 40.5771 37.5894 40.5771 38.1064C40.5771 38.6234 40.9947 39.041 41.5118 39.041H48.1178C48.6348 39.041 49.0524 38.6234 49.0524 38.1064C49.0524 37.5894 48.6348 37.1719 48.1178 37.1719Z" fill="#00689D"/>
<path d="M48.1178 47.4717H41.5118C40.9947 47.4717 40.5771 47.8893 40.5771 48.4062C40.5771 48.9232 40.9947 49.3408 41.5118 49.3408H48.1178C48.6348 49.3408 49.0524 48.9232 49.0524 48.4062C49.0524 47.8893 48.6348 47.4717 48.1178 47.4717Z" fill="#00689D"/>
<path d="M18.4046 34.9015C18.2495 34.8538 18.0944 34.8101 17.9473 34.7822C17.9473 34.7822 18.1183 34.8339 18.4046 34.9015Z" fill="#00689D"/>
<path d="M47.8757 39.6929H41.7549C41.4606 39.6929 41.222 39.9315 41.222 40.2258V42.079L37.225 42.5165L31.3866 42.3812V38.814C32.1621 38.7146 32.9376 38.5595 33.7092 38.3407C39.3289 36.754 40.5538 32.1089 40.4345 28.8916C40.3112 25.6187 41.3612 24.3461 42.8646 23.7814C43.2941 23.6183 43.7236 23.5189 44.1134 23.4513C44.1293 24.2546 44.2923 25.1892 44.6543 26.3027C44.7895 26.2947 44.9207 26.2828 45.052 26.2709C44.6702 25.1295 44.5111 24.1949 44.5031 23.3956C45.2826 23.3041 45.8355 23.3558 45.8355 23.3558C45.8355 23.3558 45.3105 23.0735 44.5668 22.4531C44.8173 20.9021 45.744 19.9516 46.6945 18.9773C47.2195 18.4404 47.7564 17.8876 48.186 17.2274L47.8559 17.0127C47.4542 17.641 46.9252 18.1779 46.4161 18.6989C45.4895 19.6494 44.5509 20.6197 44.2327 22.1588C43.9304 21.8884 43.6043 21.5662 43.2702 21.1884C41.8822 19.6335 40.1004 20.7748 37.5551 23.1451C35.0097 25.5113 31.8081 25.5948 28.6821 22.3934C24.5578 18.17 20.9585 18.1938 18.4927 18.4364C20.179 19.1562 20.7716 20.7311 21.6267 24.7398C22.5215 28.9473 24.7805 30.8483 27.8708 31.1108C26.1526 31.7192 26.0691 32.6856 23.7664 34.2764C21.9687 35.5171 19.4392 35.1234 18.4131 34.8928C20.2943 35.4813 22.5255 37.4539 24.518 38.1419C25.6794 38.5396 26.9043 38.7901 28.1571 38.8895V42.3017L17.6973 42.0631V44.4452L37.2329 43.9998L41.23 44.4413V46.2945C41.23 46.5888 41.4686 46.8274 41.7629 46.8274H47.8837C48.178 46.8274 48.4166 46.5888 48.4166 46.2945V40.2218C48.4166 39.9275 48.178 39.6889 47.8837 39.6889L47.8757 39.6929ZM29.1116 38.9452C29.5451 38.9532 29.9826 38.9412 30.4201 38.9094V42.3614L29.1116 42.3295V38.9412V38.9452Z" fill="#00689D"/>
<path d="M17.1164 44.0601C17.1164 44.5612 16.7664 44.9708 16.3329 44.9708H15.8636C15.434 44.9708 15.0801 44.5651 15.0801 44.0601V42.4136C15.0801 41.9125 15.4301 41.5029 15.8636 41.5029H16.3329C16.7664 41.5029 17.1164 41.9086 17.1164 42.4136V44.0601Z" fill="#00689D"/>
<path d="M88.488 42.336C86.112 42.336 83.736 41.4 82.008 39.744L84.048 37.296C85.32 38.472 87 39.264 88.56 39.264C90.408 39.264 91.392 38.472 91.392 37.224C91.392 35.904 90.312 35.496 88.728 34.824L86.352 33.816C84.552 33.072 82.752 31.632 82.752 29.04C82.752 26.136 85.296 23.904 88.896 23.904C90.96 23.904 93.024 24.72 94.464 26.184L92.664 28.416C91.536 27.48 90.36 26.952 88.896 26.952C87.336 26.952 86.352 27.648 86.352 28.824C86.352 30.096 87.6 30.552 89.112 31.152L91.44 32.136C93.6 33.024 95.016 34.392 95.016 36.96C95.016 39.864 92.592 42.336 88.488 42.336ZM98.1606 42V24.216H103.033C108.457 24.216 111.817 27.048 111.817 33.048C111.817 39.024 108.457 42 103.225 42H98.1606ZM101.713 39.144H102.817C106.129 39.144 108.193 37.368 108.193 33.048C108.193 28.704 106.129 27.072 102.817 27.072H101.713V39.144ZM122.925 42.336C118.101 42.336 114.405 39.12 114.405 33.192C114.405 27.336 118.197 23.904 122.925 23.904C125.493 23.904 127.269 25.008 128.421 26.184L126.549 28.44C125.661 27.6 124.653 26.952 123.045 26.952C120.093 26.952 118.029 29.256 118.029 33.072C118.029 36.936 119.805 39.264 123.309 39.264C124.149 39.264 125.013 39.024 125.517 38.592V35.088H122.373V32.184H128.685V40.2C127.485 41.376 125.397 42.336 122.925 42.336ZM136.049 42.336C134.249 42.336 132.281 41.544 130.937 40.44L132.545 38.232C133.745 39.168 134.897 39.696 136.145 39.696C137.489 39.696 138.089 39.12 138.089 38.28C138.089 37.272 136.697 36.816 135.281 36.264C133.577 35.616 131.681 34.584 131.681 32.328C131.681 29.928 133.625 28.224 136.697 28.224C138.641 28.224 140.153 29.04 141.257 29.88L139.673 32.016C138.713 31.32 137.777 30.864 136.793 30.864C135.569 30.864 134.993 31.392 134.993 32.16C134.993 33.144 136.241 33.504 137.657 34.032C139.433 34.704 141.401 35.592 141.401 38.088C141.401 40.44 139.553 42.336 136.049 42.336ZM149.601 42V39.144H153.417V28.368H150.201V26.184C151.977 25.848 153.201 25.392 154.329 24.696H156.945V39.144H160.281V42H149.601ZM169.134 33.744C168.222 33.744 167.142 34.248 166.254 35.64C166.59 38.568 167.79 39.672 169.254 39.672C170.598 39.672 171.678 38.64 171.678 36.576C171.678 34.632 170.67 33.744 169.134 33.744ZM169.326 42.336C165.966 42.336 162.942 39.744 162.942 33.816C162.942 27.216 166.23 24.36 169.83 24.36C171.99 24.36 173.574 25.272 174.63 26.376L172.758 28.488C172.134 27.792 171.054 27.216 170.022 27.216C167.982 27.216 166.302 28.728 166.158 33.192C167.142 31.968 168.654 31.248 169.806 31.248C172.782 31.248 174.918 32.952 174.918 36.576C174.918 40.128 172.374 42.336 169.326 42.336Z" fill="#00689D"/>
<path d="M187.144 29.232H190.384V27.432H187.96C187.696 28.104 187.408 28.704 187.144 29.232ZM193.096 27.432V29.232H198.352V31.8H193.096V33.552H197.776V39.672C197.776 40.776 197.608 41.448 196.912 41.856C196.24 42.264 195.328 42.312 194.128 42.288C194.056 41.568 193.744 40.56 193.432 39.864C194.104 39.912 194.704 39.912 194.92 39.888C195.136 39.888 195.208 39.84 195.208 39.6V36.096H193.096V44.064H190.384V36.096H188.416V42.168H185.872V33.552H190.384V31.8H184.936V29.232H186.736C186.112 28.92 185.128 28.512 184.576 28.32C185.56 26.808 186.352 24.384 186.784 22.104L189.4 22.656C189.256 23.4 189.064 24.12 188.848 24.84H190.384V21.816H193.096V24.84H197.392V27.432H193.096ZM202.096 23.64V37.152H199.432V23.64H202.096ZM203.728 22.08H206.464V40.704C206.464 42.24 206.152 43.008 205.288 43.488C204.4 43.944 203.008 44.04 201.16 44.04C201.064 43.248 200.68 42 200.32 41.16C201.544 41.208 202.792 41.208 203.2 41.208C203.584 41.184 203.728 41.088 203.728 40.68V22.08ZM213.568 26.4V30.096C213.568 34.128 213.256 40.128 211.264 44.04C210.688 43.632 209.392 43.032 208.648 42.816C210.568 39.12 210.736 33.768 210.736 30.12V23.736H219.688C219.52 23.184 219.328 22.608 219.112 22.152L222.016 21.504C222.352 22.176 222.688 22.992 222.928 23.736H230.848V26.4H213.568ZM224.344 30.768H219.976V32.352H224.344V30.768ZM227.176 34.512H217.288V30.768H214.048V28.536H217.288V26.952H219.976V28.536H224.344V26.952H227.176V28.536H230.632V30.768H227.176V34.512ZM225.136 37.704H218.8C219.64 38.472 220.72 39.12 221.968 39.648C223.192 39.12 224.248 38.496 225.136 37.704ZM227.656 35.376L229.432 36.288C228.424 38.16 226.984 39.6 225.208 40.728C227.032 41.16 229.048 41.424 231.232 41.592C230.68 42.192 229.96 43.344 229.6 44.064C226.672 43.776 224.08 43.224 221.824 42.312C219.544 43.128 216.952 43.632 214.24 43.92C214.024 43.248 213.496 42.168 213.064 41.544C215.056 41.376 216.976 41.136 218.728 40.704C217.624 39.96 216.64 39.072 215.824 38.088L216.784 37.704H214.24V35.472H227.152L227.656 35.376ZM236.416 39.096H240.232V34.392H236.416V39.096ZM240.232 31.92V28.032H236.416V31.92H240.232ZM247.864 25.368H254.608C254.608 25.368 254.608 26.328 254.584 26.664C254.272 37.392 254.008 41.208 253.024 42.48C252.352 43.368 251.68 43.632 250.72 43.8C249.808 43.92 248.368 43.896 246.952 43.848C246.904 43.056 246.52 41.856 246.016 41.064C247.552 41.208 248.968 41.208 249.592 41.208C250.072 41.208 250.336 41.112 250.648 40.8C251.344 40.032 251.656 36.432 251.92 27.96H246.784C246.16 29.4 245.416 30.72 244.672 31.752C244.288 31.392 243.472 30.84 242.824 30.408V41.616H236.416V43.368H233.824V25.536H236.536C236.848 24.336 237.136 22.8 237.232 21.672L240.352 22.104C239.944 23.304 239.512 24.504 239.104 25.536H242.824V29.424C244.216 27.408 245.368 24.504 246.064 21.696L248.8 22.32C248.536 23.352 248.224 24.36 247.864 25.368ZM250.624 36.312L248.2 37.8C247.528 36.36 246.04 34.008 244.864 32.256L247.096 30.984C248.296 32.64 249.88 34.92 250.624 36.312ZM270.256 40.392H278.92V43.2H257.104V40.392H260.056V29.736H263.056V40.392H267.208V26.016H257.944V23.232H278.272V26.016H270.256V31.296H277.024V34.08H270.256V40.392ZM298.792 37.44H296.296C296.512 37.992 296.752 38.52 297.04 38.976C297.712 38.52 298.312 37.992 298.792 37.44ZM288.736 35.352H292.888C292.696 34.368 292.576 33.312 292.504 32.232H295.24C295.288 33.336 295.432 34.368 295.648 35.352H299.608C298.672 34.68 297.304 33.912 296.104 33.48L297.592 31.92H290.488L292.048 33.528C291.064 33.744 289.936 33.936 288.736 34.104V35.352ZM299.224 37.44L301.312 38.16C300.568 39.144 299.584 40.008 298.504 40.776C299.08 41.232 299.68 41.472 300.304 41.472C300.88 41.472 301.024 41.04 301.144 39.696C301.696 40.2 302.584 40.608 303.232 40.8C302.848 43.488 302.056 44.064 300.16 44.064C298.576 44.064 297.208 43.392 296.056 42.216C294.52 42.984 292.84 43.608 291.184 44.064C290.92 43.488 290.248 42.36 289.792 41.808C291.448 41.448 293.128 40.944 294.616 40.296C294.136 39.456 293.728 38.496 293.416 37.44H288.736V38.352L292.336 38.16L292.312 40.08L288.736 40.368V41.592C288.736 42.864 288.472 43.416 287.584 43.728C286.648 44.064 285.424 44.088 283.648 44.088C283.504 43.416 283.168 42.528 282.832 41.904C283.864 41.976 285.184 41.952 285.544 41.928C285.904 41.928 286.024 41.832 286.024 41.52V40.56C284.344 40.704 282.76 40.8 281.416 40.896L281.2 38.712C282.52 38.664 284.2 38.592 286.024 38.496V37.44H281.272V35.352H286.024V34.392C284.752 34.512 283.456 34.584 282.28 34.608C282.184 34.128 281.92 33.384 281.68 32.904C284.608 32.736 288.016 32.4 290.128 31.92H281.32V29.76H290.488V28.872H283.672V26.904H290.488V26.04H282.4V23.928H286.648C286.384 23.424 286.072 22.92 285.736 22.488L288.232 21.696C288.832 22.32 289.432 23.256 289.696 23.928H294.52C294.928 23.208 295.36 22.296 295.576 21.624L298.744 22.224C298.312 22.848 297.88 23.448 297.496 23.928H301.648V26.04H293.416V26.904H300.376V28.872H293.416V29.76H302.704V31.92H297.952C299.272 32.424 300.88 33.264 301.744 33.936L300.472 35.352H302.824V37.44H299.224ZM316.744 33.744V29.856H313.12V21.888H315.544V23.52H319.312V25.872H315.544V27.624H318.208V27.648H319.12V33.744C319.12 34.728 318.928 35.136 318.28 35.448C317.656 35.736 316.72 35.736 315.544 35.736C315.448 35.184 315.16 34.488 314.92 33.984C315.544 34.032 316.24 34.032 316.456 34.008C316.672 34.008 316.744 33.96 316.744 33.744ZM313.48 30.432L315.592 30.792C315.424 32.376 315.04 33.936 314.392 34.944C314.008 34.632 313.072 34.08 312.568 33.816C313.168 32.928 313.36 31.704 313.48 30.432ZM327.04 35.952V38.592H320.272C322.528 39.648 324.928 40.896 326.392 41.808L324.496 43.992C322.96 42.936 320.32 41.4 317.944 40.248L319.216 38.592H312.088L314.104 40.248C312.04 41.616 309.064 43.104 306.712 44.064C306.328 43.464 305.632 42.528 305.104 41.928C307.216 41.136 309.976 39.768 311.584 38.592H305.032V35.952H307.192L306.784 23.568C308.296 23.088 310.144 22.368 311.368 21.792L312.592 24.12C311.584 24.48 310.456 24.768 309.376 25.056L309.448 27.216H312.184V29.544H309.52L309.592 31.608H312.256V33.936H309.664L309.736 35.952H322.264C322.312 35.328 322.336 34.704 322.384 34.008H319.96V31.656H322.48C322.504 30.984 322.528 30.288 322.552 29.592H320.128V27.24H322.624C322.624 26.544 322.624 25.872 322.648 25.176H319.888V22.728H325.264C325.264 27 325.144 32.352 324.952 35.952H327.04ZM336.28 31.44V31.848C337.24 32.808 339.4 35.328 339.928 35.976L338.296 38.352C337.84 37.536 337.072 36.336 336.28 35.208V44.064H333.4V35.52C332.44 37.776 331.312 39.84 330.04 41.256C329.776 40.416 329.08 39.288 328.6 38.568C330.232 36.84 331.768 34.08 332.704 31.44H329.128V28.8H333.4V25.68C332.224 25.872 331.072 26.04 329.968 26.184C329.848 25.536 329.512 24.576 329.2 23.952C332.32 23.52 335.824 22.752 338.008 21.888L339.856 24.12C338.8 24.504 337.552 24.84 336.28 25.128V28.8H339.76V31.44H336.28ZM343.192 38.304H347.032V26.664H343.192V38.304ZM340.384 23.928H349.984V42.768H347.032V41.04H343.192V42.936H340.384V23.928ZM374.92 33.264V36.144H365.488V44.088H362.512V36.144H353.176V33.264H362.512V25.992H354.424V23.16H373.528V25.992H365.488V33.264H374.92ZM355.888 27.528L358.504 26.76C359.296 28.296 360.16 30.312 360.424 31.656L357.64 32.52C357.4 31.224 356.656 29.136 355.888 27.528ZM369.904 32.472L367.408 31.752C368.176 30.36 369.04 28.248 369.496 26.688L372.544 27.456C371.68 29.304 370.72 31.248 369.904 32.472Z" fill="#00689D"/>
<rect x="1" y="64" width="18" height="18" fill="#00689D" fill-opacity="0.3" stroke="black"/>
<rect x="19" y="64" width="18" height="18" fill="#00689D" fill-opacity="0.3" stroke="black"/>
<rect x="37" y="64" width="18" height="18" fill="#00689D" fill-opacity="0.3" stroke="black"/>
<rect x="55" y="64" width="18" height="18" fill="#00689D" fill-opacity="0.3" stroke="black"/>
<rect x="73" y="64" width="18" height="18" fill="#00689D" fill-opacity="0.3" stroke="black"/>
<rect x="91" y="64" width="18" height="18" fill="#00689D" fill-opacity="0.3" stroke="black"/>
<rect x="109" y="64" width="18" height="18" fill="#00689D" fill-opacity="0.3" stroke="black"/>
<rect x="127" y="64" width="18" height="18" fill="#00689D" fill-opacity="0.3" stroke="black"/>
<rect x="145" y="64" width="18" height="18" fill="#00689D" fill-opacity="0.3" stroke="black"/>
<rect x="163" y="64" width="18" height="18" fill="#00689D" fill-opacity="0.3" stroke="black"/>
<rect x="181" y="64" width="18" height="18" fill="#00689D" fill-opacity="0.3" stroke="black"/>
<rect x="199" y="64" width="18" height="18" fill="#00689D" fill-opacity="0.3" stroke="black"/>
<rect x="217" y="64" width="18" height="18" fill="#00689D" fill-opacity="0.3" stroke="black"/>
<rect x="235" y="64" width="18" height="18" fill="#00689D" fill-opacity="0.3" stroke="black"/>
<rect x="253" y="64" width="18" height="18" fill="#00689D" fill-opacity="0.3" stroke="black"/>
<rect x="271" y="64" width="18" height="18" fill="#00689D" fill-opacity="0.3" stroke="black"/>
<rect x="289" y="64" width="18" height="18" fill="#00689D" fill-opacity="0.3" stroke="black"/>
<rect x="307" y="64" width="18" height="18" fill="#00689D" fill-opacity="0.3" stroke="black"/>
<rect x="325" y="64" width="18" height="18" fill="#00689D" fill-opacity="0.3" stroke="black"/>
<rect x="343" y="64" width="18" height="18" fill="#00689D" fill-opacity="0.3" stroke="black"/>
<path d="M4.54 95.168C3.94 95.168 3.412 94.996 2.956 94.652C2.508 94.3 2.156 93.78 1.9 93.092C1.652 92.396 1.528 91.536 1.528 90.512C1.528 89.496 1.652 88.652 1.9 87.98C2.156 87.3 2.508 86.792 2.956 86.456C3.412 86.12 3.94 85.952 4.54 85.952C5.148 85.952 5.676 86.124 6.124 86.468C6.572 86.804 6.92 87.308 7.168 87.98C7.424 88.652 7.552 89.496 7.552 90.512C7.552 91.536 7.424 92.396 7.168 93.092C6.92 93.78 6.572 94.3 6.124 94.652C5.676 94.996 5.148 95.168 4.54 95.168ZM4.54 93.788C4.804 93.788 5.036 93.688 5.236 93.488C5.436 93.288 5.592 92.952 5.704 92.48C5.816 92 5.872 91.344 5.872 90.512C5.872 89.688 5.816 89.044 5.704 88.58C5.592 88.108 5.436 87.78 5.236 87.596C5.036 87.404 4.804 87.308 4.54 87.308C4.292 87.308 4.064 87.404 3.856 87.596C3.656 87.78 3.496 88.108 3.376 88.58C3.256 89.044 3.196 89.688 3.196 90.512C3.196 91.344 3.256 92 3.376 92.48C3.496 92.952 3.656 93.288 3.856 93.488C4.064 93.688 4.292 93.788 4.54 93.788Z" fill="#00689D"/>
<path d="M82.984 95V93.56H84.904V87.956H83.284V86.852C83.732 86.772 84.116 86.676 84.436 86.564C84.764 86.444 85.068 86.292 85.348 86.108H86.656V93.56H88.324V95H82.984ZM92.6181 95.168C92.0181 95.168 91.4901 94.996 91.0341 94.652C90.5861 94.3 90.2341 93.78 89.9781 93.092C89.7301 92.396 89.6061 91.536 89.6061 90.512C89.6061 89.496 89.7301 88.652 89.9781 87.98C90.2341 87.3 90.5861 86.792 91.0341 86.456C91.4901 86.12 92.0181 85.952 92.6181 85.952C93.2261 85.952 93.7541 86.124 94.2021 86.468C94.6501 86.804 94.9981 87.308 95.2461 87.98C95.5021 88.652 95.6301 89.496 95.6301 90.512C95.6301 91.536 95.5021 92.396 95.2461 93.092C94.9981 93.78 94.6501 94.3 94.2021 94.652C93.7541 94.996 93.2261 95.168 92.6181 95.168ZM92.6181 93.788C92.8821 93.788 93.1141 93.688 93.3141 93.488C93.5141 93.288 93.6701 92.952 93.7821 92.48C93.8941 92 93.9501 91.344 93.9501 90.512C93.9501 89.688 93.8941 89.044 93.7821 88.58C93.6701 88.108 93.5141 87.78 93.3141 87.596C93.1141 87.404 92.8821 87.308 92.6181 87.308C92.3701 87.308 92.1421 87.404 91.9341 87.596C91.7341 87.78 91.5741 88.108 91.4541 88.58C91.3341 89.044 91.2741 89.688 91.2741 90.512C91.2741 91.344 91.3341 92 91.4541 92.48C91.5741 92.952 91.7341 93.288 91.9341 93.488C92.1421 93.688 92.3701 93.788 92.6181 93.788Z" fill="#00689D"/>
<path d="M170.516 95V93.98C171.324 93.26 172.012 92.592 172.58 91.976C173.156 91.36 173.596 90.788 173.9 90.26C174.204 89.724 174.356 89.228 174.356 88.772C174.356 88.484 174.304 88.232 174.2 88.016C174.096 87.8 173.944 87.636 173.744 87.524C173.552 87.404 173.312 87.344 173.024 87.344C172.704 87.344 172.408 87.436 172.136 87.62C171.872 87.796 171.628 88.008 171.404 88.256L170.42 87.308C170.836 86.86 171.26 86.524 171.692 86.3C172.132 86.068 172.652 85.952 173.252 85.952C173.812 85.952 174.3 86.068 174.716 86.3C175.14 86.524 175.468 86.84 175.7 87.248C175.932 87.656 176.048 88.136 176.048 88.688C176.048 89.224 175.912 89.772 175.64 90.332C175.376 90.884 175.02 91.436 174.572 91.988C174.124 92.54 173.628 93.084 173.084 93.62C173.316 93.588 173.564 93.564 173.828 93.548C174.1 93.524 174.34 93.512 174.548 93.512H176.468V95H170.516ZM180.618 95.168C180.018 95.168 179.49 94.996 179.034 94.652C178.586 94.3 178.234 93.78 177.978 93.092C177.73 92.396 177.606 91.536 177.606 90.512C177.606 89.496 177.73 88.652 177.978 87.98C178.234 87.3 178.586 86.792 179.034 86.456C179.49 86.12 180.018 85.952 180.618 85.952C181.226 85.952 181.754 86.124 182.202 86.468C182.65 86.804 182.998 87.308 183.246 87.98C183.502 88.652 183.63 89.496 183.63 90.512C183.63 91.536 183.502 92.396 183.246 93.092C182.998 93.78 182.65 94.3 182.202 94.652C181.754 94.996 181.226 95.168 180.618 95.168ZM180.618 93.788C180.882 93.788 181.114 93.688 181.314 93.488C181.514 93.288 181.67 92.952 181.782 92.48C181.894 92 181.95 91.344 181.95 90.512C181.95 89.688 181.894 89.044 181.782 88.58C181.67 88.108 181.514 87.78 181.314 87.596C181.114 87.404 180.882 87.308 180.618 87.308C180.37 87.308 180.142 87.404 179.934 87.596C179.734 87.78 179.574 88.108 179.454 88.58C179.334 89.044 179.274 89.688 179.274 90.512C179.274 91.344 179.334 92 179.454 92.48C179.574 92.952 179.734 93.288 179.934 93.488C180.142 93.688 180.37 93.788 180.618 93.788Z" fill="#00689D"/>
<path d="M261.276 95.168C260.812 95.168 260.396 95.112 260.028 95C259.66 94.896 259.332 94.752 259.044 94.568C258.764 94.376 258.52 94.164 258.312 93.932L259.14 92.816C259.412 93.064 259.708 93.28 260.028 93.464C260.356 93.64 260.72 93.728 261.12 93.728C261.424 93.728 261.688 93.68 261.912 93.584C262.144 93.488 262.32 93.348 262.44 93.164C262.568 92.98 262.632 92.756 262.632 92.492C262.632 92.196 262.56 91.944 262.416 91.736C262.28 91.52 262.036 91.356 261.684 91.244C261.332 91.132 260.836 91.076 260.196 91.076V89.804C260.74 89.804 261.168 89.748 261.48 89.636C261.792 89.516 262.012 89.356 262.14 89.156C262.276 88.948 262.344 88.712 262.344 88.448C262.344 88.104 262.24 87.836 262.032 87.644C261.824 87.444 261.532 87.344 261.156 87.344C260.844 87.344 260.552 87.416 260.28 87.56C260.016 87.696 259.752 87.884 259.488 88.124L258.576 87.032C258.968 86.704 259.38 86.444 259.812 86.252C260.244 86.052 260.72 85.952 261.24 85.952C261.808 85.952 262.308 86.044 262.74 86.228C263.18 86.412 263.52 86.68 263.76 87.032C264 87.384 264.12 87.812 264.12 88.316C264.12 88.796 263.992 89.208 263.736 89.552C263.48 89.896 263.116 90.16 262.644 90.344V90.404C262.972 90.492 263.268 90.636 263.532 90.836C263.804 91.028 264.016 91.272 264.168 91.568C264.328 91.864 264.408 92.208 264.408 92.6C264.408 93.136 264.264 93.596 263.976 93.98C263.696 94.364 263.316 94.66 262.836 94.868C262.364 95.068 261.844 95.168 261.276 95.168ZM268.618 95.168C268.018 95.168 267.49 94.996 267.034 94.652C266.586 94.3 266.234 93.78 265.978 93.092C265.73 92.396 265.606 91.536 265.606 90.512C265.606 89.496 265.73 88.652 265.978 87.98C266.234 87.3 266.586 86.792 267.034 86.456C267.49 86.12 268.018 85.952 268.618 85.952C269.226 85.952 269.754 86.124 270.202 86.468C270.65 86.804 270.998 87.308 271.246 87.98C271.502 88.652 271.63 89.496 271.63 90.512C271.63 91.536 271.502 92.396 271.246 93.092C270.998 93.78 270.65 94.3 270.202 94.652C269.754 94.996 269.226 95.168 268.618 95.168ZM268.618 93.788C268.882 93.788 269.114 93.688 269.314 93.488C269.514 93.288 269.67 92.952 269.782 92.48C269.894 92 269.95 91.344 269.95 90.512C269.95 89.688 269.894 89.044 269.782 88.58C269.67 88.108 269.514 87.78 269.314 87.596C269.114 87.404 268.882 87.308 268.618 87.308C268.37 87.308 268.142 87.404 267.934 87.596C267.734 87.78 267.574 88.108 267.454 88.58C267.334 89.044 267.274 89.688 267.274 90.512C267.274 91.344 267.334 92 267.454 92.48C267.574 92.952 267.734 93.288 267.934 93.488C268.142 93.688 268.37 93.788 268.618 93.788Z" fill="#00689D"/>
<path d="M350.044 95V89.54C350.044 89.284 350.052 88.98 350.068 88.628C350.084 88.268 350.1 87.956 350.116 87.692H350.056C349.952 87.932 349.84 88.172 349.72 88.412C349.6 88.652 349.476 88.896 349.348 89.144L347.968 91.352H352.744V92.696H346.252V91.496L349.564 86.108H351.688V95H350.044ZM356.618 95.168C356.018 95.168 355.49 94.996 355.034 94.652C354.586 94.3 354.234 93.78 353.978 93.092C353.73 92.396 353.606 91.536 353.606 90.512C353.606 89.496 353.73 88.652 353.978 87.98C354.234 87.3 354.586 86.792 355.034 86.456C355.49 86.12 356.018 85.952 356.618 85.952C357.226 85.952 357.754 86.124 358.202 86.468C358.65 86.804 358.998 87.308 359.246 87.98C359.502 88.652 359.63 89.496 359.63 90.512C359.63 91.536 359.502 92.396 359.246 93.092C358.998 93.78 358.65 94.3 358.202 94.652C357.754 94.996 357.226 95.168 356.618 95.168ZM356.618 93.788C356.882 93.788 357.114 93.688 357.314 93.488C357.514 93.288 357.67 92.952 357.782 92.48C357.894 92 357.95 91.344 357.95 90.512C357.95 89.688 357.894 89.044 357.782 88.58C357.67 88.108 357.514 87.78 357.314 87.596C357.114 87.404 356.882 87.308 356.618 87.308C356.37 87.308 356.142 87.404 355.934 87.596C355.734 87.78 355.574 88.108 355.454 88.58C355.334 89.044 355.274 89.688 355.274 90.512C355.274 91.344 355.334 92 355.454 92.48C355.574 92.952 355.734 93.288 355.934 93.488C356.142 93.688 356.37 93.788 356.618 93.788Z" fill="#00689D"/>
</svg>
