<svg xmlns="http://www.w3.org/2000/svg" width="362" height="98" fill="none"><path fill="#0A97D9" d="M50.301 38.569c-.807-1.09-6.01-7.723-13.303-7.723-6.336 0-13.109 5.746-13.109 5.746s-2.545-5.21-7.751-5.71c-.032 0-.064-.009-.1-.009h-.032c-.107.008-.21.112-.198.207a.6.6 0 0 0 .083.191c.672 1.114 2.382 4.283 2.382 7.453s-1.722 6.355-2.386 7.465l-.044.071a.208.208 0 0 0 .16.318h.055s.036-.004.056-.008c5.222-.485 7.78-5.71 7.78-5.71s6.776 5.746 13.108 5.746c7.294 0 12.496-6.633 13.303-7.719q.034-.044.056-.076a.2.2 0 0 0 .016-.08.3.3 0 0 0-.016-.079q-.022-.034-.056-.075m-9.25.982a2.13 2.13 0 0 1-2.128-2.132c0-1.177.954-2.127 2.127-2.127 1.174 0 2.132.95 2.132 2.127a2.13 2.13 0 0 1-2.132 2.132M15.974 18.378s-.028-.008-.04-.008a.21.21 0 0 0-.21.21v1.452c0 .06.024.116.06.151 3.52 3.059 6.856.191 7.627-.564a.2.2 0 0 1 .056-.06.2.2 0 0 1 .259.016s.008.008.012.008c3.977 3.794 8.149.72 9.016 0l.083-.08a.2.2 0 0 1 .08-.016c.028 0 .06.004.083.016l.088.08c.867.72 5.039 3.794 9.016 0l.008-.008a.2.2 0 0 1 .258-.016c.024.016.04.036.06.06.772.755 4.1 3.623 7.624.564a.22.22 0 0 0 .06-.15V18.58c0-.12-.092-.211-.207-.211q-.022.001-.044.008-.047.028-.107.056c-1.082.54-4.443 1.833-7.489-1.05-.028-.028-.06-.052-.088-.084a.2.2 0 0 0-.087-.02c-.02 0-.044.008-.064.008a.25.25 0 0 0-.107.084c-.91.692-5.079 3.515-8.793.051l-.056-.051a.23.23 0 0 0-.151-.064.23.23 0 0 0-.147.064l-.06.051c-3.71 3.464-7.887.64-8.793-.051a.24.24 0 0 0-.104-.084c-.02 0-.044-.008-.067-.008a.2.2 0 0 0-.088.02 1 1 0 0 1-.087.084c-3.051 2.883-6.408 1.594-7.49 1.05q-.06-.028-.107-.056M23.412 24.9a.3.3 0 0 1 .055-.06c.036-.02.072-.04.116-.04.055 0 .107.024.143.06l.008.008c3.977 3.79 8.149.72 9.016 0l.083-.08a.3.3 0 0 1 .08-.011c.032 0 .06 0 .083.012l.084.08c.867.719 5.039 3.79 9.016 0l.008-.009a.2.2 0 0 1 .14-.06c.043 0 .083.016.115.04.023.016.04.036.06.06.77.76 4.1 3.627 7.623.565a.2.2 0 0 0 .064-.148v-1.455a.205.205 0 0 0-.207-.207c-.016 0-.028.004-.044.008-.031.016-.067.036-.107.052-1.082.545-4.442 1.83-7.489-1.05-.028-.028-.06-.056-.087-.084a.17.17 0 0 0-.088-.02.13.13 0 0 0-.064.016.17.17 0 0 0-.107.08c-.907.692-5.079 3.515-8.793.052l-.056-.056a.22.22 0 0 0-.151-.06.2.2 0 0 0-.147.06l-.056.056c-3.71 3.464-7.887.64-8.793-.052a.2.2 0 0 0-.104-.08.13.13 0 0 0-.067-.016.17.17 0 0 0-.088.02q-.043.042-.091.084c-3.05 2.88-6.408 1.595-7.49 1.05l-.107-.052c-.016 0-.028-.008-.04-.008a.21.21 0 0 0-.21.207v1.456c0 .06.024.11.06.147 3.52 3.062 6.856.195 7.627-.565M88.488 42.336a9.4 9.4 0 0 1-3.48-.672 9.1 9.1 0 0 1-3-1.92l2.04-2.448a7.8 7.8 0 0 0 2.136 1.44q1.224.528 2.376.528 1.392 0 2.112-.552t.72-1.488q0-.672-.36-1.056-.336-.408-.936-.72t-1.392-.624l-2.352-1.032a8.4 8.4 0 0 1-1.728-.96q-.816-.624-1.368-1.56-.528-.936-.528-2.232 0-1.464.792-2.616t2.184-1.824q1.392-.696 3.168-.696 1.584 0 3.048.6a7.5 7.5 0 0 1 2.544 1.704l-1.8 2.208a7 7 0 0 0-1.752-1.08q-.912-.384-2.04-.384-1.152 0-1.848.504-.672.48-.672 1.368 0 .624.384 1.032t1.008.72q.624.288 1.368.6l2.328.936a7.1 7.1 0 0 1 1.872 1.08q.816.648 1.248 1.56.456.912.456 2.208 0 1.44-.792 2.664-.768 1.224-2.232 1.968-1.44.744-3.504.744M98.161 42V24.216h4.872q2.736 0 4.68.96a6.72 6.72 0 0 1 3.024 2.904q1.08 1.944 1.08 4.944t-1.056 4.992-2.976 3q-1.92.984-4.56.984zm3.552-2.88h1.08q1.68 0 2.88-.6 1.224-.624 1.872-1.968.648-1.368.648-3.528t-.648-3.456q-.648-1.32-1.872-1.896-1.2-.6-2.88-.6h-1.08zm21.212 3.216q-2.4 0-4.344-1.056-1.92-1.056-3.048-3.096t-1.128-4.992q0-2.208.648-3.912.672-1.728 1.848-2.928a7.95 7.95 0 0 1 2.712-1.824 8.7 8.7 0 0 1 3.312-.624q1.92 0 3.264.72 1.368.696 2.232 1.56l-1.896 2.256a7 7 0 0 0-1.488-1.056q-.792-.432-1.992-.432-1.488 0-2.616.744-1.128.72-1.752 2.088t-.624 3.288q0 1.944.576 3.336.6 1.368 1.776 2.112t2.904.744q.648 0 1.248-.168.6-.192.96-.504v-3.504h-3.144v-2.904h6.336V40.2q-.912.888-2.424 1.512t-3.36.624M137.718 42v-2.88h3.84V28.392h-3.24v-2.208q1.344-.264 2.304-.624a10.6 10.6 0 0 0 1.824-.864h2.616V39.12h3.336V42zm20.276 0V31.56q0-.792.048-1.872t.096-1.872h-.12a28 28 0 0 1-.672 1.392q-.36.696-.744 1.416l-2.76 4.368h9.552v2.712H150.41V35.28l6.624-10.584h4.248V42zM180.632 31.152l1.92.816c-1.152 4.968-3.648 8.688-6.576 10.656-.48-.6-1.608-1.704-2.304-2.136 2.256-1.344 4.152-3.696 5.256-6.528h-4.656v-2.688h5.856zm12.312-2.76 2.616 1.944c-1.8 1.632-4.008 3.432-5.832 4.656 1.68 2.304 3.864 4.08 6.672 5.184-.672.552-1.56 1.728-1.992 2.496-3.48-1.56-5.952-4.128-7.752-7.416v5.496c0 1.56-.312 2.328-1.344 2.808-.984.456-2.448.48-4.464.48-.12-.816-.576-2.088-.96-2.856 1.2.072 2.688.072 3.12.048s.576-.144.576-.528V29.256h-6V26.52h8.904c-2.04-.912-4.824-1.848-7.032-2.424l1.416-2.328c2.784.6 6.792 1.872 8.832 2.928l-1.536 2.664c-.408-.24-.936-.504-1.512-.768v1.992a24.6 24.6 0 0 0 1.704 4.224c1.632-1.296 3.432-2.976 4.584-4.416m18.6-3.048v-.816h-5.712v-1.824h5.712v-1.032h2.784v1.032h5.424v1.824h-5.424v.816h4.68v1.704H206.72v-1.704zm-3.288 4.104v1.44h1.728v-1.44zm9.024 1.44v-1.44h-1.536v1.44zm-5.184 0h1.56v-1.44h-1.56zm-6.168 1.728V27.72h13.8v4.896zm.456 3.504-2.016.648c-.048-.336-.096-.72-.168-1.152-4.248.624-5.04.84-5.544 1.08-.144-.48-.528-1.68-.816-2.328.576-.12 1.056-.696 1.776-1.608.288-.36.816-1.104 1.464-2.112-1.752.216-2.256.336-2.616.504-.12-.48-.528-1.632-.792-2.232.432-.12.816-.6 1.272-1.344.456-.648 1.848-3.408 2.616-5.928l2.328.912c-.792 1.968-1.848 4.104-2.952 5.832l1.536-.12a34 34 0 0 0 1.56-3.24l2.16 1.32c-1.272 2.52-2.928 5.184-4.656 7.368l2.208-.264c-.168-.648-.336-1.296-.528-1.848l1.896-.504c.552 1.632 1.104 3.744 1.272 5.016m-7.68 1.32 2.16.336c-.192 2.256-.576 4.656-1.08 6.192-.48-.264-1.512-.576-2.088-.72.552-1.512.864-3.72 1.008-5.808m2.52.288 1.872-.336c.288 1.776.504 4.008.552 5.52l-2.016.36c0-1.512-.192-3.768-.408-5.544m2.232-.456 1.752-.504c.456 1.344.984 3.12 1.176 4.296l-1.824.624c-.192-1.2-.672-3.024-1.104-4.416m5.856 1.056v.768h6.96v-.768zm0-1.752v.72h6.96v-.72zm0-1.776v.72h6.96v-.72zm9.624 5.736h-3.12a77 77 0 0 1 4.32 1.584l-1.128 1.992c-1.272-.6-3.36-1.464-5.184-2.136l.792-1.44h-3.552l1.44 1.416a80 80 0 0 1-6.048 2.28 19 19 0 0 0-.984-1.968c1.32-.432 3.168-1.08 4.536-1.728h-3.216v-7.2h12.144zm10.152-16.008-1.704 2.16c-.864-.816-2.736-1.968-4.128-2.712l1.584-1.92c1.392.648 3.288 1.704 4.248 2.472m-1.656 6.744-1.632 2.16c-.816-.816-2.544-1.92-3.888-2.64l1.536-1.944c1.344.6 3.12 1.656 3.984 2.424m-2.4 12.432-2.496-1.56c.984-1.848 2.304-4.896 3.336-7.704l2.184 1.584c-.888 2.544-1.968 5.328-3.024 7.68m12.288-5.64h2.256c.096-.72.168-1.536.24-2.544h-3.864c.792.648 1.656 1.416 2.136 2.016zm-2.52-2.544h-2.088c-.12.888-.24 1.728-.36 2.544h3.624c-.576-.648-1.392-1.392-2.088-1.968zm.552-4.872h-2.016c-.096.768-.192 1.512-.288 2.28h3.24c-.48-.576-1.152-1.224-1.752-1.752zm4.704 0h-3.552c.672.6 1.416 1.296 1.824 1.824l-.672.456h2.304c.024-.72.072-1.464.096-2.28m4.224 4.872h-1.848c-.072.96-.144 1.8-.216 2.544h1.464v2.424h-1.776c-.192 1.152-.432 1.824-.744 2.232-.528.744-1.128.96-1.92 1.08-.72.12-1.872.12-3 .048-.048-.672-.336-1.68-.744-2.328 1.056.096 1.992.096 2.472.096.408 0 .624-.072.864-.384.12-.144.24-.36.336-.744h-9.936c.288-1.368.576-3.12.84-4.968h-2.136v-2.592h2.472c.168-1.296.312-2.592.432-3.816-.288.456-.6.864-.888 1.224-.552-.408-1.776-1.2-2.448-1.56 1.608-1.704 3.024-4.464 3.84-7.104l2.76.696a31 31 0 0 1-.648 1.728h10.2v2.544H232.28c-.288.552-.552 1.08-.864 1.584h11.352s0 .84-.024 1.2c-.048 1.272-.12 2.424-.168 3.504h1.704zm8.784-10.464-1.8 2.232c-.912-.912-2.952-2.304-4.464-3.144l1.68-1.992c1.512.768 3.576 2.016 4.584 2.904m-1.056 5.856-1.704 2.28c-.96-.864-3.048-2.16-4.584-3l1.608-2.04c1.488.744 3.624 1.896 4.68 2.76m-3.24 12.576-2.568-1.704c1.128-1.896 2.688-4.968 3.888-7.8l2.256 1.704c-1.056 2.592-2.328 5.4-3.576 7.8m19.416-7.176v2.736h-6.216v5.04h-2.976v-5.04h-6.216v-2.736h6.216V33.84h-4.656v-2.664h4.656v-2.448h-5.472V26.04h2.88c-.384-1.056-1.08-2.4-1.8-3.432l2.544-.984c.864 1.176 1.8 2.784 2.16 3.888l-1.272.528h3.6c.696-1.272 1.488-3.048 1.92-4.392l2.808.816c-.6 1.224-1.248 2.496-1.872 3.576h3.24v2.688h-5.76v2.448h4.872v2.664h-4.872v2.472zm13.56-2.568v-3.888h-3.624v-7.968h2.424v1.632h3.768v2.352h-3.768v1.752h2.664v.024h.912v6.096c0 .984-.192 1.392-.84 1.704-.624.288-1.56.288-2.736.288-.096-.552-.384-1.248-.624-1.752.624.048 1.32.048 1.536.024.216 0 .288-.048.288-.264m-3.264-3.312 2.112.36c-.168 1.584-.552 3.144-1.2 4.152-.384-.312-1.32-.864-1.824-1.128.6-.888.792-2.112.912-3.384m13.56 5.52v2.64h-6.768c2.256 1.056 4.656 2.304 6.12 3.216l-1.896 2.184c-1.536-1.056-4.176-2.592-6.552-3.744l1.272-1.656h-7.128l2.016 1.656c-2.064 1.368-5.04 2.856-7.392 3.816a21 21 0 0 0-1.608-2.136c2.112-.792 4.872-2.16 6.48-3.336h-6.552v-2.64h2.16l-.408-12.384c1.512-.48 3.36-1.2 4.584-1.776l1.224 2.328c-1.008.36-2.136.648-3.216.936l.072 2.16h2.736v2.328h-2.664l.072 2.064h2.664v2.328h-2.592l.072 2.016h12.528c.048-.624.072-1.248.12-1.944h-2.424v-2.352h2.52l.072-2.064h-2.424V27.24h2.496c0-.696 0-1.368.024-2.064h-2.76v-2.448h5.376c0 4.272-.12 9.624-.312 13.224zm7.104-14.232 2.64.864a36 36 0 0 1-2.376 4.968v16.464h-2.712V31.68a35 35 0 0 1-1.68 1.944c-.264-.696-1.056-2.232-1.536-2.928 2.232-2.16 4.416-5.568 5.664-8.976m4.272 14.688 2.568.768c-.984 2.064-2.448 4.392-3.672 5.856-.504-.432-1.56-1.2-2.208-1.536 1.2-1.32 2.496-3.312 3.312-5.088m1.56-11.184v3.216h7.032v-3.216zm11.088 10.44h-6.216v8.424h-2.88v-8.424h-6.264v-2.592h6.264V30.96h-4.704v-8.256h12.6v8.256h-5.016v2.112h6.216zm-5.4 1.896 2.112-1.176c1.368 1.584 2.832 3.648 3.528 5.064l-2.256 1.368c-.648-1.416-2.112-3.624-3.384-5.256m13.968-9.456 7.992-.216c-.504-.384-.984-.768-1.44-1.104l.984-.576h-5.136a39 39 0 0 1-2.4 1.896m14.976-4.392v2.496h-4.968c1.56 1.176 3.264 2.64 4.2 3.72l-2.184 1.368h1.008v9.744c0 1.536-.408 2.16-1.56 2.52-1.128.336-2.88.312-5.184.312-.096-.744-.384-1.704-.696-2.424 1.32.096 3.288.096 3.696.072.48-.024.624-.144.624-.528v-1.728c-3.528.768-7.056 1.488-9.864 2.064l-.84-2.52a428 428 0 0 0 8.088-1.176c-1.896-.768-5.064-1.584-7.536-1.944l.84-1.704c2.688.312 6.264 1.152 8.184 1.944l-.744 1.584 1.872-.288v-3.576h-10.728v1.488c0 2.808-.432 6.72-2.616 9.216-.48-.504-1.704-1.416-2.352-1.68 1.968-2.208 2.16-5.304 2.16-7.584v-3.792h15.144a18 18 0 0 0-1.176-1.272c-11.712.456-13.128.48-14.16.84a33 33 0 0 0-.864-2.616c.672-.12 1.248-.528 2.16-1.176.264-.168.624-.48 1.08-.864h-4.848v-2.496h7.536c.72-.744 1.44-1.512 2.04-2.328l2.904 1.104q-.54.612-1.152 1.224z"/><path fill="#0A97D9" stroke="#000" d="M1 64h18v18H1zM19 64h18v18H19zM37 64h18v18H37zM55 64h18v18H55zM73 64h18v18H73z"/><path fill="#0A97D9" fill-opacity=".3" stroke="#000" d="M91 64h18v18H91zM109 64h18v18h-18zM127 64h18v18h-18zM145 64h18v18h-18zM163 64h18v18h-18zM181 64h18v18h-18zM199 64h18v18h-18zM217 64h18v18h-18zM235 64h18v18h-18zM253 64h18v18h-18zM271 64h18v18h-18zM289 64h18v18h-18zM307 64h18v18h-18zM325 64h18v18h-18zM343 64h18v18h-18z"/><path fill="#0A97D9" d="M4.54 95.168q-.9 0-1.584-.516-.672-.528-1.056-1.56-.372-1.044-.372-2.58 0-1.524.372-2.532.384-1.02 1.056-1.524a2.6 2.6 0 0 1 1.584-.504q.912 0 1.584.516.672.504 1.044 1.512.384 1.008.384 2.532 0 1.536-.384 2.58-.372 1.032-1.044 1.56-.672.516-1.584.516m0-1.38q.396 0 .696-.3t.468-1.008q.168-.72.168-1.968 0-1.236-.168-1.932-.168-.708-.468-.984a.97.97 0 0 0-.696-.288q-.372 0-.684.288-.3.276-.48.984-.18.696-.18 1.932 0 1.248.18 1.968.18.708.48 1.008.312.3.684.3M82.984 95v-1.44h1.92v-5.604h-1.62v-1.104a7.5 7.5 0 0 0 1.152-.288q.492-.18.912-.456h1.308v7.452h1.668V95zm9.634.168q-.9 0-1.584-.516-.672-.528-1.056-1.56-.372-1.044-.372-2.58 0-1.524.372-2.532.384-1.02 1.056-1.524a2.6 2.6 0 0 1 1.584-.504q.912 0 1.584.516.672.504 1.044 1.512.384 1.008.384 2.532 0 1.536-.384 2.58-.372 1.032-1.044 1.56-.672.516-1.584.516m0-1.38q.396 0 .696-.3t.468-1.008q.168-.72.168-1.968 0-1.236-.168-1.932-.168-.708-.468-.984a.97.97 0 0 0-.696-.288q-.372 0-.684.288-.3.276-.48.984-.18.696-.18 1.932 0 1.248.18 1.968.18.708.48 1.008.312.3.684.3M170.516 95v-1.02a30 30 0 0 0 2.064-2.004q.864-.924 1.32-1.716.456-.804.456-1.488 0-.432-.156-.756a1.1 1.1 0 0 0-.456-.492q-.288-.18-.72-.18-.48 0-.888.276a4 4 0 0 0-.732.636l-.984-.948q.624-.672 1.272-1.008.66-.348 1.56-.348.84 0 1.464.348.636.336.984.948t.348 1.44q0 .804-.408 1.644a8.4 8.4 0 0 1-1.068 1.656 20 20 0 0 1-1.488 1.632q.348-.048.744-.072.408-.036.72-.036h1.92V95zm10.102.168q-.9 0-1.584-.516-.672-.528-1.056-1.56-.372-1.044-.372-2.58 0-1.524.372-2.532.384-1.02 1.056-1.524a2.6 2.6 0 0 1 1.584-.504q.912 0 1.584.516.672.504 1.044 1.512.384 1.008.384 2.532 0 1.536-.384 2.58-.372 1.032-1.044 1.56-.672.516-1.584.516m0-1.38q.396 0 .696-.3t.468-1.008q.168-.72.168-1.968 0-1.236-.168-1.932-.168-.708-.468-.984a.97.97 0 0 0-.696-.288q-.372 0-.684.288-.3.276-.48.984-.18.696-.18 1.932 0 1.248.18 1.968.18.708.48 1.008.312.3.684.3M261.276 95.168q-.696 0-1.248-.168a3.7 3.7 0 0 1-.984-.432 4 4 0 0 1-.732-.636l.828-1.116q.408.372.888.648.492.264 1.092.264a2 2 0 0 0 .792-.144 1.12 1.12 0 0 0 .72-1.092q0-.444-.216-.756-.204-.324-.732-.492t-1.488-.168v-1.272q.816 0 1.284-.168.468-.18.66-.48.204-.312.204-.708 0-.516-.312-.804-.312-.3-.876-.3-.468 0-.876.216a3.7 3.7 0 0 0-.792.564l-.912-1.092a5.3 5.3 0 0 1 1.236-.78q.648-.3 1.428-.3.852 0 1.5.276.66.276 1.02.804t.36 1.284q0 .72-.384 1.236t-1.092.792v.06q.492.132.888.432.408.288.636.732.24.444.24 1.032 0 .804-.432 1.38-.42.576-1.14.888-.708.3-1.56.3m7.342 0q-.9 0-1.584-.516-.672-.528-1.056-1.56-.372-1.044-.372-2.58 0-1.524.372-2.532.384-1.02 1.056-1.524a2.6 2.6 0 0 1 1.584-.504q.912 0 1.584.516.672.504 1.044 1.512.384 1.008.384 2.532 0 1.536-.384 2.58-.372 1.032-1.044 1.56-.672.516-1.584.516m0-1.38q.396 0 .696-.3t.468-1.008q.168-.72.168-1.968 0-1.236-.168-1.932-.168-.708-.468-.984a.97.97 0 0 0-.696-.288q-.372 0-.684.288-.3.276-.48.984-.18.696-.18 1.932 0 1.248.18 1.968.18.708.48 1.008.312.3.684.3M350.044 95v-5.46q0-.384.024-.912.024-.54.048-.936h-.06q-.156.36-.336.72t-.372.732l-1.38 2.208h4.776v1.344h-6.492v-1.2l3.312-5.388h2.124V95zm6.574.168q-.9 0-1.584-.516-.672-.528-1.056-1.56-.372-1.044-.372-2.58 0-1.524.372-2.532.384-1.02 1.056-1.524a2.6 2.6 0 0 1 1.584-.504q.912 0 1.584.516.672.504 1.044 1.512.384 1.008.384 2.532 0 1.536-.384 2.58-.372 1.032-1.044 1.56-.672.516-1.584.516m0-1.38q.396 0 .696-.3t.468-1.008q.168-.72.168-1.968 0-1.236-.168-1.932-.168-.708-.468-.984a.97.97 0 0 0-.696-.288q-.372 0-.684.288-.3.276-.48.984-.18.696-.18 1.932 0 1.248.18 1.968.18.708.48 1.008.312.3.684.3"/></svg>