<svg xmlns="http://www.w3.org/2000/svg" width="386" height="98" fill="none"><path fill="#FD6925" d="m49.243 33.595-7.609-4.39V20.42c0-.187-.1-.358-.258-.45l-7.867-4.541a.52.52 0 0 0-.517 0l-7.867 4.542a.52.52 0 0 0-.258.449v8.785l-7.608 4.39a.52.52 0 0 0-.259.45v9.083c0 .187.1.358.259.45l7.866 4.54c.08.049.171.069.259.069a.54.54 0 0 0 .258-.068l7.609-4.39 7.608 4.39c.08.048.17.068.258.068a.54.54 0 0 0 .259-.068l7.867-4.542a.52.52 0 0 0 .258-.449v-9.083c0-.187-.1-.358-.258-.45M32.73 42.233l-6.312-3.643 6.312-3.643zm7.35-12.726-6.308 3.643v-7.286zm-7.35 3.643-6.308-3.643 6.308-3.643zm1.559.899 6.828-3.941 6.83 3.94-6.83 3.942zm6.307-5.44-6.307-3.644 6.307-3.642zm-8.383-3.644-6.308 3.643v-7.285zm-7.35 21.81-6.829-3.941v-7.887l6.829 3.946zm1.038 0v-7.286l6.308 3.643zm22.562-3.945-6.829 3.94V38.89l6.83-3.946zM88.488 42.336c-2.376 0-4.752-.936-6.48-2.592l2.04-2.448c1.272 1.176 2.952 1.968 4.512 1.968 1.848 0 2.832-.792 2.832-2.04 0-1.32-1.08-1.728-2.664-2.4l-2.376-1.008c-1.8-.744-3.6-2.184-3.6-4.776 0-2.904 2.544-5.136 6.144-5.136 2.064 0 4.128.816 5.568 2.28l-1.8 2.232c-1.128-.936-2.304-1.464-3.768-1.464-1.56 0-2.544.696-2.544 1.872 0 1.272 1.248 1.728 2.76 2.328l2.328.984c2.16.888 3.576 2.256 3.576 4.824 0 2.904-2.424 5.376-6.528 5.376M98.161 42V24.216h4.872c5.424 0 8.784 2.832 8.784 8.832 0 5.976-3.36 8.952-8.592 8.952zm3.552-2.856h1.104c3.312 0 5.376-1.776 5.376-6.096 0-4.344-2.064-5.976-5.376-5.976h-1.104zm21.212 3.192c-4.824 0-8.52-3.216-8.52-9.144 0-5.856 3.792-9.288 8.52-9.288 2.568 0 4.344 1.104 5.496 2.28l-1.872 2.256c-.888-.84-1.896-1.488-3.504-1.488-2.952 0-5.016 2.304-5.016 6.12 0 3.864 1.776 6.192 5.28 6.192.84 0 1.704-.24 2.208-.672v-3.504h-3.144v-2.904h6.312V40.2c-1.2 1.176-3.288 2.136-5.76 2.136m13.124 0c-1.8 0-3.768-.792-5.112-1.896l1.608-2.208c1.2.936 2.352 1.464 3.6 1.464 1.344 0 1.944-.576 1.944-1.416 0-1.008-1.392-1.464-2.808-2.016-1.704-.648-3.6-1.68-3.6-3.936 0-2.4 1.944-4.104 5.016-4.104 1.944 0 3.456.816 4.56 1.656l-1.584 2.136c-.96-.696-1.896-1.152-2.88-1.152-1.224 0-1.8.528-1.8 1.296 0 .984 1.248 1.344 2.664 1.872 1.776.672 3.744 1.56 3.744 4.056 0 2.352-1.848 4.248-5.352 4.248m15.784-12.24c0 1.944.984 2.832 2.544 2.832.936 0 2.064-.552 2.88-1.896-.36-2.904-1.56-4.008-3.024-4.008-1.32 0-2.4 1.008-2.4 3.072m1.872 12.24c-2.184 0-3.792-.936-4.824-2.016l1.872-2.136c.624.72 1.704 1.272 2.736 1.272 2.04 0 3.72-1.488 3.864-5.952-.984 1.224-2.496 1.944-3.648 1.944-2.976 0-5.112-1.728-5.112-5.352 0-3.528 2.544-5.736 5.592-5.736 3.36 0 6.384 2.568 6.384 8.52 0 6.6-3.288 9.456-6.864 9.456M177.632 31.152l1.92.816c-1.152 4.968-3.648 8.688-6.576 10.656-.48-.6-1.608-1.704-2.304-2.136 2.256-1.344 4.152-3.696 5.256-6.528h-4.656v-2.688h5.856zm12.312-2.76 2.616 1.944c-1.8 1.632-4.008 3.432-5.832 4.656 1.68 2.304 3.864 4.08 6.672 5.184-.672.552-1.56 1.728-1.992 2.496-3.48-1.56-5.952-4.128-7.752-7.416v5.496c0 1.56-.312 2.328-1.344 2.808-.984.456-2.448.48-4.464.48-.12-.816-.576-2.088-.96-2.856 1.2.072 2.688.072 3.12.048s.576-.144.576-.528V29.256h-6V26.52h8.904c-2.04-.912-4.824-1.848-7.032-2.424l1.416-2.328c2.784.6 6.792 1.872 8.832 2.928l-1.536 2.664c-.408-.24-.936-.504-1.512-.768v1.992a24.6 24.6 0 0 0 1.704 4.224c1.632-1.296 3.432-2.976 4.584-4.416m18.6-3.048v-.816h-5.712v-1.824h5.712v-1.032h2.784v1.032h5.424v1.824h-5.424v.816h4.68v1.704H203.72v-1.704zm-3.288 4.104v1.44h1.728v-1.44zm9.024 1.44v-1.44h-1.536v1.44zm-5.184 0h1.56v-1.44h-1.56zm-6.168 1.728V27.72h13.8v4.896zm.456 3.504-2.016.648c-.048-.336-.096-.72-.168-1.152-4.248.624-5.04.84-5.544 1.08-.144-.48-.528-1.68-.816-2.328.576-.12 1.056-.696 1.776-1.608.288-.36.816-1.104 1.464-2.112-1.752.216-2.256.336-2.616.504-.12-.48-.528-1.632-.792-2.232.432-.12.816-.6 1.272-1.344.456-.648 1.848-3.408 2.616-5.928l2.328.912c-.792 1.968-1.848 4.104-2.952 5.832l1.536-.12a34 34 0 0 0 1.56-3.24l2.16 1.32c-1.272 2.52-2.928 5.184-4.656 7.368l2.208-.264c-.168-.648-.336-1.296-.528-1.848l1.896-.504c.552 1.632 1.104 3.744 1.272 5.016m-7.68 1.32 2.16.336c-.192 2.256-.576 4.656-1.08 6.192-.48-.264-1.512-.576-2.088-.72.552-1.512.864-3.72 1.008-5.808m2.52.288 1.872-.336c.288 1.776.504 4.008.552 5.52l-2.016.36c0-1.512-.192-3.768-.408-5.544m2.232-.456 1.752-.504c.456 1.344.984 3.12 1.176 4.296l-1.824.624c-.192-1.2-.672-3.024-1.104-4.416m5.856 1.056v.768h6.96v-.768zm0-1.752v.72h6.96v-.72zm0-1.776v.72h6.96v-.72zm9.624 5.736h-3.12a77 77 0 0 1 4.32 1.584l-1.128 1.992c-1.272-.6-3.36-1.464-5.184-2.136l.792-1.44h-3.552l1.44 1.416a80 80 0 0 1-6.048 2.28 19 19 0 0 0-.984-1.968c1.32-.432 3.168-1.08 4.536-1.728h-3.216v-7.2h12.144zm15.624-.984h9.408v2.88h-21.816v-2.88h9.144V27.144h-7.848v-2.976h19.176v2.976h-8.064zm18.408-.12 2.016.912c-1.632 1.368-4.512 2.616-6.984 3.192-.36-.6-1.104-1.536-1.68-2.064 2.4-.336 5.184-1.152 6.648-2.04m6.456 1.2 1.92-1.344c1.944.72 4.776 1.92 6.312 2.688l-2.016 1.56c-1.392-.792-4.2-2.064-6.216-2.904m1.008-12.816h-6.576c.384.6.768 1.296.96 1.8l-1.296.312h6.552l-.864-.264c.384-.552.888-1.272 1.224-1.848m-2.04 8.472h9.312v2.352h-9.312v5.472h-2.832V38.64h-9.144v-2.352h9.144v-1.056h-6.912v-2.064h6.912v-1.08h-8.112v-2.16h4.416c-.216-.552-.576-1.224-.888-1.752l1.608-.36h-6.12v-2.232h3.264c-.36-.912-.984-2.064-1.536-2.976l2.448-.816c.72 1.008 1.512 2.448 1.824 3.36l-1.152.432h2.208v-3.912h2.64v3.912h1.8v-3.912h2.688v3.912h2.136l-.864-.264a21 21 0 0 0 1.536-3.456l3 .696c-.672 1.104-1.32 2.184-1.92 3.024h3.096v2.232h-6.336l2.256.576a50 50 0 0 1-1.464 1.536h4.632v2.16h-8.328v1.08h7.2v2.064h-7.2zm23.352-2.544v-3.888h-3.624v-7.968h2.424v1.632h3.768v2.352h-3.768v1.752h2.664v.024h.912v6.096c0 .984-.192 1.392-.84 1.704-.624.288-1.56.288-2.736.288-.096-.552-.384-1.248-.624-1.752.624.048 1.32.048 1.536.024.216 0 .288-.048.288-.264m-3.264-3.312 2.112.36c-.168 1.584-.552 3.144-1.2 4.152-.384-.312-1.32-.864-1.824-1.128.6-.888.792-2.112.912-3.384m13.56 5.52v2.64h-6.768c2.256 1.056 4.656 2.304 6.12 3.216l-1.896 2.184c-1.536-1.056-4.176-2.592-6.552-3.744l1.272-1.656h-7.128l2.016 1.656c-2.064 1.368-5.04 2.856-7.392 3.816a21 21 0 0 0-1.608-2.136c2.112-.792 4.872-2.16 6.48-3.336h-6.552v-2.64h2.16l-.408-12.384c1.512-.48 3.36-1.2 4.584-1.776l1.224 2.328c-1.008.36-2.136.648-3.216.936l.072 2.16h2.736v2.328h-2.664l.072 2.064h2.664v2.328h-2.592l.072 2.016h12.528c.048-.624.072-1.248.12-1.944h-2.424v-2.352h2.52l.072-2.064h-2.424V27.24h2.496c0-.696 0-1.368.024-2.064h-2.76v-2.448h5.376c0 4.272-.12 9.624-.312 13.224zm14.376 1.32h3.84a15 15 0 0 1-1.728-1.992h-6.768c-.48.696-1.08 1.368-1.704 1.992h3.456v-1.488h2.904zm-5.136-5.4v1.08h7.512v-1.08zm7.512-6.072h-7.512v1.056h7.512zm-7.512 3.024v1.056h7.512v-1.056zm14.88 6.456h-4.392c1.272 1.152 2.952 2.184 4.68 2.784-.624.528-1.488 1.512-1.896 2.208-1.296-.6-2.592-1.464-3.768-2.52v1.776h-4.368v1.56h7.848v2.352h-18.288v-2.352h7.536v-1.56h-4.248V38.04c-1.176 1.008-2.472 1.848-3.816 2.448-.408-.672-1.224-1.656-1.824-2.184 1.752-.648 3.528-1.752 4.848-3.024h-4.608v-2.328h4.56V25.8h-3.312v-2.304h3.312v-1.8h2.856v1.8h7.512v-1.8h2.928v1.8h3.288V25.8h-3.288v7.152h4.44zm18.96-3.312v-2.496c-.576.936-1.248 1.752-1.944 2.352-.24-.528-.72-1.368-1.128-1.824 1.08-.816 2.136-2.28 2.784-3.84h-1.896V24h2.184v-2.28h2.232V24h2.64v2.16h-2.232c.816.864 2.352 2.592 2.712 3.072l-1.56 1.92c-.312-.672-.936-1.776-1.56-2.736v3.552zm-6.864 0v-3.12c-.648 1.056-1.368 2.064-2.112 2.76-.24-.552-.768-1.44-1.176-1.896.96-.768 1.944-2.16 2.568-3.552h-1.752V24h2.472v-2.28h2.208V24h1.992v2.16h-1.968c.6.528 2.04 1.992 2.376 2.4l-1.344 1.68a18 18 0 0 0-1.056-1.608v3.336zm-4.992 6.72v-6.024h-1.824v6.024zm1.896 2.496h-3.72v1.776h-2.04v-7.944a13 13 0 0 1-1.128 1.584c-.072-.72-.576-2.424-.936-3.192 1.464-1.992 2.448-4.92 3.072-8.088h-2.28v-2.592h7.248v2.592h-2.472a41 41 0 0 1-1.296 4.848h3.552zm8.784-2.088v2.04q.72.072 1.512.072c.768 0 3.96 0 5.016-.024-.336.552-.672 1.704-.792 2.4h-4.392c-3 0-5.256-.552-6.816-2.808-.48 1.344-1.224 2.52-2.352 3.432l-1.92-1.8c1.92-1.44 2.616-3.984 2.88-6.984l2.376.408c-.072.672-.144 1.344-.264 1.992.528 1.272 1.224 2.112 2.136 2.592v-5.592h-5.712V32.52h12.264l.408-.12 1.848.576c-.408 1.272-.984 2.784-1.44 3.744l-2.16-.72c.12-.312.264-.744.408-1.176h-3v1.992h5.352v2.28zm25.92-13.488h-2.808v1.152h2.808zm0 4.464v-1.2h-2.808v1.2zm-5.496-3.312v-1.152h-4.032v-2.16h4.032v-1.752h2.688v1.752h5.304v3.312h1.32v2.112h-1.32v3.336h-5.304v1.176h5.592V35.4h-5.592v1.176h6.36v2.184h-6.36v1.632h-2.688V38.76h-5.256v-2.184h5.256V35.4h-4.296v-2.016h4.296v-1.176h-4.152v-2.136h4.152v-1.2h-5.352V26.76zm-6.576 2.976 1.584.36c-.312 3.504-.936 6.384-1.848 8.664 2.184 1.896 5.184 2.304 8.688 2.328 1.392 0 6.36 0 7.992-.072-.408.6-.84 1.848-1.008 2.616h-7.056c-4.032 0-7.296-.504-9.768-2.544a10 10 0 0 1-2.688 3.024c-.384-.552-1.44-1.536-2.04-1.872 1.176-.792 2.112-1.848 2.88-3.192-.864-1.248-1.56-2.76-2.136-4.656l2.088-.72c.336 1.08.72 2.016 1.176 2.808.408-1.224.72-2.616.936-4.2h-2.088c-.552.288-1.272.744-1.272 1.056-.192-.528-.744-1.632-1.104-2.184.48-.12 1.152-.792 1.656-1.608.36-.528 1.296-2.16 2.136-4.08h-3.528v-2.472h4.44l.96-.384 1.704 1.176a52 52 0 0 1-3.024 6h.84zm26.544-.768v.576c2.352-1.296 2.64-2.976 2.64-4.536V22.44h8.088v5.232c0 .696.048.984.336.984h.96c.312 0 .864-.072 1.176-.168.048.72.096 1.704.192 2.352-.336.168-.864.192-1.344.192h-1.248c-2.256 0-2.688-1.008-2.688-3.384V25.08h-2.88v.024c0 2.328-.648 5.04-3.672 6.648-.288-.48-1.032-1.32-1.56-1.824v1.2h-7.344v-2.16zm1.008-3.336v2.256h-9.384v-2.256h3.984c-.384-.912-1.032-2.112-1.56-3.024l2.232-1.032c.648.984 1.368 2.304 1.752 3.192l-1.584.864zm-.96 6.552v2.16h-7.392v-2.16zm9.216 2.52h-5.4c.696 1.296 1.656 2.424 2.832 3.408a11.3 11.3 0 0 0 2.568-3.408m-11.712 5.76v-2.688h-2.448v2.688zm13.536-8.544 1.8.768c-.792 2.952-2.112 5.232-3.84 6.984a18.1 18.1 0 0 0 4.968 1.728c-.624.576-1.368 1.8-1.752 2.568-2.112-.504-3.96-1.296-5.544-2.352-1.656 1.056-3.528 1.872-5.592 2.424a14 14 0 0 0-1.104-2.136v.864h-4.92v1.008h-2.424v-8.28h7.344v5.928c1.608-.384 3.096-.936 4.416-1.704-1.248-1.248-2.304-2.76-3.168-4.464l1.56-.552h-2.208V32.04h10.008z"/><path fill="#FD6925" stroke="#000" d="M1 64h18v18H1zM19 64h18v18H19zM37 64h18v18H37zM55 64h18v18H55zM73 64h18v18H73zM91 64h18v18H91zM109 64h18v18h-18zM127 64h18v18h-18zM145 64h18v18h-18zM163 64h18v18h-18zM181 64h18v18h-18zM199 64h18v18h-18zM217 64h18v18h-18zM235 64h18v18h-18z"/><path fill="#FD6925" fill-opacity=".3" stroke="#000" d="M253 64h18v18h-18zM271 64h18v18h-18zM289 64h18v18h-18zM307 64h18v18h-18zM325 64h18v18h-18zM343 64h18v18h-18z"/><path fill="#FD6925" d="M4.54 95.168q-.9 0-1.584-.516-.672-.528-1.056-1.56-.372-1.044-.372-2.58 0-1.524.372-2.532.384-1.02 1.056-1.524a2.6 2.6 0 0 1 1.584-.504q.912 0 1.584.516.672.504 1.044 1.512.384 1.008.384 2.532 0 1.536-.384 2.58-.372 1.032-1.044 1.56-.672.516-1.584.516m0-1.38q.396 0 .696-.3t.468-1.008q.168-.72.168-1.968 0-1.236-.168-1.932-.168-.708-.468-.984a.97.97 0 0 0-.696-.288q-.372 0-.684.288-.3.276-.48.984-.18.696-.18 1.932 0 1.248.18 1.968.18.708.48 1.008.312.3.684.3M82.984 95v-1.44h1.92v-5.604h-1.62v-1.104a7.5 7.5 0 0 0 1.152-.288q.492-.18.912-.456h1.308v7.452h1.668V95zm9.634.168q-.9 0-1.584-.516-.672-.528-1.056-1.56-.372-1.044-.372-2.58 0-1.524.372-2.532.384-1.02 1.056-1.524a2.6 2.6 0 0 1 1.584-.504q.912 0 1.584.516.672.504 1.044 1.512.384 1.008.384 2.532 0 1.536-.384 2.58-.372 1.032-1.044 1.56-.672.516-1.584.516m0-1.38q.396 0 .696-.3t.468-1.008q.168-.72.168-1.968 0-1.236-.168-1.932-.168-.708-.468-.984a.97.97 0 0 0-.696-.288q-.372 0-.684.288-.3.276-.48.984-.18.696-.18 1.932 0 1.248.18 1.968.18.708.48 1.008.312.3.684.3M170.516 95v-1.02a30 30 0 0 0 2.064-2.004q.864-.924 1.32-1.716.456-.804.456-1.488 0-.432-.156-.756a1.1 1.1 0 0 0-.456-.492q-.288-.18-.72-.18-.48 0-.888.276a4 4 0 0 0-.732.636l-.984-.948q.624-.672 1.272-1.008.66-.348 1.56-.348.84 0 1.464.348.636.336.984.948t.348 1.44q0 .804-.408 1.644a8.4 8.4 0 0 1-1.068 1.656 20 20 0 0 1-1.488 1.632q.348-.048.744-.072.408-.036.72-.036h1.92V95zm10.102.168q-.9 0-1.584-.516-.672-.528-1.056-1.56-.372-1.044-.372-2.58 0-1.524.372-2.532.384-1.02 1.056-1.524a2.6 2.6 0 0 1 1.584-.504q.912 0 1.584.516.672.504 1.044 1.512.384 1.008.384 2.532 0 1.536-.384 2.58-.372 1.032-1.044 1.56-.672.516-1.584.516m0-1.38q.396 0 .696-.3t.468-1.008q.168-.72.168-1.968 0-1.236-.168-1.932-.168-.708-.468-.984a.97.97 0 0 0-.696-.288q-.372 0-.684.288-.3.276-.48.984-.18.696-.18 1.932 0 1.248.18 1.968.18.708.48 1.008.312.3.684.3M261.276 95.168q-.696 0-1.248-.168a3.7 3.7 0 0 1-.984-.432 4 4 0 0 1-.732-.636l.828-1.116q.408.372.888.648.492.264 1.092.264a2 2 0 0 0 .792-.144 1.12 1.12 0 0 0 .72-1.092q0-.444-.216-.756-.204-.324-.732-.492t-1.488-.168v-1.272q.816 0 1.284-.168.468-.18.66-.48.204-.312.204-.708 0-.516-.312-.804-.312-.3-.876-.3-.468 0-.876.216a3.7 3.7 0 0 0-.792.564l-.912-1.092a5.3 5.3 0 0 1 1.236-.78q.648-.3 1.428-.3.852 0 1.5.276.66.276 1.02.804t.36 1.284q0 .72-.384 1.236t-1.092.792v.06q.492.132.888.432.408.288.636.732.24.444.24 1.032 0 .804-.432 1.38-.42.576-1.14.888-.708.3-1.56.3m7.342 0q-.9 0-1.584-.516-.672-.528-1.056-1.56-.372-1.044-.372-2.58 0-1.524.372-2.532.384-1.02 1.056-1.524a2.6 2.6 0 0 1 1.584-.504q.912 0 1.584.516.672.504 1.044 1.512.384 1.008.384 2.532 0 1.536-.384 2.58-.372 1.032-1.044 1.56-.672.516-1.584.516m0-1.38q.396 0 .696-.3t.468-1.008q.168-.72.168-1.968 0-1.236-.168-1.932-.168-.708-.468-.984a.97.97 0 0 0-.696-.288q-.372 0-.684.288-.3.276-.48.984-.18.696-.18 1.932 0 1.248.18 1.968.18.708.48 1.008.312.3.684.3M350.044 95v-5.46q0-.384.024-.912.024-.54.048-.936h-.06q-.156.36-.336.72t-.372.732l-1.38 2.208h4.776v1.344h-6.492v-1.2l3.312-5.388h2.124V95zm6.574.168q-.9 0-1.584-.516-.672-.528-1.056-1.56-.372-1.044-.372-2.58 0-1.524.372-2.532.384-1.02 1.056-1.524a2.6 2.6 0 0 1 1.584-.504q.912 0 1.584.516.672.504 1.044 1.512.384 1.008.384 2.532 0 1.536-.384 2.58-.372 1.032-1.044 1.56-.672.516-1.584.516m0-1.38q.396 0 .696-.3t.468-1.008q.168-.72.168-1.968 0-1.236-.168-1.932-.168-.708-.468-.984a.97.97 0 0 0-.696-.288q-.372 0-.684.288-.3.276-.48.984-.18.696-.18 1.932 0 1.248.18 1.968.18.708.48 1.008.312.3.684.3"/></svg>