<svg xmlns="http://www.w3.org/2000/svg" width="362" height="98" fill="none"><path fill="#FCC30B" d="M32.683 22.388c-5.178 0-9.378 4.2-9.378 9.378s4.2 9.382 9.378 9.382 9.378-4.2 9.378-9.382-4.2-9.378-9.378-9.378m-.696 3.702c0-.314.314-.656.7-.656s.696.342.696.656v3.222c0 .31-.31.652-.696.652s-.7-.342-.7-.652zm.696 10.484a4.88 4.88 0 0 1-1.452-9.541v1.817a3.19 3.19 0 0 0-1.742 2.844 3.19 3.19 0 0 0 3.194 3.194 3.191 3.191 0 0 0 1.44-6.041v-1.814a4.88 4.88 0 0 1-1.444 9.541M21.916 31.683c0-.426-.377-.772-.72-.772h-4.108c-.346 0-.728.346-.728.772 0 .425.382.771.728.771h4.108c.347 0 .72-.346.72-.771M49.008 31.683c0-.426-.378-.772-.72-.772H44.18c-.346 0-.728.346-.728.772 0 .425.382.771.728.771h4.108c.346 0 .72-.346.72-.771M32.687 20.916c.425 0 .767-.377.767-.72v-4.108c0-.346-.346-.728-.767-.728s-.772.382-.772.728v4.108c0 .343.346.72.772.72M32.687 48.008c.425 0 .767-.378.767-.72V43.18c0-.346-.346-.728-.767-.728s-.772.382-.772.728v4.108c0 .346.346.72.772.72M23.337 26.333c.21-.37.055-.855-.243-1.026l-3.564-2.04c-.302-.171-.803-.064-1.014.306s-.051.86.247 1.03l3.563 2.04c.299.171.796.056 1.01-.314M46.853 39.792c.21-.37.056-.855-.243-1.026l-3.563-2.04c-.302-.171-.803-.064-1.014.306s-.056.859.246 1.03l3.564 2.04c.298.171.795.056 1.01-.314M38.036 22.34c.37.211.855.056 1.026-.242l2.04-3.564c.172-.302.064-.803-.306-1.014s-.859-.052-1.03.247l-2.04 3.563c-.171.299-.056.8.314 1.01M24.577 45.853c.37.21.855.056 1.026-.242l2.04-3.564c.171-.302.064-.803-.306-1.014s-.859-.052-1.03.246l-2.04 3.564c-.171.298-.056.8.314 1.01M27.318 22.348c.37-.21.48-.712.306-1.01l-2.048-3.56c-.175-.298-.66-.457-1.03-.246-.37.21-.482.716-.307 1.014l2.048 3.56c.172.298.66.453 1.03.238M40.823 45.837c.37-.21.481-.712.31-1.01l-2.048-3.56c-.175-.298-.66-.457-1.03-.246-.37.21-.481.716-.306 1.014l2.048 3.56c.171.298.66.453 1.03.238M42.02 26.318c.212.37.713.48 1.011.306l3.56-2.048c.302-.172.457-.66.246-1.03-.215-.37-.716-.482-1.014-.307l-3.56 2.048c-.298.172-.453.66-.238 1.03M18.536 39.823c.21.37.711.482 1.01.307l3.56-2.049c.301-.17.457-.66.246-1.03s-.716-.48-1.014-.306l-3.56 2.048c-.298.171-.453.66-.239 1.03M88.488 42.336c-2.376 0-4.752-.936-6.48-2.592l2.04-2.448c1.272 1.176 2.952 1.968 4.512 1.968 1.848 0 2.832-.792 2.832-2.04 0-1.32-1.08-1.728-2.664-2.4l-2.376-1.008c-1.8-.744-3.6-2.184-3.6-4.776 0-2.904 2.544-5.136 6.144-5.136 2.064 0 4.128.816 5.568 2.28l-1.8 2.232c-1.128-.936-2.304-1.464-3.768-1.464-1.56 0-2.544.696-2.544 1.872 0 1.272 1.248 1.728 2.76 2.328l2.328.984c2.16.888 3.576 2.256 3.576 4.824 0 2.904-2.424 5.376-6.528 5.376M98.161 42V24.216h4.872c5.424 0 8.784 2.832 8.784 8.832 0 5.976-3.36 8.952-8.592 8.952zm3.552-2.856h1.104c3.312 0 5.376-1.776 5.376-6.096 0-4.344-2.064-5.976-5.376-5.976h-1.104zm21.212 3.192c-4.824 0-8.52-3.216-8.52-9.144 0-5.856 3.792-9.288 8.52-9.288 2.568 0 4.344 1.104 5.496 2.28l-1.872 2.256c-.888-.84-1.896-1.488-3.504-1.488-2.952 0-5.016 2.304-5.016 6.12 0 3.864 1.776 6.192 5.28 6.192.84 0 1.704-.24 2.208-.672v-3.504h-3.144v-2.904h6.312V40.2c-1.2 1.176-3.288 2.136-5.76 2.136m13.124 0c-1.8 0-3.768-.792-5.112-1.896l1.608-2.208c1.2.936 2.352 1.464 3.6 1.464 1.344 0 1.944-.576 1.944-1.416 0-1.008-1.392-1.464-2.808-2.016-1.704-.648-3.6-1.68-3.6-3.936 0-2.4 1.944-4.104 5.016-4.104 1.944 0 3.456.816 4.56 1.656l-1.584 2.136c-.96-.696-1.896-1.152-2.88-1.152-1.224 0-1.8.528-1.8 1.296 0 .984 1.248 1.344 2.664 1.872 1.776.672 3.744 1.56 3.744 4.056 0 2.352-1.848 4.248-5.352 4.248M152.097 42c.312-5.976 1.416-9.744 4.728-14.352h-7.992v-2.952h11.808v2.16c-4.032 4.92-4.68 8.4-4.968 15.144zM180.776 31.56h-4.56v3.84h4.56zm2.832 6.576h-7.392v1.824h-2.784V28.848h10.176zm9.24-14.856v2.88h-2.76v14.304c0 1.728-.408 2.568-1.536 3.048-1.2.48-2.976.528-5.424.528-.168-.84-.744-2.256-1.176-3.024 1.704.096 3.792.072 4.368.072.552 0 .768-.168.768-.672V26.16h-15.864v-2.88zm8.064 12.936v1.392h10.464v-1.392zM206.6 25.44h-4.512q-.72.9-1.584 1.728h4.752c.48-.528.936-1.152 1.344-1.728m4.776 5.304v-1.368h-10.464v1.368zm0 3.408v-1.344h-10.464v1.344zm2.976 5.688h-4.008c2.328.888 4.968 2.016 6.528 2.808l-3.216 1.44c-1.32-.792-3.72-1.968-6.024-2.88l2.112-1.368h-7.488l2.448 1.104c-1.968 1.296-5.016 2.52-7.416 3.24-.504-.576-1.584-1.68-2.232-2.208 2.352-.48 4.968-1.272 6.624-2.136h-3.6V29.28c-.336.264-.696.504-1.08.768-.48-.672-1.464-1.632-2.112-2.04 3.048-1.776 5.184-4.2 6.36-6.312l3.096.576c-.192.336-.408.648-.624.984h4.464l.456-.12 1.968 1.272c-.504.864-1.2 1.848-1.944 2.76h5.688zm23.256.912h-5.088v1.008h5.088zm-7.584 3.312v-4.752h10.2v4.752h-2.616v-.816h-5.088v.816zm.24-5.52V37.08h9.768v1.464zm9.768-3.696v1.488h-9.768v-1.488zm-6.072-9.792h-3.288c-.216.384-.48.744-.72 1.104h3.504c.192-.336.336-.72.504-1.104m-4.56 3.072v1.944c1.848-.312 2.448-.888 2.664-1.944zm6.888 4.344h4.728v1.656h-11.688v-.216c-.192 3.36-.768 7.32-2.376 10.152-.456-.408-1.536-1.08-2.136-1.296 1.944-3.432 2.136-8.28 2.136-11.592v-1.728l-.24.192a6 6 0 0 0-.672-.792h-1.944v3.408l1.92-.504.336 2.544c-.744.24-1.512.48-2.256.696v6.072c0 1.32-.24 2.04-.96 2.496s-1.752.552-3.312.528c-.072-.696-.384-1.872-.72-2.64.864.048 1.68.048 1.968.024.288 0 .408-.096.408-.408V35.76l-2.28.648-.624-2.712c.84-.192 1.8-.432 2.904-.72v-4.128h-2.52v-2.64h2.52v-4.512h2.616v4.512h2.136v.576c1.656-1.632 2.784-3.504 3.432-5.136l2.568.408c-.168.36-.336.744-.504 1.104h3.36l.384-.096 1.776 1.152c-.288.6-.672 1.296-1.08 1.944h4.584v1.968h-2.592v.96c0 .456.024.672.408.672h.888c.312 0 1.008-.048 1.296-.144.048.576.072 1.08.168 1.656-.312.12-.912.144-1.416.144h-1.656c-1.728 0-2.016-.84-2.016-2.352v-.936h-1.392c-.24 2.04-1.152 3.216-4.344 3.744a5.1 5.1 0 0 0-.696-1.248v.528c0 .408 0 .864-.024 1.32h4.392c-.144-.432-.336-.888-.48-1.272l2.208-.624c.264.552.576 1.296.792 1.896m10.128 6.624h3.816v-4.704h-3.816zm3.816-7.176v-3.888h-3.816v3.888zm7.632-6.552h6.744s0 .96-.024 1.296c-.312 10.728-.576 14.544-1.56 15.816-.672.888-1.344 1.152-2.304 1.32-.912.12-2.352.096-3.768.048-.048-.792-.432-1.992-.936-2.784 1.536.144 2.952.144 3.576.144.48 0 .744-.096 1.056-.408.696-.768 1.008-4.368 1.272-12.84h-5.136c-.624 1.44-1.368 2.76-2.112 3.792-.384-.36-1.2-.912-1.848-1.344v11.208h-6.408v1.752h-2.592V25.536h2.712c.312-1.2.6-2.736.696-3.864l3.12.432c-.408 1.2-.84 2.4-1.248 3.432h3.72v3.888c1.392-2.016 2.544-4.92 3.24-7.728l2.736.624a34 34 0 0 1-.936 3.048m2.76 10.944L258.2 37.8c-.672-1.44-2.16-3.792-3.336-5.544l2.232-1.272c1.2 1.656 2.784 3.936 3.528 5.328m11.64-7.56 2.664-.168v-.864h-2.232v-1.776h2.232v-.864h-2.592v-1.8h2.592v-.936h2.328v.936h2.568v1.8h-2.568v.864h2.304v1.776h-2.304v.696l2.592-.168.024 1.68c1.56-1.152 2.136-2.952 2.4-4.824h-1.896v-1.992h8.136s0 .6-.024.888c-.12 4.152-.288 5.928-.816 6.504-.36.48-.792.648-1.344.744-.48.072-1.248.096-2.04.072-.048-.672-.264-1.584-.6-2.16.576.072.984.072 1.224.072s.432-.048.576-.264c.216-.288.336-1.272.432-3.864h-1.392c-.312 2.664-1.152 5.064-3.48 6.648-.312-.48-1.008-1.248-1.536-1.584l.144-.096-2.4.24v1.248h-2.328v-1.032l-2.448.216zm-.096-4.032-1.752 1.896c-.672-.888-2.064-2.232-3.168-3.12l1.656-1.68c1.08.816 2.568 2.04 3.264 2.904m-.24 6.48-1.704 2.04c-.72-.864-2.256-2.16-3.432-3.024l1.68-1.848c1.104.816 2.712 1.992 3.456 2.832m-2.136 3.504 2.088 1.488a85 85 0 0 1-2.568 7.68l-2.352-1.44c.816-1.872 1.992-4.92 2.832-7.728m5.808 4.104 2.016 1.368c-1.176 1.176-3.096 2.376-4.704 3.048-.336-.456-.96-1.224-1.464-1.704 1.536-.6 3.288-1.776 4.152-2.712m10.392-.912-4.296.24v3.552c0 1.008-.168 1.536-.984 1.872-.816.312-1.848.336-3.288.336-.096-.6-.456-1.416-.792-1.992.864.024 1.752.024 2.04 0 .288 0 .336-.048.336-.264v-3.36c-3.696.216-4.704.312-5.4.48a18 18 0 0 0-1.008-1.584c.816-.048 1.56-.312 2.664-.768.528-.192 1.464-.624 2.592-1.2-2.76.192-3.528.336-4.08.48-.12-.336-.624-1.152-.984-1.56.6-.072 1.104-.264 1.776-.6.696-.288 2.76-1.464 4.176-2.712L281 32.112c-.72.48-1.608 1.032-2.568 1.536l2.4-.072c.696-.408 1.368-.84 1.968-1.296l2.544 1.032a44.6 44.6 0 0 1-5.736 3.072l5.04-.24c-.336-.36-.672-.744-.984-1.08l1.944-.912c1.32 1.248 2.76 2.88 3.312 3.888l-2.16 1.08a9 9 0 0 0-.768-1.224m-3.336 2.256 1.656-1.416c1.464.912 3.504 2.28 4.512 3.12l-1.752 1.656c-.936-.912-2.928-2.352-4.416-3.36m26.976-18.456 1.896 2.04c-3.696 1.032-8.928 1.632-13.392 1.896-.072-.624-.384-1.608-.672-2.184 4.344-.288 9.264-.912 12.168-1.752m-.12 7.272-2.328-.672c.624-.96 1.464-2.496 1.872-3.6l2.64.696c-.744 1.368-1.536 2.664-2.184 3.576m-3.36-.696-2.16.792c-.168-.912-.72-2.256-1.272-3.288l2.088-.672c.6.984 1.128 2.28 1.344 3.168m-8.976-3.816-1.536 2.304c-.816-.864-2.592-2.04-3.984-2.712l1.392-2.088c1.392.576 3.216 1.608 4.128 2.496m-1.296 6.408-1.416 2.376c-.864-.84-2.664-1.944-4.104-2.592l1.344-2.16c1.392.576 3.24 1.584 4.176 2.376M293.216 43.8l-2.184-1.92c1.176-1.776 2.832-4.704 4.104-7.464l1.896 1.92a109 109 0 0 1-3.816 7.464m15.744-7.368v-1.368h-3.12v1.368zm-3.12-5.064v1.272h3.12v-1.272zm7.224 1.272v2.424h-1.632v3.624h-5.592v2.424c0 1.392-.264 2.064-1.176 2.472-.888.384-2.208.432-3.984.432-.096-.744-.432-1.824-.792-2.544 1.152.048 2.424.048 2.808.024.384 0 .48-.096.48-.432v-2.376h-5.112v-2.256h5.112v-1.368h-6.312V32.64h6.312v-1.272h-4.896v-2.256h1.056c-.288-.816-.816-1.824-1.344-2.616l1.968-.864c.672.84 1.32 1.992 1.536 2.832l-1.32.648h11.256v3.528zm21.36-.384h-3.648c-2.88 0-3.648-1.056-3.648-3.72V21.72h2.832v2.832h5.904V27h-5.904v1.584c0 .888.144 1.224.912 1.224h3.504c.672 0 1.68-.072 2.208-.192.048.744.168 1.776.264 2.424-.504.168-1.512.216-2.424.216m-15.504 2.568v.864c0 .912-.048 1.992-.168 3.072 1.08-.48 2.496-1.2 3.936-1.968V36l-1.152 1.128c-.6-.624-1.704-1.56-2.616-2.304m3.768-2.16h-3.768v1.704l1.2-1.032c.816.576 1.848 1.416 2.568 2.04zm2.688-2.4v11.184c0 1.176-.216 1.776-1.008 2.16-.768.36-1.848.408-3.312.408-.12-.672-.504-1.608-.864-2.232.864.048 1.8.048 2.088.048.312 0 .408-.096.408-.408v-2.448c-1.2.864-2.4 1.68-3.48 2.376l-.6-1.68c-.264 1.632-.792 3.264-1.704 4.512-.408-.552-1.488-1.584-1.992-1.92 1.272-1.872 1.368-4.512 1.368-6.6v-5.4zm-3.648-5.976 2.304-.84c1.008 1.728 2.28 4.08 2.856 5.52l-2.496 1.008c-.144-.432-.36-.936-.6-1.512-6.072.6-7.056.744-7.752 1.032-.144-.552-.6-1.848-.888-2.568.432-.096.84-.432 1.32-.96s1.944-2.376 2.832-4.272l2.88.816c-.816 1.392-1.896 2.784-2.952 3.984l3.504-.264c-.36-.696-.696-1.368-1.008-1.944m9.36 17.136h2.712c.816 0 .984-.408 1.104-2.616.576.432 1.728.864 2.472 1.032-.288 3.144-1.032 4.08-3.312 4.08h-3.408c-2.832 0-3.528-.84-3.528-3.456v-7.536h2.832v2.4h6.072v2.52h-6.072v2.616c0 .84.168.96 1.128.96m14.424-17.256-1.752 2.28c-.84-.672-2.64-1.8-3.888-2.568l1.632-2.04c1.224.672 3.072 1.704 4.008 2.328m-1.176 6.336-1.704 2.304c-.864-.672-2.664-1.728-3.888-2.472l1.608-2.04c1.2.6 3.048 1.584 3.984 2.208m-1.944 4.032 2.328 1.56a101 101 0 0 1-3.096 7.704l-2.616-1.56c1.008-1.872 2.352-4.896 3.384-7.704m7.584 2.616 2.52.72c-.744 1.728-1.872 3.72-2.76 4.944-.528-.432-1.608-1.056-2.232-1.368.912-1.152 1.872-2.808 2.472-4.296m2.112-4.344v1.344h5.544v-1.344zm0-3.24v1.32h5.544v-1.32zm8.184 6.624h-4.2v5.184c0 1.224-.192 1.896-1.032 2.28-.816.384-1.944.432-3.408.408-.12-.744-.432-1.752-.744-2.448.84.024 1.8.024 2.088.024s.384-.072.384-.336v-5.112h-3.792v-8.664h3.192c.24-.696.456-1.416.6-2.04h-4.632v4.056c0 4.248-.432 10.584-3.288 14.568-.504-.456-1.704-1.224-2.4-1.536 2.688-3.696 2.928-9.144 2.928-13.032V22.92h14.976v2.568h-7.008l2.664.48c-.312.528-.624 1.056-.912 1.56h4.584zm-3.528 1.632 2.472-.936c.768 1.44 1.824 3.384 2.328 4.56l-2.64 1.152c-.432-1.248-1.392-3.264-2.16-4.776"/><path fill="#FCC30B" stroke="#000" d="M1 64h18v18H1zM19 64h18v18H19zM37 64h18v18H37zM55 64h18v18H55zM73 64h18v18H73zM91 64h18v18H91zM109 64h18v18h-18zM127 64h18v18h-18zM145 64h18v18h-18zM163 64h18v18h-18zM181 64h18v18h-18zM199 64h18v18h-18zM217 64h18v18h-18zM235 64h18v18h-18zM253 64h18v18h-18zM271 64h18v18h-18zM289 64h18v18h-18zM307 64h18v18h-18zM325 64h18v18h-18zM343 64h18v18h-18z"/><path fill="#FCC30B" d="M4.54 95.168q-.9 0-1.584-.516-.672-.528-1.056-1.56-.372-1.044-.372-2.58 0-1.524.372-2.532.384-1.02 1.056-1.524a2.6 2.6 0 0 1 1.584-.504q.912 0 1.584.516.672.504 1.044 1.512.384 1.008.384 2.532 0 1.536-.384 2.58-.372 1.032-1.044 1.56-.672.516-1.584.516m0-1.38q.396 0 .696-.3t.468-1.008q.168-.72.168-1.968 0-1.236-.168-1.932-.168-.708-.468-.984a.97.97 0 0 0-.696-.288q-.372 0-.684.288-.3.276-.48.984-.18.696-.18 1.932 0 1.248.18 1.968.18.708.48 1.008.312.3.684.3M82.984 95v-1.44h1.92v-5.604h-1.62v-1.104a7.5 7.5 0 0 0 1.152-.288q.492-.18.912-.456h1.308v7.452h1.668V95zm9.634.168q-.9 0-1.584-.516-.672-.528-1.056-1.56-.372-1.044-.372-2.58 0-1.524.372-2.532.384-1.02 1.056-1.524a2.6 2.6 0 0 1 1.584-.504q.912 0 1.584.516.672.504 1.044 1.512.384 1.008.384 2.532 0 1.536-.384 2.58-.372 1.032-1.044 1.56-.672.516-1.584.516m0-1.38q.396 0 .696-.3t.468-1.008q.168-.72.168-1.968 0-1.236-.168-1.932-.168-.708-.468-.984a.97.97 0 0 0-.696-.288q-.372 0-.684.288-.3.276-.48.984-.18.696-.18 1.932 0 1.248.18 1.968.18.708.48 1.008.312.3.684.3M170.516 95v-1.02a30 30 0 0 0 2.064-2.004q.864-.924 1.32-1.716.456-.804.456-1.488 0-.432-.156-.756a1.1 1.1 0 0 0-.456-.492q-.288-.18-.72-.18-.48 0-.888.276a4 4 0 0 0-.732.636l-.984-.948q.624-.672 1.272-1.008.66-.348 1.56-.348.84 0 1.464.348.636.336.984.948t.348 1.44q0 .804-.408 1.644a8.4 8.4 0 0 1-1.068 1.656 20 20 0 0 1-1.488 1.632q.348-.048.744-.072.408-.036.72-.036h1.92V95zm10.102.168q-.9 0-1.584-.516-.672-.528-1.056-1.56-.372-1.044-.372-2.58 0-1.524.372-2.532.384-1.02 1.056-1.524a2.6 2.6 0 0 1 1.584-.504q.912 0 1.584.516.672.504 1.044 1.512.384 1.008.384 2.532 0 1.536-.384 2.58-.372 1.032-1.044 1.56-.672.516-1.584.516m0-1.38q.396 0 .696-.3t.468-1.008q.168-.72.168-1.968 0-1.236-.168-1.932-.168-.708-.468-.984a.97.97 0 0 0-.696-.288q-.372 0-.684.288-.3.276-.48.984-.18.696-.18 1.932 0 1.248.18 1.968.18.708.48 1.008.312.3.684.3M261.276 95.168q-.696 0-1.248-.168a3.7 3.7 0 0 1-.984-.432 4 4 0 0 1-.732-.636l.828-1.116q.408.372.888.648.492.264 1.092.264a2 2 0 0 0 .792-.144 1.12 1.12 0 0 0 .72-1.092q0-.444-.216-.756-.204-.324-.732-.492t-1.488-.168v-1.272q.816 0 1.284-.168.468-.18.66-.48.204-.312.204-.708 0-.516-.312-.804-.312-.3-.876-.3-.468 0-.876.216a3.7 3.7 0 0 0-.792.564l-.912-1.092a5.3 5.3 0 0 1 1.236-.78q.648-.3 1.428-.3.852 0 1.5.276.66.276 1.02.804t.36 1.284q0 .72-.384 1.236t-1.092.792v.06q.492.132.888.432.408.288.636.732.24.444.24 1.032 0 .804-.432 1.38-.42.576-1.14.888-.708.3-1.56.3m7.342 0q-.9 0-1.584-.516-.672-.528-1.056-1.56-.372-1.044-.372-2.58 0-1.524.372-2.532.384-1.02 1.056-1.524a2.6 2.6 0 0 1 1.584-.504q.912 0 1.584.516.672.504 1.044 1.512.384 1.008.384 2.532 0 1.536-.384 2.58-.372 1.032-1.044 1.56-.672.516-1.584.516m0-1.38q.396 0 .696-.3t.468-1.008q.168-.72.168-1.968 0-1.236-.168-1.932-.168-.708-.468-.984a.97.97 0 0 0-.696-.288q-.372 0-.684.288-.3.276-.48.984-.18.696-.18 1.932 0 1.248.18 1.968.18.708.48 1.008.312.3.684.3M350.044 95v-5.46q0-.384.024-.912.024-.54.048-.936h-.06q-.156.36-.336.72t-.372.732l-1.38 2.208h4.776v1.344h-6.492v-1.2l3.312-5.388h2.124V95zm6.574.168q-.9 0-1.584-.516-.672-.528-1.056-1.56-.372-1.044-.372-2.58 0-1.524.372-2.532.384-1.02 1.056-1.524a2.6 2.6 0 0 1 1.584-.504q.912 0 1.584.516.672.504 1.044 1.512.384 1.008.384 2.532 0 1.536-.384 2.58-.372 1.032-1.044 1.56-.672.516-1.584.516m0-1.38q.396 0 .696-.3t.468-1.008q.168-.72.168-1.968 0-1.236-.168-1.932-.168-.708-.468-.984a.97.97 0 0 0-.696-.288q-.372 0-.684.288-.3.276-.48.984-.18.696-.18 1.932 0 1.248.18 1.968.18.708.48 1.008.312.3.684.3"/></svg>