<svg width="362" height="98" viewBox="0 0 362 98" fill="none" xmlns="http://www.w3.org/2000/svg">
<path d="M11.5188 39.4799H21.1475C21.2787 39.4799 21.3821 39.3726 21.3821 39.2413C21.3821 39.1817 21.3583 39.126 21.3185 39.0862L21.3066 39.0703L16.5181 32.8743L16.4704 32.8226C16.4266 32.7749 16.367 32.7471 16.2954 32.7471C16.2357 32.7471 16.184 32.7709 16.1403 32.8067L16.1124 32.8385L16.0687 32.8902L11.3955 39.0226L11.324 39.1101C11.3001 39.1459 11.2842 39.1936 11.2842 39.2413C11.2842 39.3726 11.3916 39.4799 11.5188 39.4799Z" fill="#FD9D24"/>
<path d="M21.1194 40.3506H11.4749C11.3436 40.3506 11.2402 40.458 11.2402 40.5852V48.1333C11.2402 48.2646 11.3476 48.372 11.4749 48.372H14.581V43.6236C14.581 43.4923 14.6844 43.3889 14.8157 43.3889H17.6991C17.8303 43.3889 17.9337 43.4923 17.9337 43.6236V48.372H21.1194C21.2507 48.372 21.3541 48.2646 21.3541 48.1333V40.5852C21.3541 40.454 21.2467 40.3506 21.1194 40.3506Z" fill="#FD9D24"/>
<path d="M54.4556 38.374H44.9065C44.7793 38.374 44.6719 38.4734 44.6719 38.6007V48.2407C44.6719 48.364 44.7753 48.4674 44.9065 48.4674H54.4556C54.5869 48.4674 54.6903 48.364 54.6903 48.2407V38.6007C54.6903 38.4734 54.5869 38.374 54.4556 38.374ZM49.2336 44.6694C49.2336 44.7967 49.1302 44.8961 48.999 44.8961H46.1474C46.0161 44.8961 45.9127 44.7927 45.9127 44.6694V42.9355C45.9127 42.8083 46.0161 42.7088 46.1474 42.7088H48.999C49.1263 42.7088 49.2336 42.8083 49.2336 42.9355V44.6694ZM49.2336 41.4641C49.2336 41.5913 49.1302 41.6907 48.999 41.6907H46.1474C46.0161 41.6907 45.9127 41.5873 45.9127 41.4641V39.7301C45.9127 39.6069 46.0161 39.5035 46.1474 39.5035H48.999C49.1263 39.5035 49.2336 39.6069 49.2336 39.7301V41.4641ZM53.5926 44.6694C53.5926 44.7967 53.4892 44.8961 53.3579 44.8961H50.5063C50.3751 44.8961 50.2717 44.7927 50.2717 44.6694V42.9355C50.2717 42.8083 50.3751 42.7088 50.5063 42.7088H53.3579C53.4892 42.7088 53.5926 42.8083 53.5926 42.9355V44.6694ZM53.5926 41.4641C53.5926 41.5913 53.4892 41.6907 53.3579 41.6907H50.5063C50.3751 41.6907 50.2717 41.5873 50.2717 41.4641V39.7301C50.2717 39.6069 50.3751 39.5035 50.5063 39.5035H53.3579C53.4892 39.5035 53.5926 39.6069 53.5926 39.7301V41.4641Z" fill="#FD9D24"/>
<path d="M32.2633 16H22.921C22.7977 16 22.6943 16.1034 22.6943 16.2307V48.1611C22.6943 48.2883 22.7977 48.3877 22.921 48.3877H32.2633C32.3866 48.3877 32.494 48.2844 32.494 48.1611V16.2307C32.494 16.1034 32.3906 16 32.2633 16ZM26.7073 44.7489C26.7073 44.8165 26.6516 44.8722 26.584 44.8722H24.4443C24.3767 44.8722 24.321 44.8165 24.321 44.7489V42.3667C24.321 42.2991 24.3767 42.2435 24.4443 42.2435H26.584C26.6516 42.2435 26.7073 42.2991 26.7073 42.3667V44.7489ZM26.7073 39.2727C26.7073 39.3403 26.6516 39.396 26.584 39.396H24.4443C24.3767 39.396 24.321 39.3443 24.321 39.2727V36.8906C24.321 36.823 24.3767 36.7673 24.4443 36.7673H26.584C26.6516 36.7673 26.7073 36.819 26.7073 36.8906V39.2727ZM26.7073 33.8005C26.7073 33.8681 26.6516 33.9238 26.584 33.9238H24.4443C24.3767 33.9238 24.321 33.8681 24.321 33.8005V31.4144C24.321 31.3468 24.3767 31.2911 24.4443 31.2911H26.584C26.6516 31.2911 26.7073 31.3468 26.7073 31.4144V33.8005ZM26.7073 28.3244C26.7073 28.392 26.6516 28.4476 26.584 28.4476H24.4443C24.3767 28.4476 24.321 28.392 24.321 28.3244V25.9382C24.321 25.8706 24.3767 25.8189 24.4443 25.8189H26.584C26.6516 25.8189 26.7073 25.8706 26.7073 25.9382V28.3244ZM26.7073 22.8482C26.7073 22.9158 26.6516 22.9715 26.584 22.9715H24.4443C24.3767 22.9715 24.321 22.9158 24.321 22.8482V20.4621C24.321 20.3945 24.3767 20.3388 24.4443 20.3388H26.584C26.6516 20.3388 26.7073 20.3945 26.7073 20.4621V22.8482ZM30.8992 44.7489C30.8992 44.8165 30.8435 44.8722 30.7759 44.8722H28.6362C28.5686 44.8722 28.5129 44.8165 28.5129 44.7489V42.3667C28.5129 42.2991 28.5686 42.2435 28.6362 42.2435H30.7759C30.8435 42.2435 30.8992 42.2991 30.8992 42.3667V44.7489ZM30.8992 39.2727C30.8992 39.3403 30.8435 39.396 30.7759 39.396H28.6362C28.5686 39.396 28.5129 39.3443 28.5129 39.2727V36.8906C28.5129 36.823 28.5686 36.7673 28.6362 36.7673H30.7759C30.8435 36.7673 30.8992 36.819 30.8992 36.8906V39.2727ZM30.8992 33.8005C30.8992 33.8681 30.8435 33.9238 30.7759 33.9238H28.6362C28.5686 33.9238 28.5129 33.8681 28.5129 33.8005V31.4144C28.5129 31.3468 28.5686 31.2911 28.6362 31.2911H30.7759C30.8435 31.2911 30.8992 31.3468 30.8992 31.4144V33.8005ZM30.8992 28.3244C30.8992 28.392 30.8435 28.4476 30.7759 28.4476H28.6362C28.5686 28.4476 28.5129 28.392 28.5129 28.3244V25.9382C28.5129 25.8706 28.5686 25.8189 28.6362 25.8189H30.7759C30.8435 25.8189 30.8992 25.8706 30.8992 25.9382V28.3244ZM30.8992 22.8482C30.8992 22.9158 30.8435 22.9715 30.7759 22.9715H28.6362C28.5686 22.9715 28.5129 22.9158 28.5129 22.8482V20.4621C28.5129 20.3945 28.5686 20.3388 28.6362 20.3388H30.7759C30.8435 20.3388 30.8992 20.3945 30.8992 20.4621V22.8482Z" fill="#FD9D24"/>
<path d="M44.8784 35.292H54.4872C54.5945 35.292 54.6781 35.3795 54.6781 35.4829V37.4037C54.6781 37.5111 54.5906 37.5946 54.4872 37.5946H44.8784C44.771 37.5946 44.6875 37.5071 44.6875 37.4037V35.4829C44.6875 35.3755 44.775 35.292 44.8784 35.292Z" fill="#FD9D24"/>
<path d="M43.5501 22.0286C43.5183 21.9252 43.4268 21.8496 43.3155 21.8496C43.2638 21.8496 43.22 21.8695 43.1803 21.8934C43.1763 21.8934 43.1683 21.9013 43.1644 21.9053L43.0848 22.0047L33.9016 33.653L33.8579 33.7087C33.8101 33.7564 33.7783 33.82 33.7783 33.8916V48.2044C33.7783 48.3317 33.8817 48.4311 34.009 48.4311H43.3433C43.4706 48.4311 43.57 48.3277 43.57 48.2044V22.124C43.57 22.0882 43.5621 22.0564 43.5462 22.0286H43.5501ZM39.6844 28.3518L39.752 28.2683C40.3804 27.461 41.4383 26.1606 41.9553 25.5242L42.0229 25.4447C42.0706 25.3851 42.1462 25.3493 42.2297 25.3493C42.357 25.3493 42.4604 25.4407 42.4843 25.564V28.5109C42.4843 28.6541 42.3729 28.7654 42.2297 28.7734C42.2257 28.7734 42.2218 28.7734 42.2178 28.7734C42.2138 28.7734 42.2098 28.7734 42.2059 28.7734H39.9111C39.9111 28.7734 39.9031 28.7734 39.8991 28.7734C39.8951 28.7734 39.8912 28.7734 39.8872 28.7734C39.748 28.7654 39.6327 28.6541 39.6327 28.5109C39.6327 28.4512 39.6525 28.3956 39.6844 28.3518ZM38.2287 44.665C38.2287 44.7923 38.1253 44.8917 38.002 44.8917H35.218C35.0908 44.8917 34.9913 44.7883 34.9913 44.665V42.9231C34.9913 42.7959 35.0947 42.6964 35.218 42.6964H38.002C38.1293 42.6964 38.2287 42.7998 38.2287 42.9231V44.665ZM38.2287 41.4477C38.2287 41.575 38.1253 41.6744 38.002 41.6744H35.218C35.0908 41.6744 34.9913 41.571 34.9913 41.4477V39.7058C34.9913 39.5786 35.0947 39.4791 35.218 39.4791H38.002C38.1293 39.4791 38.2287 39.5786 38.2287 39.7058V41.4477ZM38.2287 38.2264C38.2287 38.3497 38.1253 38.4531 38.002 38.4531H35.218C35.0908 38.4531 34.9913 38.3497 34.9913 38.2264V36.4845C34.9913 36.3573 35.0947 36.2579 35.218 36.2579H38.002C38.1293 36.2579 38.2287 36.3613 38.2287 36.4845V38.2264ZM38.2367 31.1674V35.0051C38.2367 35.1324 38.1333 35.2318 38.01 35.2318H35.226C35.0987 35.2318 34.9953 35.1284 34.9953 35.0051V34.5239C34.9953 34.4921 35.0033 34.4643 35.0112 34.4404C35.0152 34.4325 35.0152 34.4285 35.0271 34.4126C35.0311 34.4007 35.0391 34.3927 35.047 34.3808C35.055 34.3688 35.0629 34.3569 35.0749 34.345C35.4288 33.8359 37.0356 31.8554 37.7117 31.0283L37.7793 30.9447C37.827 30.8851 37.9026 30.8493 37.9861 30.8493C38.1134 30.8493 38.2168 30.9408 38.2407 31.064V31.1674H38.2367ZM42.4882 44.665C42.4882 44.7923 42.3848 44.8917 42.2615 44.8917H39.4776C39.3503 44.8917 39.2469 44.7883 39.2469 44.665V42.9231C39.2469 42.7959 39.3503 42.6964 39.4776 42.6964H42.2615C42.3848 42.6964 42.4882 42.7998 42.4882 42.9231V44.665ZM42.4882 41.4477C42.4882 41.575 42.3848 41.6744 42.2615 41.6744H39.4776C39.3503 41.6744 39.2469 41.571 39.2469 41.4477V39.7058C39.2469 39.5786 39.3503 39.4791 39.4776 39.4791H42.2615C42.3848 39.4791 42.4882 39.5786 42.4882 39.7058V41.4477ZM42.4882 38.2264C42.4882 38.3497 42.3848 38.4531 42.2615 38.4531H39.4776C39.3503 38.4531 39.2469 38.3497 39.2469 38.2264V36.4845C39.2469 36.3573 39.3503 36.2579 39.4776 36.2579H42.2615C42.3848 36.2579 42.4882 36.3613 42.4882 36.4845V38.2264ZM42.4882 35.0051C42.4882 35.1324 42.3848 35.2318 42.2615 35.2318H39.4776C39.3503 35.2318 39.2469 35.1284 39.2469 35.0051V33.2633C39.2469 33.136 39.3503 33.0366 39.4776 33.0366H42.2615C42.3848 33.0366 42.4882 33.14 42.4882 33.2633V35.0051ZM42.4882 31.7839C42.4882 31.9111 42.3848 32.0105 42.2615 32.0105H39.4776C39.3503 32.0105 39.2469 31.9071 39.2469 31.7839V30.042C39.2469 29.9147 39.3503 29.8113 39.4776 29.8113H42.2615C42.3848 29.8113 42.4882 29.9147 42.4882 30.042V31.7839Z" fill="#FD9D24"/>
<path d="M88.488 42.336C86.112 42.336 83.736 41.4 82.008 39.744L84.048 37.296C85.32 38.472 87 39.264 88.56 39.264C90.408 39.264 91.392 38.472 91.392 37.224C91.392 35.904 90.312 35.496 88.728 34.824L86.352 33.816C84.552 33.072 82.752 31.632 82.752 29.04C82.752 26.136 85.296 23.904 88.896 23.904C90.96 23.904 93.024 24.72 94.464 26.184L92.664 28.416C91.536 27.48 90.36 26.952 88.896 26.952C87.336 26.952 86.352 27.648 86.352 28.824C86.352 30.096 87.6 30.552 89.112 31.152L91.44 32.136C93.6 33.024 95.016 34.392 95.016 36.96C95.016 39.864 92.592 42.336 88.488 42.336ZM98.1606 42V24.216H103.033C108.457 24.216 111.817 27.048 111.817 33.048C111.817 39.024 108.457 42 103.225 42H98.1606ZM101.713 39.144H102.817C106.129 39.144 108.193 37.368 108.193 33.048C108.193 28.704 106.129 27.072 102.817 27.072H101.713V39.144ZM122.925 42.336C118.101 42.336 114.405 39.12 114.405 33.192C114.405 27.336 118.197 23.904 122.925 23.904C125.493 23.904 127.269 25.008 128.421 26.184L126.549 28.44C125.661 27.6 124.653 26.952 123.045 26.952C120.093 26.952 118.029 29.256 118.029 33.072C118.029 36.936 119.805 39.264 123.309 39.264C124.149 39.264 125.013 39.024 125.517 38.592V35.088H122.373V32.184H128.685V40.2C127.485 41.376 125.397 42.336 122.925 42.336ZM136.049 42.336C134.249 42.336 132.281 41.544 130.937 40.44L132.545 38.232C133.745 39.168 134.897 39.696 136.145 39.696C137.489 39.696 138.089 39.12 138.089 38.28C138.089 37.272 136.697 36.816 135.281 36.264C133.577 35.616 131.681 34.584 131.681 32.328C131.681 29.928 133.625 28.224 136.697 28.224C138.641 28.224 140.153 29.04 141.257 29.88L139.673 32.016C138.713 31.32 137.777 30.864 136.793 30.864C135.569 30.864 134.993 31.392 134.993 32.16C134.993 33.144 136.241 33.504 137.657 34.032C139.433 34.704 141.401 35.592 141.401 38.088C141.401 40.44 139.553 42.336 136.049 42.336ZM149.601 42V39.144H153.417V28.368H150.201V26.184C151.977 25.848 153.201 25.392 154.329 24.696H156.945V39.144H160.281V42H149.601ZM163.734 42V39.144H167.55V28.368H164.334V26.184C166.11 25.848 167.334 25.392 168.462 24.696H171.078V39.144H174.414V42H163.734Z" fill="#FD9D24"/>
<path d="M191.632 31.152L193.552 31.968C192.4 36.936 189.904 40.656 186.976 42.624C186.496 42.024 185.368 40.92 184.672 40.488C186.928 39.144 188.824 36.792 189.928 33.96H185.272V31.272H191.128L191.632 31.152ZM203.944 28.392L206.56 30.336C204.76 31.968 202.552 33.768 200.728 34.992C202.408 37.296 204.592 39.072 207.4 40.176C206.728 40.728 205.84 41.904 205.408 42.672C201.928 41.112 199.456 38.544 197.656 35.256V40.752C197.656 42.312 197.344 43.08 196.312 43.56C195.328 44.016 193.864 44.04 191.848 44.04C191.728 43.224 191.272 41.952 190.888 41.184C192.088 41.256 193.576 41.256 194.008 41.232C194.44 41.208 194.584 41.088 194.584 40.704V29.256H188.584V26.52H197.488C195.448 25.608 192.664 24.672 190.456 24.096L191.872 21.768C194.656 22.368 198.664 23.64 200.704 24.696L199.168 27.36C198.76 27.12 198.232 26.856 197.656 26.592V28.584C198.112 30.096 198.688 31.512 199.36 32.808C200.992 31.512 202.792 29.832 203.944 28.392ZM222.544 25.344V24.528H216.832V22.704H222.544V21.672H225.328V22.704H230.752V24.528H225.328V25.344H230.008V27.048H217.72V25.344H222.544ZM219.256 29.448V30.888H220.984V29.448H219.256ZM228.28 30.888V29.448H226.744V30.888H228.28ZM223.096 30.888H224.656V29.448H223.096V30.888ZM216.928 32.616V27.72H230.728V32.616H216.928ZM217.384 36.12L215.368 36.768C215.32 36.432 215.272 36.048 215.2 35.616C210.952 36.24 210.16 36.456 209.656 36.696C209.512 36.216 209.128 35.016 208.84 34.368C209.416 34.248 209.896 33.672 210.616 32.76C210.904 32.4 211.432 31.656 212.08 30.648C210.328 30.864 209.824 30.984 209.464 31.152C209.344 30.672 208.936 29.52 208.672 28.92C209.104 28.8 209.488 28.32 209.944 27.576C210.4 26.928 211.792 24.168 212.56 21.648L214.888 22.56C214.096 24.528 213.04 26.664 211.936 28.392L213.472 28.272C214.024 27.264 214.576 26.136 215.032 25.032L217.192 26.352C215.92 28.872 214.264 31.536 212.536 33.72L214.744 33.456C214.576 32.808 214.408 32.16 214.216 31.608L216.112 31.104C216.664 32.736 217.216 34.848 217.384 36.12ZM209.704 37.44L211.864 37.776C211.672 40.032 211.288 42.432 210.784 43.968C210.304 43.704 209.272 43.392 208.696 43.248C209.248 41.736 209.56 39.528 209.704 37.44ZM212.224 37.728L214.096 37.392C214.384 39.168 214.6 41.4 214.648 42.912L212.632 43.272C212.632 41.76 212.44 39.504 212.224 37.728ZM214.456 37.272L216.208 36.768C216.664 38.112 217.192 39.888 217.384 41.064L215.56 41.688C215.368 40.488 214.888 38.664 214.456 37.272ZM220.312 38.328V39.096H227.272V38.328H220.312ZM220.312 36.576V37.296H227.272V36.576H220.312ZM220.312 34.8V35.52H227.272V34.8H220.312ZM229.936 40.536H226.816C228.424 41.064 230.056 41.688 231.136 42.12L230.008 44.112C228.736 43.512 226.648 42.648 224.824 41.976L225.616 40.536H222.064L223.504 41.952C221.608 42.768 219.208 43.656 217.456 44.232C217.24 43.704 216.808 42.84 216.472 42.264C217.792 41.832 219.64 41.184 221.008 40.536H217.792V33.336H229.936V40.536ZM244.96 32.472H243.064V32.952C243.064 34.44 242.992 36.168 242.704 37.872C243.304 37.944 243.76 37.944 244.024 37.944C244.288 37.944 244.456 37.872 244.624 37.656C244.84 37.296 244.912 36.024 244.96 32.472ZM252.328 29.952L254.896 30.432C254.128 33.576 253.072 36.36 251.608 38.664C251.992 40.248 252.424 41.16 252.88 41.16C253.24 41.16 253.432 40.032 253.504 37.584C254.032 38.184 254.848 38.808 255.496 39.072C255.136 42.768 254.392 43.8 252.544 43.8C251.368 43.8 250.456 42.792 249.76 41.136C248.776 42.288 247.648 43.272 246.4 44.112C246.016 43.632 245.008 42.624 244.408 42.216C246.184 41.16 247.672 39.792 248.896 38.136C248.248 35.256 247.912 31.512 247.768 27.576H243.064V30.168H247.336C247.336 30.168 247.336 30.816 247.312 31.128C247.24 36.48 247.144 38.616 246.664 39.264C246.28 39.792 245.92 40.008 245.344 40.104C244.864 40.2 244.096 40.224 243.28 40.2C243.208 39.48 243.016 38.544 242.68 37.944C242.296 40.248 241.528 42.504 239.992 44.16C239.608 43.68 238.528 42.768 237.928 42.408C238.888 41.328 239.512 40.008 239.848 38.664C237.736 39.528 235.48 40.464 233.656 41.208L232.744 38.352C233.464 38.16 234.304 37.872 235.24 37.56V30H233.152V27.36H235.24V21.984H237.88V27.36H239.752V30H237.88V36.624L239.728 35.976L240.064 37.728C240.4 36.12 240.448 34.416 240.448 32.952V24.984H247.672C247.648 23.856 247.624 22.752 247.624 21.648H250.312C250.288 22.776 250.288 23.88 250.312 24.984H252.184C251.704 24.24 251.008 23.376 250.36 22.704L252.304 21.552C253.192 22.392 254.2 23.568 254.632 24.36L253.624 24.984H254.944V27.576H250.36C250.48 30.096 250.648 32.472 250.912 34.512C251.512 33.12 251.968 31.584 252.328 29.952ZM262.264 31.92L264.472 32.184V27.048C263.296 29.52 261.808 31.968 260.32 34.008L261.952 33.816C262.072 33.216 262.168 32.592 262.264 31.92ZM268.936 26.496H266.92V28.608H268.936V26.496ZM266.92 32.856H268.936V30.864H266.92V32.856ZM267.616 36.648L269.872 35.928C270.616 37.92 271.504 40.536 271.792 42.12L269.464 43.008C269.392 42.552 269.272 42.024 269.128 41.472C265.456 42.696 264.736 42.96 264.28 43.296C264.16 42.744 263.728 41.808 263.392 41.352C263.848 41.136 264.472 40.68 264.472 39.696V32.496C263.656 37.728 261.784 41.472 258.184 43.8C257.944 43.32 257.224 42.312 256.768 41.88C258.976 40.584 260.44 38.64 261.328 36.096C258.592 36.48 257.992 36.648 257.584 36.816C257.464 36.36 257.08 35.208 256.792 34.608C257.32 34.488 257.8 33.936 258.4 33.096C258.712 32.688 259.384 31.68 260.104 30.384C258.52 30.576 258.016 30.72 257.68 30.888C257.536 30.36 257.152 29.208 256.864 28.56C257.248 28.44 257.608 27.984 257.968 27.36C258.328 26.736 259.432 24.288 259.96 21.984L262.6 22.584C261.952 24.528 260.944 26.568 260.008 28.2L261.28 28.104C261.592 27.432 261.904 26.736 262.168 26.088L264.472 27V24.096H266.776C266.512 23.52 266.176 22.944 265.864 22.488L268.144 21.672C268.672 22.416 269.2 23.328 269.536 24.096H271.216V35.256H266.92V39.744L268.504 39.264C268.216 38.376 267.928 37.464 267.616 36.648ZM277.408 22.752L279.208 23.88C278.536 26.208 277.672 29.064 277 31.104C278.488 33.24 278.824 35.136 278.824 36.72C278.824 38.4 278.464 39.552 277.744 40.128C277.384 40.44 276.904 40.632 276.352 40.704C275.944 40.776 275.392 40.776 274.864 40.752C274.84 40.056 274.648 38.952 274.288 38.232C274.696 38.256 275.032 38.256 275.344 38.256C275.56 38.256 275.8 38.184 275.992 38.04C276.28 37.8 276.424 37.176 276.424 36.36C276.4 35.04 276.088 33.312 274.672 31.368C275.2 29.616 275.776 27.144 276.208 25.32H274.288V44.064H271.936V22.848H277.024L277.408 22.752Z" fill="#FD9D24"/>
<rect x="1" y="64" width="18" height="18" fill="#FD9D24" stroke="black"/>
<rect x="19" y="64" width="18" height="18" fill="#FD9D24" stroke="black"/>
<rect x="37" y="64" width="18" height="18" fill="#FD9D24" stroke="black"/>
<rect x="55" y="64" width="18" height="18" fill="#FD9D24" stroke="black"/>
<rect x="73" y="64" width="18" height="18" fill="#FD9D24" stroke="black"/>
<rect x="91" y="64" width="18" height="18" fill="#FD9D24" stroke="black"/>
<rect x="109" y="64" width="18" height="18" fill="#FD9D24" stroke="black"/>
<rect x="127" y="64" width="18" height="18" fill="#FD9D24" stroke="black"/>
<rect x="145" y="64" width="18" height="18" fill="#FD9D24" stroke="black"/>
<rect x="163" y="64" width="18" height="18" fill="#FD9D24" stroke="black"/>
<rect x="181" y="64" width="18" height="18" fill="#FD9D24" stroke="black"/>
<rect x="199" y="64" width="18" height="18" fill="#FD9D24" stroke="black"/>
<rect x="217" y="64" width="18" height="18" fill="#FD9D24" stroke="black"/>
<rect x="235" y="64" width="18" height="18" fill="#FD9D24" fill-opacity="0.3" stroke="black"/>
<rect x="253" y="64" width="18" height="18" fill="#FD9D24" fill-opacity="0.3" stroke="black"/>
<rect x="271" y="64" width="18" height="18" fill="#FD9D24" fill-opacity="0.3" stroke="black"/>
<rect x="289" y="64" width="18" height="18" fill="#FD9D24" fill-opacity="0.3" stroke="black"/>
<rect x="307" y="64" width="18" height="18" fill="#FD9D24" fill-opacity="0.3" stroke="black"/>
<rect x="325" y="64" width="18" height="18" fill="#FD9D24" fill-opacity="0.3" stroke="black"/>
<rect x="343" y="64" width="18" height="18" fill="#FD9D24" fill-opacity="0.3" stroke="black"/>
<path d="M4.54 95.168C3.94 95.168 3.412 94.996 2.956 94.652C2.508 94.3 2.156 93.78 1.9 93.092C1.652 92.396 1.528 91.536 1.528 90.512C1.528 89.496 1.652 88.652 1.9 87.98C2.156 87.3 2.508 86.792 2.956 86.456C3.412 86.12 3.94 85.952 4.54 85.952C5.148 85.952 5.676 86.124 6.124 86.468C6.572 86.804 6.92 87.308 7.168 87.98C7.424 88.652 7.552 89.496 7.552 90.512C7.552 91.536 7.424 92.396 7.168 93.092C6.92 93.78 6.572 94.3 6.124 94.652C5.676 94.996 5.148 95.168 4.54 95.168ZM4.54 93.788C4.804 93.788 5.036 93.688 5.236 93.488C5.436 93.288 5.592 92.952 5.704 92.48C5.816 92 5.872 91.344 5.872 90.512C5.872 89.688 5.816 89.044 5.704 88.58C5.592 88.108 5.436 87.78 5.236 87.596C5.036 87.404 4.804 87.308 4.54 87.308C4.292 87.308 4.064 87.404 3.856 87.596C3.656 87.78 3.496 88.108 3.376 88.58C3.256 89.044 3.196 89.688 3.196 90.512C3.196 91.344 3.256 92 3.376 92.48C3.496 92.952 3.656 93.288 3.856 93.488C4.064 93.688 4.292 93.788 4.54 93.788Z" fill="#FD9D24"/>
<path d="M82.984 95V93.56H84.904V87.956H83.284V86.852C83.732 86.772 84.116 86.676 84.436 86.564C84.764 86.444 85.068 86.292 85.348 86.108H86.656V93.56H88.324V95H82.984ZM92.6181 95.168C92.0181 95.168 91.4901 94.996 91.0341 94.652C90.5861 94.3 90.2341 93.78 89.9781 93.092C89.7301 92.396 89.6061 91.536 89.6061 90.512C89.6061 89.496 89.7301 88.652 89.9781 87.98C90.2341 87.3 90.5861 86.792 91.0341 86.456C91.4901 86.12 92.0181 85.952 92.6181 85.952C93.2261 85.952 93.7541 86.124 94.2021 86.468C94.6501 86.804 94.9981 87.308 95.2461 87.98C95.5021 88.652 95.6301 89.496 95.6301 90.512C95.6301 91.536 95.5021 92.396 95.2461 93.092C94.9981 93.78 94.6501 94.3 94.2021 94.652C93.7541 94.996 93.2261 95.168 92.6181 95.168ZM92.6181 93.788C92.8821 93.788 93.1141 93.688 93.3141 93.488C93.5141 93.288 93.6701 92.952 93.7821 92.48C93.8941 92 93.9501 91.344 93.9501 90.512C93.9501 89.688 93.8941 89.044 93.7821 88.58C93.6701 88.108 93.5141 87.78 93.3141 87.596C93.1141 87.404 92.8821 87.308 92.6181 87.308C92.3701 87.308 92.1421 87.404 91.9341 87.596C91.7341 87.78 91.5741 88.108 91.4541 88.58C91.3341 89.044 91.2741 89.688 91.2741 90.512C91.2741 91.344 91.3341 92 91.4541 92.48C91.5741 92.952 91.7341 93.288 91.9341 93.488C92.1421 93.688 92.3701 93.788 92.6181 93.788Z" fill="#FD9D24"/>
<path d="M170.516 95V93.98C171.324 93.26 172.012 92.592 172.58 91.976C173.156 91.36 173.596 90.788 173.9 90.26C174.204 89.724 174.356 89.228 174.356 88.772C174.356 88.484 174.304 88.232 174.2 88.016C174.096 87.8 173.944 87.636 173.744 87.524C173.552 87.404 173.312 87.344 173.024 87.344C172.704 87.344 172.408 87.436 172.136 87.62C171.872 87.796 171.628 88.008 171.404 88.256L170.42 87.308C170.836 86.86 171.26 86.524 171.692 86.3C172.132 86.068 172.652 85.952 173.252 85.952C173.812 85.952 174.3 86.068 174.716 86.3C175.14 86.524 175.468 86.84 175.7 87.248C175.932 87.656 176.048 88.136 176.048 88.688C176.048 89.224 175.912 89.772 175.64 90.332C175.376 90.884 175.02 91.436 174.572 91.988C174.124 92.54 173.628 93.084 173.084 93.62C173.316 93.588 173.564 93.564 173.828 93.548C174.1 93.524 174.34 93.512 174.548 93.512H176.468V95H170.516ZM180.618 95.168C180.018 95.168 179.49 94.996 179.034 94.652C178.586 94.3 178.234 93.78 177.978 93.092C177.73 92.396 177.606 91.536 177.606 90.512C177.606 89.496 177.73 88.652 177.978 87.98C178.234 87.3 178.586 86.792 179.034 86.456C179.49 86.12 180.018 85.952 180.618 85.952C181.226 85.952 181.754 86.124 182.202 86.468C182.65 86.804 182.998 87.308 183.246 87.98C183.502 88.652 183.63 89.496 183.63 90.512C183.63 91.536 183.502 92.396 183.246 93.092C182.998 93.78 182.65 94.3 182.202 94.652C181.754 94.996 181.226 95.168 180.618 95.168ZM180.618 93.788C180.882 93.788 181.114 93.688 181.314 93.488C181.514 93.288 181.67 92.952 181.782 92.48C181.894 92 181.95 91.344 181.95 90.512C181.95 89.688 181.894 89.044 181.782 88.58C181.67 88.108 181.514 87.78 181.314 87.596C181.114 87.404 180.882 87.308 180.618 87.308C180.37 87.308 180.142 87.404 179.934 87.596C179.734 87.78 179.574 88.108 179.454 88.58C179.334 89.044 179.274 89.688 179.274 90.512C179.274 91.344 179.334 92 179.454 92.48C179.574 92.952 179.734 93.288 179.934 93.488C180.142 93.688 180.37 93.788 180.618 93.788Z" fill="#FD9D24"/>
<path d="M261.276 95.168C260.812 95.168 260.396 95.112 260.028 95C259.66 94.896 259.332 94.752 259.044 94.568C258.764 94.376 258.52 94.164 258.312 93.932L259.14 92.816C259.412 93.064 259.708 93.28 260.028 93.464C260.356 93.64 260.72 93.728 261.12 93.728C261.424 93.728 261.688 93.68 261.912 93.584C262.144 93.488 262.32 93.348 262.44 93.164C262.568 92.98 262.632 92.756 262.632 92.492C262.632 92.196 262.56 91.944 262.416 91.736C262.28 91.52 262.036 91.356 261.684 91.244C261.332 91.132 260.836 91.076 260.196 91.076V89.804C260.74 89.804 261.168 89.748 261.48 89.636C261.792 89.516 262.012 89.356 262.14 89.156C262.276 88.948 262.344 88.712 262.344 88.448C262.344 88.104 262.24 87.836 262.032 87.644C261.824 87.444 261.532 87.344 261.156 87.344C260.844 87.344 260.552 87.416 260.28 87.56C260.016 87.696 259.752 87.884 259.488 88.124L258.576 87.032C258.968 86.704 259.38 86.444 259.812 86.252C260.244 86.052 260.72 85.952 261.24 85.952C261.808 85.952 262.308 86.044 262.74 86.228C263.18 86.412 263.52 86.68 263.76 87.032C264 87.384 264.12 87.812 264.12 88.316C264.12 88.796 263.992 89.208 263.736 89.552C263.48 89.896 263.116 90.16 262.644 90.344V90.404C262.972 90.492 263.268 90.636 263.532 90.836C263.804 91.028 264.016 91.272 264.168 91.568C264.328 91.864 264.408 92.208 264.408 92.6C264.408 93.136 264.264 93.596 263.976 93.98C263.696 94.364 263.316 94.66 262.836 94.868C262.364 95.068 261.844 95.168 261.276 95.168ZM268.618 95.168C268.018 95.168 267.49 94.996 267.034 94.652C266.586 94.3 266.234 93.78 265.978 93.092C265.73 92.396 265.606 91.536 265.606 90.512C265.606 89.496 265.73 88.652 265.978 87.98C266.234 87.3 266.586 86.792 267.034 86.456C267.49 86.12 268.018 85.952 268.618 85.952C269.226 85.952 269.754 86.124 270.202 86.468C270.65 86.804 270.998 87.308 271.246 87.98C271.502 88.652 271.63 89.496 271.63 90.512C271.63 91.536 271.502 92.396 271.246 93.092C270.998 93.78 270.65 94.3 270.202 94.652C269.754 94.996 269.226 95.168 268.618 95.168ZM268.618 93.788C268.882 93.788 269.114 93.688 269.314 93.488C269.514 93.288 269.67 92.952 269.782 92.48C269.894 92 269.95 91.344 269.95 90.512C269.95 89.688 269.894 89.044 269.782 88.58C269.67 88.108 269.514 87.78 269.314 87.596C269.114 87.404 268.882 87.308 268.618 87.308C268.37 87.308 268.142 87.404 267.934 87.596C267.734 87.78 267.574 88.108 267.454 88.58C267.334 89.044 267.274 89.688 267.274 90.512C267.274 91.344 267.334 92 267.454 92.48C267.574 92.952 267.734 93.288 267.934 93.488C268.142 93.688 268.37 93.788 268.618 93.788Z" fill="#FD9D24"/>
<path d="M350.044 95V89.54C350.044 89.284 350.052 88.98 350.068 88.628C350.084 88.268 350.1 87.956 350.116 87.692H350.056C349.952 87.932 349.84 88.172 349.72 88.412C349.6 88.652 349.476 88.896 349.348 89.144L347.968 91.352H352.744V92.696H346.252V91.496L349.564 86.108H351.688V95H350.044ZM356.618 95.168C356.018 95.168 355.49 94.996 355.034 94.652C354.586 94.3 354.234 93.78 353.978 93.092C353.73 92.396 353.606 91.536 353.606 90.512C353.606 89.496 353.73 88.652 353.978 87.98C354.234 87.3 354.586 86.792 355.034 86.456C355.49 86.12 356.018 85.952 356.618 85.952C357.226 85.952 357.754 86.124 358.202 86.468C358.65 86.804 358.998 87.308 359.246 87.98C359.502 88.652 359.63 89.496 359.63 90.512C359.63 91.536 359.502 92.396 359.246 93.092C358.998 93.78 358.65 94.3 358.202 94.652C357.754 94.996 357.226 95.168 356.618 95.168ZM356.618 93.788C356.882 93.788 357.114 93.688 357.314 93.488C357.514 93.288 357.67 92.952 357.782 92.48C357.894 92 357.95 91.344 357.95 90.512C357.95 89.688 357.894 89.044 357.782 88.58C357.67 88.108 357.514 87.78 357.314 87.596C357.114 87.404 356.882 87.308 356.618 87.308C356.37 87.308 356.142 87.404 355.934 87.596C355.734 87.78 355.574 88.108 355.454 88.58C355.334 89.044 355.274 89.688 355.274 90.512C355.274 91.344 355.334 92 355.454 92.48C355.574 92.952 355.734 93.288 355.934 93.488C356.142 93.688 356.37 93.788 356.618 93.788Z" fill="#FD9D24"/>
</svg>
