<svg width="362" height="98" viewBox="0 0 362 98" fill="none" xmlns="http://www.w3.org/2000/svg">
<path d="M27.4323 45.3746V46.2745C27.4323 46.2745 27.4323 46.2865 27.4323 46.2944C27.4323 46.3024 27.4323 46.3104 27.4323 46.3143C27.4402 46.5373 27.6235 46.7165 27.8466 46.7205C27.8466 46.7205 27.8506 46.7205 27.8546 46.7205C27.8586 46.7205 27.8625 46.7205 27.8665 46.7205H38.4437C38.4437 46.7205 38.4477 46.7205 38.4516 46.7205C38.4556 46.7205 38.4596 46.7205 38.4596 46.7205C38.6907 46.7165 38.8739 46.5293 38.8779 46.2984V45.2791C44.8298 43.328 49.2917 38.5061 50.2718 32.629C50.2718 32.6171 50.2718 32.6051 50.2757 32.5932C50.2757 32.5733 50.2797 32.5534 50.2797 32.5335C50.2797 32.2985 50.0885 32.1074 49.8535 32.1074H16.15C15.911 32.1074 15.7197 32.2985 15.7197 32.5335L15.7436 32.7246C16.7754 38.6574 21.3569 43.5072 27.4323 45.3786" fill="#DDA63A"/>
<path d="M38.8663 17.7251C38.7269 17.9242 35.4721 22.6068 38.938 26.3974C40.5276 28.1374 40.3921 29.6704 39.938 30.7056H42.161C42.6112 29.1767 42.4239 27.2574 40.6192 25.2825C38.0656 22.4913 40.6511 18.7166 40.6909 18.6568C40.9977 18.2268 40.8344 17.6734 40.3284 17.4106C39.8225 17.1517 39.1691 17.2911 38.8623 17.7172" fill="#DDA63A"/>
<path d="M33.2326 30.7058H35.4596C35.9098 29.1768 35.7226 27.2576 33.9179 25.2826C31.3602 22.4914 33.9497 18.7167 33.9896 18.657C34.2924 18.2269 34.133 17.6735 33.627 17.4147C33.1251 17.1598 32.4677 17.2952 32.165 17.7212C32.0255 17.9164 28.7667 22.6029 32.2367 26.3935C33.8262 28.1335 33.6868 29.6665 33.2366 30.7018" fill="#DDA63A"/>
<path d="M25.456 17.725C25.3166 17.9241 22.0578 22.6067 25.5277 26.3973C27.1173 28.1373 26.9818 29.6703 26.5276 30.7056H28.7506C29.2008 29.1766 29.0136 27.2574 27.2049 25.2824C24.6473 22.4912 27.2368 18.7165 27.2766 18.6568C27.5794 18.2267 27.416 17.6733 26.9141 17.4145C26.4121 17.1557 25.7548 17.295 25.452 17.7211" fill="#DDA63A"/>
<path d="M88.488 42.336C86.112 42.336 83.736 41.4 82.008 39.744L84.048 37.296C85.32 38.472 87 39.264 88.56 39.264C90.408 39.264 91.392 38.472 91.392 37.224C91.392 35.904 90.312 35.496 88.728 34.824L86.352 33.816C84.552 33.072 82.752 31.632 82.752 29.04C82.752 26.136 85.296 23.904 88.896 23.904C90.96 23.904 93.024 24.72 94.464 26.184L92.664 28.416C91.536 27.48 90.36 26.952 88.896 26.952C87.336 26.952 86.352 27.648 86.352 28.824C86.352 30.096 87.6 30.552 89.112 31.152L91.44 32.136C93.6 33.024 95.016 34.392 95.016 36.96C95.016 39.864 92.592 42.336 88.488 42.336ZM98.1606 42V24.216H103.033C108.457 24.216 111.817 27.048 111.817 33.048C111.817 39.024 108.457 42 103.225 42H98.1606ZM101.713 39.144H102.817C106.129 39.144 108.193 37.368 108.193 33.048C108.193 28.704 106.129 27.072 102.817 27.072H101.713V39.144ZM122.925 42.336C118.101 42.336 114.405 39.12 114.405 33.192C114.405 27.336 118.197 23.904 122.925 23.904C125.493 23.904 127.269 25.008 128.421 26.184L126.549 28.44C125.661 27.6 124.653 26.952 123.045 26.952C120.093 26.952 118.029 29.256 118.029 33.072C118.029 36.936 119.805 39.264 123.309 39.264C124.149 39.264 125.013 39.024 125.517 38.592V35.088H122.373V32.184H128.685V40.2C127.485 41.376 125.397 42.336 122.925 42.336ZM136.049 42.336C134.249 42.336 132.281 41.544 130.937 40.44L132.545 38.232C133.745 39.168 134.897 39.696 136.145 39.696C137.489 39.696 138.089 39.12 138.089 38.28C138.089 37.272 136.697 36.816 135.281 36.264C133.577 35.616 131.681 34.584 131.681 32.328C131.681 29.928 133.625 28.224 136.697 28.224C138.641 28.224 140.153 29.04 141.257 29.88L139.673 32.016C138.713 31.32 137.777 30.864 136.793 30.864C135.569 30.864 134.993 31.392 134.993 32.16C134.993 33.144 136.241 33.504 137.657 34.032C139.433 34.704 141.401 35.592 141.401 38.088C141.401 40.44 139.553 42.336 136.049 42.336ZM148.665 42V39.96C153.297 35.544 156.345 32.52 156.345 29.952C156.345 28.2 155.385 27.144 153.681 27.144C152.385 27.144 151.329 28.008 150.417 28.992L148.497 27.072C150.129 25.32 151.713 24.36 154.137 24.36C157.497 24.36 159.729 26.496 159.729 29.76C159.729 32.784 156.945 35.904 153.777 39.216C154.665 39.12 155.841 39.024 156.681 39.024H160.569V42H148.665Z" fill="#DDA63A"/>
<path d="M174.728 33.72L176.768 33.456C176.624 32.88 176.456 32.304 176.288 31.824C175.808 32.472 175.28 33.12 174.728 33.72ZM179.624 36.048L177.464 36.744C177.416 36.408 177.344 35.976 177.248 35.52C172.928 36.216 172.16 36.456 171.656 36.672C171.512 36.168 171.056 34.848 170.744 34.176C171.368 34.008 171.896 33.456 172.664 32.568C172.952 32.232 173.48 31.56 174.128 30.648C172.328 30.864 171.8 30.984 171.464 31.152C171.32 30.624 170.912 29.424 170.6 28.728C171.104 28.608 171.512 28.152 171.992 27.408C172.496 26.76 174.032 24.096 174.896 21.528L177.416 22.584C176.504 24.6 175.304 26.736 174.056 28.464L175.64 28.344C176.264 27.312 176.888 26.184 177.392 25.08L179.768 26.544C178.832 28.2 177.752 29.904 176.528 31.488L178.28 31.008C178.832 32.64 179.432 34.752 179.624 36.048ZM171.704 37.44L173.936 37.8C173.768 39.936 173.384 42.192 172.88 43.68C172.4 43.392 171.32 43.056 170.72 42.912C171.296 41.496 171.56 39.36 171.704 37.44ZM174.488 37.752L176.48 37.368C176.792 39.024 177.056 41.16 177.128 42.552L175.04 42.984C174.992 41.568 174.752 39.408 174.488 37.752ZM177.008 37.344L178.904 36.696C179.456 38.088 180.056 39.84 180.344 41.016L178.352 41.736C178.136 40.584 177.536 38.76 177.008 37.344ZM180.848 40.488L182.504 38.496C185.6 39.312 189.32 40.896 191.552 42.072L189.896 44.304C187.784 42.984 183.968 41.376 180.848 40.488ZM183.44 36.24L185.072 34.416C186.776 35.088 188.84 36.192 190.016 37.032L188.36 39.024C187.256 38.112 185.168 36.888 183.44 36.24ZM184.4 26.4L184.352 26.496C184.904 27.384 185.576 28.272 186.368 29.112C187.184 28.272 187.88 27.384 188.456 26.4H184.4ZM190.4 23.856L192.176 24.864C191.264 27.168 189.92 29.16 188.312 30.864C189.896 32.04 191.672 33.024 193.568 33.648C192.968 34.224 192.152 35.256 191.744 35.976C189.8 35.184 187.976 34.056 186.392 32.64C184.736 34.032 182.888 35.088 180.992 35.88C180.68 35.208 179.84 34.104 179.264 33.624C181.136 32.952 182.936 31.968 184.496 30.768C183.896 30.048 183.32 29.328 182.816 28.536C182.264 29.184 181.664 29.784 180.992 30.384C180.608 29.784 179.672 28.944 179.048 28.56C181.448 26.568 183.008 23.904 183.8 21.672L186.56 22.128C186.32 22.752 186.056 23.328 185.744 23.952H189.968L190.4 23.856ZM195.704 37.44L197.96 37.8C197.768 39.96 197.384 42.264 196.88 43.728C196.4 43.464 195.296 43.128 194.72 42.96C195.272 41.568 195.56 39.384 195.704 37.44ZM198.464 37.752L200.504 37.368C200.84 39.072 201.128 41.304 201.224 42.792L199.064 43.224C199.016 41.76 198.752 39.48 198.464 37.752ZM201.032 37.272L202.928 36.648C203.48 38.16 204.056 40.056 204.272 41.352L202.28 42.024C202.088 40.752 201.512 38.76 201.032 37.272ZM200.768 31.488L202.784 30.864C203.408 32.472 204.08 34.584 204.32 35.856L202.136 36.624C202.088 36.288 202.016 35.904 201.92 35.496C197.072 36.192 196.208 36.408 195.656 36.672C195.512 36.144 195.104 34.896 194.792 34.176C195.416 34.032 195.92 33.504 196.688 32.64C197 32.304 197.6 31.584 198.272 30.624C196.376 30.84 195.824 30.984 195.488 31.152C195.344 30.624 194.936 29.424 194.648 28.728C195.128 28.608 195.512 28.152 196.016 27.432C196.544 26.736 198.104 24.072 199.016 21.528L201.536 22.584C200.624 24.576 199.4 26.64 198.152 28.368L199.856 28.248C200.432 27.288 201.032 26.232 201.512 25.224L203.84 26.688C202.448 29.088 200.696 31.56 198.872 33.6L201.344 33.336C201.176 32.688 200.96 32.064 200.768 31.488ZM212.984 37.008H207.8V40.488H212.984V37.008ZM205.136 44.088V34.44H215.768V43.992H212.984V43.056H207.8V44.088H205.136ZM216.92 27.24H211.808V29.976H216.344V32.592H204.68V29.976H208.88V27.24H204.008V24.6H208.88V21.648H211.808V24.6H216.92V27.24ZM222.536 28.032V26.64C221.576 27.504 220.568 28.248 219.536 28.848C219.368 28.272 218.792 26.808 218.432 26.16C220.472 25.08 222.656 23.352 223.88 21.456L226.208 22.32C226.088 22.512 225.968 22.704 225.848 22.896C227.24 23.496 228.848 24.24 229.736 24.792L228.56 27.144C227.624 26.496 225.824 25.56 224.336 24.84C223.904 25.344 223.448 25.8 222.968 26.256H226.76V28.032H222.536ZM222.992 40.416L225.224 39.672C225.056 39.192 224.888 38.688 224.744 38.232L226.952 37.512H222.992V40.416ZM226.304 30.96H222.992V32.136H226.304V30.96ZM222.992 34.104V35.448H226.304V34.104H222.992ZM238.544 40.992H238.88C239 40.992 239.096 40.968 239.192 40.872C239.264 40.728 239.312 40.512 239.336 39.984C239.36 39.456 239.384 38.328 239.408 36.864C239.936 37.32 240.752 37.776 241.448 38.016C241.448 39.288 241.328 41.016 241.184 41.712C241.064 42.408 240.8 42.864 240.44 43.176C240.056 43.488 239.504 43.608 238.976 43.608H237.68C237.104 43.608 236.432 43.392 236.024 42.96C235.592 42.504 235.4 41.928 235.4 39.84V25.752H233.12V32.976C233.12 36.624 232.664 41.52 229.808 44.352C229.4 43.824 228.248 42.816 227.648 42.48C227.744 42.384 227.816 42.312 227.912 42.24L226.136 42.864C226.064 42.552 225.968 42.216 225.872 41.832C221.648 43.368 220.832 43.728 220.352 44.136C220.208 43.44 219.776 42.216 219.368 41.616C219.848 41.4 220.352 40.992 220.352 40.08V28.92H228.896V37.512H227.024C227.528 38.808 228.104 40.416 228.416 41.568C230.192 39.096 230.336 35.808 230.336 32.976V23.04H238.232V39.768C238.232 40.392 238.232 40.752 238.28 40.848C238.352 40.944 238.448 40.992 238.544 40.992ZM264.92 26.88L262.832 27.72C262.52 26.568 261.8 24.672 261.128 23.232L263.096 22.536C263.792 23.88 264.632 25.728 264.92 26.88ZM248.984 30.984H246.512V32.208H248.984V30.984ZM246.512 35.472H248.984V34.176H246.512V35.472ZM248.048 38.544L249.992 37.704C250.784 39.192 251.816 41.184 252.272 42.384L250.232 43.416C250.064 42.936 249.824 42.36 249.56 41.712C245.288 43.296 244.544 43.632 244.04 44.04C243.92 43.392 243.512 42.24 243.128 41.688C243.584 41.496 244.088 41.112 244.088 40.248V28.92H251.48V37.512H246.512V40.464L248.648 39.744C248.432 39.312 248.24 38.904 248.048 38.544ZM256.76 36.408V41.136C256.76 41.448 256.76 41.688 256.712 41.928C257.864 41.16 258.896 40.08 259.784 38.808C259.376 36.72 259.112 34.032 258.944 30.912H256.76V33.84L258.392 33.288L258.872 35.616C258.176 35.88 257.48 36.144 256.76 36.408ZM256.76 24.744V28.488H258.824C258.776 27.096 258.752 25.608 258.704 24.072C258.104 24.312 257.456 24.528 256.76 24.744ZM262.832 31.776L264.872 32.232C264.248 34.8 263.36 37.176 262.208 39.192C262.472 40.32 262.808 40.992 263.192 41.016C263.504 41.016 263.72 39.84 263.84 37.872C264.248 38.4 265.232 39.096 265.64 39.312C265.088 43.224 264.008 44.112 263.12 44.088C262.016 44.04 261.176 43.176 260.552 41.592C259.832 42.504 259.016 43.272 258.128 43.92C257.84 43.392 257.192 42.672 256.688 42.216C256.592 42.792 256.352 43.224 255.896 43.512C255.224 43.944 254.264 44.04 252.92 44.04C252.848 43.32 252.56 42.192 252.248 41.448C252.992 41.472 253.712 41.472 253.976 41.472C254.216 41.448 254.312 41.376 254.312 41.088V37.272L252.584 37.896L251.816 35.424C252.536 35.232 253.376 34.968 254.312 34.656V30.912H252.2V28.488H254.312V25.344C253.712 25.488 253.112 25.608 252.584 25.704C252.536 25.44 252.416 25.08 252.296 24.744L251.264 26.664C250.52 26.16 249.08 25.392 247.88 24.792C247.472 25.248 247.064 25.728 246.608 26.184H250.352V28.056H246.128V26.664C245.336 27.432 244.544 28.08 243.704 28.632C243.536 28.08 242.936 26.688 242.6 26.064C244.448 24.96 246.344 23.232 247.376 21.36L249.608 22.176C249.488 22.416 249.344 22.608 249.224 22.848C250.208 23.304 251.336 23.856 252.08 24.264C251.984 24.048 251.888 23.832 251.792 23.64C253.664 23.208 255.728 22.536 257.072 21.864L258.704 23.784L258.68 21.936H261.08C261.08 24.216 261.104 26.424 261.176 28.488H265.04V30.912H261.272C261.344 32.592 261.464 34.128 261.608 35.472C262.112 34.296 262.52 33.048 262.832 31.776Z" fill="#DDA63A"/>
<rect x="1" y="64" width="18" height="18" fill="#DDA63A" stroke="black"/>
<rect x="19" y="64" width="18" height="18" fill="#DDA63A" stroke="black"/>
<rect x="37" y="64" width="18" height="18" fill="#DDA63A" stroke="black"/>
<rect x="55" y="64" width="18" height="18" fill="#DDA63A" stroke="black"/>
<rect x="73" y="64" width="18" height="18" fill="#DDA63A" stroke="black"/>
<rect x="91" y="64" width="18" height="18" fill="#DDA63A" stroke="black"/>
<rect x="109" y="64" width="18" height="18" fill="#DDA63A" stroke="black"/>
<rect x="127" y="64" width="18" height="18" fill="#DDA63A" stroke="black"/>
<rect x="145" y="64" width="18" height="18" fill="#DDA63A" stroke="black"/>
<rect x="163" y="64" width="18" height="18" fill="#DDA63A" fill-opacity="0.3" stroke="black"/>
<rect x="181" y="64" width="18" height="18" fill="#DDA63A" fill-opacity="0.3" stroke="black"/>
<rect x="199" y="64" width="18" height="18" fill="#DDA63A" fill-opacity="0.3" stroke="black"/>
<rect x="217" y="64" width="18" height="18" fill="#DDA63A" fill-opacity="0.3" stroke="black"/>
<rect x="235" y="64" width="18" height="18" fill="#DDA63A" fill-opacity="0.3" stroke="black"/>
<rect x="253" y="64" width="18" height="18" fill="#DDA63A" fill-opacity="0.3" stroke="black"/>
<rect x="271" y="64" width="18" height="18" fill="#DDA63A" fill-opacity="0.3" stroke="black"/>
<rect x="289" y="64" width="18" height="18" fill="#DDA63A" fill-opacity="0.3" stroke="black"/>
<rect x="307" y="64" width="18" height="18" fill="#DDA63A" fill-opacity="0.3" stroke="black"/>
<rect x="325" y="64" width="18" height="18" fill="#DDA63A" fill-opacity="0.3" stroke="black"/>
<rect x="343" y="64" width="18" height="18" fill="#DDA63A" fill-opacity="0.3" stroke="black"/>
<path d="M4.54 95.168C3.94 95.168 3.412 94.996 2.956 94.652C2.508 94.3 2.156 93.78 1.9 93.092C1.652 92.396 1.528 91.536 1.528 90.512C1.528 89.496 1.652 88.652 1.9 87.98C2.156 87.3 2.508 86.792 2.956 86.456C3.412 86.12 3.94 85.952 4.54 85.952C5.148 85.952 5.676 86.124 6.124 86.468C6.572 86.804 6.92 87.308 7.168 87.98C7.424 88.652 7.552 89.496 7.552 90.512C7.552 91.536 7.424 92.396 7.168 93.092C6.92 93.78 6.572 94.3 6.124 94.652C5.676 94.996 5.148 95.168 4.54 95.168ZM4.54 93.788C4.804 93.788 5.036 93.688 5.236 93.488C5.436 93.288 5.592 92.952 5.704 92.48C5.816 92 5.872 91.344 5.872 90.512C5.872 89.688 5.816 89.044 5.704 88.58C5.592 88.108 5.436 87.78 5.236 87.596C5.036 87.404 4.804 87.308 4.54 87.308C4.292 87.308 4.064 87.404 3.856 87.596C3.656 87.78 3.496 88.108 3.376 88.58C3.256 89.044 3.196 89.688 3.196 90.512C3.196 91.344 3.256 92 3.376 92.48C3.496 92.952 3.656 93.288 3.856 93.488C4.064 93.688 4.292 93.788 4.54 93.788Z" fill="#DDA63A"/>
<path d="M82.984 95V93.56H84.904V87.956H83.284V86.852C83.732 86.772 84.116 86.676 84.436 86.564C84.764 86.444 85.068 86.292 85.348 86.108H86.656V93.56H88.324V95H82.984ZM92.6181 95.168C92.0181 95.168 91.4901 94.996 91.0341 94.652C90.5861 94.3 90.2341 93.78 89.9781 93.092C89.7301 92.396 89.6061 91.536 89.6061 90.512C89.6061 89.496 89.7301 88.652 89.9781 87.98C90.2341 87.3 90.5861 86.792 91.0341 86.456C91.4901 86.12 92.0181 85.952 92.6181 85.952C93.2261 85.952 93.7541 86.124 94.2021 86.468C94.6501 86.804 94.9981 87.308 95.2461 87.98C95.5021 88.652 95.6301 89.496 95.6301 90.512C95.6301 91.536 95.5021 92.396 95.2461 93.092C94.9981 93.78 94.6501 94.3 94.2021 94.652C93.7541 94.996 93.2261 95.168 92.6181 95.168ZM92.6181 93.788C92.8821 93.788 93.1141 93.688 93.3141 93.488C93.5141 93.288 93.6701 92.952 93.7821 92.48C93.8941 92 93.9501 91.344 93.9501 90.512C93.9501 89.688 93.8941 89.044 93.7821 88.58C93.6701 88.108 93.5141 87.78 93.3141 87.596C93.1141 87.404 92.8821 87.308 92.6181 87.308C92.3701 87.308 92.1421 87.404 91.9341 87.596C91.7341 87.78 91.5741 88.108 91.4541 88.58C91.3341 89.044 91.2741 89.688 91.2741 90.512C91.2741 91.344 91.3341 92 91.4541 92.48C91.5741 92.952 91.7341 93.288 91.9341 93.488C92.1421 93.688 92.3701 93.788 92.6181 93.788Z" fill="#DDA63A"/>
<path d="M170.516 95V93.98C171.324 93.26 172.012 92.592 172.58 91.976C173.156 91.36 173.596 90.788 173.9 90.26C174.204 89.724 174.356 89.228 174.356 88.772C174.356 88.484 174.304 88.232 174.2 88.016C174.096 87.8 173.944 87.636 173.744 87.524C173.552 87.404 173.312 87.344 173.024 87.344C172.704 87.344 172.408 87.436 172.136 87.62C171.872 87.796 171.628 88.008 171.404 88.256L170.42 87.308C170.836 86.86 171.26 86.524 171.692 86.3C172.132 86.068 172.652 85.952 173.252 85.952C173.812 85.952 174.3 86.068 174.716 86.3C175.14 86.524 175.468 86.84 175.7 87.248C175.932 87.656 176.048 88.136 176.048 88.688C176.048 89.224 175.912 89.772 175.64 90.332C175.376 90.884 175.02 91.436 174.572 91.988C174.124 92.54 173.628 93.084 173.084 93.62C173.316 93.588 173.564 93.564 173.828 93.548C174.1 93.524 174.34 93.512 174.548 93.512H176.468V95H170.516ZM180.618 95.168C180.018 95.168 179.49 94.996 179.034 94.652C178.586 94.3 178.234 93.78 177.978 93.092C177.73 92.396 177.606 91.536 177.606 90.512C177.606 89.496 177.73 88.652 177.978 87.98C178.234 87.3 178.586 86.792 179.034 86.456C179.49 86.12 180.018 85.952 180.618 85.952C181.226 85.952 181.754 86.124 182.202 86.468C182.65 86.804 182.998 87.308 183.246 87.98C183.502 88.652 183.63 89.496 183.63 90.512C183.63 91.536 183.502 92.396 183.246 93.092C182.998 93.78 182.65 94.3 182.202 94.652C181.754 94.996 181.226 95.168 180.618 95.168ZM180.618 93.788C180.882 93.788 181.114 93.688 181.314 93.488C181.514 93.288 181.67 92.952 181.782 92.48C181.894 92 181.95 91.344 181.95 90.512C181.95 89.688 181.894 89.044 181.782 88.58C181.67 88.108 181.514 87.78 181.314 87.596C181.114 87.404 180.882 87.308 180.618 87.308C180.37 87.308 180.142 87.404 179.934 87.596C179.734 87.78 179.574 88.108 179.454 88.58C179.334 89.044 179.274 89.688 179.274 90.512C179.274 91.344 179.334 92 179.454 92.48C179.574 92.952 179.734 93.288 179.934 93.488C180.142 93.688 180.37 93.788 180.618 93.788Z" fill="#DDA63A"/>
<path d="M261.276 95.168C260.812 95.168 260.396 95.112 260.028 95C259.66 94.896 259.332 94.752 259.044 94.568C258.764 94.376 258.52 94.164 258.312 93.932L259.14 92.816C259.412 93.064 259.708 93.28 260.028 93.464C260.356 93.64 260.72 93.728 261.12 93.728C261.424 93.728 261.688 93.68 261.912 93.584C262.144 93.488 262.32 93.348 262.44 93.164C262.568 92.98 262.632 92.756 262.632 92.492C262.632 92.196 262.56 91.944 262.416 91.736C262.28 91.52 262.036 91.356 261.684 91.244C261.332 91.132 260.836 91.076 260.196 91.076V89.804C260.74 89.804 261.168 89.748 261.48 89.636C261.792 89.516 262.012 89.356 262.14 89.156C262.276 88.948 262.344 88.712 262.344 88.448C262.344 88.104 262.24 87.836 262.032 87.644C261.824 87.444 261.532 87.344 261.156 87.344C260.844 87.344 260.552 87.416 260.28 87.56C260.016 87.696 259.752 87.884 259.488 88.124L258.576 87.032C258.968 86.704 259.38 86.444 259.812 86.252C260.244 86.052 260.72 85.952 261.24 85.952C261.808 85.952 262.308 86.044 262.74 86.228C263.18 86.412 263.52 86.68 263.76 87.032C264 87.384 264.12 87.812 264.12 88.316C264.12 88.796 263.992 89.208 263.736 89.552C263.48 89.896 263.116 90.16 262.644 90.344V90.404C262.972 90.492 263.268 90.636 263.532 90.836C263.804 91.028 264.016 91.272 264.168 91.568C264.328 91.864 264.408 92.208 264.408 92.6C264.408 93.136 264.264 93.596 263.976 93.98C263.696 94.364 263.316 94.66 262.836 94.868C262.364 95.068 261.844 95.168 261.276 95.168ZM268.618 95.168C268.018 95.168 267.49 94.996 267.034 94.652C266.586 94.3 266.234 93.78 265.978 93.092C265.73 92.396 265.606 91.536 265.606 90.512C265.606 89.496 265.73 88.652 265.978 87.98C266.234 87.3 266.586 86.792 267.034 86.456C267.49 86.12 268.018 85.952 268.618 85.952C269.226 85.952 269.754 86.124 270.202 86.468C270.65 86.804 270.998 87.308 271.246 87.98C271.502 88.652 271.63 89.496 271.63 90.512C271.63 91.536 271.502 92.396 271.246 93.092C270.998 93.78 270.65 94.3 270.202 94.652C269.754 94.996 269.226 95.168 268.618 95.168ZM268.618 93.788C268.882 93.788 269.114 93.688 269.314 93.488C269.514 93.288 269.67 92.952 269.782 92.48C269.894 92 269.95 91.344 269.95 90.512C269.95 89.688 269.894 89.044 269.782 88.58C269.67 88.108 269.514 87.78 269.314 87.596C269.114 87.404 268.882 87.308 268.618 87.308C268.37 87.308 268.142 87.404 267.934 87.596C267.734 87.78 267.574 88.108 267.454 88.58C267.334 89.044 267.274 89.688 267.274 90.512C267.274 91.344 267.334 92 267.454 92.48C267.574 92.952 267.734 93.288 267.934 93.488C268.142 93.688 268.37 93.788 268.618 93.788Z" fill="#DDA63A"/>
<path d="M350.044 95V89.54C350.044 89.284 350.052 88.98 350.068 88.628C350.084 88.268 350.1 87.956 350.116 87.692H350.056C349.952 87.932 349.84 88.172 349.72 88.412C349.6 88.652 349.476 88.896 349.348 89.144L347.968 91.352H352.744V92.696H346.252V91.496L349.564 86.108H351.688V95H350.044ZM356.618 95.168C356.018 95.168 355.49 94.996 355.034 94.652C354.586 94.3 354.234 93.78 353.978 93.092C353.73 92.396 353.606 91.536 353.606 90.512C353.606 89.496 353.73 88.652 353.978 87.98C354.234 87.3 354.586 86.792 355.034 86.456C355.49 86.12 356.018 85.952 356.618 85.952C357.226 85.952 357.754 86.124 358.202 86.468C358.65 86.804 358.998 87.308 359.246 87.98C359.502 88.652 359.63 89.496 359.63 90.512C359.63 91.536 359.502 92.396 359.246 93.092C358.998 93.78 358.65 94.3 358.202 94.652C357.754 94.996 357.226 95.168 356.618 95.168ZM356.618 93.788C356.882 93.788 357.114 93.688 357.314 93.488C357.514 93.288 357.67 92.952 357.782 92.48C357.894 92 357.95 91.344 357.95 90.512C357.95 89.688 357.894 89.044 357.782 88.58C357.67 88.108 357.514 87.78 357.314 87.596C357.114 87.404 356.882 87.308 356.618 87.308C356.37 87.308 356.142 87.404 355.934 87.596C355.734 87.78 355.574 88.108 355.454 88.58C355.334 89.044 355.274 89.688 355.274 90.512C355.274 91.344 355.334 92 355.454 92.48C355.574 92.952 355.734 93.288 355.934 93.488C356.142 93.688 356.37 93.788 356.618 93.788Z" fill="#DDA63A"/>
</svg>
