<svg xmlns="http://www.w3.org/2000/svg" width="376" height="98" fill="none"><path fill="#00689D" d="M45.815 14.356s-.736.979-.525 1.933c.215.955 1.304 1.523 1.304 1.523s.74-.978.521-1.932c-.214-.955-1.304-1.524-1.304-1.524M44.614 19.952s.74-.978.521-1.937c-.215-.954-1.304-1.523-1.304-1.523s-.74.979-.525 1.933 1.304 1.523 1.304 1.523M47.645 18.902s.779.788 1.666.708 1.543-.99 1.543-.99-.78-.788-1.666-.708c-.887.08-1.544.99-1.544.99M48.922 14.707c-.72.731-.62 2.028-.62 2.028s1.272.111 1.996-.62c.72-.732.62-2.029.62-2.029s-1.272-.111-1.996.62M47.331 21.813c.883.104 1.714-.656 1.714-.656s-.6-.927-1.483-1.034c-.883-.103-1.714.656-1.714.656s.6.927 1.487 1.03M48.118 37.172h-6.606a.933.933 0 1 0 0 1.869h6.606a.934.934 0 1 0 0-1.87M48.118 47.472h-6.606a.934.934 0 1 0 0 1.869h6.606a.934.934 0 1 0 0-1.87M18.405 34.902a4 4 0 0 0-.458-.12s.171.052.458.12"/><path fill="#00689D" d="M47.876 39.693h-6.121a.533.533 0 0 0-.533.533v1.853l-3.997.438-5.838-.136v-3.567q1.163-.148 2.322-.473c5.62-1.587 6.845-6.232 6.725-9.45-.123-3.272.927-4.545 2.43-5.11.43-.163.86-.262 1.25-.33.015.804.178 1.738.54 2.852q.202-.013.398-.032c-.382-1.142-.54-2.076-.549-2.875.78-.092 1.333-.04 1.333-.04s-.526-.283-1.27-.903c.251-1.55 1.178-2.501 2.128-3.476.525-.537 1.062-1.09 1.492-1.75l-.33-.214c-.402.628-.93 1.165-1.44 1.686-.926.95-1.865 1.92-2.183 3.46-.303-.27-.629-.593-.963-.97-1.388-1.555-3.17-.414-5.715 1.956-2.545 2.366-5.747 2.45-8.873-.752-4.124-4.223-7.723-4.2-10.19-3.957 1.687.72 2.28 2.295 3.135 6.304.895 4.207 3.154 6.108 6.244 6.37-1.718.61-1.802 1.576-4.105 3.166-1.797 1.241-4.327.847-5.353.617 1.881.588 4.113 2.56 6.105 3.249a14.9 14.9 0 0 0 3.64.747v3.413l-10.46-.239v2.382L37.232 44l3.997.441v1.853c0 .295.239.533.533.533h6.12a.533.533 0 0 0 .534-.532v-6.073a.533.533 0 0 0-.533-.533zm-18.764-.748q.65.012 1.308-.036v3.452l-1.308-.031V38.94zM17.116 44.06c0 .501-.35.91-.783.91h-.47c-.429 0-.783-.405-.783-.91v-1.646c0-.502.35-.911.784-.911h.469c.433 0 .783.406.783.91zM88.488 42.336c-2.376 0-4.752-.936-6.48-2.592l2.04-2.448c1.272 1.176 2.952 1.968 4.512 1.968 1.848 0 2.832-.792 2.832-2.04 0-1.32-1.08-1.728-2.664-2.4l-2.376-1.008c-1.8-.744-3.6-2.184-3.6-4.776 0-2.904 2.544-5.136 6.144-5.136 2.064 0 4.128.816 5.568 2.28l-1.8 2.232c-1.128-.936-2.304-1.464-3.768-1.464-1.56 0-2.544.696-2.544 1.872 0 1.272 1.248 1.728 2.76 2.328l2.328.984c2.16.888 3.576 2.256 3.576 4.824 0 2.904-2.424 5.376-6.528 5.376M98.161 42V24.216h4.872c5.424 0 8.784 2.832 8.784 8.832 0 5.976-3.36 8.952-8.592 8.952zm3.552-2.856h1.104c3.312 0 5.376-1.776 5.376-6.096 0-4.344-2.064-5.976-5.376-5.976h-1.104zm21.212 3.192c-4.824 0-8.52-3.216-8.52-9.144 0-5.856 3.792-9.288 8.52-9.288 2.568 0 4.344 1.104 5.496 2.28l-1.872 2.256c-.888-.84-1.896-1.488-3.504-1.488-2.952 0-5.016 2.304-5.016 6.12 0 3.864 1.776 6.192 5.28 6.192.84 0 1.704-.24 2.208-.672v-3.504h-3.144v-2.904h6.312V40.2c-1.2 1.176-3.288 2.136-5.76 2.136m13.124 0c-1.8 0-3.768-.792-5.112-1.896l1.608-2.208c1.2.936 2.352 1.464 3.6 1.464 1.344 0 1.944-.576 1.944-1.416 0-1.008-1.392-1.464-2.808-2.016-1.704-.648-3.6-1.68-3.6-3.936 0-2.4 1.944-4.104 5.016-4.104 1.944 0 3.456.816 4.56 1.656l-1.584 2.136c-.96-.696-1.896-1.152-2.88-1.152-1.224 0-1.8.528-1.8 1.296 0 .984 1.248 1.344 2.664 1.872 1.776.672 3.744 1.56 3.744 4.056 0 2.352-1.848 4.248-5.352 4.248M149.601 42v-2.856h3.816V28.368h-3.216v-2.184c1.776-.336 3-.792 4.128-1.488h2.616v14.448h3.336V42zm19.533-8.256c-.912 0-1.992.504-2.88 1.896.336 2.928 1.536 4.032 3 4.032 1.344 0 2.424-1.032 2.424-3.096 0-1.944-1.008-2.832-2.544-2.832m.192 8.592c-3.36 0-6.384-2.592-6.384-8.52 0-6.6 3.288-9.456 6.888-9.456 2.16 0 3.744.912 4.8 2.016l-1.872 2.112c-.624-.696-1.704-1.272-2.736-1.272-2.04 0-3.72 1.512-3.864 5.976.984-1.224 2.496-1.944 3.648-1.944 2.976 0 5.112 1.704 5.112 5.328 0 3.552-2.544 5.76-5.592 5.76M187.144 29.232h3.24v-1.8h-2.424a22 22 0 0 1-.816 1.8m5.952-1.8v1.8h5.256V31.8h-5.256v1.752h4.68v6.12c0 1.104-.168 1.776-.864 2.184-.672.408-1.584.456-2.784.432-.072-.72-.384-1.728-.696-2.424.672.048 1.272.048 1.488.024.216 0 .288-.048.288-.288v-3.504h-2.112v7.968h-2.712v-7.968h-1.968v6.072h-2.544v-8.616h4.512V31.8h-5.448v-2.568h1.8a22 22 0 0 0-2.16-.912c.984-1.512 1.776-3.936 2.208-6.216l2.616.552a22 22 0 0 1-.552 2.184h1.536v-3.024h2.712v3.024h4.296v2.592zm9-3.792v13.512h-2.664V23.64zm1.632-1.56h2.736v18.624c0 1.536-.312 2.304-1.176 2.784-.888.456-2.28.552-4.128.552-.096-.792-.48-2.04-.84-2.88 1.224.048 2.472.048 2.88.048.384-.024.528-.12.528-.528zm9.84 4.32v3.696c0 4.032-.312 10.032-2.304 13.944-.576-.408-1.872-1.008-2.616-1.224 1.92-3.696 2.088-9.048 2.088-12.696v-6.384h8.952c-.168-.552-.36-1.128-.576-1.584l2.904-.648c.336.672.672 1.488.912 2.232h7.92V26.4zm10.776 4.368h-4.368v1.584h4.368zm2.832 3.744h-9.888v-3.744h-3.24v-2.232h3.24v-1.584h2.688v1.584h4.368v-1.584h2.832v1.584h3.456v2.232h-3.456zm-2.04 3.192H218.8c.84.768 1.92 1.416 3.168 1.944 1.224-.528 2.28-1.152 3.168-1.944m2.52-2.328 1.776.912c-1.008 1.872-2.448 3.312-4.224 4.44 1.824.432 3.84.696 6.024.864-.552.6-1.272 1.752-1.632 2.472-2.928-.288-5.52-.84-7.776-1.752-2.28.816-4.872 1.32-7.584 1.608-.216-.672-.744-1.752-1.176-2.376 1.992-.168 3.912-.408 5.664-.84a13.8 13.8 0 0 1-2.904-2.616l.96-.384h-2.544v-2.232h12.912zm8.76 3.72h3.816v-4.704h-3.816zm3.816-7.176v-3.888h-3.816v3.888zm7.632-6.552h6.744s0 .96-.024 1.296c-.312 10.728-.576 14.544-1.56 15.816-.672.888-1.344 1.152-2.304 1.32-.912.12-2.352.096-3.768.048-.048-.792-.432-1.992-.936-2.784 1.536.144 2.952.144 3.576.144.48 0 .744-.096 1.056-.408.696-.768 1.008-4.368 1.272-12.84h-5.136c-.624 1.44-1.368 2.76-2.112 3.792-.384-.36-1.2-.912-1.848-1.344v11.208h-6.408v1.752h-2.592V25.536h2.712c.312-1.2.6-2.736.696-3.864l3.12.432c-.408 1.2-.84 2.4-1.248 3.432h3.72v3.888c1.392-2.016 2.544-4.92 3.24-7.728l2.736.624a34 34 0 0 1-.936 3.048m2.76 10.944L248.2 37.8c-.672-1.44-2.16-3.792-3.336-5.544l2.232-1.272c1.2 1.656 2.784 3.936 3.528 5.328m19.632 4.08h8.664V43.2h-21.816v-2.808h2.952V29.736h3v10.656h4.152V26.016h-9.264v-2.784h20.328v2.784h-8.016v5.28h6.768v2.784h-6.768zm28.536-2.952h-2.496c.216.552.456 1.08.744 1.536a9.1 9.1 0 0 0 1.752-1.536m-10.056-2.088h4.152a25 25 0 0 1-.384-3.12h2.736c.048 1.104.192 2.136.408 3.12h3.96c-.936-.672-2.304-1.44-3.504-1.872l1.488-1.56h-7.104l1.56 1.608c-.984.216-2.112.408-3.312.576zm10.488 2.088 2.088.72c-.744.984-1.728 1.848-2.808 2.616.576.456 1.176.696 1.8.696.576 0 .72-.432.84-1.776.552.504 1.44.912 2.088 1.104-.384 2.688-1.176 3.264-3.072 3.264-1.584 0-2.952-.672-4.104-1.848a27 27 0 0 1-4.872 1.848c-.264-.576-.936-1.704-1.392-2.256 1.656-.36 3.336-.864 4.824-1.512-.48-.84-.888-1.8-1.2-2.856h-4.68v.912l3.6-.192-.024 1.92-3.576.288v1.224c0 1.272-.264 1.824-1.152 2.136-.936.336-2.16.36-3.936.36a9.3 9.3 0 0 0-.816-2.184c1.032.072 2.352.048 2.712.024.36 0 .48-.096.48-.408v-.96c-1.68.144-3.264.24-4.608.336l-.216-2.184c1.32-.048 3-.12 4.824-.216V37.44h-4.752v-2.088h4.752v-.96c-1.272.12-2.568.192-3.744.216-.096-.48-.36-1.224-.6-1.704 2.928-.168 6.336-.504 8.448-.984h-8.808v-2.16h9.168v-.888h-6.816v-1.968h6.816v-.864H282.4v-2.112h4.248a10 10 0 0 0-.912-1.44l2.496-.792c.6.624 1.2 1.56 1.464 2.232h4.824c.408-.72.84-1.632 1.056-2.304l3.168.6a32 32 0 0 1-1.248 1.704h4.152v2.112h-8.232v.864h6.96v1.968h-6.96v.888h9.288v2.16h-4.752c1.32.504 2.928 1.344 3.792 2.016l-1.272 1.416h2.352v2.088zm17.52-3.696v-3.888h-3.624v-7.968h2.424v1.632h3.768v2.352h-3.768v1.752h2.664v.024h.912v6.096c0 .984-.192 1.392-.84 1.704-.624.288-1.56.288-2.736.288-.096-.552-.384-1.248-.624-1.752.624.048 1.32.048 1.536.024.216 0 .288-.048.288-.264m-3.264-3.312 2.112.36c-.168 1.584-.552 3.144-1.2 4.152-.384-.312-1.32-.864-1.824-1.128.6-.888.792-2.112.912-3.384m13.56 5.52v2.64h-6.768c2.256 1.056 4.656 2.304 6.12 3.216l-1.896 2.184c-1.536-1.056-4.176-2.592-6.552-3.744l1.272-1.656h-7.128l2.016 1.656c-2.064 1.368-5.04 2.856-7.392 3.816a21 21 0 0 0-1.608-2.136c2.112-.792 4.872-2.16 6.48-3.336h-6.552v-2.64h2.16l-.408-12.384c1.512-.48 3.36-1.2 4.584-1.776l1.224 2.328c-1.008.36-2.136.648-3.216.936l.072 2.16h2.736v2.328h-2.664l.072 2.064h2.664v2.328h-2.592l.072 2.016h12.528c.048-.624.072-1.248.12-1.944h-2.424v-2.352h2.52l.072-2.064h-2.424V27.24h2.496c0-.696 0-1.368.024-2.064h-2.76v-2.448h5.376c0 4.272-.12 9.624-.312 13.224zm9.24-4.512v.408c.96.96 3.12 3.48 3.648 4.128l-1.632 2.376c-.456-.816-1.224-2.016-2.016-3.144v8.856h-2.88V35.52c-.96 2.256-2.088 4.32-3.36 5.736-.264-.84-.96-1.968-1.44-2.688 1.632-1.728 3.168-4.488 4.104-7.128h-3.576V28.8h4.272v-3.12c-1.176.192-2.328.36-3.432.504-.12-.648-.456-1.608-.768-2.232 3.12-.432 6.624-1.2 8.808-2.064l1.848 2.232c-1.056.384-2.304.72-3.576 1.008V28.8h3.48v2.64zm6.912 6.864h3.84v-11.64h-3.84zm-2.808-14.376h9.6v18.84h-2.952V41.04h-3.84v1.896h-2.808zm34.536 9.336v2.88h-9.432v7.944h-2.976v-7.944h-9.336v-2.88h9.336v-7.272h-8.088V23.16h19.104v2.832h-8.04v7.272zm-19.032-5.736 2.616-.768c.792 1.536 1.656 3.552 1.92 4.896l-2.784.864c-.24-1.296-.984-3.384-1.752-4.992m14.016 4.944-2.496-.72c.768-1.392 1.632-3.504 2.088-5.064l3.048.768c-.864 1.848-1.824 3.792-2.64 5.016"/><path fill="#00689D" fill-opacity=".3" stroke="#000" d="M1 64h18v18H1zM19 64h18v18H19zM37 64h18v18H37zM55 64h18v18H55zM73 64h18v18H73zM91 64h18v18H91zM109 64h18v18h-18zM127 64h18v18h-18zM145 64h18v18h-18zM163 64h18v18h-18zM181 64h18v18h-18zM199 64h18v18h-18zM217 64h18v18h-18zM235 64h18v18h-18zM253 64h18v18h-18zM271 64h18v18h-18zM289 64h18v18h-18zM307 64h18v18h-18zM325 64h18v18h-18zM343 64h18v18h-18z"/><path fill="#00689D" d="M4.54 95.168q-.9 0-1.584-.516-.672-.528-1.056-1.56-.372-1.044-.372-2.58 0-1.524.372-2.532.384-1.02 1.056-1.524a2.6 2.6 0 0 1 1.584-.504q.912 0 1.584.516.672.504 1.044 1.512.384 1.008.384 2.532 0 1.536-.384 2.58-.372 1.032-1.044 1.56-.672.516-1.584.516m0-1.38q.396 0 .696-.3t.468-1.008q.168-.72.168-1.968 0-1.236-.168-1.932-.168-.708-.468-.984a.97.97 0 0 0-.696-.288q-.372 0-.684.288-.3.276-.48.984-.18.696-.18 1.932 0 1.248.18 1.968.18.708.48 1.008.312.3.684.3M82.984 95v-1.44h1.92v-5.604h-1.62v-1.104a7.5 7.5 0 0 0 1.152-.288q.492-.18.912-.456h1.308v7.452h1.668V95zm9.634.168q-.9 0-1.584-.516-.672-.528-1.056-1.56-.372-1.044-.372-2.58 0-1.524.372-2.532.384-1.02 1.056-1.524a2.6 2.6 0 0 1 1.584-.504q.912 0 1.584.516.672.504 1.044 1.512.384 1.008.384 2.532 0 1.536-.384 2.58-.372 1.032-1.044 1.56-.672.516-1.584.516m0-1.38q.396 0 .696-.3t.468-1.008q.168-.72.168-1.968 0-1.236-.168-1.932-.168-.708-.468-.984a.97.97 0 0 0-.696-.288q-.372 0-.684.288-.3.276-.48.984-.18.696-.18 1.932 0 1.248.18 1.968.18.708.48 1.008.312.3.684.3M170.516 95v-1.02a30 30 0 0 0 2.064-2.004q.864-.924 1.32-1.716.456-.804.456-1.488 0-.432-.156-.756a1.1 1.1 0 0 0-.456-.492q-.288-.18-.72-.18-.48 0-.888.276a4 4 0 0 0-.732.636l-.984-.948q.624-.672 1.272-1.008.66-.348 1.56-.348.84 0 1.464.348.636.336.984.948t.348 1.44q0 .804-.408 1.644a8.4 8.4 0 0 1-1.068 1.656 20 20 0 0 1-1.488 1.632q.348-.048.744-.072.408-.036.72-.036h1.92V95zm10.102.168q-.9 0-1.584-.516-.672-.528-1.056-1.56-.372-1.044-.372-2.58 0-1.524.372-2.532.384-1.02 1.056-1.524a2.6 2.6 0 0 1 1.584-.504q.912 0 1.584.516.672.504 1.044 1.512.384 1.008.384 2.532 0 1.536-.384 2.58-.372 1.032-1.044 1.56-.672.516-1.584.516m0-1.38q.396 0 .696-.3t.468-1.008q.168-.72.168-1.968 0-1.236-.168-1.932-.168-.708-.468-.984a.97.97 0 0 0-.696-.288q-.372 0-.684.288-.3.276-.48.984-.18.696-.18 1.932 0 1.248.18 1.968.18.708.48 1.008.312.3.684.3M261.276 95.168q-.696 0-1.248-.168a3.7 3.7 0 0 1-.984-.432 4 4 0 0 1-.732-.636l.828-1.116q.408.372.888.648.492.264 1.092.264a2 2 0 0 0 .792-.144 1.12 1.12 0 0 0 .72-1.092q0-.444-.216-.756-.204-.324-.732-.492t-1.488-.168v-1.272q.816 0 1.284-.168.468-.18.66-.48.204-.312.204-.708 0-.516-.312-.804-.312-.3-.876-.3-.468 0-.876.216a3.7 3.7 0 0 0-.792.564l-.912-1.092a5.3 5.3 0 0 1 1.236-.78q.648-.3 1.428-.3.852 0 1.5.276.66.276 1.02.804t.36 1.284q0 .72-.384 1.236t-1.092.792v.06q.492.132.888.432.408.288.636.732.24.444.24 1.032 0 .804-.432 1.38-.42.576-1.14.888-.708.3-1.56.3m7.342 0q-.9 0-1.584-.516-.672-.528-1.056-1.56-.372-1.044-.372-2.58 0-1.524.372-2.532.384-1.02 1.056-1.524a2.6 2.6 0 0 1 1.584-.504q.912 0 1.584.516.672.504 1.044 1.512.384 1.008.384 2.532 0 1.536-.384 2.58-.372 1.032-1.044 1.56-.672.516-1.584.516m0-1.38q.396 0 .696-.3t.468-1.008q.168-.72.168-1.968 0-1.236-.168-1.932-.168-.708-.468-.984a.97.97 0 0 0-.696-.288q-.372 0-.684.288-.3.276-.48.984-.18.696-.18 1.932 0 1.248.18 1.968.18.708.48 1.008.312.3.684.3M350.044 95v-5.46q0-.384.024-.912.024-.54.048-.936h-.06q-.156.36-.336.72t-.372.732l-1.38 2.208h4.776v1.344h-6.492v-1.2l3.312-5.388h2.124V95zm6.574.168q-.9 0-1.584-.516-.672-.528-1.056-1.56-.372-1.044-.372-2.58 0-1.524.372-2.532.384-1.02 1.056-1.524a2.6 2.6 0 0 1 1.584-.504q.912 0 1.584.516.672.504 1.044 1.512.384 1.008.384 2.532 0 1.536-.384 2.58-.372 1.032-1.044 1.56-.672.516-1.584.516m0-1.38q.396 0 .696-.3t.468-1.008q.168-.72.168-1.968 0-1.236-.168-1.932-.168-.708-.468-.984a.97.97 0 0 0-.696-.288q-.372 0-.684.288-.3.276-.48.984-.18.696-.18 1.932 0 1.248.18 1.968.18.708.48 1.008.312.3.684.3"/></svg>