<svg xmlns="http://www.w3.org/2000/svg" width="362" height="98" fill="none"><path fill="#DDA63A" d="M27.432 45.375v.9400000000000001a.423.423 0 0 0 .415.406H38.46a.427.427 0 0 0 .418-.423V45.28c5.952-1.951 10.414-6.773 11.394-12.65q-.001-.018.004-.036c0-.02.004-.04.004-.06a.427.427 0 0 0-.427-.426H16.15a.43.43 0 0 0-.43.426l.024.192c1.031 5.932 5.613 10.782 11.688 12.654M38.866 17.725c-.14.2-3.394 4.882.072 8.672 1.59 1.74 1.454 3.273 1 4.309h2.223c.45-1.53.263-3.449-1.542-5.424-2.553-2.79.032-6.565.072-6.625.307-.43.143-.984-.363-1.246-.506-.26-1.159-.12-1.466.306M33.233 30.706h2.227c.45-1.53.263-3.448-1.542-5.423-2.558-2.792.032-6.566.072-6.626.302-.43.143-.983-.363-1.242-.502-.255-1.16-.12-1.462.306-.14.195-3.398 4.882.072 8.673 1.59 1.74 1.45 3.273 1 4.308M25.456 17.725c-.14.2-3.398 4.882.072 8.672 1.59 1.74 1.454 3.273 1 4.309h2.223c.45-1.53.263-3.449-1.546-5.424-2.558-2.79.032-6.565.072-6.625.302-.43.139-.984-.363-1.242-.502-.26-1.16-.12-1.462.306M88.488 42.336a9.4 9.4 0 0 1-3.48-.672 9.1 9.1 0 0 1-3-1.92l2.04-2.448a7.8 7.8 0 0 0 2.136 1.44q1.224.528 2.376.528 1.392 0 2.112-.552t.72-1.488q0-.672-.36-1.056-.336-.408-.936-.72t-1.392-.624l-2.352-1.032a8.4 8.4 0 0 1-1.728-.96q-.816-.624-1.368-1.56-.528-.936-.528-2.232 0-1.464.792-2.616t2.184-1.824q1.392-.696 3.168-.696 1.584 0 3.048.6a7.5 7.5 0 0 1 2.544 1.704l-1.8 2.208a7 7 0 0 0-1.752-1.08q-.912-.384-2.04-.384-1.152 0-1.848.504-.672.48-.672 1.368 0 .624.384 1.032t1.008.72q.624.288 1.368.6l2.328.936a7.1 7.1 0 0 1 1.872 1.08q.816.648 1.248 1.56.456.912.456 2.208 0 1.44-.792 2.664-.768 1.224-2.232 1.968-1.44.744-3.504.744M98.161 42V24.216h4.872q2.736 0 4.68.96a6.72 6.72 0 0 1 3.024 2.904q1.08 1.944 1.08 4.944t-1.056 4.992-2.976 3q-1.92.984-4.56.984zm3.552-2.88h1.08q1.68 0 2.88-.6 1.224-.624 1.872-1.968.648-1.368.648-3.528t-.648-3.456q-.648-1.32-1.872-1.896-1.2-.6-2.88-.6h-1.08zm21.212 3.216q-2.4 0-4.344-1.056-1.92-1.056-3.048-3.096t-1.128-4.992q0-2.208.648-3.912.672-1.728 1.848-2.928a7.95 7.95 0 0 1 2.712-1.824 8.7 8.7 0 0 1 3.312-.624q1.92 0 3.264.72 1.368.696 2.232 1.56l-1.896 2.256a7 7 0 0 0-1.488-1.056q-.792-.432-1.992-.432-1.488 0-2.616.744-1.128.72-1.752 2.088t-.624 3.288q0 1.944.576 3.336.6 1.368 1.776 2.112t2.904.744q.648 0 1.248-.168.6-.192.96-.504v-3.504h-3.144v-2.904h6.336V40.2q-.912.888-2.424 1.512t-3.36.624M136.782 42v-2.04q2.304-2.208 4.032-3.984 1.728-1.8 2.688-3.264.96-1.488.96-2.76 0-.888-.312-1.512a2.2 2.2 0 0 0-.912-.96q-.576-.336-1.44-.336-.96 0-1.776.552a9.2 9.2 0 0 0-1.464 1.272l-1.968-1.92q1.248-1.32 2.544-1.992 1.32-.696 3.12-.696 1.68 0 2.928.672a4.8 4.8 0 0 1 1.968 1.896q.696 1.2.696 2.832 0 1.488-.84 3.048-.816 1.56-2.184 3.168a74 74 0 0 1-2.952 3.264q.672-.096 1.488-.144a17 17 0 0 1 1.44-.072h3.888V42zM162.728 33.72l2.04-.264a19 19 0 0 0-.48-1.632 23 23 0 0 1-1.56 1.896m4.896 2.328-2.16.696c-.048-.336-.12-.768-.216-1.224-4.32.696-5.088.936-5.592 1.152-.144-.504-.6-1.824-.912-2.496.624-.168 1.152-.72 1.92-1.608.288-.336.816-1.008 1.464-1.92-1.8.216-2.328.336-2.664.504a22 22 0 0 0-.864-2.424c.504-.12.912-.576 1.392-1.32.504-.648 2.04-3.312 2.904-5.88l2.52 1.056c-.912 2.016-2.112 4.152-3.36 5.88l1.584-.12a33 33 0 0 0 1.752-3.264l2.376 1.464c-.936 1.656-2.016 3.36-3.24 4.944l1.752-.48c.552 1.632 1.152 3.744 1.344 5.04m-7.92 1.392 2.232.36c-.168 2.136-.552 4.392-1.056 5.88-.48-.288-1.56-.624-2.16-.768.576-1.416.84-3.552.984-5.472m2.784.312 1.992-.384c.312 1.656.576 3.792.648 5.184l-2.088.432c-.048-1.416-.288-3.576-.552-5.232m2.52-.408 1.896-.648c.552 1.392 1.152 3.144 1.44 4.32l-1.992.72c-.216-1.152-.816-2.976-1.344-4.392m3.84 3.144 1.656-1.992c3.096.816 6.816 2.4 9.048 3.576l-1.656 2.232c-2.112-1.32-5.928-2.928-9.048-3.816m2.592-4.248 1.632-1.824c1.704.672 3.768 1.776 4.944 2.616l-1.656 1.992c-1.104-.912-3.192-2.136-4.92-2.784m.96-9.84-.048.096a16.6 16.6 0 0 0 2.016 2.616 14 14 0 0 0 2.088-2.712zm6-2.544 1.776 1.008c-.912 2.304-2.256 4.296-3.864 6 1.584 1.176 3.36 2.16 5.256 2.784-.6.576-1.416 1.608-1.824 2.328a18.6 18.6 0 0 1-5.352-3.336c-1.656 1.392-3.504 2.448-5.4 3.24-.312-.672-1.152-1.776-1.728-2.256a19.4 19.4 0 0 0 5.232-2.856c-.6-.72-1.176-1.44-1.68-2.232a19 19 0 0 1-1.824 1.848c-.384-.6-1.32-1.44-1.944-1.824 2.4-1.992 3.96-4.656 4.752-6.888l2.76.456c-.24.624-.504 1.2-.816 1.824h4.224zm5.304 13.584 2.256.36c-.192 2.16-.576 4.464-1.08 5.928-.48-.264-1.584-.6-2.16-.768.552-1.392.84-3.576.984-5.52m2.76.312 2.04-.384c.336 1.704.624 3.936.72 5.424l-2.16.432c-.048-1.464-.312-3.744-.6-5.472m2.568-.48 1.896-.624c.552 1.512 1.128 3.408 1.344 4.704l-1.992.672c-.192-1.272-.768-3.264-1.248-4.752m-.264-5.784 2.016-.624c.624 1.608 1.296 3.72 1.536 4.992l-2.184.768c-.048-.336-.12-.72-.216-1.128-4.848.696-5.712.912-6.264 1.176-.144-.528-.552-1.776-.864-2.496.624-.144 1.128-.672 1.896-1.536.312-.336.912-1.056 1.584-2.016-1.896.216-2.448.36-2.784.528a27 27 0 0 0-.84-2.424c.48-.12.864-.576 1.368-1.296.528-.696 2.088-3.36 3-5.904l2.52 1.056a35.4 35.4 0 0 1-3.384 5.784l1.704-.12c.576-.96 1.176-2.016 1.656-3.024l2.328 1.464c-1.392 2.4-3.144 4.872-4.968 6.912l2.472-.264c-.168-.648-.384-1.272-.576-1.848m12.216 5.52H195.8v3.48h5.184zm-7.848 7.08V34.44h10.632v9.552h-2.784v-.936H195.8v1.032zM204.92 27.24h-5.112v2.736h4.536v2.616H192.68v-2.616h4.2V27.24h-4.872V24.6h4.872v-2.952h2.928V24.6h5.112zm5.616.792V26.64a18 18 0 0 1-3 2.208c-.168-.576-.744-2.04-1.104-2.688 2.04-1.08 4.224-2.808 5.448-4.704l2.328.864-.36.576c1.392.6 3 1.344 3.888 1.896l-1.176 2.352c-.936-.648-2.736-1.584-4.224-2.304-.432.504-.888.96-1.368 1.416h3.792v1.776zm.456 12.384 2.232-.744c-.168-.48-.336-.984-.48-1.44l2.208-.72h-3.96zm3.312-9.456h-3.312v1.176h3.312zm-3.312 3.144v1.344h3.312v-1.344zm15.552 6.888h.336c.12 0 .216-.024.312-.12.072-.144.12-.36.144-.888s.048-1.656.072-3.12c.528.456 1.344.912 2.04 1.152 0 1.272-.12 3-.264 3.696-.12.696-.384 1.152-.744 1.464-.384.312-.936.432-1.464.432h-1.296c-.576 0-1.248-.216-1.656-.648-.432-.456-.624-1.032-.624-3.12V25.752h-2.28v7.224c0 3.648-.456 8.544-3.312 11.376-.408-.528-1.56-1.536-2.16-1.872.096-.096.168-.168.264-.24l-1.776.624c-.072-.312-.168-.648-.264-1.032-4.224 1.536-5.04 1.896-5.52 2.304-.144-.696-.576-1.92-.984-2.52.48-.216.984-.624.984-1.536V28.92h8.544v8.592h-1.872c.504 1.296 1.08 2.904 1.392 4.056 1.776-2.472 1.92-5.76 1.92-8.592V23.04h7.896v16.728c0 .624 0 .984.048 1.08a.33.33 0 0 0 .264.144M252.92 26.88l-2.088.84c-.312-1.152-1.032-3.048-1.704-4.488l1.968-.696c.696 1.344 1.536 3.192 1.824 4.344m-15.936 4.104h-2.472v1.224h2.472zm-2.472 4.488h2.472v-1.296h-2.472zm1.536 3.072 1.944-.84c.792 1.488 1.824 3.48 2.28 4.68l-2.04 1.032c-.168-.48-.408-1.056-.672-1.704-4.272 1.584-5.016 1.92-5.52 2.328-.12-.648-.528-1.8-.912-2.352.456-.192.96-.576.96-1.44V28.92h7.392v8.592h-4.968v2.952l2.136-.72c-.216-.432-.408-.84-.6-1.2m8.712-2.136v4.728c0 .312 0 .552-.048.792 1.152-.768 2.184-1.848 3.072-3.12-.408-2.088-.672-4.776-.84-7.896h-2.184v2.928l1.632-.552.48 2.328c-.696.264-1.392.528-2.112.792m0-11.664v3.744h2.064c-.048-1.392-.072-2.88-.12-4.416-.6.24-1.248.456-1.944.672m6.072 7.032 2.04.456c-.624 2.568-1.512 4.944-2.664 6.96.264 1.128.6 1.8.984 1.824.312 0 .528-1.176.648-3.144.408.528 1.392 1.224 1.8 1.44-.552 3.912-1.632 4.8-2.52 4.776-1.104-.048-1.944-.912-2.568-2.496-.72.912-1.536 1.68-2.424 2.328-.288-.528-.936-1.248-1.44-1.704-.096.576-.336 1.008-.792 1.296-.672.432-1.632.528-2.976.528-.072-.72-.36-1.848-.672-2.592.744.024 1.464.024 1.728.024.24-.024.336-.096.336-.384v-3.816l-1.728.624-.768-2.472a44 44 0 0 0 2.496-.768v-3.744H240.2v-2.424h2.112v-3.144c-.6.144-1.2.264-1.728.36-.048-.264-.168-.624-.288-.96l-1.032 1.92c-.744-.504-2.184-1.272-3.384-1.872-.408.456-.816.936-1.272 1.392h3.744v1.872h-4.224v-1.392a16.4 16.4 0 0 1-2.424 1.968c-.168-.552-.768-1.944-1.104-2.568 1.848-1.104 3.744-2.832 4.776-4.704l2.232.816c-.12.24-.264.432-.384.672a53 53 0 0 1 2.856 1.416 16 16 0 0 0-.288-.624c1.872-.432 3.936-1.104 5.28-1.776l1.632 1.92-.024-1.848h2.4c0 2.28.024 4.488.096 6.552h3.864v2.424h-3.768c.072 1.68.192 3.216.336 4.56a24 24 0 0 0 1.224-3.696"/><path fill="#DDA63A" stroke="#000" d="M1 64h18v18H1zM19 64h18v18H19zM37 64h18v18H37zM55 64h18v18H55zM73 64h18v18H73zM91 64h18v18H91zM109 64h18v18h-18zM127 64h18v18h-18zM145 64h18v18h-18z"/><path fill="#DDA63A" fill-opacity=".3" stroke="#000" d="M163 64h18v18h-18zM181 64h18v18h-18zM199 64h18v18h-18zM217 64h18v18h-18zM235 64h18v18h-18zM253 64h18v18h-18zM271 64h18v18h-18zM289 64h18v18h-18zM307 64h18v18h-18zM325 64h18v18h-18zM343 64h18v18h-18z"/><path fill="#DDA63A" d="M4.54 95.168q-.9 0-1.584-.516-.672-.528-1.056-1.56-.372-1.044-.372-2.58 0-1.524.372-2.532.384-1.02 1.056-1.524a2.6 2.6 0 0 1 1.584-.504q.912 0 1.584.516.672.504 1.044 1.512.384 1.008.384 2.532 0 1.536-.384 2.58-.372 1.032-1.044 1.56-.672.516-1.584.516m0-1.38q.396 0 .696-.3t.468-1.008q.168-.72.168-1.968 0-1.236-.168-1.932-.168-.708-.468-.984a.97.97 0 0 0-.696-.288q-.372 0-.684.288-.3.276-.48.984-.18.696-.18 1.932 0 1.248.18 1.968.18.708.48 1.008.312.3.684.3M82.984 95v-1.44h1.92v-5.604h-1.62v-1.104a7.5 7.5 0 0 0 1.152-.288q.492-.18.912-.456h1.308v7.452h1.668V95zm9.634.168q-.9 0-1.584-.516-.672-.528-1.056-1.56-.372-1.044-.372-2.58 0-1.524.372-2.532.384-1.02 1.056-1.524a2.6 2.6 0 0 1 1.584-.504q.912 0 1.584.516.672.504 1.044 1.512.384 1.008.384 2.532 0 1.536-.384 2.58-.372 1.032-1.044 1.56-.672.516-1.584.516m0-1.38q.396 0 .696-.3t.468-1.008q.168-.72.168-1.968 0-1.236-.168-1.932-.168-.708-.468-.984a.97.97 0 0 0-.696-.288q-.372 0-.684.288-.3.276-.48.984-.18.696-.18 1.932 0 1.248.18 1.968.18.708.48 1.008.312.3.684.3M170.516 95v-1.02a30 30 0 0 0 2.064-2.004q.864-.924 1.32-1.716.456-.804.456-1.488 0-.432-.156-.756a1.1 1.1 0 0 0-.456-.492q-.288-.18-.72-.18-.48 0-.888.276a4 4 0 0 0-.732.636l-.984-.948q.624-.672 1.272-1.008.66-.348 1.56-.348.84 0 1.464.348.636.336.984.948t.348 1.44q0 .804-.408 1.644a8.4 8.4 0 0 1-1.068 1.656 20 20 0 0 1-1.488 1.632q.348-.048.744-.072.408-.036.72-.036h1.92V95zm10.102.168q-.9 0-1.584-.516-.672-.528-1.056-1.56-.372-1.044-.372-2.58 0-1.524.372-2.532.384-1.02 1.056-1.524a2.6 2.6 0 0 1 1.584-.504q.912 0 1.584.516.672.504 1.044 1.512.384 1.008.384 2.532 0 1.536-.384 2.58-.372 1.032-1.044 1.56-.672.516-1.584.516m0-1.38q.396 0 .696-.3t.468-1.008q.168-.72.168-1.968 0-1.236-.168-1.932-.168-.708-.468-.984a.97.97 0 0 0-.696-.288q-.372 0-.684.288-.3.276-.48.984-.18.696-.18 1.932 0 1.248.18 1.968.18.708.48 1.008.312.3.684.3M261.276 95.168q-.696 0-1.248-.168a3.7 3.7 0 0 1-.984-.432 4 4 0 0 1-.732-.636l.828-1.116q.408.372.888.648.492.264 1.092.264a2 2 0 0 0 .792-.144 1.12 1.12 0 0 0 .72-1.092q0-.444-.216-.756-.204-.324-.732-.492t-1.488-.168v-1.272q.816 0 1.284-.168.468-.18.66-.48.204-.312.204-.708 0-.516-.312-.804-.312-.3-.876-.3-.468 0-.876.216a3.7 3.7 0 0 0-.792.564l-.912-1.092a5.3 5.3 0 0 1 1.236-.78q.648-.3 1.428-.3.852 0 1.5.276.66.276 1.02.804t.36 1.284q0 .72-.384 1.236t-1.092.792v.06q.492.132.888.432.408.288.636.732.24.444.24 1.032 0 .804-.432 1.38-.42.576-1.14.888-.708.3-1.56.3m7.342 0q-.9 0-1.584-.516-.672-.528-1.056-1.56-.372-1.044-.372-2.58 0-1.524.372-2.532.384-1.02 1.056-1.524a2.6 2.6 0 0 1 1.584-.504q.912 0 1.584.516.672.504 1.044 1.512.384 1.008.384 2.532 0 1.536-.384 2.58-.372 1.032-1.044 1.56-.672.516-1.584.516m0-1.38q.396 0 .696-.3t.468-1.008q.168-.72.168-1.968 0-1.236-.168-1.932-.168-.708-.468-.984a.97.97 0 0 0-.696-.288q-.372 0-.684.288-.3.276-.48.984-.18.696-.18 1.932 0 1.248.18 1.968.18.708.48 1.008.312.3.684.3M350.044 95v-5.46q0-.384.024-.912.024-.54.048-.936h-.06q-.156.36-.336.72t-.372.732l-1.38 2.208h4.776v1.344h-6.492v-1.2l3.312-5.388h2.124V95zm6.574.168q-.9 0-1.584-.516-.672-.528-1.056-1.56-.372-1.044-.372-2.58 0-1.524.372-2.532.384-1.02 1.056-1.524a2.6 2.6 0 0 1 1.584-.504q.912 0 1.584.516.672.504 1.044 1.512.384 1.008.384 2.532 0 1.536-.384 2.58-.372 1.032-1.044 1.56-.672.516-1.584.516m0-1.38q.396 0 .696-.3t.468-1.008q.168-.72.168-1.968 0-1.236-.168-1.932-.168-.708-.468-.984a.97.97 0 0 0-.696-.288q-.372 0-.684.288-.3.276-.48.984-.18.696-.18 1.932 0 1.248.18 1.968.18.708.48 1.008.312.3.684.3"/></svg>