<svg xmlns="http://www.w3.org/2000/svg" width="362" height="98" fill="none"><path fill="#C5192D" d="m29.008 25.811-11.478-6.63v21.44l11.478 3.464zM30.269 25.855v18.238l11.553-3.472v-21.44zM50.835 18.64a1.359 1.359 0 1 0-2.717 0v1.464h2.716zM48.456 40.243h-.338l1.356 4.745 1.357-4.745h-.335.335V21.166h-2.7130000000000005v19.077z"/><path fill="#C5192D" d="m44.288 20.104-1.229-.974v22.076l-12.754 4.12h-1.297l-12.699-3.548V19.13l-1.229.974v22.537l13.868 3.838h1.412l12.799-4.06 1.13-.334zM88.488 42.336a9.4 9.4 0 0 1-3.48-.672 9.1 9.1 0 0 1-3-1.92l2.04-2.448a7.8 7.8 0 0 0 2.136 1.44q1.224.528 2.376.528 1.392 0 2.112-.552t.72-1.488q0-.672-.36-1.056-.336-.408-.936-.72t-1.392-.624l-2.352-1.032a8.4 8.4 0 0 1-1.728-.96q-.816-.624-1.368-1.56-.528-.936-.528-2.232 0-1.464.792-2.616t2.184-1.824q1.392-.696 3.168-.696 1.584 0 3.048.6a7.5 7.5 0 0 1 2.544 1.704l-1.8 2.208a7 7 0 0 0-1.752-1.08q-.912-.384-2.04-.384-1.152 0-1.848.504-.672.48-.672 1.368 0 .624.384 1.032t1.008.72q.624.288 1.368.6l2.328.936a7.1 7.1 0 0 1 1.872 1.08q.816.648 1.248 1.56.456.912.456 2.208 0 1.44-.792 2.664-.768 1.224-2.232 1.968-1.44.744-3.504.744M98.161 42V24.216h4.872q2.736 0 4.68.96a6.72 6.72 0 0 1 3.024 2.904q1.08 1.944 1.08 4.944t-1.056 4.992-2.976 3q-1.92.984-4.56.984zm3.552-2.88h1.08q1.68 0 2.88-.6 1.224-.624 1.872-1.968.648-1.368.648-3.528t-.648-3.456q-.648-1.32-1.872-1.896-1.2-.6-2.88-.6h-1.08zm21.212 3.216q-2.4 0-4.344-1.056-1.92-1.056-3.048-3.096t-1.128-4.992q0-2.208.648-3.912.672-1.728 1.848-2.928a7.95 7.95 0 0 1 2.712-1.824 8.7 8.7 0 0 1 3.312-.624q1.92 0 3.264.72 1.368.696 2.232 1.56l-1.896 2.256a7 7 0 0 0-1.488-1.056q-.792-.432-1.992-.432-1.488 0-2.616.744-1.128.72-1.752 2.088t-.624 3.288q0 1.944.576 3.336.6 1.368 1.776 2.112t2.904.744q.648 0 1.248-.168.6-.192.96-.504v-3.504h-3.144v-2.904h6.336V40.2q-.912.888-2.424 1.512t-3.36.624M143.838 42V31.56q0-.792.048-1.872t.096-1.872h-.12a28 28 0 0 1-.672 1.392q-.36.696-.744 1.416l-2.76 4.368h9.552v2.712h-12.984V35.28l6.624-10.584h4.248V42zM163.064 21.696l2.616.792c-.456 1.44-.984 2.928-1.632 4.368v17.208h-2.712V31.992a25 25 0 0 1-1.512 2.04c-.216-.672-.936-2.304-1.368-3.072 1.872-2.256 3.6-5.736 4.608-9.264m13.008 12.576 1.464-.864c.36.336.744.672 1.104 1.08v-1.416h-4.608c.504.408 1.008.84 1.296 1.176l-1.584.936c-.408-.48-1.176-1.248-1.824-1.728l.72-.384h-5.088v1.632c.384-.408.744-.816 1.008-1.224l1.104.576v-.48h2.232v1.08c0 .48.144.552.792.552h2.112c.48 0 .6-.12.672-.816.264.144.696.288 1.128.408-.168-.192-.36-.36-.528-.528m-5.616 4.896c.72.48 1.584.888 2.52 1.2a10 10 0 0 0 2.424-1.224zm-.6-8.472v.768h6.648v-.768zm6.648-3.792h-6.648v.72h6.648zm0 2.64v-.768h-6.648v.768zm4.68 1.92v3.408H179c.432.456.792.912 1.032 1.248l-1.536.96c-.288-.456-.792-1.08-1.32-1.68-.24 1.008-.816 1.32-2.064 1.32H173c-.192.24-.408.48-.624.72h4.872l.48-.096 1.704.96c-.768 1.152-1.896 2.16-3.384 2.976 1.584.336 3.288.552 5.112.696-.504.528-1.056 1.464-1.368 2.088-2.52-.264-4.8-.72-6.816-1.416-2.016.672-4.344 1.176-6.984 1.536-.264-.624-.864-1.488-1.368-2.064 1.968-.192 3.792-.48 5.352-.84a19 19 0 0 1-1.368-.888c-.624.36-1.296.72-2.04 1.056-.336-.528-1.032-1.272-1.536-1.608.72-.264 1.344-.576 1.968-.888-.312-.336-.6-.648-.84-1.008l2.064-.72c.168.216.36.432.552.648.648-.48 1.2-.96 1.632-1.44-.456-.24-.672-.648-.72-1.32-.528.72-1.152 1.416-1.872 1.92l-1.584-1.224c.408-.24.792-.576 1.152-.936h-2.256v-3.408h2.184v-5.952h3.96c.072-.264.12-.552.168-.84h-5.592v-2.04h14.856v2.04h-6.312l-.36.84h5.136v5.952zm7.824-4.104h-2.088c-.408 1.224-1.08 2.4-2.28 3.36-.36-.504-1.344-1.488-1.848-1.824 1.824-1.368 2.088-3.072 2.088-4.464v-1.608c2.496-.144 5.376-.504 7.056-1.08l1.584 1.656c-1.68.6-3.984.912-6.192 1.104 0 .24 0 .504-.024.768h6.528v2.088h-2.304v2.448h-2.52zm9.888 5.688v-1.08h-9.912v1.08zm0 2.688v-1.104h-9.912v1.104zm0 2.688v-1.08h-9.912v1.08zm2.472-8.544H198.8v-2.52h-2.064c-.288 1.056-.768 2.064-1.584 2.904h6.624v9.888h-3.168c2.256.672 4.536 1.464 6.048 2.064l-1.32 1.992c-1.704-.768-4.56-1.848-7.224-2.664l.864-1.392h-6.216l1.56.912c-2.064 1.152-5.304 2.448-7.728 3.168-.24-.504-.936-1.824-1.368-2.4 1.992-.384 4.416-.984 6.192-1.68h-3.168v-9.888h8.592c-.504-.432-1.416-1.032-1.896-1.272 1.536-1.368 1.728-3.12 1.728-4.488v-1.752c2.688-.12 5.736-.48 7.416-1.056l1.776 1.584c-1.824.624-4.392.984-6.792 1.152v.12c0 .24 0 .48-.024.72h7.704v2.088h-3.384zm23.472-1.2h-2.736c.336 1.992.816 3.888 1.464 5.592.576-1.632 1.008-3.504 1.272-5.592m-8.664 2.712.84.672c.408-.504.792-1.104 1.152-1.752h-3.36c-.36.432-.72.84-1.128 1.224h1.992zm-3.096-5.136v1.608h.384c.432-.528.84-1.032 1.2-1.608zm16.128 2.424h-1.416c-.504 3.552-1.32 6.48-2.592 8.928 1.08 1.704 2.496 3.072 4.248 3.984-.648.576-1.536 1.704-1.968 2.496a12.84 12.84 0 0 1-4.032-3.84c-1.344 1.584-3 2.88-5.088 3.936-.264-.672-1.104-1.992-1.632-2.592 2.256-1.008 3.936-2.352 5.16-4.104a30 30 0 0 1-1.632-4.848c-.36.576-.72 1.152-1.104 1.656-.312-.36-.984-.984-1.584-1.488-.936 1.08-2.136 2.184-3.312 3.096v.6l4.2-.36v2.424a249 249 0 0 1-4.2.408v2.376c0 1.248-.216 1.896-1.056 2.28s-1.968.408-3.48.408c-.096-.744-.456-1.728-.816-2.424.936.024 1.968.024 2.28.024.312-.024.408-.096.408-.336V39.24c-1.656.168-3.24.312-4.56.456l-.288-2.544c1.344-.12 3.024-.24 4.848-.408v-1.32c.648-.456 1.344-1.056 1.992-1.68h-2.496c-.84.648-1.752 1.2-2.688 1.728-.384-.552-1.344-1.656-1.896-2.16a20.5 20.5 0 0 0 4.56-3h-4.272v-2.448h3.648v-1.608h-2.736v-2.4h2.736v-2.184h2.64v2.184h2.136v1.536a21 21 0 0 0 1.56-3.12l2.616.768a26 26 0 0 1-2.64 4.824h1.704v1.896c1.104-2.28 1.872-5.136 2.328-8.088l2.904.456a49 49 0 0 1-.864 3.912h6.384zm8.424-.576 7.992-.216c-.504-.384-.984-.768-1.44-1.104l.984-.576h-5.136a39 39 0 0 1-2.4 1.896m14.976-4.392v2.496h-4.968c1.56 1.176 3.264 2.64 4.2 3.72l-2.184 1.368h1.008v9.744c0 1.536-.408 2.16-1.56 2.52-1.128.336-2.88.312-5.184.312-.096-.744-.384-1.704-.696-2.424 1.32.096 3.288.096 3.696.072.48-.024.624-.144.624-.528v-1.728c-3.528.768-7.056 1.488-9.864 2.064l-.84-2.52a428 428 0 0 0 8.088-1.176c-1.896-.768-5.064-1.584-7.536-1.944l.84-1.704c2.688.312 6.264 1.152 8.184 1.944l-.744 1.584 1.872-.288v-3.576h-10.728v1.488c0 2.808-.432 6.72-2.616 9.216-.48-.504-1.704-1.416-2.352-1.68 1.968-2.208 2.16-5.304 2.16-7.584v-3.792h15.144a18 18 0 0 0-1.176-1.272c-11.712.456-13.128.48-14.16.84a33 33 0 0 0-.864-2.616c.672-.12 1.248-.528 2.16-1.176.264-.168.624-.48 1.08-.864h-4.848v-2.496h7.536c.72-.744 1.44-1.512 2.04-2.328l2.904 1.104q-.54.612-1.152 1.224z"/><path fill="#C5192D" stroke="#000" d="M1 64h18v18H1zM19 64h18v18H19zM37 64h18v18H37zM55 64h18v18H55zM73 64h18v18H73zM91 64h18v18H91zM109 64h18v18h-18zM127 64h18v18h-18zM145 64h18v18h-18z"/><path fill="#C5192D" fill-opacity=".3" stroke="#000" d="M163 64h18v18h-18zM181 64h18v18h-18zM199 64h18v18h-18zM217 64h18v18h-18zM235 64h18v18h-18zM253 64h18v18h-18zM271 64h18v18h-18zM289 64h18v18h-18zM307 64h18v18h-18zM325 64h18v18h-18zM343 64h18v18h-18z"/><path fill="#C5192D" d="M4.54 95.168q-.9 0-1.584-.516-.672-.528-1.056-1.56-.372-1.044-.372-2.58 0-1.524.372-2.532.384-1.02 1.056-1.524a2.6 2.6 0 0 1 1.584-.504q.912 0 1.584.516.672.504 1.044 1.512.384 1.008.384 2.532 0 1.536-.384 2.58-.372 1.032-1.044 1.56-.672.516-1.584.516m0-1.38q.396 0 .696-.3t.468-1.008q.168-.72.168-1.968 0-1.236-.168-1.932-.168-.708-.468-.984a.97.97 0 0 0-.696-.288q-.372 0-.684.288-.3.276-.48.984-.18.696-.18 1.932 0 1.248.18 1.968.18.708.48 1.008.312.3.684.3M82.984 95v-1.44h1.92v-5.604h-1.62v-1.104a7.5 7.5 0 0 0 1.152-.288q.492-.18.912-.456h1.308v7.452h1.668V95zm9.634.168q-.9 0-1.584-.516-.672-.528-1.056-1.56-.372-1.044-.372-2.58 0-1.524.372-2.532.384-1.02 1.056-1.524a2.6 2.6 0 0 1 1.584-.504q.912 0 1.584.516.672.504 1.044 1.512.384 1.008.384 2.532 0 1.536-.384 2.58-.372 1.032-1.044 1.56-.672.516-1.584.516m0-1.38q.396 0 .696-.3t.468-1.008q.168-.72.168-1.968 0-1.236-.168-1.932-.168-.708-.468-.984a.97.97 0 0 0-.696-.288q-.372 0-.684.288-.3.276-.48.984-.18.696-.18 1.932 0 1.248.18 1.968.18.708.48 1.008.312.3.684.3M170.516 95v-1.02a30 30 0 0 0 2.064-2.004q.864-.924 1.32-1.716.456-.804.456-1.488 0-.432-.156-.756a1.1 1.1 0 0 0-.456-.492q-.288-.18-.72-.18-.48 0-.888.276a4 4 0 0 0-.732.636l-.984-.948q.624-.672 1.272-1.008.66-.348 1.56-.348.84 0 1.464.348.636.336.984.948t.348 1.44q0 .804-.408 1.644a8.4 8.4 0 0 1-1.068 1.656 20 20 0 0 1-1.488 1.632q.348-.048.744-.072.408-.036.72-.036h1.92V95zm10.102.168q-.9 0-1.584-.516-.672-.528-1.056-1.56-.372-1.044-.372-2.58 0-1.524.372-2.532.384-1.02 1.056-1.524a2.6 2.6 0 0 1 1.584-.504q.912 0 1.584.516.672.504 1.044 1.512.384 1.008.384 2.532 0 1.536-.384 2.58-.372 1.032-1.044 1.56-.672.516-1.584.516m0-1.38q.396 0 .696-.3t.468-1.008q.168-.72.168-1.968 0-1.236-.168-1.932-.168-.708-.468-.984a.97.97 0 0 0-.696-.288q-.372 0-.684.288-.3.276-.48.984-.18.696-.18 1.932 0 1.248.18 1.968.18.708.48 1.008.312.3.684.3M261.276 95.168q-.696 0-1.248-.168a3.7 3.7 0 0 1-.984-.432 4 4 0 0 1-.732-.636l.828-1.116q.408.372.888.648.492.264 1.092.264a2 2 0 0 0 .792-.144 1.12 1.12 0 0 0 .72-1.092q0-.444-.216-.756-.204-.324-.732-.492t-1.488-.168v-1.272q.816 0 1.284-.168.468-.18.66-.48.204-.312.204-.708 0-.516-.312-.804-.312-.3-.876-.3-.468 0-.876.216a3.7 3.7 0 0 0-.792.564l-.912-1.092a5.3 5.3 0 0 1 1.236-.78q.648-.3 1.428-.3.852 0 1.5.276.66.276 1.02.804t.36 1.284q0 .72-.384 1.236t-1.092.792v.06q.492.132.888.432.408.288.636.732.24.444.24 1.032 0 .804-.432 1.38-.42.576-1.14.888-.708.3-1.56.3m7.342 0q-.9 0-1.584-.516-.672-.528-1.056-1.56-.372-1.044-.372-2.58 0-1.524.372-2.532.384-1.02 1.056-1.524a2.6 2.6 0 0 1 1.584-.504q.912 0 1.584.516.672.504 1.044 1.512.384 1.008.384 2.532 0 1.536-.384 2.58-.372 1.032-1.044 1.56-.672.516-1.584.516m0-1.38q.396 0 .696-.3t.468-1.008q.168-.72.168-1.968 0-1.236-.168-1.932-.168-.708-.468-.984a.97.97 0 0 0-.696-.288q-.372 0-.684.288-.3.276-.48.984-.18.696-.18 1.932 0 1.248.18 1.968.18.708.48 1.008.312.3.684.3M350.044 95v-5.46q0-.384.024-.912.024-.54.048-.936h-.06q-.156.36-.336.72t-.372.732l-1.38 2.208h4.776v1.344h-6.492v-1.2l3.312-5.388h2.124V95zm6.574.168q-.9 0-1.584-.516-.672-.528-1.056-1.56-.372-1.044-.372-2.58 0-1.524.372-2.532.384-1.02 1.056-1.524a2.6 2.6 0 0 1 1.584-.504q.912 0 1.584.516.672.504 1.044 1.512.384 1.008.384 2.532 0 1.536-.384 2.58-.372 1.032-1.044 1.56-.672.516-1.584.516m0-1.38q.396 0 .696-.3t.468-1.008q.168-.72.168-1.968 0-1.236-.168-1.932-.168-.708-.468-.984a.97.97 0 0 0-.696-.288q-.372 0-.684.288-.3.276-.48.984-.18.696-.18 1.932 0 1.248.18 1.968.18.708.48 1.008.312.3.684.3"/></svg>