<svg xmlns="http://www.w3.org/2000/svg" width="362" height="98" fill="none"><path fill="#26BDE2" d="M44.539 15.452a.28.28 0 0 0-.21-.092h-23.22a.27.27 0 0 0-.206.092.28.28 0 0 0-.06.219l3.902 23.59a.27.27 0 0 0 .266.227H29.8l.326 3.842h-2.017l4.69 4.689 4.7-4.697h-2.012l.326-3.834h4.872a.266.266 0 0 0 .267-.23l3.65-23.587a.28.28 0 0 0-.06-.22zm-8.973 18.89s-1.053 1.086-2.772.966c-1.718.12-2.772-.966-2.772-.966-1.738-1.738-1.117-3.901-.513-5.019.374-.7 3.047-4.712 3.277-5.054v-.028s0 .004.012.012l.008-.012v.028c.223.342 2.9 4.354 3.274 5.054.604 1.118 1.224 3.281-.514 5.019m7.366-13.923c-.628-.278-1.428-.179-2.191.131-2.88 1.17-4.84 1.587-7.871.64-1.909-.596-3.695-1.849-5.803-1.085-1.4.505-2.704.986-4.287.97l-.915-4.689h21.731l-.656 4.033zM88.488 42.336a9.4 9.4 0 0 1-3.48-.672 9.1 9.1 0 0 1-3-1.92l2.04-2.448a7.8 7.8 0 0 0 2.136 1.44q1.224.528 2.376.528 1.392 0 2.112-.552t.72-1.488q0-.672-.36-1.056-.336-.408-.936-.72t-1.392-.624l-2.352-1.032a8.4 8.4 0 0 1-1.728-.96q-.816-.624-1.368-1.56-.528-.936-.528-2.232 0-1.464.792-2.616t2.184-1.824q1.392-.696 3.168-.696 1.584 0 3.048.6a7.5 7.5 0 0 1 2.544 1.704l-1.8 2.208a7 7 0 0 0-1.752-1.08q-.912-.384-2.04-.384-1.152 0-1.848.504-.672.48-.672 1.368 0 .624.384 1.032t1.008.72q.624.288 1.368.6l2.328.936a7.1 7.1 0 0 1 1.872 1.08q.816.648 1.248 1.56.456.912.456 2.208 0 1.44-.792 2.664-.768 1.224-2.232 1.968-1.44.744-3.504.744M98.161 42V24.216h4.872q2.736 0 4.68.96a6.72 6.72 0 0 1 3.024 2.904q1.08 1.944 1.08 4.944t-1.056 4.992-2.976 3q-1.92.984-4.56.984zm3.552-2.88h1.08q1.68 0 2.88-.6 1.224-.624 1.872-1.968.648-1.368.648-3.528t-.648-3.456q-.648-1.32-1.872-1.896-1.2-.6-2.88-.6h-1.08zm21.212 3.216q-2.4 0-4.344-1.056-1.92-1.056-3.048-3.096t-1.128-4.992q0-2.208.648-3.912.672-1.728 1.848-2.928a7.95 7.95 0 0 1 2.712-1.824 8.7 8.7 0 0 1 3.312-.624q1.92 0 3.264.72 1.368.696 2.232 1.56l-1.896 2.256a7 7 0 0 0-1.488-1.056q-.792-.432-1.992-.432-1.488 0-2.616.744-1.128.72-1.752 2.088t-.624 3.288q0 1.944.576 3.336.6 1.368 1.776 2.112t2.904.744q.648 0 1.248-.168.6-.192.96-.504v-3.504h-3.144v-2.904h6.336V40.2q-.912.888-2.424 1.512t-3.36.624m20.385 0a6 6 0 0 1-2.424-.504q-1.128-.504-2.04-1.536-.888-1.032-1.416-2.64-.504-1.608-.504-3.84 0-2.496.552-4.272t1.536-2.928 2.208-1.704a6.3 6.3 0 0 1 2.568-.552q1.632 0 2.832.6 1.224.6 2.016 1.416l-1.896 2.112q-.456-.528-1.2-.888a3.5 3.5 0 0 0-1.536-.36 3.3 3.3 0 0 0-1.944.624q-.864.6-1.392 2.04-.504 1.416-.504 3.912 0 2.136.408 3.432.408 1.272 1.104 1.848t1.56.576q.672 0 1.224-.336.552-.36.864-1.032.336-.696.336-1.704t-.312-1.632a1.97 1.97 0 0 0-.888-.912q-.576-.288-1.344-.288-.72 0-1.512.456-.768.432-1.464 1.56l-.144-2.4q.504-.672 1.152-1.152t1.344-.72q.696-.264 1.296-.264 1.488 0 2.64.576t1.8 1.776q.672 1.176.672 3 0 1.752-.768 3.048a5.53 5.53 0 0 1-2.04 1.992q-1.248.696-2.784.696M177.632 21.696l1.896 2.04c-3.696 1.032-8.928 1.632-13.392 1.896-.072-.624-.384-1.608-.672-2.184 4.344-.288 9.264-.912 12.168-1.752m-.12 7.272-2.328-.672c.624-.96 1.464-2.496 1.872-3.6l2.64.696c-.744 1.368-1.536 2.664-2.184 3.576m-3.36-.696-2.16.792c-.168-.912-.72-2.256-1.272-3.288l2.088-.672c.6.984 1.128 2.28 1.344 3.168m-8.976-3.816-1.536 2.304c-.816-.864-2.592-2.04-3.984-2.712l1.392-2.088c1.392.576 3.216 1.608 4.128 2.496m-1.296 6.408-1.416 2.376c-.864-.84-2.664-1.944-4.104-2.592l1.344-2.16c1.392.576 3.24 1.584 4.176 2.376M161.216 43.8l-2.184-1.92c1.176-1.776 2.832-4.704 4.104-7.464l1.896 1.92a109 109 0 0 1-3.816 7.464m15.744-7.368v-1.368h-3.12v1.368zm-3.12-5.064v1.272h3.12v-1.272zm7.224 1.272v2.424h-1.632v3.624h-5.592v2.424c0 1.392-.264 2.064-1.176 2.472-.888.384-2.208.432-3.984.432-.096-.744-.432-1.824-.792-2.544 1.152.048 2.424.048 2.808.024.384 0 .48-.096.48-.432v-2.376h-5.112v-2.256h5.112v-1.368h-6.312V32.64h6.312v-1.272h-4.896v-2.256h1.056c-.288-.816-.816-1.824-1.344-2.616l1.968-.864c.672.84 1.32 1.992 1.536 2.832l-1.32.648h11.256v3.528zm8.952-5.208 1.872.696c-1.056 6.48-3.648 11.328-7.008 13.848-.48-.672-1.608-1.8-2.304-2.208 2.76-1.872 4.824-5.16 5.88-9.36h-5.016v-2.88h6.048zm11.16-1.56 2.64 1.848c-1.776 1.776-3.864 3.768-5.568 5.136 1.824 2.76 4.272 5.016 7.296 6.336-.696.624-1.656 1.824-2.136 2.664-3.384-1.8-5.928-4.728-7.8-8.304v6.888c0 1.656-.312 2.496-1.272 3.024-.936.504-2.376.648-4.32.648-.12-.888-.624-2.328-1.056-3.192 1.32.048 2.592.048 3.048.048.408 0 .552-.144.552-.552V21.672h3.048v5.856c.384 1.08.816 2.088 1.32 3.096 1.512-1.44 3.168-3.264 4.248-4.752m23.064 6.24h-6.504c.792 1.872 1.896 3.552 3.312 4.944 1.368-1.368 2.448-3.024 3.192-4.944m-9.36-6.672v1.848c0 .672-.024 1.368-.048 2.112h3.864c.336-1.2.672-2.592.984-3.96zm11.16 3.84 2.088.888c-.936 3.72-2.544 6.6-4.704 8.832 1.68 1.104 3.624 1.92 5.88 2.448-.672.648-1.536 1.896-1.992 2.712-2.448-.72-4.512-1.728-6.264-3.12-2.04 1.512-4.464 2.568-7.128 3.36-.336-.816-1.056-2.016-1.656-2.664 2.424-.576 4.656-1.512 6.552-2.832-1.632-1.872-2.88-4.152-3.888-6.792h-.36c-.552 3.912-2.016 8.28-5.856 11.616-.408-.744-1.44-1.92-2.064-2.472 4.752-4.056 5.232-10.104 5.232-13.992V25.44h-3.792v-2.784h15.168c-.384 2.208-.888 4.752-1.368 6.744h3.624zm26.832-6.24v2.544h-5.664V23.04zm-18.408-1.368 2.568.936c-1.296 2.088-3.264 4.344-5.112 5.808-.288-.6-.96-1.656-1.416-2.184 1.488-1.176 3.168-3.072 3.96-4.56m9.024 3.648h-1.584c-.072.456-.144.912-.216 1.32h1.8zm-6.48 3.504v-.6c-.36.72-.744 1.44-1.176 2.16v13.728h-2.592v-9.984c-.456.576-.936 1.08-1.368 1.56-.264-.6-1.08-1.992-1.536-2.592 1.704-1.584 3.456-4.032 4.512-6.384l2.16.768v-.84h2.256c.072-.408.144-.864.24-1.32h-1.872v-1.992h2.184c.096-.576.168-1.152.24-1.656l2.4.192-.216 1.464h3.552v3.312h1.272v2.184zm2.688 10.584h1.992v-1.584h-1.776zm.072-7.944v1.368h4.272v-1.368zm13.464-2.064v2.592H251.6v9c0 1.272-.168 2.04-.984 2.472-.768.456-1.848.504-3.288.504-.096-.696-.36-1.728-.648-2.496h-2.448v2.616h-2.544v-2.616h-4.632c.24-1.008.48-2.424.624-3.648h-.864v-2.04h4.872v-1.128h-3.984V29.64h8.592v5.016h-2.064v1.128h2.64v2.04h-2.64v1.584h3.072v1.896h1.272c.288-.024.36-.096.36-.36v-8.952H246.8V29.4zm14.304 11.208h9.312v2.808h-21.576v-2.808h9.264v-4.824h-6.504v-2.76h6.504V28.8h-4.968c-.696 1.32-1.44 2.544-2.232 3.48-.576-.456-1.848-1.32-2.568-1.704 1.872-2.016 3.432-5.328 4.248-8.592l2.952.648a51 51 0 0 1-1.128 3.384h3.696v-4.32h3v4.32h8.088V28.8h-8.088v4.224h7.176v2.76h-7.176z"/><path fill="#26BDE2" fill-opacity=".3" stroke="#000" d="M1 64h18v18H1zM19 64h18v18H19zM37 64h18v18H37zM55 64h18v18H55zM73 64h18v18H73zM91 64h18v18H91zM109 64h18v18h-18zM127 64h18v18h-18zM145 64h18v18h-18zM163 64h18v18h-18zM181 64h18v18h-18zM199 64h18v18h-18zM217 64h18v18h-18zM235 64h18v18h-18zM253 64h18v18h-18zM271 64h18v18h-18zM289 64h18v18h-18zM307 64h18v18h-18zM325 64h18v18h-18zM343 64h18v18h-18z"/><path fill="#26BDE2" d="M4.54 95.168q-.9 0-1.584-.516-.672-.528-1.056-1.56-.372-1.044-.372-2.58 0-1.524.372-2.532.384-1.02 1.056-1.524a2.6 2.6 0 0 1 1.584-.504q.912 0 1.584.516.672.504 1.044 1.512.384 1.008.384 2.532 0 1.536-.384 2.58-.372 1.032-1.044 1.56-.672.516-1.584.516m0-1.38q.396 0 .696-.3t.468-1.008q.168-.72.168-1.968 0-1.236-.168-1.932-.168-.708-.468-.984a.97.97 0 0 0-.696-.288q-.372 0-.684.288-.3.276-.48.984-.18.696-.18 1.932 0 1.248.18 1.968.18.708.48 1.008.312.3.684.3M82.984 95v-1.44h1.92v-5.604h-1.62v-1.104a7.5 7.5 0 0 0 1.152-.288q.492-.18.912-.456h1.308v7.452h1.668V95zm9.634.168q-.9 0-1.584-.516-.672-.528-1.056-1.56-.372-1.044-.372-2.58 0-1.524.372-2.532.384-1.02 1.056-1.524a2.6 2.6 0 0 1 1.584-.504q.912 0 1.584.516.672.504 1.044 1.512.384 1.008.384 2.532 0 1.536-.384 2.58-.372 1.032-1.044 1.56-.672.516-1.584.516m0-1.38q.396 0 .696-.3t.468-1.008q.168-.72.168-1.968 0-1.236-.168-1.932-.168-.708-.468-.984a.97.97 0 0 0-.696-.288q-.372 0-.684.288-.3.276-.48.984-.18.696-.18 1.932 0 1.248.18 1.968.18.708.48 1.008.312.3.684.3M170.516 95v-1.02a30 30 0 0 0 2.064-2.004q.864-.924 1.32-1.716.456-.804.456-1.488 0-.432-.156-.756a1.1 1.1 0 0 0-.456-.492q-.288-.18-.72-.18-.48 0-.888.276a4 4 0 0 0-.732.636l-.984-.948q.624-.672 1.272-1.008.66-.348 1.56-.348.84 0 1.464.348.636.336.984.948t.348 1.44q0 .804-.408 1.644a8.4 8.4 0 0 1-1.068 1.656 20 20 0 0 1-1.488 1.632q.348-.048.744-.072.408-.036.72-.036h1.92V95zm10.102.168q-.9 0-1.584-.516-.672-.528-1.056-1.56-.372-1.044-.372-2.58 0-1.524.372-2.532.384-1.02 1.056-1.524a2.6 2.6 0 0 1 1.584-.504q.912 0 1.584.516.672.504 1.044 1.512.384 1.008.384 2.532 0 1.536-.384 2.58-.372 1.032-1.044 1.56-.672.516-1.584.516m0-1.38q.396 0 .696-.3t.468-1.008q.168-.72.168-1.968 0-1.236-.168-1.932-.168-.708-.468-.984a.97.97 0 0 0-.696-.288q-.372 0-.684.288-.3.276-.48.984-.18.696-.18 1.932 0 1.248.18 1.968.18.708.48 1.008.312.3.684.3M261.276 95.168q-.696 0-1.248-.168a3.7 3.7 0 0 1-.984-.432 4 4 0 0 1-.732-.636l.828-1.116q.408.372.888.648.492.264 1.092.264a2 2 0 0 0 .792-.144 1.12 1.12 0 0 0 .72-1.092q0-.444-.216-.756-.204-.324-.732-.492t-1.488-.168v-1.272q.816 0 1.284-.168.468-.18.66-.48.204-.312.204-.708 0-.516-.312-.804-.312-.3-.876-.3-.468 0-.876.216a3.7 3.7 0 0 0-.792.564l-.912-1.092a5.3 5.3 0 0 1 1.236-.78q.648-.3 1.428-.3.852 0 1.5.276.66.276 1.02.804t.36 1.284q0 .72-.384 1.236t-1.092.792v.06q.492.132.888.432.408.288.636.732.24.444.24 1.032 0 .804-.432 1.38-.42.576-1.14.888-.708.3-1.56.3m7.342 0q-.9 0-1.584-.516-.672-.528-1.056-1.56-.372-1.044-.372-2.58 0-1.524.372-2.532.384-1.02 1.056-1.524a2.6 2.6 0 0 1 1.584-.504q.912 0 1.584.516.672.504 1.044 1.512.384 1.008.384 2.532 0 1.536-.384 2.58-.372 1.032-1.044 1.56-.672.516-1.584.516m0-1.38q.396 0 .696-.3t.468-1.008q.168-.72.168-1.968 0-1.236-.168-1.932-.168-.708-.468-.984a.97.97 0 0 0-.696-.288q-.372 0-.684.288-.3.276-.48.984-.18.696-.18 1.932 0 1.248.18 1.968.18.708.48 1.008.312.3.684.3M350.044 95v-5.46q0-.384.024-.912.024-.54.048-.936h-.06q-.156.36-.336.72t-.372.732l-1.38 2.208h4.776v1.344h-6.492v-1.2l3.312-5.388h2.124V95zm6.574.168q-.9 0-1.584-.516-.672-.528-1.056-1.56-.372-1.044-.372-2.58 0-1.524.372-2.532.384-1.02 1.056-1.524a2.6 2.6 0 0 1 1.584-.504q.912 0 1.584.516.672.504 1.044 1.512.384 1.008.384 2.532 0 1.536-.384 2.58-.372 1.032-1.044 1.56-.672.516-1.584.516m0-1.38q.396 0 .696-.3t.468-1.008q.168-.72.168-1.968 0-1.236-.168-1.932-.168-.708-.468-.984a.97.97 0 0 0-.696-.288q-.372 0-.684.288-.3.276-.48.984-.18.696-.18 1.932 0 1.248.18 1.968.18.708.48 1.008.312.3.684.3"/></svg>