<svg xmlns="http://www.w3.org/2000/svg" width="362" height="98" fill="none"><path fill="#4C9F38" d="M54.15 33.163c0-1.802-1.157-3.262-2.907-3.262-.875 0-1.93.959-2.506 1.547-.573-.588-1.559-1.55-2.434-1.55-1.75 0-2.975 1.459-2.975 3.26 0 .9.354 1.715.93 2.307l4.487 4.494 4.482-4.49c.573-.593.93-1.408.93-2.31z"/><path fill="#4C9F38" d="M35.047 47.3H35a.73.73 0 0 1-.68-.612l-2.28-13.271-3.451 6.399a.73.73 0 0 1-.776.373.73.73 0 0 1-.6-.62l-1.464-10.244-2.68 6.02a.74.74 0 0 1-.673.438h-10.42a.737.737 0 0 1 0-1.471h9.943l3.528-7.922a.74.74 0 0 1 .775-.43c.326.044.58.298.628.624l1.512 10.563 3.404-6.311a.735.735 0 0 1 .768-.378c.31.052.553.294.608.6l2.112 12.293 7.692-25.547a.738.738 0 0 1 1.368-.108l4.049 8.391a.736.736 0 0 1-1.325.64l-3.225-6.684-8.05 26.732a.74.74 0 0 1-.704.525zM88.488 42.336a9.4 9.4 0 0 1-3.48-.672 9.1 9.1 0 0 1-3-1.92l2.04-2.448a7.8 7.8 0 0 0 2.136 1.44q1.224.528 2.376.528 1.392 0 2.112-.552t.72-1.488q0-.672-.36-1.056-.336-.408-.936-.72t-1.392-.624l-2.352-1.032a8.4 8.4 0 0 1-1.728-.96q-.816-.624-1.368-1.56-.528-.936-.528-2.232 0-1.464.792-2.616t2.184-1.824q1.392-.696 3.168-.696 1.584 0 3.048.6a7.5 7.5 0 0 1 2.544 1.704l-1.8 2.208a7 7 0 0 0-1.752-1.08q-.912-.384-2.04-.384-1.152 0-1.848.504-.672.48-.672 1.368 0 .624.384 1.032t1.008.72q.624.288 1.368.6l2.328.936a7.1 7.1 0 0 1 1.872 1.08q.816.648 1.248 1.56.456.912.456 2.208 0 1.44-.792 2.664-.768 1.224-2.232 1.968-1.44.744-3.504.744M98.161 42V24.216h4.872q2.736 0 4.68.96a6.72 6.72 0 0 1 3.024 2.904q1.08 1.944 1.08 4.944t-1.056 4.992-2.976 3q-1.92.984-4.56.984zm3.552-2.88h1.08q1.68 0 2.88-.6 1.224-.624 1.872-1.968.648-1.368.648-3.528t-.648-3.456q-.648-1.32-1.872-1.896-1.2-.6-2.88-.6h-1.08zm21.212 3.216q-2.4 0-4.344-1.056-1.92-1.056-3.048-3.096t-1.128-4.992q0-2.208.648-3.912.672-1.728 1.848-2.928a7.95 7.95 0 0 1 2.712-1.824 8.7 8.7 0 0 1 3.312-.624q1.92 0 3.264.72 1.368.696 2.232 1.56l-1.896 2.256a7 7 0 0 0-1.488-1.056q-.792-.432-1.992-.432-1.488 0-2.616.744-1.128.72-1.752 2.088t-.624 3.288q0 1.944.576 3.336.6 1.368 1.776 2.112t2.904.744q.648 0 1.248-.168.6-.192.96-.504v-3.504h-3.144v-2.904h6.336V40.2q-.912.888-2.424 1.512t-3.36.624m19.377 0q-1.392 0-2.496-.336a7.3 7.3 0 0 1-1.968-.864 8 8 0 0 1-1.464-1.272l1.656-2.232q.816.744 1.776 1.296a4.55 4.55 0 0 0 2.184.528q.912 0 1.584-.264.696-.288 1.056-.816.384-.528.384-1.272 0-.84-.432-1.44-.408-.624-1.464-.936-1.056-.336-2.976-.336v-2.544q1.632 0 2.568-.336t1.32-.912q.408-.576.408-1.32 0-1.032-.624-1.584t-1.752-.552q-.936 0-1.752.432-.792.408-1.584 1.152l-1.824-2.16a10.7 10.7 0 0 1 2.472-1.608q1.296-.6 2.856-.6 1.704 0 3 .552 1.32.528 2.04 1.584.72 1.032.72 2.52 0 1.392-.768 2.376-.768.96-2.184 1.536v.12a5.4 5.4 0 0 1 1.776.84q.816.576 1.272 1.44.48.84.48 1.992 0 1.584-.864 2.712-.84 1.128-2.28 1.728-1.416.576-3.12.576M177.656 25.44h-1.68v1.176h1.68zm0 4.488v-1.272h-1.68v1.272zm-4.008-3.312V25.44h-2.592v-1.968h2.592v-1.608h2.328v1.608h3.816v3.144h1.44v2.04h-1.44v3.24h-3.816v1.152h3.912v2.136h-3.912v1.152h4.536v2.208h-4.536v2.184h-2.328v-2.184h-3.24v-2.208h3.24v-1.152h-2.76v-2.136h2.76v-1.152h-2.592v-1.968h2.592v-1.272h-3.552v-2.04zm-4.656 3.528 1.488.312c-.288 3.552-.888 6.408-1.776 8.664 1.848 1.728 4.272 2.112 7.008 2.112.984 0 4.32 0 5.544-.024-.336.576-.72 1.704-.864 2.424h-4.824c-3.168 0-5.856-.48-7.944-2.328-.72 1.128-1.512 2.064-2.472 2.76-.384-.456-1.176-1.272-1.728-1.632v1.608h-2.496V32.016c-.36.6-.72 1.128-1.104 1.632-.168-.696-.84-2.376-1.272-3.096 1.632-2.208 3.024-5.52 3.816-8.832l2.568.696a42 42 0 0 1-1.512 4.56v15.288c1.008-.744 1.872-1.704 2.568-2.904-.768-1.224-1.416-2.712-1.896-4.632l1.968-.624c.264 1.032.6 1.944.984 2.736.408-1.32.72-2.784.912-4.488h-2.16c-.408.24-.792.528-.792.768-.192-.48-.744-1.512-1.104-1.992.48-.144 1.128-.84 1.584-1.608.312-.504 1.104-2.064 1.8-3.912h-2.544v-2.424h3.48l.744-.312 1.608 1.104a48 48 0 0 1-2.832 6.216h.816zm28.176 7.416 1.008.408c1.152-.696 2.616-1.728 3.552-2.568h-4.56zm-5.568 1.032 2.664-1.032V35.4h-4.224c1.008.576 2.16 1.272 2.832 1.776zm5.568-6.432v1.32h3.168v-1.32zm0-3.192v1.224h3.168v-1.224zm5.856 3.408V35.4h-.888l1.896 1.512a40 40 0 0 1-3.408 2.064c1.632.72 3.264 1.488 4.296 2.04l-1.296 1.992c-1.464-.864-4.104-2.16-6.456-3.192v1.536c0 1.416-.36 2.016-1.32 2.4-.96.36-2.352.384-4.344.384-.144-.696-.528-1.68-.888-2.328 1.2.048 2.664.048 3.072.024.432 0 .576-.144.576-.528v-1.536c-2.208 1.008-4.512 2.064-6.336 2.88l-1.056-2.328c1.104-.384 2.592-.936 4.248-1.56-.792-.6-2.184-1.512-3.192-2.16l1.152-1.2h-.528v-1.92h5.712v-1.32h-6.408v-1.968h6.408v-1.224h-5.448v-1.92h5.448V26.04H187.4v4.44c0 3.912-.36 9.792-2.496 13.512-.504-.48-1.704-1.272-2.328-1.536 1.968-3.456 2.112-8.424 2.112-11.976v-6.936h9.072a13 13 0 0 0-.72-1.416l2.856-.696c.408.648.84 1.416 1.176 2.112h7.824v2.496h-7.728v1.008h5.856v2.904h2.112v2.424zm15.72 1.368v-3.888h-3.624v-7.968h2.424v1.632h3.768v2.352h-3.768v1.752h2.664v.024h.912v6.096c0 .984-.192 1.392-.84 1.704-.624.288-1.56.288-2.736.288-.096-.552-.384-1.248-.624-1.752.624.048 1.32.048 1.536.024.216 0 .288-.048.288-.264m-3.264-3.312 2.112.36c-.168 1.584-.552 3.144-1.2 4.152-.384-.312-1.32-.864-1.824-1.128.6-.888.792-2.112.912-3.384m13.56 5.52v2.64h-6.768c2.256 1.056 4.656 2.304 6.12 3.216l-1.896 2.184c-1.536-1.056-4.176-2.592-6.552-3.744l1.272-1.656h-7.128l2.016 1.656c-2.064 1.368-5.04 2.856-7.392 3.816a21 21 0 0 0-1.608-2.136c2.112-.792 4.872-2.16 6.48-3.336h-6.552v-2.64h2.16l-.408-12.384c1.512-.48 3.36-1.2 4.584-1.776l1.224 2.328c-1.008.36-2.136.648-3.216.936l.072 2.16h2.736v2.328h-2.664l.072 2.064h2.664v2.328h-2.592l.072 2.016h12.528c.048-.624.072-1.248.12-1.944h-2.424v-2.352h2.52l.072-2.064h-2.424V27.24h2.496c0-.696 0-1.368.024-2.064h-2.76v-2.448h5.376c0 4.272-.12 9.624-.312 13.224zm15.816-.504h-2.376v1.584h2.376zm5.016 1.584v-1.584H247.4v1.584zm-2.472 3.792h2.472v-1.656H247.4zm-4.92-1.656v1.656h2.376v-1.656zm-2.616-5.232v-.768h12.768V44.04h-2.76v-.936h-7.392v.96h-2.616v-8.88l-1.128 1.512c-.408-.576-1.128-1.416-1.824-2.208v9.624h-2.808V36.12c-.792.744-1.608 1.44-2.424 1.992-.24-.768-.912-2.184-1.32-2.712 2.376-1.44 4.68-3.96 6.096-6.72h-5.232v-2.568h3.288c-.408-.936-1.176-2.328-1.776-3.36l2.256-.96c.696 1.08 1.536 2.496 1.92 3.384l-1.872.936h2.856l.48-.12 1.584 1.032a24.6 24.6 0 0 1-2.448 4.896c.648.504 1.68 1.416 2.352 2.016m9.072-3.984v-1.728h-5.376v1.728zm-7.896-3.864h10.536v6H241.04zm-1.32-3.432h12.984v2.4H239.72zm25.176 12.216-1.752 2.352a44 44 0 0 0-1.992-2.544v9.408h-2.808v-7.944c-.792.744-1.56 1.416-2.376 1.968-.216-.768-.912-2.184-1.32-2.712 2.352-1.44 4.656-3.984 6.048-6.72h-5.616v-2.568h4.68c-.552-.888-1.512-2.064-2.376-2.928l2.136-1.44c1.008.936 2.16 2.208 2.688 3.096l-1.704 1.272h1.608l.504-.12 1.56 1.032c-.6 1.704-1.44 3.36-2.424 4.896a100 100 0 0 1 3.144 2.952m7.944 6.024h4.344v2.76h-14.352v-2.76h2.208V27.24h2.832v13.656h2.064V22.032h2.904v7.92h3.912v2.712h-3.912z"/><path fill="#4C9F38" stroke="#000" d="M1 64h18v18H1zM19 64h18v18H19zM37 64h18v18H37zM55 64h18v18H55z"/><path fill="#4C9F38" fill-opacity=".3" stroke="#000" d="M73 64h18v18H73zM91 64h18v18H91zM109 64h18v18h-18zM127 64h18v18h-18zM145 64h18v18h-18zM163 64h18v18h-18zM181 64h18v18h-18zM199 64h18v18h-18zM217 64h18v18h-18zM235 64h18v18h-18zM253 64h18v18h-18zM271 64h18v18h-18zM289 64h18v18h-18zM307 64h18v18h-18zM325 64h18v18h-18zM343 64h18v18h-18z"/><path fill="#4C9F38" d="M4.54 95.168q-.9 0-1.584-.516-.672-.528-1.056-1.56-.372-1.044-.372-2.58 0-1.524.372-2.532.384-1.02 1.056-1.524a2.6 2.6 0 0 1 1.584-.504q.912 0 1.584.516.672.504 1.044 1.512.384 1.008.384 2.532 0 1.536-.384 2.58-.372 1.032-1.044 1.56-.672.516-1.584.516m0-1.38q.396 0 .696-.3t.468-1.008q.168-.72.168-1.968 0-1.236-.168-1.932-.168-.708-.468-.984a.97.97 0 0 0-.696-.288q-.372 0-.684.288-.3.276-.48.984-.18.696-.18 1.932 0 1.248.18 1.968.18.708.48 1.008.312.3.684.3M82.984 95v-1.44h1.92v-5.604h-1.62v-1.104a7.5 7.5 0 0 0 1.152-.288q.492-.18.912-.456h1.308v7.452h1.668V95zm9.634.168q-.9 0-1.584-.516-.672-.528-1.056-1.56-.372-1.044-.372-2.58 0-1.524.372-2.532.384-1.02 1.056-1.524a2.6 2.6 0 0 1 1.584-.504q.912 0 1.584.516.672.504 1.044 1.512.384 1.008.384 2.532 0 1.536-.384 2.58-.372 1.032-1.044 1.56-.672.516-1.584.516m0-1.38q.396 0 .696-.3t.468-1.008q.168-.72.168-1.968 0-1.236-.168-1.932-.168-.708-.468-.984a.97.97 0 0 0-.696-.288q-.372 0-.684.288-.3.276-.48.984-.18.696-.18 1.932 0 1.248.18 1.968.18.708.48 1.008.312.3.684.3M170.516 95v-1.02a30 30 0 0 0 2.064-2.004q.864-.924 1.32-1.716.456-.804.456-1.488 0-.432-.156-.756a1.1 1.1 0 0 0-.456-.492q-.288-.18-.72-.18-.48 0-.888.276a4 4 0 0 0-.732.636l-.984-.948q.624-.672 1.272-1.008.66-.348 1.56-.348.84 0 1.464.348.636.336.984.948t.348 1.44q0 .804-.408 1.644a8.4 8.4 0 0 1-1.068 1.656 20 20 0 0 1-1.488 1.632q.348-.048.744-.072.408-.036.72-.036h1.92V95zm10.102.168q-.9 0-1.584-.516-.672-.528-1.056-1.56-.372-1.044-.372-2.58 0-1.524.372-2.532.384-1.02 1.056-1.524a2.6 2.6 0 0 1 1.584-.504q.912 0 1.584.516.672.504 1.044 1.512.384 1.008.384 2.532 0 1.536-.384 2.58-.372 1.032-1.044 1.56-.672.516-1.584.516m0-1.38q.396 0 .696-.3t.468-1.008q.168-.72.168-1.968 0-1.236-.168-1.932-.168-.708-.468-.984a.97.97 0 0 0-.696-.288q-.372 0-.684.288-.3.276-.48.984-.18.696-.18 1.932 0 1.248.18 1.968.18.708.48 1.008.312.3.684.3M261.276 95.168q-.696 0-1.248-.168a3.7 3.7 0 0 1-.984-.432 4 4 0 0 1-.732-.636l.828-1.116q.408.372.888.648.492.264 1.092.264a2 2 0 0 0 .792-.144 1.12 1.12 0 0 0 .72-1.092q0-.444-.216-.756-.204-.324-.732-.492t-1.488-.168v-1.272q.816 0 1.284-.168.468-.18.66-.48.204-.312.204-.708 0-.516-.312-.804-.312-.3-.876-.3-.468 0-.876.216a3.7 3.7 0 0 0-.792.564l-.912-1.092a5.3 5.3 0 0 1 1.236-.78q.648-.3 1.428-.3.852 0 1.5.276.66.276 1.02.804t.36 1.284q0 .72-.384 1.236t-1.092.792v.06q.492.132.888.432.408.288.636.732.24.444.24 1.032 0 .804-.432 1.38-.42.576-1.14.888-.708.3-1.56.3m7.342 0q-.9 0-1.584-.516-.672-.528-1.056-1.56-.372-1.044-.372-2.58 0-1.524.372-2.532.384-1.02 1.056-1.524a2.6 2.6 0 0 1 1.584-.504q.912 0 1.584.516.672.504 1.044 1.512.384 1.008.384 2.532 0 1.536-.384 2.58-.372 1.032-1.044 1.56-.672.516-1.584.516m0-1.38q.396 0 .696-.3t.468-1.008q.168-.72.168-1.968 0-1.236-.168-1.932-.168-.708-.468-.984a.97.97 0 0 0-.696-.288q-.372 0-.684.288-.3.276-.48.984-.18.696-.18 1.932 0 1.248.18 1.968.18.708.48 1.008.312.3.684.3M350.044 95v-5.46q0-.384.024-.912.024-.54.048-.936h-.06q-.156.36-.336.72t-.372.732l-1.38 2.208h4.776v1.344h-6.492v-1.2l3.312-5.388h2.124V95zm6.574.168q-.9 0-1.584-.516-.672-.528-1.056-1.56-.372-1.044-.372-2.58 0-1.524.372-2.532.384-1.02 1.056-1.524a2.6 2.6 0 0 1 1.584-.504q.912 0 1.584.516.672.504 1.044 1.512.384 1.008.384 2.532 0 1.536-.384 2.58-.372 1.032-1.044 1.56-.672.516-1.584.516m0-1.38q.396 0 .696-.3t.468-1.008q.168-.72.168-1.968 0-1.236-.168-1.932-.168-.708-.468-.984a.97.97 0 0 0-.696-.288q-.372 0-.684.288-.3.276-.48.984-.18.696-.18 1.932 0 1.248.18 1.968.18.708.48 1.008.312.3.684.3"/></svg>