<svg xmlns="http://www.w3.org/2000/svg" width="362" height="98" fill="none"><path fill="#3F7E44" d="M56.49 31.647c-1.687-2.366-9.315-11.807-23.494-11.807S11.19 29.28 9.503 31.647c-.071.1-.135.187-.183.263l.183.266c1.69 2.362 9.315 11.807 23.493 11.807 14.179 0 21.807-9.44 23.493-11.807q.112-.153.183-.266a4 4 0 0 0-.183-.263m-31.4-5.838c.127-.187.552-.724.604-.791.108-.14.326-.171.477-.195.152-.028.35.056.374.167.028.115-.06.553-.131.628-.207.215-.748.521-1.046.474-.23-.036-.322-.215-.278-.283m-.51 1.01c.024-.028.044-.047.052-.06.18-.202.533-.246.78-.286.246-.043.573.084.612.247.044.163-.616.461-.736.573-.341.314-.875.954-1.189 1.022a.36.36 0 0 1-.254-.028 9.5 9.5 0 0 1 .736-1.468m5.31 10.885c-.19.756-.418 1.026-.608 1.265-.191.242-.9.548-1.349.517-.45-.032-.513-1.233-.513-1.85 0-.214-.302.418-.457-.863-.1-.823-.629.088-.664-.46-.036-.546-.303-.438-.577-.78s-.62.031-1.006.206c-.382.171-.227.259-.772.088-.016-.004-.02-.008-.036-.012a9.8 9.8 0 0 1-.775-3.846q0-.499.048-.986.03-.05.06-.091c.52-.617.508-.764.508-.764l.577-.199s.923.143 1.619.406c.572.215 1.475.7 2 .485.378-.155.676-.362.64-.68-.043-.398-.353-.49-.731-.223-.14.1-.438-.596-.668-.56s.286.815.091.85c-.199.032-.597-.815-.664-.954-.068-.135-.374-.477-.648-.219-.581.553-1.528.521-1.718.66-.577.434-.732-.143-.72-.493l.071-.238c.187-.207.867-.279 1.098-.123.254.17.437-.044.537-.148.1-.099.067-.266 0-.401-.064-.14.127-.239.258-.275.132-.035.573-.342.748-.445.179-.104 1.09-.215 1.5-.008s.783.04.986-.199c.25-.298.572-.529.716-.596.143-.068-.354-.53-.76-.024-.41.5-.617.549-.807.549s-1.333-.287-1.472-.645c-.14-.358.358-.628.78-.835.421-.199 1.57-.199 1.865-.266.596-.132 1.364-.434 1.75-.171.382.258-1.61.711-.955 1.066.235.127 1.289-.605 1.647-.796.851-.437-.823-.585-.609-1.471.247-1.006-2.052-.617-3.197-.533A9.84 9.84 0 0 1 33 22.087c4.661 0 8.563 3.229 9.605 7.568.008.214-.028.37-.048.457-.087.358-.763.66-1.157.088-.1-.143-.525-.545-.51.139.013.684.665.755.037 1.165-.633.41-.748.31-1.038.414s-.573.807-.506 1.185c.072.378.97 1.408.303 1.364-.155-.012-1.337-.82-1.532-1.336-.206-.545-.429-1.078-.588-1.492-.163-.41-.577-.513-.93-.274-.35.242.099.481-.156.994-.25.513-.433.97-.803.549-.963-1.106-2.367-.56-2.585-1.79-.12-.668-.692-.604-1.174-.978-.48-.374-.751-.58-.83-.306-.072.238 1.51 1.491 1.622 1.813.167.477-.474.899-.943 1.01-.465.112-.672-.262-1.133-.743-.462-.478-.66-.82-.692-.446-.048.545.437 1.34.907 1.639.397.254.847.366.72.78-.132.413 0 .178-.45.62-.45.445-.533.588-.501 1.205.032.616-.127.652-.223 1.165-.095.513-.318.067-.513.823m10.603-3.937c.334-.028.831.433.636.608s-.692.112-.942-.083.155-.513.306-.525m-.422-.302c-.107-.04-.198-.14-.282-.382-.08-.243.123-.382.322-.282.203.103.466.405.466.568s-.398.143-.51.1m-4.354-.02c-.195.175-.696.111-.943-.084s.16-.513.306-.525c.334-.027.832.434.637.609m-4.033 1.96c-.135.223-.51 1.885-.756 1.69-.25-.194.1-1.924.175-2.06.39-.715 1.233-.68.585.37m1.336 6.439a9.8 9.8 0 0 1-2.776-.398.404.404 0 0 1-.12-.48c.307-.796 1.218-1.11 1.934-1.178 1.602-.155 3.706 1.038 4.04.847.334-.19 1.015-1.074 2.009-1.038.68.028.672.14.899.227a9.83 9.83 0 0 1-5.986 2.024m6.968-2.88a1.7 1.7 0 0 1-.31-.115c-.541-.274-.474.163-.74.068-.266-.1.298-.716-.497-.195-.791.517-.58-.08-.927-.958-.35-.88.398-1.885 1.022-2.112.86-.31 1.392-.374 1.794-.473 1.185-.299 1.436-1.002 1.654-.573l.116.227c.068.127.147.385.151.644a9.9 9.9 0 0 1-2.263 3.484m2.705-4.983c-.267-.072-1.377-1.607-.498-2.613.148-.167-.294-.652-.175-.664.482-.036.736.258.86.688.007.19.015.381.015.572q-.002 1.038-.206 2.017M88.488 42.336c-2.376 0-4.752-.936-6.48-2.592l2.04-2.448c1.272 1.176 2.952 1.968 4.512 1.968 1.848 0 2.832-.792 2.832-2.04 0-1.32-1.08-1.728-2.664-2.4l-2.376-1.008c-1.8-.744-3.6-2.184-3.6-4.776 0-2.904 2.544-5.136 6.144-5.136 2.064 0 4.128.816 5.568 2.28l-1.8 2.232c-1.128-.936-2.304-1.464-3.768-1.464-1.56 0-2.544.696-2.544 1.872 0 1.272 1.248 1.728 2.76 2.328l2.328.984c2.16.888 3.576 2.256 3.576 4.824 0 2.904-2.424 5.376-6.528 5.376M98.161 42V24.216h4.872c5.424 0 8.784 2.832 8.784 8.832 0 5.976-3.36 8.952-8.592 8.952zm3.552-2.856h1.104c3.312 0 5.376-1.776 5.376-6.096 0-4.344-2.064-5.976-5.376-5.976h-1.104zm21.212 3.192c-4.824 0-8.52-3.216-8.52-9.144 0-5.856 3.792-9.288 8.52-9.288 2.568 0 4.344 1.104 5.496 2.28l-1.872 2.256c-.888-.84-1.896-1.488-3.504-1.488-2.952 0-5.016 2.304-5.016 6.12 0 3.864 1.776 6.192 5.28 6.192.84 0 1.704-.24 2.208-.672v-3.504h-3.144v-2.904h6.312V40.2c-1.2 1.176-3.288 2.136-5.76 2.136m13.124 0c-1.8 0-3.768-.792-5.112-1.896l1.608-2.208c1.2.936 2.352 1.464 3.6 1.464 1.344 0 1.944-.576 1.944-1.416 0-1.008-1.392-1.464-2.808-2.016-1.704-.648-3.6-1.68-3.6-3.936 0-2.4 1.944-4.104 5.016-4.104 1.944 0 3.456.816 4.56 1.656l-1.584 2.136c-.96-.696-1.896-1.152-2.88-1.152-1.224 0-1.8.528-1.8 1.296 0 .984 1.248 1.344 2.664 1.872 1.776.672 3.744 1.56 3.744 4.056 0 2.352-1.848 4.248-5.352 4.248M149.601 42v-2.856h3.816V28.368h-3.216v-2.184c1.776-.336 3-.792 4.128-1.488h2.616v14.448h3.336V42zm18.741.336c-2.808 0-4.704-1.056-5.952-2.472l1.656-2.232c1.056 1.032 2.352 1.824 3.96 1.824 1.8 0 3.024-.864 3.024-2.352 0-1.68-1.032-2.712-4.896-2.712v-2.544c3.264 0 4.32-1.08 4.32-2.568 0-1.344-.864-2.136-2.376-2.136-1.272 0-2.304.6-3.36 1.584l-1.8-2.16c1.536-1.344 3.24-2.208 5.328-2.208 3.432 0 5.76 1.68 5.76 4.656 0 1.872-1.104 3.168-2.952 3.912v.12c1.992.528 3.528 1.992 3.528 4.272 0 3.168-2.856 5.016-6.24 5.016M189.616 38.544l2.088.792c-1.08 1.872-2.952 3.768-4.872 4.728-.408-.624-1.2-1.56-1.776-2.064 1.752-.672 3.6-2.064 4.56-3.456m10.488-.312h-5.568v5.808h-2.688v-5.808h-5.928v-2.16h2.76c-.24-.792-.84-1.944-1.464-2.736l2.16-.864c.672.864 1.368 1.992 1.584 2.784l-1.992.816h2.88v-3.624h2.688v3.624h2.016l-1.296-.504c.552-.84 1.272-2.112 1.656-3l2.52.768c-.792.984-1.584 1.992-2.208 2.736h2.88zm-5.304 1.776 1.632-1.536c1.44.984 3.432 2.472 4.416 3.456l-1.704 1.752c-.936-1.008-2.88-2.568-4.344-3.672m-7.056-10.176h15.552c-.072 6.528.168 11.352 1.56 11.352.36 0 .48-1.32.504-3.36.552.696 1.248 1.416 1.824 1.824-.192 3.072-.744 4.392-2.544 4.392-3.576 0-4.128-5.064-4.224-12.072H187.48v-1.896c-.288.264-.552.504-.84.72-.384-.576-1.392-1.776-1.992-2.328 2.232-1.536 4.248-4.08 5.352-6.768l2.784.84c-.168.384-.36.792-.576 1.2h14.064v2.136h-15.288c-.192.312-.408.624-.624.936h13.896v2.064H190.24v-1.896c-.792 1.056-1.608 2.04-2.496 2.856m25.296-8.088 2.64.768a53 53 0 0 1-1.848 4.992v16.584h-2.712V32.52a23 23 0 0 1-1.152 1.584c-.216-.696-.936-2.328-1.392-3.072 1.824-2.304 3.504-5.808 4.464-9.288m4.488 4.752v12.84h-2.472v-12.84zm13.656 11.616h-5.4c-.696 2.184-2.544 4.416-6.888 6.024-.408-.576-1.248-1.56-1.896-2.088 3.552-1.056 5.088-2.52 5.76-3.936h-4.512v-2.4h4.992v-2.28h-1.776a13.7 13.7 0 0 1-1.536 2.208c-.528-.432-1.584-1.104-2.208-1.416 1.176-1.224 2.184-3.096 2.736-4.92H218.2v-2.376h7.896c.096-.624.192-1.272.288-1.896h-7.104V22.68h7.68l.408-.12 2.016.24a57 57 0 0 1-.6 4.128h2.304v2.376h-10.296l2.256.528c-.144.408-.288.816-.456 1.248h7.896v2.352h-4.368v2.28h5.064zm-5.928 1.656 1.944-1.488c1.344 1.224 3.336 2.952 4.368 4.032l-2.04 1.704c-.936-1.08-2.856-2.928-4.272-4.248m29.136-16.728v2.712h-11.664V23.04zm-16.272-1.368 2.76 1.128c-1.728 2.256-4.32 4.728-6.6 6.312-.36-.624-1.08-1.776-1.584-2.328 1.992-1.272 4.272-3.432 5.424-5.112m.912 5.184 2.736 1.056c-.72 1.224-1.608 2.472-2.568 3.672v12.528h-2.856v-9.384a32 32 0 0 1-1.968 1.776c-.408-.576-1.368-1.872-1.944-2.472 2.448-1.68 5.064-4.464 6.6-7.176m15.96 2.784v2.712h-3.288v8.424c0 1.536-.288 2.328-1.344 2.76-1.008.432-2.544.48-4.68.48-.12-.84-.48-2.064-.864-2.904 1.368.072 2.952.072 3.384.048.432 0 .6-.096.6-.456v-8.352h-7.08V29.64zm9.264 9.48v1.224c1.368-.096 2.784-.216 4.176-.336 1.872-2.592 2.448-6.024 2.616-10.32h-2.184v-1.872h-4.608v.936h4.248v7.416h-4.248v.936h4.344v2.016zm-4.464-4.728h1.872v-1.08h-1.872zm6.336-1.08h-1.872v1.08h1.872zm-1.872-1.704h1.872v-1.056h-1.872zm-4.464-1.056v1.056h1.872v-1.056zm14.04-3.48h4.872s-.024.936-.024 1.272c-.216 9.816-.408 13.296-1.176 14.4-.552.792-1.104 1.032-1.896 1.2-.72.144-1.824.12-2.976.096-.048-.792-.36-1.944-.84-2.736 1.056.096 1.968.12 2.424.12.36 0 .6-.096.816-.408.504-.648.744-3.576.888-11.328h-2.16c-.312 6.432-1.416 11.376-5.448 14.568-.36-.576-1.056-1.368-1.68-1.896-3.456.36-6.912.72-9.504.936l-.336-2.4c1.344-.096 3.024-.216 4.872-.336v-1.44h-4.224v-2.016h4.224v-.936h-4.128v-7.416h4.128v-.936h-4.728v-2.064h4.728v-.96c-1.392.096-2.76.168-4.056.192-.096-.576-.36-1.464-.624-2.016 3.552-.192 7.704-.6 10.344-1.176l1.248 2.136c-1.272.264-2.76.48-4.32.648v1.176h4.608v1.32h2.256c.024-1.584.024-3.24.024-5.016h2.736c0 1.752 0 3.432-.048 5.016"/><path fill="#3F7E44" fill-opacity=".3" stroke="#000" d="M1 64h18v18H1zM19 64h18v18H19zM37 64h18v18H37zM55 64h18v18H55zM73 64h18v18H73zM91 64h18v18H91zM109 64h18v18h-18zM127 64h18v18h-18zM145 64h18v18h-18zM163 64h18v18h-18zM181 64h18v18h-18zM199 64h18v18h-18zM217 64h18v18h-18zM235 64h18v18h-18zM253 64h18v18h-18zM271 64h18v18h-18zM289 64h18v18h-18zM307 64h18v18h-18zM325 64h18v18h-18zM343 64h18v18h-18z"/><path fill="#3F7E44" d="M4.54 95.168q-.9 0-1.584-.516-.672-.528-1.056-1.56-.372-1.044-.372-2.58 0-1.524.372-2.532.384-1.02 1.056-1.524a2.6 2.6 0 0 1 1.584-.504q.912 0 1.584.516.672.504 1.044 1.512.384 1.008.384 2.532 0 1.536-.384 2.58-.372 1.032-1.044 1.56-.672.516-1.584.516m0-1.38q.396 0 .696-.3t.468-1.008q.168-.72.168-1.968 0-1.236-.168-1.932-.168-.708-.468-.984a.97.97 0 0 0-.696-.288q-.372 0-.684.288-.3.276-.48.984-.18.696-.18 1.932 0 1.248.18 1.968.18.708.48 1.008.312.3.684.3M82.984 95v-1.44h1.92v-5.604h-1.62v-1.104a7.5 7.5 0 0 0 1.152-.288q.492-.18.912-.456h1.308v7.452h1.668V95zm9.634.168q-.9 0-1.584-.516-.672-.528-1.056-1.56-.372-1.044-.372-2.58 0-1.524.372-2.532.384-1.02 1.056-1.524a2.6 2.6 0 0 1 1.584-.504q.912 0 1.584.516.672.504 1.044 1.512.384 1.008.384 2.532 0 1.536-.384 2.58-.372 1.032-1.044 1.56-.672.516-1.584.516m0-1.38q.396 0 .696-.3t.468-1.008q.168-.72.168-1.968 0-1.236-.168-1.932-.168-.708-.468-.984a.97.97 0 0 0-.696-.288q-.372 0-.684.288-.3.276-.48.984-.18.696-.18 1.932 0 1.248.18 1.968.18.708.48 1.008.312.3.684.3M170.516 95v-1.02a30 30 0 0 0 2.064-2.004q.864-.924 1.32-1.716.456-.804.456-1.488 0-.432-.156-.756a1.1 1.1 0 0 0-.456-.492q-.288-.18-.72-.18-.48 0-.888.276a4 4 0 0 0-.732.636l-.984-.948q.624-.672 1.272-1.008.66-.348 1.56-.348.84 0 1.464.348.636.336.984.948t.348 1.44q0 .804-.408 1.644a8.4 8.4 0 0 1-1.068 1.656 20 20 0 0 1-1.488 1.632q.348-.048.744-.072.408-.036.72-.036h1.92V95zm10.102.168q-.9 0-1.584-.516-.672-.528-1.056-1.56-.372-1.044-.372-2.58 0-1.524.372-2.532.384-1.02 1.056-1.524a2.6 2.6 0 0 1 1.584-.504q.912 0 1.584.516.672.504 1.044 1.512.384 1.008.384 2.532 0 1.536-.384 2.58-.372 1.032-1.044 1.56-.672.516-1.584.516m0-1.38q.396 0 .696-.3t.468-1.008q.168-.72.168-1.968 0-1.236-.168-1.932-.168-.708-.468-.984a.97.97 0 0 0-.696-.288q-.372 0-.684.288-.3.276-.48.984-.18.696-.18 1.932 0 1.248.18 1.968.18.708.48 1.008.312.3.684.3M261.276 95.168q-.696 0-1.248-.168a3.7 3.7 0 0 1-.984-.432 4 4 0 0 1-.732-.636l.828-1.116q.408.372.888.648.492.264 1.092.264a2 2 0 0 0 .792-.144 1.12 1.12 0 0 0 .72-1.092q0-.444-.216-.756-.204-.324-.732-.492t-1.488-.168v-1.272q.816 0 1.284-.168.468-.18.66-.48.204-.312.204-.708 0-.516-.312-.804-.312-.3-.876-.3-.468 0-.876.216a3.7 3.7 0 0 0-.792.564l-.912-1.092a5.3 5.3 0 0 1 1.236-.78q.648-.3 1.428-.3.852 0 1.5.276.66.276 1.02.804t.36 1.284q0 .72-.384 1.236t-1.092.792v.06q.492.132.888.432.408.288.636.732.24.444.24 1.032 0 .804-.432 1.38-.42.576-1.14.888-.708.3-1.56.3m7.342 0q-.9 0-1.584-.516-.672-.528-1.056-1.56-.372-1.044-.372-2.58 0-1.524.372-2.532.384-1.02 1.056-1.524a2.6 2.6 0 0 1 1.584-.504q.912 0 1.584.516.672.504 1.044 1.512.384 1.008.384 2.532 0 1.536-.384 2.58-.372 1.032-1.044 1.56-.672.516-1.584.516m0-1.38q.396 0 .696-.3t.468-1.008q.168-.72.168-1.968 0-1.236-.168-1.932-.168-.708-.468-.984a.97.97 0 0 0-.696-.288q-.372 0-.684.288-.3.276-.48.984-.18.696-.18 1.932 0 1.248.18 1.968.18.708.48 1.008.312.3.684.3M350.044 95v-5.46q0-.384.024-.912.024-.54.048-.936h-.06q-.156.36-.336.72t-.372.732l-1.38 2.208h4.776v1.344h-6.492v-1.2l3.312-5.388h2.124V95zm6.574.168q-.9 0-1.584-.516-.672-.528-1.056-1.56-.372-1.044-.372-2.58 0-1.524.372-2.532.384-1.02 1.056-1.524a2.6 2.6 0 0 1 1.584-.504q.912 0 1.584.516.672.504 1.044 1.512.384 1.008.384 2.532 0 1.536-.384 2.58-.372 1.032-1.044 1.56-.672.516-1.584.516m0-1.38q.396 0 .696-.3t.468-1.008q.168-.72.168-1.968 0-1.236-.168-1.932-.168-.708-.468-.984a.97.97 0 0 0-.696-.288q-.372 0-.684.288-.3.276-.48.984-.18.696-.18 1.932 0 1.248.18 1.968.18.708.48 1.008.312.3.684.3"/></svg>