<svg width="362" height="98" viewBox="0 0 362 98" fill="none" xmlns="http://www.w3.org/2000/svg">
<path d="M56.4891 31.6472C54.8028 29.281 47.1747 19.8398 32.9962 19.8398C18.8177 19.8398 11.1896 29.281 9.50326 31.6472C9.43167 31.7466 9.36804 31.8341 9.32031 31.9097C9.37202 31.9853 9.43167 32.0727 9.50326 32.1761C11.1935 34.5384 18.8177 43.9835 32.9962 43.9835C47.1747 43.9835 54.8028 34.5424 56.4891 32.1761C56.5647 32.0727 56.6243 31.9853 56.672 31.9097C56.6243 31.8341 56.5647 31.7466 56.4891 31.6472ZM25.0896 25.8091C25.2169 25.6222 25.6425 25.0854 25.6942 25.0177C25.8015 24.8786 26.0203 24.8467 26.1714 24.8229C26.3226 24.795 26.5214 24.8786 26.5453 24.9899C26.5731 25.1052 26.4856 25.5427 26.414 25.6183C26.2072 25.833 25.6663 26.1392 25.368 26.0915C25.1374 26.0557 25.0459 25.8768 25.0896 25.8091ZM24.5806 26.8193C24.6044 26.7914 24.6243 26.7716 24.6323 26.7596C24.8112 26.5568 25.1652 26.5131 25.4118 26.4733C25.6584 26.4295 25.9845 26.5568 26.0243 26.7199C26.068 26.8829 25.4078 27.1812 25.2885 27.2925C24.9465 27.6067 24.4135 28.247 24.0993 28.3146C23.9959 28.3384 23.9124 28.3225 23.8448 28.2867C24.0516 27.7737 24.2942 27.2806 24.5806 26.8193ZM29.89 37.704C29.6991 38.4596 29.4724 38.73 29.2815 38.9687C29.0906 39.2113 28.3827 39.5175 27.9333 39.4857C27.4839 39.4538 27.4202 38.2528 27.4202 37.6364C27.4202 37.4216 27.118 38.054 26.9629 36.7734C26.8634 35.9502 26.3345 36.8609 26.2987 36.3121C26.2629 35.7673 25.9964 35.8746 25.722 35.5326C25.4476 35.1906 25.1016 35.5644 24.7158 35.7394C24.334 35.9104 24.4891 35.9979 23.9442 35.8269C23.9283 35.8229 23.9243 35.819 23.9084 35.815C23.4073 34.6339 23.1329 33.3334 23.1329 31.9693C23.1329 31.6353 23.1488 31.3092 23.1806 30.9831C23.2005 30.9513 23.2204 30.9194 23.2403 30.8916C23.7613 30.2752 23.7493 30.128 23.7493 30.128L24.326 29.9292C24.326 29.9292 25.2487 30.0724 25.9447 30.3348C26.5174 30.5496 27.4202 31.0348 27.9452 30.82C28.323 30.6649 28.6213 30.4581 28.5855 30.14C28.5418 29.7423 28.2316 29.6508 27.8537 29.9173C27.7145 30.0167 27.4163 29.3207 27.1856 29.3565C26.9549 29.3923 27.4719 30.1718 27.2771 30.2076C27.0782 30.2394 26.6805 29.3923 26.6129 29.2531C26.5453 29.1179 26.239 28.7759 25.9646 29.0344C25.3839 29.5872 24.4374 29.5554 24.2465 29.6946C23.6698 30.128 23.5147 29.5514 23.5266 29.2014C23.5505 29.1219 23.5744 29.0424 23.5982 28.9628C23.7851 28.756 24.4652 28.6844 24.6959 28.8395C24.9504 29.0105 25.1334 28.7958 25.2328 28.6924C25.3322 28.593 25.3004 28.4259 25.2328 28.2907C25.1692 28.1515 25.3601 28.0521 25.4913 28.0163C25.6226 27.9805 26.064 27.6743 26.239 27.5709C26.418 27.4675 27.3288 27.3562 27.7384 27.563C28.1481 27.7698 28.5219 27.6027 28.7247 27.3641C28.9753 27.0658 29.2974 26.8352 29.4406 26.7676C29.5838 26.7 29.0867 26.2387 28.681 26.7437C28.2713 27.2448 28.0645 27.2925 27.8736 27.2925C27.6827 27.2925 26.5413 27.0062 26.4021 26.6483C26.2629 26.2904 26.76 26.0199 27.1816 25.8131C27.6032 25.6143 28.7526 25.6143 29.0469 25.5467C29.6435 25.4154 30.411 25.1132 30.7968 25.3757C31.1786 25.6342 29.1861 26.0875 29.8423 26.4415C30.077 26.5687 31.1309 25.837 31.4888 25.6461C32.34 25.2086 30.6656 25.0615 30.8803 24.1746C31.1269 23.1685 28.8281 23.5582 27.6827 23.6417C29.2179 22.6595 31.0434 22.0868 33.0002 22.0868C37.6614 22.0868 41.5629 25.316 42.6049 29.6548C42.6129 29.8695 42.5771 30.0246 42.5572 30.1121C42.4697 30.4701 41.7936 30.7723 41.3999 30.1996C41.3004 30.0565 40.8749 29.6548 40.8908 30.3388C40.9027 31.0228 41.555 31.0944 40.9266 31.504C40.2942 31.9137 40.1789 31.8142 39.8885 31.9176C39.5982 32.021 39.3158 32.725 39.3835 33.1028C39.455 33.4806 40.3539 34.5106 39.6857 34.4668C39.5306 34.4549 38.3494 33.6476 38.1545 33.1306C37.9477 32.5858 37.725 32.0529 37.5659 31.6393C37.4028 31.2296 36.9892 31.1262 36.6353 31.3649C36.2853 31.6074 36.7347 31.8461 36.4801 32.3591C36.2296 32.8721 36.0466 33.3294 35.6768 32.9079C34.7143 31.8023 33.3104 32.3471 33.0916 31.1183C32.9723 30.4502 32.3996 30.5138 31.9184 30.14C31.4371 29.7661 31.1667 29.5594 31.0872 29.8338C31.0156 30.0724 32.5985 31.3251 32.7098 31.6472C32.8769 32.1244 32.2365 32.546 31.7672 32.6573C31.3019 32.7687 31.0951 32.3949 30.6338 31.9137C30.1724 31.4364 29.9736 31.0944 29.9417 31.4683C29.894 32.0131 30.3792 32.8085 30.8485 33.1067C31.2462 33.3613 31.6957 33.4726 31.5684 33.8862C31.4371 34.2998 31.5684 34.0652 31.119 34.5066C30.6696 34.952 30.586 35.0952 30.6179 35.7116C30.6497 36.328 30.4906 36.3638 30.3951 36.8768C30.2997 37.3898 30.077 36.9444 29.8821 37.7M40.4851 33.7629C40.8192 33.7351 41.3163 34.1964 41.1215 34.3714C40.9266 34.5464 40.4294 34.4827 40.1789 34.2879C39.9283 34.093 40.334 33.7748 40.4851 33.7629ZM40.0635 33.4607C39.9562 33.4209 39.8647 33.3215 39.7812 33.0789C39.7016 32.8363 39.9045 32.6971 40.1033 32.7965C40.3061 32.8999 40.5686 33.2022 40.5686 33.3652C40.5686 33.5283 40.1709 33.5084 40.0596 33.4647M35.7046 33.4448C35.5097 33.6197 35.0086 33.5561 34.762 33.3613C34.5154 33.1664 34.9211 32.8482 35.0683 32.8363C35.4023 32.8085 35.8995 33.2698 35.7046 33.4448ZM31.6718 35.4054C31.5366 35.6281 31.1627 37.2904 30.9161 37.0955C30.6656 36.9007 31.0156 35.1707 31.0911 35.0355C31.4809 34.3197 32.324 34.3555 31.6758 35.4054M33.0121 41.8439C32.0456 41.8439 31.115 41.7048 30.236 41.4463C30.1088 41.3429 30.0372 41.1719 30.1167 40.9651C30.423 40.1697 31.3337 39.8555 32.0496 39.7879C33.6524 39.6328 35.7563 40.8259 36.0904 40.635C36.4245 40.4441 37.1046 39.5612 38.0988 39.597C38.7789 39.6248 38.771 39.7362 38.9977 39.8237C37.3352 41.0923 35.2631 41.8479 33.0121 41.8479M39.98 38.9687C39.8806 38.9408 39.7812 38.909 39.6698 38.8533C39.1289 38.5789 39.1965 39.0164 38.9301 38.9209C38.6636 38.8215 39.2283 38.2051 38.4329 38.7261C37.6415 39.2431 37.8523 38.6465 37.5062 37.7676C37.1563 36.8887 37.904 35.8826 38.5284 35.6559C39.3874 35.3457 39.9204 35.2821 40.3221 35.1827C41.5072 34.8844 41.7578 34.1805 41.9765 34.61C42.0163 34.6895 42.0561 34.7651 42.0919 34.8367C42.1595 34.9639 42.239 35.2224 42.243 35.4809C41.7379 36.8013 40.9624 37.9864 39.98 38.9647M42.6845 33.9816C42.418 33.9101 41.3084 32.375 42.1873 31.3688C42.3345 31.2018 41.893 30.7166 42.0123 30.7047C42.4936 30.6689 42.7481 30.9632 42.8714 31.3927C42.8793 31.5836 42.8873 31.7745 42.8873 31.9654C42.8873 32.6573 42.8157 33.3294 42.6805 33.9816" fill="#3F7E44"/>
<path d="M88.488 42.336C86.112 42.336 83.736 41.4 82.008 39.744L84.048 37.296C85.32 38.472 87 39.264 88.56 39.264C90.408 39.264 91.392 38.472 91.392 37.224C91.392 35.904 90.312 35.496 88.728 34.824L86.352 33.816C84.552 33.072 82.752 31.632 82.752 29.04C82.752 26.136 85.296 23.904 88.896 23.904C90.96 23.904 93.024 24.72 94.464 26.184L92.664 28.416C91.536 27.48 90.36 26.952 88.896 26.952C87.336 26.952 86.352 27.648 86.352 28.824C86.352 30.096 87.6 30.552 89.112 31.152L91.44 32.136C93.6 33.024 95.016 34.392 95.016 36.96C95.016 39.864 92.592 42.336 88.488 42.336ZM98.1606 42V24.216H103.033C108.457 24.216 111.817 27.048 111.817 33.048C111.817 39.024 108.457 42 103.225 42H98.1606ZM101.713 39.144H102.817C106.129 39.144 108.193 37.368 108.193 33.048C108.193 28.704 106.129 27.072 102.817 27.072H101.713V39.144ZM122.925 42.336C118.101 42.336 114.405 39.12 114.405 33.192C114.405 27.336 118.197 23.904 122.925 23.904C125.493 23.904 127.269 25.008 128.421 26.184L126.549 28.44C125.661 27.6 124.653 26.952 123.045 26.952C120.093 26.952 118.029 29.256 118.029 33.072C118.029 36.936 119.805 39.264 123.309 39.264C124.149 39.264 125.013 39.024 125.517 38.592V35.088H122.373V32.184H128.685V40.2C127.485 41.376 125.397 42.336 122.925 42.336ZM136.049 42.336C134.249 42.336 132.281 41.544 130.937 40.44L132.545 38.232C133.745 39.168 134.897 39.696 136.145 39.696C137.489 39.696 138.089 39.12 138.089 38.28C138.089 37.272 136.697 36.816 135.281 36.264C133.577 35.616 131.681 34.584 131.681 32.328C131.681 29.928 133.625 28.224 136.697 28.224C138.641 28.224 140.153 29.04 141.257 29.88L139.673 32.016C138.713 31.32 137.777 30.864 136.793 30.864C135.569 30.864 134.993 31.392 134.993 32.16C134.993 33.144 136.241 33.504 137.657 34.032C139.433 34.704 141.401 35.592 141.401 38.088C141.401 40.44 139.553 42.336 136.049 42.336ZM149.601 42V39.144H153.417V28.368H150.201V26.184C151.977 25.848 153.201 25.392 154.329 24.696H156.945V39.144H160.281V42H149.601ZM168.342 42.336C165.534 42.336 163.638 41.28 162.39 39.864L164.046 37.632C165.102 38.664 166.398 39.456 168.006 39.456C169.806 39.456 171.03 38.592 171.03 37.104C171.03 35.424 169.998 34.392 166.134 34.392V31.848C169.398 31.848 170.454 30.768 170.454 29.28C170.454 27.936 169.59 27.144 168.078 27.144C166.806 27.144 165.774 27.744 164.718 28.728L162.918 26.568C164.454 25.224 166.158 24.36 168.246 24.36C171.678 24.36 174.006 26.04 174.006 29.016C174.006 30.888 172.902 32.184 171.054 32.928V33.048C173.046 33.576 174.582 35.04 174.582 37.32C174.582 40.488 171.726 42.336 168.342 42.336Z" fill="#3F7E44"/>
<path d="M189.616 38.544L191.704 39.336C190.624 41.208 188.752 43.104 186.832 44.064C186.424 43.44 185.632 42.504 185.056 42C186.808 41.328 188.656 39.936 189.616 38.544ZM200.104 38.232H194.536V44.04H191.848V38.232H185.92V36.072H188.68C188.44 35.28 187.84 34.128 187.216 33.336L189.376 32.472C190.048 33.336 190.744 34.464 190.96 35.256L188.968 36.072H191.848V32.448H194.536V36.072H196.552L195.256 35.568C195.808 34.728 196.528 33.456 196.912 32.568L199.432 33.336C198.64 34.32 197.848 35.328 197.224 36.072H200.104V38.232ZM194.8 40.008L196.432 38.472C197.872 39.456 199.864 40.944 200.848 41.928L199.144 43.68C198.208 42.672 196.264 41.112 194.8 40.008ZM187.744 29.832H203.296C203.224 36.36 203.464 41.184 204.856 41.184C205.216 41.184 205.336 39.864 205.36 37.824C205.912 38.52 206.608 39.24 207.184 39.648C206.992 42.72 206.44 44.04 204.64 44.04C201.064 44.04 200.512 38.976 200.416 31.968H187.48V30.072C187.192 30.336 186.928 30.576 186.64 30.792C186.256 30.216 185.248 29.016 184.648 28.464C186.88 26.928 188.896 24.384 190 21.696L192.784 22.536C192.616 22.92 192.424 23.328 192.208 23.736H206.272V25.872H190.984C190.792 26.184 190.576 26.496 190.36 26.808H204.256V28.872H190.24V26.976C189.448 28.032 188.632 29.016 187.744 29.832ZM213.04 21.744L215.68 22.512C215.176 24.144 214.528 25.872 213.832 27.504V44.088H211.12V32.52C210.736 33.096 210.352 33.624 209.968 34.104C209.752 33.408 209.032 31.776 208.576 31.032C210.4 28.728 212.08 25.224 213.04 21.744ZM217.528 26.496V39.336H215.056V26.496H217.528ZM231.184 38.112H225.784C225.088 40.296 223.24 42.528 218.896 44.136C218.488 43.56 217.648 42.576 217 42.048C220.552 40.992 222.088 39.528 222.76 38.112H218.248V35.712H223.24V35.688V33.432H221.464C220.984 34.296 220.456 35.016 219.928 35.64C219.4 35.208 218.344 34.536 217.72 34.224C218.896 33 219.904 31.128 220.456 29.304H218.2V26.928H226.096C226.192 26.304 226.288 25.656 226.384 25.032H219.28V22.68H226.96L227.368 22.56L229.384 22.8C229.24 24.168 229.024 25.608 228.784 26.928H231.088V29.304H220.792L223.048 29.832C222.904 30.24 222.76 30.648 222.592 31.08H230.488V33.432H226.12V35.712H231.184V38.112ZM225.256 39.768L227.2 38.28C228.544 39.504 230.536 41.232 231.568 42.312L229.528 44.016C228.592 42.936 226.672 41.088 225.256 39.768ZM254.392 23.04V25.752H242.728V23.04H254.392ZM238.12 21.672L240.88 22.8C239.152 25.056 236.56 27.528 234.28 29.112C233.92 28.488 233.2 27.336 232.696 26.784C234.688 25.512 236.968 23.352 238.12 21.672ZM239.032 26.856L241.768 27.912C241.048 29.136 240.16 30.384 239.2 31.584V44.112H236.344V34.728C235.672 35.376 235.024 35.976 234.376 36.504C233.968 35.928 233.008 34.632 232.432 34.032C234.88 32.352 237.496 29.568 239.032 26.856ZM254.992 29.64V32.352H251.704V40.776C251.704 42.312 251.416 43.104 250.36 43.536C249.352 43.968 247.816 44.016 245.68 44.016C245.56 43.176 245.2 41.952 244.816 41.112C246.184 41.184 247.768 41.184 248.2 41.16C248.632 41.16 248.8 41.064 248.8 40.704V32.352H241.72V29.64H254.992ZM264.256 39.12V40.344C265.624 40.248 267.04 40.128 268.432 40.008C270.304 37.416 270.88 33.984 271.048 29.688H268.864V27.816H264.256V28.752H268.504V36.168H264.256V37.104H268.6V39.12H264.256ZM259.792 34.392H261.664V33.312H259.792V34.392ZM266.128 33.312H264.256V34.392H266.128V33.312ZM264.256 31.608H266.128V30.552H264.256V31.608ZM259.792 30.552V31.608H261.664V30.552H259.792ZM273.832 27.072H278.704C278.704 27.072 278.68 28.008 278.68 28.344C278.464 38.16 278.272 41.64 277.504 42.744C276.952 43.536 276.4 43.776 275.608 43.944C274.888 44.088 273.784 44.064 272.632 44.04C272.584 43.248 272.272 42.096 271.792 41.304C272.848 41.4 273.76 41.424 274.216 41.424C274.576 41.424 274.816 41.328 275.032 41.016C275.536 40.368 275.776 37.44 275.92 29.688H273.76C273.448 36.12 272.344 41.064 268.312 44.256C267.952 43.68 267.256 42.888 266.632 42.36C263.176 42.72 259.72 43.08 257.128 43.296L256.792 40.896C258.136 40.8 259.816 40.68 261.664 40.56V39.12H257.44V37.104H261.664V36.168H257.536V28.752H261.664V27.816H256.936V25.752H261.664V24.792C260.272 24.888 258.904 24.96 257.608 24.984C257.512 24.408 257.248 23.52 256.984 22.968C260.536 22.776 264.688 22.368 267.328 21.792L268.576 23.928C267.304 24.192 265.816 24.408 264.256 24.576V25.752H268.864V27.072H271.12C271.144 25.488 271.144 23.832 271.144 22.056H273.88C273.88 23.808 273.88 25.488 273.832 27.072Z" fill="#3F7E44"/>
<rect x="1" y="64" width="18" height="18" fill="#3F7E44" fill-opacity="0.3" stroke="black"/>
<rect x="19" y="64" width="18" height="18" fill="#3F7E44" fill-opacity="0.3" stroke="black"/>
<rect x="37" y="64" width="18" height="18" fill="#3F7E44" fill-opacity="0.3" stroke="black"/>
<rect x="55" y="64" width="18" height="18" fill="#3F7E44" fill-opacity="0.3" stroke="black"/>
<rect x="73" y="64" width="18" height="18" fill="#3F7E44" fill-opacity="0.3" stroke="black"/>
<rect x="91" y="64" width="18" height="18" fill="#3F7E44" fill-opacity="0.3" stroke="black"/>
<rect x="109" y="64" width="18" height="18" fill="#3F7E44" fill-opacity="0.3" stroke="black"/>
<rect x="127" y="64" width="18" height="18" fill="#3F7E44" fill-opacity="0.3" stroke="black"/>
<rect x="145" y="64" width="18" height="18" fill="#3F7E44" fill-opacity="0.3" stroke="black"/>
<rect x="163" y="64" width="18" height="18" fill="#3F7E44" fill-opacity="0.3" stroke="black"/>
<rect x="181" y="64" width="18" height="18" fill="#3F7E44" fill-opacity="0.3" stroke="black"/>
<rect x="199" y="64" width="18" height="18" fill="#3F7E44" fill-opacity="0.3" stroke="black"/>
<rect x="217" y="64" width="18" height="18" fill="#3F7E44" fill-opacity="0.3" stroke="black"/>
<rect x="235" y="64" width="18" height="18" fill="#3F7E44" fill-opacity="0.3" stroke="black"/>
<rect x="253" y="64" width="18" height="18" fill="#3F7E44" fill-opacity="0.3" stroke="black"/>
<rect x="271" y="64" width="18" height="18" fill="#3F7E44" fill-opacity="0.3" stroke="black"/>
<rect x="289" y="64" width="18" height="18" fill="#3F7E44" fill-opacity="0.3" stroke="black"/>
<rect x="307" y="64" width="18" height="18" fill="#3F7E44" fill-opacity="0.3" stroke="black"/>
<rect x="325" y="64" width="18" height="18" fill="#3F7E44" fill-opacity="0.3" stroke="black"/>
<rect x="343" y="64" width="18" height="18" fill="#3F7E44" fill-opacity="0.3" stroke="black"/>
<path d="M4.54 95.168C3.94 95.168 3.412 94.996 2.956 94.652C2.508 94.3 2.156 93.78 1.9 93.092C1.652 92.396 1.528 91.536 1.528 90.512C1.528 89.496 1.652 88.652 1.9 87.98C2.156 87.3 2.508 86.792 2.956 86.456C3.412 86.12 3.94 85.952 4.54 85.952C5.148 85.952 5.676 86.124 6.124 86.468C6.572 86.804 6.92 87.308 7.168 87.98C7.424 88.652 7.552 89.496 7.552 90.512C7.552 91.536 7.424 92.396 7.168 93.092C6.92 93.78 6.572 94.3 6.124 94.652C5.676 94.996 5.148 95.168 4.54 95.168ZM4.54 93.788C4.804 93.788 5.036 93.688 5.236 93.488C5.436 93.288 5.592 92.952 5.704 92.48C5.816 92 5.872 91.344 5.872 90.512C5.872 89.688 5.816 89.044 5.704 88.58C5.592 88.108 5.436 87.78 5.236 87.596C5.036 87.404 4.804 87.308 4.54 87.308C4.292 87.308 4.064 87.404 3.856 87.596C3.656 87.78 3.496 88.108 3.376 88.58C3.256 89.044 3.196 89.688 3.196 90.512C3.196 91.344 3.256 92 3.376 92.48C3.496 92.952 3.656 93.288 3.856 93.488C4.064 93.688 4.292 93.788 4.54 93.788Z" fill="#3F7E44"/>
<path d="M82.984 95V93.56H84.904V87.956H83.284V86.852C83.732 86.772 84.116 86.676 84.436 86.564C84.764 86.444 85.068 86.292 85.348 86.108H86.656V93.56H88.324V95H82.984ZM92.6181 95.168C92.0181 95.168 91.4901 94.996 91.0341 94.652C90.5861 94.3 90.2341 93.78 89.9781 93.092C89.7301 92.396 89.6061 91.536 89.6061 90.512C89.6061 89.496 89.7301 88.652 89.9781 87.98C90.2341 87.3 90.5861 86.792 91.0341 86.456C91.4901 86.12 92.0181 85.952 92.6181 85.952C93.2261 85.952 93.7541 86.124 94.2021 86.468C94.6501 86.804 94.9981 87.308 95.2461 87.98C95.5021 88.652 95.6301 89.496 95.6301 90.512C95.6301 91.536 95.5021 92.396 95.2461 93.092C94.9981 93.78 94.6501 94.3 94.2021 94.652C93.7541 94.996 93.2261 95.168 92.6181 95.168ZM92.6181 93.788C92.8821 93.788 93.1141 93.688 93.3141 93.488C93.5141 93.288 93.6701 92.952 93.7821 92.48C93.8941 92 93.9501 91.344 93.9501 90.512C93.9501 89.688 93.8941 89.044 93.7821 88.58C93.6701 88.108 93.5141 87.78 93.3141 87.596C93.1141 87.404 92.8821 87.308 92.6181 87.308C92.3701 87.308 92.1421 87.404 91.9341 87.596C91.7341 87.78 91.5741 88.108 91.4541 88.58C91.3341 89.044 91.2741 89.688 91.2741 90.512C91.2741 91.344 91.3341 92 91.4541 92.48C91.5741 92.952 91.7341 93.288 91.9341 93.488C92.1421 93.688 92.3701 93.788 92.6181 93.788Z" fill="#3F7E44"/>
<path d="M170.516 95V93.98C171.324 93.26 172.012 92.592 172.58 91.976C173.156 91.36 173.596 90.788 173.9 90.26C174.204 89.724 174.356 89.228 174.356 88.772C174.356 88.484 174.304 88.232 174.2 88.016C174.096 87.8 173.944 87.636 173.744 87.524C173.552 87.404 173.312 87.344 173.024 87.344C172.704 87.344 172.408 87.436 172.136 87.62C171.872 87.796 171.628 88.008 171.404 88.256L170.42 87.308C170.836 86.86 171.26 86.524 171.692 86.3C172.132 86.068 172.652 85.952 173.252 85.952C173.812 85.952 174.3 86.068 174.716 86.3C175.14 86.524 175.468 86.84 175.7 87.248C175.932 87.656 176.048 88.136 176.048 88.688C176.048 89.224 175.912 89.772 175.64 90.332C175.376 90.884 175.02 91.436 174.572 91.988C174.124 92.54 173.628 93.084 173.084 93.62C173.316 93.588 173.564 93.564 173.828 93.548C174.1 93.524 174.34 93.512 174.548 93.512H176.468V95H170.516ZM180.618 95.168C180.018 95.168 179.49 94.996 179.034 94.652C178.586 94.3 178.234 93.78 177.978 93.092C177.73 92.396 177.606 91.536 177.606 90.512C177.606 89.496 177.73 88.652 177.978 87.98C178.234 87.3 178.586 86.792 179.034 86.456C179.49 86.12 180.018 85.952 180.618 85.952C181.226 85.952 181.754 86.124 182.202 86.468C182.65 86.804 182.998 87.308 183.246 87.98C183.502 88.652 183.63 89.496 183.63 90.512C183.63 91.536 183.502 92.396 183.246 93.092C182.998 93.78 182.65 94.3 182.202 94.652C181.754 94.996 181.226 95.168 180.618 95.168ZM180.618 93.788C180.882 93.788 181.114 93.688 181.314 93.488C181.514 93.288 181.67 92.952 181.782 92.48C181.894 92 181.95 91.344 181.95 90.512C181.95 89.688 181.894 89.044 181.782 88.58C181.67 88.108 181.514 87.78 181.314 87.596C181.114 87.404 180.882 87.308 180.618 87.308C180.37 87.308 180.142 87.404 179.934 87.596C179.734 87.78 179.574 88.108 179.454 88.58C179.334 89.044 179.274 89.688 179.274 90.512C179.274 91.344 179.334 92 179.454 92.48C179.574 92.952 179.734 93.288 179.934 93.488C180.142 93.688 180.37 93.788 180.618 93.788Z" fill="#3F7E44"/>
<path d="M261.276 95.168C260.812 95.168 260.396 95.112 260.028 95C259.66 94.896 259.332 94.752 259.044 94.568C258.764 94.376 258.52 94.164 258.312 93.932L259.14 92.816C259.412 93.064 259.708 93.28 260.028 93.464C260.356 93.64 260.72 93.728 261.12 93.728C261.424 93.728 261.688 93.68 261.912 93.584C262.144 93.488 262.32 93.348 262.44 93.164C262.568 92.98 262.632 92.756 262.632 92.492C262.632 92.196 262.56 91.944 262.416 91.736C262.28 91.52 262.036 91.356 261.684 91.244C261.332 91.132 260.836 91.076 260.196 91.076V89.804C260.74 89.804 261.168 89.748 261.48 89.636C261.792 89.516 262.012 89.356 262.14 89.156C262.276 88.948 262.344 88.712 262.344 88.448C262.344 88.104 262.24 87.836 262.032 87.644C261.824 87.444 261.532 87.344 261.156 87.344C260.844 87.344 260.552 87.416 260.28 87.56C260.016 87.696 259.752 87.884 259.488 88.124L258.576 87.032C258.968 86.704 259.38 86.444 259.812 86.252C260.244 86.052 260.72 85.952 261.24 85.952C261.808 85.952 262.308 86.044 262.74 86.228C263.18 86.412 263.52 86.68 263.76 87.032C264 87.384 264.12 87.812 264.12 88.316C264.12 88.796 263.992 89.208 263.736 89.552C263.48 89.896 263.116 90.16 262.644 90.344V90.404C262.972 90.492 263.268 90.636 263.532 90.836C263.804 91.028 264.016 91.272 264.168 91.568C264.328 91.864 264.408 92.208 264.408 92.6C264.408 93.136 264.264 93.596 263.976 93.98C263.696 94.364 263.316 94.66 262.836 94.868C262.364 95.068 261.844 95.168 261.276 95.168ZM268.618 95.168C268.018 95.168 267.49 94.996 267.034 94.652C266.586 94.3 266.234 93.78 265.978 93.092C265.73 92.396 265.606 91.536 265.606 90.512C265.606 89.496 265.73 88.652 265.978 87.98C266.234 87.3 266.586 86.792 267.034 86.456C267.49 86.12 268.018 85.952 268.618 85.952C269.226 85.952 269.754 86.124 270.202 86.468C270.65 86.804 270.998 87.308 271.246 87.98C271.502 88.652 271.63 89.496 271.63 90.512C271.63 91.536 271.502 92.396 271.246 93.092C270.998 93.78 270.65 94.3 270.202 94.652C269.754 94.996 269.226 95.168 268.618 95.168ZM268.618 93.788C268.882 93.788 269.114 93.688 269.314 93.488C269.514 93.288 269.67 92.952 269.782 92.48C269.894 92 269.95 91.344 269.95 90.512C269.95 89.688 269.894 89.044 269.782 88.58C269.67 88.108 269.514 87.78 269.314 87.596C269.114 87.404 268.882 87.308 268.618 87.308C268.37 87.308 268.142 87.404 267.934 87.596C267.734 87.78 267.574 88.108 267.454 88.58C267.334 89.044 267.274 89.688 267.274 90.512C267.274 91.344 267.334 92 267.454 92.48C267.574 92.952 267.734 93.288 267.934 93.488C268.142 93.688 268.37 93.788 268.618 93.788Z" fill="#3F7E44"/>
<path d="M350.044 95V89.54C350.044 89.284 350.052 88.98 350.068 88.628C350.084 88.268 350.1 87.956 350.116 87.692H350.056C349.952 87.932 349.84 88.172 349.72 88.412C349.6 88.652 349.476 88.896 349.348 89.144L347.968 91.352H352.744V92.696H346.252V91.496L349.564 86.108H351.688V95H350.044ZM356.618 95.168C356.018 95.168 355.49 94.996 355.034 94.652C354.586 94.3 354.234 93.78 353.978 93.092C353.73 92.396 353.606 91.536 353.606 90.512C353.606 89.496 353.73 88.652 353.978 87.98C354.234 87.3 354.586 86.792 355.034 86.456C355.49 86.12 356.018 85.952 356.618 85.952C357.226 85.952 357.754 86.124 358.202 86.468C358.65 86.804 358.998 87.308 359.246 87.98C359.502 88.652 359.63 89.496 359.63 90.512C359.63 91.536 359.502 92.396 359.246 93.092C358.998 93.78 358.65 94.3 358.202 94.652C357.754 94.996 357.226 95.168 356.618 95.168ZM356.618 93.788C356.882 93.788 357.114 93.688 357.314 93.488C357.514 93.288 357.67 92.952 357.782 92.48C357.894 92 357.95 91.344 357.95 90.512C357.95 89.688 357.894 89.044 357.782 88.58C357.67 88.108 357.514 87.78 357.314 87.596C357.114 87.404 356.882 87.308 356.618 87.308C356.37 87.308 356.142 87.404 355.934 87.596C355.734 87.78 355.574 88.108 355.454 88.58C355.334 89.044 355.274 89.688 355.274 90.512C355.274 91.344 355.334 92 355.454 92.48C355.574 92.952 355.734 93.288 355.934 93.488C356.142 93.688 356.37 93.788 356.618 93.788Z" fill="#3F7E44"/>
</svg>
