<svg width="362" height="98" viewBox="0 0 362 98" fill="none" xmlns="http://www.w3.org/2000/svg">
<path d="M29.0083 25.8111L17.5303 19.1816V40.621L29.0083 44.0849V25.8111Z" fill="#C5192D"/>
<path d="M30.2686 25.8549V44.0928L41.8221 40.621V19.1816L30.2686 25.8549Z" fill="#C5192D"/>
<path d="M50.8345 18.6404C50.8345 17.8887 50.226 17.2803 49.4783 17.2803C48.7306 17.2803 48.1182 17.8887 48.1182 18.6404V20.1039H50.8345V18.6404Z" fill="#C5192D"/>
<path d="M48.4562 40.2431H48.1182L49.4744 44.9876L50.8306 40.2431H50.4965H50.8306V21.166H50.4965H50.1584H49.8005H49.1244H48.7903H48.4562H48.1182V40.2431H48.4562Z" fill="#C5192D"/>
<path d="M44.2881 20.1042L43.0592 19.1299V41.2056L30.3045 45.3256H29.7119H29.5966H29.008L16.309 41.7782V19.1299L15.0801 20.1042V42.6412L28.9483 46.4789H29.5966H29.7119H30.3602L43.1586 42.4185L44.2881 42.0845V20.1042Z" fill="#C5192D"/>
<path d="M88.488 42.336C86.112 42.336 83.736 41.4 82.008 39.744L84.048 37.296C85.32 38.472 87 39.264 88.56 39.264C90.408 39.264 91.392 38.472 91.392 37.224C91.392 35.904 90.312 35.496 88.728 34.824L86.352 33.816C84.552 33.072 82.752 31.632 82.752 29.04C82.752 26.136 85.296 23.904 88.896 23.904C90.96 23.904 93.024 24.72 94.464 26.184L92.664 28.416C91.536 27.48 90.36 26.952 88.896 26.952C87.336 26.952 86.352 27.648 86.352 28.824C86.352 30.096 87.6 30.552 89.112 31.152L91.44 32.136C93.6 33.024 95.016 34.392 95.016 36.96C95.016 39.864 92.592 42.336 88.488 42.336ZM98.1606 42V24.216H103.033C108.457 24.216 111.817 27.048 111.817 33.048C111.817 39.024 108.457 42 103.225 42H98.1606ZM101.713 39.144H102.817C106.129 39.144 108.193 37.368 108.193 33.048C108.193 28.704 106.129 27.072 102.817 27.072H101.713V39.144ZM122.925 42.336C118.101 42.336 114.405 39.12 114.405 33.192C114.405 27.336 118.197 23.904 122.925 23.904C125.493 23.904 127.269 25.008 128.421 26.184L126.549 28.44C125.661 27.6 124.653 26.952 123.045 26.952C120.093 26.952 118.029 29.256 118.029 33.072C118.029 36.936 119.805 39.264 123.309 39.264C124.149 39.264 125.013 39.024 125.517 38.592V35.088H122.373V32.184H128.685V40.2C127.485 41.376 125.397 42.336 122.925 42.336ZM136.049 42.336C134.249 42.336 132.281 41.544 130.937 40.44L132.545 38.232C133.745 39.168 134.897 39.696 136.145 39.696C137.489 39.696 138.089 39.12 138.089 38.28C138.089 37.272 136.697 36.816 135.281 36.264C133.577 35.616 131.681 34.584 131.681 32.328C131.681 29.928 133.625 28.224 136.697 28.224C138.641 28.224 140.153 29.04 141.257 29.88L139.673 32.016C138.713 31.32 137.777 30.864 136.793 30.864C135.569 30.864 134.993 31.392 134.993 32.16C134.993 33.144 136.241 33.504 137.657 34.032C139.433 34.704 141.401 35.592 141.401 38.088C141.401 40.44 139.553 42.336 136.049 42.336ZM151.569 34.992H155.721V31.536C155.721 30.504 155.793 28.872 155.841 27.84H155.745C155.313 28.776 154.833 29.664 154.329 30.624L151.569 34.992ZM155.721 42V37.704H148.137V35.28L154.761 24.696H159.009V34.992H161.097V37.704H159.009V42H155.721Z" fill="#C5192D"/>
<path d="M175.064 21.696L177.68 22.488C177.224 23.928 176.696 25.416 176.048 26.856V44.064H173.336V31.992C172.832 32.736 172.328 33.432 171.824 34.032C171.608 33.36 170.888 31.728 170.456 30.96C172.328 28.704 174.056 25.224 175.064 21.696ZM188.072 34.272L189.536 33.408C189.896 33.744 190.28 34.08 190.64 34.488V33.072H186.032C186.536 33.48 187.04 33.912 187.328 34.248L185.744 35.184C185.336 34.704 184.568 33.936 183.92 33.456L184.64 33.072H179.552V34.704C179.936 34.296 180.296 33.888 180.56 33.48L181.664 34.056V33.576H183.896V34.656C183.896 35.136 184.04 35.208 184.688 35.208H186.8C187.28 35.208 187.4 35.088 187.472 34.392C187.736 34.536 188.168 34.68 188.6 34.8C188.432 34.608 188.24 34.44 188.072 34.272ZM182.456 39.168C183.176 39.648 184.04 40.056 184.976 40.368C185.936 40.032 186.752 39.6 187.4 39.144L182.456 39.168ZM181.856 30.696V31.464H188.504V30.696H181.856ZM188.504 26.904H181.856V27.624H188.504V26.904ZM188.504 29.544V28.776H181.856V29.544H188.504ZM193.184 31.464V34.872H191C191.432 35.328 191.792 35.784 192.032 36.12L190.496 37.08C190.208 36.624 189.704 36 189.176 35.4C188.936 36.408 188.36 36.72 187.112 36.72H185C184.808 36.96 184.592 37.2 184.376 37.44H189.248L189.728 37.344L191.432 38.304C190.664 39.456 189.536 40.464 188.048 41.28C189.632 41.616 191.336 41.832 193.16 41.976C192.656 42.504 192.104 43.44 191.792 44.064C189.272 43.8 186.992 43.344 184.976 42.648C182.96 43.32 180.632 43.824 177.992 44.184C177.728 43.56 177.128 42.696 176.624 42.12C178.592 41.928 180.416 41.64 181.976 41.28C181.496 40.992 181.04 40.704 180.608 40.392C179.984 40.752 179.312 41.112 178.568 41.448C178.232 40.92 177.536 40.176 177.032 39.84C177.752 39.576 178.376 39.264 179 38.952C178.688 38.616 178.4 38.304 178.16 37.944L180.224 37.224C180.392 37.44 180.584 37.656 180.776 37.872C181.424 37.392 181.976 36.912 182.408 36.432C181.952 36.192 181.736 35.784 181.688 35.112C181.16 35.832 180.536 36.528 179.816 37.032L178.232 35.808C178.64 35.568 179.024 35.232 179.384 34.872H177.128V31.464H179.312V25.512H183.272C183.344 25.248 183.392 24.96 183.44 24.672H177.848V22.632H192.704V24.672H186.392L186.032 25.512H191.168V31.464H193.184ZM201.008 27.36H198.92C198.512 28.584 197.84 29.76 196.64 30.72C196.28 30.216 195.296 29.232 194.792 28.896C196.616 27.528 196.88 25.824 196.88 24.432V22.824C199.376 22.68 202.256 22.32 203.936 21.744L205.52 23.4C203.84 24 201.536 24.312 199.328 24.504C199.328 24.744 199.328 25.008 199.304 25.272H205.832V27.36H203.528V29.808H201.008V27.36ZM210.896 33.048V31.968H200.984V33.048H210.896ZM210.896 35.736V34.632H200.984V35.736H210.896ZM210.896 38.424V37.344H200.984V38.424H210.896ZM213.368 29.88H210.8V27.36H208.736C208.448 28.416 207.968 29.424 207.152 30.264H213.776V40.152H210.608C212.864 40.824 215.144 41.616 216.656 42.216L215.336 44.208C213.632 43.44 210.776 42.36 208.112 41.544L208.976 40.152H202.76L204.32 41.064C202.256 42.216 199.016 43.512 196.592 44.232C196.352 43.728 195.656 42.408 195.224 41.832C197.216 41.448 199.64 40.848 201.416 40.152H198.248V30.264H206.84C206.336 29.832 205.424 29.232 204.944 28.992C206.48 27.624 206.672 25.872 206.672 24.504V22.752C209.36 22.632 212.408 22.272 214.088 21.696L215.864 23.28C214.04 23.904 211.472 24.264 209.072 24.432V24.552C209.072 24.792 209.072 25.032 209.048 25.272H216.752V27.36H213.368V29.88ZM236.84 28.68H234.104C234.44 30.672 234.92 32.568 235.568 34.272C236.144 32.64 236.576 30.768 236.84 28.68ZM228.176 31.392L229.016 32.064C229.424 31.56 229.808 30.96 230.168 30.312H226.808C226.448 30.744 226.088 31.152 225.68 31.536H227.672L228.176 31.392ZM225.08 26.256V27.864H225.464C225.896 27.336 226.304 26.832 226.664 26.256H225.08ZM241.208 28.68H239.792C239.288 32.232 238.472 35.16 237.2 37.608C238.28 39.312 239.696 40.68 241.448 41.592C240.8 42.168 239.912 43.296 239.48 44.088C237.848 43.104 236.504 41.808 235.448 40.248C234.104 41.832 232.448 43.128 230.36 44.184C230.096 43.512 229.256 42.192 228.728 41.592C230.984 40.584 232.664 39.24 233.888 37.488C233.24 36 232.688 34.392 232.256 32.64C231.896 33.216 231.536 33.792 231.152 34.296C230.84 33.936 230.168 33.312 229.568 32.808C228.632 33.888 227.432 34.992 226.256 35.904V36.504C227.648 36.384 229.064 36.264 230.456 36.144V38.568C229.064 38.712 227.648 38.856 226.256 38.976V41.352C226.256 42.6 226.04 43.248 225.2 43.632C224.36 44.016 223.232 44.04 221.72 44.04C221.624 43.296 221.264 42.312 220.904 41.616C221.84 41.64 222.872 41.64 223.184 41.64C223.496 41.616 223.592 41.544 223.592 41.304V39.24C221.936 39.408 220.352 39.552 219.032 39.696L218.744 37.152C220.088 37.032 221.768 36.912 223.592 36.744V35.424C224.24 34.968 224.936 34.368 225.584 33.744H223.088C222.248 34.392 221.336 34.944 220.4 35.472C220.016 34.92 219.056 33.816 218.504 33.312C220.16 32.52 221.672 31.512 223.064 30.312H218.792V27.864H222.44V26.256H219.704V23.856H222.44V21.672H225.08V23.856H227.216V25.392C227.816 24.408 228.344 23.352 228.776 22.272L231.392 23.04C230.672 24.792 229.76 26.4 228.752 27.864H230.456V29.76C231.56 27.48 232.328 24.624 232.784 21.672L235.688 22.128C235.448 23.448 235.16 24.792 234.824 26.04H241.208V28.68ZM249.632 28.104L257.624 27.888C257.12 27.504 256.64 27.12 256.184 26.784L257.168 26.208H252.032C251.216 26.904 250.424 27.528 249.632 28.104ZM264.608 23.712V26.208H259.64C261.2 27.384 262.904 28.848 263.84 29.928L261.656 31.296H262.664V41.04C262.664 42.576 262.256 43.2 261.104 43.56C259.976 43.896 258.224 43.872 255.92 43.872C255.824 43.128 255.536 42.168 255.224 41.448C256.544 41.544 258.512 41.544 258.92 41.52C259.4 41.496 259.544 41.376 259.544 40.992V39.264C256.016 40.032 252.488 40.752 249.68 41.328L248.84 38.808C250.832 38.544 253.808 38.112 256.928 37.632C255.032 36.864 251.864 36.048 249.392 35.688L250.232 33.984C252.92 34.296 256.496 35.136 258.416 35.928L257.672 37.512L259.544 37.224V33.648H248.816V35.136C248.816 37.944 248.384 41.856 246.2 44.352C245.72 43.848 244.496 42.936 243.848 42.672C245.816 40.464 246.008 37.368 246.008 35.088V31.296H261.152C260.84 30.912 260.432 30.48 259.976 30.024C248.264 30.48 246.848 30.504 245.816 30.864C245.672 30.312 245.24 28.992 244.952 28.248C245.624 28.128 246.2 27.72 247.112 27.072C247.376 26.904 247.736 26.592 248.192 26.208H243.344V23.712H250.88C251.6 22.968 252.32 22.2 252.92 21.384L255.824 22.488C255.464 22.896 255.08 23.304 254.672 23.712H264.608Z" fill="#C5192D"/>
<rect x="1" y="64" width="18" height="18" fill="#C5192D" stroke="black"/>
<rect x="19" y="64" width="18" height="18" fill="#C5192D" stroke="black"/>
<rect x="37" y="64" width="18" height="18" fill="#C5192D" stroke="black"/>
<rect x="55" y="64" width="18" height="18" fill="#C5192D" stroke="black"/>
<rect x="73" y="64" width="18" height="18" fill="#C5192D" stroke="black"/>
<rect x="91" y="64" width="18" height="18" fill="#C5192D" stroke="black"/>
<rect x="109" y="64" width="18" height="18" fill="#C5192D" stroke="black"/>
<rect x="127" y="64" width="18" height="18" fill="#C5192D" stroke="black"/>
<rect x="145" y="64" width="18" height="18" fill="#C5192D" stroke="black"/>
<rect x="163" y="64" width="18" height="18" fill="#C5192D" fill-opacity="0.3" stroke="black"/>
<rect x="181" y="64" width="18" height="18" fill="#C5192D" fill-opacity="0.3" stroke="black"/>
<rect x="199" y="64" width="18" height="18" fill="#C5192D" fill-opacity="0.3" stroke="black"/>
<rect x="217" y="64" width="18" height="18" fill="#C5192D" fill-opacity="0.3" stroke="black"/>
<rect x="235" y="64" width="18" height="18" fill="#C5192D" fill-opacity="0.3" stroke="black"/>
<rect x="253" y="64" width="18" height="18" fill="#C5192D" fill-opacity="0.3" stroke="black"/>
<rect x="271" y="64" width="18" height="18" fill="#C5192D" fill-opacity="0.3" stroke="black"/>
<rect x="289" y="64" width="18" height="18" fill="#C5192D" fill-opacity="0.3" stroke="black"/>
<rect x="307" y="64" width="18" height="18" fill="#C5192D" fill-opacity="0.3" stroke="black"/>
<rect x="325" y="64" width="18" height="18" fill="#C5192D" fill-opacity="0.3" stroke="black"/>
<rect x="343" y="64" width="18" height="18" fill="#C5192D" fill-opacity="0.3" stroke="black"/>
<path d="M4.54 95.168C3.94 95.168 3.412 94.996 2.956 94.652C2.508 94.3 2.156 93.78 1.9 93.092C1.652 92.396 1.528 91.536 1.528 90.512C1.528 89.496 1.652 88.652 1.9 87.98C2.156 87.3 2.508 86.792 2.956 86.456C3.412 86.12 3.94 85.952 4.54 85.952C5.148 85.952 5.676 86.124 6.124 86.468C6.572 86.804 6.92 87.308 7.168 87.98C7.424 88.652 7.552 89.496 7.552 90.512C7.552 91.536 7.424 92.396 7.168 93.092C6.92 93.78 6.572 94.3 6.124 94.652C5.676 94.996 5.148 95.168 4.54 95.168ZM4.54 93.788C4.804 93.788 5.036 93.688 5.236 93.488C5.436 93.288 5.592 92.952 5.704 92.48C5.816 92 5.872 91.344 5.872 90.512C5.872 89.688 5.816 89.044 5.704 88.58C5.592 88.108 5.436 87.78 5.236 87.596C5.036 87.404 4.804 87.308 4.54 87.308C4.292 87.308 4.064 87.404 3.856 87.596C3.656 87.78 3.496 88.108 3.376 88.58C3.256 89.044 3.196 89.688 3.196 90.512C3.196 91.344 3.256 92 3.376 92.48C3.496 92.952 3.656 93.288 3.856 93.488C4.064 93.688 4.292 93.788 4.54 93.788Z" fill="#C5192D"/>
<path d="M82.984 95V93.56H84.904V87.956H83.284V86.852C83.732 86.772 84.116 86.676 84.436 86.564C84.764 86.444 85.068 86.292 85.348 86.108H86.656V93.56H88.324V95H82.984ZM92.6181 95.168C92.0181 95.168 91.4901 94.996 91.0341 94.652C90.5861 94.3 90.2341 93.78 89.9781 93.092C89.7301 92.396 89.6061 91.536 89.6061 90.512C89.6061 89.496 89.7301 88.652 89.9781 87.98C90.2341 87.3 90.5861 86.792 91.0341 86.456C91.4901 86.12 92.0181 85.952 92.6181 85.952C93.2261 85.952 93.7541 86.124 94.2021 86.468C94.6501 86.804 94.9981 87.308 95.2461 87.98C95.5021 88.652 95.6301 89.496 95.6301 90.512C95.6301 91.536 95.5021 92.396 95.2461 93.092C94.9981 93.78 94.6501 94.3 94.2021 94.652C93.7541 94.996 93.2261 95.168 92.6181 95.168ZM92.6181 93.788C92.8821 93.788 93.1141 93.688 93.3141 93.488C93.5141 93.288 93.6701 92.952 93.7821 92.48C93.8941 92 93.9501 91.344 93.9501 90.512C93.9501 89.688 93.8941 89.044 93.7821 88.58C93.6701 88.108 93.5141 87.78 93.3141 87.596C93.1141 87.404 92.8821 87.308 92.6181 87.308C92.3701 87.308 92.1421 87.404 91.9341 87.596C91.7341 87.78 91.5741 88.108 91.4541 88.58C91.3341 89.044 91.2741 89.688 91.2741 90.512C91.2741 91.344 91.3341 92 91.4541 92.48C91.5741 92.952 91.7341 93.288 91.9341 93.488C92.1421 93.688 92.3701 93.788 92.6181 93.788Z" fill="#C5192D"/>
<path d="M170.516 95V93.98C171.324 93.26 172.012 92.592 172.58 91.976C173.156 91.36 173.596 90.788 173.9 90.26C174.204 89.724 174.356 89.228 174.356 88.772C174.356 88.484 174.304 88.232 174.2 88.016C174.096 87.8 173.944 87.636 173.744 87.524C173.552 87.404 173.312 87.344 173.024 87.344C172.704 87.344 172.408 87.436 172.136 87.62C171.872 87.796 171.628 88.008 171.404 88.256L170.42 87.308C170.836 86.86 171.26 86.524 171.692 86.3C172.132 86.068 172.652 85.952 173.252 85.952C173.812 85.952 174.3 86.068 174.716 86.3C175.14 86.524 175.468 86.84 175.7 87.248C175.932 87.656 176.048 88.136 176.048 88.688C176.048 89.224 175.912 89.772 175.64 90.332C175.376 90.884 175.02 91.436 174.572 91.988C174.124 92.54 173.628 93.084 173.084 93.62C173.316 93.588 173.564 93.564 173.828 93.548C174.1 93.524 174.34 93.512 174.548 93.512H176.468V95H170.516ZM180.618 95.168C180.018 95.168 179.49 94.996 179.034 94.652C178.586 94.3 178.234 93.78 177.978 93.092C177.73 92.396 177.606 91.536 177.606 90.512C177.606 89.496 177.73 88.652 177.978 87.98C178.234 87.3 178.586 86.792 179.034 86.456C179.49 86.12 180.018 85.952 180.618 85.952C181.226 85.952 181.754 86.124 182.202 86.468C182.65 86.804 182.998 87.308 183.246 87.98C183.502 88.652 183.63 89.496 183.63 90.512C183.63 91.536 183.502 92.396 183.246 93.092C182.998 93.78 182.65 94.3 182.202 94.652C181.754 94.996 181.226 95.168 180.618 95.168ZM180.618 93.788C180.882 93.788 181.114 93.688 181.314 93.488C181.514 93.288 181.67 92.952 181.782 92.48C181.894 92 181.95 91.344 181.95 90.512C181.95 89.688 181.894 89.044 181.782 88.58C181.67 88.108 181.514 87.78 181.314 87.596C181.114 87.404 180.882 87.308 180.618 87.308C180.37 87.308 180.142 87.404 179.934 87.596C179.734 87.78 179.574 88.108 179.454 88.58C179.334 89.044 179.274 89.688 179.274 90.512C179.274 91.344 179.334 92 179.454 92.48C179.574 92.952 179.734 93.288 179.934 93.488C180.142 93.688 180.37 93.788 180.618 93.788Z" fill="#C5192D"/>
<path d="M261.276 95.168C260.812 95.168 260.396 95.112 260.028 95C259.66 94.896 259.332 94.752 259.044 94.568C258.764 94.376 258.52 94.164 258.312 93.932L259.14 92.816C259.412 93.064 259.708 93.28 260.028 93.464C260.356 93.64 260.72 93.728 261.12 93.728C261.424 93.728 261.688 93.68 261.912 93.584C262.144 93.488 262.32 93.348 262.44 93.164C262.568 92.98 262.632 92.756 262.632 92.492C262.632 92.196 262.56 91.944 262.416 91.736C262.28 91.52 262.036 91.356 261.684 91.244C261.332 91.132 260.836 91.076 260.196 91.076V89.804C260.74 89.804 261.168 89.748 261.48 89.636C261.792 89.516 262.012 89.356 262.14 89.156C262.276 88.948 262.344 88.712 262.344 88.448C262.344 88.104 262.24 87.836 262.032 87.644C261.824 87.444 261.532 87.344 261.156 87.344C260.844 87.344 260.552 87.416 260.28 87.56C260.016 87.696 259.752 87.884 259.488 88.124L258.576 87.032C258.968 86.704 259.38 86.444 259.812 86.252C260.244 86.052 260.72 85.952 261.24 85.952C261.808 85.952 262.308 86.044 262.74 86.228C263.18 86.412 263.52 86.68 263.76 87.032C264 87.384 264.12 87.812 264.12 88.316C264.12 88.796 263.992 89.208 263.736 89.552C263.48 89.896 263.116 90.16 262.644 90.344V90.404C262.972 90.492 263.268 90.636 263.532 90.836C263.804 91.028 264.016 91.272 264.168 91.568C264.328 91.864 264.408 92.208 264.408 92.6C264.408 93.136 264.264 93.596 263.976 93.98C263.696 94.364 263.316 94.66 262.836 94.868C262.364 95.068 261.844 95.168 261.276 95.168ZM268.618 95.168C268.018 95.168 267.49 94.996 267.034 94.652C266.586 94.3 266.234 93.78 265.978 93.092C265.73 92.396 265.606 91.536 265.606 90.512C265.606 89.496 265.73 88.652 265.978 87.98C266.234 87.3 266.586 86.792 267.034 86.456C267.49 86.12 268.018 85.952 268.618 85.952C269.226 85.952 269.754 86.124 270.202 86.468C270.65 86.804 270.998 87.308 271.246 87.98C271.502 88.652 271.63 89.496 271.63 90.512C271.63 91.536 271.502 92.396 271.246 93.092C270.998 93.78 270.65 94.3 270.202 94.652C269.754 94.996 269.226 95.168 268.618 95.168ZM268.618 93.788C268.882 93.788 269.114 93.688 269.314 93.488C269.514 93.288 269.67 92.952 269.782 92.48C269.894 92 269.95 91.344 269.95 90.512C269.95 89.688 269.894 89.044 269.782 88.58C269.67 88.108 269.514 87.78 269.314 87.596C269.114 87.404 268.882 87.308 268.618 87.308C268.37 87.308 268.142 87.404 267.934 87.596C267.734 87.78 267.574 88.108 267.454 88.58C267.334 89.044 267.274 89.688 267.274 90.512C267.274 91.344 267.334 92 267.454 92.48C267.574 92.952 267.734 93.288 267.934 93.488C268.142 93.688 268.37 93.788 268.618 93.788Z" fill="#C5192D"/>
<path d="M350.044 95V89.54C350.044 89.284 350.052 88.98 350.068 88.628C350.084 88.268 350.1 87.956 350.116 87.692H350.056C349.952 87.932 349.84 88.172 349.72 88.412C349.6 88.652 349.476 88.896 349.348 89.144L347.968 91.352H352.744V92.696H346.252V91.496L349.564 86.108H351.688V95H350.044ZM356.618 95.168C356.018 95.168 355.49 94.996 355.034 94.652C354.586 94.3 354.234 93.78 353.978 93.092C353.73 92.396 353.606 91.536 353.606 90.512C353.606 89.496 353.73 88.652 353.978 87.98C354.234 87.3 354.586 86.792 355.034 86.456C355.49 86.12 356.018 85.952 356.618 85.952C357.226 85.952 357.754 86.124 358.202 86.468C358.65 86.804 358.998 87.308 359.246 87.98C359.502 88.652 359.63 89.496 359.63 90.512C359.63 91.536 359.502 92.396 359.246 93.092C358.998 93.78 358.65 94.3 358.202 94.652C357.754 94.996 357.226 95.168 356.618 95.168ZM356.618 93.788C356.882 93.788 357.114 93.688 357.314 93.488C357.514 93.288 357.67 92.952 357.782 92.48C357.894 92 357.95 91.344 357.95 90.512C357.95 89.688 357.894 89.044 357.782 88.58C357.67 88.108 357.514 87.78 357.314 87.596C357.114 87.404 356.882 87.308 356.618 87.308C356.37 87.308 356.142 87.404 355.934 87.596C355.734 87.78 355.574 88.108 355.454 88.58C355.334 89.044 355.274 89.688 355.274 90.512C355.274 91.344 355.334 92 355.454 92.48C355.574 92.952 355.734 93.288 355.934 93.488C356.142 93.688 356.37 93.788 356.618 93.788Z" fill="#C5192D"/>
</svg>
