<svg width="362" height="98" viewBox="0 0 362 98" fill="none" xmlns="http://www.w3.org/2000/svg">
<path d="M45.3476 14.7197H37.3933C37.3377 14.7197 37.2939 14.7635 37.2939 14.8191V17.4638C37.2939 17.5195 37.3416 17.5672 37.3933 17.5672H40.5591L37.0434 21.0827C35.2735 19.6908 33.0424 18.8597 30.6203 18.8597C24.8773 18.8597 20.2002 23.5325 20.2002 29.2791C20.2002 34.5684 24.1614 38.9429 29.272 39.6071V42.6534H26.1341C26.0744 42.6534 26.0307 42.6971 26.0307 42.7528V45.5843C26.0307 45.64 26.0744 45.6838 26.1341 45.6838H29.272V48.6823C29.272 48.738 29.3158 48.7817 29.3715 48.7817H32.2032C32.2589 48.7817 32.3066 48.738 32.3066 48.6823V45.6838H35.4445C35.5002 45.6838 35.544 45.64 35.544 45.5843V42.7528C35.544 42.6971 35.5002 42.6534 35.4445 42.6534H32.3066V39.5593C37.2502 38.7481 41.0324 34.4491 41.0324 29.2791C41.0324 27.0481 40.3285 24.9841 39.1313 23.2859L42.5994 19.8181V22.7769C42.5994 22.8326 42.6471 22.8763 42.7028 22.8763H45.3436C45.3993 22.8763 45.447 22.8326 45.447 22.7769V14.8231C45.447 14.7675 45.3993 14.7237 45.3436 14.7237M30.6203 36.9465C26.3926 36.9465 22.9524 33.5065 22.9524 29.2791C22.9524 25.0517 26.3926 21.6117 30.6203 21.6117C34.848 21.6117 38.2882 25.0517 38.2882 29.2791C38.2882 33.5065 34.848 36.9465 30.6203 36.9465Z" fill="#FF3A21"/>
<path d="M35.3053 26.1299H26.0027C25.9471 26.1299 25.9033 26.1696 25.9033 26.2213V28.4723C25.9033 28.524 25.9471 28.5637 26.0027 28.5637H35.3053C35.3649 28.5637 35.4087 28.524 35.4087 28.4723V26.2213C35.4087 26.1736 35.3649 26.1299 35.3053 26.1299Z" fill="#FF3A21"/>
<path d="M35.3053 30.1504H26.0027C25.9471 30.1504 25.9033 30.1941 25.9033 30.2458V32.4967C25.9033 32.5484 25.9471 32.5882 26.0027 32.5882H35.3053C35.3649 32.5882 35.4087 32.5484 35.4087 32.4967V30.2458C35.4087 30.1941 35.3649 30.1504 35.3053 30.1504Z" fill="#FF3A21"/>
<path d="M88.488 42.336C86.112 42.336 83.736 41.4 82.008 39.744L84.048 37.296C85.32 38.472 87 39.264 88.56 39.264C90.408 39.264 91.392 38.472 91.392 37.224C91.392 35.904 90.312 35.496 88.728 34.824L86.352 33.816C84.552 33.072 82.752 31.632 82.752 29.04C82.752 26.136 85.296 23.904 88.896 23.904C90.96 23.904 93.024 24.72 94.464 26.184L92.664 28.416C91.536 27.48 90.36 26.952 88.896 26.952C87.336 26.952 86.352 27.648 86.352 28.824C86.352 30.096 87.6 30.552 89.112 31.152L91.44 32.136C93.6 33.024 95.016 34.392 95.016 36.96C95.016 39.864 92.592 42.336 88.488 42.336ZM98.1606 42V24.216H103.033C108.457 24.216 111.817 27.048 111.817 33.048C111.817 39.024 108.457 42 103.225 42H98.1606ZM101.713 39.144H102.817C106.129 39.144 108.193 37.368 108.193 33.048C108.193 28.704 106.129 27.072 102.817 27.072H101.713V39.144ZM122.925 42.336C118.101 42.336 114.405 39.12 114.405 33.192C114.405 27.336 118.197 23.904 122.925 23.904C125.493 23.904 127.269 25.008 128.421 26.184L126.549 28.44C125.661 27.6 124.653 26.952 123.045 26.952C120.093 26.952 118.029 29.256 118.029 33.072C118.029 36.936 119.805 39.264 123.309 39.264C124.149 39.264 125.013 39.024 125.517 38.592V35.088H122.373V32.184H128.685V40.2C127.485 41.376 125.397 42.336 122.925 42.336ZM136.049 42.336C134.249 42.336 132.281 41.544 130.937 40.44L132.545 38.232C133.745 39.168 134.897 39.696 136.145 39.696C137.489 39.696 138.089 39.12 138.089 38.28C138.089 37.272 136.697 36.816 135.281 36.264C133.577 35.616 131.681 34.584 131.681 32.328C131.681 29.928 133.625 28.224 136.697 28.224C138.641 28.224 140.153 29.04 141.257 29.88L139.673 32.016C138.713 31.32 137.777 30.864 136.793 30.864C135.569 30.864 134.993 31.392 134.993 32.16C134.993 33.144 136.241 33.504 137.657 34.032C139.433 34.704 141.401 35.592 141.401 38.088C141.401 40.44 139.553 42.336 136.049 42.336ZM154.257 42.336C151.449 42.336 149.577 41.232 148.257 39.912L149.889 37.656C150.897 38.64 152.145 39.456 153.801 39.456C155.649 39.456 156.945 38.376 156.945 36.432C156.945 34.512 155.745 33.432 153.945 33.432C152.889 33.432 152.313 33.696 151.281 34.368L149.673 33.336L150.153 24.696H159.657V27.648H153.201L152.865 31.416C153.585 31.104 154.185 30.936 155.001 30.936C157.977 30.936 160.473 32.616 160.473 36.312C160.473 40.128 157.545 42.336 154.257 42.336Z" fill="#FF3A21"/>
<path d="M187.424 40.608H193.088V43.32H178.16V40.608H184.568V35.808H179.936V33.144H184.568V29.208H181.928C181.568 30.456 181.088 31.608 180.584 32.52C180.008 32.16 178.712 31.512 178.04 31.224C178.28 30.792 178.52 30.336 178.76 29.832L177.392 30.456C177.248 29.736 176.888 28.68 176.48 27.696V44.088H173.624V26.928C173.48 28.944 173.096 31.584 172.544 33.288L170.432 32.52C171.008 30.936 171.44 28.248 171.608 26.28L173.624 26.568V21.672H176.48V26.208L177.872 25.632C178.352 26.568 178.856 27.72 179.192 28.656C179.792 26.904 180.224 24.84 180.464 22.8L183.248 23.184C183.08 24.312 182.888 25.44 182.648 26.52H184.568V21.816H187.424V26.52H192.32V29.208H187.424V33.144H191.816V35.808H187.424V40.608ZM198.656 25.296V28.584H203.168V25.296H198.656ZM201.104 33.096H206.144C206.144 33.096 206.12 33.792 206.12 34.128C205.88 39.912 205.616 42.216 204.968 43.032C204.488 43.608 203.936 43.824 203.168 43.92C202.52 44.016 201.416 44.04 200.264 43.992C200.24 43.248 199.952 42.216 199.544 41.52C200.504 41.64 201.464 41.64 201.896 41.64C202.256 41.64 202.472 41.592 202.688 41.328C203.048 40.92 203.264 39.384 203.432 35.592H200.768C200.216 38.88 199.088 41.952 196.544 44.112C196.136 43.392 195.32 42.504 194.648 42.024C197.792 39.432 198.272 35.112 198.464 31.128H196.064V22.776H205.928V31.128H201.248C201.2 31.776 201.152 32.448 201.104 33.096ZM210.512 24.576V38.088H207.728V24.576H210.512ZM213.368 22.152H216.2V40.632C216.2 42.312 215.864 43.104 214.88 43.56C213.896 44.016 212.288 44.112 210.104 44.112C209.984 43.272 209.552 41.952 209.12 41.16C210.68 41.208 212.216 41.208 212.72 41.208C213.176 41.208 213.368 41.064 213.368 40.632V22.152ZM240.92 33.264V36.144H231.488V44.088H228.512V36.144H219.176V33.264H228.512V25.992H220.424V23.16H239.528V25.992H231.488V33.264H240.92ZM221.888 27.528L224.504 26.76C225.296 28.296 226.16 30.312 226.424 31.656L223.64 32.52C223.4 31.224 222.656 29.136 221.888 27.528ZM235.904 32.472L233.408 31.752C234.176 30.36 235.04 28.248 235.496 26.688L238.544 27.456C237.68 29.304 236.72 31.248 235.904 32.472ZM260.168 35.04V36.216H264.704V38.544H260.168V41.496C260.168 42.864 259.856 43.44 258.824 43.752C257.816 44.064 256.352 44.064 254.36 44.064C254.264 43.344 253.976 42.456 253.664 41.76C254.84 41.832 256.352 41.832 256.712 41.808C257.072 41.808 257.216 41.712 257.216 41.376V38.544H249.752C250.88 39.48 252.2 40.656 252.92 41.448L250.808 43.104C250.04 42.168 248.408 40.632 247.16 39.528L248.552 38.544H243.32V36.216H257.216V35.04H260.168ZM255.464 28.608H260.144C259.64 27.936 258.824 27.072 258.2 26.424L259.184 25.608H257.36C256.784 26.688 256.136 27.624 255.464 28.368V28.608ZM258.512 23.184H265.088V25.608H260.744C261.368 26.184 261.968 26.832 262.304 27.288L260.792 28.608H263.984V31.032H255.464V32.424H262.496V34.584H245.384V32.424H252.488V31.032H244.064V28.608H250.016C249.488 27.96 248.552 27.024 247.76 26.352L248.6 25.608H246.896C246.176 26.616 245.408 27.504 244.64 28.2C244.232 27.696 243.296 26.712 242.744 26.256C244.184 25.08 245.576 23.256 246.344 21.456L248.864 22.2C248.72 22.536 248.552 22.848 248.408 23.184H253.712V25.608H250.376C250.976 26.112 251.552 26.664 251.888 27.096L250.232 28.608H252.488V27.432H254.24C253.904 27.168 253.544 26.928 253.28 26.76C254.576 25.488 255.68 23.472 256.28 21.456L258.872 22.08C258.752 22.44 258.656 22.824 258.512 23.184Z" fill="#FF3A21"/>
<rect x="1" y="64" width="18" height="18" fill="#FF3A21" stroke="black"/>
<rect x="19" y="64" width="18" height="18" fill="#FF3A21" stroke="black"/>
<rect x="37" y="64" width="18" height="18" fill="#FF3A21" stroke="black"/>
<rect x="55" y="64" width="18" height="18" fill="#FF3A21" stroke="black"/>
<rect x="73" y="64" width="18" height="18" fill="#FF3A21" stroke="black"/>
<rect x="91" y="64" width="18" height="18" fill="#FF3A21" stroke="black"/>
<rect x="109" y="64" width="18" height="18" fill="#FF3A21" stroke="black"/>
<rect x="127" y="64" width="18" height="18" fill="#FF3A21" stroke="black"/>
<rect x="145" y="64" width="18" height="18" fill="#FF3A21" stroke="black"/>
<rect x="163" y="64" width="18" height="18" fill="#FF3A21" stroke="black"/>
<rect x="181" y="64" width="18" height="18" fill="#FF3A21" fill-opacity="0.3" stroke="black"/>
<rect x="199" y="64" width="18" height="18" fill="#FF3A21" fill-opacity="0.3" stroke="black"/>
<rect x="217" y="64" width="18" height="18" fill="#FF3A21" fill-opacity="0.3" stroke="black"/>
<rect x="235" y="64" width="18" height="18" fill="#FF3A21" fill-opacity="0.3" stroke="black"/>
<rect x="253" y="64" width="18" height="18" fill="#FF3A21" fill-opacity="0.3" stroke="black"/>
<rect x="271" y="64" width="18" height="18" fill="#FF3A21" fill-opacity="0.3" stroke="black"/>
<rect x="289" y="64" width="18" height="18" fill="#FF3A21" fill-opacity="0.3" stroke="black"/>
<rect x="307" y="64" width="18" height="18" fill="#FF3A21" fill-opacity="0.3" stroke="black"/>
<rect x="325" y="64" width="18" height="18" fill="#FF3A21" fill-opacity="0.3" stroke="black"/>
<rect x="343" y="64" width="18" height="18" fill="#FF3A21" fill-opacity="0.3" stroke="black"/>
<path d="M4.54 95.168C3.94 95.168 3.412 94.996 2.956 94.652C2.508 94.3 2.156 93.78 1.9 93.092C1.652 92.396 1.528 91.536 1.528 90.512C1.528 89.496 1.652 88.652 1.9 87.98C2.156 87.3 2.508 86.792 2.956 86.456C3.412 86.12 3.94 85.952 4.54 85.952C5.148 85.952 5.676 86.124 6.124 86.468C6.572 86.804 6.92 87.308 7.168 87.98C7.424 88.652 7.552 89.496 7.552 90.512C7.552 91.536 7.424 92.396 7.168 93.092C6.92 93.78 6.572 94.3 6.124 94.652C5.676 94.996 5.148 95.168 4.54 95.168ZM4.54 93.788C4.804 93.788 5.036 93.688 5.236 93.488C5.436 93.288 5.592 92.952 5.704 92.48C5.816 92 5.872 91.344 5.872 90.512C5.872 89.688 5.816 89.044 5.704 88.58C5.592 88.108 5.436 87.78 5.236 87.596C5.036 87.404 4.804 87.308 4.54 87.308C4.292 87.308 4.064 87.404 3.856 87.596C3.656 87.78 3.496 88.108 3.376 88.58C3.256 89.044 3.196 89.688 3.196 90.512C3.196 91.344 3.256 92 3.376 92.48C3.496 92.952 3.656 93.288 3.856 93.488C4.064 93.688 4.292 93.788 4.54 93.788Z" fill="#FF3A21"/>
<path d="M82.984 95V93.56H84.904V87.956H83.284V86.852C83.732 86.772 84.116 86.676 84.436 86.564C84.764 86.444 85.068 86.292 85.348 86.108H86.656V93.56H88.324V95H82.984ZM92.6181 95.168C92.0181 95.168 91.4901 94.996 91.0341 94.652C90.5861 94.3 90.2341 93.78 89.9781 93.092C89.7301 92.396 89.6061 91.536 89.6061 90.512C89.6061 89.496 89.7301 88.652 89.9781 87.98C90.2341 87.3 90.5861 86.792 91.0341 86.456C91.4901 86.12 92.0181 85.952 92.6181 85.952C93.2261 85.952 93.7541 86.124 94.2021 86.468C94.6501 86.804 94.9981 87.308 95.2461 87.98C95.5021 88.652 95.6301 89.496 95.6301 90.512C95.6301 91.536 95.5021 92.396 95.2461 93.092C94.9981 93.78 94.6501 94.3 94.2021 94.652C93.7541 94.996 93.2261 95.168 92.6181 95.168ZM92.6181 93.788C92.8821 93.788 93.1141 93.688 93.3141 93.488C93.5141 93.288 93.6701 92.952 93.7821 92.48C93.8941 92 93.9501 91.344 93.9501 90.512C93.9501 89.688 93.8941 89.044 93.7821 88.58C93.6701 88.108 93.5141 87.78 93.3141 87.596C93.1141 87.404 92.8821 87.308 92.6181 87.308C92.3701 87.308 92.1421 87.404 91.9341 87.596C91.7341 87.78 91.5741 88.108 91.4541 88.58C91.3341 89.044 91.2741 89.688 91.2741 90.512C91.2741 91.344 91.3341 92 91.4541 92.48C91.5741 92.952 91.7341 93.288 91.9341 93.488C92.1421 93.688 92.3701 93.788 92.6181 93.788Z" fill="#FF3A21"/>
<path d="M170.516 95V93.98C171.324 93.26 172.012 92.592 172.58 91.976C173.156 91.36 173.596 90.788 173.9 90.26C174.204 89.724 174.356 89.228 174.356 88.772C174.356 88.484 174.304 88.232 174.2 88.016C174.096 87.8 173.944 87.636 173.744 87.524C173.552 87.404 173.312 87.344 173.024 87.344C172.704 87.344 172.408 87.436 172.136 87.62C171.872 87.796 171.628 88.008 171.404 88.256L170.42 87.308C170.836 86.86 171.26 86.524 171.692 86.3C172.132 86.068 172.652 85.952 173.252 85.952C173.812 85.952 174.3 86.068 174.716 86.3C175.14 86.524 175.468 86.84 175.7 87.248C175.932 87.656 176.048 88.136 176.048 88.688C176.048 89.224 175.912 89.772 175.64 90.332C175.376 90.884 175.02 91.436 174.572 91.988C174.124 92.54 173.628 93.084 173.084 93.62C173.316 93.588 173.564 93.564 173.828 93.548C174.1 93.524 174.34 93.512 174.548 93.512H176.468V95H170.516ZM180.618 95.168C180.018 95.168 179.49 94.996 179.034 94.652C178.586 94.3 178.234 93.78 177.978 93.092C177.73 92.396 177.606 91.536 177.606 90.512C177.606 89.496 177.73 88.652 177.978 87.98C178.234 87.3 178.586 86.792 179.034 86.456C179.49 86.12 180.018 85.952 180.618 85.952C181.226 85.952 181.754 86.124 182.202 86.468C182.65 86.804 182.998 87.308 183.246 87.98C183.502 88.652 183.63 89.496 183.63 90.512C183.63 91.536 183.502 92.396 183.246 93.092C182.998 93.78 182.65 94.3 182.202 94.652C181.754 94.996 181.226 95.168 180.618 95.168ZM180.618 93.788C180.882 93.788 181.114 93.688 181.314 93.488C181.514 93.288 181.67 92.952 181.782 92.48C181.894 92 181.95 91.344 181.95 90.512C181.95 89.688 181.894 89.044 181.782 88.58C181.67 88.108 181.514 87.78 181.314 87.596C181.114 87.404 180.882 87.308 180.618 87.308C180.37 87.308 180.142 87.404 179.934 87.596C179.734 87.78 179.574 88.108 179.454 88.58C179.334 89.044 179.274 89.688 179.274 90.512C179.274 91.344 179.334 92 179.454 92.48C179.574 92.952 179.734 93.288 179.934 93.488C180.142 93.688 180.37 93.788 180.618 93.788Z" fill="#FF3A21"/>
<path d="M261.276 95.168C260.812 95.168 260.396 95.112 260.028 95C259.66 94.896 259.332 94.752 259.044 94.568C258.764 94.376 258.52 94.164 258.312 93.932L259.14 92.816C259.412 93.064 259.708 93.28 260.028 93.464C260.356 93.64 260.72 93.728 261.12 93.728C261.424 93.728 261.688 93.68 261.912 93.584C262.144 93.488 262.32 93.348 262.44 93.164C262.568 92.98 262.632 92.756 262.632 92.492C262.632 92.196 262.56 91.944 262.416 91.736C262.28 91.52 262.036 91.356 261.684 91.244C261.332 91.132 260.836 91.076 260.196 91.076V89.804C260.74 89.804 261.168 89.748 261.48 89.636C261.792 89.516 262.012 89.356 262.14 89.156C262.276 88.948 262.344 88.712 262.344 88.448C262.344 88.104 262.24 87.836 262.032 87.644C261.824 87.444 261.532 87.344 261.156 87.344C260.844 87.344 260.552 87.416 260.28 87.56C260.016 87.696 259.752 87.884 259.488 88.124L258.576 87.032C258.968 86.704 259.38 86.444 259.812 86.252C260.244 86.052 260.72 85.952 261.24 85.952C261.808 85.952 262.308 86.044 262.74 86.228C263.18 86.412 263.52 86.68 263.76 87.032C264 87.384 264.12 87.812 264.12 88.316C264.12 88.796 263.992 89.208 263.736 89.552C263.48 89.896 263.116 90.16 262.644 90.344V90.404C262.972 90.492 263.268 90.636 263.532 90.836C263.804 91.028 264.016 91.272 264.168 91.568C264.328 91.864 264.408 92.208 264.408 92.6C264.408 93.136 264.264 93.596 263.976 93.98C263.696 94.364 263.316 94.66 262.836 94.868C262.364 95.068 261.844 95.168 261.276 95.168ZM268.618 95.168C268.018 95.168 267.49 94.996 267.034 94.652C266.586 94.3 266.234 93.78 265.978 93.092C265.73 92.396 265.606 91.536 265.606 90.512C265.606 89.496 265.73 88.652 265.978 87.98C266.234 87.3 266.586 86.792 267.034 86.456C267.49 86.12 268.018 85.952 268.618 85.952C269.226 85.952 269.754 86.124 270.202 86.468C270.65 86.804 270.998 87.308 271.246 87.98C271.502 88.652 271.63 89.496 271.63 90.512C271.63 91.536 271.502 92.396 271.246 93.092C270.998 93.78 270.65 94.3 270.202 94.652C269.754 94.996 269.226 95.168 268.618 95.168ZM268.618 93.788C268.882 93.788 269.114 93.688 269.314 93.488C269.514 93.288 269.67 92.952 269.782 92.48C269.894 92 269.95 91.344 269.95 90.512C269.95 89.688 269.894 89.044 269.782 88.58C269.67 88.108 269.514 87.78 269.314 87.596C269.114 87.404 268.882 87.308 268.618 87.308C268.37 87.308 268.142 87.404 267.934 87.596C267.734 87.78 267.574 88.108 267.454 88.58C267.334 89.044 267.274 89.688 267.274 90.512C267.274 91.344 267.334 92 267.454 92.48C267.574 92.952 267.734 93.288 267.934 93.488C268.142 93.688 268.37 93.788 268.618 93.788Z" fill="#FF3A21"/>
<path d="M350.044 95V89.54C350.044 89.284 350.052 88.98 350.068 88.628C350.084 88.268 350.1 87.956 350.116 87.692H350.056C349.952 87.932 349.84 88.172 349.72 88.412C349.6 88.652 349.476 88.896 349.348 89.144L347.968 91.352H352.744V92.696H346.252V91.496L349.564 86.108H351.688V95H350.044ZM356.618 95.168C356.018 95.168 355.49 94.996 355.034 94.652C354.586 94.3 354.234 93.78 353.978 93.092C353.73 92.396 353.606 91.536 353.606 90.512C353.606 89.496 353.73 88.652 353.978 87.98C354.234 87.3 354.586 86.792 355.034 86.456C355.49 86.12 356.018 85.952 356.618 85.952C357.226 85.952 357.754 86.124 358.202 86.468C358.65 86.804 358.998 87.308 359.246 87.98C359.502 88.652 359.63 89.496 359.63 90.512C359.63 91.536 359.502 92.396 359.246 93.092C358.998 93.78 358.65 94.3 358.202 94.652C357.754 94.996 357.226 95.168 356.618 95.168ZM356.618 93.788C356.882 93.788 357.114 93.688 357.314 93.488C357.514 93.288 357.67 92.952 357.782 92.48C357.894 92 357.95 91.344 357.95 90.512C357.95 89.688 357.894 89.044 357.782 88.58C357.67 88.108 357.514 87.78 357.314 87.596C357.114 87.404 356.882 87.308 356.618 87.308C356.37 87.308 356.142 87.404 355.934 87.596C355.734 87.78 355.574 88.108 355.454 88.58C355.334 89.044 355.274 89.688 355.274 90.512C355.274 91.344 355.334 92 355.454 92.48C355.574 92.952 355.734 93.288 355.934 93.488C356.142 93.688 356.37 93.788 356.618 93.788Z" fill="#FF3A21"/>
</svg>
