<svg xmlns="http://www.w3.org/2000/svg" width="362" height="98" fill="none"><path fill="#FF3A21" d="M45.348 14.72h-7.955c-.055 0-.1.043-.1.1v2.644c0 .056.049.103.1.103h3.166l-3.516 3.516a10.36 10.36 0 0 0-6.423-2.223c-5.743 0-10.42 4.672-10.42 10.42 0 5.288 3.961 9.663 9.072 10.327v3.046h-3.138a.1.1 0 0 0-.103.1v2.831a.1.1 0 0 0 .103.1h3.138v2.998c0 .056.044.1.1.1h2.831a.1.1 0 0 0 .104-.1v-2.998h3.137c.056 0 .1-.044.1-.1v-2.831c0-.056-.044-.1-.1-.1h-3.137V39.56c4.943-.81 8.725-5.11 8.725-10.28a10.36 10.36 0 0 0-1.9-5.993l3.467-3.468v2.959c0 .056.048.1.104.1h2.64a.1.1 0 0 0 .104-.1v-7.954c0-.056-.048-.1-.103-.1M30.62 36.947c-4.227 0-7.668-3.44-7.668-7.667s3.44-7.667 7.668-7.667 7.668 3.44 7.668 7.667-3.44 7.668-7.668 7.668"/><path fill="#FF3A21" d="M35.305 26.13h-9.302c-.056 0-.1.04-.1.091v2.251c0 .052.044.092.1.092h9.302c.06 0 .104-.04.104-.092v-2.25c0-.048-.044-.092-.104-.092M35.305 30.15h-9.302c-.056 0-.1.044-.1.096v2.25c0 .052.044.092.1.092h9.302c.06 0 .104-.04.104-.091v-2.251c0-.052-.044-.096-.104-.096M88.488 42.336a9.4 9.4 0 0 1-3.48-.672 9.1 9.1 0 0 1-3-1.92l2.04-2.448a7.8 7.8 0 0 0 2.136 1.44q1.224.528 2.376.528 1.392 0 2.112-.552t.72-1.488q0-.672-.36-1.056-.336-.408-.936-.72t-1.392-.624l-2.352-1.032a8.4 8.4 0 0 1-1.728-.96q-.816-.624-1.368-1.56-.528-.936-.528-2.232 0-1.464.792-2.616t2.184-1.824q1.392-.696 3.168-.696 1.584 0 3.048.6a7.5 7.5 0 0 1 2.544 1.704l-1.8 2.208a7 7 0 0 0-1.752-1.08q-.912-.384-2.04-.384-1.152 0-1.848.504-.672.48-.672 1.368 0 .624.384 1.032t1.008.72q.624.288 1.368.6l2.328.936a7.1 7.1 0 0 1 1.872 1.08q.816.648 1.248 1.56.456.912.456 2.208 0 1.44-.792 2.664-.768 1.224-2.232 1.968-1.44.744-3.504.744M98.161 42V24.216h4.872q2.736 0 4.68.96a6.72 6.72 0 0 1 3.024 2.904q1.08 1.944 1.08 4.944t-1.056 4.992-2.976 3q-1.92.984-4.56.984zm3.552-2.88h1.08q1.68 0 2.88-.6 1.224-.624 1.872-1.968.648-1.368.648-3.528t-.648-3.456q-.648-1.32-1.872-1.896-1.2-.6-2.88-.6h-1.08zm21.212 3.216q-2.4 0-4.344-1.056-1.92-1.056-3.048-3.096t-1.128-4.992q0-2.208.648-3.912.672-1.728 1.848-2.928a7.95 7.95 0 0 1 2.712-1.824 8.7 8.7 0 0 1 3.312-.624q1.92 0 3.264.72 1.368.696 2.232 1.56l-1.896 2.256a7 7 0 0 0-1.488-1.056q-.792-.432-1.992-.432-1.488 0-2.616.744-1.128.72-1.752 2.088t-.624 3.288q0 1.944.576 3.336.6 1.368 1.776 2.112t2.904.744q.648 0 1.248-.168.6-.192.96-.504v-3.504h-3.144v-2.904h6.336V40.2q-.912.888-2.424 1.512t-3.36.624m19.473 0q-1.416 0-2.52-.336a8 8 0 0 1-1.968-.888 10 10 0 0 1-1.536-1.2l1.632-2.256q.504.504 1.08.912.6.408 1.296.648.72.24 1.536.24.912 0 1.608-.36.72-.36 1.128-1.032t.408-1.632q0-1.44-.84-2.208-.816-.792-2.16-.792-.768 0-1.32.216t-1.344.72l-1.608-1.056.48-8.616h9.504v2.952h-6.456l-.336 3.768q.528-.24 1.032-.36t1.104-.12q1.488 0 2.736.576a4.55 4.55 0 0 1 1.992 1.776q.744 1.2.744 3.048 0 1.896-.888 3.24a5.8 5.8 0 0 1-2.28 2.064 6.7 6.7 0 0 1-3.024.696M175.424 40.608h5.664v2.712H166.16v-2.712h6.408v-4.8h-4.632v-2.664h4.632v-3.936h-2.64c-.36 1.248-.84 2.4-1.344 3.312-.576-.36-1.872-1.008-2.544-1.296.24-.432.48-.888.72-1.392l-1.368.624c-.144-.72-.504-1.776-.912-2.76v16.392h-2.856v-17.16c-.144 2.016-.528 4.656-1.08 6.36l-2.112-.768c.576-1.584 1.008-4.272 1.176-6.24l2.016.288v-4.896h2.856v4.536l1.392-.576c.48.936.984 2.088 1.32 3.024.6-1.752 1.032-3.816 1.272-5.856l2.784.384a48 48 0 0 1-.6 3.336h1.92v-4.704h2.856v4.704h4.896v2.688h-4.896v3.936h4.392v2.664h-4.392zm11.232-15.312v3.288h4.512v-3.288zm2.448 7.8h5.04s-.024.696-.024 1.032c-.24 5.784-.504 8.088-1.152 8.904-.48.576-1.032.792-1.8.888-.648.096-1.752.12-2.904.072-.024-.744-.312-1.776-.72-2.472.96.12 1.92.12 2.352.12.36 0 .576-.048.792-.312.36-.408.576-1.944.744-5.736h-2.664c-.552 3.288-1.68 6.36-4.224 8.52-.408-.72-1.224-1.608-1.896-2.088 3.144-2.592 3.624-6.912 3.816-10.896h-2.4v-8.352h9.864v8.352h-4.68zm9.408-8.52v13.512h-2.784V24.576zm2.856-2.424h2.832v18.48c0 1.68-.336 2.472-1.32 2.928s-2.592.552-4.776.552c-.12-.84-.552-2.16-.984-2.952 1.56.048 3.096.048 3.6.048.456 0 .648-.144.648-.576zm27.552 11.112v2.88h-9.432v7.944h-2.976v-7.944h-9.336v-2.88h9.336v-7.272h-8.088V23.16h19.104v2.832h-8.04v7.272zm-19.032-5.736 2.616-.768c.792 1.536 1.656 3.552 1.92 4.896l-2.784.864c-.24-1.296-.984-3.384-1.752-4.992m14.016 4.944-2.496-.72c.768-1.392 1.632-3.504 2.088-5.064l3.048.768c-.864 1.848-1.824 3.792-2.64 5.016m24.264 2.568v1.176h4.536v2.328h-4.536v2.952c0 1.368-.312 1.944-1.344 2.256-1.008.312-2.472.312-4.464.312-.096-.72-.384-1.608-.696-2.304 1.176.072 2.688.072 3.048.048.36 0 .504-.096.504-.432v-2.832h-7.464c1.128.936 2.448 2.112 3.168 2.904l-2.112 1.656c-.768-.936-2.4-2.472-3.648-3.576l1.392-.984h-5.232v-2.328h13.896V35.04zm-4.704-6.432h4.68c-.504-.672-1.32-1.536-1.944-2.184l.984-.816h-1.824c-.576 1.08-1.224 2.016-1.896 2.76zm3.048-5.424h6.576v2.424h-4.344c.624.576 1.224 1.224 1.56 1.68l-1.512 1.32h3.192v2.424h-8.52v1.392h7.032v2.16h-17.112v-2.16h7.104v-1.392h-8.424v-2.424h5.952c-.528-.648-1.464-1.584-2.256-2.256l.84-.744h-1.704c-.72 1.008-1.488 1.896-2.256 2.592-.408-.504-1.344-1.488-1.896-1.944 1.44-1.176 2.832-3 3.6-4.8l2.52.744c-.144.336-.312.648-.456.984h5.304v2.424h-3.336c.6.504 1.176 1.056 1.512 1.488l-1.656 1.512h2.256v-1.176h1.752a12 12 0 0 0-.96-.672c1.296-1.272 2.4-3.288 3-5.304l2.592.624c-.12.36-.216.744-.36 1.104"/><path fill="#FF3A21" stroke="#000" d="M1 64h18v18H1zM19 64h18v18H19zM37 64h18v18H37zM55 64h18v18H55zM73 64h18v18H73zM91 64h18v18H91zM109 64h18v18h-18zM127 64h18v18h-18zM145 64h18v18h-18zM163 64h18v18h-18z"/><path fill="#FF3A21" fill-opacity=".3" stroke="#000" d="M181 64h18v18h-18zM199 64h18v18h-18zM217 64h18v18h-18zM235 64h18v18h-18zM253 64h18v18h-18zM271 64h18v18h-18zM289 64h18v18h-18zM307 64h18v18h-18zM325 64h18v18h-18zM343 64h18v18h-18z"/><path fill="#FF3A21" d="M4.54 95.168q-.9 0-1.584-.516-.672-.528-1.056-1.56-.372-1.044-.372-2.58 0-1.524.372-2.532.384-1.02 1.056-1.524a2.6 2.6 0 0 1 1.584-.504q.912 0 1.584.516.672.504 1.044 1.512.384 1.008.384 2.532 0 1.536-.384 2.58-.372 1.032-1.044 1.56-.672.516-1.584.516m0-1.38q.396 0 .696-.3t.468-1.008q.168-.72.168-1.968 0-1.236-.168-1.932-.168-.708-.468-.984a.97.97 0 0 0-.696-.288q-.372 0-.684.288-.3.276-.48.984-.18.696-.18 1.932 0 1.248.18 1.968.18.708.48 1.008.312.3.684.3M82.984 95v-1.44h1.92v-5.604h-1.62v-1.104a7.5 7.5 0 0 0 1.152-.288q.492-.18.912-.456h1.308v7.452h1.668V95zm9.634.168q-.9 0-1.584-.516-.672-.528-1.056-1.56-.372-1.044-.372-2.58 0-1.524.372-2.532.384-1.02 1.056-1.524a2.6 2.6 0 0 1 1.584-.504q.912 0 1.584.516.672.504 1.044 1.512.384 1.008.384 2.532 0 1.536-.384 2.58-.372 1.032-1.044 1.56-.672.516-1.584.516m0-1.38q.396 0 .696-.3t.468-1.008q.168-.72.168-1.968 0-1.236-.168-1.932-.168-.708-.468-.984a.97.97 0 0 0-.696-.288q-.372 0-.684.288-.3.276-.48.984-.18.696-.18 1.932 0 1.248.18 1.968.18.708.48 1.008.312.3.684.3M170.516 95v-1.02a30 30 0 0 0 2.064-2.004q.864-.924 1.32-1.716.456-.804.456-1.488 0-.432-.156-.756a1.1 1.1 0 0 0-.456-.492q-.288-.18-.72-.18-.48 0-.888.276a4 4 0 0 0-.732.636l-.984-.948q.624-.672 1.272-1.008.66-.348 1.56-.348.84 0 1.464.348.636.336.984.948t.348 1.44q0 .804-.408 1.644a8.4 8.4 0 0 1-1.068 1.656 20 20 0 0 1-1.488 1.632q.348-.048.744-.072.408-.036.72-.036h1.92V95zm10.102.168q-.9 0-1.584-.516-.672-.528-1.056-1.56-.372-1.044-.372-2.58 0-1.524.372-2.532.384-1.02 1.056-1.524a2.6 2.6 0 0 1 1.584-.504q.912 0 1.584.516.672.504 1.044 1.512.384 1.008.384 2.532 0 1.536-.384 2.58-.372 1.032-1.044 1.56-.672.516-1.584.516m0-1.38q.396 0 .696-.3t.468-1.008q.168-.72.168-1.968 0-1.236-.168-1.932-.168-.708-.468-.984a.97.97 0 0 0-.696-.288q-.372 0-.684.288-.3.276-.48.984-.18.696-.18 1.932 0 1.248.18 1.968.18.708.48 1.008.312.3.684.3M261.276 95.168q-.696 0-1.248-.168a3.7 3.7 0 0 1-.984-.432 4 4 0 0 1-.732-.636l.828-1.116q.408.372.888.648.492.264 1.092.264a2 2 0 0 0 .792-.144 1.12 1.12 0 0 0 .72-1.092q0-.444-.216-.756-.204-.324-.732-.492t-1.488-.168v-1.272q.816 0 1.284-.168.468-.18.66-.48.204-.312.204-.708 0-.516-.312-.804-.312-.3-.876-.3-.468 0-.876.216a3.7 3.7 0 0 0-.792.564l-.912-1.092a5.3 5.3 0 0 1 1.236-.78q.648-.3 1.428-.3.852 0 1.5.276.66.276 1.02.804t.36 1.284q0 .72-.384 1.236t-1.092.792v.06q.492.132.888.432.408.288.636.732.24.444.24 1.032 0 .804-.432 1.38-.42.576-1.14.888-.708.3-1.56.3m7.342 0q-.9 0-1.584-.516-.672-.528-1.056-1.56-.372-1.044-.372-2.58 0-1.524.372-2.532.384-1.02 1.056-1.524a2.6 2.6 0 0 1 1.584-.504q.912 0 1.584.516.672.504 1.044 1.512.384 1.008.384 2.532 0 1.536-.384 2.58-.372 1.032-1.044 1.56-.672.516-1.584.516m0-1.38q.396 0 .696-.3t.468-1.008q.168-.72.168-1.968 0-1.236-.168-1.932-.168-.708-.468-.984a.97.97 0 0 0-.696-.288q-.372 0-.684.288-.3.276-.48.984-.18.696-.18 1.932 0 1.248.18 1.968.18.708.48 1.008.312.3.684.3M350.044 95v-5.46q0-.384.024-.912.024-.54.048-.936h-.06q-.156.36-.336.72t-.372.732l-1.38 2.208h4.776v1.344h-6.492v-1.2l3.312-5.388h2.124V95zm6.574.168q-.9 0-1.584-.516-.672-.528-1.056-1.56-.372-1.044-.372-2.58 0-1.524.372-2.532.384-1.02 1.056-1.524a2.6 2.6 0 0 1 1.584-.504q.912 0 1.584.516.672.504 1.044 1.512.384 1.008.384 2.532 0 1.536-.384 2.58-.372 1.032-1.044 1.56-.672.516-1.584.516m0-1.38q.396 0 .696-.3t.468-1.008q.168-.72.168-1.968 0-1.236-.168-1.932-.168-.708-.468-.984a.97.97 0 0 0-.696-.288q-.372 0-.684.288-.3.276-.48.984-.18.696-.18 1.932 0 1.248.18 1.968.18.708.48 1.008.312.3.684.3"/></svg>