<svg xmlns="http://www.w3.org/2000/svg" width="362" height="98" fill="none"><path fill="#56C02B" d="M27.508 34.484h-1.881a.143.143 0 0 0-.144.143v4.657c0 .08.064.144.144.144h1.88a.143.143 0 0 0 .144-.143v-4.657a.143.143 0 0 0-.143-.144M48.22 41.428H17.144a.146.146 0 0 0-.143.147v1.9c0 .076.064.14.143.14h31.078a.144.144 0 0 0 .143-.14v-1.9a.15.15 0 0 0-.143-.147M48.22 45.201H17.144a.14.14 0 0 0-.143.14v1.904c0 .076.064.14.143.14h31.078a.144.144 0 0 0 .143-.14V45.34a.144.144 0 0 0-.143-.139M42.307 29.326c-.39-.302-1.424-1.014-2.689-1.014-.903 0-1.742.358-2.497 1.062a.27.27 0 0 0-.084.194v.171c0 .084.028.163.088.211q.1.08.218.052a.432.432 0 0 0 .215-.115c.163-.112.609-.259 1.245-.259s1.953.175 3.202 1.34l.027.024a.38.38 0 0 0 .27.111c.104 0 .2-.04.263-.11l.024-.029c1.257-1.169 2.55-1.344 3.206-1.344s1.085.151 1.249.259c.043.043.099.08.17.103a.4.4 0 0 0 .184.004.264.264 0 0 0 .194-.255v-.15a.27.27 0 0 0-.083-.191c-.76-.724-1.607-1.09-2.526-1.09-1.252 0-2.282.7-2.684 1.014M40.377 16.938a.25.25 0 0 0-.135.163l-.032.103a.27.27 0 0 0 .04.235c.048.064.115.1.19.103.017 0 .029.004.04 0a.3.3 0 0 0 .152-.04c.028-.003.083-.02.187-.02.139 0 1.392.044 2.219 1.452l.012.02c.044.084.115.14.199.16a.32.32 0 0 0 .255-.024l.02-.009a3.1 3.1 0 0 1 1.387-.342c.784 0 1.297.323 1.416.454a.4.4 0 0 0 .103.115c.028.016.072.04.1.048q.024.001.048.008h.027a.27.27 0 0 0 .255-.191l.028-.091a.264.264 0 0 0-.024-.21c-.605-1.051-1.48-1.27-2.108-1.27-.47 0-.879.123-1.117.21-.287-.381-1.007-1.172-2.097-1.172-.381 0-.775.1-1.165.294M33.811 21.718l.008.14a.27.27 0 0 0 .123.21c.06.04.14.052.211.032a.1.1 0 0 0 .044-.016.4.4 0 0 0 .135-.1c.131-.095.557-.27 1.185-.27.629 0 1.523.163 2.458.93l.02.024c.068.06.151.092.239.092h.023a.36.36 0 0 0 .243-.116l.02-.023c1.034-1.098 2.152-1.261 2.724-1.261.41 0 .696.084.812.147a.4.4 0 0 0 .163.084c.02.004.063.012.115.008q.032-.002.064-.016a.26.26 0 0 0 .175-.267l-.008-.123a.25.25 0 0 0-.096-.183c-.616-.521-1.284-.783-1.988-.783-1.094 0-1.965.644-2.327.962-.33-.227-1.133-.688-2.072-.688-.827 0-1.567.342-2.203 1.018a.26.26 0 0 0-.072.199M18.086 24.216a3.367 3.367 0 0 1 3.369-3.369c.071 0 .143.008.214.012a4.557 4.557 0 0 1 4.542-4.212c2.403 0 4.558 2.04 4.558 4.558 0 .712-.167 1.384-.461 1.988a5.092 5.092 0 0 1-1.106 10.066c-.207 0-6.797-.04-6.797-.04a3.607 3.607 0 0 1-3.607-3.607c0-.958.374-1.825.982-2.47a3.36 3.36 0 0 1-1.698-2.923zM88.488 42.336c-2.376 0-4.752-.936-6.48-2.592l2.04-2.448c1.272 1.176 2.952 1.968 4.512 1.968 1.848 0 2.832-.792 2.832-2.04 0-1.32-1.08-1.728-2.664-2.4l-2.376-1.008c-1.8-.744-3.6-2.184-3.6-4.776 0-2.904 2.544-5.136 6.144-5.136 2.064 0 4.128.816 5.568 2.28l-1.8 2.232c-1.128-.936-2.304-1.464-3.768-1.464-1.56 0-2.544.696-2.544 1.872 0 1.272 1.248 1.728 2.76 2.328l2.328.984c2.16.888 3.576 2.256 3.576 4.824 0 2.904-2.424 5.376-6.528 5.376M98.161 42V24.216h4.872c5.424 0 8.784 2.832 8.784 8.832 0 5.976-3.36 8.952-8.592 8.952zm3.552-2.856h1.104c3.312 0 5.376-1.776 5.376-6.096 0-4.344-2.064-5.976-5.376-5.976h-1.104zm21.212 3.192c-4.824 0-8.52-3.216-8.52-9.144 0-5.856 3.792-9.288 8.52-9.288 2.568 0 4.344 1.104 5.496 2.28l-1.872 2.256c-.888-.84-1.896-1.488-3.504-1.488-2.952 0-5.016 2.304-5.016 6.12 0 3.864 1.776 6.192 5.28 6.192.84 0 1.704-.24 2.208-.672v-3.504h-3.144v-2.904h6.312V40.2c-1.2 1.176-3.288 2.136-5.76 2.136m13.124 0c-1.8 0-3.768-.792-5.112-1.896l1.608-2.208c1.2.936 2.352 1.464 3.6 1.464 1.344 0 1.944-.576 1.944-1.416 0-1.008-1.392-1.464-2.808-2.016-1.704-.648-3.6-1.68-3.6-3.936 0-2.4 1.944-4.104 5.016-4.104 1.944 0 3.456.816 4.56 1.656l-1.584 2.136c-.96-.696-1.896-1.152-2.88-1.152-1.224 0-1.8.528-1.8 1.296 0 .984 1.248 1.344 2.664 1.872 1.776.672 3.744 1.56 3.744 4.056 0 2.352-1.848 4.248-5.352 4.248M149.601 42v-2.856h3.816V28.368h-3.216v-2.184c1.776-.336 3-.792 4.128-1.488h2.616v14.448h3.336V42zm18.789.336c-2.808 0-4.68-1.104-6-2.424l1.632-2.256c1.008.984 2.256 1.8 3.912 1.8 1.848 0 3.144-1.08 3.144-3.024 0-1.92-1.2-3-3-3-1.056 0-1.632.264-2.664.936l-1.608-1.032.48-8.64h9.504v2.952h-6.456l-.336 3.768c.72-.312 1.32-.48 2.136-.48 2.976 0 5.472 1.68 5.472 5.376 0 3.816-2.928 6.024-6.216 6.024M197.96 31.34h-1.54c-.28 2.04-1.1 3.38-3.74 4.16-.16-.44-.58-1.1-.98-1.52.08.42.1.8.1 1.18 0 1.3-.28 2.12-.94 2.58-.3.24-.7.36-1.14.44-.38.06-.86.06-1.3.04-.02-.6-.22-1.5-.54-2.1.34.04.62.04.84.04.22-.02.42-.06.58-.18.24-.18.32-.56.32-1.14 0-.9-.26-2.12-1.38-3.44.4-1.24.82-3 1.14-4.36h-1.66v15.72h-2.2V24.92h4.6l.36-.1 1.6.92c-.52 1.72-1.22 3.86-1.78 5.4.76.96 1.16 1.82 1.34 2.64 1.82-.5 2.42-1.24 2.64-2.44h-2.64v-2.02h4.5V27.8h-3.46v-1.96h3.46v-1.72h2.34v1.72h3.62v1.96h-3.62v1.52h4.64v2.02H200v1c0 .44.04.62.4.62h1.4c.34 0 .96-.04 1.24-.14.04.54.08 1.18.16 1.68-.3.1-.86.14-1.34.14h-1.78c-1.76 0-2.12-.72-2.12-2.32zm.52 8.9h4.86v2.08H190.8v-2.08h5.34v-1.9h-3.74V36.3h3.74v-1.74h2.34v1.74h3.82v2.04h-3.82zm11.66-5.02.68 2.1c-1.76 1.04-3.7 2.14-5.34 3.02l-.9-2.4c.56-.24 1.24-.56 1.98-.9v-5.96h-1.8V28.8h1.8v-4.48h2.22v4.48h1.5v2.28h-1.5v4.82zm10.58-4.94 2.12.4c-.62 2.62-1.5 4.96-2.66 6.96.34 1.78.8 2.86 1.28 2.86.28 0 .44-.74.5-2.52.44.56 1.1 1.06 1.6 1.32-.34 2.66-.92 3.42-2.42 3.42-1.12 0-1.96-1.06-2.58-2.76-.82 1.02-1.76 1.9-2.8 2.64-.32-.4-1.2-1.16-1.7-1.5.96-.6 1.8-1.32 2.56-2.12-2.12.56-4.36 1.16-6.08 1.6l-.56-2.22c1.74-.32 4.36-.92 6.88-1.48l.18 1.58c.3-.36.58-.72.84-1.1-.46-2.38-.72-5.3-.84-8.4h-6.46V26.8h6.38c-.02-.92-.04-1.82-.04-2.74h2.26c-.02.92-.02 1.82 0 2.74h2.12c-.5-.52-1.16-1.12-1.74-1.58l1.34-1.16c.78.56 1.74 1.36 2.2 1.94l-.86.8h.88v2.16h-3.88c.08 1.82.2 3.52.38 5.04.46-1.16.8-2.38 1.1-3.72m-6.28 4.28v-2.44h-1.54v2.44zm-3.28-4.26h5.14v6.08h-5.14zm24.12 9.54h7.76v2.34h-17.98v-2.34h7.72v-4.02h-5.42v-2.3h5.42V30h-4.14c-.58 1.1-1.2 2.12-1.86 2.9-.48-.38-1.54-1.1-2.14-1.42 1.56-1.68 2.86-4.44 3.54-7.16l2.46.54c-.28.96-.6 1.9-.94 2.82h3.08v-3.6h2.5v3.6h6.74V30h-6.74v3.52h5.98v2.3h-5.98zm25.34-9.44h-2.98c-2.2 0-2.76-.76-2.76-2.72V24.2l2.2.02v1.18h4.74v1.76h-4.74v.58c0 .56.08.78.64.78h2.82c.54 0 1.4-.06 1.8-.16.04.58.1 1.38.2 1.88-.4.12-1.2.16-1.92.16m-.1 6.78h-2.82c-2.28 0-2.82-.58-2.82-2.52v-3.94h2.18V32h4.82v1.74h-4.82v.92c0 .56.16.62.92.62h2.3c.56 0 .7-.14.78-1 .44.28 1.34.6 1.92.72-.24 1.7-.86 2.18-2.46 2.18m-7.9.4 1.64-1.02c.62.7 1.48 1.66 1.9 2.28l-1.72 1.18c-.4-.64-1.2-1.7-1.82-2.44m1.96-9.4-1.7.92c-.14-.28-.34-.62-.56-.98-5.48.52-6.28.64-6.78.88-.12-.44-.44-1.38-.66-1.88q.51-.12 1.08-.6c.38-.28 1.62-1.34 2.4-2.5l2.1.64c-.64.78-1.42 1.52-2.2 2.18l3.02-.24c-.26-.34-.52-.68-.78-.98l1.6-.8c.9 1.02 1.98 2.44 2.48 3.36m-3.24 2.66h-3.32v1.08l.72-.88c.82.32 1.98.8 2.6 1.12zm-.8 2.48.8-.24v-.88zm-2.52-1.16v.1c0 .58-.02 1.2-.1 1.84.72-.2 1.58-.46 2.52-.74-.58-.34-1.6-.82-2.42-1.2m.24 3.66-.44-1.1c-.2 1-.58 1.96-1.24 2.7-.34-.34-1.24-.98-1.68-1.2 1.06-1.18 1.14-2.72 1.14-4V29.2h7.36v6.26c0 .86-.18 1.24-.76 1.52-.56.26-1.36.26-2.42.26-.1-.48-.38-1.12-.6-1.54.62.04 1.26.04 1.44.02.22-.02.28-.08.28-.26v-1c-1.06.48-2.12.94-3.08 1.36m-1.34 6.4-2.08-1.04c.64-.96 1.24-2.4 1.54-3.64l2.04.8c-.36 1.28-.86 2.88-1.5 3.88m5.86-1.7h3.3c.88 0 1.04-.28 1.14-2.02.48.34 1.42.64 2.02.76-.26 2.52-.88 3.14-2.96 3.14h-3.72c-2.66 0-3.36-.58-3.36-2.46V37.9h2.32v2c0 .54.2.62 1.26.62m6.6-2.42 2.04-.6c.54 1.14 1.2 2.66 1.5 3.6l-2.18.68c-.26-.94-.84-2.52-1.36-3.68"/><path fill="#56C02B" stroke="#000" d="M1 64h18v18H1zM19 64h18v18H19zM37 64h18v18H37zM55 64h18v18H55zM73 64h18v18H73zM91 64h18v18H91zM109 64h18v18h-18zM127 64h18v18h-18zM145 64h18v18h-18zM163 64h18v18h-18z"/><path fill="#4C9F38" fill-opacity=".3" stroke="#000" d="M181 64h18v18h-18zM199 64h18v18h-18zM217 64h18v18h-18zM235 64h18v18h-18zM253 64h18v18h-18zM271 64h18v18h-18zM289 64h18v18h-18zM307 64h18v18h-18zM325 64h18v18h-18zM343 64h18v18h-18z"/><path fill="#56C02B" d="M4.54 95.168q-.9 0-1.584-.516-.672-.528-1.056-1.56-.372-1.044-.372-2.58 0-1.524.372-2.532.384-1.02 1.056-1.524a2.6 2.6 0 0 1 1.584-.504q.912 0 1.584.516.672.504 1.044 1.512.384 1.008.384 2.532 0 1.536-.384 2.58-.372 1.032-1.044 1.56-.672.516-1.584.516m0-1.38q.396 0 .696-.3t.468-1.008q.168-.72.168-1.968 0-1.236-.168-1.932-.168-.708-.468-.984a.97.97 0 0 0-.696-.288q-.372 0-.684.288-.3.276-.48.984-.18.696-.18 1.932 0 1.248.18 1.968.18.708.48 1.008.312.3.684.3M82.984 95v-1.44h1.92v-5.604h-1.62v-1.104a7.5 7.5 0 0 0 1.152-.288q.492-.18.912-.456h1.308v7.452h1.668V95zm9.634.168q-.9 0-1.584-.516-.672-.528-1.056-1.56-.372-1.044-.372-2.58 0-1.524.372-2.532.384-1.02 1.056-1.524a2.6 2.6 0 0 1 1.584-.504q.912 0 1.584.516.672.504 1.044 1.512.384 1.008.384 2.532 0 1.536-.384 2.58-.372 1.032-1.044 1.56-.672.516-1.584.516m0-1.38q.396 0 .696-.3t.468-1.008q.168-.72.168-1.968 0-1.236-.168-1.932-.168-.708-.468-.984a.97.97 0 0 0-.696-.288q-.372 0-.684.288-.3.276-.48.984-.18.696-.18 1.932 0 1.248.18 1.968.18.708.48 1.008.312.3.684.3M170.516 95v-1.02a30 30 0 0 0 2.064-2.004q.864-.924 1.32-1.716.456-.804.456-1.488 0-.432-.156-.756a1.1 1.1 0 0 0-.456-.492q-.288-.18-.72-.18-.48 0-.888.276a4 4 0 0 0-.732.636l-.984-.948q.624-.672 1.272-1.008.66-.348 1.56-.348.84 0 1.464.348.636.336.984.948t.348 1.44q0 .804-.408 1.644a8.4 8.4 0 0 1-1.068 1.656 20 20 0 0 1-1.488 1.632q.348-.048.744-.072.408-.036.72-.036h1.92V95zm10.102.168q-.9 0-1.584-.516-.672-.528-1.056-1.56-.372-1.044-.372-2.58 0-1.524.372-2.532.384-1.02 1.056-1.524a2.6 2.6 0 0 1 1.584-.504q.912 0 1.584.516.672.504 1.044 1.512.384 1.008.384 2.532 0 1.536-.384 2.58-.372 1.032-1.044 1.56-.672.516-1.584.516m0-1.38q.396 0 .696-.3t.468-1.008q.168-.72.168-1.968 0-1.236-.168-1.932-.168-.708-.468-.984a.97.97 0 0 0-.696-.288q-.372 0-.684.288-.3.276-.48.984-.18.696-.18 1.932 0 1.248.18 1.968.18.708.48 1.008.312.3.684.3M261.276 95.168q-.696 0-1.248-.168a3.7 3.7 0 0 1-.984-.432 4 4 0 0 1-.732-.636l.828-1.116q.408.372.888.648.492.264 1.092.264a2 2 0 0 0 .792-.144 1.12 1.12 0 0 0 .72-1.092q0-.444-.216-.756-.204-.324-.732-.492t-1.488-.168v-1.272q.816 0 1.284-.168.468-.18.66-.48.204-.312.204-.708 0-.516-.312-.804-.312-.3-.876-.3-.468 0-.876.216a3.7 3.7 0 0 0-.792.564l-.912-1.092a5.3 5.3 0 0 1 1.236-.78q.648-.3 1.428-.3.852 0 1.5.276.66.276 1.02.804t.36 1.284q0 .72-.384 1.236t-1.092.792v.06q.492.132.888.432.408.288.636.732.24.444.24 1.032 0 .804-.432 1.38-.42.576-1.14.888-.708.3-1.56.3m7.342 0q-.9 0-1.584-.516-.672-.528-1.056-1.56-.372-1.044-.372-2.58 0-1.524.372-2.532.384-1.02 1.056-1.524a2.6 2.6 0 0 1 1.584-.504q.912 0 1.584.516.672.504 1.044 1.512.384 1.008.384 2.532 0 1.536-.384 2.58-.372 1.032-1.044 1.56-.672.516-1.584.516m0-1.38q.396 0 .696-.3t.468-1.008q.168-.72.168-1.968 0-1.236-.168-1.932-.168-.708-.468-.984a.97.97 0 0 0-.696-.288q-.372 0-.684.288-.3.276-.48.984-.18.696-.18 1.932 0 1.248.18 1.968.18.708.48 1.008.312.3.684.3M350.044 95v-5.46q0-.384.024-.912.024-.54.048-.936h-.06q-.156.36-.336.72t-.372.732l-1.38 2.208h4.776v1.344h-6.492v-1.2l3.312-5.388h2.124V95zm6.574.168q-.9 0-1.584-.516-.672-.528-1.056-1.56-.372-1.044-.372-2.58 0-1.524.372-2.532.384-1.02 1.056-1.524a2.6 2.6 0 0 1 1.584-.504q.912 0 1.584.516.672.504 1.044 1.512.384 1.008.384 2.532 0 1.536-.384 2.58-.372 1.032-1.044 1.56-.672.516-1.584.516m0-1.38q.396 0 .696-.3t.468-1.008q.168-.72.168-1.968 0-1.236-.168-1.932-.168-.708-.468-.984a.97.97 0 0 0-.696-.288q-.372 0-.684.288-.3.276-.48.984-.18.696-.18 1.932 0 1.248.18 1.968.18.708.48 1.008.312.3.684.3"/></svg>