<svg width="376" height="98" viewBox="0 0 376 98" fill="none" xmlns="http://www.w3.org/2000/svg">
<path d="M48.7773 30.5269C48.7773 26.033 45.2018 22.3624 40.7474 22.1993C39.602 18.9622 36.5118 16.6396 32.8886 16.6396C29.2655 16.6396 26.1752 18.9661 25.0298 22.1993C20.5754 22.3624 17 26.033 17 30.5269C17 33.1954 18.2608 35.5696 20.2175 37.0967C20.0067 37.8325 19.8874 38.608 19.8874 39.4113C19.8874 44.0046 23.6259 47.7468 28.2235 47.7468C29.9694 47.7468 31.5881 47.206 32.9284 46.2873C34.2528 47.1742 35.8436 47.6912 37.5538 47.6912C42.1514 47.6912 45.8899 43.9529 45.8899 39.3556C45.8899 38.5682 45.7785 37.8086 45.5757 37.0888C47.5245 35.5617 48.7813 33.1875 48.7813 30.5269M39.5464 24.9752C39.5464 28.3118 37.0766 31.0757 33.871 31.553C33.8193 31.2189 33.7835 30.8769 33.7835 30.5309C33.7835 27.1943 36.2533 24.4304 39.4589 23.9531C39.5106 24.2872 39.5464 24.6292 39.5464 24.9752ZM32.9205 44.1239C31.6756 42.9149 30.8961 41.2247 30.8961 39.3556C30.8961 37.4865 31.6478 35.848 32.8568 34.639C34.1017 35.848 34.8812 37.5382 34.8812 39.4073C34.8812 41.2764 34.1295 42.9149 32.9205 44.1199M26.3184 23.9492C29.524 24.4264 31.9938 27.1903 31.9938 30.5269C31.9938 30.8769 31.958 31.2149 31.9063 31.549C28.7007 31.0718 26.2309 28.3078 26.2309 24.9712C26.2309 24.6213 26.2667 24.2832 26.3184 23.9492ZM31.2819 33.5056C30.1882 35.6849 27.9371 37.1842 25.3361 37.1842C24.2344 37.1842 23.1964 36.9098 22.2777 36.4326C23.3714 34.2533 25.6224 32.754 28.2235 32.754C29.3251 32.754 30.3632 33.0284 31.2819 33.5056ZM34.4755 33.4579C35.3982 32.9727 36.4442 32.6983 37.5538 32.6983C40.1708 32.6983 42.4338 34.2215 43.5235 36.4207C42.6008 36.9059 41.5548 37.1803 40.4452 37.1803C37.8282 37.1803 35.5653 35.6571 34.4755 33.4579ZM32.8886 18.3179C35.617 18.3179 37.9635 19.9683 38.9896 22.3226C36.2811 22.7998 34.0221 24.5894 32.8886 27.0074C31.7552 24.5894 29.4961 22.7998 26.7877 22.3226C27.8178 19.9683 30.1643 18.3179 32.8886 18.3179ZM18.6783 30.5269C18.6783 27.0949 21.2873 24.2673 24.6202 23.9094C24.5764 24.2594 24.5486 24.6133 24.5486 24.9752C24.5486 27.413 25.5986 29.6083 27.2729 31.1314C24.5088 31.4456 22.1504 33.1159 20.8817 35.4622C19.5334 34.2453 18.6744 32.4836 18.6744 30.5269M21.5657 39.4113C21.5657 38.938 21.6175 38.4767 21.7129 38.0313C22.8106 38.5642 24.0395 38.8625 25.3361 38.8625C26.7957 38.8625 28.1678 38.4847 29.3609 37.8245C29.2695 38.3216 29.2177 38.8346 29.2177 39.3596C29.2177 41.6105 30.1166 43.6546 31.5722 45.1579C30.5859 45.7345 29.4444 46.0726 28.2235 46.0726C24.5526 46.0726 21.5657 43.0859 21.5657 39.4153M44.2115 39.3556C44.2115 43.0263 41.2247 46.0129 37.5538 46.0129C36.3607 46.0129 35.2431 45.6908 34.2727 45.138C35.6885 43.6427 36.5635 41.6264 36.5635 39.4113C36.5635 38.8665 36.5078 38.3336 36.4084 37.8166C37.6055 38.4807 38.9816 38.8625 40.4452 38.8625C41.7457 38.8625 42.9826 38.5602 44.0803 38.0273C44.1678 38.4568 44.2155 38.9022 44.2155 39.3596M38.5521 31.0837C40.1946 29.5605 41.2247 27.3852 41.2247 24.9752C41.2247 24.6133 41.2008 24.2594 41.1531 23.9094C44.4899 24.2673 47.0989 27.0989 47.0989 30.5269C47.0989 32.4756 46.2518 34.2254 44.9115 35.4463C43.6587 33.096 41.3082 31.4138 38.5521 31.0837Z" fill="#19486A"/>
<path d="M88.488 42.336C86.112 42.336 83.736 41.4 82.008 39.744L84.048 37.296C85.32 38.472 87 39.264 88.56 39.264C90.408 39.264 91.392 38.472 91.392 37.224C91.392 35.904 90.312 35.496 88.728 34.824L86.352 33.816C84.552 33.072 82.752 31.632 82.752 29.04C82.752 26.136 85.296 23.904 88.896 23.904C90.96 23.904 93.024 24.72 94.464 26.184L92.664 28.416C91.536 27.48 90.36 26.952 88.896 26.952C87.336 26.952 86.352 27.648 86.352 28.824C86.352 30.096 87.6 30.552 89.112 31.152L91.44 32.136C93.6 33.024 95.016 34.392 95.016 36.96C95.016 39.864 92.592 42.336 88.488 42.336ZM98.1606 42V24.216H103.033C108.457 24.216 111.817 27.048 111.817 33.048C111.817 39.024 108.457 42 103.225 42H98.1606ZM101.713 39.144H102.817C106.129 39.144 108.193 37.368 108.193 33.048C108.193 28.704 106.129 27.072 102.817 27.072H101.713V39.144ZM122.925 42.336C118.101 42.336 114.405 39.12 114.405 33.192C114.405 27.336 118.197 23.904 122.925 23.904C125.493 23.904 127.269 25.008 128.421 26.184L126.549 28.44C125.661 27.6 124.653 26.952 123.045 26.952C120.093 26.952 118.029 29.256 118.029 33.072C118.029 36.936 119.805 39.264 123.309 39.264C124.149 39.264 125.013 39.024 125.517 38.592V35.088H122.373V32.184H128.685V40.2C127.485 41.376 125.397 42.336 122.925 42.336ZM136.049 42.336C134.249 42.336 132.281 41.544 130.937 40.44L132.545 38.232C133.745 39.168 134.897 39.696 136.145 39.696C137.489 39.696 138.089 39.12 138.089 38.28C138.089 37.272 136.697 36.816 135.281 36.264C133.577 35.616 131.681 34.584 131.681 32.328C131.681 29.928 133.625 28.224 136.697 28.224C138.641 28.224 140.153 29.04 141.257 29.88L139.673 32.016C138.713 31.32 137.777 30.864 136.793 30.864C135.569 30.864 134.993 31.392 134.993 32.16C134.993 33.144 136.241 33.504 137.657 34.032C139.433 34.704 141.401 35.592 141.401 38.088C141.401 40.44 139.553 42.336 136.049 42.336ZM149.601 42V39.144H153.417V28.368H150.201V26.184C151.977 25.848 153.201 25.392 154.329 24.696H156.945V39.144H160.281V42H149.601ZM166.23 42C166.542 36.024 167.646 32.256 170.958 27.648H162.966V24.696H174.774V26.856C170.742 31.776 170.094 35.256 169.806 42H166.23Z" fill="#19486A"/>
<path d="M191.632 31.152L193.552 31.968C192.4 36.936 189.904 40.656 186.976 42.624C186.496 42.024 185.368 40.92 184.672 40.488C186.928 39.144 188.824 36.792 189.928 33.96H185.272V31.272H191.128L191.632 31.152ZM203.944 28.392L206.56 30.336C204.76 31.968 202.552 33.768 200.728 34.992C202.408 37.296 204.592 39.072 207.4 40.176C206.728 40.728 205.84 41.904 205.408 42.672C201.928 41.112 199.456 38.544 197.656 35.256V40.752C197.656 42.312 197.344 43.08 196.312 43.56C195.328 44.016 193.864 44.04 191.848 44.04C191.728 43.224 191.272 41.952 190.888 41.184C192.088 41.256 193.576 41.256 194.008 41.232C194.44 41.208 194.584 41.088 194.584 40.704V29.256H188.584V26.52H197.488C195.448 25.608 192.664 24.672 190.456 24.096L191.872 21.768C194.656 22.368 198.664 23.64 200.704 24.696L199.168 27.36C198.76 27.12 198.232 26.856 197.656 26.592V28.584C198.112 30.096 198.688 31.512 199.36 32.808C200.992 31.512 202.792 29.832 203.944 28.392ZM222.544 25.344V24.528H216.832V22.704H222.544V21.672H225.328V22.704H230.752V24.528H225.328V25.344H230.008V27.048H217.72V25.344H222.544ZM219.256 29.448V30.888H220.984V29.448H219.256ZM228.28 30.888V29.448H226.744V30.888H228.28ZM223.096 30.888H224.656V29.448H223.096V30.888ZM216.928 32.616V27.72H230.728V32.616H216.928ZM217.384 36.12L215.368 36.768C215.32 36.432 215.272 36.048 215.2 35.616C210.952 36.24 210.16 36.456 209.656 36.696C209.512 36.216 209.128 35.016 208.84 34.368C209.416 34.248 209.896 33.672 210.616 32.76C210.904 32.4 211.432 31.656 212.08 30.648C210.328 30.864 209.824 30.984 209.464 31.152C209.344 30.672 208.936 29.52 208.672 28.92C209.104 28.8 209.488 28.32 209.944 27.576C210.4 26.928 211.792 24.168 212.56 21.648L214.888 22.56C214.096 24.528 213.04 26.664 211.936 28.392L213.472 28.272C214.024 27.264 214.576 26.136 215.032 25.032L217.192 26.352C215.92 28.872 214.264 31.536 212.536 33.72L214.744 33.456C214.576 32.808 214.408 32.16 214.216 31.608L216.112 31.104C216.664 32.736 217.216 34.848 217.384 36.12ZM209.704 37.44L211.864 37.776C211.672 40.032 211.288 42.432 210.784 43.968C210.304 43.704 209.272 43.392 208.696 43.248C209.248 41.736 209.56 39.528 209.704 37.44ZM212.224 37.728L214.096 37.392C214.384 39.168 214.6 41.4 214.648 42.912L212.632 43.272C212.632 41.76 212.44 39.504 212.224 37.728ZM214.456 37.272L216.208 36.768C216.664 38.112 217.192 39.888 217.384 41.064L215.56 41.688C215.368 40.488 214.888 38.664 214.456 37.272ZM220.312 38.328V39.096H227.272V38.328H220.312ZM220.312 36.576V37.296H227.272V36.576H220.312ZM220.312 34.8V35.52H227.272V34.8H220.312ZM229.936 40.536H226.816C228.424 41.064 230.056 41.688 231.136 42.12L230.008 44.112C228.736 43.512 226.648 42.648 224.824 41.976L225.616 40.536H222.064L223.504 41.952C221.608 42.768 219.208 43.656 217.456 44.232C217.24 43.704 216.808 42.84 216.472 42.264C217.792 41.832 219.64 41.184 221.008 40.536H217.792V33.336H229.936V40.536ZM249.76 37.68H245.056C246.064 38.208 247.168 38.76 248.248 39.36C248.824 38.856 249.328 38.304 249.76 37.68ZM251.464 35.712L253.024 36.264C252.424 38.016 251.536 39.408 250.384 40.536C251.464 41.136 252.448 41.736 253.168 42.216L251.728 44.112C250.912 43.536 249.76 42.792 248.464 42.024C246.952 42.96 245.104 43.632 243.112 44.088C242.872 43.464 242.368 42.552 241.912 42.024C243.472 41.76 244.936 41.304 246.184 40.68C245.008 40.032 243.88 39.384 242.848 38.832L243.808 37.68H243.232V35.784H251.032L251.464 35.712ZM252.712 24.192L254.776 25.656C253.864 26.472 252.832 27.24 251.944 27.864C253 28.416 254.152 28.872 255.376 29.208C254.776 29.76 254.056 30.768 253.672 31.464C252.688 31.152 251.8 30.768 250.936 30.312V32.376C250.936 32.952 250.984 33.144 251.296 33.144H252.472C252.808 33.144 253.384 33.12 253.696 33.024C253.744 33.6 253.792 34.416 253.888 34.968C253.552 35.088 253 35.112 252.496 35.112H251.008C248.992 35.112 248.608 34.296 248.608 32.352V30.96H246.4C246.328 32.64 245.752 34.44 243.76 35.712C243.496 35.304 242.8 34.608 242.32 34.176V34.896H237.568C237.472 35.448 237.4 36.024 237.328 36.552H242.32C242.32 36.552 242.296 37.224 242.272 37.56C242.008 40.8 241.72 42.336 241.096 42.96C240.592 43.512 240.016 43.704 239.176 43.752C238.528 43.824 237.28 43.824 236.008 43.776C235.96 43.032 235.624 42.048 235.192 41.4C236.392 41.496 237.568 41.52 238.096 41.52C238.48 41.52 238.744 41.496 238.96 41.28C239.248 41.016 239.464 40.248 239.632 38.616H234.592C234.928 37.056 235.312 34.68 235.528 32.784H239.776V31.104H236.296V30.72C235.576 31.08 234.856 31.392 234.112 31.656C233.776 31.032 233.08 30.072 232.576 29.568C233.992 29.16 235.36 28.512 236.608 27.72C235.96 27.24 235.096 26.688 234.376 26.28L236.008 24.768C236.824 25.176 237.832 25.752 238.528 26.28C239.032 25.8 239.512 25.296 239.92 24.744H235.192V22.512H241.456L241.936 22.392L243.688 23.256C242.728 25.608 241.12 27.48 239.176 28.944H242.32V33.72C243.808 32.736 244.024 31.584 244.024 30.504V28.8H248.608C246.52 27.144 244.912 25.008 243.76 22.44L246.04 21.768C246.4 22.584 246.856 23.352 247.408 24.024C248.2 23.352 249.088 22.488 249.664 21.816L251.704 23.28C250.72 24.096 249.688 24.96 248.776 25.608C249.184 25.992 249.616 26.352 250.048 26.688C250.96 25.968 252.064 24.96 252.712 24.192ZM275.536 37.2H271.816C272.176 37.8 272.632 38.328 273.136 38.808C273.952 38.328 274.84 37.728 275.536 37.2ZM268.168 33.144V34.8H271.744V33.144H268.168ZM268.168 29.112V30.768H271.744V29.112H268.168ZM262.048 25.104V26.688H274.744V25.104H262.048ZM276.352 37.2L278.08 38.376C277.12 39.048 276.016 39.696 275.008 40.224C276.184 40.896 277.576 41.4 279.184 41.688C278.632 42.264 277.888 43.32 277.528 44.064C273.352 43.032 270.736 40.728 269.128 37.2H266.68V40.944L270.712 40.176C270.568 40.872 270.472 41.952 270.472 42.528C265.192 43.68 264.376 43.872 263.848 44.208V44.232C263.704 43.56 263.176 42.456 262.816 41.928C263.32 41.616 264.04 40.92 264.04 39.696V37.2H262.048V34.8H265.552V33.144H262.552V30.768H265.552V29.112H262.048V29.808C262.048 33.984 261.664 40.224 259.144 44.16C258.568 43.704 257.32 42.96 256.6 42.696C258.976 39 259.168 33.624 259.168 29.808V22.704H277.624V29.112H274.384V30.768H277.84V33.144H274.384V34.8H278.872V37.2H276.352ZM299.848 35.448H296.656C296.44 35.664 296.2 35.88 295.984 36.096C296.728 36.648 297.568 37.344 298.192 37.968C298.864 37.224 299.416 36.384 299.848 35.448ZM292.072 33.648V35.952C293.752 34.968 295 33.792 295.864 32.592C295.024 33.048 294.112 33.432 293.176 33.744C292.888 33.216 292.336 32.472 291.856 31.944V32.208H288.04V33.648H292.072ZM284.08 28.488V29.928H285.592V28.488H284.08ZM284.08 24.912V26.376H285.592V24.912H284.08ZM287.8 26.376H289.456V24.912H287.8V26.376ZM287.8 29.928H289.456V28.488H287.8V29.928ZM291.856 27.768V31.728C293.464 31.248 294.928 30.48 296.2 29.472C295.696 28.92 294.928 28.248 294.184 27.672C293.728 28.056 293.248 28.416 292.72 28.776C292.528 28.488 292.192 28.104 291.856 27.768ZM299.296 25.536H296.32C296.176 25.704 296.008 25.896 295.864 26.064C296.56 26.544 297.352 27.168 297.952 27.72C298.48 27.048 298.936 26.328 299.296 25.536ZM301.576 33.072L303.328 33.696C301.792 39.672 297.88 42.648 292.552 44.136C292.24 43.44 291.616 42.384 291.088 41.832C293.032 41.4 294.784 40.68 296.248 39.672C295.672 39 294.832 38.232 294.04 37.608C293.632 37.872 293.224 38.136 292.768 38.4C292.432 37.8 291.616 36.888 291.064 36.504C291.28 36.384 291.496 36.288 291.712 36.168H288.04V36.336C289.216 37.08 291.784 38.976 292.432 39.528L290.776 41.856C290.176 41.112 289.072 39.936 288.04 38.928V44.064H285.376V39.024C284.296 40.728 283 42.36 281.68 43.392C281.44 42.576 280.84 41.328 280.432 40.608C281.896 39.552 283.432 37.824 284.488 36.168H281.152V33.648H285.376V32.208H281.776V22.632H291.856V26.376C293.824 25.008 295.168 23.28 295.888 21.696L298.504 22.128C298.312 22.536 298.096 22.944 297.856 23.328H300.448L300.928 23.256L302.704 23.928C301.792 27.312 300.04 29.712 297.76 31.416L299.392 31.704C299.128 32.208 298.84 32.688 298.528 33.168H301.072L301.576 33.072ZM323.848 22.68L326.752 23.688C325.888 25.512 324.928 27.456 324.184 28.776L321.856 27.84C322.552 26.448 323.416 24.288 323.848 22.68ZM316.936 27.84L314.368 28.872C314.128 27.528 313.336 25.392 312.52 23.76L314.92 22.872C315.784 24.408 316.648 26.496 316.936 27.84ZM310.144 21.72L312.784 22.584C312.16 24.12 311.416 25.704 310.552 27.216V44.016H307.84V31.344C307.192 32.184 306.52 32.928 305.848 33.6C305.584 32.928 304.84 31.368 304.36 30.696C306.64 28.536 308.848 25.128 310.144 21.72ZM327.256 35.088V37.728H320.848V44.088H317.968V37.728H311.656V35.088H317.968V31.848H312.616V29.208H317.968V21.984H320.848V29.208H326.296V31.848H320.848V35.088H327.256ZM332.656 27.36V28.464H336.496V27.36H332.656ZM336.496 24.504H332.656V25.632H336.496V24.504ZM337.6 34.32L338.968 33.96C339.352 34.824 339.784 35.928 339.976 36.6L339.016 36.936H339.376V39.24C339.376 41.136 338.896 42.912 335.872 43.968C335.656 43.512 335.056 42.744 334.648 42.384C335.896 42.024 336.592 41.544 336.976 40.968H334.264V37.344H335.992V39.384H337.432V39.192V36.936H338.488C338.44 36.768 338.392 36.552 338.344 36.336C335.056 36.744 334.48 36.864 334.096 37.032V37.008C334.024 36.672 333.784 35.856 333.616 35.424C333.952 35.376 334.384 35.136 334.864 34.776C335.056 34.632 335.44 34.32 335.896 33.888C334.768 33.984 334.408 34.08 334.192 34.176V34.152C334.096 33.792 333.832 32.976 333.616 32.52C333.88 32.472 334.168 32.352 334.408 32.088C334.648 31.896 335.344 31.224 335.824 30.384H332.656V44.088H329.92V22.584H339.184V30.384H336.76L337.648 30.864C337.168 31.488 336.592 32.112 335.992 32.616L337.24 32.568C337.552 32.208 337.84 31.848 338.128 31.488L339.52 32.448C338.584 33.432 337.504 34.44 336.4 35.232L337.888 35.088C337.816 34.824 337.696 34.56 337.6 34.32ZM345.736 37.344V41.208C346.312 41.232 346.816 41.232 347.032 41.208C347.344 41.208 347.44 41.088 347.44 40.776V30.384H343.072L344.032 30.888C343.552 31.512 343 32.136 342.424 32.64L343.6 32.592C343.96 32.208 344.272 31.824 344.56 31.44L345.952 32.424C344.992 33.432 343.936 34.44 342.856 35.28L344.296 35.136C344.2 34.872 344.104 34.608 343.984 34.368L345.328 33.936C345.76 34.8 346.24 35.928 346.456 36.576L345.04 37.128C344.968 36.912 344.872 36.624 344.776 36.336C342.304 36.648 341.368 36.816 340.888 36.936H342.472V39.384H343.912V37.344H345.736ZM347.44 24.504H343.48V25.632H347.44V24.504ZM343.48 27.36V28.464H347.44V27.36H343.48ZM350.2 22.584V40.8C350.2 42.168 350.008 42.96 349.192 43.44C348.4 43.92 347.272 43.968 345.664 43.968C345.592 43.344 345.352 42.384 345.064 41.64H343.912V40.968H342.472V43.776H340.504V36.936H340.528C340.408 36.552 340.192 35.856 340.024 35.448C340.408 35.424 340.816 35.184 341.296 34.8C341.488 34.656 341.848 34.344 342.304 33.912C341.176 34.008 340.816 34.104 340.6 34.2C340.504 33.816 340.24 33 340.024 32.568C340.288 32.496 340.576 32.376 340.816 32.136C341.032 31.92 341.728 31.248 342.232 30.384H340.768V22.584H350.2ZM357.472 21.768L360.112 22.584C359.584 24.024 358.984 25.536 358.264 26.952V44.064H355.48V31.68C354.928 32.448 354.376 33.144 353.824 33.768C353.584 33.072 352.816 31.488 352.336 30.792C354.376 28.584 356.344 25.176 357.472 21.768ZM372.28 35.856L368.344 36.168V41.256C368.344 42.48 368.104 43.176 367.216 43.584C366.376 43.944 365.224 43.968 363.688 43.968C363.568 43.2 363.208 42.192 362.872 41.496C363.712 41.52 364.792 41.52 365.056 41.52C365.368 41.52 365.488 41.448 365.488 41.184V36.408C363.688 36.552 362.536 36.672 361.816 36.768L364.288 37.512C363.376 39.336 362.032 41.4 360.808 42.768C360.208 42.312 359.272 41.688 358.648 41.352C359.8 40.152 361 38.232 361.648 36.792C360.952 36.888 360.616 36.936 360.328 37.056C360.208 36.624 359.848 35.448 359.56 34.824C360.376 34.68 361.192 34.224 362.44 33.456C362.992 33.144 364.024 32.472 365.248 31.56C361.84 31.752 361.12 31.872 360.616 32.064C360.52 31.584 360.136 30.432 359.872 29.784C360.4 29.712 360.928 29.4 361.6 28.944C362.224 28.56 363.952 27.288 365.416 25.8C363.88 26.16 362.32 26.472 360.856 26.76C360.736 26.136 360.352 25.128 360.016 24.552C363.856 23.76 368.056 22.584 370.672 21.36L372.592 23.592C370.936 24.288 368.968 24.888 366.928 25.44L368.416 26.184C367.192 27.36 365.872 28.44 364.504 29.4L368.128 29.28C369.16 28.416 370.168 27.48 371.104 26.52L373 28.08C370.6 30.36 367.912 32.4 365.248 34.08L370.72 33.72C370.24 33.144 369.736 32.568 369.304 32.064L371.416 30.768C372.736 32.16 374.392 34.056 375.136 35.328L372.856 36.816C372.712 36.528 372.52 36.216 372.28 35.856ZM369.496 37.608L371.8 36.504C372.976 37.896 374.368 39.792 374.968 41.064L372.496 42.336C371.944 41.04 370.648 39.048 369.496 37.608Z" fill="#19486A"/>
<rect x="1" y="64" width="18" height="18" fill="#19486A" stroke="black"/>
<rect x="19" y="64" width="18" height="18" fill="#19486A" stroke="black"/>
<rect x="37" y="64" width="18" height="18" fill="#19486A" stroke="black"/>
<rect x="55" y="64" width="18" height="18" fill="#19486A" stroke="black"/>
<rect x="73" y="64" width="18" height="18" fill="#19486A" stroke="black"/>
<rect x="91" y="64" width="18" height="18" fill="#19486A" stroke="black"/>
<rect x="109" y="64" width="18" height="18" fill="#19486A" stroke="black"/>
<rect x="127" y="64" width="18" height="18" fill="#19486A" stroke="black"/>
<rect x="145" y="64" width="18" height="18" fill="#19486A" stroke="black"/>
<rect x="163" y="64" width="18" height="18" fill="#19486A" stroke="black"/>
<rect x="181" y="64" width="18" height="18" fill="#19486A" stroke="black"/>
<rect x="199" y="64" width="18" height="18" fill="#19486A" stroke="black"/>
<rect x="217" y="64" width="18" height="18" fill="#19486A" stroke="black"/>
<rect x="235" y="64" width="18" height="18" fill="#19486A" stroke="black"/>
<rect x="253" y="64" width="18" height="18" fill="#19486A" stroke="black"/>
<rect x="271" y="64" width="18" height="18" fill="#19486A" stroke="black"/>
<rect x="289" y="64" width="18" height="18" fill="#19486A" fill-opacity="0.3" stroke="black"/>
<rect x="307" y="64" width="18" height="18" fill="#19486A" fill-opacity="0.3" stroke="black"/>
<rect x="325" y="64" width="18" height="18" fill="#19486A" fill-opacity="0.3" stroke="black"/>
<rect x="343" y="64" width="18" height="18" fill="#19486A" fill-opacity="0.3" stroke="black"/>
<path d="M4.54 95.168C3.94 95.168 3.412 94.996 2.956 94.652C2.508 94.3 2.156 93.78 1.9 93.092C1.652 92.396 1.528 91.536 1.528 90.512C1.528 89.496 1.652 88.652 1.9 87.98C2.156 87.3 2.508 86.792 2.956 86.456C3.412 86.12 3.94 85.952 4.54 85.952C5.148 85.952 5.676 86.124 6.124 86.468C6.572 86.804 6.92 87.308 7.168 87.98C7.424 88.652 7.552 89.496 7.552 90.512C7.552 91.536 7.424 92.396 7.168 93.092C6.92 93.78 6.572 94.3 6.124 94.652C5.676 94.996 5.148 95.168 4.54 95.168ZM4.54 93.788C4.804 93.788 5.036 93.688 5.236 93.488C5.436 93.288 5.592 92.952 5.704 92.48C5.816 92 5.872 91.344 5.872 90.512C5.872 89.688 5.816 89.044 5.704 88.58C5.592 88.108 5.436 87.78 5.236 87.596C5.036 87.404 4.804 87.308 4.54 87.308C4.292 87.308 4.064 87.404 3.856 87.596C3.656 87.78 3.496 88.108 3.376 88.58C3.256 89.044 3.196 89.688 3.196 90.512C3.196 91.344 3.256 92 3.376 92.48C3.496 92.952 3.656 93.288 3.856 93.488C4.064 93.688 4.292 93.788 4.54 93.788Z" fill="#19486A"/>
<path d="M82.984 95V93.56H84.904V87.956H83.284V86.852C83.732 86.772 84.116 86.676 84.436 86.564C84.764 86.444 85.068 86.292 85.348 86.108H86.656V93.56H88.324V95H82.984ZM92.6181 95.168C92.0181 95.168 91.4901 94.996 91.0341 94.652C90.5861 94.3 90.2341 93.78 89.9781 93.092C89.7301 92.396 89.6061 91.536 89.6061 90.512C89.6061 89.496 89.7301 88.652 89.9781 87.98C90.2341 87.3 90.5861 86.792 91.0341 86.456C91.4901 86.12 92.0181 85.952 92.6181 85.952C93.2261 85.952 93.7541 86.124 94.2021 86.468C94.6501 86.804 94.9981 87.308 95.2461 87.98C95.5021 88.652 95.6301 89.496 95.6301 90.512C95.6301 91.536 95.5021 92.396 95.2461 93.092C94.9981 93.78 94.6501 94.3 94.2021 94.652C93.7541 94.996 93.2261 95.168 92.6181 95.168ZM92.6181 93.788C92.8821 93.788 93.1141 93.688 93.3141 93.488C93.5141 93.288 93.6701 92.952 93.7821 92.48C93.8941 92 93.9501 91.344 93.9501 90.512C93.9501 89.688 93.8941 89.044 93.7821 88.58C93.6701 88.108 93.5141 87.78 93.3141 87.596C93.1141 87.404 92.8821 87.308 92.6181 87.308C92.3701 87.308 92.1421 87.404 91.9341 87.596C91.7341 87.78 91.5741 88.108 91.4541 88.58C91.3341 89.044 91.2741 89.688 91.2741 90.512C91.2741 91.344 91.3341 92 91.4541 92.48C91.5741 92.952 91.7341 93.288 91.9341 93.488C92.1421 93.688 92.3701 93.788 92.6181 93.788Z" fill="#19486A"/>
<path d="M170.516 95V93.98C171.324 93.26 172.012 92.592 172.58 91.976C173.156 91.36 173.596 90.788 173.9 90.26C174.204 89.724 174.356 89.228 174.356 88.772C174.356 88.484 174.304 88.232 174.2 88.016C174.096 87.8 173.944 87.636 173.744 87.524C173.552 87.404 173.312 87.344 173.024 87.344C172.704 87.344 172.408 87.436 172.136 87.62C171.872 87.796 171.628 88.008 171.404 88.256L170.42 87.308C170.836 86.86 171.26 86.524 171.692 86.3C172.132 86.068 172.652 85.952 173.252 85.952C173.812 85.952 174.3 86.068 174.716 86.3C175.14 86.524 175.468 86.84 175.7 87.248C175.932 87.656 176.048 88.136 176.048 88.688C176.048 89.224 175.912 89.772 175.64 90.332C175.376 90.884 175.02 91.436 174.572 91.988C174.124 92.54 173.628 93.084 173.084 93.62C173.316 93.588 173.564 93.564 173.828 93.548C174.1 93.524 174.34 93.512 174.548 93.512H176.468V95H170.516ZM180.618 95.168C180.018 95.168 179.49 94.996 179.034 94.652C178.586 94.3 178.234 93.78 177.978 93.092C177.73 92.396 177.606 91.536 177.606 90.512C177.606 89.496 177.73 88.652 177.978 87.98C178.234 87.3 178.586 86.792 179.034 86.456C179.49 86.12 180.018 85.952 180.618 85.952C181.226 85.952 181.754 86.124 182.202 86.468C182.65 86.804 182.998 87.308 183.246 87.98C183.502 88.652 183.63 89.496 183.63 90.512C183.63 91.536 183.502 92.396 183.246 93.092C182.998 93.78 182.65 94.3 182.202 94.652C181.754 94.996 181.226 95.168 180.618 95.168ZM180.618 93.788C180.882 93.788 181.114 93.688 181.314 93.488C181.514 93.288 181.67 92.952 181.782 92.48C181.894 92 181.95 91.344 181.95 90.512C181.95 89.688 181.894 89.044 181.782 88.58C181.67 88.108 181.514 87.78 181.314 87.596C181.114 87.404 180.882 87.308 180.618 87.308C180.37 87.308 180.142 87.404 179.934 87.596C179.734 87.78 179.574 88.108 179.454 88.58C179.334 89.044 179.274 89.688 179.274 90.512C179.274 91.344 179.334 92 179.454 92.48C179.574 92.952 179.734 93.288 179.934 93.488C180.142 93.688 180.37 93.788 180.618 93.788Z" fill="#19486A"/>
<path d="M261.276 95.168C260.812 95.168 260.396 95.112 260.028 95C259.66 94.896 259.332 94.752 259.044 94.568C258.764 94.376 258.52 94.164 258.312 93.932L259.14 92.816C259.412 93.064 259.708 93.28 260.028 93.464C260.356 93.64 260.72 93.728 261.12 93.728C261.424 93.728 261.688 93.68 261.912 93.584C262.144 93.488 262.32 93.348 262.44 93.164C262.568 92.98 262.632 92.756 262.632 92.492C262.632 92.196 262.56 91.944 262.416 91.736C262.28 91.52 262.036 91.356 261.684 91.244C261.332 91.132 260.836 91.076 260.196 91.076V89.804C260.74 89.804 261.168 89.748 261.48 89.636C261.792 89.516 262.012 89.356 262.14 89.156C262.276 88.948 262.344 88.712 262.344 88.448C262.344 88.104 262.24 87.836 262.032 87.644C261.824 87.444 261.532 87.344 261.156 87.344C260.844 87.344 260.552 87.416 260.28 87.56C260.016 87.696 259.752 87.884 259.488 88.124L258.576 87.032C258.968 86.704 259.38 86.444 259.812 86.252C260.244 86.052 260.72 85.952 261.24 85.952C261.808 85.952 262.308 86.044 262.74 86.228C263.18 86.412 263.52 86.68 263.76 87.032C264 87.384 264.12 87.812 264.12 88.316C264.12 88.796 263.992 89.208 263.736 89.552C263.48 89.896 263.116 90.16 262.644 90.344V90.404C262.972 90.492 263.268 90.636 263.532 90.836C263.804 91.028 264.016 91.272 264.168 91.568C264.328 91.864 264.408 92.208 264.408 92.6C264.408 93.136 264.264 93.596 263.976 93.98C263.696 94.364 263.316 94.66 262.836 94.868C262.364 95.068 261.844 95.168 261.276 95.168ZM268.618 95.168C268.018 95.168 267.49 94.996 267.034 94.652C266.586 94.3 266.234 93.78 265.978 93.092C265.73 92.396 265.606 91.536 265.606 90.512C265.606 89.496 265.73 88.652 265.978 87.98C266.234 87.3 266.586 86.792 267.034 86.456C267.49 86.12 268.018 85.952 268.618 85.952C269.226 85.952 269.754 86.124 270.202 86.468C270.65 86.804 270.998 87.308 271.246 87.98C271.502 88.652 271.63 89.496 271.63 90.512C271.63 91.536 271.502 92.396 271.246 93.092C270.998 93.78 270.65 94.3 270.202 94.652C269.754 94.996 269.226 95.168 268.618 95.168ZM268.618 93.788C268.882 93.788 269.114 93.688 269.314 93.488C269.514 93.288 269.67 92.952 269.782 92.48C269.894 92 269.95 91.344 269.95 90.512C269.95 89.688 269.894 89.044 269.782 88.58C269.67 88.108 269.514 87.78 269.314 87.596C269.114 87.404 268.882 87.308 268.618 87.308C268.37 87.308 268.142 87.404 267.934 87.596C267.734 87.78 267.574 88.108 267.454 88.58C267.334 89.044 267.274 89.688 267.274 90.512C267.274 91.344 267.334 92 267.454 92.48C267.574 92.952 267.734 93.288 267.934 93.488C268.142 93.688 268.37 93.788 268.618 93.788Z" fill="#19486A"/>
<path d="M350.044 95V89.54C350.044 89.284 350.052 88.98 350.068 88.628C350.084 88.268 350.1 87.956 350.116 87.692H350.056C349.952 87.932 349.84 88.172 349.72 88.412C349.6 88.652 349.476 88.896 349.348 89.144L347.968 91.352H352.744V92.696H346.252V91.496L349.564 86.108H351.688V95H350.044ZM356.618 95.168C356.018 95.168 355.49 94.996 355.034 94.652C354.586 94.3 354.234 93.78 353.978 93.092C353.73 92.396 353.606 91.536 353.606 90.512C353.606 89.496 353.73 88.652 353.978 87.98C354.234 87.3 354.586 86.792 355.034 86.456C355.49 86.12 356.018 85.952 356.618 85.952C357.226 85.952 357.754 86.124 358.202 86.468C358.65 86.804 358.998 87.308 359.246 87.98C359.502 88.652 359.63 89.496 359.63 90.512C359.63 91.536 359.502 92.396 359.246 93.092C358.998 93.78 358.65 94.3 358.202 94.652C357.754 94.996 357.226 95.168 356.618 95.168ZM356.618 93.788C356.882 93.788 357.114 93.688 357.314 93.488C357.514 93.288 357.67 92.952 357.782 92.48C357.894 92 357.95 91.344 357.95 90.512C357.95 89.688 357.894 89.044 357.782 88.58C357.67 88.108 357.514 87.78 357.314 87.596C357.114 87.404 356.882 87.308 356.618 87.308C356.37 87.308 356.142 87.404 355.934 87.596C355.734 87.78 355.574 88.108 355.454 88.58C355.334 89.044 355.274 89.688 355.274 90.512C355.274 91.344 355.334 92 355.454 92.48C355.574 92.952 355.734 93.288 355.934 93.488C356.142 93.688 356.37 93.788 356.618 93.788Z" fill="#19486A"/>
</svg>
