<svg xmlns="http://www.w3.org/2000/svg" width="362" height="98" fill="none"><path fill="#DD1367" d="M39.148 34.077H27.272c-.072 0-.127.064-.127.143v3.568c0 .08.06.143.127.143h11.876c.071 0 .13-.064.13-.143V34.22c0-.08-.059-.143-.13-.143M39.148 26.481H27.272c-.072 0-.127.064-.127.144v3.567c0 .08.06.143.127.143h11.876c.071 0 .13-.064.13-.143v-3.567c0-.08-.059-.144-.13-.144M38.98 21.09l-5.7-5.7a.096.096 0 0 0-.139 0l-5.699 5.7c-.064.063-.02.166.072.166h11.402c.088 0 .131-.107.072-.167zM44.33 37.98l5.698-5.7c.04-.04.04-.1 0-.139l-5.699-5.699c-.063-.064-.167-.02-.167.072v11.402c0 .087.108.13.167.071zM27.439 43.328l5.699 5.699c.04.04.1.04.14 0l5.698-5.699a.097.097 0 0 0-.071-.167H27.502c-.087 0-.13.108-.071.167zM22.09 26.438l-5.7 5.699c-.04.04-.04.1 0 .139l5.7 5.699c.063.063.166.02.166-.072V26.501c0-.087-.107-.13-.167-.071zM88.488 42.336c-2.376 0-4.752-.936-6.48-2.592l2.04-2.448c1.272 1.176 2.952 1.968 4.512 1.968 1.848 0 2.832-.792 2.832-2.04 0-1.32-1.08-1.728-2.664-2.4l-2.376-1.008c-1.8-.744-3.6-2.184-3.6-4.776 0-2.904 2.544-5.136 6.144-5.136 2.064 0 4.128.816 5.568 2.28l-1.8 2.232c-1.128-.936-2.304-1.464-3.768-1.464-1.56 0-2.544.696-2.544 1.872 0 1.272 1.248 1.728 2.76 2.328l2.328.984c2.16.888 3.576 2.256 3.576 4.824 0 2.904-2.424 5.376-6.528 5.376M98.161 42V24.216h4.872c5.424 0 8.784 2.832 8.784 8.832 0 5.976-3.36 8.952-8.592 8.952zm3.552-2.856h1.104c3.312 0 5.376-1.776 5.376-6.096 0-4.344-2.064-5.976-5.376-5.976h-1.104zm21.212 3.192c-4.824 0-8.52-3.216-8.52-9.144 0-5.856 3.792-9.288 8.52-9.288 2.568 0 4.344 1.104 5.496 2.28l-1.872 2.256c-.888-.84-1.896-1.488-3.504-1.488-2.952 0-5.016 2.304-5.016 6.12 0 3.864 1.776 6.192 5.28 6.192.84 0 1.704-.24 2.208-.672v-3.504h-3.144v-2.904h6.312V40.2c-1.2 1.176-3.288 2.136-5.76 2.136m13.124 0c-1.8 0-3.768-.792-5.112-1.896l1.608-2.208c1.2.936 2.352 1.464 3.6 1.464 1.344 0 1.944-.576 1.944-1.416 0-1.008-1.392-1.464-2.808-2.016-1.704-.648-3.6-1.68-3.6-3.936 0-2.4 1.944-4.104 5.016-4.104 1.944 0 3.456.816 4.56 1.656l-1.584 2.136c-.96-.696-1.896-1.152-2.88-1.152-1.224 0-1.8.528-1.8 1.296 0 .984 1.248 1.344 2.664 1.872 1.776.672 3.744 1.56 3.744 4.056 0 2.352-1.848 4.248-5.352 4.248M149.601 42v-2.856h3.816V28.368h-3.216v-2.184c1.776-.336 3-.792 4.128-1.488h2.616v14.448h3.336V42zm19.245.336c-3.648 0-6.024-3.192-6.024-9.072 0-5.856 2.376-8.904 6.024-8.904s6 3.072 6 8.904c0 5.88-2.352 9.072-6 9.072m0-2.76c1.536 0 2.664-1.488 2.664-6.312 0-4.8-1.128-6.144-2.664-6.144s-2.688 1.344-2.688 6.144c0 4.824 1.152 6.312 2.688 6.312M204.136 22.224l2.784.984c-.768 1.68-1.68 3.384-2.4 4.512l-2.472-.912c.696-1.224 1.608-3.144 2.088-4.584m-7.128 4.488-2.592 1.176c-.288-1.176-1.224-3.048-2.16-4.44l2.4-1.056c.96 1.32 1.992 3.072 2.352 4.32m-4.944-2.136-1.728 2.28c-.936-.768-2.928-1.992-4.296-2.808l1.68-2.016c1.32.72 3.336 1.848 4.344 2.544m-1.368 6.288-1.584 2.376c-.984-.696-3.048-1.824-4.488-2.592l1.56-2.112c1.32.648 3.456 1.68 4.512 2.328M190 34.32l2.112 1.92c-1.272 2.496-2.784 5.232-4.224 7.56l-2.424-1.92c1.296-1.8 3.12-4.776 4.536-7.56m16.032-5.952v12.624c0 1.392-.24 2.112-1.152 2.568-.888.432-2.184.48-3.984.48-.096-.768-.48-1.944-.864-2.688 1.104.072 2.352.072 2.736.048.36-.024.48-.12.48-.432V37.68c-2.4.648-4.896 1.272-6.888 1.776l-.84-2.352c1.992-.384 4.896-1.032 7.728-1.704v-4.44h-7.728v4.8c0 2.688-.192 6.288-1.512 8.496-.48-.456-1.656-1.272-2.28-1.56 1.104-1.944 1.176-4.68 1.176-6.936v-7.392h5.184v-6.696h2.88v6.696zm-10.176 5.16 1.152-1.728c1.8.408 4.152 1.224 5.376 1.92l-1.224 1.944c-1.176-.72-3.504-1.656-5.304-2.136m16.152-.36h4.656s0 .744-.048 1.104c-.288 5.592-.576 7.896-1.272 8.688-.504.648-1.056.864-1.824.96-.624.096-1.776.096-2.928.048-.048-.792-.36-1.872-.792-2.592 1.032.096 1.992.12 2.448.12.36 0 .6-.048.816-.288.384-.432.624-1.944.816-5.592h-4.488c.216-2.112.336-5.4.312-8.016h4.176v-2.856h-4.464V22.2h7.176v7.944h-4.488c-.024 1.032-.048 2.064-.096 3.024m9.696 4.032h4.848v-2.304h-4.848zm4.848-11.808h-4.848v2.184h4.848zm-4.848 4.632v2.424h4.848v-2.424zm9.48 7.176v2.736h-1.872v4.2h-2.76v-4.2h-9.384V37.2h1.8V25.392h-1.488v-2.736h13.368v2.736h-1.536V37.2zm14.376-6.288 1.776-1.488c2.568 1.848 6.264 4.608 7.992 6.504l-2.424 2.184c-1.488-1.776-4.752-4.512-7.344-6.504V44.04h-3.12V32.328c-2.184 2.328-4.752 4.416-7.632 5.904-.456-.768-1.344-1.944-1.968-2.592 4.368-2.04 8.112-5.76 10.344-9.432h-9.576V23.28h20.808v2.928h-7.464a24 24 0 0 1-1.392 2.208zm33.36 2.352v2.88h-9.432v7.944h-2.976v-7.944h-9.336v-2.88h9.336v-7.272h-8.088V23.16h19.104v2.832h-8.04v7.272zm-19.032-5.736 2.616-.768c.792 1.536 1.656 3.552 1.92 4.896l-2.784.864c-.24-1.296-.984-3.384-1.752-4.992m14.016 4.944-2.496-.72c.768-1.392 1.632-3.504 2.088-5.064l3.048.768c-.864 1.848-1.824 3.792-2.64 5.016m24.264 2.568v1.176h4.536v2.328h-4.536v2.952c0 1.368-.312 1.944-1.344 2.256-1.008.312-2.472.312-4.464.312-.096-.72-.384-1.608-.696-2.304 1.176.072 2.688.072 3.048.048.36 0 .504-.096.504-.432v-2.832h-7.464c1.128.936 2.448 2.112 3.168 2.904l-2.112 1.656c-.768-.936-2.4-2.472-3.648-3.576l1.392-.984h-5.232v-2.328h13.896V35.04zm-4.704-6.432h4.68c-.504-.672-1.32-1.536-1.944-2.184l.984-.816h-1.824c-.576 1.08-1.224 2.016-1.896 2.76zm3.048-5.424h6.576v2.424h-4.344c.624.576 1.224 1.224 1.56 1.68l-1.512 1.32h3.192v2.424h-8.52v1.392h7.032v2.16h-17.112v-2.16h7.104v-1.392h-8.424v-2.424h5.952c-.528-.648-1.464-1.584-2.256-2.256l.84-.744h-1.704c-.72 1.008-1.488 1.896-2.256 2.592-.408-.504-1.344-1.488-1.896-1.944 1.44-1.176 2.832-3 3.6-4.8l2.52.744c-.144.336-.312.648-.456.984h5.304v2.424h-3.336c.6.504 1.176 1.056 1.512 1.488l-1.656 1.512h2.256v-1.176h1.752a12 12 0 0 0-.96-.672c1.296-1.272 2.4-3.288 3-5.304l2.592.624c-.12.36-.216.744-.36 1.104"/><path fill="#DD1367" stroke="#000" d="M1 64h18v18H1zM19 64h18v18H19zM37 64h18v18H37zM55 64h18v18H55zM73 64h18v18H73zM91 64h18v18H91z"/><path fill="#DD1367" fill-opacity=".3" stroke="#000" d="M109 64h18v18h-18zM127 64h18v18h-18zM145 64h18v18h-18zM163 64h18v18h-18zM181 64h18v18h-18zM199 64h18v18h-18zM217 64h18v18h-18zM235 64h18v18h-18zM253 64h18v18h-18zM271 64h18v18h-18zM289 64h18v18h-18zM307 64h18v18h-18zM325 64h18v18h-18zM343 64h18v18h-18z"/><path fill="#DD1367" d="M4.54 95.168q-.9 0-1.584-.516-.672-.528-1.056-1.56-.372-1.044-.372-2.58 0-1.524.372-2.532.384-1.02 1.056-1.524a2.6 2.6 0 0 1 1.584-.504q.912 0 1.584.516.672.504 1.044 1.512.384 1.008.384 2.532 0 1.536-.384 2.58-.372 1.032-1.044 1.56-.672.516-1.584.516m0-1.38q.396 0 .696-.3t.468-1.008q.168-.72.168-1.968 0-1.236-.168-1.932-.168-.708-.468-.984a.97.97 0 0 0-.696-.288q-.372 0-.684.288-.3.276-.48.984-.18.696-.18 1.932 0 1.248.18 1.968.18.708.48 1.008.312.3.684.3M82.984 95v-1.44h1.92v-5.604h-1.62v-1.104a7.5 7.5 0 0 0 1.152-.288q.492-.18.912-.456h1.308v7.452h1.668V95zm9.634.168q-.9 0-1.584-.516-.672-.528-1.056-1.56-.372-1.044-.372-2.58 0-1.524.372-2.532.384-1.02 1.056-1.524a2.6 2.6 0 0 1 1.584-.504q.912 0 1.584.516.672.504 1.044 1.512.384 1.008.384 2.532 0 1.536-.384 2.58-.372 1.032-1.044 1.56-.672.516-1.584.516m0-1.38q.396 0 .696-.3t.468-1.008q.168-.72.168-1.968 0-1.236-.168-1.932-.168-.708-.468-.984a.97.97 0 0 0-.696-.288q-.372 0-.684.288-.3.276-.48.984-.18.696-.18 1.932 0 1.248.18 1.968.18.708.48 1.008.312.3.684.3M170.516 95v-1.02a30 30 0 0 0 2.064-2.004q.864-.924 1.32-1.716.456-.804.456-1.488 0-.432-.156-.756a1.1 1.1 0 0 0-.456-.492q-.288-.18-.72-.18-.48 0-.888.276a4 4 0 0 0-.732.636l-.984-.948q.624-.672 1.272-1.008.66-.348 1.56-.348.84 0 1.464.348.636.336.984.948t.348 1.44q0 .804-.408 1.644a8.4 8.4 0 0 1-1.068 1.656 20 20 0 0 1-1.488 1.632q.348-.048.744-.072.408-.036.72-.036h1.92V95zm10.102.168q-.9 0-1.584-.516-.672-.528-1.056-1.56-.372-1.044-.372-2.58 0-1.524.372-2.532.384-1.02 1.056-1.524a2.6 2.6 0 0 1 1.584-.504q.912 0 1.584.516.672.504 1.044 1.512.384 1.008.384 2.532 0 1.536-.384 2.58-.372 1.032-1.044 1.56-.672.516-1.584.516m0-1.38q.396 0 .696-.3t.468-1.008q.168-.72.168-1.968 0-1.236-.168-1.932-.168-.708-.468-.984a.97.97 0 0 0-.696-.288q-.372 0-.684.288-.3.276-.48.984-.18.696-.18 1.932 0 1.248.18 1.968.18.708.48 1.008.312.3.684.3M261.276 95.168q-.696 0-1.248-.168a3.7 3.7 0 0 1-.984-.432 4 4 0 0 1-.732-.636l.828-1.116q.408.372.888.648.492.264 1.092.264a2 2 0 0 0 .792-.144 1.12 1.12 0 0 0 .72-1.092q0-.444-.216-.756-.204-.324-.732-.492t-1.488-.168v-1.272q.816 0 1.284-.168.468-.18.66-.48.204-.312.204-.708 0-.516-.312-.804-.312-.3-.876-.3-.468 0-.876.216a3.7 3.7 0 0 0-.792.564l-.912-1.092a5.3 5.3 0 0 1 1.236-.78q.648-.3 1.428-.3.852 0 1.5.276.66.276 1.02.804t.36 1.284q0 .72-.384 1.236t-1.092.792v.06q.492.132.888.432.408.288.636.732.24.444.24 1.032 0 .804-.432 1.38-.42.576-1.14.888-.708.3-1.56.3m7.342 0q-.9 0-1.584-.516-.672-.528-1.056-1.56-.372-1.044-.372-2.58 0-1.524.372-2.532.384-1.02 1.056-1.524a2.6 2.6 0 0 1 1.584-.504q.912 0 1.584.516.672.504 1.044 1.512.384 1.008.384 2.532 0 1.536-.384 2.58-.372 1.032-1.044 1.56-.672.516-1.584.516m0-1.38q.396 0 .696-.3t.468-1.008q.168-.72.168-1.968 0-1.236-.168-1.932-.168-.708-.468-.984a.97.97 0 0 0-.696-.288q-.372 0-.684.288-.3.276-.48.984-.18.696-.18 1.932 0 1.248.18 1.968.18.708.48 1.008.312.3.684.3M350.044 95v-5.46q0-.384.024-.912.024-.54.048-.936h-.06q-.156.36-.336.72t-.372.732l-1.38 2.208h4.776v1.344h-6.492v-1.2l3.312-5.388h2.124V95zm6.574.168q-.9 0-1.584-.516-.672-.528-1.056-1.56-.372-1.044-.372-2.58 0-1.524.372-2.532.384-1.02 1.056-1.524a2.6 2.6 0 0 1 1.584-.504q.912 0 1.584.516.672.504 1.044 1.512.384 1.008.384 2.532 0 1.536-.384 2.58-.372 1.032-1.044 1.56-.672.516-1.584.516m0-1.38q.396 0 .696-.3t.468-1.008q.168-.72.168-1.968 0-1.236-.168-1.932-.168-.708-.468-.984a.97.97 0 0 0-.696-.288q-.372 0-.684.288-.3.276-.48.984-.18.696-.18 1.932 0 1.248.18 1.968.18.708.48 1.008.312.3.684.3"/></svg>