<svg xmlns="http://www.w3.org/2000/svg" width="365" height="98" fill="none"><path fill="#19486A" d="M48.777 30.527c0-4.494-3.575-8.165-8.03-8.328-1.145-3.237-4.235-5.56-7.858-5.56-3.624 0-6.714 2.327-7.86 5.56-4.454.163-8.029 3.834-8.029 8.328a8.32 8.32 0 0 0 3.218 6.57 8.4 8.4 0 0 0-.33 2.314c0 4.594 3.738 8.336 8.336 8.336 1.745 0 3.364-.541 4.704-1.46a8.3 8.3 0 0 0 4.626 1.404c4.597 0 8.336-3.738 8.336-8.335 0-.788-.111-1.547-.314-2.267a8.33 8.33 0 0 0 3.205-6.562m-9.235-5.552c0 3.337-2.47 6.1-5.675 6.578a7 7 0 0 1-.088-1.022c0-3.337 2.47-6.1 5.676-6.578.052.334.087.676.087 1.022M32.92 44.124a6.63 6.63 0 0 1-2.024-4.768c0-1.87.752-3.508 1.96-4.717a6.63 6.63 0 0 1 2.025 4.768c0 1.87-.751 3.508-1.96 4.713m-6.603-20.17c3.206.476 5.676 3.24 5.676 6.577 0 .35-.036.688-.088 1.022-3.205-.477-5.675-3.241-5.675-6.578 0-.35.036-.688.087-1.022m4.964 9.556a6.65 6.65 0 0 1-5.946 3.678 6.6 6.6 0 0 1-3.058-.751 6.65 6.65 0 0 1 5.946-3.679c1.101 0 2.14.274 3.058.752m3.193-.048a6.6 6.6 0 0 1 3.079-.76c2.617 0 4.88 1.523 5.97 3.723a6.6 6.6 0 0 1-3.079.76c-2.617 0-4.88-1.524-5.97-3.723m-1.586-15.14a6.66 6.66 0 0 1 6.1 4.005 8.36 8.36 0 0 0-6.1 4.684 8.36 8.36 0 0 0-6.101-4.684c1.03-2.355 3.376-4.005 6.1-4.005m-14.21 12.209c0-3.432 2.608-6.26 5.941-6.618a8.3 8.3 0 0 0 2.653 7.222 8.35 8.35 0 0 0-6.391 4.331 6.64 6.64 0 0 1-2.208-4.935m2.892 8.884c0-.473.052-.934.147-1.38a8.3 8.3 0 0 0 3.623.831c1.46 0 2.832-.377 4.025-1.038a8.313 8.313 0 0 0 2.211 7.333 6.6 6.6 0 0 1-3.348.916 6.665 6.665 0 0 1-6.658-6.658m22.646-.06a6.665 6.665 0 0 1-6.658 6.658 6.6 6.6 0 0 1-3.281-.875 8.31 8.31 0 0 0 2.135-7.321 8.314 8.314 0 0 0 7.672.21q.134.645.136 1.333m-5.664-8.276a8.31 8.31 0 0 0 2.673-6.109q0-.542-.072-1.066c3.337.358 5.946 3.19 5.946 6.618a6.64 6.64 0 0 1-2.187 4.92 8.35 8.35 0 0 0-6.36-4.363M88.488 42.336a9.4 9.4 0 0 1-3.48-.672 9.1 9.1 0 0 1-3-1.92l2.04-2.448a7.8 7.8 0 0 0 2.136 1.44q1.224.528 2.376.528 1.392 0 2.112-.552t.72-1.488q0-.672-.36-1.056-.336-.408-.936-.72t-1.392-.624l-2.352-1.032a8.4 8.4 0 0 1-1.728-.96q-.816-.624-1.368-1.56-.528-.936-.528-2.232 0-1.464.792-2.616t2.184-1.824q1.392-.696 3.168-.696 1.584 0 3.048.6a7.5 7.5 0 0 1 2.544 1.704l-1.8 2.208a7 7 0 0 0-1.752-1.08q-.912-.384-2.04-.384-1.152 0-1.848.504-.672.48-.672 1.368 0 .624.384 1.032t1.008.72q.624.288 1.368.6l2.328.936a7.1 7.1 0 0 1 1.872 1.08q.816.648 1.248 1.56.456.912.456 2.208 0 1.44-.792 2.664-.768 1.224-2.232 1.968-1.44.744-3.504.744M98.161 42V24.216h4.872q2.736 0 4.68.96a6.72 6.72 0 0 1 3.024 2.904q1.08 1.944 1.08 4.944t-1.056 4.992-2.976 3q-1.92.984-4.56.984zm3.552-2.88h1.08q1.68 0 2.88-.6 1.224-.624 1.872-1.968.648-1.368.648-3.528t-.648-3.456q-.648-1.32-1.872-1.896-1.2-.6-2.88-.6h-1.08zm21.212 3.216q-2.4 0-4.344-1.056-1.92-1.056-3.048-3.096t-1.128-4.992q0-2.208.648-3.912.672-1.728 1.848-2.928a7.95 7.95 0 0 1 2.712-1.824 8.7 8.7 0 0 1 3.312-.624q1.92 0 3.264.72 1.368.696 2.232 1.56l-1.896 2.256a7 7 0 0 0-1.488-1.056q-.792-.432-1.992-.432-1.488 0-2.616.744-1.128.72-1.752 2.088t-.624 3.288q0 1.944.576 3.336.6 1.368 1.776 2.112t2.904.744q.648 0 1.248-.168.6-.192.96-.504v-3.504h-3.144v-2.904h6.336V40.2q-.912.888-2.424 1.512t-3.36.624M137.718 42v-2.88h3.84V28.392h-3.24v-2.208q1.344-.264 2.304-.624a10.6 10.6 0 0 0 1.824-.864h2.616V39.12h3.336V42zm16.652 0q.12-2.232.408-4.104.312-1.896.84-3.576.552-1.68 1.392-3.312a26.5 26.5 0 0 1 2.088-3.36h-7.992v-2.952h11.808v2.16q-1.512 1.848-2.448 3.504a16 16 0 0 0-1.44 3.384 23 23 0 0 0-.744 3.744 63 63 0 0 0-.36 4.512zM180.632 31.152l1.92.816c-1.152 4.968-3.648 8.688-6.576 10.656-.48-.6-1.608-1.704-2.304-2.136 2.256-1.344 4.152-3.696 5.256-6.528h-4.656v-2.688h5.856zm12.312-2.76 2.616 1.944c-1.8 1.632-4.008 3.432-5.832 4.656 1.68 2.304 3.864 4.08 6.672 5.184-.672.552-1.56 1.728-1.992 2.496-3.48-1.56-5.952-4.128-7.752-7.416v5.496c0 1.56-.312 2.328-1.344 2.808-.984.456-2.448.48-4.464.48-.12-.816-.576-2.088-.96-2.856 1.2.072 2.688.072 3.12.048s.576-.144.576-.528V29.256h-6V26.52h8.904c-2.04-.912-4.824-1.848-7.032-2.424l1.416-2.328c2.784.6 6.792 1.872 8.832 2.928l-1.536 2.664c-.408-.24-.936-.504-1.512-.768v1.992a24.6 24.6 0 0 0 1.704 4.224c1.632-1.296 3.432-2.976 4.584-4.416m18.6-3.048v-.816h-5.712v-1.824h5.712v-1.032h2.784v1.032h5.424v1.824h-5.424v.816h4.68v1.704H206.72v-1.704zm-3.288 4.104v1.44h1.728v-1.44zm9.024 1.44v-1.44h-1.536v1.44zm-5.184 0h1.56v-1.44h-1.56zm-6.168 1.728V27.72h13.8v4.896zm.456 3.504-2.016.648c-.048-.336-.096-.72-.168-1.152-4.248.624-5.04.84-5.544 1.08-.144-.48-.528-1.68-.816-2.328.576-.12 1.056-.696 1.776-1.608.288-.36.816-1.104 1.464-2.112-1.752.216-2.256.336-2.616.504-.12-.48-.528-1.632-.792-2.232.432-.12.816-.6 1.272-1.344.456-.648 1.848-3.408 2.616-5.928l2.328.912c-.792 1.968-1.848 4.104-2.952 5.832l1.536-.12a34 34 0 0 0 1.56-3.24l2.16 1.32c-1.272 2.52-2.928 5.184-4.656 7.368l2.208-.264c-.168-.648-.336-1.296-.528-1.848l1.896-.504c.552 1.632 1.104 3.744 1.272 5.016m-7.68 1.32 2.16.336c-.192 2.256-.576 4.656-1.08 6.192-.48-.264-1.512-.576-2.088-.72.552-1.512.864-3.72 1.008-5.808m2.52.288 1.872-.336c.288 1.776.504 4.008.552 5.52l-2.016.36c0-1.512-.192-3.768-.408-5.544m2.232-.456 1.752-.504c.456 1.344.984 3.12 1.176 4.296l-1.824.624c-.192-1.2-.672-3.024-1.104-4.416m5.856 1.056v.768h6.96v-.768zm0-1.752v.72h6.96v-.72zm0-1.776v.72h6.96v-.72zm9.624 5.736h-3.12a77 77 0 0 1 4.32 1.584l-1.128 1.992c-1.272-.6-3.36-1.464-5.184-2.136l.792-1.44h-3.552l1.44 1.416a80 80 0 0 1-6.048 2.28 19 19 0 0 0-.984-1.968c1.32-.432 3.168-1.08 4.536-1.728h-3.216v-7.2h12.144zm19.824-2.856h-4.704c1.008.528 2.112 1.08 3.192 1.68a9 9 0 0 0 1.512-1.68m1.704-1.968 1.56.552c-.6 1.752-1.488 3.144-2.64 4.272 1.08.6 2.064 1.2 2.784 1.68l-1.44 1.896a51 51 0 0 0-3.264-2.088c-1.512.936-3.36 1.608-5.352 2.064-.24-.624-.744-1.536-1.2-2.064 1.56-.264 3.024-.72 4.272-1.344-1.176-.648-2.304-1.296-3.336-1.848l.96-1.152h-.576v-1.896h7.8zm1.248-11.52 2.064 1.464c-.912.816-1.944 1.584-2.832 2.208a17.3 17.3 0 0 0 3.432 1.344c-.6.552-1.32 1.56-1.704 2.256a16.4 16.4 0 0 1-2.736-1.152v2.064c0 .576.048.768.36.768h1.176c.336 0 .912-.024 1.224-.12.048.576.096 1.392.192 1.944-.336.12-.888.144-1.392.144h-1.488c-2.016 0-2.4-.816-2.4-2.76V30.96H235.4c-.072 1.68-.648 3.48-2.64 4.752-.264-.408-.96-1.104-1.44-1.536v.72h-4.752c-.096.552-.168 1.128-.24 1.656h4.992s-.024.672-.048 1.008c-.264 3.24-.552 4.776-1.176 5.4-.504.552-1.08.744-1.92.792-.648.072-1.896.072-3.168.024-.048-.744-.384-1.728-.816-2.376 1.2.096 2.376.12 2.904.12.384 0 .648-.024.864-.24.288-.264.504-1.032.672-2.664h-5.04c.336-1.56.72-3.936.936-5.832h4.248v-1.68h-3.48v-.384c-.72.36-1.44.672-2.184.936-.336-.624-1.032-1.584-1.536-2.088 1.416-.408 2.784-1.056 4.032-1.848a24 24 0 0 0-2.232-1.44l1.632-1.512c.816.408 1.824.984 2.52 1.512.504-.48.984-.984 1.392-1.536h-4.728v-2.232h6.264l.48-.12 1.752.864c-.96 2.352-2.568 4.224-4.512 5.688h3.144v4.776c1.488-.984 1.704-2.136 1.704-3.216V28.8h4.584c-2.088-1.656-3.696-3.792-4.848-6.36l2.28-.672a9.8 9.8 0 0 0 1.368 2.256c.792-.672 1.68-1.536 2.256-2.208l2.04 1.464c-.984.816-2.016 1.68-2.928 2.328.408.384.84.744 1.272 1.08.912-.72 2.016-1.728 2.664-2.496M264.536 37.2h-3.72c.36.6.816 1.128 1.32 1.608a26 26 0 0 0 2.4-1.608m-7.368-4.056V34.8h3.576v-1.656zm0-4.032v1.656h3.576v-1.656zm-6.12-4.008v1.584h12.696v-1.584zM265.352 37.2l1.728 1.176c-.96.672-2.064 1.32-3.072 1.848 1.176.672 2.568 1.176 4.176 1.464-.552.576-1.296 1.632-1.656 2.376-4.176-1.032-6.792-3.336-8.4-6.864h-2.448v3.744l4.032-.768c-.144.696-.24 1.776-.24 2.352-5.28 1.152-6.096 1.344-6.624 1.68v.024c-.144-.672-.672-1.776-1.032-2.304a2.56 2.56 0 0 0 1.224-2.232V37.2h-1.992v-2.4h3.504v-1.656h-3v-2.376h3v-1.656h-3.504v.696c0 4.176-.384 10.416-2.904 14.352-.576-.456-1.824-1.2-2.544-1.464 2.376-3.696 2.568-9.072 2.568-12.888v-7.104h18.456v6.408h-3.24v1.656h3.456v2.376h-3.456V34.8h4.488v2.4zm23.496-1.752h-3.192c-.216.216-.456.432-.672.648.744.552 1.584 1.248 2.208 1.872a10 10 0 0 0 1.656-2.52m-7.776-1.8v2.304c1.68-.984 2.928-2.16 3.792-3.36-.84.456-1.752.84-2.688 1.152-.288-.528-.84-1.272-1.32-1.8v.264h-3.816v1.44zm-7.992-5.16v1.44h1.512v-1.44zm0-3.576v1.464h1.512v-1.464zm3.72 1.464h1.656v-1.464H276.8zm0 3.552h1.656v-1.44H276.8zm4.056-2.16v3.96a12.9 12.9 0 0 0 4.344-2.256c-.504-.552-1.272-1.224-2.016-1.8-.456.384-.936.744-1.464 1.104-.192-.288-.528-.672-.864-1.008m7.44-2.232h-2.976l-.456.528c.696.48 1.488 1.104 2.088 1.656.528-.672.984-1.392 1.344-2.184m2.28 7.536 1.752.624c-1.536 5.976-5.448 8.952-10.776 10.44-.312-.696-.936-1.752-1.464-2.304 1.944-.432 3.696-1.152 5.16-2.16-.576-.672-1.416-1.44-2.208-2.064-.408.264-.816.528-1.272.792-.336-.6-1.152-1.512-1.704-1.896.216-.12.432-.216.648-.336h-3.672v.168c1.176.744 3.744 2.64 4.392 3.192l-1.656 2.328c-.6-.744-1.704-1.92-2.736-2.928v5.136h-2.664v-5.04c-1.08 1.704-2.376 3.336-3.696 4.368-.24-.816-.84-2.064-1.248-2.784 1.464-1.056 3-2.784 4.056-4.44h-3.336v-2.52h4.224v-1.44h-3.6v-9.576h10.08v3.744c1.968-1.368 3.312-3.096 4.032-4.68l2.616.432c-.192.408-.408.816-.648 1.2h2.592l.48-.072 1.776.672c-.912 3.384-2.664 5.784-4.944 7.488l1.632.288c-.264.504-.552.984-.864 1.464h2.544zm22.272-10.392 2.904 1.008c-.864 1.824-1.824 3.768-2.568 5.088l-2.328-.936c.696-1.392 1.56-3.552 1.992-5.16m-6.912 5.16-2.568 1.032c-.24-1.344-1.032-3.48-1.848-5.112l2.4-.888c.864 1.536 1.728 3.624 2.016 4.968m-6.792-6.12 2.64.864a39 39 0 0 1-2.232 4.632v16.8h-2.712V31.344c-.648.84-1.32 1.584-1.992 2.256-.264-.672-1.008-2.232-1.488-2.904 2.28-2.16 4.488-5.568 5.784-8.976m17.112 13.368v2.64h-6.408v6.36h-2.88v-6.36h-6.312v-2.64h6.312v-3.24h-5.352v-2.64h5.352v-7.224h2.88v7.224h5.448v2.64h-5.448v3.24zm5.4-7.728v1.104h3.84V27.36zm3.84-2.856h-3.84v1.128h3.84zm1.104 9.816 1.368-.36c.384.864.816 1.968 1.008 2.64l-.96.336h.36v2.304c0 1.896-.48 3.672-3.504 4.728-.216-.456-.816-1.224-1.224-1.584 1.248-.36 1.944-.84 2.328-1.416h-2.712v-3.624h1.728v2.04h1.44v-2.448h1.056c-.048-.168-.096-.384-.144-.6-3.288.408-3.864.528-4.248.696v-.024a14 14 0 0 0-.48-1.584c.336-.048.768-.288 1.248-.648.192-.144.576-.456 1.032-.888-1.128.096-1.488.192-1.704.288v-.024c-.096-.36-.36-1.176-.576-1.632a1.38 1.38 0 0 0 .792-.432c.24-.192.936-.864 1.416-1.704h-3.168v13.704h-2.736V22.584h9.264v7.8h-2.424l.888.48a11.5 11.5 0 0 1-1.656 1.752l1.248-.048c.312-.36.6-.72.888-1.08l1.392.96c-.936.984-2.016 1.992-3.12 2.784l1.488-.144c-.072-.264-.192-.528-.288-.768m8.136 3.024v3.864c.576.024 1.08.024 1.296 0 .312 0 .408-.12.408-.432V30.384h-4.368l.96.504c-.48.624-1.032 1.248-1.608 1.752l1.176-.048c.36-.384.672-.768.96-1.152l1.392.984c-.96 1.008-2.016 2.016-3.096 2.856l1.44-.144c-.096-.264-.192-.528-.312-.768l1.344-.432c.432.864.912 1.992 1.128 2.64l-1.416.552-.264-.792c-2.472.312-3.408.48-3.888.6h1.584v2.448h1.44v-2.04zm1.704-12.84h-3.96v1.128h3.96zm-3.96 2.856v1.104h3.96V27.36zm6.72-4.776V40.8c0 1.368-.192 2.16-1.008 2.64-.792.48-1.92.528-3.528.528-.072-.624-.312-1.584-.6-2.328h-1.152v-.672h-1.44v2.808h-1.968v-6.84h.024c-.12-.384-.336-1.08-.504-1.488.384-.024.792-.264 1.272-.648.192-.144.552-.456 1.008-.888-1.128.096-1.488.192-1.704.288-.096-.384-.36-1.2-.576-1.632.264-.072.552-.192.792-.432.216-.216.912-.888 1.416-1.752h-1.464v-7.8zm7.272-.816 2.64.816c-.528 1.44-1.128 2.952-1.848 4.368v17.112h-2.784V31.68a27 27 0 0 1-1.656 2.088c-.24-.696-1.008-2.28-1.488-2.976 2.04-2.208 4.008-5.616 5.136-9.024m14.808 14.088-3.936.312v5.088c0 1.224-.24 1.92-1.128 2.328-.84.36-1.992.384-3.528.384-.12-.768-.48-1.776-.816-2.472.84.024 1.92.024 2.184.024.312 0 .432-.072.432-.336v-4.776c-1.8.144-2.952.264-3.672.36l2.472.744c-.912 1.824-2.256 3.888-3.48 5.256-.6-.456-1.536-1.08-2.16-1.416 1.152-1.2 2.352-3.12 3-4.56-.696.096-1.032.144-1.32.264-.12-.432-.48-1.608-.768-2.232.816-.144 1.632-.6 2.88-1.368.552-.312 1.584-.984 2.808-1.896-3.408.192-4.128.312-4.632.504-.096-.48-.48-1.632-.744-2.28.528-.072 1.056-.384 1.728-.84.624-.384 2.352-1.656 3.816-3.144-1.536.36-3.096.672-4.56.96-.12-.624-.504-1.632-.84-2.208 3.84-.792 8.04-1.968 10.656-3.192l1.92 2.232c-1.656.696-3.624 1.296-5.664 1.848l1.488.744a33 33 0 0 1-3.912 3.216l3.624-.12c1.032-.864 2.04-1.8 2.976-2.76L362 28.08c-2.4 2.28-5.088 4.32-7.752 6l5.472-.36c-.48-.576-.984-1.152-1.416-1.656l2.112-1.296c1.32 1.392 2.976 3.288 3.72 4.56l-2.28 1.488a9 9 0 0 0-.576-.96m-2.784 1.752 2.304-1.104c1.176 1.392 2.568 3.288 3.168 4.56l-2.472 1.272c-.552-1.296-1.848-3.288-3-4.728"/><path fill="#19486A" stroke="#000" d="M1 64h18v18H1zM19 64h18v18H19zM37 64h18v18H37zM55 64h18v18H55zM73 64h18v18H73zM91 64h18v18H91zM109 64h18v18h-18zM127 64h18v18h-18zM145 64h18v18h-18zM163 64h18v18h-18zM181 64h18v18h-18zM199 64h18v18h-18zM217 64h18v18h-18zM235 64h18v18h-18zM253 64h18v18h-18zM271 64h18v18h-18z"/><path fill="#19486A" fill-opacity=".3" stroke="#000" d="M289 64h18v18h-18zM307 64h18v18h-18zM325 64h18v18h-18zM343 64h18v18h-18z"/><path fill="#19486A" d="M4.54 95.168q-.9 0-1.584-.516-.672-.528-1.056-1.56-.372-1.044-.372-2.58 0-1.524.372-2.532.384-1.02 1.056-1.524a2.6 2.6 0 0 1 1.584-.504q.912 0 1.584.516.672.504 1.044 1.512.384 1.008.384 2.532 0 1.536-.384 2.58-.372 1.032-1.044 1.56-.672.516-1.584.516m0-1.38q.396 0 .696-.3t.468-1.008q.168-.72.168-1.968 0-1.236-.168-1.932-.168-.708-.468-.984a.97.97 0 0 0-.696-.288q-.372 0-.684.288-.3.276-.48.984-.18.696-.18 1.932 0 1.248.18 1.968.18.708.48 1.008.312.3.684.3M82.984 95v-1.44h1.92v-5.604h-1.62v-1.104a7.5 7.5 0 0 0 1.152-.288q.492-.18.912-.456h1.308v7.452h1.668V95zm9.634.168q-.9 0-1.584-.516-.672-.528-1.056-1.56-.372-1.044-.372-2.58 0-1.524.372-2.532.384-1.02 1.056-1.524a2.6 2.6 0 0 1 1.584-.504q.912 0 1.584.516.672.504 1.044 1.512.384 1.008.384 2.532 0 1.536-.384 2.58-.372 1.032-1.044 1.56-.672.516-1.584.516m0-1.38q.396 0 .696-.3t.468-1.008q.168-.72.168-1.968 0-1.236-.168-1.932-.168-.708-.468-.984a.97.97 0 0 0-.696-.288q-.372 0-.684.288-.3.276-.48.984-.18.696-.18 1.932 0 1.248.18 1.968.18.708.48 1.008.312.3.684.3M170.516 95v-1.02a30 30 0 0 0 2.064-2.004q.864-.924 1.32-1.716.456-.804.456-1.488 0-.432-.156-.756a1.1 1.1 0 0 0-.456-.492q-.288-.18-.72-.18-.48 0-.888.276a4 4 0 0 0-.732.636l-.984-.948q.624-.672 1.272-1.008.66-.348 1.56-.348.84 0 1.464.348.636.336.984.948t.348 1.44q0 .804-.408 1.644a8.4 8.4 0 0 1-1.068 1.656 20 20 0 0 1-1.488 1.632q.348-.048.744-.072.408-.036.72-.036h1.92V95zm10.102.168q-.9 0-1.584-.516-.672-.528-1.056-1.56-.372-1.044-.372-2.58 0-1.524.372-2.532.384-1.02 1.056-1.524a2.6 2.6 0 0 1 1.584-.504q.912 0 1.584.516.672.504 1.044 1.512.384 1.008.384 2.532 0 1.536-.384 2.58-.372 1.032-1.044 1.56-.672.516-1.584.516m0-1.38q.396 0 .696-.3t.468-1.008q.168-.72.168-1.968 0-1.236-.168-1.932-.168-.708-.468-.984a.97.97 0 0 0-.696-.288q-.372 0-.684.288-.3.276-.48.984-.18.696-.18 1.932 0 1.248.18 1.968.18.708.48 1.008.312.3.684.3M261.276 95.168q-.696 0-1.248-.168a3.7 3.7 0 0 1-.984-.432 4 4 0 0 1-.732-.636l.828-1.116q.408.372.888.648.492.264 1.092.264a2 2 0 0 0 .792-.144 1.12 1.12 0 0 0 .72-1.092q0-.444-.216-.756-.204-.324-.732-.492t-1.488-.168v-1.272q.816 0 1.284-.168.468-.18.66-.48.204-.312.204-.708 0-.516-.312-.804-.312-.3-.876-.3-.468 0-.876.216a3.7 3.7 0 0 0-.792.564l-.912-1.092a5.3 5.3 0 0 1 1.236-.78q.648-.3 1.428-.3.852 0 1.5.276.66.276 1.02.804t.36 1.284q0 .72-.384 1.236t-1.092.792v.06q.492.132.888.432.408.288.636.732.24.444.24 1.032 0 .804-.432 1.38-.42.576-1.14.888-.708.3-1.56.3m7.342 0q-.9 0-1.584-.516-.672-.528-1.056-1.56-.372-1.044-.372-2.58 0-1.524.372-2.532.384-1.02 1.056-1.524a2.6 2.6 0 0 1 1.584-.504q.912 0 1.584.516.672.504 1.044 1.512.384 1.008.384 2.532 0 1.536-.384 2.58-.372 1.032-1.044 1.56-.672.516-1.584.516m0-1.38q.396 0 .696-.3t.468-1.008q.168-.72.168-1.968 0-1.236-.168-1.932-.168-.708-.468-.984a.97.97 0 0 0-.696-.288q-.372 0-.684.288-.3.276-.48.984-.18.696-.18 1.932 0 1.248.18 1.968.18.708.48 1.008.312.3.684.3M350.044 95v-5.46q0-.384.024-.912.024-.54.048-.936h-.06q-.156.36-.336.72t-.372.732l-1.38 2.208h4.776v1.344h-6.492v-1.2l3.312-5.388h2.124V95zm6.574.168q-.9 0-1.584-.516-.672-.528-1.056-1.56-.372-1.044-.372-2.58 0-1.524.372-2.532.384-1.02 1.056-1.524a2.6 2.6 0 0 1 1.584-.504q.912 0 1.584.516.672.504 1.044 1.512.384 1.008.384 2.532 0 1.536-.384 2.58-.372 1.032-1.044 1.56-.672.516-1.584.516m0-1.38q.396 0 .696-.3t.468-1.008q.168-.72.168-1.968 0-1.236-.168-1.932-.168-.708-.468-.984a.97.97 0 0 0-.696-.288q-.372 0-.684.288-.3.276-.48.984-.18.696-.18 1.932 0 1.248.18 1.968.18.708.48 1.008.312.3.684.3"/></svg>