<svg xmlns="http://www.w3.org/2000/svg" width="50" height="51" fill="none"><g fill="#fff" clip-path="url(#a)"><path d="M19.155 29.695a1.57 1.57 0 0 0-.333-1.567c-.272-.166-.755-.852-1.374-.31-.618.542-.813 1-1.2 1.167q-.458.196-.89.445a.968.968 0 0 0-.676 1.297 9.2 9.2 0 0 0 2.128 2.438c.522.348 1.452-.213 1.645-.91.16-.872.394-1.729.7-2.56M15.797 42.977a38 38 0 0 0-4.084 3.695q1.454.915 3.019 1.625a20.5 20.5 0 0 0 2.553-3.349c.717-1.508-.715-2.416-1.488-1.971M11.982 35.026c-.967-.833-.987-1.065-1.915-.521-.929.543-.89.31-1.122.521s-3.018 2.942-3.522 3.425L4.32 39.476a25 25 0 0 0 1.667 2.187 56 56 0 0 1 2.206-2.187 11 11 0 0 1 2.149-1.818c.518-.12.994-.381 1.373-.755.707-.58 1.23-1.025.267-1.877M6.56 29.871c-.522.407-4.025 3.639-4.76 4.277l-.193.155q.557 1.482 1.296 2.883c.349-.406.677-.793.929-1.045.561-.541 2.883-2.806 3.753-3.5.87-.693 1.065-1.166.697-1.876-.369-.71-1.199-1.3-1.722-.894M30.975 15.74c.097-.425-.445-1.122-.91-.833-.465.288-1.297 1.238-2.09 1.935s-1.607 1.355-1.607 1.355a15.4 15.4 0 0 0-1.431 1.955c-.272.425-.29.716.155.91.445.193 2.206-.077 3.27.62 1.063.697 1.666.833 2.051.6s.272-.87.077-1.51a9.4 9.4 0 0 1 .29-3.333q.172-.841.195-1.699M15.287 38.72a1.65 1.65 0 0 0-1.859-1.333c-.755.193-1.355 1.238-1.355 1.238s-1.741 1.587-2.748 2.459l-2.088 1.873q1.01 1.027 2.128 1.935.86-1.051 1.833-2c.5-.445 2.245-2.148 2.709-2.418s1.611-.807 1.38-1.754M40.073 6.155c-.333.29-1.451 1.219-1.586 1.394s-.755.6.31 1.238a5.4 5.4 0 0 0 3.018.793 9.8 9.8 0 0 1 2.845.639 25.4 25.4 0 0 0-4.392-4.394 1 1 0 0 1-.193.334zM3.947 26.778a15.6 15.6 0 0 1 3.773-2.945c1.51-.793 2.207-.135 3.212.62s1.276.58 1.833.02.272-1.218.368-2.11c.097-.892.097-3.348.272-4.548s.02-1.704 1.065-2.632 2.38-.735 3.89-.658c1.379.185 2.715.611 3.947 1.258a8.3 8.3 0 0 0 2 .948 1.29 1.29 0 0 0 1.276-.87c.077-.29-.096-1.703 0-2.206.097-.504.077-2.98.097-3.405-.019-2.01.294-4.009.925-5.917.483-1.393.638-1.667 1.238-1.645s2.612-.188 4.412-.138q2.247.203 4.45.696A25.275 25.275 0 0 0 .333 29.855c1.775-1.47 3.44-2.922 3.614-3.077M34.468 15.922a.708.708 0 0 0 1.142.166c.5-.425 2.148-2.051 2.535-2.333s.833-.658.445-1.083a8.2 8.2 0 0 0-2.148-1.607c-.387-.058-.794-.31-1.167.077-.373.386-1.393 1.276-1.393 1.276a2.45 2.45 0 0 0-.484 1.587 5.5 5.5 0 0 0 1.07 1.917M46.613 24.301a3.4 3.4 0 0 1-2.07-.968c-.682-.8-1.249-1.693-1.683-2.652-.465-.91-1.703-1.818-1.935-2.438s.31-.445.948-.425l.852-.213c.407-.135 1.528-.58 2.225-.91a8.3 8.3 0 0 0 1.935-1.122l.89-.697a25 25 0 0 0-1.818-3.333c-.31.5-2.284 1.297-2.594 1.51a23 23 0 0 1-1.78 1.49c-.642.418-1.322.774-2.031 1.065a34 34 0 0 0-3.194 3.135c-.465.445-1.103.968-1.47 1.393-.366.425-.406.987-1.166 1.567-.214.167-.349.465-.542.62a8 8 0 0 0-.813.542c-.272.251-1 .096-1.219.29a1.33 1.33 0 0 0-.5 1.413c0 .425-.658.755-.773 1.025s-.29.948-.038 1.258c.251.31.696 1.142 1.355 1.432a11.3 11.3 0 0 1 2.38 1.877c.813.755.89 1.141.676 2.438a2.075 2.075 0 0 1-2.728 1.393c-1.065-.29-1.393-1.586-1.528-2.666a18.6 18.6 0 0 0-1.084-3.58.916.916 0 0 0-1.451-.465 35 35 0 0 0-3.754 3.618 1.82 1.82 0 0 0-.425 2.11c.155.562.89 1.025 1.239 1.355.749.462 1.564.808 2.418 1.025.62.155 1.373.387 1.432.91a4.8 4.8 0 0 1-1.045 3c-.814.87-2.612.542-3.542-.117-.93-.658-.252-1.645-.117-2.206a1.9 1.9 0 0 0-.271-1.219 3.2 3.2 0 0 0-.89-2.245c-.465-.521-.774-.251-1.122.039a9 9 0 0 0-1.8 2.728c-.077.6 1.51 2.708 1.51 2.708 2.263 3.834.387 5.864-1.258 8.147a52 52 0 0 1-1.877 2.438A25.272 25.272 0 0 0 49.69 21.283c-.733 2.032-2.263 3.077-3.077 3.018m-6.733 5.592c-1.722.697-2.553-.91-2.96-1.722s-1.413-2.148-1.742-2.786a5 5 0 0 1 0-2.667c.155-.813.6-.58.929-.407q.85.245 1.666.58a10.76 10.76 0 0 1 3.425 3.715 2.1 2.1 0 0 1-.372 2.848 2.1 2.1 0 0 1-.946.439"/><path d="M33.535 7.409q-.753-.752-1.587-1.414a1.87 1.87 0 0 0-1.296-.02l-1.277.87c-.451.392-.795.891-1 1.452-.06.635.119 1.269.5 1.78.31.5.717 1.413 1.625.91a23 23 0 0 0 2.96-2.535c.347-.308.502-.695.075-1.043M21.622 27.72c.193.166.89.676 1.833-.272s1.315-1.432 1.742-1.877c.426-.445 1.065-1.166.735-1.818s-1.065-1.625-2.149-1.142c-.726.31-1.41.714-2.031 1.2l-.522.465a2.1 2.1 0 0 0-.522 2.07c.114.56.442 1.052.914 1.374M21.17 20.855c.6-.638.333-.928-.135-1.625-.468-.696-1.393-.793-2.748-.676a2.68 2.68 0 0 0-2.149 1.876c-.182.457-.287.94-.31 1.432a3.76 3.76 0 0 0 1.51 1.935c.659.348 1.219-.077 1.859-.928a22 22 0 0 1 1.973-2.014"/></g><defs><clipPath id="a"><path fill="#fff" d="M0 .5h50v50H0z"/></clipPath></defs></svg>