<svg xmlns="http://www.w3.org/2000/svg" width="187" height="24" fill="none"><g clip-path="url(#a)"><path fill="#B3D000" d="M.479.635A.48.48 0 0 0 0 1.114v4.14c0 .258.147.323.34.139l1.888-1.877.673-.672L4.788.966c.184-.184.12-.34-.138-.34H.48zM5.479 7.067A.475.475 0 0 0 5 6.59H.838c-.258 0-.322.147-.138.331l1.887 1.877.673.672 1.887 1.878c.185.184.341.12.341-.138V7.067z"/><path fill="#00913D" d="M.479 12.543a.475.475 0 0 0-.479.479v4.14c0 .258.147.323.34.139l1.888-1.878.673-.671 1.887-1.869c.184-.184.12-.34-.138-.34z"/><path fill="#00763C" d="M5.138 23.264c.184.184.34.12.34-.139v-4.14a.48.48 0 0 0-.478-.48H.838c-.258 0-.322.148-.138.332l4.438 4.417z"/><path fill="#9C0E59" d="M24.098 18.506a.175.175 0 0 0-.175.175v4.444c0 .258.156.323.34.139l4.439-4.427c.184-.184.12-.331-.138-.331z"/><path fill="#51AF33" d="m3.25 15.111-.672.672L.691 17.66c-.185.184-.12.34.138.34H4.99a.48.48 0 0 0 .479-.478v-4.141c0-.258-.148-.322-.341-.138zM.34 7.289c-.183-.184-.34-.12-.34.138v4.141c0 .267.212.479.479.479H4.64c.258 0 .322-.148.138-.332L2.891 9.838l-.672-.672z"/><path fill="#91C433" d="M5.479 1.463c0-.258-.147-.322-.34-.138L3.25 3.202l-.673.672L.691 5.751c-.185.184-.12.34.138.34H4.99a.475.475 0 0 0 .479-.478v-4.15z"/><path fill="#F9BE00" d="M11.114 5.392c.184.184.341.12.341-.138v-4.14a.475.475 0 0 0-.479-.48H6.814c-.258 0-.322.148-.138.341l1.888 1.878.672.671 1.887 1.878z"/><path fill="#EA6118" d="M5.976 11.209c0 .258.147.322.34.138L8.205 9.47l.673-.672 1.887-1.877c.184-.184.13-.34-.138-.34H6.464a.475.475 0 0 0-.479.478v4.14z"/><path fill="#EE8500" d="M11.114 17.31c.184.184.341.12.341-.138v-4.14a.475.475 0 0 0-.479-.48H6.814c-.258 0-.322.148-.138.341l1.888 1.877.672.672 1.887 1.868z"/><path fill="#E95812" d="M6.317 13.233c-.184-.184-.34-.12-.34.138v4.141c0 .258.21.479.478.479h4.162c.258 0 .322-.157.138-.331L8.877 15.79l-.673-.671-1.887-1.878z"/><path fill="#EC6D22" d="M10.976 12.047a.475.475 0 0 0 .479-.479V7.427c0-.258-.156-.322-.34-.138l-1.88 1.877-.671.672-1.888 1.868c-.184.184-.12.331.138.331h4.162z"/><path fill="#E78400" d="M5.976 23.126c0 .257.147.322.34.137l1.888-1.877.673-.672 1.887-1.877c.184-.184.13-.331-.138-.331H6.464a.48.48 0 0 0-.479.478v4.141z"/><path fill="#F9BF00" d="M6.676 23.623c-.184.184-.12.34.138.34h4.162a.475.475 0 0 0 .479-.478v-4.141c0-.258-.156-.322-.34-.138l-1.888 1.877-.673.672z"/><path fill="#E78400" d="M17.09 23.264c.185.184.341.12.341-.139v-4.14a.475.475 0 0 0-.479-.48H12.79c-.258 0-.322.148-.138.332l1.888 1.877.672.672 1.878 1.868z"/><path fill="#E9521A" d="M11.961 23.476c0 .267.212.478.48.478h4.161c.258 0 .323-.156.139-.34l-1.879-1.878-.672-.671-1.888-1.878c-.184-.184-.34-.12-.34.138v4.151"/><path fill="#7F104A" d="m20.157 21.386.672-.672 1.888-1.877c.184-.184.12-.331-.139-.331h-4.162a.475.475 0 0 0-.479.478v4.141c0 .258.157.323.341.139l1.888-1.869z"/><path fill="#E40080" d="M18.637 23.623c-.184.184-.12.34.139.34h4.162a.475.475 0 0 0 .479-.478v-4.141c0-.258-.157-.322-.341-.138l-1.888 1.877-.672.672-1.888 1.868z"/><path fill="#F5AA00" d="M5.976 5.605c0 .266.212.478.479.478h4.162c.258 0 .322-.147.138-.34L8.877 3.865l-.673-.672-1.887-1.877c-.184-.184-.34-.12-.34.138z"/><path fill="#780712" d="M23.407 1.105a.475.475 0 0 0-.479-.479h-4.162c-.258 0-.322.147-.138.34l1.888 1.878.672.672 1.888 1.877c.184.184.34.12.34-.138v-4.15z"/><path fill="#790910" d="M18.416 6.59a.475.475 0 0 0-.479.478v4.14c0 .259.157.323.341.139l1.888-1.877.672-.672 1.888-1.877c.184-.184.12-.34-.138-.34h-4.163z"/><path fill="#DF0518" d="M23.407 13.022a.475.475 0 0 0-.479-.479h-4.162c-.258 0-.322.147-.138.34l1.888 1.878.672.672 1.888 1.877c.184.184.34.12.34-.138V13.03z"/><path fill="#C61A1A" d="m20.829 15.782-.672-.671-1.888-1.878c-.184-.184-.34-.12-.34.138v4.141c0 .267.211.479.478.479h4.162c.258 0 .323-.157.138-.331l-1.887-1.878z"/><path fill="#B91221" d="M23.407 7.417c0-.258-.156-.322-.34-.138l-1.888 1.877-.672.672-1.879 1.868c-.184.184-.12.332.138.332h4.162a.475.475 0 0 0 .48-.479V7.408z"/><path fill="#640015" d="M18.269 1.325c-.184-.184-.34-.12-.34.138v4.141c0 .267.211.479.478.479h4.162c.258 0 .323-.148.138-.34L20.82 3.873l-.672-.672-1.888-1.877z"/><path fill="#EC7026" d="M23.914 5.255c0 .257.156.322.34.138l1.888-1.877.672-.672L28.702.966c.184-.184.12-.34-.138-.34h-4.162a.475.475 0 0 0-.48.479v4.14z"/><path fill="#F9BE00" d="m26.492 8.807.672.672 1.888 1.877c.184.184.34.12.34-.138v-4.14a.475.475 0 0 0-.478-.48h-4.162c-.258 0-.323.148-.139.332z"/><path fill="#F7C000" d="m26.133 15.433.672-.672 1.888-1.877c.184-.185.12-.341-.138-.341h-4.163a.475.475 0 0 0-.478.479v4.14c0 .258.156.323.34.139l1.888-1.868z"/><path fill="#6F043D" d="M28.914 18a.48.48 0 0 0 .479-.478v-4.141c0-.258-.157-.322-.341-.138l-1.888 1.877-.672.672-1.888 1.877c-.184.184-.12.332.139.332h4.171"/><path fill="#F5A600" d="M23.914 11.568c0 .266.211.478.478.478h4.163c.258 0 .322-.147.138-.331l-1.879-1.877-.672-.672-1.888-1.868c-.184-.184-.34-.12-.34.138v4.14z"/><path fill="#F5A900" d="M28.914 6.083a.475.475 0 0 0 .478-.479V1.463c0-.258-.156-.322-.34-.138l-1.879 1.877-.672.672-1.888 1.877c-.184.184-.12.34.139.34h4.162z"/><path fill="#fff" d="M44.862 1.528v.028c0 .294-.239.533-.534.533h-9.945a.534.534 0 0 1-.534-.533v-.028c0-.294.24-.534.534-.534h9.945c.295 0 .534.24.534.534m-5.985 10.104a.53.53 0 0 0-.534.525l-.019 1.086a3.95 3.95 0 0 1-2.228 2.935.55.55 0 0 1-.681-.11.53.53 0 0 1 .064-.755c.028-.027.065-.046.092-.064.221-.11.433-.258.617-.414a3.3 3.3 0 0 0 1.05-2.632.53.53 0 0 0-.507-.561H35.02l-.074.073v11.411c0 .295-.24.534-.534.534h-.028a.534.534 0 0 1-.534-.534V10.813c0-.184.074-.257.23-.257h10.756a.224.224 0 0 1 .258.202v11.687c.009.396-.175.773-.498 1.012a4.07 4.07 0 0 1-2.836.194.53.53 0 0 1-.442-.525v-.11c0-.295.24-.534.534-.534.037 0 .074 0 .11.01.912.192 1.502.192 1.75 0a.58.58 0 0 0 .286-.498V16.75a.534.534 0 0 0-.534-.534h-2.717c-.313 0-.497-.184-.497-.543v-3.497a.534.534 0 0 0-.534-.534h-.838zm4.484-3.147h-8.655c-.102 0-.157-.055-.157-.184v-3.47c0-.377.313-.69.69-.69h8.657c.128 0 .184.056.184.157v3.47a.71.71 0 0 1-.71.717zm-7.67-3.258-.055.056v2.052l.055.055h7.238l.055-.055V5.273l-.055-.055H35.69zm.184 12.792v-.028c0-.294.24-.534.534-.534h5.967c.295 0 .534.24.534.534v.028c0 .294-.24.534-.534.534h-1.924a.534.534 0 0 0-.534.533v3.046c0 .295-.24.534-.535.534h-.027a.534.534 0 0 1-.534-.534v-3.046a.534.534 0 0 0-.534-.534h-1.87a.534.534 0 0 1-.534-.533zm7.597-2.899c.295 0 .534-.24.534-.534v-2.87l-.101-.084h-2.017a.534.534 0 0 0-.534.534v2.209c0 .414.331.745.746.745h1.381zm3.02 7.583-.037-.129a.53.53 0 0 1 .387-.644h.046l3.122-.506a.54.54 0 0 0 .45-.525v-4.997a.534.534 0 0 0-.533-.534H46.97c-.101 0-.156-.055-.156-.184V4.05a.66.66 0 0 1 .663-.662h2.449c.294 0 .534-.24.534-.534v-1.85c0-.294.24-.533.534-.533h.129c.295 0 .534.239.534.533v1.85c0 .295.24.534.534.534h3.168c.129 0 .184.028.184.129V14.64a.717.717 0 0 1-.71.718h-2.633a.534.534 0 0 0-.534.534v4.61c0 .295.24.534.534.534h.092l1.897-.322a.534.534 0 0 0 .442-.616c0-.019 0-.037-.009-.056a21 21 0 0 0-.451-1.435.53.53 0 0 1 .313-.681h.028l.129-.046a.53.53 0 0 1 .653.303 27.6 27.6 0 0 1 1.308 4.776.535.535 0 0 1-.387.617l-.157.037a.534.534 0 0 1-.653-.377v-.028l-.212-.939a.54.54 0 0 0-.608-.414L47.11 23.1a.54.54 0 0 1-.608-.396zm3.969-17.614a.534.534 0 0 0-.534-.533h-1.86l-.055.055v9.478l.055.074h1.86c.294 0 .534-.24.534-.534zm1.197 8.54c0 .295.24.534.534.534h2.072l.074-.074V4.611l-.074-.055h-2.072a.534.534 0 0 0-.534.533zM59.494 14.337a.745.745 0 0 1-.156-.855 49 49 0 0 0 1.943-7.105.586.586 0 0 0-.452-.69c-.036 0-.083-.01-.12-.01h-1.252a.593.593 0 0 1-.589-.588c0-.322.267-.589.59-.589h1.666a.58.58 0 0 0 .58-.506l.414-2.982a.584.584 0 0 1 .663-.497h.037c.313.056.525.35.48.663l-.378 2.65a.583.583 0 0 0 .497.663h3.1860000000000004c.184 0 .258.101.212.368v.055a34.1 34.1 0 0 1-2.256 11.816.58.58 0 0 0 .156.663l1.501 1.306a.59.59 0 0 1 .102.773v.019a.6.6 0 0 1-.82.156c-.019-.009-.037-.027-.055-.046L64.41 18.7a.574.574 0 0 0-.82.056c-.018.027-.036.046-.054.073a21.2 21.2 0 0 1-3.453 4.187.6.6 0 0 1-.737.065l-.028-.019a.58.58 0 0 1-.156-.81 1 1 0 0 1 .092-.11 18 18 0 0 0 2.606-2.843l.027-.037.857-1.38a.59.59 0 0 0-.11-.746l-3.122-2.798zm5.553-8.66h-1.943a.574.574 0 0 0-.571.47 73 73 0 0 1-1.915 7.39c-.056.129 0 .257.184.386l2.707 2.42.184-.441a24.4 24.4 0 0 0 1.326-4.399c.322-1.72.525-3.46.617-5.209a.586.586 0 0 0-.552-.616zm1.952 8.679v-.028c0-.322.258-.58.58-.589h5.912c.322 0 .589-.267.589-.589v-1.297a.593.593 0 0 0-.59-.59h-3.627a.515.515 0 0 1-.571-.478V4.012a.593.593 0 0 0-.59-.589h-1.436a.585.585 0 0 1-.59-.58c0-.322.268-.588.59-.588h1.436c.323 0 .59-.267.59-.59V.59c0-.322.267-.589.589-.589h.028c.322 0 .589.267.589.589v1.095c0 .322.267.589.59.589h6.98c.321 0 .588-.267.588-.589V.59c0-.322.258-.589.59-.589h.027c.323 0 .59.267.59.589v1.095c0 .322.267.589.59.589h1.583c.322 0 .59.267.59.589a.587.587 0 0 1-.59.589h-1.584a.593.593 0 0 0-.59.589v6.064a1.19 1.19 0 0 1-1.187 1.187h-2.809a.593.593 0 0 0-.589.59v1.306c0 .322.267.59.59.59h6.068c.322 0 .589.257.589.579v.027a.593.593 0 0 1-.59.59h-5.036a.585.585 0 0 0-.47.938 25 25 0 0 0 5.958 5.42.59.59 0 0 1 .166.81c-.028.037-.056.074-.093.11h-.018a.57.57 0 0 1-.727.065 28.4 28.4 0 0 1-5.415-4.767.593.593 0 0 0-.829-.046.56.56 0 0 0-.193.442v5.503a.593.593 0 0 1-.59.589.593.593 0 0 1-.589-.59v-5.585a.593.593 0 0 0-.589-.589.6.6 0 0 0-.433.193 23.7 23.7 0 0 1-6.326 5.098.594.594 0 0 1-.718-.138l-.037-.046a.585.585 0 0 1 .157-.892 24.9 24.9 0 0 0 6.722-5.559.585.585 0 0 0-.074-.828.56.56 0 0 0-.377-.138h-4.826a.58.58 0 0 1-.58-.58zm11.05-10.923h-6.97a.593.593 0 0 0-.59.588v1.62a.58.58 0 0 0 .59.58h6.979c.322 0 .59-.258.59-.58v-1.61a.593.593 0 0 0-.59-.59zm-7.56 5.843c0 .442.35.792.792.792h6.565c.442 0 .792-.35.792-.792v-1.27a.593.593 0 0 0-.59-.589h-6.97a.593.593 0 0 0-.59.59zM86.373 1.84A1.01 1.01 0 0 1 87.386.829h5.166c.57 0 1.04.47 1.04 1.04v5.08c0 .331.267.598.599.598h.368c.184 0 .23.129.23.387a19.5 19.5 0 0 1-.294 2.632.597.597 0 0 1-.7.469h-.092a.61.61 0 0 1-.46-.644l.119-1.491c.028-.101-.028-.157-.157-.157h-5.939a.7.7 0 0 0-.7.7v1.076a.597.597 0 0 1-.598.599.597.597 0 0 1-.599-.599v-2.76c0-.129.074-.212.23-.212h.185a.597.597 0 0 0 .598-.598V1.841zm1.225 21.718a.597.597 0 0 1-.599-.598v-11.3a.86.86 0 0 1 .857-.856h5c.202 0 .313.101.313.258v11.217c.027.451-.194.875-.571 1.123a2.8 2.8 0 0 1-1.97.092.6.6 0 0 1-.48-.589c0-.331.277-.598.608-.598.055 0 .11 0 .166.027a.97.97 0 0 0 .718.028.62.62 0 0 0 .34-.543v-2.006a.59.59 0 0 0-.598-.589h-2.578a.597.597 0 0 0-.599.598v3.157a.584.584 0 0 1-.598.589zm1.05-16.012a.597.597 0 0 0 .598-.598V3.92c0-.184.074-.257.23-.257h2.32a.597.597 0 0 0 .6-.598v-.267a.78.78 0 0 0-.784-.783h-3.26a.79.79 0 0 0-.782.783v4.14c0 .332.267.599.599.599h.47zm2.725 6.902a.597.597 0 0 0 .599-.598v-1.776l-.102-.083h-3.619l-.055.083v1.776c0 .331.267.598.599.598zm.599 2.963v-1.178a.597.597 0 0 0-.599-.598h-2.578a.597.597 0 0 0-.599.598v1.178c0 .331.267.598.599.598h2.578a.59.59 0 0 0 .599-.589zm.423-10.454v-1.49a.597.597 0 0 0-.598-.599h-.599a.76.76 0 0 0-.755.755v1.334c0 .331.267.598.599.598h.764a.597.597 0 0 0 .598-.598zm5.866 12.479a.59.59 0 0 0-.534-.332H96.51c-.101 0-.156-.055-.156-.184v-3.616c0-.414.331-.755.755-.755h9.926c.129 0 .184.055.184.157v3.616c0 .433-.35.773-.782.773h-.396a.595.595 0 0 0-.562.396l-.433 1.196-.221.57a.595.595 0 0 0 .562.81h2.449a.597.597 0 1 1 0 1.197H95.664a.597.597 0 0 1-.599-.598c0-.332.267-.598.599-.608h2.79a.597.597 0 0 0 .562-.81 24 24 0 0 0-.755-1.83zm10.276-7.233a.597.597 0 0 1-.598.598H95.775a.597.597 0 1 1 0-1.197h12.164c.331 0 .598.267.598.599M107.156 1.85c.414 0 .755.34.755.754V9.69c0 .13-.055.184-.157.184H95.986c-.101 0-.129-.055-.129-.184V2.577c0-.405.323-.727.728-.727h2.219a.597.597 0 0 0 .599-.598V.856c0-.331.267-.598.598-.598.332 0 .599.267.599.598v.396c0 .331.267.598.598.598h1.078a.597.597 0 0 0 .598-.598V.856c0-.331.267-.598.599-.598s.598.267.598.598v.396c0 .331.267.598.599.598h2.495zm-7.754 1.794a.597.597 0 0 0-.598-.598h-1.713l-.055.055v1.51c0 .33.267.598.599.598h1.178a.597.597 0 0 0 .599-.598v-.976zm-.598 2.761h-1.179a.597.597 0 0 0-.598.598v1.592l.055.074h1.722a.597.597 0 0 0 .599-.598V6.994a.597.597 0 0 0-.599-.598zm-1.197 9.34-.055.056v2.033l.055.074h8.333l.083-.074v-2.033l-.073-.056h-8.343m5.801 5.936.672-1.776a.588.588 0 0 0-.552-.8h-3.26a.597.597 0 0 0-.598.598c0 .073.018.156.046.22l.718 1.777c.092.22.313.368.552.368h1.87a.6.6 0 0 0 .561-.378zm-1.142-18.635h-1.077a.597.597 0 0 0-.599.598v.967c0 .33.267.598.599.598h1.077a.597.597 0 0 0 .599-.598v-.967a.597.597 0 0 0-.599-.598m0 3.36h-1.077a.597.597 0 0 0-.599.597V8.08c0 .331.267.598.599.598h1.077a.597.597 0 0 0 .599-.598V7.003a.597.597 0 0 0-.599-.598m2.394-1.197h1.492a.597.597 0 0 0 .599-.598V3.1l-.083-.055h-2.008a.597.597 0 0 0-.598.598v.967c0 .33.267.598.598.598m-.598 2.862c0 .331.267.598.598.598h1.999l.073-.074V7.003a.597.597 0 0 0-.598-.598h-1.492a.6.6 0 0 0-.599.598V8.08zM111.557 11.88l-.018-.018a.58.58 0 0 1-.065-.699 23.4 23.4 0 0 0 2.192-4.574v-.046a31.3 31.3 0 0 0 1.344-5.503.6.6 0 0 1 .673-.506h.046a.596.596 0 0 1 .46.672 33 33 0 0 1-1.317 5.577.6.6 0 0 0-.027.184V23.19a.597.597 0 1 1-1.197 0V12.056a.595.595 0 0 0-1.105-.313l-.028.055a.596.596 0 0 1-.948.074zm6.86 11.964a.597.597 0 0 1-.598-.598v-9.92c0-.258.129-.387.414-.387h15.212c.286 0 .442.129.442.387v9.92a.597.597 0 1 1-1.197 0v-.608a.597.597 0 0 0-.598-.598h-12.478a.597.597 0 0 0-.598.599v.607a.597.597 0 0 1-.599.598m13.463-13.38h-13.002c-.101 0-.157-.056-.157-.184v-8.2c0-.414.341-.754.755-.754h13.002c.129 0 .184.055.184.156v8.2a.78.78 0 0 1-.782.782m.212 6.533a.597.597 0 0 0 .598-.598v-2.116c0-.102-.055-.157-.184-.157H119.2c-.129 0-.212.055-.184.157v2.107c0 .331.267.598.598.598h12.478zm-13.076 1.795v1.463c0 .331.267.598.598.598h12.478a.597.597 0 0 0 .598-.598v-1.463a.597.597 0 0 0-.598-.598h-12.478a.597.597 0 0 0-.598.598m11.851-13.583a.597.597 0 0 0 .598-.598V2.577l-.073-.055h-11.409l-.055.055v2.034c0 .331.267.598.598.598zm-10.35 1.187a.597.597 0 0 0-.599.598v2.19l.056.083h11.409l.073-.083v-2.18a.597.597 0 0 0-.598-.599h-10.35zM145.269 4.84v.102a.554.554 0 0 1-.553.552h-6.556a.554.554 0 0 1-.553-.552V4.84c0-.303.249-.552.553-.552h6.556c.304 0 .553.249.553.552m-6.851 19.05h-.102a.553.553 0 0 1-.552-.553V15.36c0-.506.405-.911.911-.911h5.673c.285 0 .386.128.386.386v5.411a.996.996 0 0 1-.994.994h-4.236a.553.553 0 0 0-.552.552v1.555a.546.546 0 0 1-.553.543zm5.828-22.197v.101a.553.553 0 0 1-.552.552h-4.834a.554.554 0 0 1-.553-.552v-.1c0-.305.249-.553.553-.553h4.843c.304 0 .553.248.553.552zm-.101 6.69v.102a.554.554 0 0 1-.552.552h-4.632a.554.554 0 0 1-.553-.552v-.102c0-.303.249-.552.553-.552h4.632c.303 0 .552.249.552.552m0 3.36v.1a.554.554 0 0 1-.552.553h-4.632a.554.554 0 0 1-.553-.553v-.1c0-.305.249-.553.553-.553h4.632c.303 0 .552.248.552.552m-4.429 3.892a.76.76 0 0 0-.755.754v3.092c0 .304.249.553.552.553h3.251c.451 0 .81-.36.81-.81v-2.835a.76.76 0 0 0-.755-.754h-3.1029999999999998m12.127-8.641h-4.337a.553.553 0 0 1-.552-.552V6.35c0-.304.248-.553.552-.553h4.346a.554.554 0 0 0 .553-.552V4.187a.554.554 0 0 0-.553-.552h-5.359a.553.553 0 0 1-.552-.552V2.98c0-.303.248-.552.552-.552h1.998a.55.55 0 0 0 .544-.561.54.54 0 0 0-.083-.285l-.019-.028a.555.555 0 0 1 .166-.745l.129-.083a.55.55 0 0 1 .746.138c.276.396.516.819.727 1.251a.55.55 0 0 0 .498.313h3.683a.55.55 0 0 0 .46-.248c.304-.451.562-.847.774-1.196a.55.55 0 0 1 .755-.185l.083.046c.258.157.34.497.184.755a.546.546 0 0 0 .202.755.56.56 0 0 0 .267.073h1.842c.304 0 .553.249.553.552v.102a.554.554 0 0 1-.553.552h-5.313a.553.553 0 0 0-.552.552v1.058c0 .304.248.552.552.552h4.291c.304 0 .553.249.553.553v.1a.554.554 0 0 1-.553.553h-4.291a.553.553 0 0 0-.552.552v.755c0 .303.248.552.552.552h5.829c.304 0 .552.248.552.552v.101a.553.553 0 0 1-.552.552h-13.978a.554.554 0 0 1-.553-.552v-.12c0-.303.249-.552.553-.552h5.856a.554.554 0 0 0 .553-.552v-.745a.554.554 0 0 0-.553-.552m2.219 8.742h-2.974a.553.553 0 0 0-.552.552v.561c0 .304.257.553.561.543a.6.6 0 0 0 .221-.046l.636-.303a.55.55 0 0 1 .709.22l.046.074a.56.56 0 0 1-.212.755c-.018 0-.028.018-.046.018l-1.593.7a.54.54 0 0 0-.322.506v2.66c.018.478-.221.938-.627 1.196-.672.432-1.832.506-3.554.193a.55.55 0 0 1-.46-.543v-.138c0-.304.248-.552.561-.543h.083c.82.193 1.685.193 2.505 0a.59.59 0 0 0 .285-.47v-1.518a.54.54 0 0 0-.561-.543c-.056 0-.102 0-.157.019l-2.136.653a.55.55 0 0 1-.663-.294l-.037-.083a.55.55 0 0 1 .285-.727c.019 0 .037-.019.056-.019l2.817-.865a.55.55 0 0 0 .387-.524v-1.491a.554.554 0 0 0-.552-.552h-2.809a.553.553 0 0 1-.552-.552v-.102c0-.303.248-.552.552-.552h2.809a.554.554 0 0 0 .552-.552v-.626a.554.554 0 0 0-.552-.552h-.083l-1.262.203a.546.546 0 0 1-.617-.405l-.018-.074a.544.544 0 0 1 .405-.662h.037a43 43 0 0 0 4.272-.92.547.547 0 0 1 .673.377l.018.082a.55.55 0 0 1-.387.672l-.884.24a.55.55 0 0 0-.405.524v1.141c0 .304.249.552.553.552h2.698a.553.553 0 0 0 .552-.552v-.046c-.074-.8-.129-1.573-.138-2.3 0-.276.203-.516.479-.553l.129-.018a.55.55 0 0 1 .617.479v.036l.119 2.43a.555.555 0 0 0 .553.524h3.978c.304 0 .552.249.552.552v.102a.553.553 0 0 1-.552.552h-3.656a.553.553 0 0 0-.543.653c.12.59.267 1.16.442 1.73a.55.55 0 0 0 .7.35.56.56 0 0 0 .248-.166l1.05-1.251a.557.557 0 0 1 .746-.092l.101.073a.556.556 0 0 1 .12.773 17 17 0 0 1-1.832 2.09.54.54 0 0 0-.083.671l.525.865c.313.387.543.543.699.543.129.028.24-.074.369-.313l.46-1.021a.553.553 0 0 1 .737-.267c.009 0 .018.01.027.018l.148.083c.239.138.35.423.248.681-.239.69-.534 1.353-.893 1.997-.295.488-.93.644-1.409.35-.055-.037-.101-.074-.156-.11a5.55 5.55 0 0 1-1.593-1.896.544.544 0 0 0-.746-.194c-.009 0-.028.019-.037.019a15.5 15.5 0 0 1-2.652 1.537.55.55 0 0 1-.691-.221l-.046-.074a.54.54 0 0 1 .175-.745l.056-.028a16.4 16.4 0 0 0 3.001-1.84l.102-.074a16.7 16.7 0 0 1-1.096-3.7.55.55 0 0 0-.543-.45zm4.024-4.859a18 18 0 0 1 1.483 1.896c.166.248.11.58-.129.755l-.101.073a.56.56 0 0 1-.774-.12 17 17 0 0 0-1.39-1.785.55.55 0 0 1 .037-.773c.009 0 .018-.018.027-.027l.101-.074a.56.56 0 0 1 .756.074zM173.897 4.62c.294.11.451.433.35.736-.617 1.795-1.142 3.24-1.584 4.335a.59.59 0 0 0 .543.81h2.799c.323 0 .59.257.59.588v.028a.593.593 0 0 1-.59.589h-12.191a.594.594 0 0 1-.59-.589v-.018c0-.322.268-.59.59-.59h6.842c.23 0 .441-.137.543-.358a57 57 0 0 0 1.934-5.144.584.584 0 0 1 .727-.387c.009 0 .018 0 .028.01zM169.781.47h.027c.323 0 .59.267.58.589v.625c0 .323.267.59.59.59h4.328a.58.58 0 0 1 .58.588c0 .322-.258.58-.58.59H164.55a.585.585 0 0 1-.589-.58c0-.323.267-.59.589-.59h4.061c.323 0 .59-.266.58-.588v-.626c0-.322.258-.59.581-.59zm-4.245 23.264h-.028a.58.58 0 0 1-.58-.59v-8.493c0-.286.129-.387.387-.387h8.794a.97.97 0 0 1 .976.976v7.914a.585.585 0 0 1-.58.589h-.028a.58.58 0 0 1-.58-.59v-.625a.593.593 0 0 0-.59-.589h-6.593a.58.58 0 0 0-.58.589v.626a.593.593 0 0 1-.589.589zm.948-18.737a37 37 0 0 1 1.317 3.93.584.584 0 0 1-.424.718.59.59 0 0 1-.709-.415 40 40 0 0 0-1.261-3.8.586.586 0 0 1 .331-.764c.019 0 .028-.01.046-.018a.58.58 0 0 1 .719.34zm6.814 15.773c.323 0 .59-.267.59-.589v-4.6c0-.102-.056-.157-.185-.157h-7.394c-.129 0-.212.055-.184.184v4.564c0 .322.258.59.58.59h6.593zm6.483-18.423a.74.74 0 0 0-.746.745V23.08a.593.593 0 0 1-.589.59h-.028a.58.58 0 0 1-.58-.59V1.326c0-.102.083-.184.184-.184h7.109c.138 0 .267.046.368.128l.295.24c.184.156.258.395.184.625l-2.265 7.28a.66.66 0 0 0 .027.496 17.6 17.6 0 0 1 2.643 4.086c0 .019.019.037.019.056.801 2.355.791 4.242.018 5.64a3.23 3.23 0 0 1-1.381 1.381 4 4 0 0 1-1.566.34 7.3 7.3 0 0 1-2.246-.524.58.58 0 0 1-.396-.598v-.11a.6.6 0 0 1 .644-.534c.046 0 .101.018.147.027.884.396 1.87.506 2.827.304 1.142-.414 1.584-1.748 1.409-3.93 0-.027 0-.064-.009-.091-.322-1.528-1.446-3.498-3.324-5.918a.45.45 0 0 1-.101-.497l2.071-6.441a.588.588 0 0 0-.561-.764h-4.135z"/></g><defs><clipPath id="a"><path fill="#fff" d="M0 0h187v24H0z"/></clipPath></defs></svg>