<svg xmlns="http://www.w3.org/2000/svg" width="80" height="30" fill="none"><g clip-path="url(#a)"><path fill="#fff" d="M14.68 13.641c.337.914.678 2.098 2.12 1.941q-.09.319-.183.633c.227 0 .476.064.673-.01.54-.21 1.055-.48 1.58-.722.435-.198.903-.603 1.304-.548 1.124.154 1.562-.438 1.994-1.297.562-1.12 1.176-2.23 1.904-3.248.67-.934 1.536-1.724 2.273-2.613.133-.16.105-.506.055-.749-.338-1.685-1.705-2.28-3.103-2.816-.263-.102-.593-.22-.839-.151-1.738.476-3.532.842-5.165 1.566-.933.416-1.59 1.443-2.37 2.194l.197.174h-2.123c.6 2.064 1.035 3.895 1.68 5.646zm4.169-.168-1.266-1.828 2.575.655-.548.75-.761.42zm2.837-6.4-1.063 3.757-.233-.016c-.05-.22-.096-.44-.163-.735-.753 0-1.528-.064-2.29.016-1.11.116-.86-1.167-1.923-1.426l5.672-1.6zM28.335 17.278c-1.146-.548-2.386-.498-3.554-.765-2.61-.595-5.033-.246-7.134 1.14-1.5.988-2.58 1.224-3.798-.295-1.506 2.623-.64 5.56-1.664 7.884.62.777 1.445 1.352 1.515 2.01.11 1.035.803 1.143 1.414 1.245.836.14 1.8.242 2.56-.036 1.205-.446 2.235-1.355 3.433-1.82 1.232-.48 1.902-.088 2.591 1.087.44.752 1.06.887 1.741.419.925-.639 1.529-1.484 1.919-2.593.52-1.482 1.182-2.952 2.032-4.27 1.143-1.773.86-3.087-1.052-4zm-3.917 3.912c-.05.322-.238.62-.316.939-.393 1.618-1.472 2.205-3.08 2.455-1.398.218-2.722.909-4.114 1.402l-.994-2.172c.366.09.587.16.814.203 1.118.207 2.187.501 3.233-.418.706-.62 1.708-.892 2.497-1.437.413-.284.65-.815.966-1.234-.465-.23-.913-.614-1.4-.669-1.797-.209-3.253.67-4.662 1.63-.28.193-.573.37-.916.44 1.852-2.923 4.927-3.364 8.335-4.148-.144 1.22-.233 2.117-.366 3.009zM9.813 6.252C8.67 4.845 8.277 4.87 7.006 6.062c-.18.168-.313.408-.41.636-.4.95-.691 1.955-1.181 2.855-1.365 2.52-2.81 4.994-4.136 7.334-.12.223-.269.49-.34.57-.13.143-.88.757-.88.757s-.048.044-.056.143q.07.067.169.138c.869.606 1.589 1.423 2.458 2.224a815 815 0 0 1 2.22-1.932c.113 1.021-.017 2.023.064 3.006.119 1.481-.305 3.004-.504 4.51-.033.25-.241.58-.144.73.623.938 1.096 1.998 2.303 2.452.451.17.817.867 1.306.29.308-.364.587-1.08.43-1.443-.917-2.095-.551-4.279-.546-6.42 0-1.115.33-2.244.631-3.334.222-.802.3-1.457-.304-2.161-.426-.502-.634-1.187-.828-1.564.842-.512 1.465-.785 1.949-1.214.637-.562 1.182-1.231 1.73-1.883.587-.697 1.4-1.385.833-2.426-.581-1.065-1.19-2.142-1.954-3.078z"/><path fill="#FD6925" d="M71.35 2.007c-4.778 0-8.651 3.193-8.651 7.133 0 1.688.711 3.238 1.899 4.46-.952 1.156-2.818 2.844-5.946 3.494 0 0 4.675 1.15 9.31-1.385 1.04.366 2.183.567 3.385.567 4.778 0 8.65-3.194 8.65-7.133s-3.873-7.133-8.65-7.133z"/><path fill="#fff" d="M44.072 8.011c.033-.16-.252-.503-.46-.567-.573-.176-1.179-.248-1.987-.404-.925-2.847-2.29-4.152-5.42-4.422.531 2.208 1.904 3.742 3.56 5.209-3.654 1.784-7.203 3.783-11.388 4.097 1.157 2.1 1.766 2.26 3.745 1.103 3.56-2.075 7.197-3.964 11.38-4.509.221-.028.528-.303.57-.51zM40.736 18.36c-2.015-.03-3.272 1.34-4.755 2.4 1.544 1.614 2.621.524 3.728-.594.009 1.908-.916 2.657-2.978 3.174-.033-1.993-1.99-1.784-3.04-2.772-.52 2.59 1.083 5.69 3.06 5.864v-2.368c.55.231 1.062.66 1.447.57 1.187-.289 2.342-.738 3.471-1.214.285-.121.43-.57.64-.867-.878-.474-.25-.898.019-1.374.808-1.432.014-2.794-1.595-2.816zM35.076 18.495c.382.427.683.644 1.317.21 1.487-1.022 3.087-1.878 4.604-2.858.498-.32 1.73-.08 1.35-1.104-.368-.986-1.472-.733-2.344-.65-.188.02-.371.151-.551.245-1.84.983-3.679 1.971-5.478 2.937.351.389.73.802 1.104 1.217zM40.745 13.019c.252-.14.578-.67.512-.763-.266-.366-.662-.867-1.03-.883-.905-.039-1.824-.276-2.71.514-.753.672-1.866.947-3.156 1.556 1.083.515 2.063 1.398 2.882 1.274 1.229-.187 2.361-1.062 3.502-1.7zM57.738 16.427c.374-2.814-.213-2.74-3.615-2.527 1.31 2.491 1.907 2.91 3.615 2.527"/><path fill="#fff" d="M62.486 22.346c-.305 1.118-.534 2.2-.92 3.224-.107.284-.888.644-1.001.548a45 45 0 0 1-3.51-3.243c-.258-.267-.285-.862-.238-1.286.088-.765.398-1.508.45-2.271.028-.388-.201-.922-.5-1.17-.443-.366-1.05-.537-1.246-.628L54.5 18.891c-1.346-1.79-1.202-4.069-2.79-5.649.686-.198 1.516-.394 2.314-.686.434-.156.81-.476 1.215-.72-.48-.23-.983-.686-1.431-.637-.933.1-1.838.466-2.81.738-.072-1.668 2.082-1.23 2.596-2.734-.824-.2-1.572-.385-2.768-.68 1.177-.58 2.057-1.018 2.937-1.453l.025-.38c-.789-.22-1.58-.444-2.278-.639.839-1.107 1.827-2.351 2.749-3.642.85-1.187.709-1.724-.518-2.412H50.96c.008.245-.033.691.036.708 1.108.283.761.985.532 1.67-.308.906-.432 1.93-.95 2.69-.537.79-.625 2.17-2.167 2.145l.883-4.322-.28-.064-1.406 1.895-2.118-.967c-.357 2.172.208 3.45 1.393 4.523l-1.697 1.157c1.312.283 2.328.5 3.407.732-.946.496-1.998 1.046-3.23 1.688l1.75 1.211-.217.253 1.938-.748c-.097.847-2.787 2.378-4.146 2.433.28 1.435.932 1.947 1.785 1.388.653-.43 1.298-.876 1.954-1.303 1.75-1.136 2.038-1.079 2.901.769.202.432.319 1.357.2 1.407-.698.291-1.335 1.236-2.364.377.728-.455 1.4-.873 2.17-1.355-2.69-1.632-4.089.98-6.096 1.484l1.063 1.2c-.885 1.008-1.633 2.126-2.638 2.919-.822.65-.755 1.194-.254 1.792.62.735 1.11.121 1.622-.297.96-.785 1.96-1.517 2.945-2.272q.143.123.285.245c-.102.587.009 1.44-.34 1.718-1.395 1.107-2.932 2.037-4.54 3.114q.856.781 1.716 1.572.038-.195.072-.388c.512-.1 1.094-.402 1.526-.26 1.096.361 2.128.92 3.498 1.543 0-1.762-.013-3.343.014-4.926.006-.261.12-.603.305-.762.922-.793 1.885-1.536 2.851-2.31 1.273 2.442.64 3.777-2.422 5.388 2.09 1.272 3.485-.24 4.977-1.374 1.578 2.158 3.388 3.953 5.808 5.08.752.349 1.356.41 1.874-.32v-1.258c-.371-1.938-.745-3.876-1.119-5.826zm-15.74 4.35 1.774-1.487.186 1.369-1.96.115zm3.601-5.275c-.77-2.095 1.008-2.111 2.082-2.791.202.366.393.71.612 1.11-.905.566-1.76 1.098-2.694 1.681M71.914 15.31h-1.168V9.19h-5.44V8.027h5.44V3.146h1.168v4.882h5.943v1.161h-5.943z"/></g><defs><clipPath id="a"><path fill="#fff" d="M0 0h80v30H0z"/></clipPath></defs></svg>