<svg width="187" height="24" viewBox="0 0 187 24" fill="none" xmlns="http://www.w3.org/2000/svg">
<g clip-path="url(#clip0_326_3101)">
<path d="M0.478826 0.635179C0.220997 0.635179 0 0.846835 0 1.11371V5.25481C0 5.51248 0.147331 5.5769 0.340703 5.39285L2.22838 3.51555L2.90058 2.84377L4.78826 0.966467C4.97242 0.782418 4.90797 0.625977 4.65014 0.625977H0.478826V0.635179Z" fill="#B3D000"/>
<path d="M5.47884 7.06739C5.47884 6.80052 5.26706 6.58887 5.00002 6.58887H0.837915C0.580085 6.58887 0.515628 6.73611 0.699792 6.92016L2.58747 8.79746L3.25967 9.46924L5.14735 11.3465C5.33151 11.5306 5.48805 11.4662 5.48805 11.2085V7.06739H5.47884Z" fill="#B3D000"/>
<path d="M0.478826 12.543C0.211788 12.543 0 12.7546 0 13.0215V17.1626C0 17.4203 0.147331 17.4847 0.340703 17.3006L2.22838 15.4233L2.90058 14.7516L4.78826 12.8835C4.97242 12.6994 4.90797 12.543 4.65014 12.543H0.478826Z" fill="#00913D"/>
<path d="M5.13814 23.2635C5.3223 23.4476 5.47884 23.3832 5.47884 23.1255V18.9844C5.47884 18.7267 5.26706 18.5059 5.00002 18.5059H0.837915C0.580085 18.5059 0.515628 18.6531 0.699792 18.8371L5.13814 23.2543V23.2635Z" fill="#00763C"/>
<path d="M24.0978 18.5059C23.9965 18.5059 23.9229 18.5887 23.9229 18.6807V23.1255C23.9229 23.3832 24.0794 23.4476 24.2636 23.2635L28.7019 18.8371C28.8861 18.6531 28.8216 18.5059 28.5638 18.5059H24.0978Z" fill="#9C0E59"/>
<path d="M3.25051 15.111L2.57832 15.7828L0.690636 17.6601C0.506473 17.8442 0.57093 18.0006 0.828759 18.0006H4.99086C5.24869 18.0006 5.46969 17.789 5.46969 17.5221V13.381C5.46969 13.1233 5.32236 13.0589 5.12899 13.2429L3.25051 15.111Z" fill="#51AF33"/>
<path d="M0.340703 7.28884C0.156539 7.10479 0 7.16921 0 7.42687V11.568C0 11.8348 0.211788 12.0465 0.478826 12.0465H4.64093C4.89876 12.0465 4.96322 11.8993 4.77905 11.7152L2.89137 9.83792L2.21917 9.16614L0.340703 7.28884Z" fill="#51AF33"/>
<path d="M5.4789 1.46301C5.4789 1.20534 5.33157 1.14092 5.13819 1.32497L3.25051 3.20227L2.57832 3.87405L0.690636 5.75135C0.506473 5.9354 0.57093 6.09184 0.828759 6.09184H4.99086C5.2579 6.09184 5.46969 5.88018 5.46969 5.61331V1.46301H5.4789Z" fill="#91C433"/>
<path d="M11.1143 5.39243C11.2985 5.57648 11.455 5.51207 11.455 5.2544V1.11329C11.455 0.846422 11.2433 0.634766 10.9762 0.634766H6.81411C6.55628 0.634766 6.49182 0.782005 6.67599 0.975256L8.56367 2.85256L9.23587 3.52434L11.1235 5.40164L11.1143 5.39243Z" fill="#F9BE00"/>
<path d="M5.97607 11.2089C5.97607 11.4666 6.12341 11.531 6.31678 11.3469L8.20446 9.46965L8.87666 8.79787L10.7643 6.92057C10.9485 6.73652 10.8932 6.58008 10.6262 6.58008H6.46411C6.19707 6.58008 5.98528 6.79173 5.98528 7.05861V11.1997L5.97607 11.2089Z" fill="#EA6118"/>
<path d="M11.1143 17.3104C11.2985 17.4945 11.455 17.43 11.455 17.1724V13.0313C11.455 12.7644 11.2433 12.5527 10.9762 12.5527H6.81411C6.55628 12.5527 6.49182 12.7 6.67599 12.8932L8.56367 14.7705L9.23587 15.4423L11.1235 17.3104H11.1143Z" fill="#EE8500"/>
<path d="M6.31678 13.2332C6.13261 13.0491 5.97607 13.1135 5.97607 13.3712V17.5123C5.97607 17.77 6.18786 17.9908 6.4549 17.9908H10.617C10.8748 17.9908 10.9393 17.8344 10.7551 17.6596L8.87666 15.7915L8.20446 15.1197L6.31678 13.2424V13.2332Z" fill="#E95812"/>
<path d="M10.9762 12.0465C11.2433 12.0465 11.455 11.8348 11.455 11.568V7.42687C11.455 7.16921 11.2985 7.10479 11.1143 7.28884L9.23587 9.16614L8.56367 9.83792L6.67599 11.706C6.49182 11.8901 6.55628 12.0373 6.81411 12.0373H10.9762V12.0465Z" fill="#EC6D22"/>
<path d="M5.97607 23.1255C5.97607 23.3832 6.12341 23.4476 6.31678 23.2635L8.20446 21.3862L8.87666 20.7144L10.7643 18.8371C10.9485 18.6531 10.8932 18.5059 10.6262 18.5059H6.46411C6.20628 18.5059 5.98528 18.7175 5.98528 18.9844V23.1255H5.97607Z" fill="#E78400"/>
<path d="M6.67599 23.623C6.49182 23.8071 6.55628 23.9635 6.81411 23.9635H10.9762C11.2433 23.9635 11.455 23.7518 11.455 23.485V19.3439C11.455 19.0862 11.2985 19.0218 11.1143 19.2058L9.22666 21.0831L8.55446 21.7549L6.67599 23.623Z" fill="#F9BF00"/>
<path d="M17.0904 23.2635C17.2746 23.4476 17.4311 23.3832 17.4311 23.1255V18.9844C17.4311 18.7175 17.2193 18.5059 16.9523 18.5059H12.7902C12.5324 18.5059 12.4679 18.6531 12.6521 18.8371L14.5397 20.7144L15.2119 21.3862L17.0904 23.2543V23.2635Z" fill="#E78400"/>
<path d="M11.9614 23.4756C11.9614 23.7425 12.1732 23.9541 12.4403 23.9541H16.6024C16.8602 23.9541 16.9246 23.7977 16.7405 23.6137L14.862 21.7364L14.1898 21.0646L12.3021 19.1873C12.118 19.0032 11.9614 19.0676 11.9614 19.3253V23.4664V23.4756Z" fill="#E9521A"/>
<path d="M20.1567 21.3862L20.8289 20.7144L22.7166 18.8371C22.9007 18.6531 22.8363 18.5059 22.5784 18.5059H18.4163C18.1493 18.5059 17.9375 18.7175 17.9375 18.9844V23.1255C17.9375 23.3832 18.094 23.4476 18.2782 23.2635L20.1659 21.3954L20.1567 21.3862Z" fill="#7F104A"/>
<path d="M18.6374 23.623C18.4532 23.8071 18.5177 23.9635 18.7755 23.9635H22.9376C23.2047 23.9635 23.4165 23.7518 23.4165 23.485V19.3439C23.4165 19.0862 23.2599 19.0218 23.0758 19.2058L21.1881 21.0831L20.5159 21.7549L18.6282 23.623H18.6374Z" fill="#E40080"/>
<path d="M5.97607 5.60453C5.97607 5.8714 6.18786 6.08305 6.4549 6.08305H10.617C10.8748 6.08305 10.9393 5.93581 10.7551 5.74256L8.87666 3.86526L8.20446 3.19348L6.31678 1.31618C6.13261 1.13213 5.97607 1.19655 5.97607 1.45422V5.60453Z" fill="#F5AA00"/>
<path d="M23.4072 1.1045C23.4072 0.837633 23.1954 0.625977 22.9284 0.625977H18.7663C18.5084 0.625977 18.444 0.773216 18.6281 0.966467L20.5158 2.84377L21.188 3.51555L23.0757 5.39285C23.2599 5.5769 23.4164 5.51248 23.4164 5.25481V1.1045H23.4072Z" fill="#780712"/>
<path d="M18.4163 6.58928C18.1493 6.58928 17.9375 6.80094 17.9375 7.06781V11.2089C17.9375 11.4666 18.094 11.531 18.2782 11.3469L20.1659 9.46965L20.8381 8.79787L22.7258 6.92057C22.9099 6.73652 22.8455 6.58008 22.5876 6.58008H18.4255L18.4163 6.58928Z" fill="#790910"/>
<path d="M23.4072 13.0215C23.4072 12.7546 23.1954 12.543 22.9284 12.543H18.7663C18.5084 12.543 18.444 12.6902 18.6281 12.8835L20.5158 14.7608L21.188 15.4325L23.0757 17.3098C23.2599 17.4939 23.4164 17.4295 23.4164 17.1718V13.0307L23.4072 13.0215Z" fill="#DF0518"/>
<path d="M20.8289 15.7823L20.1567 15.1105L18.269 13.2332C18.0849 13.0491 17.9283 13.1135 17.9283 13.3712V17.5123C17.9283 17.7792 18.1401 17.9908 18.4072 17.9908H22.5693C22.8271 17.9908 22.8916 17.8344 22.7074 17.6596L20.8197 15.7823H20.8289Z" fill="#C61A1A"/>
<path d="M23.4072 7.41711C23.4072 7.15944 23.2506 7.09502 23.0665 7.27907L21.1788 9.15637L20.5066 9.82815L18.6281 11.6962C18.444 11.8803 18.5084 12.0275 18.7663 12.0275H22.9284C23.1954 12.0275 23.4072 11.8159 23.4072 11.549V7.40791V7.41711Z" fill="#B91221"/>
<path d="M18.269 1.32497C18.0849 1.14092 17.9283 1.20534 17.9283 1.46301V5.60411C17.9283 5.87098 18.1401 6.08264 18.4072 6.08264H22.5693C22.8271 6.08264 22.8916 5.9354 22.7074 5.74215L20.8197 3.87405L20.1475 3.20227L18.2598 1.32497H18.269Z" fill="#640015"/>
<path d="M23.9137 5.25481C23.9137 5.51248 24.0702 5.5769 24.2544 5.39285L26.1421 3.51555L26.8143 2.84377L28.702 0.966467C28.8861 0.782418 28.8217 0.625977 28.5638 0.625977H24.4017C24.1347 0.625977 23.9229 0.837633 23.9229 1.1045V5.24561L23.9137 5.25481Z" fill="#EC7026"/>
<path d="M26.492 8.80722L27.1642 9.479L29.0518 11.3563C29.236 11.5404 29.3925 11.4759 29.3925 11.2183V7.07716C29.3925 6.81029 29.1808 6.59863 28.9137 6.59863H24.7516C24.4938 6.59863 24.4293 6.74587 24.6135 6.92992L26.492 8.80722Z" fill="#F9BE00"/>
<path d="M26.1329 15.4325L26.8051 14.7608L28.6927 12.8835C28.8769 12.6994 28.8125 12.543 28.5546 12.543H24.3925C24.1255 12.543 23.9137 12.7546 23.9137 13.0215V17.1626C23.9137 17.4203 24.0702 17.4847 24.2544 17.3006L26.1421 15.4325H26.1329Z" fill="#F7C000"/>
<path d="M28.9138 18.0006C29.1716 18.0006 29.3926 17.789 29.3926 17.5221V13.381C29.3926 13.1233 29.2361 13.0589 29.0519 13.2429L27.1642 15.1202L26.492 15.792L24.6043 17.6693C24.4202 17.8534 24.4846 18.0006 24.7425 18.0006H28.9046H28.9138Z" fill="#6F043D"/>
<path d="M23.9137 11.5676C23.9137 11.8344 24.1255 12.0461 24.3925 12.0461H28.5546C28.8125 12.0461 28.8769 11.8989 28.6927 11.7148L26.8143 9.8375L26.1421 9.16572L24.2544 7.29763C24.0702 7.11358 23.9137 7.17799 23.9137 7.43566V11.5768V11.5676Z" fill="#F5A600"/>
<path d="M28.9137 6.08264C29.1808 6.08264 29.3925 5.87098 29.3925 5.60411V1.46301C29.3925 1.20534 29.236 1.14092 29.0518 1.32497L27.1734 3.20227L26.5012 3.87405L24.6135 5.75135C24.4293 5.9354 24.4938 6.09184 24.7516 6.09184H28.9137V6.08264Z" fill="#F5A900"/>
<path d="M44.8624 1.52801V1.55562C44.8624 1.85009 44.623 2.08936 44.3283 2.08936H34.3834C34.0888 2.08936 33.8494 1.85009 33.8494 1.55562V1.52801C33.8494 1.23353 34.0888 0.994266 34.3834 0.994266H44.3283C44.623 0.994266 44.8624 1.23353 44.8624 1.52801ZM38.877 11.6323C38.5824 11.6323 38.3522 11.8624 38.343 12.1568L38.3245 13.2427C38.1128 14.5311 37.2748 15.6262 36.0962 16.1783C35.8752 16.3071 35.5805 16.2611 35.4148 16.0679C35.2214 15.847 35.249 15.5065 35.4792 15.3133C35.5068 15.2857 35.5437 15.2673 35.5713 15.2489C35.7923 15.1384 36.0041 14.9912 36.1882 14.8348C36.9157 14.163 37.3024 13.1967 37.238 12.2029C37.2564 11.9084 37.0262 11.6507 36.7315 11.6415C36.7223 11.6415 36.7131 11.6415 36.7039 11.6415H35.0188L34.9451 11.7151V23.1262C34.9451 23.4206 34.7057 23.6599 34.4111 23.6599H34.3834C34.0888 23.6599 33.8494 23.4206 33.8494 23.1262V10.8133C33.8494 10.6292 33.923 10.5556 34.0796 10.5556H44.8347C44.9637 10.5372 45.0834 10.6292 45.0926 10.7581C45.0926 10.7765 45.0926 10.7949 45.0926 10.8133V22.4452C45.1018 22.8409 44.9176 23.2182 44.5953 23.4575C43.7021 23.8624 42.6984 23.9268 41.7592 23.6507C41.5014 23.6047 41.3172 23.3838 41.3172 23.1262V23.0157C41.3172 22.7213 41.5566 22.482 41.8513 22.482C41.8881 22.482 41.925 22.482 41.9618 22.4912C42.8734 22.6845 43.4627 22.6845 43.7113 22.4912C43.8863 22.39 43.9968 22.1967 43.9968 21.9943V16.7489C43.9968 16.4544 43.7574 16.2151 43.4627 16.2151H40.7463C40.4332 16.2151 40.2491 16.0311 40.2491 15.6722V12.1752C40.2491 11.8808 40.0096 11.6415 39.715 11.6415H38.877V11.6323ZM43.3614 8.48506H34.7057C34.6044 8.48506 34.5492 8.42985 34.5492 8.30101V4.83169C34.5492 4.45439 34.8623 4.14151 35.2398 4.14151H43.8955C44.0244 4.14151 44.0797 4.19672 44.0797 4.29795V7.76727C44.0797 8.16298 43.7666 8.48506 43.3706 8.48506H43.3614ZM35.691 5.2274L35.6358 5.28261V7.33476L35.691 7.38997H42.9286L42.9839 7.33476V5.27341L42.9286 5.21819H35.691V5.2274ZM35.8752 18.0188V17.9912C35.8752 17.6967 36.1146 17.4575 36.4092 17.4575H42.3762C42.6708 17.4575 42.9102 17.6967 42.9102 17.9912V18.0188C42.9102 18.3133 42.6708 18.5525 42.3762 18.5525H40.4516C40.157 18.5525 39.9176 18.7918 39.9176 19.0863V22.1323C39.9176 22.4268 39.6782 22.666 39.3835 22.666H39.3559C39.0612 22.666 38.8218 22.4268 38.8218 22.1323V19.0863C38.8218 18.7918 38.5824 18.5525 38.2877 18.5525H36.4185C36.1238 18.5525 35.8844 18.3133 35.8844 18.0188H35.8752ZM43.4719 15.12C43.7666 15.12 44.006 14.8808 44.006 14.5863V11.7151L43.9047 11.6323H41.8881C41.5935 11.6323 41.354 11.8716 41.354 12.166V14.3746C41.354 14.7887 41.6855 15.12 42.0999 15.12H43.4811H43.4719ZM46.4922 22.7029L46.4554 22.574C46.3817 22.2887 46.5567 22.0035 46.8421 21.9298C46.8513 21.9298 46.8698 21.9298 46.8882 21.9298L50.0097 21.4237C50.2676 21.3777 50.4609 21.1568 50.4609 20.8992V15.9022C50.4609 15.6078 50.2215 15.3685 49.9269 15.3685H46.971C46.8698 15.3685 46.8145 15.3133 46.8145 15.1844V4.04948C46.8145 3.68138 47.1092 3.3869 47.4775 3.3869H49.9269C50.2215 3.3869 50.4609 3.14764 50.4609 2.85316V1.00347C50.4609 0.70899 50.7004 0.469727 50.995 0.469727H51.1239C51.4186 0.469727 51.658 0.70899 51.658 1.00347V2.85316C51.658 3.14764 51.8974 3.3869 52.1921 3.3869H55.3597C55.4886 3.3869 55.5439 3.41451 55.5439 3.51574V14.6415C55.5439 15.0372 55.2216 15.3593 54.8348 15.3593H52.2013C51.9066 15.3593 51.6672 15.5986 51.6672 15.893V20.5035C51.6672 20.7979 51.9066 21.0372 52.2013 21.0372C52.2289 21.0372 52.2565 21.0372 52.2934 21.0372L54.1903 20.7151C54.4849 20.6691 54.6783 20.393 54.6323 20.0986C54.6323 20.0802 54.6323 20.0618 54.6231 20.0433C54.4757 19.5188 54.3284 19.0403 54.1719 18.6078C54.0706 18.3317 54.2087 18.028 54.4849 17.9268C54.4849 17.9268 54.5033 17.9268 54.5126 17.9268L54.6415 17.8808C54.9085 17.7979 55.194 17.9268 55.2952 18.1845C55.8754 19.7305 56.3082 21.3317 56.6028 22.9605C56.6581 23.2366 56.4831 23.5035 56.2161 23.5771L56.0595 23.6139C55.7741 23.6875 55.4794 23.5219 55.4057 23.2366C55.4057 23.2366 55.4057 23.2182 55.4057 23.209L55.194 22.2703C55.1295 21.9943 54.8625 21.8102 54.5862 21.8562L47.1092 23.0986C46.8329 23.1446 46.5751 22.9697 46.5014 22.7029H46.4922ZM50.4609 5.08936C50.4609 4.79488 50.2215 4.55562 49.9269 4.55562H48.0668L48.0116 4.61083V14.0894L48.0668 14.163H49.9269C50.2215 14.163 50.4609 13.9237 50.4609 13.6292V5.08936ZM51.658 13.6292C51.658 13.9237 51.8974 14.163 52.1921 14.163H54.2639L54.3376 14.0894V4.61083L54.2639 4.55562H52.1921C51.8974 4.55562 51.658 4.79488 51.658 5.08936V13.6292Z" fill="white"/>
<path d="M59.4942 14.3374C59.264 14.1166 59.1995 13.7669 59.3377 13.4816C60.1664 11.1626 60.811 8.78834 61.2806 6.3773C61.345 6.06442 61.1425 5.75153 60.8294 5.68712C60.7926 5.68712 60.7465 5.67791 60.7097 5.67791H59.4574C59.1351 5.67791 58.868 5.41104 58.868 5.08896C58.868 4.76687 59.1351 4.5 59.4574 4.5H61.124C61.4187 4.5 61.6673 4.28834 61.7042 3.99387L62.1185 1.01227C62.1646 0.690184 62.4592 0.469325 62.7815 0.515337C62.7815 0.515337 62.7907 0.515337 62.7999 0.515337H62.8184C63.1314 0.570552 63.3432 0.865031 63.2972 1.17791L62.9196 3.82822C62.8736 4.15031 63.0946 4.44479 63.4169 4.4908C63.4445 4.4908 63.4721 4.4908 63.4998 4.4908H66.6029C66.7871 4.4908 66.8608 4.59202 66.8147 4.8589V4.91411C66.7687 8.95399 66.0044 12.9571 64.5587 16.7301C64.4666 16.9601 64.5219 17.227 64.7152 17.3926L66.2162 18.6994C66.4372 18.8926 66.4832 19.2239 66.3175 19.4724V19.4908C66.1241 19.7577 65.765 19.8221 65.4979 19.6472C65.4795 19.638 65.4611 19.6196 65.4427 19.6012L64.4114 18.6994C64.172 18.4877 63.8036 18.5061 63.5918 18.7546C63.5734 18.7822 63.555 18.8006 63.5366 18.8282C62.5697 20.365 61.4095 21.773 60.0835 23.0153C59.8809 23.2086 59.5771 23.227 59.3469 23.0798L59.3192 23.0613C59.0522 22.8773 58.9785 22.5184 59.1627 22.2515C59.1903 22.2147 59.218 22.1779 59.2548 22.1411C60.2216 21.2853 61.0964 20.3374 61.8607 19.2975L61.8883 19.2607L62.7447 17.8804C62.892 17.6411 62.846 17.3282 62.6342 17.135L59.5126 14.3374H59.4942ZM65.0467 5.67791H63.1038C62.8276 5.67791 62.5789 5.87117 62.5329 6.14724C62.0265 8.6411 61.3819 11.1074 60.6176 13.5368C60.5624 13.6656 60.6176 13.7945 60.8018 13.9233L63.509 16.3436L63.6931 15.9018C64.2733 14.4847 64.7152 13.0031 65.0191 11.5031C65.3414 9.78221 65.544 8.04294 65.6361 6.29448C65.6545 5.97239 65.4059 5.69632 65.0836 5.67791C65.0744 5.67791 65.0559 5.67791 65.0467 5.67791ZM66.9989 14.3558V14.3282C66.9989 14.0061 67.2567 13.7485 67.579 13.7393H73.4907C73.8129 13.7393 74.08 13.4724 74.08 13.1503V11.8528C74.08 11.5307 73.8129 11.2638 73.4907 11.2638H69.8626C69.568 11.2914 69.3101 11.0798 69.2917 10.7853C69.2917 10.7485 69.2917 10.7025 69.2917 10.6656V4.01227C69.2917 3.69018 69.0247 3.42331 68.7024 3.42331H67.2659C66.9436 3.42331 66.6766 3.16564 66.6766 2.84356C66.6766 2.52147 66.9436 2.2546 67.2659 2.2546H68.7024C69.0247 2.2546 69.2917 1.98773 69.2917 1.66564V0.588957C69.2917 0.266871 69.5588 0 69.881 0H69.9087C70.231 0 70.498 0.266871 70.498 0.588957V1.68405C70.498 2.00613 70.765 2.27301 71.0873 2.27301H78.0671C78.3894 2.27301 78.6564 2.00613 78.6564 1.68405V0.588957C78.6564 0.266871 78.9143 0 79.2458 0H79.2734C79.5957 0 79.8627 0.266871 79.8627 0.588957V1.68405C79.8627 2.00613 80.1298 2.27301 80.4521 2.27301H82.0359C82.3581 2.27301 82.6252 2.53988 82.6252 2.86196C82.6252 3.18405 82.3673 3.45092 82.0359 3.45092H80.4521C80.1298 3.45092 79.8627 3.71779 79.8627 4.03988V10.1043C79.8627 10.7577 79.3287 11.2914 78.6749 11.2914H75.8664C75.5441 11.2914 75.277 11.5583 75.277 11.8804V13.1871C75.277 13.5092 75.5441 13.7761 75.8664 13.7761H81.9346C82.2569 13.7761 82.5239 14.0337 82.5239 14.3558V14.3834C82.5239 14.7055 82.2569 14.9724 81.9346 14.9724H76.8977C76.5754 14.9724 76.3084 15.2301 76.3084 15.5521C76.3084 15.681 76.3452 15.8006 76.4281 15.911C78.104 18.0276 80.1206 19.8589 82.3858 21.3313C82.6528 21.5061 82.7265 21.8742 82.5515 22.1411C82.5239 22.1779 82.4963 22.2147 82.4594 22.2515H82.441C82.2384 22.4448 81.9438 22.4724 81.7136 22.316C79.7154 20.9632 77.8922 19.362 76.2992 17.5491C76.0874 17.3098 75.719 17.2914 75.4704 17.5031C75.3415 17.6135 75.277 17.7699 75.277 17.9448V23.4479C75.277 23.7699 75.01 24.0368 74.6877 24.0368C74.3654 24.0368 74.0984 23.7699 74.0984 23.4479V17.862C74.0984 17.5399 73.8314 17.273 73.5091 17.273C73.3433 17.273 73.1868 17.3466 73.0763 17.4663C71.2807 19.5184 69.1352 21.2393 66.7503 22.5644C66.5108 22.6933 66.2162 22.6288 66.032 22.4264L65.9952 22.3804C65.7834 22.1319 65.811 21.7638 66.0596 21.5521C66.0873 21.5245 66.1149 21.5061 66.1517 21.4877C68.7024 20.0429 70.9768 18.1656 72.8737 15.9294C73.0855 15.681 73.0487 15.3129 72.8 15.1012C72.6987 15.0092 72.5606 14.9632 72.4225 14.9632H67.5974C67.2751 14.9632 67.0173 14.7055 67.0173 14.3834L66.9989 14.3558ZM78.0487 3.43252H71.0781C70.7558 3.43252 70.4888 3.69939 70.4888 4.02147V5.6411C70.4888 5.96319 70.7558 6.23006 71.0781 6.22086H78.0579C78.3802 6.22086 78.6472 5.96319 78.6472 5.6411V4.03067C78.6472 3.70859 78.3802 3.44172 78.0579 3.44172L78.0487 3.43252ZM70.4888 9.27607C70.4888 9.71779 70.8387 10.0675 71.2807 10.0675H77.8461C78.2881 10.0675 78.638 9.71779 78.638 9.27607V8.00613C78.638 7.68405 78.371 7.41718 78.0487 7.41718H71.0781C70.7558 7.41718 70.4888 7.68405 70.4888 8.00613V9.27607Z" fill="white"/>
<path d="M86.373 1.84063C86.373 1.27928 86.8242 0.828365 87.3859 0.828365H92.5517C93.1226 0.828365 93.5922 1.29769 93.5922 1.86824V6.948C93.5922 7.27928 93.8592 7.54616 94.1907 7.54616H94.559C94.7432 7.54616 94.7892 7.67499 94.7892 7.93266C94.7524 8.8161 94.6511 9.69033 94.4946 10.5646C94.4301 10.8866 94.117 11.0983 93.7948 11.0339C93.7948 11.0339 93.7855 11.0339 93.7763 11.0339H93.7027C93.4172 10.9603 93.2146 10.6934 93.2423 10.3897L93.362 8.89892C93.3896 8.79769 93.3344 8.74248 93.2054 8.74248H87.2661C86.8794 8.74248 86.5663 9.05536 86.5663 9.44186V10.5185C86.5663 10.8498 86.2993 11.1167 85.9678 11.1167C85.6363 11.1167 85.3693 10.8498 85.3693 10.5185V7.75781C85.3693 7.62898 85.4429 7.54616 85.5995 7.54616H85.7836C86.1151 7.54616 86.3822 7.27928 86.3822 6.948V1.84063H86.373ZM87.5976 23.5584C87.2661 23.5584 86.9991 23.2916 86.9991 22.9603V11.6597C86.9991 11.1903 87.3859 10.8038 87.8555 10.8038H92.8555C93.0581 10.8038 93.1686 10.9051 93.1686 11.0615V22.2793C93.1962 22.7302 92.9752 23.1535 92.5977 23.402C91.9715 23.6689 91.2717 23.7057 90.6271 23.494C90.3509 23.4388 90.1483 23.1903 90.1483 22.9051C90.1483 22.5738 90.4246 22.3069 90.7561 22.3069C90.8113 22.3069 90.8666 22.3069 90.9218 22.3345C91.152 22.4357 91.4098 22.4449 91.64 22.3621C91.8426 22.2609 91.9807 22.0492 91.9807 21.8192V19.813C91.9807 19.4817 91.7045 19.2149 91.3822 19.2241H88.8039C88.4724 19.2241 88.2054 19.4909 88.2054 19.8222V22.9787C88.2054 23.31 87.9383 23.5768 87.6069 23.5676L87.5976 23.5584ZM88.6474 7.54616C88.9789 7.54616 89.2459 7.27928 89.2459 6.948V3.92039C89.2459 3.73634 89.3196 3.66272 89.4761 3.66272H91.7966C92.1281 3.66272 92.3951 3.39585 92.3951 3.06456V2.79769C92.3951 2.36517 92.0452 2.01548 91.6124 2.01548H88.3527C87.9199 2.01548 87.5792 2.36517 87.57 2.79769V6.93879C87.57 7.27008 87.8371 7.53695 88.1686 7.53695H88.6382L88.6474 7.54616ZM91.373 14.448C91.7045 14.448 91.9715 14.1811 91.9715 13.8498V12.0738L91.8702 11.9909H88.2514L88.1962 12.0738V13.8498C88.1962 14.1811 88.4632 14.448 88.7947 14.448H91.373ZM91.9715 17.4112V16.2333C91.9715 15.902 91.7045 15.6351 91.373 15.6351H88.7947C88.4632 15.6351 88.1962 15.902 88.1962 16.2333V17.4112C88.1962 17.7425 88.4632 18.0093 88.7947 18.0093H91.373C91.7045 18.0093 91.9715 17.7517 91.9715 17.4204V17.4112ZM92.3951 6.9572V5.4664C92.3951 5.13511 92.1281 4.86824 91.7966 4.86824H91.1981C90.7837 4.86824 90.443 5.20873 90.443 5.62284V6.9572C90.443 7.28849 90.71 7.55536 91.0415 7.55536H91.8058C92.1373 7.55536 92.4043 7.28849 92.4043 6.9572H92.3951ZM98.2607 19.4357C98.1594 19.2333 97.9569 19.1044 97.7267 19.1044H96.5112C96.4099 19.1044 96.3546 19.0492 96.3546 18.9204V15.3038C96.3546 14.8897 96.6861 14.5492 97.1097 14.5492H107.036C107.165 14.5492 107.22 14.6044 107.22 14.7057V18.3222C107.22 18.7547 106.87 19.0952 106.438 19.0952H106.042C105.793 19.0952 105.563 19.2517 105.48 19.4909L105.047 20.6873L104.826 21.2578C104.706 21.5707 104.863 21.9112 105.176 22.0308C105.241 22.0584 105.314 22.0676 105.388 22.0676H107.837C108.169 22.0676 108.436 22.3345 108.436 22.6658C108.436 22.9971 108.169 23.2639 107.837 23.2639H95.664C95.3325 23.2639 95.0655 22.9971 95.0655 22.6658C95.0655 22.3345 95.3325 22.0676 95.664 22.0584H98.4541C98.7856 22.0584 99.0526 21.7916 99.0526 21.4603C99.0526 21.3866 99.0434 21.3222 99.0158 21.2486C98.7304 20.4756 98.4725 19.8682 98.2607 19.4173V19.4357ZM108.537 12.2026C108.537 12.5339 108.27 12.8008 107.939 12.8008H95.7745C95.443 12.8008 95.176 12.5339 95.176 12.2026C95.176 11.8713 95.443 11.6044 95.7745 11.6044H107.939C108.27 11.6044 108.537 11.8713 108.537 12.2026ZM107.156 1.84984C107.57 1.84984 107.911 2.19033 107.911 2.60444V9.69033C107.911 9.81916 107.856 9.87438 107.754 9.87438H95.9863C95.885 9.87438 95.8574 9.81916 95.8574 9.69033V2.57683C95.8574 2.17192 96.1797 1.84984 96.5848 1.84984H98.804C99.1355 1.84984 99.4025 1.58297 99.4025 1.25168V0.855972C99.4025 0.524684 99.6696 0.257812 100.001 0.257812C100.333 0.257812 100.6 0.524684 100.6 0.855972V1.25168C100.6 1.58297 100.867 1.84984 101.198 1.84984H102.276C102.607 1.84984 102.874 1.58297 102.874 1.25168V0.855972C102.874 0.524684 103.141 0.257812 103.473 0.257812C103.804 0.257812 104.071 0.524684 104.071 0.855972V1.25168C104.071 1.58297 104.338 1.84984 104.67 1.84984H107.165H107.156ZM99.4025 3.64432C99.4025 3.31303 99.1355 3.04616 98.804 3.04616H97.0913L97.036 3.10137V4.61057C97.036 4.94186 97.3031 5.20873 97.6346 5.20873H98.8132C99.1447 5.20873 99.4118 4.94186 99.4118 4.61057V3.63511L99.4025 3.64432ZM98.804 6.40505H97.6254C97.2939 6.40505 97.0268 6.67192 97.0268 7.00321V8.59524L97.0821 8.66886H98.804C99.1355 8.66886 99.4025 8.40199 99.4025 8.0707V6.99401C99.4025 6.66272 99.1355 6.39585 98.804 6.39585V6.40505ZM97.607 15.7455L97.5517 15.8008V17.8345L97.607 17.9081H105.94L106.023 17.8345V15.8008L105.95 15.7455H97.6162H97.607ZM103.408 21.6811L104.08 19.9051C104.2 19.6014 104.043 19.2517 103.74 19.1412C103.675 19.1136 103.601 19.1044 103.528 19.1044H100.268C99.9366 19.1044 99.6696 19.3713 99.6696 19.7026C99.6696 19.7762 99.688 19.859 99.7156 19.9235L100.434 21.6995C100.526 21.9204 100.747 22.0676 100.986 22.0676H102.856C103.104 22.0676 103.325 21.9204 103.417 21.6903L103.408 21.6811ZM102.266 3.04616H101.189C100.857 3.04616 100.59 3.31303 100.59 3.64432V4.61057C100.59 4.94186 100.857 5.20873 101.189 5.20873H102.266C102.598 5.20873 102.865 4.94186 102.865 4.61057V3.64432C102.865 3.31303 102.598 3.04616 102.266 3.04616ZM102.266 6.40505H101.189C100.857 6.40505 100.59 6.67192 100.59 7.00321V8.0799C100.59 8.41119 100.857 8.67806 101.189 8.67806H102.266C102.598 8.67806 102.865 8.41119 102.865 8.0799V7.00321C102.865 6.67192 102.598 6.40505 102.266 6.40505ZM104.66 5.20873H106.152C106.484 5.20873 106.751 4.94186 106.751 4.61057V3.10137L106.668 3.04616H104.66C104.329 3.04616 104.062 3.31303 104.062 3.64432V4.61057C104.062 4.94186 104.329 5.20873 104.66 5.20873ZM104.062 8.0707C104.062 8.40199 104.329 8.66886 104.66 8.66886H106.659L106.732 8.59524V7.00321C106.732 6.67192 106.465 6.40505 106.134 6.40505H104.642C104.311 6.40505 104.043 6.67192 104.043 7.00321V8.0799L104.062 8.0707Z" fill="white"/>
<path d="M111.557 11.8808L111.539 11.8624C111.364 11.6692 111.336 11.3839 111.474 11.163C112.368 9.71823 113.104 8.19062 113.666 6.5894V6.54339C114.283 4.75811 114.725 2.90842 115.01 1.04032C115.056 0.718232 115.36 0.488171 115.683 0.534183C115.701 0.534183 115.71 0.534183 115.729 0.534183C116.032 0.5986 116.235 0.893079 116.189 1.20596C115.913 3.10167 115.471 4.96977 114.872 6.78265C114.854 6.83786 114.845 6.90228 114.845 6.9667V23.1906C114.845 23.5219 114.578 23.7888 114.246 23.7888C113.915 23.7888 113.648 23.5219 113.648 23.1906V12.0557C113.648 11.7244 113.381 11.4575 113.058 11.4575C112.846 11.4575 112.653 11.5679 112.543 11.7428L112.515 11.798C112.34 12.0741 111.972 12.1569 111.695 11.982C111.649 11.9544 111.603 11.9176 111.567 11.8716L111.557 11.8808ZM118.417 23.844C118.086 23.844 117.819 23.5771 117.819 23.2458V13.3256C117.819 13.0679 117.948 12.9391 118.233 12.9391H133.445C133.731 12.9391 133.887 13.0679 133.887 13.3256V23.2458C133.887 23.5771 133.62 23.844 133.289 23.844C132.957 23.844 132.69 23.5771 132.69 23.2458V22.6385C132.69 22.3072 132.423 22.0403 132.092 22.0403H119.614C119.283 22.0403 119.016 22.3072 119.016 22.6385V23.2458C119.016 23.5771 118.749 23.844 118.417 23.844ZM131.88 10.4636H118.878C118.777 10.4636 118.721 10.4084 118.721 10.2796V2.0802C118.721 1.66608 119.062 1.32559 119.476 1.32559H132.478C132.607 1.32559 132.662 1.38081 132.662 1.48204V9.68142C132.662 10.1139 132.313 10.4636 131.88 10.4636ZM132.092 16.9974C132.423 16.9974 132.69 16.7305 132.69 16.3992V14.2826C132.69 14.1814 132.635 14.1262 132.506 14.1262H119.2C119.071 14.1262 118.988 14.1814 119.016 14.2826V16.39C119.016 16.7213 119.283 16.9882 119.614 16.9882H132.092V16.9974ZM119.016 18.7919V20.255C119.016 20.5863 119.283 20.8532 119.614 20.8532H132.092C132.423 20.8532 132.69 20.5863 132.69 20.255V18.7919C132.69 18.4606 132.423 18.1937 132.092 18.1937H119.614C119.283 18.1937 119.016 18.4606 119.016 18.7919ZM130.867 5.20903C131.198 5.20903 131.465 4.94216 131.465 4.61087V2.57713L131.392 2.52191H119.983L119.928 2.57713V4.61087C119.928 4.94216 120.195 5.20903 120.526 5.20903H130.867ZM120.517 6.39615C120.185 6.39615 119.918 6.66302 119.918 6.99431V9.18449L119.974 9.26731H131.383L131.456 9.18449V7.00351C131.456 6.67222 131.189 6.40535 130.858 6.40535H120.508L120.517 6.39615Z" fill="white"/>
<path d="M145.269 4.84034V4.94157C145.269 5.24525 145.02 5.49371 144.716 5.49371H138.16C137.856 5.49371 137.607 5.24525 137.607 4.94157V4.84034C137.607 4.53666 137.856 4.28819 138.16 4.28819H144.716C145.02 4.28819 145.269 4.53666 145.269 4.84034ZM138.418 23.8894H138.316C138.012 23.8894 137.764 23.641 137.764 23.3373V15.3587C137.764 14.8526 138.169 14.4477 138.675 14.4477H144.348C144.633 14.4477 144.734 14.5765 144.734 14.8342V20.2452C144.734 20.7882 144.292 21.2391 143.74 21.2391H139.504C139.2 21.2391 138.952 21.4876 138.952 21.7913V23.3465C138.952 23.6502 138.703 23.8894 138.399 23.8894H138.418ZM144.246 1.6931V1.79433C144.246 2.09801 143.998 2.34647 143.694 2.34647H138.86C138.556 2.34647 138.307 2.09801 138.307 1.79433V1.6931C138.307 1.38942 138.556 1.14095 138.86 1.14095H143.703C144.007 1.14095 144.256 1.38942 144.256 1.6931H144.246ZM144.145 8.38328V8.48451C144.145 8.78819 143.896 9.03666 143.593 9.03666H138.961C138.657 9.03666 138.408 8.78819 138.408 8.48451V8.38328C138.408 8.0796 138.657 7.83114 138.961 7.83114H143.593C143.896 7.83114 144.145 8.0796 144.145 8.38328ZM144.145 11.7422V11.8434C144.145 12.1471 143.896 12.3956 143.593 12.3956H138.961C138.657 12.3956 138.408 12.1471 138.408 11.8434V11.7422C138.408 11.4385 138.657 11.19 138.961 11.19H143.593C143.896 11.19 144.145 11.4385 144.145 11.7422ZM139.716 15.6348C139.302 15.6348 138.961 15.9753 138.961 16.3894V19.4814C138.961 19.7851 139.21 20.0336 139.513 20.0336H142.764C143.215 20.0336 143.574 19.6747 143.574 19.2238V16.3894C143.574 15.9753 143.234 15.6348 142.819 15.6348H139.725H139.716ZM151.843 6.99371H147.506C147.202 6.99371 146.954 6.74525 146.954 6.44157V6.34954C146.954 6.04586 147.202 5.79739 147.506 5.79739H151.852C152.156 5.79739 152.405 5.54893 152.405 5.24525V4.18696C152.405 3.88328 152.156 3.63482 151.852 3.63482H146.493C146.189 3.63482 145.941 3.38635 145.941 3.08267V2.98144C145.941 2.67776 146.189 2.4293 146.493 2.4293H148.491C148.795 2.4293 149.044 2.17163 149.035 1.86795C149.035 1.76672 149.007 1.67469 148.952 1.58267L148.933 1.55506C148.777 1.29739 148.86 0.975308 149.099 0.809664L149.228 0.726841C149.477 0.5704 149.799 0.625614 149.974 0.864878C150.25 1.26058 150.49 1.6839 150.701 2.11641C150.793 2.30966 150.987 2.4293 151.199 2.4293H154.882C155.066 2.4293 155.241 2.33727 155.342 2.18083C155.646 1.72991 155.904 1.3342 156.116 0.98451C156.272 0.726841 156.613 0.644019 156.871 0.800461L156.954 0.846473C157.212 1.00292 157.294 1.34341 157.138 1.60107C156.981 1.86795 157.073 2.19923 157.34 2.35568C157.423 2.40169 157.515 2.4293 157.607 2.4293H159.449C159.753 2.4293 160.002 2.67776 160.002 2.98144V3.08267C160.002 3.38635 159.753 3.63482 159.449 3.63482H154.136C153.832 3.63482 153.584 3.88328 153.584 4.18696V5.24525C153.584 5.54893 153.832 5.79739 154.136 5.79739H158.427C158.731 5.79739 158.98 6.04586 158.98 6.34954V6.45077C158.98 6.75445 158.731 7.00292 158.427 7.00292H154.136C153.832 7.00292 153.584 7.25138 153.584 7.55506V8.30966C153.584 8.61334 153.832 8.86181 154.136 8.86181H159.965C160.269 8.86181 160.517 9.11028 160.517 9.41396V9.51519C160.517 9.81887 160.269 10.0673 159.965 10.0673H145.987C145.683 10.0673 145.434 9.81887 145.434 9.51519V9.39555C145.434 9.09187 145.683 8.84341 145.987 8.84341H151.843C152.147 8.84341 152.396 8.59494 152.396 8.29126V7.54586C152.396 7.24218 152.147 6.99371 151.843 6.99371ZM154.062 15.736H151.088C150.784 15.736 150.536 15.9845 150.536 16.2882V16.8495C150.536 17.1532 150.793 17.4017 151.097 17.3925C151.171 17.3925 151.254 17.3741 151.318 17.3465L151.954 17.0428C152.211 16.9232 152.515 17.0152 152.663 17.2637L152.709 17.3373C152.856 17.6041 152.764 17.9354 152.497 18.0919C152.479 18.0919 152.469 18.1103 152.451 18.1103L150.858 18.8097C150.655 18.9017 150.536 19.0949 150.536 19.3158V21.9753C150.554 22.4538 150.315 22.914 149.909 23.1716C149.237 23.6041 148.077 23.6778 146.355 23.3649C146.088 23.3189 145.895 23.0888 145.895 22.8219V22.6839C145.895 22.3802 146.143 22.1318 146.456 22.141C146.484 22.141 146.512 22.141 146.539 22.141C147.359 22.3342 148.224 22.3342 149.044 22.141C149.21 22.0397 149.32 21.8649 149.329 21.6716V20.1532C149.329 19.8495 149.081 19.6011 148.768 19.6103C148.712 19.6103 148.666 19.6103 148.611 19.6287L146.475 20.2821C146.208 20.3649 145.932 20.236 145.812 19.9876L145.775 19.9048C145.655 19.6287 145.775 19.2974 146.06 19.1778C146.079 19.1778 146.097 19.1594 146.116 19.1594L148.933 18.2943C149.164 18.2207 149.32 18.0091 149.32 17.7698V16.279C149.32 15.9753 149.071 15.7268 148.768 15.7268H145.959C145.655 15.7268 145.407 15.4784 145.407 15.1747V15.0735C145.407 14.7698 145.655 14.5213 145.959 14.5213H148.768C149.071 14.5213 149.32 14.2729 149.32 13.9692V13.3434C149.32 13.0397 149.071 12.7913 148.768 12.7913C148.74 12.7913 148.712 12.7913 148.685 12.7913L147.423 12.9937C147.138 13.0397 146.871 12.8557 146.806 12.5888L146.788 12.5152C146.714 12.2207 146.898 11.917 147.193 11.8526C147.202 11.8526 147.221 11.8526 147.23 11.8526C148.666 11.6225 150.094 11.3097 151.502 10.9324C151.797 10.8495 152.092 11.0244 152.175 11.3097L152.193 11.3925C152.267 11.687 152.101 11.9814 151.806 12.0643L150.922 12.3035C150.683 12.3679 150.517 12.5888 150.517 12.8281V13.9692C150.517 14.2729 150.766 14.5213 151.07 14.5213H153.768C154.072 14.5213 154.32 14.2729 154.32 13.9692C154.32 13.9508 154.32 13.9416 154.32 13.9232C154.246 13.1225 154.191 12.3495 154.182 11.6225C154.182 11.3465 154.385 11.1072 154.661 11.0704L154.79 11.052C155.094 11.0152 155.37 11.2268 155.407 11.5305C155.407 11.5397 155.407 11.5489 155.407 11.5673L155.526 13.9968C155.545 14.2913 155.784 14.5213 156.079 14.5213H160.057C160.361 14.5213 160.609 14.7698 160.609 15.0735V15.1747C160.609 15.4784 160.361 15.7268 160.057 15.7268H156.401C156.097 15.7268 155.849 15.9753 155.849 16.279C155.849 16.3158 155.849 16.3526 155.858 16.3802C155.978 16.9692 156.125 17.5397 156.3 18.1103C156.392 18.3956 156.705 18.5612 157 18.46C157.092 18.4324 157.184 18.3679 157.248 18.2943L158.298 17.0428C158.482 16.8219 158.814 16.7851 159.044 16.9508L159.145 17.0244C159.394 17.2084 159.44 17.5489 159.265 17.7974C158.712 18.5428 158.096 19.2422 157.433 19.8864C157.248 20.0612 157.221 20.3465 157.35 20.5581L157.875 21.4232C158.188 21.8097 158.418 21.9661 158.574 21.9661C158.703 21.9937 158.814 21.8925 158.943 21.6532L159.403 20.6318C159.532 20.3557 159.854 20.236 160.14 20.3649C160.149 20.3649 160.158 20.3741 160.167 20.3833L160.315 20.4661C160.554 20.6041 160.665 20.8894 160.563 21.1471C160.324 21.8373 160.029 22.4998 159.67 23.144C159.375 23.6318 158.74 23.7882 158.261 23.4937C158.206 23.4569 158.16 23.4201 158.105 23.3833C157.442 22.8771 156.889 22.233 156.512 21.4876C156.355 21.2299 156.024 21.1379 155.766 21.2943C155.757 21.2943 155.738 21.3127 155.729 21.3127C154.9 21.9109 154.007 22.4262 153.077 22.8495C152.828 22.96 152.534 22.8679 152.386 22.6287L152.34 22.5551C152.184 22.2974 152.258 21.9661 152.515 21.8097C152.534 21.8005 152.552 21.7913 152.571 21.7821C153.639 21.2759 154.642 20.6594 155.572 19.9416L155.674 19.8679C155.167 18.6808 154.799 17.4385 154.578 16.1686C154.532 15.9109 154.302 15.7176 154.035 15.7176L154.062 15.736ZM158.086 10.8771C158.62 11.4753 159.118 12.1103 159.569 12.7729C159.735 13.0213 159.679 13.3526 159.44 13.5275L159.339 13.6011C159.09 13.7759 158.749 13.7299 158.565 13.4814C158.142 12.8557 157.672 12.2575 157.175 11.6962C156.972 11.4753 156.991 11.1256 157.212 10.9232C157.221 10.9232 157.23 10.9048 157.239 10.8956L157.34 10.8219C157.571 10.6471 157.902 10.6747 158.096 10.8956L158.086 10.8771Z" fill="white"/>
<path d="M173.897 4.62003C174.191 4.73046 174.348 5.05255 174.247 5.35623C173.63 7.15071 173.105 8.59549 172.663 9.69058C172.543 9.98506 172.681 10.3256 172.985 10.4544C173.059 10.482 173.133 10.5004 173.206 10.5004H176.005C176.328 10.5004 176.595 10.7581 176.595 11.0894V11.117C176.595 11.4391 176.328 11.7059 176.005 11.7059H163.814C163.492 11.7059 163.224 11.4391 163.224 11.117V11.0986C163.224 10.7765 163.492 10.5096 163.814 10.5096H170.656C170.886 10.5096 171.097 10.3716 171.199 10.1507C171.926 8.46666 172.571 6.755 173.133 5.00654C173.225 4.70286 173.547 4.52801 173.86 4.62003C173.869 4.62003 173.878 4.62003 173.888 4.62924L173.897 4.62003ZM169.781 0.469727H169.808C170.131 0.469727 170.398 0.736598 170.388 1.05868V1.68445C170.388 2.00654 170.655 2.27341 170.978 2.27341H175.306C175.628 2.27341 175.895 2.54028 175.886 2.86236C175.886 3.18445 175.628 3.44212 175.306 3.45132H164.55C164.228 3.45132 163.961 3.19365 163.961 2.87157C163.961 2.54948 164.228 2.28261 164.55 2.28261H168.611C168.934 2.28261 169.201 2.01574 169.191 1.69365V1.06789C169.191 0.7458 169.449 0.478929 169.772 0.478929L169.781 0.469727ZM165.536 23.7335H165.508C165.186 23.7335 164.919 23.4667 164.928 23.1446V14.6507C164.928 14.3654 165.057 14.2642 165.315 14.2642H174.109C174.652 14.2642 175.085 14.6967 175.085 15.2397V23.1538C175.085 23.4759 174.827 23.7427 174.505 23.7427H174.477C174.155 23.7427 173.888 23.4759 173.897 23.1538V22.528C173.897 22.2059 173.63 21.9391 173.307 21.9391H166.714C166.392 21.9391 166.134 22.1967 166.134 22.528V23.1538C166.134 23.4759 165.867 23.7427 165.545 23.7427L165.536 23.7335ZM166.484 4.99733C167 6.28568 167.433 7.59243 167.801 8.92678C167.884 9.23966 167.7 9.56175 167.377 9.64457C167.064 9.71819 166.751 9.53414 166.668 9.23046C166.309 7.94212 165.895 6.68138 165.407 5.42985C165.287 5.12617 165.434 4.78568 165.738 4.66605C165.757 4.66605 165.766 4.65684 165.784 4.64764C166.079 4.55562 166.392 4.70286 166.503 4.98813L166.484 4.99733ZM173.298 20.7703C173.621 20.7703 173.888 20.5035 173.888 20.1814V15.5802C173.888 15.4789 173.832 15.4237 173.703 15.4237H166.309C166.18 15.4237 166.097 15.4789 166.125 15.6078V20.1722C166.125 20.4943 166.383 20.7611 166.705 20.7611H173.298V20.7703ZM179.781 2.34703C179.366 2.34703 179.035 2.67832 179.035 3.09243V23.0802C179.035 23.4022 178.768 23.6691 178.446 23.6691H178.418C178.096 23.6691 177.838 23.4114 177.838 23.0802V1.32555C177.838 1.22433 177.921 1.14151 178.022 1.14151C178.022 1.14151 178.04 1.14151 178.05 1.14151H185.131C185.269 1.14151 185.398 1.18752 185.499 1.27034L185.794 1.5096C185.978 1.66605 186.052 1.90531 185.978 2.13537L183.713 9.41451C183.657 9.58016 183.667 9.755 183.74 9.91144C184.808 11.1446 185.692 12.5157 186.383 13.9973C186.383 14.0157 186.402 14.0341 186.402 14.0525C187.203 16.4084 187.193 18.2949 186.42 19.6937C186.116 20.2826 185.628 20.7703 185.039 21.074C184.541 21.2949 184.017 21.4053 183.473 21.4145C182.7 21.3593 181.945 21.1845 181.227 20.89C180.969 20.8071 180.812 20.5587 180.831 20.2918V20.1814C180.867 19.8593 181.153 19.62 181.475 19.6476C181.521 19.6476 181.576 19.666 181.622 19.6752C182.506 20.071 183.492 20.1814 184.449 19.9789C185.591 19.5648 186.033 18.2305 185.858 16.0495C185.858 16.0219 185.858 15.9851 185.849 15.9575C185.527 14.4298 184.403 12.4605 182.525 10.0403C182.396 9.91144 182.35 9.71819 182.424 9.54335L184.495 3.10163C184.597 2.79795 184.422 2.46666 184.118 2.36543C184.063 2.34703 183.998 2.33782 183.934 2.33782H179.799L179.781 2.34703Z" fill="white"/>
</g>
<defs>
<clipPath id="clip0_326_3101">
<rect width="187" height="24" fill="white"/>
</clipPath>
</defs>
</svg>
