<svg xmlns="http://www.w3.org/2000/svg" width="163" height="32" fill="none"><g clip-path="url(#a)"><path fill="#F46C00" d="M29.719.063C29.029.012 23.927 0 16.06 0S3.102.012 2.406.063c-.7.051-1.287.234-1.697.636-.407.4-.591.96-.643 1.63C.016 2.996 0 8.145 0 15.978s.015 12.985.066 13.654.236 1.233.64 1.629 1 .576 1.697.636c.7.06 5.792.102 13.658.102s12.958-.042 13.658-.102 1.287-.234 1.7-.636c.404-.396.588-.96.64-1.63.05-.665.063-5.82.063-13.653s-.012-12.982-.063-13.65c-.052-.67-.236-1.23-.64-1.63-.41-.405-1-.585-1.7-.636"/><path fill="#fff" d="M21.832 7.138c-1.227-.06-2.886-.084-5.768-.084s-4.547.024-5.77.084c-1.225.06-2.292.42-3.076 1.128-.85.77-1.342 1.884-1.363 3.171-.02 1.29-.024 2.091-.024 4.173s.006 2.904.024 4.174c.021 1.269.51 2.4 1.36 3.17.784.712 1.857 1.066 3.075 1.129s2.886.12 5.771.12 4.54-.057 5.768-.12c1.22-.066 2.294-.42 3.075-1.128.85-.771 1.342-1.902 1.36-3.171.02-1.27.027-2.086.027-4.174s-.006-2.883-.027-4.173-.513-2.403-1.363-3.171c-.784-.708-1.854-1.071-3.075-1.128z"/><path fill="#000" d="M20.176 10.678h-.859v6.063h.86c.726 0 .97-.516.97-1.08v-3.9c0-.564-.244-1.08-.97-1.08zM14.158 19.717c.079 1.002.594 1.857 1.909 1.857s1.83-.855 1.908-1.857h-3.817M12.901 15.748c0 .543-.235 1.038-.931 1.038s-.932-.495-.932-1.038v-5.07h1.86v5.07z"/><path fill="#fff" d="M37.486 7.006h.898v15.076c-.473.087-.938.18-1.384.282l-.033.006.322 1.473.034-.006c1.99-.444 3.859-.933 5.553-1.446v4.365h1.532V7.006h1.052v-1.45H37.49v1.45zm2.403 3.786v-3.79h2.984v3.79zm0 5.004V12.14h2.984v3.657zm0 5.929v-4.612h2.984v3.874c-.943.219-1.947.468-2.984.738M58.91 15.133l.006.033 1.276-.276-.01-.033a22 22 0 0 0-1.233-3.288l-.012-.027-1.194.33.015.036q.282.672.546 1.29l-2.644.372c1.68-2.136 2.93-4.071 3.724-5.751l.011-.027-1.079-.642-.033-.018-.015.033a37 37 0 0 1-1.64 2.952c-.483-.591-.95-1.14-1.39-1.638a32 32 0 0 0 2.014-3.397l.015-.033-1.218-.522-.015.03A24.5 24.5 0 0 1 54.29 7.54a7 7 0 0 0-.59-.57l-.028-.025-.784 1.099.021.02a23 23 0 0 1 2.907 3.18 128 128 0 0 1-1.978 2.548l-.72.108.011.039c.136.396.23.789.28 1.167v.033l5.295-.756q.123.375.196.75zM50.39 18.772c0 .627-.043 1.227-.124 1.791h-2.144v-4.377h-1.531v5.721h3.32q-.147.361-.314.732c-.51 1.084-1.523 2.122-3.015 3.088l-.037.024 1.128 1.116.024-.015c1.59-1.041 2.708-2.202 3.323-3.454.597-1.284.901-2.84.901-4.626v-2.898H50.39zM57.83 20.77h-2.29v-4.899h-1.532V26.81h.057c.841 0 1.474-.63 1.474-1.467v-3.229h3.8v-5.928h-1.505v4.584zM51.638 11.725l-.01-.027-1.22.219.015.039c.145.393.286.801.422 1.209l-2.415.297c1.727-2.067 3.024-3.96 3.85-5.622l.012-.027-1.11-.714-.018.033a38 38 0 0 1-1.667 2.826c-.443-.516-.895-1.032-1.338-1.536a27 27 0 0 0 2.089-3.318l.018-.033-1.218-.55-.015.027a29 29 0 0 1-1.821 2.959c-.211-.213-.42-.405-.615-.573l-.03-.024-.757 1.152.024.018c.98.822 1.957 1.83 2.903 2.997a170 170 0 0 1-2.104 2.574l-1.028.135.012.04c.136.395.23.788.28 1.166v.033l5.267-.65q.075.4.148.725l.006.03 1.212-.186.033-.006-.006-.033a18.3 18.3 0 0 0-.925-3.183zM66.095 26.753h1.531v-1.224h14.3v1.26h.058c.841 0 1.474-.63 1.474-1.468v-8.277H66.095zm15.832-8.26v5.586h-14.3v-5.586zM81.098 12.382H68.199v1.422h12.898z"/><path fill="#fff" d="M86.31 13.063c-5.424-2.676-9.114-5.53-10.968-8.482l-.01-.015h-1.371l-.01.015c-2.091 2.935-5.824 5.86-11.097 8.692l-.033.018.805 1.281.027-.015c4.637-2.38 8.324-5.238 10.965-8.494 2.234 3.052 5.864 5.857 10.788 8.338l.027.012.91-1.332-.036-.018zM103.161 12.487V7.573c2.816-.396 5.412-.94 7.725-1.611l.042-.012-.766-1.287-.012-.024-.024.009c-2.858.864-5.705 1.425-8.46 1.665h-.03v8.085c0 2.451-.163 4.615-.486 6.43a15.2 15.2 0 0 1-1.87 5.094l-.017.03 1.42.735.015-.027c.938-1.578 1.592-3.354 1.942-5.286s.527-4.278.527-6.976v-.486h4.191v12.856h.03c.841 0 1.475-.63 1.475-1.467V13.912h3.054V12.49h-8.75zM99.374 21.298a20.2 20.2 0 0 1-3.732-3.138v-.369h4.54v-1.449h-4.54V13.7h4.055v-1.422H97.81l1.058-3.972h1.317V6.883h-4.54V4.485h-1.532v2.398h-4.721v1.422h1.495l.983 3.972h-2.068v1.422h4.311v2.643h-4.9v1.45h4.596c-.57.998-1.191 1.928-1.843 2.756-.832 1.017-1.917 2.095-3.228 3.202l-.028.024 1.025 1.01.025-.02c1.432-1.23 2.571-2.37 3.391-3.39.32-.409.646-.85.965-1.318v6.7h1.532v-6.874c1.037 1.164 2.08 2.127 3.102 2.856l.033.024.618-1.446-.024-.015zm-2.089-12.99-1.01 3.972h-2.846l-.935-3.972h4.791M133.263 23.884l-.108-1.161h-.034q-1.009.108-2.041.207v-7.17h1.951v-1.24h-13.308v1.24h1.923v7.827c-.793.018-1.583.051-2.354.105h-.034l.055 1.266h.033c3.582-.138 7.013-.357 10.203-.648v2.028h1.531v-2.193a49 49 0 0 1 2.15-.255h.033zm-3.714-2.289v1.473c-2.069.156-4.221.303-6.398.438v-1.911zm0-2.841v1.704h-6.398v-1.704zm0-2.997v1.86h-6.398v-1.86z"/><path fill="#fff" d="M128.059 5.244v7.65h7.312v11.587c0 .45-.224.67-.685.67h-2.355l.13.464c.184.667.742 1.09 1.438 1.09h1.016c1.3 0 1.96-.679 1.96-2.014V5.244h-8.819zm1.505 3.255V6.483h5.807V8.5zm0 3.153V9.739h5.807v1.915zM124.767 5.244h-8.843v21.509h1.504V12.892h7.339v-7.65zm-1.532 4.494v1.915h-5.807V9.738zm0-3.255V8.5h-5.807V6.483zM141.66 18.613c-.118 1.224-.241 2.136-.359 2.706-.103.61-.362 1.665-.796 3.229l-.009.036 1.501.213h.031l.009-.024c.355-1.363.597-2.398.717-3.079.121-.696.232-1.695.335-2.973v-.033l-1.423-.108v.033zM148.754 18.502l-1.29.054h-.037l.003.036c.154 1.677.239 3.183.257 4.48v.032h1.35v-.033c.019-.849-.078-2.376-.28-4.536v-.033zM160.048 21.32h-4.037c-.223 0-.325-.097-.325-.307v-4.188h4.848v-1.344h-3.003v-2.643h3.003v-1.344h-1.499l1.128-3.04-1.399-.24-.027-.005-1.131 3.288h-1.541l-1.019-3.363-.009-.03-1.426.327.998 3.066h-1.655v1.344h3.181v2.643h-3.181v1.344h1.206v4.473c0 .972.485 1.467 1.444 1.467h4.447V21.32z"/><path fill="#fff" d="m148.344 12.951-.009-.027-1.324.22.012.038c.199.573.377 1.146.528 1.704l-3.425.253a53 53 0 0 0 4.526-7.135l.018-.033-1.366-.615-.03-.012-.015.03a48 48 0 0 1-2.31 4.074 29 29 0 0 0-1.724-1.926 48 48 0 0 0 2.704-4.41l.018-.033-1.29-.561-.03-.012-.016.03a31 31 0 0 1-2.412 4 4 4 0 0 0-.539-.496l-.027-.02-.814 1.175-.019.024.025.021a28 28 0 0 1 3.316 3.441 153 153 0 0 1-1.951 2.599l-1.371.102h-.034l.109 1.425 3.537-.312v10.263h1.531V16.387l1.915-.177q.075.48.175.936l.006.03 1.477-.22-.009-.035a29 29 0 0 0-1.182-3.967zM150.461 5.556v21.196h1.504V7.005h9.527v17.11c0 .696-.34 1.035-1.043 1.035h-1.996l.13.465c.184.666.742 1.089 1.438 1.089h.479c1.659 0 2.497-.852 2.497-2.535V5.556h-12.539z"/></g><defs><clipPath id="a"><path fill="#fff" d="M0 0h163v32H0z"/></clipPath></defs></svg>