<svg width="12" height="11" viewBox="0 0 12 11" xmlns="http://www.w3.org/2000/svg">
<path d="M2.46445 10.8751C2.30483 10.8751 2.17114 10.8212 2.06339 10.7135C1.95577 10.6059 1.90195 10.4722 1.90195 10.3126C1.90195 10.153 1.95577 10.0194 2.06339 9.91173C2.17114 9.80398 2.30483 9.75011 2.46445 9.75011H7.28452C8.06727 9.75011 8.74083 9.49167 9.3052 8.9748C9.8697 8.45805 10.152 7.81986 10.152 7.06023C10.152 6.30061 9.8697 5.66355 9.3052 5.14905C8.74083 4.63467 8.06727 4.37748 7.28452 4.37748H2.01877L3.71058 6.0693C3.8192 6.17805 3.87352 6.3098 3.87352 6.46455C3.87352 6.6193 3.8192 6.75105 3.71058 6.8598C3.60195 6.96842 3.46902 7.02155 3.31177 7.01917C3.15452 7.01667 3.02402 6.96355 2.92027 6.8598L0.350016 4.28955C0.279766 4.2193 0.230266 4.14523 0.201516 4.06736C0.172641 3.98948 0.158203 3.90536 0.158203 3.81498C0.158203 3.72461 0.172641 3.64048 0.201516 3.56261C0.230266 3.48473 0.279766 3.41067 0.350016 3.34042L2.92027 0.770359C3.02889 0.661734 3.16058 0.607422 3.31533 0.607422C3.4702 0.607422 3.60195 0.661734 3.71058 0.770359C3.8192 0.878984 3.87233 1.01192 3.86995 1.16917C3.86758 1.3263 3.81445 1.4568 3.71058 1.56067L2.01877 3.25248H7.28452C8.38164 3.25248 9.32133 3.61861 10.1036 4.35086C10.8858 5.08311 11.277 5.98623 11.277 7.06023C11.277 8.13423 10.8858 9.03855 10.1036 9.77317C9.32133 10.5078 8.38164 10.8751 7.28452 10.8751H2.46445Z" fill="currentColor"/>
</svg>
