<svg xmlns="http://www.w3.org/2000/svg" width="80" height="94" fill="none"><path stroke="#fff" stroke-linecap="round" stroke-linejoin="round" stroke-miterlimit="10" stroke-width="4" d="M31 44a3 3 0 1 0-6 0v10c0 8.284 6.716 15 15 15s15-6.716 15-15v-7a3 3 0 1 0-6 0v-2a3 3 0 1 0-6 0v-2a3 3 0 1 0-6 0V28a3 3 0 1 0-6 0v25z"/><g stroke="#fff" stroke-linecap="round" stroke-linejoin="round" stroke-miterlimit="10" stroke-width="2"><path d="M15 47H1"><animate attributeName="d" dur="1.2s" keyTimes="0;0.5;1" repeatCount="indefinite" values="M15 47H1;M13 47H3;M15 47H1"/></path><path d="m4 44-3 3 3 3"><animateTransform attributeName="transform" dur="1.2s" keyTimes="0;0.5;1" repeatCount="indefinite" type="translate" values="0 0; -2 0; 0 0"/></path></g><g stroke="#fff" stroke-linecap="round" stroke-linejoin="round" stroke-miterlimit="10" stroke-width="2"><path d="M65 47h14"><animate attributeName="d" dur="1.2s" keyTimes="0;0.5;1" repeatCount="indefinite" values="M65 47H79;M67 47H77;M65 47H79"/></path><path d="m76 50 3-3-3-3"><animateTransform attributeName="transform" dur="1.2s" keyTimes="0;0.5;1" repeatCount="indefinite" type="translate" values="0 0; 2 0; 0 0"/></path></g><g stroke="#fff" stroke-linecap="round" stroke-linejoin="round" stroke-miterlimit="10" stroke-width="2"><path d="M40 15V1"><animate attributeName="d" dur="1.2s" keyTimes="0;0.5;1" repeatCount="indefinite" values="M40 15V1;M40 13V3;M40 15V1"/></path><path d="m43 4-3-3-3 3"><animateTransform attributeName="transform" dur="1.2s" keyTimes="0;0.5;1" repeatCount="indefinite" type="translate" values="0 0; 0 -2; 0 0"/></path></g><g stroke="#fff" stroke-linecap="round" stroke-linejoin="round" stroke-miterlimit="10" stroke-width="2"><path d="M40 79v14"><animate attributeName="d" dur="1.2s" keyTimes="0;0.5;1" repeatCount="indefinite" values="M40 79V93;M40 81V91;M40 79V93"/></path><path d="m37 90 3 3 3-3"><animateTransform attributeName="transform" dur="1.2s" keyTimes="0;0.5;1" repeatCount="indefinite" type="translate" values="0 0; 0 2; 0 0"/></path></g></svg>