<svg xmlns="http://www.w3.org/2000/svg" width="52" height="52" fill="none"><path fill="#56C22B" d="M13.859 18.58a14.9 14.9 0 0 1 2.327-2.996L8.543 7.201a26.1 26.1 0 0 0-4.851 6.316l10.16 5.063z"/><path fill="#DDA63A" d="M32.589 12.659c1.16.527 2.236 1.21 3.206 2.011l7.663-8.369a26 26 0 0 0-6.791-4.24z"/><path fill="#C5192D" d="m50.137 15.184-10.16 5.063c.486 1.133.83 2.335 1.02 3.587l11.299-1.069a25.8 25.8 0 0 0-2.159-7.588"/><path fill="#4C9F38" d="m39.254 18.777 10.152-5.064a26.2 26.2 0 0 0-4.745-6.3l-7.664 8.368a14.7 14.7 0 0 1 2.25 2.996"/><path fill="#3F7E44" d="M11.84 25.993c0-.225.008-.457.015-.682L.556 24.298a26.096 26.096 0 0 0 .71 7.982l10.912-3.13a14.6 14.6 0 0 1-.344-3.157"/><path fill="#FCC30B" d="M37.834 35.282a14.8 14.8 0 0 1-2.757 2.595l5.97 9.663a26.1 26.1 0 0 0 5.842-5.429z"/><path fill="#FF3A21" d="M41.16 25.993c0 1.069-.113 2.117-.338 3.115l10.912 3.137a25.9 25.9 0 0 0 .717-7.848l-11.299 1.069c0 .175.007.351.007.527"/><path fill="#FF9F24" d="m15.35 35.501-9.028 6.864a26.4 26.4 0 0 0 5.898 5.345l5.97-9.656a14.9 14.9 0 0 1-2.834-2.56"/><path fill="#0A97D9" d="M12.024 23.679c.203-1.28.569-2.497 1.082-3.643L2.954 14.979A25.8 25.8 0 0 0 .71 22.667z"/><path fill="#A21942" d="m39.655 48.414-5.955-9.65a14.6 14.6 0 0 1-3.48 1.414l2.102 11.161a25.7 25.7 0 0 0 7.333-2.925"/><path fill="#26BDE2" d="M40.386 30.697a14.5 14.5 0 0 1-1.59 3.27l9.064 6.836a26 26 0 0 0 3.43-6.97z"/><path fill="#FF6924" d="M28.616 40.502c-.689.098-1.399.155-2.116.155q-.864-.002-1.709-.099L22.69 51.72a25.986 25.986 0 0 0 8.015-.063l-2.102-11.154z"/><path fill="#E8203A" d="M27.435 11.365c1.259.077 2.475.323 3.628.703L35.141 1.47A25.9 25.9 0 0 0 27.435.007v11.358"/><path fill="#DD1367" d="M23.182 40.276a14.5 14.5 0 0 1-3.6-1.365l-5.97 9.656a26 26 0 0 0 7.467 2.855l2.102-11.154z"/><path fill="#19486A" d="M22.092 12.012a14.7 14.7 0 0 1 3.705-.661V0c-2.728.07-5.35.57-7.804 1.42l4.106 10.585z"/><path fill="#BF8B2E" d="M14.358 34.2a14.7 14.7 0 0 1-1.73-3.468l-10.905 3.13a25.9 25.9 0 0 0 3.6 7.201z"/><path fill="#00689D" d="M17.416 14.495c.956-.76 2.011-1.4 3.143-1.906L16.46 2.005a26 26 0 0 0-6.686 4.1l7.65 8.39z"/></svg>