<svg width="19" height="19" viewBox="0 0 19 19" fill="none" xmlns="http://www.w3.org/2000/svg">
<path d="M18.05 13.6167C17.9325 13.5139 17.7897 13.4583 17.6429 13.4583H16.9643V3.16667C16.9643 2.32681 16.6783 1.52136 16.1693 0.927495C15.6603 0.33363 14.9699 0 14.25 0H2.71429C1.99441 0 1.30402 0.33363 0.794996 0.927495C0.285969 1.52136 0 2.32681 0 3.16667C0 4.51349 0.852455 5.29823 0.95 5.38333C1.06714 5.48682 1.21021 5.54246 1.35714 5.54167C1.49857 5.54121 1.63634 5.48922 1.7512 5.39296C1.86605 5.29669 1.95226 5.16096 1.99777 5.00474C2.04327 4.84852 2.04581 4.67961 2.00501 4.52163C1.96421 4.36365 1.88213 4.22449 1.77022 4.12359C1.76683 4.11865 1.35714 3.73469 1.35714 3.16667C1.35714 2.74674 1.50013 2.34401 1.75464 2.04708C2.00915 1.75015 2.35435 1.58333 2.71429 1.58333C3.07422 1.58333 3.41942 1.75015 3.67393 2.04708C3.92844 2.34401 4.07143 2.74674 4.07143 3.16667V15.8333C4.07143 16.6732 4.3574 17.4786 4.86642 18.0725C5.37545 18.6664 6.06584 19 6.78571 19H16.2857C17.0056 19 17.696 18.6664 18.205 18.0725C18.714 17.4786 19 16.6732 19 15.8333C19 14.4865 18.1518 13.7018 18.05 13.6167ZM8.14286 6.33333H13.5714C13.7514 6.33333 13.924 6.41674 14.0513 6.56521C14.1785 6.71367 14.25 6.91504 14.25 7.125C14.25 7.33496 14.1785 7.53633 14.0513 7.68479C13.924 7.83326 13.7514 7.91667 13.5714 7.91667H8.14286C7.96289 7.91667 7.79029 7.83326 7.66304 7.68479C7.53578 7.53633 7.46429 7.33496 7.46429 7.125C7.46429 6.91504 7.53578 6.71367 7.66304 6.56521C7.79029 6.41674 7.96289 6.33333 8.14286 6.33333ZM7.46429 10.2917C7.46429 10.0817 7.53578 9.88034 7.66304 9.73187C7.79029 9.58341 7.96289 9.5 8.14286 9.5H13.5714C13.7514 9.5 13.924 9.58341 14.0513 9.73187C14.1785 9.88034 14.25 10.0817 14.25 10.2917C14.25 10.5016 14.1785 10.703 14.0513 10.8515C13.924 10.9999 13.7514 11.0833 13.5714 11.0833H8.14286C7.96289 11.0833 7.79029 10.9999 7.66304 10.8515C7.53578 10.703 7.46429 10.5016 7.46429 10.2917ZM16.2857 17.4167H8.45754C8.69653 16.9356 8.82208 16.3893 8.82143 15.8333C8.8216 15.5649 8.787 15.298 8.71879 15.0417H17.3706C17.539 15.2596 17.6361 15.54 17.6446 15.8333C17.6446 16.0414 17.6094 16.2475 17.5411 16.4397C17.4728 16.6319 17.3727 16.8066 17.2465 16.9536C17.1203 17.1007 16.9704 17.2173 16.8056 17.2967C16.6407 17.3762 16.4641 17.4169 16.2857 17.4167Z" fill="white"/>
</svg>
