<svg width="840" height="780" viewBox="0 0 840 780" fill="none" xmlns="http://www.w3.org/2000/svg">
<rect width="360" height="360" transform="matrix(0.866025 -0.5 0.866025 0.5 108 587)" fill="url(#paint0_linear_326_3190)"/>
<rect width="360" height="360" transform="matrix(0.866025 -0.5 0.866025 0.5 108 587)" fill="url(#paint1_linear_326_3190)" fill-opacity="0.5"/>
<rect width="360" height="360" transform="matrix(0.866025 -0.5 0.866025 0.5 108 587)" stroke="#56C02B" stroke-linejoin="bevel"/>
<path d="M134.5 585.02L143.957 579.56L147.629 581.68L138.172 587.14L134.5 585.02ZM144.858 590.72L153.761 585.58L157.363 587.66L148.461 592.8L144.858 590.72ZM157.086 598.62C158.126 597.727 159.292 596.667 160.585 595.44C161.855 594.2 163.137 592.94 164.43 591.66L168.483 593.44C167.329 594.64 166.151 595.84 164.95 597.04C163.749 598.24 162.629 599.353 161.59 600.38L157.086 598.62ZM139.835 584.66L143.438 582.58L164.326 594.64L161.59 597.22L139.835 584.66ZM153.276 583.58L174.58 571.28L177.836 573.16L156.532 585.46L153.276 583.58ZM166.301 584.54L168.241 585.66L178.01 580.02L176.07 578.9L166.301 584.54ZM159.754 585L177.143 574.96L184.799 579.38L167.409 589.42L159.754 585ZM161.451 571.66L163.772 573L166.024 571.7L163.703 570.36L161.451 571.66ZM156.532 574.5L158.853 575.84L161.07 574.56L158.749 573.22L156.532 574.5ZM151.682 577.3L154.003 578.64L156.151 577.4L153.83 576.06L151.682 577.3ZM145.551 577.64L164.465 566.72L172.328 571.26L153.414 582.18L145.551 577.64ZM177.109 582.34C178.864 582.793 180.677 583.093 182.547 583.24C184.441 583.373 186.37 583.313 188.333 583.06C190.296 582.807 192.247 582.36 194.187 581.72C194.141 582.173 194.187 582.72 194.325 583.36C194.464 584 194.672 584.533 194.949 584.96C191.508 585.933 188.078 586.367 184.661 586.26C181.266 586.14 177.882 585.6 174.511 584.64L177.109 582.34ZM183.968 579.9L189.095 579.78C188.587 580.66 188.067 581.547 187.536 582.44C187.005 583.307 186.473 584.08 185.942 584.76L182.097 584.74C182.328 584.287 182.571 583.773 182.825 583.2C183.079 582.6 183.31 582.013 183.517 581.44C183.748 580.853 183.898 580.34 183.968 579.9ZM172.224 584.52L176.243 583.6C176.289 584.587 176.139 585.673 175.792 586.86C175.446 588.02 174.915 589.18 174.199 590.34C173.506 591.487 172.698 592.567 171.774 593.58C171.104 593.487 170.261 593.413 169.245 593.36C168.252 593.293 167.386 593.273 166.647 593.3C167.64 592.38 168.553 591.4 169.384 590.36C170.192 589.307 170.85 588.273 171.358 587.26C171.867 586.247 172.155 585.333 172.224 584.52ZM179.014 594.52C178.506 594.333 177.825 594.153 176.97 593.98C176.139 593.82 175.446 593.713 174.892 593.66C175.03 593.393 175.077 593.073 175.03 592.7C174.984 592.3 174.603 591.893 173.887 591.48L171.012 589.82L173.541 587.44L179.603 590.94C179.603 590.94 179.522 591.093 179.361 591.4C179.222 591.693 179.06 592.053 178.876 592.48C178.714 592.92 178.622 593.333 178.598 593.72C178.598 594.093 178.737 594.36 179.014 594.52ZM179.014 594.52L176.035 593.08L176.416 591.62L182.097 586.74C182.49 587.047 182.986 587.373 183.587 587.72C184.164 588.053 184.661 588.327 185.076 588.54C183.829 589.66 182.813 590.58 182.028 591.3C181.266 592.007 180.665 592.567 180.227 592.98C179.834 593.393 179.534 593.713 179.326 593.94C179.164 594.167 179.06 594.36 179.014 594.52ZM181.855 557.8L199.729 547.48L203.09 549.42L185.215 559.74L181.855 557.8ZM187.155 562.06L206.935 550.64L210.364 552.62L190.584 564.04L187.155 562.06ZM188.367 558.72L191.035 556.38C191.704 556.527 192.432 556.707 193.217 556.92C194.002 557.133 194.66 557.327 195.191 557.5L192.559 560.02C192.051 559.807 191.404 559.58 190.619 559.34C189.811 559.087 189.06 558.88 188.367 558.72ZM197.097 552.92L201.531 551.12C201.854 551.707 202.166 552.273 202.466 552.82C202.766 553.34 203.009 553.8 203.194 554.2L199.348 555.66C199.048 555.22 198.69 554.747 198.275 554.24C197.836 553.72 197.443 553.28 197.097 552.92ZM203.401 565.44L204.856 566.28L213.759 561.14L212.304 560.3L203.401 565.44ZM199.522 563.2L200.942 564.02L209.845 558.88L208.424 558.06L199.522 563.2ZM193.148 563.88L209.81 554.26L220.341 560.34L203.679 569.96L193.148 563.88ZM205.653 567.7L209.567 565.44C210.745 566.253 211.715 567.053 212.477 567.84C213.216 568.613 213.678 569.427 213.863 570.28C214.048 571.107 213.886 572.027 213.378 573.04C212.893 574.04 211.992 575.173 210.676 576.44C210.237 576.32 209.694 576.207 209.048 576.1C208.424 576.007 207.778 575.927 207.108 575.86C206.461 575.807 205.884 575.793 205.376 575.82C206.531 574.807 207.35 573.92 207.835 573.16C208.343 572.387 208.563 571.7 208.494 571.1C208.447 570.487 208.17 569.913 207.662 569.38C207.154 568.847 206.484 568.287 205.653 567.7ZM212.027 564.1L215.872 561.88L221.103 564.9C221.565 565.167 221.888 565.3 222.073 565.3C222.281 565.287 222.523 565.2 222.8 565.04C222.939 564.96 223.101 564.867 223.285 564.76C223.47 564.653 223.643 564.553 223.805 564.46C223.943 564.38 224.071 564.307 224.186 564.24C224.301 564.147 224.382 564.073 224.428 564.02C224.544 563.873 224.452 563.66 224.151 563.38C223.99 563.233 223.689 563.033 223.251 562.78C222.812 562.5 222.292 562.173 221.692 561.8C222.338 561.773 223.135 561.673 224.082 561.5C225.052 561.313 225.872 561.12 226.542 560.92C227.165 561.333 227.742 561.747 228.274 562.16C228.805 562.547 229.151 562.867 229.313 563.12C229.636 563.68 229.59 564.213 229.174 564.72C228.99 564.933 228.712 565.173 228.343 565.44C227.996 565.72 227.662 565.953 227.338 566.14C227.13 566.26 226.888 566.4 226.611 566.56C226.334 566.72 226.057 566.88 225.779 567.04C225.502 567.2 225.271 567.333 225.087 567.44C224.625 567.707 224.071 567.947 223.424 568.16C222.777 568.373 222.165 568.487 221.588 568.5C220.964 568.513 220.329 568.427 219.683 568.24C219.059 568.067 218.216 567.673 217.154 567.06L212.027 564.1ZM186.497 553.24L189.649 550.54C190.434 550.7 191.265 550.9 192.143 551.14C192.998 551.367 193.725 551.573 194.325 551.76L191.208 554.64C190.63 554.413 189.891 554.173 188.991 553.92C188.113 553.653 187.282 553.427 186.497 553.24ZM175.689 568.48L186.081 562.48L190.03 564.76L179.638 570.76L175.689 568.48ZM171.289 562.02L175.308 559.7L198.552 573.12L194.533 575.44L171.289 562.02ZM191 578.04C191.67 577.333 192.409 576.507 193.217 575.56C194.025 574.613 194.868 573.607 195.746 572.54C196.646 571.46 197.524 570.393 198.378 569.34L202.986 571.04C201.946 572.52 200.873 574.02 199.764 575.54C198.632 577.047 197.582 578.44 196.612 579.72L191 578.04Z" fill="white"/>
<rect width="360" height="12" transform="matrix(0.866025 0.5 -2.20305e-08 1 108 587)" fill="black" stroke="#56C02B" stroke-linejoin="bevel"/>
<rect width="360" height="12" transform="matrix(0.866025 -0.5 2.20305e-08 1 419.769 767)" fill="black" stroke="#56C02B" stroke-linejoin="bevel"/>
<rect width="360" height="360" transform="matrix(0.866025 -0.5 0.866025 0.5 108 452)" fill="url(#paint2_linear_326_3190)"/>
<rect width="360" height="360" transform="matrix(0.866025 -0.5 0.866025 0.5 108 452)" fill="url(#paint3_linear_326_3190)" fill-opacity="0.5"/>
<rect width="360" height="360" transform="matrix(0.866025 -0.5 0.866025 0.5 108 452)" stroke="#FCC30B" stroke-linejoin="bevel"/>
<path d="M138.761 451.96L149.327 445.86L153.068 448.02L142.502 454.12L138.761 451.96ZM155.043 456.12L154.246 450.98L174.06 462.42L170.007 464.76L155.043 456.12ZM155.32 451.8C155.805 451.76 156.521 451.733 157.467 451.72C158.414 451.68 159.43 451.653 160.516 451.64C161.578 451.613 162.571 451.6 163.495 451.6C164.419 451.6 165.088 451.6 165.504 451.6L166.37 455.06C165.654 454.967 164.8 454.887 163.807 454.82C162.791 454.74 161.74 454.667 160.654 454.6C159.569 454.533 158.53 454.48 157.537 454.44C156.567 454.387 155.735 454.36 155.043 454.36L155.32 451.8ZM148.114 446.56L148.946 446.08L149.535 445.58L153.276 445.22C154.592 446.94 155.574 448.76 156.22 450.68C156.89 452.587 157.225 454.473 157.225 456.34C157.225 458.18 156.925 459.887 156.324 461.46C155.816 461.273 155.193 461.073 154.454 460.86C153.715 460.647 152.976 460.447 152.237 460.26C151.498 460.073 150.897 459.953 150.435 459.9C151.105 458.58 151.486 457.16 151.578 455.64C151.671 454.12 151.486 452.613 151.024 451.12C150.562 449.6 149.835 448.22 148.842 446.98L148.114 446.56ZM137.791 447.6L139.315 444.72C140.586 444.733 141.925 444.813 143.334 444.96C144.743 445.107 145.932 445.273 146.902 445.46L145.482 448.6C144.535 448.373 143.334 448.173 141.879 448C140.447 447.813 139.085 447.68 137.791 447.6ZM172.224 457.52L192.282 445.94L196.369 448.3L176.312 459.88L172.224 457.52ZM156.775 446.84L174.476 436.62L178.494 438.94L160.793 449.16L156.775 446.84ZM153.414 437.02L157.71 434.54L186.843 451.36L182.547 453.84L153.414 437.02ZM187.363 431.74L191.693 434.24L208.701 424.42L204.371 421.92L187.363 431.74ZM181.3 432.24L205.445 418.3L214.937 423.78L190.792 437.72L181.3 432.24ZM183.344 426.58L195.607 419.5L198.309 421.06L186.046 428.14L183.344 426.58ZM192.42 426.86L195.78 424.92L203.09 429.14L199.729 431.08L192.42 426.86ZM189.302 431.46L191.381 429.38C192.282 429.527 193.205 429.727 194.152 429.98C195.099 430.233 195.873 430.48 196.473 430.72L194.36 432.98C193.76 432.713 192.986 432.44 192.039 432.16C191.092 431.88 190.18 431.647 189.302 431.46ZM199.868 424.32L204.129 422.82C204.475 423.473 204.822 424.1 205.168 424.7C205.538 425.287 205.815 425.807 205.999 426.26L202.397 427.42C202.097 426.953 201.704 426.42 201.219 425.82C200.734 425.22 200.284 424.72 199.868 424.32ZM193.84 437.28L214.348 425.44L226.126 432.24L221.83 434.72L212.754 429.48L200.63 436.48L209.81 441.78L205.722 444.14L193.84 437.28ZM200.249 438.3L215.907 429.26L218.609 430.82L202.951 439.86L200.249 438.3ZM204.441 440.68L220.064 431.66L222.766 433.22L207.143 442.24L204.441 440.68ZM182.34 419.76L187.328 418.4C187.697 420.053 187.617 421.793 187.085 423.62C186.577 425.433 185.746 427.247 184.591 429.06C183.437 430.873 182.074 432.62 180.504 434.3C180.088 434.22 179.557 434.14 178.91 434.06C178.24 433.967 177.559 433.893 176.866 433.84C176.15 433.773 175.55 433.733 175.065 433.72C176.705 432.187 178.125 430.607 179.326 428.98C180.527 427.353 181.404 425.753 181.959 424.18C182.513 422.58 182.64 421.107 182.34 419.76ZM186.67 419.1C188.194 419.073 189.834 418.94 191.589 418.7C193.367 418.447 195.203 418.107 197.097 417.68C198.99 417.253 200.873 416.753 202.743 416.18C204.614 415.607 206.415 414.993 208.147 414.34C208.101 414.793 208.136 415.36 208.251 416.04C208.367 416.693 208.528 417.24 208.736 417.68C206.912 418.307 204.983 418.873 202.951 419.38C200.942 419.873 198.898 420.293 196.82 420.64C194.741 420.987 192.686 421.24 190.653 421.4C188.621 421.56 186.67 421.62 184.799 421.58L186.67 419.1Z" fill="white"/>
<rect width="360" height="12" transform="matrix(0.866025 0.5 -2.20305e-08 1 108 452)" fill="black" stroke="#FCC30B" stroke-linejoin="bevel"/>
<rect width="360" height="12" transform="matrix(0.866025 -0.5 2.20305e-08 1 419.769 632)" fill="black" stroke="#FCC30B" stroke-linejoin="bevel"/>
<rect width="360" height="360" transform="matrix(0.866025 -0.5 0.866025 0.5 108 317)" fill="url(#paint4_linear_326_3190)"/>
<rect width="360" height="360" transform="matrix(0.866025 -0.5 0.866025 0.5 108 317)" fill="url(#paint5_linear_326_3190)" fill-opacity="0.5"/>
<rect width="360" height="360" transform="matrix(0.866025 -0.5 0.866025 0.5 108 317)" stroke="#DD1367" stroke-linejoin="bevel"/>
<path d="M147.248 307.06L166.024 296.22L169.73 298.36L150.955 309.2L147.248 307.06ZM166.024 316.94L182.963 307.16L186.67 309.3L169.73 319.08L166.024 316.94ZM172.952 322.74L192.871 311.24L196.681 313.44L176.762 324.94L172.952 322.74ZM174.06 314.3L178.217 311.9L187.293 317.14L183.136 319.54L174.06 314.3ZM154.592 307.7L158.957 306.14C159.35 306.953 159.719 307.807 160.065 308.7C160.412 309.567 160.735 310.407 161.035 311.22C162.698 311.327 164.361 311.487 166.024 311.7C167.686 311.887 169.072 312.1 170.181 312.34L168.171 315.02C166.878 314.7 165.262 314.407 163.322 314.14C161.359 313.86 159.338 313.627 157.26 313.44C157.006 312.76 156.74 312.073 156.463 311.38C156.163 310.673 155.851 310 155.527 309.36C155.204 308.72 154.892 308.167 154.592 307.7ZM160.481 304.38L164.777 302.82C165.169 303.633 165.527 304.48 165.851 305.36C166.197 306.227 166.497 307.053 166.751 307.84C167.86 307.893 168.98 307.98 170.111 308.1C171.22 308.207 172.271 308.32 173.264 308.44C174.234 308.547 175.077 308.673 175.792 308.82L173.887 311.52C172.594 311.227 170.977 310.947 169.037 310.68C167.098 310.413 165.088 310.213 163.01 310.08C162.802 309.4 162.548 308.72 162.248 308.04C161.971 307.347 161.682 306.687 161.382 306.06C161.082 305.407 160.781 304.847 160.481 304.38ZM166.301 300.94L170.735 299.38C171.081 300.22 171.416 301.08 171.739 301.96C172.063 302.84 172.375 303.687 172.675 304.5C173.806 304.54 174.938 304.607 176.07 304.7C177.224 304.78 178.321 304.88 179.361 305C180.377 305.107 181.254 305.213 181.993 305.32L180.192 308.08C178.852 307.787 177.167 307.533 175.134 307.32C173.102 307.08 170.989 306.9 168.795 306.78C168.587 306.1 168.356 305.407 168.102 304.7C167.825 303.98 167.525 303.3 167.202 302.66C166.878 301.993 166.578 301.42 166.301 300.94ZM155.285 317.18L157.363 314.94C158.403 315.22 159.5 315.533 160.654 315.88C161.832 316.213 162.952 316.553 164.015 316.9C165.054 317.233 165.931 317.553 166.647 317.86L164.534 320.32C163.841 320 162.975 319.66 161.936 319.3C160.874 318.927 159.765 318.553 158.611 318.18C157.456 317.807 156.347 317.473 155.285 317.18ZM161.139 324.36L163.599 322.3C164.938 322.833 166.359 323.44 167.86 324.12C169.361 324.773 170.619 325.367 171.636 325.9L169.141 328.1C168.102 327.553 166.844 326.933 165.366 326.24C163.888 325.547 162.479 324.92 161.139 324.36ZM156.671 326.34L160.585 324.68C162.063 325.693 163.472 326.747 164.811 327.84C166.128 328.92 167.155 329.887 167.894 330.74C167.502 330.807 167.017 330.913 166.439 331.06C165.908 331.207 165.366 331.36 164.811 331.52C164.28 331.667 163.83 331.807 163.46 331.94C162.837 331.1 161.878 330.187 160.585 329.2C159.315 328.2 158.01 327.247 156.671 326.34ZM147.214 321.28C146.89 321.173 146.452 321.04 145.897 320.88C145.32 320.707 144.731 320.54 144.131 320.38C143.507 320.207 142.976 320.073 142.537 319.98C142.791 319.727 142.907 319.42 142.884 319.06C142.884 318.687 142.791 318.247 142.606 317.74C142.514 317.42 142.283 316.86 141.914 316.06C141.544 315.26 141.048 314.36 140.424 313.36C139.777 312.347 139.038 311.373 138.207 310.44L143.334 309.2C144.373 310.76 145.262 312.407 146.001 314.14C146.74 315.847 147.237 317.427 147.491 318.88L147.56 318.92C147.56 318.92 147.514 319.027 147.421 319.24C147.329 319.427 147.237 319.667 147.144 319.96C147.029 320.24 146.96 320.507 146.937 320.76C146.937 321 147.029 321.173 147.214 321.28ZM147.214 321.28L144.269 319.7L144.858 318.08L150.47 314.36C150.839 314.707 151.313 315.087 151.89 315.5C152.444 315.9 152.918 316.227 153.31 316.48C152.086 317.32 151.105 318.02 150.366 318.58C149.604 319.127 149.015 319.573 148.599 319.92C148.161 320.253 147.837 320.533 147.629 320.76C147.421 320.96 147.283 321.133 147.214 321.28ZM155.527 325.76C155.204 325.653 154.742 325.52 154.142 325.36C153.541 325.173 152.918 325 152.271 324.84C151.625 324.653 151.059 324.5 150.574 324.38C150.92 324.073 151.117 323.693 151.163 323.24C151.186 322.773 151.14 322.2 151.024 321.52C150.978 321.173 150.862 320.64 150.678 319.92C150.493 319.173 150.227 318.327 149.881 317.38C149.512 316.42 149.073 315.42 148.565 314.38C148.08 313.327 147.514 312.307 146.867 311.32L152.375 310.54C153.068 311.9 153.68 313.32 154.211 314.8C154.719 316.267 155.112 317.72 155.389 319.16C155.666 320.6 155.805 321.973 155.805 323.28L155.909 323.34C155.909 323.34 155.862 323.447 155.77 323.66C155.655 323.86 155.539 324.113 155.424 324.42C155.331 324.713 155.273 324.987 155.25 325.24C155.25 325.48 155.343 325.653 155.527 325.76ZM155.527 325.76L152.444 324.18L152.999 322.54L160.308 317.16C160.724 317.48 161.232 317.84 161.832 318.24C162.41 318.627 162.918 318.933 163.356 319.16C161.74 320.387 160.435 321.393 159.442 322.18C158.449 322.967 157.687 323.593 157.156 324.06C156.648 324.513 156.266 324.867 156.012 325.12C155.782 325.36 155.62 325.573 155.527 325.76ZM163.98 321.84L165.92 319.68C167.051 319.987 168.264 320.34 169.557 320.74C170.85 321.14 171.936 321.5 172.813 321.82L170.873 324.14C170.042 323.767 168.968 323.373 167.652 322.96C166.359 322.533 165.135 322.16 163.98 321.84ZM170.388 295.06L170.285 292.48C171.301 292.373 172.409 292.293 173.61 292.24C174.811 292.16 175.977 292.1 177.109 292.06C178.24 292.02 179.233 292.02 180.088 292.06L180.33 294.88C179.545 294.8 178.564 294.767 177.386 294.78C176.231 294.78 175.053 294.807 173.853 294.86C172.629 294.9 171.474 294.967 170.388 295.06ZM179.222 301.2L178.91 298.66C179.811 298.54 180.827 298.433 181.959 298.34C183.09 298.22 184.199 298.127 185.284 298.06C186.346 297.98 187.259 297.933 188.021 297.92L188.54 300.7C187.755 300.673 186.831 300.687 185.769 300.74C184.684 300.78 183.575 300.847 182.444 300.94C181.289 301.02 180.215 301.107 179.222 301.2ZM197.478 311.14C196.993 310.407 196.404 309.56 195.711 308.6C195.018 307.613 194.245 306.593 193.39 305.54C192.536 304.487 191.658 303.46 190.757 302.46L195.399 302.02C196.231 302.927 197.062 303.873 197.893 304.86C198.702 305.833 199.498 306.8 200.284 307.76C201.046 308.707 201.75 309.62 202.397 310.5L197.478 311.14ZM184.383 293.86L191 290.04L193.563 291.52L186.947 295.34L184.383 293.86ZM178.945 290.8L202.397 277.26L205.688 279.16L182.236 292.7L178.945 290.8ZM199.972 297.54L212.962 290.04L216.184 291.9L203.194 299.4L199.972 297.54ZM204.856 300.6L218.158 292.92L221.38 294.78L208.078 302.46L204.856 300.6ZM195.988 289.28L198.967 287.56L206.103 291.68L203.124 293.4L195.988 289.28ZM209.949 289.66L213.828 287.42L228.655 295.98L224.775 298.22L209.949 289.66ZM189.718 290.78L192.386 289.24C192.386 289.24 192.501 289.32 192.732 289.48C192.986 289.627 193.194 289.747 193.355 289.84C194.741 290.64 195.85 291.32 196.681 291.88C197.535 292.427 198.171 292.873 198.586 293.22C199.025 293.553 199.268 293.84 199.314 294.08C199.36 294.347 199.325 294.593 199.21 294.82C199.094 295.02 198.886 295.233 198.586 295.46C198.425 295.607 198.171 295.793 197.824 296.02C197.455 296.233 197.074 296.453 196.681 296.68C196.265 296.467 195.757 296.253 195.157 296.04C194.556 295.827 194.002 295.667 193.494 295.56C193.84 295.413 194.129 295.287 194.36 295.18C194.591 295.047 194.764 294.947 194.88 294.88C195.157 294.72 195.272 294.547 195.226 294.36C195.157 294.187 194.741 293.867 193.979 293.4C193.24 292.92 191.958 292.127 190.134 291.02L189.718 290.78ZM203.297 281.42L207.558 281.2C207.12 282.067 206.496 282.973 205.688 283.92C204.879 284.84 204.06 285.687 203.228 286.46C202.859 286.353 202.385 286.24 201.808 286.12C201.231 285.973 200.722 285.867 200.284 285.8C200.953 285.067 201.577 284.307 202.154 283.52C202.732 282.707 203.113 282.007 203.297 281.42ZM195.33 284.86L199.106 283.76C199.06 284.613 199.002 285.487 198.933 286.38C198.863 287.273 198.748 288.047 198.586 288.7L195.988 289.32C196.011 288.613 195.954 287.847 195.815 287.02C195.7 286.18 195.538 285.46 195.33 284.86ZM204.96 282.38C206.554 282.953 208.251 283.413 210.052 283.76C211.831 284.093 213.493 284.173 215.041 284C214.971 284.28 214.96 284.633 215.006 285.06C215.052 285.46 215.133 285.813 215.249 286.12C213.447 286.227 211.507 286.053 209.429 285.6C207.35 285.12 205.376 284.527 203.505 283.82L204.96 282.38ZM195.676 297.94L199.522 295.72L203.99 298.3C204.775 298.753 205.572 299.28 206.381 299.88C207.189 300.48 207.916 301.14 208.563 301.86C209.21 302.58 209.671 303.367 209.949 304.22C210.226 305.073 210.203 305.967 209.879 306.9C209.44 306.913 208.898 306.947 208.251 307C207.628 307.067 206.981 307.133 206.311 307.2C205.688 307.267 205.133 307.347 204.648 307.44C205.041 306.36 204.995 305.387 204.51 304.52C204.025 303.627 203.355 302.84 202.501 302.16C201.646 301.48 200.838 300.92 200.076 300.48L195.676 297.94ZM187.085 293.38L189.891 291.96C191.508 293.107 192.674 294.26 193.39 295.42C194.106 296.58 194.233 297.773 193.771 299C193.355 298.92 192.767 298.847 192.004 298.78C191.219 298.7 190.573 298.673 190.065 298.7C190.457 297.753 190.365 296.847 189.787 295.98C189.233 295.1 188.333 294.233 187.085 293.38ZM190.515 288.72L191.762 286.96C192.478 287.027 193.228 287.14 194.014 287.3C194.799 287.433 195.422 287.58 195.884 287.74L194.672 289.64C194.187 289.467 193.54 289.293 192.732 289.12C191.947 288.933 191.208 288.8 190.515 288.72ZM184.591 284.1L187.951 281.6C188.783 281.84 189.66 282.12 190.584 282.44C191.508 282.76 192.247 283.053 192.801 283.32L189.372 286.02C188.818 285.727 188.09 285.4 187.189 285.04C186.289 284.68 185.423 284.367 184.591 284.1ZM200.284 285.8L202.674 284.42L208.494 287.78L208.598 290.36C208.205 290.213 207.628 290.067 206.865 289.92C206.126 289.76 205.526 289.653 205.064 289.6C205.133 289.4 205.087 289.147 204.926 288.84C204.787 288.52 204.383 288.167 203.713 287.78L200.284 285.8ZM208.667 290.4L206.381 289.32L206.45 288.32L208.701 286.02C209.071 286.18 209.498 286.347 209.983 286.52C210.468 286.693 210.872 286.833 211.196 286.94C210.503 287.713 209.983 288.333 209.637 288.8C209.29 289.24 209.048 289.58 208.909 289.82C208.771 290.06 208.69 290.253 208.667 290.4Z" fill="white"/>
<rect width="360" height="12" transform="matrix(0.866025 0.5 -2.20305e-08 1 108 317)" fill="black" stroke="#DD1367" stroke-linejoin="bevel"/>
<rect width="360" height="12" transform="matrix(0.866025 -0.5 2.20305e-08 1 419.769 497)" fill="black" stroke="#DD1367" stroke-linejoin="bevel"/>
<rect width="360" height="360" transform="matrix(0.866025 -0.5 0.866025 0.5 108 182)" fill="url(#paint6_linear_326_3190)"/>
<rect width="360" height="360" transform="matrix(0.866025 -0.5 0.866025 0.5 108 182)" fill="url(#paint7_linear_326_3190)" fill-opacity="0.5"/>
<rect width="360" height="360" transform="matrix(0.866025 -0.5 0.866025 0.5 108 182)" stroke="#19486A" stroke-linejoin="bevel"/>
<path d="M150.366 188.66L166.232 179.5L169.869 181.6L154.003 190.76L150.366 188.66ZM158.022 186.36L162.179 185.56C162.894 186.64 163.53 187.82 164.084 189.1C164.638 190.353 165.042 191.613 165.296 192.88C165.527 194.133 165.527 195.293 165.296 196.36C164.511 196.12 163.53 195.873 162.352 195.62C161.197 195.38 160.204 195.193 159.373 195.06C159.65 194.18 159.765 193.22 159.719 192.18C159.673 191.14 159.511 190.113 159.234 189.1C158.934 188.073 158.53 187.16 158.022 186.36ZM163.53 185.22C164.061 185.127 164.881 185.027 165.989 184.92C167.074 184.8 168.241 184.687 169.488 184.58C170.735 184.447 171.89 184.34 172.952 184.26C174.014 184.18 174.776 184.127 175.238 184.1L176.208 187.46C175.423 187.407 174.465 187.373 173.333 187.36C172.224 187.333 171.058 187.313 169.834 187.3C168.61 187.287 167.432 187.287 166.301 187.3C165.146 187.3 164.176 187.313 163.391 187.34L163.53 185.22ZM154.384 166.26L158.853 164.44C159.777 165.987 160.377 167.627 160.654 169.36C160.931 171.067 160.735 172.9 160.065 174.86C159.373 174.78 158.495 174.74 157.433 174.74C156.37 174.74 155.504 174.787 154.835 174.88C155.574 173.227 155.862 171.66 155.701 170.18C155.516 168.687 155.077 167.38 154.384 166.26ZM157.398 167.28L163.668 163.66L166.855 165.5L158.368 170.4L157.398 167.28ZM162.664 164.24L163.391 163.82L163.98 163.32L167.548 162.42C169.442 164.313 170.643 166.18 171.151 168.02C171.659 169.86 171.624 171.667 171.047 173.44C170.446 175.2 169.419 176.94 167.964 178.66C167.294 178.54 166.474 178.44 165.504 178.36C164.511 178.267 163.657 178.227 162.941 178.24C164.303 176.813 165.25 175.333 165.781 173.8C166.312 172.24 166.382 170.68 165.989 169.12C165.62 167.547 164.719 166.04 163.287 164.6L162.664 164.24ZM159.13 172.84L159.858 170.06C160.689 169.953 161.578 169.867 162.525 169.8C163.495 169.72 164.43 169.66 165.331 169.62C166.232 169.58 167.017 169.58 167.686 169.62L166.994 172.58C166.347 172.527 165.585 172.513 164.707 172.54C163.807 172.553 162.871 172.587 161.901 172.64C160.908 172.68 159.985 172.747 159.13 172.84ZM169.419 173.58L173.991 171.74C174.892 173.38 175.4 175.127 175.515 176.98C175.631 178.807 175.169 180.78 174.13 182.9C173.645 182.807 173.079 182.747 172.432 182.72C171.809 182.68 171.174 182.66 170.527 182.66C169.904 182.647 169.361 182.667 168.899 182.72C169.569 181.507 170.019 180.353 170.25 179.26C170.458 178.153 170.481 177.127 170.319 176.18C170.158 175.207 169.857 174.34 169.419 173.58ZM171.809 175.4L178.702 171.42L182.063 173.36L172.744 178.74L171.809 175.4ZM177.732 171.98L178.529 171.52L179.153 171.04L182.617 170.08C184.765 172.173 186.092 174.22 186.6 176.22C187.109 178.22 186.958 180.187 186.15 182.12C185.342 184.053 184.002 185.973 182.132 187.88C181.416 187.707 180.515 187.547 179.43 187.4C178.367 187.24 177.444 187.16 176.659 187.16C177.975 185.947 179.026 184.727 179.811 183.5C180.596 182.247 181.081 180.993 181.266 179.74C181.474 178.473 181.347 177.227 180.885 176C180.423 174.747 179.58 173.527 178.356 172.34L177.732 171.98ZM173.922 181.22L174.649 178.32C175.504 178.227 176.451 178.16 177.49 178.12C178.529 178.053 179.534 178.007 180.504 177.98C181.451 177.94 182.282 177.953 182.998 178.02L182.34 181.12C181.647 181.04 180.815 181 179.845 181C178.876 181 177.871 181.02 176.832 181.06C175.816 181.087 174.846 181.14 173.922 181.22ZM147.144 181.84L149.223 183.04L156.982 178.56L154.904 177.36L147.144 181.84ZM141.948 178.84L144.027 180.04L151.786 175.56L149.708 174.36L141.948 178.84ZM135.262 178.9L149.95 170.42L163.841 178.44L149.154 186.92L135.262 178.9ZM142.329 176.58L145.551 174.72L156.047 180.78L156.394 180.58L175.481 191.6L171.601 193.84L152.514 182.82L152.825 182.64L142.329 176.58ZM186.67 148.14L190.861 145.72L222.939 164.24L218.747 166.66L186.67 148.14ZM189.441 158.66L209.256 147.22L213.101 149.44L193.286 160.88L189.441 158.66ZM196.508 164.38L219.163 151.3L223.008 153.52L200.353 166.6L196.508 164.38ZM181.37 154.16L183.552 151.38C184.73 151.58 185.942 151.827 187.189 152.12C188.436 152.387 189.626 152.673 190.757 152.98C191.912 153.273 192.882 153.58 193.667 153.9L191.416 156.92C190.653 156.613 189.707 156.293 188.575 155.96C187.467 155.613 186.277 155.287 185.007 154.98C183.76 154.66 182.547 154.387 181.37 154.16ZM196.196 143.8L201.912 142.18C202.397 142.913 202.87 143.667 203.332 144.44C203.771 145.2 204.175 145.94 204.545 146.66C204.937 147.367 205.272 148.013 205.549 148.6L200.803 149.78C200.48 149.193 200.053 148.547 199.522 147.84C199.014 147.12 198.471 146.407 197.893 145.7C197.339 144.98 196.773 144.347 196.196 143.8ZM174.961 154.46L180.053 152.96C181.231 154.547 182.259 156.22 183.136 157.98C184.014 159.713 184.707 161.447 185.215 163.18C185.723 164.887 185.977 166.5 185.977 168.02C185.515 167.887 184.892 167.74 184.106 167.58C183.321 167.42 182.501 167.267 181.647 167.12C180.792 166.973 180.088 166.873 179.534 166.82C179.58 165.567 179.43 164.24 179.083 162.84C178.76 161.427 178.24 160.007 177.525 158.58C176.809 157.153 175.954 155.78 174.961 154.46ZM181.162 161.92L181.162 157.36L181.196 157.38L207.905 172.8L203.956 175.08L181.162 161.92ZM232.916 142.12L234.37 140.64C235.271 140.84 236.23 141.073 237.246 141.34C238.239 141.593 239.035 141.827 239.636 142.04L238.285 143.66C237.615 143.433 236.772 143.173 235.756 142.88C234.74 142.587 233.793 142.333 232.916 142.12ZM240.848 141.9L243.724 140.24L253.665 145.98L250.79 147.64L240.848 141.9ZM232.396 147.46L234.925 146L237.904 147.72L241.645 145.56L243.966 146.9L237.696 150.52L232.396 147.46ZM236.449 144.44L239.255 142.82L242.615 144.76C243.539 145.293 244.301 145.88 244.901 146.52C245.525 147.147 245.837 147.873 245.837 148.7C245.837 149.527 245.352 150.513 244.382 151.66C243.874 151.553 243.204 151.473 242.373 151.42C241.564 151.38 240.871 151.367 240.294 151.38C241.149 150.487 241.622 149.733 241.714 149.12C241.784 148.493 241.622 147.96 241.229 147.52C240.837 147.08 240.34 146.687 239.74 146.34L236.449 144.44ZM211.196 140.06L219.925 135.02L222.454 136.48L213.724 141.52L211.196 140.06ZM227.13 130.86L235.929 125.78L238.458 127.24L229.659 132.32L227.13 130.86ZM230.144 124.04L234.128 121.74L260.559 137C261.552 137.573 262.256 138.087 262.672 138.54C263.111 139.007 263.203 139.513 262.949 140.06C262.718 140.593 262.222 141.12 261.46 141.64C260.721 142.173 259.774 142.773 258.619 143.44C258.18 143.24 257.661 143.033 257.06 142.82C256.46 142.607 255.825 142.4 255.155 142.2C254.532 142 253.954 141.853 253.423 141.76C254.07 141.413 254.705 141.073 255.328 140.74C255.952 140.38 256.367 140.127 256.575 139.98C256.806 139.847 256.91 139.733 256.887 139.64C256.887 139.533 256.772 139.413 256.541 139.28L230.144 124.04ZM207.177 137.3L218.158 130.96L229.451 137.48L218.47 143.82L215.699 142.22L222.8 138.12L217.05 134.8L209.949 138.9L207.177 137.3ZM232.188 122.86L234.959 124.46L227.165 128.96L232.916 132.28L240.71 127.78L243.481 129.38L231.738 136.16L220.445 129.64L232.188 122.86ZM204.718 138.72L208.667 136.44L239.878 154.46L235.929 156.74L204.718 138.72ZM227.754 144.82C227.385 144.713 226.876 144.567 226.23 144.38C225.56 144.18 224.983 144.033 224.498 143.94C224.636 143.807 224.763 143.653 224.879 143.48C224.971 143.293 225.017 143.107 225.017 142.92C225.017 142.787 225.006 142.553 224.983 142.22C224.983 141.873 224.937 141.487 224.844 141.06C224.752 140.607 224.579 140.187 224.325 139.8L227.927 139.16C228.089 139.84 228.17 140.54 228.17 141.26C228.147 141.967 228.054 142.607 227.893 143.18L227.962 143.22C227.962 143.22 227.904 143.333 227.789 143.56C227.673 143.787 227.592 144.033 227.546 144.3C227.5 144.54 227.569 144.713 227.754 144.82ZM227.789 144.84L226.161 143.94L226.611 142.96L230.906 140.28C231.091 140.493 231.31 140.727 231.565 140.98C231.819 141.233 232.049 141.433 232.257 141.58C231.056 142.353 230.144 142.96 229.521 143.4C228.897 143.813 228.47 144.127 228.239 144.34C228.008 144.553 227.858 144.72 227.789 144.84ZM231.772 147.3C231.449 147.193 230.964 147.047 230.317 146.86C229.694 146.66 229.151 146.507 228.689 146.4C228.92 146.213 229.105 145.987 229.244 145.72C229.382 145.453 229.498 145.147 229.59 144.8C229.659 144.547 229.717 144.127 229.763 143.54C229.832 142.94 229.856 142.26 229.832 141.5C229.832 140.727 229.74 139.98 229.555 139.26L232.985 138.92C233.031 140.067 232.973 141.233 232.812 142.42C232.65 143.607 232.35 144.713 231.911 145.74L232.015 145.8C232.015 145.8 231.946 145.907 231.807 146.12C231.692 146.32 231.611 146.54 231.565 146.78C231.518 147.02 231.588 147.193 231.772 147.3ZM231.772 147.3L230.04 146.38L230.421 145.36L235.687 141.68C235.987 141.827 236.333 141.987 236.726 142.16C237.142 142.32 237.477 142.46 237.731 142.58C236.484 143.487 235.479 144.227 234.717 144.8C233.978 145.36 233.4 145.813 232.985 146.16C232.569 146.48 232.28 146.727 232.119 146.9C231.957 147.073 231.842 147.207 231.772 147.3ZM242.234 136.78L243.585 135.32C244.509 135.48 245.49 135.687 246.529 135.94C247.592 136.18 248.423 136.393 249.024 136.58L247.777 138.22C247.107 137.993 246.252 137.753 245.213 137.5C244.151 137.233 243.158 136.993 242.234 136.78ZM237.072 139.52C236.726 139.4 236.23 139.247 235.583 139.06C234.913 138.86 234.336 138.713 233.851 138.62C233.989 138.487 234.116 138.333 234.232 138.16C234.324 137.973 234.37 137.787 234.37 137.6C234.37 137.467 234.359 137.233 234.336 136.9C234.313 136.54 234.255 136.147 234.163 135.72C234.07 135.293 233.909 134.88 233.678 134.48L237.246 133.86C237.407 134.513 237.488 135.2 237.488 135.92C237.488 136.64 237.407 137.287 237.246 137.86L237.28 137.88C237.28 137.88 237.234 138 237.142 138.24C237.026 138.467 236.945 138.713 236.899 138.98C236.83 139.233 236.888 139.413 237.072 139.52ZM237.072 139.52L235.444 138.62L235.929 137.62L240.19 134.96C240.375 135.173 240.594 135.407 240.848 135.66C241.125 135.9 241.356 136.087 241.541 136.22C240.34 136.993 239.428 137.6 238.804 138.04C238.181 138.48 237.754 138.807 237.523 139.02C237.315 139.22 237.165 139.387 237.072 139.52ZM241.125 141.94C240.802 141.833 240.329 141.693 239.705 141.52C239.082 141.32 238.539 141.167 238.077 141.06C238.308 140.873 238.493 140.647 238.631 140.38C238.77 140.113 238.862 139.793 238.908 139.42C238.978 139.167 239.035 138.747 239.082 138.16C239.151 137.56 239.174 136.88 239.151 136.12C239.128 135.333 239.024 134.58 238.839 133.86L242.269 133.52C242.338 134.68 242.303 135.86 242.165 137.06C242.003 138.247 241.714 139.36 241.299 140.4L241.368 140.44C241.368 140.44 241.31 140.553 241.195 140.78C241.079 140.98 240.998 141.2 240.952 141.44C240.906 141.68 240.964 141.847 241.125 141.94ZM241.125 141.94L239.393 141.02L239.774 140L245.04 136.32C245.34 136.467 245.687 136.627 246.079 136.8C246.495 136.96 246.841 137.093 247.118 137.2C245.848 138.12 244.832 138.867 244.07 139.44C243.331 140 242.765 140.447 242.373 140.78C241.957 141.1 241.668 141.347 241.506 141.52C241.322 141.68 241.195 141.82 241.125 141.94ZM246.633 142.68L250.825 140.26L253.146 141.6L248.954 144.02L246.633 142.68ZM246.426 139.36L249.093 137.82L255.328 141.42L252.661 142.96L246.426 139.36ZM274.519 119.66L278.711 117.24L287.406 122.26C288.307 122.78 288.907 123.26 289.207 123.7C289.53 124.127 289.519 124.613 289.173 125.16C288.803 125.667 288.214 126.18 287.406 126.7C286.644 127.22 285.697 127.807 284.565 128.46C283.942 128.207 283.168 127.947 282.244 127.68C281.367 127.413 280.547 127.207 279.785 127.06C280.408 126.727 281.055 126.367 281.725 125.98C282.394 125.593 282.822 125.347 283.006 125.24C283.214 125.12 283.33 125.013 283.353 124.92C283.376 124.827 283.295 124.727 283.11 124.62L274.519 119.66ZM262.845 121.04C262.545 120.92 262.129 120.787 261.598 120.64C261.067 120.467 260.513 120.307 259.936 120.16C259.358 119.987 258.85 119.853 258.411 119.76C258.735 119.493 258.989 119.187 259.173 118.84C259.381 118.48 259.554 118.06 259.693 117.58C259.832 117.26 259.993 116.727 260.178 115.98C260.363 115.207 260.501 114.34 260.594 113.38C260.709 112.407 260.698 111.453 260.559 110.52L265.617 109.6C265.57 111.173 265.351 112.767 264.958 114.38C264.543 115.98 263.989 117.46 263.296 118.82L263.365 118.86C263.365 118.86 263.307 118.96 263.192 119.16C263.076 119.333 262.949 119.553 262.811 119.82C262.695 120.073 262.638 120.32 262.638 120.56C262.614 120.787 262.684 120.947 262.845 121.04ZM262.845 121.04L260.143 119.52L260.871 117.82L270.362 111.94C270.709 112.3 271.136 112.693 271.644 113.12C272.129 113.533 272.533 113.86 272.857 114.1C270.801 115.42 269.138 116.5 267.868 117.34C266.598 118.18 265.617 118.84 264.924 119.32C264.231 119.773 263.746 120.133 263.469 120.4C263.192 120.64 262.984 120.853 262.845 121.04ZM269.704 125.48C269.404 125.36 268.988 125.227 268.457 125.08C267.949 124.92 267.406 124.767 266.829 124.62C266.252 124.447 265.732 124.307 265.27 124.2C265.755 123.813 266.159 123.34 266.483 122.78C266.806 122.22 267.141 121.52 267.487 120.68C267.695 120.213 267.938 119.527 268.215 118.62C268.515 117.7 268.804 116.64 269.081 115.44C269.358 114.24 269.589 112.973 269.774 111.64C269.935 110.293 269.993 108.953 269.947 107.62L275.004 107.3C274.866 110.047 274.392 112.773 273.584 115.48C272.776 118.187 271.76 120.733 270.536 123.12L270.605 123.16C270.605 123.16 270.536 123.267 270.397 123.48C270.259 123.667 270.108 123.9 269.947 124.18C269.762 124.447 269.635 124.707 269.566 124.96C269.496 125.213 269.543 125.387 269.704 125.48ZM269.704 125.48L266.794 123.88L267.695 121.92L282.106 112.48C282.591 112.787 283.157 113.127 283.803 113.5C284.473 113.86 285.004 114.14 285.397 114.34C282.764 116.127 280.558 117.627 278.78 118.84C276.979 120.04 275.512 121.033 274.381 121.82C273.249 122.58 272.372 123.193 271.748 123.66C271.125 124.127 270.663 124.5 270.362 124.78C270.062 125.033 269.843 125.267 269.704 125.48ZM261.875 103.64L267.938 103.9C266.991 105.193 265.848 106.56 264.508 108C263.146 109.427 261.679 110.86 260.109 112.3C258.561 113.727 257.014 115.087 255.467 116.38C254.936 116.153 254.231 115.933 253.354 115.72C252.453 115.493 251.679 115.327 251.033 115.22C252.511 113.94 253.954 112.613 255.363 111.24C256.749 109.853 258.007 108.513 259.139 107.22C260.27 105.9 261.183 104.707 261.875 103.64ZM283.734 118.26L285.466 115.38C286.713 115.433 288.041 115.52 289.45 115.64C290.835 115.747 292.175 115.88 293.468 116.04C294.738 116.187 295.835 116.367 296.759 116.58L294.958 119.7C294.08 119.487 293.006 119.293 291.736 119.12C290.466 118.92 289.138 118.753 287.752 118.62C286.344 118.473 285.004 118.353 283.734 118.26ZM275.351 113.78L276.563 110.92C277.903 110.92 279.311 110.947 280.789 111C282.267 111.053 283.699 111.133 285.085 111.24C286.471 111.32 287.66 111.447 288.653 111.62L287.44 114.76C286.494 114.587 285.339 114.44 283.976 114.32C282.614 114.173 281.182 114.053 279.681 113.96C278.18 113.867 276.736 113.807 275.351 113.78ZM243.308 115.04L248.296 113.52C249.589 115.04 250.744 116.653 251.76 118.36C252.776 120.067 253.608 121.76 254.254 123.44C254.924 125.107 255.317 126.68 255.432 128.16C254.97 128.027 254.335 127.873 253.527 127.7C252.719 127.527 251.899 127.36 251.067 127.2C250.236 127.04 249.532 126.94 248.954 126.9C248.908 125.7 248.643 124.427 248.158 123.08C247.673 121.733 247.014 120.38 246.183 119.02C245.352 117.633 244.393 116.307 243.308 115.04ZM250.063 122.3L250.097 117.68L250.167 117.68L276.84 133.08L272.787 135.42L250.063 122.3ZM271.09 124.08L276.113 122.54C276.529 123.287 276.921 124.1 277.291 124.98C277.66 125.833 277.96 126.687 278.191 127.54C278.445 128.38 278.607 129.167 278.676 129.9C277.914 129.94 277.014 130.02 275.974 130.14C274.981 130.26 274.138 130.373 273.446 130.48C273.422 129.8 273.307 129.08 273.099 128.32C272.868 127.547 272.579 126.793 272.233 126.06C271.887 125.3 271.506 124.64 271.09 124.08Z" fill="white"/>
<rect width="360" height="12" transform="matrix(0.866025 0.5 -2.20305e-08 1 108 182)" fill="black" stroke="#19486A" stroke-linejoin="bevel"/>
<rect width="360" height="12" transform="matrix(0.866025 -0.5 2.20305e-08 1 419.769 362)" fill="black" stroke="#19486A" stroke-linejoin="bevel"/>
<defs>
<linearGradient id="paint0_linear_326_3190" x1="491.613" y1="-131.826" x2="616.272" y2="117.248" gradientUnits="userSpaceOnUse">
<stop stop-color="#56C02B"/>
<stop offset="1"/>
</linearGradient>
<linearGradient id="paint1_linear_326_3190" x1="0" y1="0" x2="144.169" y2="432.024" gradientUnits="userSpaceOnUse">
<stop stop-opacity="0"/>
<stop offset="1"/>
</linearGradient>
<linearGradient id="paint2_linear_326_3190" x1="491.613" y1="-131.826" x2="616.272" y2="117.248" gradientUnits="userSpaceOnUse">
<stop stop-color="#FCC30B"/>
<stop offset="1"/>
</linearGradient>
<linearGradient id="paint3_linear_326_3190" x1="0" y1="0" x2="144.169" y2="432.024" gradientUnits="userSpaceOnUse">
<stop stop-opacity="0"/>
<stop offset="1"/>
</linearGradient>
<linearGradient id="paint4_linear_326_3190" x1="491.613" y1="-131.826" x2="616.272" y2="117.248" gradientUnits="userSpaceOnUse">
<stop stop-color="#DD1367"/>
<stop offset="1"/>
</linearGradient>
<linearGradient id="paint5_linear_326_3190" x1="0" y1="0" x2="144.169" y2="432.024" gradientUnits="userSpaceOnUse">
<stop stop-opacity="0"/>
<stop offset="1"/>
</linearGradient>
<linearGradient id="paint6_linear_326_3190" x1="491.613" y1="-131.826" x2="616.272" y2="117.248" gradientUnits="userSpaceOnUse">
<stop stop-color="#19486A"/>
<stop offset="1"/>
</linearGradient>
<linearGradient id="paint7_linear_326_3190" x1="0" y1="0" x2="144.169" y2="432.024" gradientUnits="userSpaceOnUse">
<stop stop-opacity="0"/>
<stop offset="1"/>
</linearGradient>
</defs>
</svg>
